<svg width="56" height="56" viewBox="0 0 56 56" fill="none" xmlns="http://www.w3.org/2000/svg">
<path d="M38.0594 35.0133C37.8852 34.53 37.3522 34.2794 36.869 34.4536C36.3856 34.6278 36.1351 35.1608 36.3092 35.644C36.3136 35.6558 36.3181 35.6676 36.3229 35.6793C37.1712 37.8931 37.2326 39.586 36.4903 40.3301C35.5899 41.2287 33.3473 40.9478 30.4898 39.5804C26.6643 37.5941 23.187 34.9991 20.1938 31.8973C12.9079 24.6104 9.90158 17.4602 11.761 15.6008C12.3543 15.1323 13.1255 14.9523 13.865 15.1097C14.3773 15.1474 14.8232 14.7625 14.8609 14.2502C14.8972 13.755 14.5383 13.3186 14.0455 13.2587C12.7522 13.0299 11.4253 13.4069 10.4457 14.2819C7.0376 17.689 12.2474 26.5767 18.8786 33.2088C22.0203 36.46 25.671 39.1773 29.6871 41.2538C30.4143 41.602 31.1638 41.9019 31.9306 42.1514L25.3218 44.6573C16.4969 41.3022 10.144 33.4786 8.6719 24.1527C8.59226 23.6452 8.11625 23.2983 7.60873 23.3779C7.1012 23.4576 6.75425 23.9336 6.8339 24.4411C6.97994 25.3713 7.17527 26.3014 7.41432 27.2111C9.55625 35.3267 15.1978 42.0686 22.8085 45.6079L11.9312 49.7239C11.8813 49.6406 11.8185 49.566 11.7452 49.5025C8.98071 47.283 7.24619 44.028 6.94552 40.4957L6.51392 35.2691C6.47997 34.7628 6.04187 34.3798 5.53539 34.4137C5.52574 34.4144 5.51609 34.4151 5.50656 34.4162C4.9945 34.4569 4.61232 34.9051 4.65302 35.4171C4.65313 35.4192 4.65336 35.4214 4.6536 35.4235L5.09263 40.6483C5.41959 44.4239 7.18085 47.9306 10.0141 50.4475L2.25471 53.385L3.64995 47.6589C3.77169 47.1595 3.46566 46.6561 2.96628 46.5343C2.4669 46.4126 1.96345 46.7186 1.84171 47.218L0.026967 54.6593C-0.0953494 55.1582 0.209977 55.6619 0.709009 55.7841C0.892019 55.829 1.08421 55.8171 1.26036 55.7504L35.6764 42.7281C35.7312 42.7014 35.7829 42.6689 35.8308 42.6314C36.5756 42.5169 37.2662 42.1726 37.8055 41.6463C38.7272 40.7245 39.5206 38.8242 38.0594 35.0133Z" fill="#65DB6A"/>
<path d="M46.836 32.6143C41.8077 30.7319 36.3728 30.2041 31.0763 31.0842L27.7528 31.6423C27.2483 31.7392 26.918 32.2268 27.0149 32.7313C27.1087 33.2187 27.5685 33.5467 28.0597 33.4765L31.3823 32.9231C36.3566 32.0961 41.461 32.5921 46.183 34.3611C46.2878 34.3982 46.3984 34.4168 46.5095 34.416C47.0232 34.4168 47.4404 34.0012 47.4412 33.4874C47.4419 33.0984 47.2005 32.7502 46.836 32.6143Z" fill="#65DB6A"/>
<path d="M50.1438 18.2034C49.9228 17.7395 49.3678 17.5425 48.9039 17.7635L29.3704 27.0651C28.9066 27.2859 28.7096 27.8408 28.9304 28.3048L28.9305 28.305C29.1513 28.7688 29.7062 28.9659 30.1701 28.7451L30.1704 28.745L49.7038 19.4433C50.1677 19.2224 50.3647 18.6673 50.1438 18.2034Z" fill="#65DB6A"/>
<path d="M22.5905 6.31303C22.4882 5.80958 21.9972 5.48437 21.4938 5.58669C20.9903 5.68901 20.6651 6.18002 20.7674 6.68347C20.7696 6.69463 20.7722 6.70567 20.7749 6.71672C21.9522 11.9767 21.467 17.4725 19.3861 22.4448L18.0337 25.6902C17.8382 26.1631 18.0613 26.705 18.5332 26.9031C18.6462 26.9507 18.7677 26.975 18.8904 26.9747C19.2658 26.9747 19.6044 26.7492 19.7489 26.4027L21.1023 23.1611C23.3318 17.8348 23.8518 11.9476 22.5905 6.31303Z" fill="#65DB6A"/>
<path d="M51.1616 33.4858C49.6204 33.4858 48.3711 34.7352 48.3711 36.2763C48.3711 37.8175 49.6204 39.0668 51.1616 39.0668C52.7027 39.0668 53.9521 37.8175 53.9521 36.2763C53.9521 34.7352 52.7027 33.4858 51.1616 33.4858ZM51.1616 37.2065C50.6479 37.2065 50.2314 36.79 50.2314 36.2763C50.2314 35.7626 50.6479 35.3462 51.1616 35.3462C51.6753 35.3462 52.0917 35.7626 52.0917 36.2763C52.0917 36.79 51.6753 37.2065 51.1616 37.2065Z" fill="#65DB6A"/>
<path d="M28.8393 7.44141C27.2982 7.44141 26.0488 8.69073 26.0488 10.2319C26.0488 11.7731 27.2982 13.0224 28.8393 13.0224C30.3805 13.0224 31.6298 11.7731 31.6298 10.2319C31.6298 8.69073 30.3805 7.44141 28.8393 7.44141ZM28.8393 11.1621C28.3256 11.1621 27.9092 10.7456 27.9092 10.2319C27.9092 9.71821 28.3256 9.30173 28.8393 9.30173C29.353 9.30173 29.7695 9.71821 29.7695 10.2319C29.7695 10.7456 29.353 11.1621 28.8393 11.1621Z" fill="#65DB6A"/>
<path d="M20.4677 3.72065C21.4952 3.72065 22.3281 2.88776 22.3281 1.86033C22.3281 0.832896 21.4952 0 20.4677 0C19.4403 0 18.6074 0.832896 18.6074 1.86033C18.6074 2.88776 19.4403 3.72065 20.4677 3.72065Z" fill="#65DB6A"/>
<path d="M46.5122 4.65088C45.9985 4.65088 45.582 5.06736 45.582 5.58104V6.5112C45.582 7.02489 45.9985 7.44137 46.5122 7.44137C47.0259 7.44137 47.4424 7.02489 47.4424 6.5112V5.58104C47.4424 5.06736 47.0259 4.65088 46.5122 4.65088Z" fill="#65DB6A"/>
<path d="M46.5122 0C45.9985 0 45.582 0.41648 45.582 0.930163V1.86033C45.582 2.37401 45.9985 2.79049 46.5122 2.79049C47.0259 2.79049 47.4424 2.37401 47.4424 1.86033V0.930163C47.4424 0.41648 47.0259 0 46.5122 0Z" fill="#65DB6A"/>
<path d="M49.2998 2.79053H48.3696C47.8559 2.79053 47.4395 3.20701 47.4395 3.72069C47.4395 4.23437 47.8559 4.65085 48.3696 4.65085H49.2998C49.8135 4.65085 50.2299 4.23437 50.2299 3.72069C50.2299 3.20701 49.8135 2.79053 49.2998 2.79053Z" fill="#65DB6A"/>
<path d="M44.6494 2.79053H43.7192C43.2055 2.79053 42.7891 3.20701 42.7891 3.72069C42.7891 4.23437 43.2055 4.65085 43.7192 4.65085H44.6494C45.1631 4.65085 45.5796 4.23437 45.5796 3.72069C45.5796 3.20701 45.1631 2.79053 44.6494 2.79053Z" fill="#65DB6A"/>
<path d="M40.0009 10.2124H35.3306C34.8169 10.2124 34.4004 10.6289 34.4004 11.1426V15.8129C34.4004 16.3266 34.8169 16.7431 35.3306 16.7431H40.0009C40.5146 16.7431 40.9311 16.3266 40.9311 15.8129V11.1426C40.9311 10.6289 40.5146 10.2124 40.0009 10.2124ZM39.0707 14.8828H36.2607V12.0727H39.0707V14.8828Z" fill="#65DB6A"/>
<path d="M33.2249 17.9796C32.8834 17.615 32.315 17.5853 31.9374 17.9121L22.6358 26.2836C22.2542 26.6273 22.2234 27.2153 22.5669 27.597C22.9106 27.9786 23.4986 28.0094 23.8803 27.6658L33.182 19.2943C33.5569 18.9431 33.5761 18.3545 33.2249 17.9796Z" fill="#65DB6A"/>
<path d="M50.2329 21.3938C49.7192 21.3938 49.3027 21.8103 49.3027 22.324V23.2541C49.3027 23.7678 49.7192 24.1843 50.2329 24.1843C50.7466 24.1843 51.1631 23.7678 51.1631 23.2541V22.324C51.1631 21.8103 50.7466 21.3938 50.2329 21.3938Z" fill="#65DB6A"/>
<path d="M54.1793 21.2337L53.5216 20.5761C53.1521 20.2192 52.5633 20.2294 52.2064 20.5989C51.8583 20.9593 51.8583 21.5308 52.2064 21.8914L52.864 22.549C53.2335 22.9059 53.8223 22.8957 54.1793 22.5262C54.5275 22.1656 54.5275 21.5942 54.1793 21.2337Z" fill="#65DB6A"/>
<path d="M54.8838 17.6731H53.9536C53.4399 17.6731 53.0234 18.0896 53.0234 18.6033C53.0234 19.1169 53.4399 19.5334 53.9536 19.5334H54.8838C55.3974 19.5334 55.8139 19.1169 55.8139 18.6033C55.8139 18.0896 55.3974 17.6731 54.8838 17.6731Z" fill="#65DB6A"/>
<path d="M54.1541 14.6576C53.7936 14.3095 53.2222 14.3095 52.8616 14.6576L52.204 15.3152C51.8408 15.6785 51.8409 16.2674 52.2042 16.6307C52.3786 16.805 52.6151 16.903 52.8616 16.903C53.1083 16.903 53.3448 16.8048 53.5192 16.6304L54.1769 15.9728C54.5338 15.6033 54.5236 15.0144 54.1541 14.6576Z" fill="#65DB6A"/>
<path d="M50.2329 13.0222C49.7192 13.0222 49.3027 13.4387 49.3027 13.9524V14.8825C49.3027 15.3962 49.7192 15.8127 50.2329 15.8127C50.7466 15.8127 51.1631 15.3962 51.1631 14.8825V13.9524C51.1631 13.4387 50.7466 13.0222 50.2329 13.0222Z" fill="#65DB6A"/>
<path d="M48.2574 15.3152L47.5998 14.6576C47.2303 14.3008 46.6415 14.3109 46.2845 14.6804C45.9364 15.0408 45.9364 15.6123 46.2845 15.9729L46.9421 16.6305C47.3117 16.9874 47.9004 16.9772 48.2574 16.6077C48.6056 16.2471 48.6056 15.6757 48.2574 15.3152Z" fill="#65DB6A"/>
<path d="M11.1175 4.02207C11.008 3.68558 10.717 3.44048 10.3669 3.38956L7.63688 2.99238L6.41929 0.519074C6.14792 0.0582942 5.55436 -0.095299 5.09358 0.176076C4.95196 0.259442 4.83395 0.377456 4.75058 0.519074L3.52742 2.99238L0.797388 3.38956C0.288938 3.46292 -0.0637104 3.93463 0.00965618 4.44308C0.03884 4.64551 0.133949 4.83259 0.280217 4.97548L2.25495 6.90092L1.78987 9.61979C1.70058 10.1257 2.03823 10.6082 2.54412 10.6975C2.74782 10.7334 2.95758 10.7005 3.14047 10.6039L5.58215 9.31655L8.02382 10.6002C8.47856 10.8392 9.04096 10.6645 9.28001 10.2097C9.37523 10.0287 9.40802 9.8214 9.37349 9.61979L8.90841 6.90092L10.8841 4.97548C11.137 4.72794 11.2274 4.35844 11.1175 4.02207ZM7.25644 5.9103C7.03739 6.12365 6.93728 6.43107 6.98855 6.73256L7.21923 8.07665L6.01467 7.44135C5.74388 7.29915 5.42041 7.29915 5.14962 7.44135L3.94041 8.07572L4.17109 6.73163C4.22329 6.4313 4.12493 6.12435 3.90785 5.9103L2.93025 4.95874L4.27992 4.76248C4.58292 4.71853 4.84488 4.52819 4.98033 4.25368L5.58215 3.03237L6.18489 4.25368C6.32023 4.52796 6.58172 4.71818 6.88437 4.76248L8.23311 4.95874L7.25644 5.9103Z" fill="#65DB6A"/>
<path d="M52.6692 46.6246H52.6655L52.2823 46.0497C50.1335 42.8364 46.7546 40.6514 42.9425 40.0102C42.434 39.9376 41.9628 40.2911 41.8903 40.7997C41.8202 41.291 42.1482 41.7509 42.6356 41.8445C45.3851 42.3112 47.8909 43.708 49.7337 45.8014C48.1844 46.0801 46.8293 47.0106 46.013 48.3565C45.0112 50.1507 45.6536 52.4172 47.4478 53.4189C49.2419 54.4207 51.5084 53.7783 52.5102 51.9842C52.8928 51.2455 53.0995 50.4282 53.1139 49.5964C54.1036 51.0339 54.1827 52.9111 53.3176 54.4268C53.0555 54.8686 53.2012 55.4393 53.643 55.7013C54.0848 55.9634 54.6555 55.8177 54.9176 55.3759C54.9259 55.3617 54.934 55.3474 54.9416 55.3327C56.6448 52.2906 55.6416 48.4466 52.6692 46.6246ZM50.888 51.0763C50.3915 51.9759 49.2599 52.3026 48.3604 51.8062C47.4609 51.3097 47.1341 50.178 47.6306 49.2785C47.6333 49.2735 47.6361 49.2684 47.6389 49.2634C48.1878 48.3647 49.1137 47.7622 50.1578 47.6245C50.3195 47.6201 50.4796 47.6573 50.6229 47.7324C51.4079 48.1705 51.4498 50.0699 50.888 51.0763Z" fill="#65DB6A"/>
</svg>
