<svg width="26" height="29" viewBox="0 0 26 29" fill="none" xmlns="http://www.w3.org/2000/svg">
<path d="M24.7004 4.21892C20.5949 4.21892 15.1932 2.83355 13.2677 0.266884C13.0116 -0.0450167 12.5512 -0.0900045 12.2393 0.166146C12.2024 0.196281 12.1686 0.230076 12.1385 0.266884C10.2129 2.83334 4.81111 4.21892 0.705813 4.21892C0.31599 4.21892 0 4.53491 0 4.92473V14.099C0 21.8593 6.73891 26.5376 12.5094 28.186C12.636 28.2228 12.7703 28.2228 12.8968 28.186C18.6673 26.5376 25.4062 21.8593 25.4062 14.099V4.92473C25.4062 4.53491 25.0902 4.21892 24.7004 4.21892ZM23.9946 14.099C23.9946 20.9882 17.9574 25.2114 12.7031 26.7733C7.44881 25.2114 1.41141 20.9882 1.41141 14.099V5.61806C5.49066 5.48008 10.3145 4.1651 12.7031 1.76267C15.092 4.1651 19.9156 5.48008 23.9948 5.61784V14.099H23.9946Z" fill="url(#paint0_linear_189_12426)"/>
<path d="M9.88038 11.2759V12.6874H9.17456C8.78474 12.6874 8.46875 13.0033 8.46875 13.3932V19.0388C8.46875 19.4286 8.78474 19.7446 9.17456 19.7446H16.2318C16.6216 19.7446 16.9376 19.4286 16.9376 19.0388V13.3932C16.9376 13.0033 16.6216 12.6874 16.2318 12.6874H15.526V11.2759C15.526 9.71687 14.2623 8.45312 12.7032 8.45312C11.1441 8.45312 9.88038 9.71687 9.88038 11.2759ZM15.526 18.3332H9.88038V14.0988H15.526V18.3332ZM14.1146 11.2759V12.6874H11.2918V11.2759C11.2918 10.4965 11.9236 9.86453 12.7032 9.86453C13.4826 9.86453 14.1146 10.4965 14.1146 11.2759Z" fill="url(#paint1_linear_189_12426)"/>
<defs>
<linearGradient id="paint0_linear_189_12426" x1="12.7031" y1="0" x2="12.7031" y2="28.2136" gradientUnits="userSpaceOnUse">
<stop stop-color="#54C4FC"/>
<stop offset="1" stop-color="#2479DF"/>
</linearGradient>
<linearGradient id="paint1_linear_189_12426" x1="12.7032" y1="8.45312" x2="12.7032" y2="19.7446" gradientUnits="userSpaceOnUse">
<stop stop-color="#54C4FC"/>
<stop offset="1" stop-color="#2479DF"/>
</linearGradient>
</defs>
</svg>
