<svg width="67" height="74" viewBox="0 0 67 74" fill="none" xmlns="http://www.w3.org/2000/svg">
<path d="M65.1387 11.0656C54.3118 11.0656 40.0666 7.43199 34.989 0.699997C34.3134 -0.118072 33.0992 -0.236068 32.2767 0.435776C32.1796 0.514816 32.0905 0.603454 32.011 0.699997C26.9328 7.43142 12.6876 11.0656 1.86133 11.0656C0.833313 11.0656 0 11.8944 0 12.9168V36.9796C0 57.3336 17.7715 69.6041 32.9891 73.9276C33.3229 74.0241 33.6771 74.0241 34.0109 73.9276C49.2285 69.6041 67 57.3336 67 36.9796V12.9168C67 11.8944 66.1667 11.0656 65.1387 11.0656ZM63.2773 36.9796C63.2773 55.0488 47.3564 66.1257 33.5 70.2223C19.6436 66.1257 3.7221 55.0488 3.7221 36.9796V14.7353C14.4797 14.3734 27.2008 10.9244 33.5 4.62323C39.7998 10.9244 52.5203 14.3734 63.2779 14.7348V36.9796H63.2773Z" fill="url(#paint0_linear_191_4)"/>
<path d="M26.667 29.4999V33.2498H24.8335C23.8209 33.2498 23 34.0893 23 35.125V50.1247C23 51.1605 23.8209 52 24.8335 52H43.1665C44.1791 52 45 51.1605 45 50.1247V35.125C45 34.0893 44.1791 33.2498 43.1665 33.2498H41.333V29.4999C41.333 25.3576 38.0501 22 34 22C29.9499 22 26.667 25.3576 26.667 29.4999ZM41.333 48.2501H26.667V36.9997H41.333V48.2501ZM37.6665 29.4999V33.2498H30.3335V29.4999C30.3335 27.429 31.9747 25.7499 34 25.7499C36.0248 25.7499 37.6665 27.429 37.6665 29.4999Z" fill="url(#paint1_linear_191_4)"/>
<defs>
<linearGradient id="paint0_linear_191_4" x1="33.5" y1="0" x2="33.5" y2="74" gradientUnits="userSpaceOnUse">
<stop stop-color="#54C4FC"/>
<stop offset="1" stop-color="#2479DF"/>
</linearGradient>
<linearGradient id="paint1_linear_191_4" x1="34" y1="22" x2="34" y2="52" gradientUnits="userSpaceOnUse">
<stop stop-color="#54C4FC"/>
<stop offset="1" stop-color="#2479DF"/>
</linearGradient>
</defs>
</svg>
