<svg width="22" height="21" viewBox="0 0 22 21" fill="current" xmlns="http://www.w3.org/2000/svg">
<path fill-rule="evenodd" clip-rule="evenodd" d="M5.07124 0.275589C3.92588 0.446339 3.02013 0.904547 2.1931 1.73162C1.3425 2.58221 0.875668 3.53186 0.721135 4.72595C0.660663 5.19326 0.660663 15.6892 0.721135 16.1565C0.875668 17.3506 1.3425 18.3002 2.1931 19.1508C3.04369 20.0014 3.99334 20.4682 5.18743 20.6228C5.65474 20.6832 16.1506 20.6832 16.618 20.6228C17.812 20.4682 18.7617 20.0014 19.6123 19.1508C20.4629 18.3002 20.9297 17.3506 21.0842 16.1565C21.1447 15.6892 21.1447 5.19326 21.0842 4.72595C20.9297 3.53186 20.4629 2.58221 19.6123 1.73162C18.7617 0.881022 17.812 0.414186 16.618 0.259652C16.1062 0.193429 5.5243 0.208008 5.07124 0.275589ZM17.0429 2.08202C17.4923 2.23851 17.593 2.28904 17.9626 2.54339C18.556 2.95175 19.0222 3.58558 19.2572 4.30329L19.3903 4.70961V10.4412C19.3903 15.9269 19.3871 16.1831 19.3156 16.4125C19.045 17.281 18.5852 17.9216 17.8994 18.3855C17.6067 18.5835 17.3492 18.7031 16.9321 18.8347L16.6343 18.9288H10.9027H5.17109L4.76477 18.7957C3.64529 18.4292 2.86264 17.6093 2.48978 16.4125C2.41833 16.1831 2.41513 15.9269 2.41513 10.4412C2.41513 4.95549 2.41833 4.69935 2.48978 4.46996C2.77393 3.55782 3.26824 2.89571 4.01031 2.43319C4.32174 2.23911 4.85588 2.03062 5.18779 1.97358C5.28844 1.95629 7.91407 1.94474 11.0225 1.9479L16.6742 1.95365L17.0429 2.08202ZM16.175 3.66774C15.8903 3.72941 15.7276 3.81788 15.5363 4.01503C15.2754 4.28387 15.1963 4.49245 15.1972 4.90932C15.1978 5.22014 15.2122 5.29583 15.3036 5.4685C15.5238 5.88493 15.8963 6.12849 16.3592 6.15873C16.697 6.18077 16.8769 6.13177 17.1625 5.93989C17.9574 5.40583 17.866 4.18726 17.0003 3.7753C16.7045 3.63451 16.4696 3.60391 16.175 3.66774ZM10.2491 5.37124C8.31908 5.63873 6.67461 6.98404 6.07393 8.78684C5.86871 9.40273 5.81239 9.75901 5.81239 10.4412C5.81239 11.1239 5.86851 11.4786 6.07473 12.0988C6.55542 13.5444 7.80228 14.7882 9.25619 15.2726C9.86402 15.4751 10.2227 15.5315 10.9027 15.5315C11.5827 15.5315 11.9414 15.4751 12.5492 15.2726C14.0031 14.7882 15.25 13.5444 15.7307 12.0988C15.9369 11.4786 15.993 11.1239 15.993 10.4412C15.993 9.546 15.8188 8.81523 15.4317 8.0863C14.695 6.69921 13.4214 5.74581 11.8813 5.42832C11.4969 5.34907 10.6281 5.31868 10.2491 5.37124ZM11.9304 7.20048C12.3564 7.34195 12.4716 7.39735 12.7999 7.61871C13.4699 8.07049 13.9239 8.69601 14.1828 9.52431C14.2635 9.78242 14.2759 9.90464 14.2759 10.4412C14.2759 11.1005 14.2285 11.3421 13.9959 11.8681C13.6996 12.5381 12.9979 13.2388 12.3258 13.5361C11.8038 13.7669 11.5609 13.8144 10.9027 13.8144C10.2445 13.8144 10.0016 13.7669 9.47954 13.5361C8.80744 13.2388 8.10579 12.5381 7.80951 11.8681C7.57689 11.3421 7.52948 11.1005 7.52948 10.4412C7.52948 9.90464 7.54186 9.78242 7.62254 9.52431C7.75846 9.08963 7.87797 8.8388 8.10723 8.50716C8.55881 7.85396 9.191 7.40003 9.96583 7.17264C10.3579 7.05761 10.4188 7.05142 11.0225 7.06548C11.4975 7.07654 11.6056 7.09264 11.9304 7.20048Z" fill="black"/>
</svg>
