<svg width="28" height="22" viewBox="0 0 28 22" fill="none" xmlns="http://www.w3.org/2000/svg">
<g clip-path="url(#clip0_437_161)">
<path d="M27.9995 19.2306C27.9725 19.3259 27.9426 19.4212 27.9192 19.5172C27.5101 21.2096 25.8007 22.2216 24.1571 21.6971C22.8481 21.279 21.5573 20.8018 20.2614 20.3431C20.1715 20.3055 20.096 20.2397 20.0459 20.1555C19.8099 19.7625 19.5769 19.3665 19.3643 18.9602C19.3405 18.9067 19.3281 18.8487 19.3281 18.79C19.3281 18.7313 19.3405 18.6732 19.3643 18.6197C22.1991 13.5798 25.0398 8.54259 27.8863 3.50809C27.9202 3.45596 27.9581 3.40657 27.9995 3.36035V19.2306Z" fill="black"/>
<path d="M9.17942 13.0934C9.17942 15.8576 9.17942 18.6226 9.18453 21.3868C9.18453 21.6084 9.12463 21.7126 8.9179 21.7901C8.10559 22.0945 7.3108 22.0723 6.53282 21.6897C4.906 20.886 3.27845 20.083 1.66332 19.2519C0.577072 18.6972 0.0102057 17.7701 0.00728368 16.538C-0.00294329 12.0595 -0.00367379 7.58096 0.00509219 3.10246C0.00509219 0.790326 2.34853 -0.640538 4.38808 0.415066C5.48967 0.985343 6.58761 1.56301 7.6819 2.14806C7.80615 2.21835 7.91014 2.3202 7.98359 2.44354C8.34884 3.05814 8.70752 3.67865 9.05231 4.30654C9.12999 4.44906 9.17235 4.60849 9.17577 4.77119C9.1821 7.54575 9.18331 10.3198 9.17942 13.0934Z" fill="black"/>
<path d="M18.3078 17.1305L16.765 14.4424C15.5041 12.245 14.2426 10.0481 12.9803 7.85167C12.9329 7.78773 12.9072 7.70997 12.9072 7.63006C12.9072 7.55014 12.9329 7.47238 12.9803 7.40845C14.1788 5.44153 15.3719 3.47166 16.5597 1.49884C17.3472 0.207587 18.7176 -0.280694 20.156 0.156617C22.2744 0.799287 24.3994 1.40502 26.5223 2.02627C26.5997 2.04917 26.6771 2.07576 26.7838 2.10974L18.3078 17.1305Z" fill="black"/>
<path d="M17.0804 19.2425L14.6953 18.4099C13.4747 17.9844 12.2547 17.5575 11.0297 17.1379C10.8836 17.0869 10.8105 17.0278 10.8105 16.8535C10.8164 13.7859 10.8181 10.7183 10.8157 7.65075C10.8157 7.60052 10.8237 7.55028 10.8339 7.43652C10.923 7.58426 10.98 7.66995 11.0333 7.76155L17.1695 18.4616C17.3931 18.8458 17.3931 18.8458 17.0804 19.2425Z" fill="black"/>
</g>
<defs>
<clipPath id="clip0_437_161">
<rect width="28" height="22" fill="black"/>
</clipPath>
</defs>
</svg>
