<svg width="22" height="21" viewBox="0 0 22 21" fill="current" xmlns="http://www.w3.org/2000/svg">
<path fill-rule="evenodd" clip-rule="evenodd" d="M9.91653 0.501343C6.72005 0.833496 3.92116 2.57047 2.21937 5.2781C0.276019 8.37009 0.158751 12.3773 1.91805 15.5768C2.7176 17.0309 3.86444 18.2752 5.27813 19.2225C6.22977 19.8602 7.67422 20.4637 8.7796 20.6855C9.63243 20.8566 9.95747 20.8876 10.8947 20.8874C11.8386 20.8872 12.2254 20.8503 13.0202 20.6846C16.5355 19.9517 19.4681 17.3219 20.6004 13.8872C20.9659 12.7784 21.0983 11.9266 21.0983 10.6839C21.0983 9.48226 20.9725 8.63662 20.6376 7.58848C20.14 6.03096 19.3183 4.67878 18.1531 3.50027C16.5564 1.88531 14.5856 0.891411 12.3126 0.554864C11.8226 0.482291 10.4045 0.450657 9.91653 0.501343ZM8.29846 6.34698C9.21176 6.51102 10.0118 6.95393 10.6912 7.67163C11.2151 8.22514 11.5504 8.84148 11.7634 9.64251C11.8527 9.97865 11.865 10.1047 11.865 10.6839C11.865 11.2632 11.8527 11.3892 11.7634 11.7254C11.5525 12.5185 11.219 13.1355 10.7049 13.6833C10.1265 14.2996 9.42996 14.727 8.65793 14.9393C8.18674 15.069 7.31486 15.1164 6.83073 15.0389C5.03409 14.751 3.5926 13.3706 3.22166 11.5826C3.12708 11.1268 3.12073 10.3068 3.2082 9.84561C3.54067 8.0931 4.92532 6.70225 6.68582 6.35245C7.0429 6.28151 7.91742 6.27852 8.29846 6.34698ZM15.0236 6.65109C15.4521 6.85387 15.9437 7.44177 16.2004 8.05839C16.3561 8.43244 16.505 8.94641 16.5939 9.41636C16.6928 9.93959 16.6928 11.4283 16.5939 11.9515C16.3835 13.0643 16.0042 13.8933 15.4808 14.3844C14.2813 15.51 12.8864 14.4179 12.4243 11.9915C12.3697 11.7048 12.3541 11.4132 12.3541 10.6839C12.3541 9.67646 12.391 9.36671 12.5955 8.65747C12.7255 8.20701 13.0288 7.57538 13.2645 7.26431C13.7584 6.61259 14.4402 6.37493 15.0236 6.65109ZM18.0069 7.01076C18.1797 7.10323 18.3752 7.66357 18.5012 8.42725C18.6038 9.04862 18.643 9.6733 18.643 10.6839C18.643 12.0119 18.5653 12.8189 18.36 13.6196C18.2025 14.2343 17.9644 14.5193 17.7616 14.3359C16.9491 13.6012 16.9106 8.04017 17.7113 7.08857C17.8182 6.96155 17.8831 6.9445 18.0069 7.01076Z" fill="black"/>
</svg>
