<svg width="24" height="25" viewBox="0 0 24 25" fill="current" xmlns="http://www.w3.org/2000/svg">
<path d="M11.8991 22.2149C10.5472 22.2149 9.28372 21.9614 8.10879 21.4544C6.93386 20.9474 5.91183 20.2594 5.04271 19.3903C4.17358 18.5211 3.48954 17.4951 2.9906 16.3121C2.49166 15.1291 2.24219 13.8616 2.24219 12.5097C2.24219 11.1577 2.49166 9.89827 2.9906 8.73139C3.48954 7.56451 4.17358 6.5465 5.04271 5.67738C5.91183 4.80825 6.93386 4.12824 8.10879 3.63734C9.28372 3.14645 10.5472 2.901 11.8991 2.901C13.2511 2.901 14.5146 3.14645 15.6895 3.63734C16.8644 4.12824 17.8865 4.80825 18.7556 5.67738C19.6247 6.5465 20.3087 7.56451 20.8077 8.73139C21.3066 9.89827 21.5561 11.1577 21.5561 12.5097C21.5561 13.8616 21.3066 15.1291 20.8077 16.3121C20.3087 17.4951 19.6247 18.5211 18.7556 19.3903C17.8865 20.2594 16.8644 20.9474 15.6895 21.4544C14.5146 21.9614 13.2511 22.2149 11.8991 22.2149ZM11.8991 20.8147C12.4625 20.2352 12.9332 19.5713 13.3115 18.8229C13.6897 18.0745 13.9995 17.1853 14.241 16.1552H9.58148C9.80681 17.1209 10.1086 17.99 10.4868 18.7626C10.865 19.5351 11.3358 20.2191 11.8991 20.8147ZM9.84704 20.525C9.44467 19.9133 9.09863 19.2535 8.80892 18.5453C8.51921 17.8371 8.27779 17.0404 8.08465 16.1552H4.46329C5.0749 17.2979 5.78307 18.1952 6.58782 18.8471C7.39257 19.4989 8.47897 20.0582 9.84704 20.525ZM13.9754 20.5008C15.1342 20.1306 16.1764 19.5753 17.1018 18.835C18.0273 18.0946 18.7717 17.2013 19.335 16.1552H15.7378C15.5286 17.0243 15.2831 17.813 15.0014 18.5211C14.7198 19.2293 14.3778 19.8892 13.9754 20.5008ZM3.98044 14.7066H7.81908C7.7708 14.2721 7.74263 13.8818 7.73458 13.5357C7.72654 13.1897 7.72251 12.8477 7.72251 12.5097C7.72251 12.1073 7.73056 11.7492 7.74665 11.4353C7.76275 11.1215 7.79494 10.7714 7.84322 10.3851H3.98044C3.86778 10.7714 3.79132 11.1175 3.75109 11.4233C3.71085 11.7291 3.69073 12.0912 3.69073 12.5097C3.69073 12.9281 3.71085 13.3024 3.75109 13.6323C3.79132 13.9622 3.86778 14.3204 3.98044 14.7066ZM9.31591 14.7066H14.5065C14.5709 14.2077 14.6111 13.8013 14.6272 13.4874C14.6433 13.1736 14.6514 12.8477 14.6514 12.5097C14.6514 12.1878 14.6433 11.8779 14.6272 11.5802C14.6111 11.2824 14.5709 10.8841 14.5065 10.3851H9.31591C9.25153 10.8841 9.21129 11.2824 9.1952 11.5802C9.1791 11.8779 9.17106 12.1878 9.17106 12.5097C9.17106 12.8477 9.1791 13.1736 9.1952 13.4874C9.21129 13.8013 9.25153 14.2077 9.31591 14.7066ZM15.9551 14.7066H19.8179C19.9305 14.3204 20.007 13.9622 20.0472 13.6323C20.0874 13.3024 20.1076 12.9281 20.1076 12.5097C20.1076 12.0912 20.0874 11.7291 20.0472 11.4233C20.007 11.1175 19.9305 10.7714 19.8179 10.3851H15.9792C16.0275 10.9485 16.0597 11.379 16.0758 11.6768C16.0919 11.9745 16.0999 12.2522 16.0999 12.5097C16.0999 12.8638 16.0879 13.1977 16.0637 13.5116C16.0396 13.8254 16.0034 14.2238 15.9551 14.7066ZM15.7136 8.9366H19.335C18.8039 7.82605 18.0756 6.90059 17.1501 6.16022C16.2247 5.41986 15.1584 4.89677 13.9513 4.59097C14.3536 5.18648 14.6956 5.83028 14.9773 6.52236C15.259 7.21444 15.5044 8.01919 15.7136 8.9366ZM9.58148 8.9366H14.2651C14.0881 8.08357 13.7903 7.2587 13.3718 6.462C12.9534 5.66531 12.4625 4.96115 11.8991 4.34954C11.3841 4.78411 10.9495 5.35548 10.5955 6.06365C10.2414 6.77183 9.90338 7.72948 9.58148 8.9366ZM4.46329 8.9366H8.10879C8.28583 8.06747 8.51116 7.29089 8.78478 6.60686C9.05839 5.92282 9.40443 5.25891 9.8229 4.61511C8.61578 4.92091 7.56156 5.43595 6.66025 6.16022C5.75893 6.8845 5.02661 7.80996 4.46329 8.9366Z" fill="black"/>
</svg>
