<svg width="66" height="66" viewBox="0 0 66 66" fill="none" xmlns="http://www.w3.org/2000/svg">
<path d="M30.25 5.5H8.25V11H30.25V5.5Z" fill="white"/>
<path d="M16.5 30.25H22V19.25H30.25V13.75H8.25V19.25H16.5V30.25Z" fill="white"/>
<path d="M55.4998 34.1105L34.11 55.5002L37.9991 59.3893L59.3888 37.9995L55.4998 34.1105Z" fill="white"/>
<path d="M39.875 44C42.1532 44 44 42.1532 44 39.875C44 37.5968 42.1532 35.75 39.875 35.75C37.5968 35.75 35.75 37.5968 35.75 39.875C35.75 42.1532 37.5968 44 39.875 44Z" fill="white"/>
<path d="M53.625 57.75C55.9032 57.75 57.75 55.9032 57.75 53.625C57.75 51.3468 55.9032 49.5 53.625 49.5C51.3468 49.5 49.5 51.3468 49.5 53.625C49.5 55.9032 51.3468 57.75 53.625 57.75Z" fill="white"/>
<path d="M42.625 30.25C46.42 30.25 49.5 27.17 49.5 23.375V11H57.75V5.5H46.75V17.9025C45.595 17.0225 44.1925 16.5 42.625 16.5C38.83 16.5 35.75 19.58 35.75 23.375C35.75 27.17 38.83 30.25 42.625 30.25Z" fill="white"/>
<path d="M26.785 43.8901L22.9075 47.7676L20.955 45.8151L21.9175 44.8526C24.6125 42.1576 24.6125 37.8126 21.9175 35.1176C20.57 33.7701 18.81 33.1101 17.05 33.1101C15.29 33.1101 13.53 33.7701 12.1825 35.1176C9.48749 37.8126 9.48749 42.1576 12.1825 44.8526L13.145 45.8151L10.23 48.7301C7.53499 51.4251 7.53499 55.7701 10.23 58.4651C11.605 59.8401 13.365 60.5001 15.125 60.5001C16.885 60.5001 18.645 59.8401 19.9925 58.4926L22.9075 55.5776L26.785 59.4551L30.6625 55.5776L26.785 51.7001L30.6625 47.8226L26.785 43.8901ZM16.0875 39.0501C16.4175 38.7201 16.8025 38.6376 17.05 38.6376C17.2975 38.6376 17.6825 38.7201 18.0125 39.0501C18.535 39.6001 18.535 40.4526 18.0125 41.0026L17.05 41.9651L16.0875 40.9751C15.565 40.4526 15.565 39.5726 16.0875 39.0501ZM16.0875 54.5876C15.7575 54.9176 15.3725 55.0001 15.125 55.0001C14.8775 55.0001 14.4925 54.9176 14.1625 54.5876C13.64 54.0651 13.64 53.1851 14.1625 52.6351L17.0775 49.7201L19.03 51.6726L16.0875 54.5876Z" fill="white"/>
</svg>
