<svg width="123" height="149" viewBox="0 0 123 149" fill="none" xmlns="http://www.w3.org/2000/svg">
<path d="M5.10268 148.201H4.85327L4.42927 147.553C4.25468 147.777 4.05516 147.952 3.80574 148.102C3.55633 148.226 3.25704 148.301 2.98269 148.301H2.58363C2.30928 148.301 2.05987 148.251 1.81045 148.152C1.33657 147.952 0.962457 147.578 0.762928 147.104C0.663163 146.88 0.613281 146.63 0.613281 146.381V142.091C0.613281 141.842 0.663163 141.567 0.762928 141.343C0.962457 140.869 1.33657 140.495 1.81045 140.295C2.05987 140.195 2.30928 140.146 2.58363 140.146H3.15728C3.40669 140.146 3.68104 140.195 3.90551 140.295C4.12998 140.395 4.35445 140.545 4.52904 140.719C4.90315 141.093 5.10268 141.592 5.10268 142.091V142.415L4.37939 142.54V142.116C4.37939 141.941 4.35445 141.767 4.27963 141.617C4.2048 141.467 4.12998 141.343 4.00527 141.218C3.90551 141.093 3.75586 140.994 3.60622 140.944C3.45657 140.869 3.28198 140.844 3.10739 140.844H2.60857C2.43398 140.844 2.2594 140.869 2.10975 140.944C1.9601 141.018 1.81045 141.093 1.71069 141.218C1.58598 141.343 1.51116 141.467 1.43634 141.617C1.36151 141.767 1.33657 141.941 1.33657 142.116V146.381C1.33657 146.555 1.36151 146.73 1.43634 146.88C1.56104 147.179 1.81045 147.428 2.10975 147.553C2.2594 147.628 2.43398 147.653 2.60857 147.653H3.10739C3.28198 147.653 3.45657 147.628 3.60622 147.553C3.75586 147.478 3.90551 147.403 4.00527 147.279C4.12998 147.154 4.2048 147.029 4.27963 146.88C4.35445 146.73 4.37939 146.555 4.37939 146.381V144.71H3.10739V144.036H5.10268V148.201Z" fill="black"/>
<path d="M3.00704 148.551C2.9821 148.551 2.9821 148.551 3.00704 148.551H2.58304C2.28375 148.551 2.0094 148.501 1.73504 148.376C1.21128 148.152 0.78728 147.728 0.56281 147.204C0.413163 146.955 0.363281 146.656 0.363281 146.381V142.091C0.363281 141.792 0.413163 141.518 0.537869 141.243C0.762339 140.72 1.18634 140.296 1.7101 140.071C1.98445 139.946 2.28375 139.896 2.58304 139.896H3.15669C3.45598 139.896 3.73033 139.946 4.00468 140.071C4.2541 140.171 4.50351 140.345 4.70304 140.545C5.12703 140.969 5.3515 141.518 5.3515 142.091V142.615L4.12939 142.815V142.091C4.12939 141.942 4.10445 141.817 4.05457 141.692C4.00468 141.568 3.92986 141.468 3.8301 141.368C3.73033 141.268 3.63057 141.193 3.50586 141.144C3.38116 141.094 3.25645 141.069 3.1068 141.069H2.60798C2.45834 141.069 2.33363 141.094 2.20892 141.144C2.08422 141.193 1.98445 141.268 1.88469 141.368C1.78492 141.468 1.7101 141.568 1.66022 141.692C1.61034 141.817 1.5854 141.942 1.5854 142.091V146.356C1.5854 146.506 1.61034 146.631 1.66022 146.755C1.75998 147.005 1.95951 147.204 2.20892 147.304C2.33363 147.354 2.45834 147.379 2.60798 147.379H3.1068C3.25645 147.379 3.38116 147.354 3.50586 147.304C3.63057 147.254 3.73033 147.179 3.8301 147.08C3.92986 146.98 4.00468 146.88 4.05457 146.755C4.10445 146.631 4.12939 146.506 4.12939 146.356V144.935H2.85739V143.762H5.3515V148.451H4.72798L4.42868 147.977C4.27904 148.127 4.12939 148.227 3.9548 148.327C3.63057 148.476 3.33127 148.551 3.00704 148.551ZM2.9821 148.052C3.23151 148.052 3.48092 148.002 3.68045 147.878C3.90492 147.753 4.07951 147.603 4.22915 147.404L4.45362 147.129L4.85268 147.753V144.286H3.35622V144.461H4.62821V146.356C4.62821 146.556 4.57833 146.755 4.50351 146.955C4.42868 147.129 4.32892 147.304 4.17927 147.429C4.02963 147.578 3.87998 147.678 3.70539 147.753C3.50586 147.828 3.30633 147.878 3.1068 147.878H2.60798C2.40845 147.878 2.20892 147.828 2.0094 147.753C1.63528 147.603 1.36093 147.304 1.21128 146.955C1.13646 146.755 1.08657 146.556 1.08657 146.356V142.091C1.08657 141.892 1.13646 141.692 1.21128 141.493C1.2861 141.318 1.41081 141.144 1.53551 141.019C1.68516 140.894 1.83481 140.769 2.0094 140.695C2.20892 140.62 2.40845 140.57 2.60798 140.57H3.1068C3.30633 140.57 3.50586 140.62 3.70539 140.695C3.87998 140.769 4.05457 140.894 4.17927 141.044C4.30398 141.168 4.42868 141.343 4.50351 141.518C4.57833 141.717 4.62821 141.917 4.62821 142.116V142.266L4.85268 142.241V142.141C4.85268 141.692 4.67809 141.268 4.35386 140.944C4.20421 140.794 4.00468 140.67 3.80516 140.57C3.60563 140.47 3.38116 140.445 3.15669 140.445H2.58304C2.35857 140.445 2.1341 140.495 1.90963 140.57C1.48563 140.744 1.18634 141.069 1.01175 141.468C0.911986 141.642 0.862104 141.867 0.862104 142.091V146.381C0.862104 146.606 0.911986 146.83 0.986809 147.03C1.1614 147.454 1.48563 147.753 1.88469 147.928C2.08422 148.027 2.33363 148.052 2.5581 148.052H2.9821Z" fill="black"/>
<path d="M10.2148 148.202V140.246H14.6793V140.919H10.9132V143.887H13.956V144.561H10.9132V147.504H14.6793V148.177L10.2148 148.202Z" fill="black"/>
<path d="M14.9281 148.452H9.96484V139.997H14.9281V141.169H11.162V143.638H14.2048V144.811H11.162V147.255H14.9281V148.452ZM10.4637 147.953H14.4293V147.779H10.6632V144.337H13.706V144.137H10.6632V140.67H14.4293V140.496H10.4637V147.953Z" fill="black"/>
<path d="M23.5606 148.204L20.2434 142.417L20.1686 142.068V148.204H19.4453V140.248H19.8194L23.1366 146.034L23.2114 146.358V140.223H23.9347V148.179H23.5606V148.204Z" fill="black"/>
<path d="M23.4602 148.726L23.3854 148.402L20.4174 143.239V148.452H19.1953V139.997H19.9685L22.9614 145.235V139.997H24.1835V148.452H23.4602V148.726ZM19.6941 147.953H19.9186V142.067L20.4174 142.017L20.4673 142.317L23.0362 146.781L22.8866 146.108L19.6941 140.521V147.953ZM23.4602 147.529L23.6847 147.903V140.496H23.4602V147.529Z" fill="black"/>
<path d="M29.1484 148.202V140.246H33.6129V140.919H29.8468V143.887H32.8896V144.561H29.8468V147.504H33.6129V148.177L29.1484 148.202Z" fill="black"/>
<path d="M33.8852 148.452H28.9219V139.997H33.8852V141.169H30.119V143.638H33.1619V144.811H30.119V147.255H33.8852V148.452ZM29.3958 147.953H33.3614V147.779H29.5953V144.337H32.6381V144.137H29.5953V140.67H33.3614V140.496H29.3958V147.953Z" fill="black"/>
<path d="M42.7616 146.356C42.7616 146.605 42.7118 146.88 42.5871 147.104C42.4873 147.329 42.3376 147.553 42.1381 147.728C41.9635 147.902 41.7391 148.052 41.4896 148.152C41.2402 148.251 40.9908 148.301 40.7165 148.301H40.1428C39.8685 148.301 39.6191 148.251 39.3697 148.152C39.1452 148.052 38.9207 147.902 38.7212 147.728C38.5466 147.553 38.3969 147.329 38.2722 147.104C38.1725 146.88 38.0977 146.605 38.0977 146.356V146.032L38.8209 145.907V146.331C38.8209 146.506 38.8459 146.68 38.9207 146.83C39.0704 147.129 39.3198 147.379 39.644 147.503C39.7937 147.578 39.9682 147.603 40.1428 147.603H40.6416C40.8162 147.603 40.9908 147.578 41.1405 147.503C41.4647 147.379 41.7141 147.129 41.8638 146.83C41.9386 146.68 41.9635 146.506 41.9635 146.331V146.082C41.9635 145.832 41.9136 145.608 41.8139 145.408C41.7141 145.234 41.5645 145.059 41.3899 144.959C41.2153 144.835 40.9908 144.71 40.7913 144.635C40.5668 144.535 40.3424 144.46 40.0929 144.361C39.8435 144.261 39.6191 144.161 39.3946 144.061C39.1701 143.962 38.9706 143.812 38.796 143.662C38.6214 143.488 38.4718 143.288 38.372 143.064C38.2473 142.789 38.1974 142.49 38.2224 142.191V142.041C38.2224 141.517 38.4219 141.019 38.796 140.669C38.9706 140.495 39.1951 140.345 39.4195 140.245C39.644 140.146 39.9184 140.096 40.1678 140.096H40.6915C40.9409 140.096 41.2153 140.146 41.4647 140.245C41.9386 140.445 42.3127 140.819 42.5122 141.293C42.612 141.517 42.6619 141.792 42.6619 142.041V142.241L41.9386 142.365V142.041C41.9386 141.867 41.9136 141.692 41.8388 141.542C41.7141 141.243 41.4647 140.994 41.1654 140.869C41.0158 140.794 40.8412 140.769 40.6666 140.769H40.2675C40.0929 140.769 39.9184 140.794 39.7687 140.869C39.4694 140.994 39.22 141.243 39.0953 141.542C39.0205 141.692 38.9955 141.867 38.9955 142.041V142.191C38.9955 142.415 39.0454 142.64 39.1452 142.839C39.2449 143.014 39.3946 143.163 39.5692 143.288C39.7687 143.413 39.9682 143.538 40.1678 143.612C40.3922 143.712 40.6167 143.787 40.8661 143.887C41.1155 143.987 41.34 144.086 41.5645 144.186C41.7889 144.286 41.9885 144.435 42.1631 144.61C42.3376 144.785 42.4873 144.984 42.5871 145.209C42.7118 145.483 42.7616 145.782 42.7367 146.082L42.7616 146.356Z" fill="black"/>
<path d="M40.1705 148.551C39.8712 148.551 39.5968 148.501 39.3225 148.377C39.0481 148.277 38.8237 148.102 38.5992 147.903C38.3997 147.703 38.2251 147.479 38.1004 147.204C37.9757 146.93 37.9258 146.656 37.9258 146.356V145.833L39.1479 145.633V146.356C39.1479 146.481 39.1728 146.631 39.2227 146.755C39.3474 147.005 39.547 147.204 39.7964 147.304C39.9211 147.354 40.0707 147.379 40.1954 147.379H40.6942C40.8439 147.379 40.9686 147.354 41.0933 147.304C41.3427 147.204 41.5672 147.005 41.6669 146.755C41.7168 146.631 41.7418 146.506 41.7418 146.356V146.107C41.7418 145.907 41.7168 145.708 41.6171 145.533C41.5422 145.384 41.4175 145.259 41.2679 145.159C41.0933 145.034 40.9187 144.935 40.7192 144.86C40.4947 144.76 40.2702 144.685 40.0208 144.585C39.7964 144.511 39.547 144.411 39.2975 144.286C39.0481 144.161 38.8237 144.012 38.6491 143.837C38.4495 143.638 38.275 143.413 38.1502 143.164C38.0255 142.84 37.9507 142.515 37.9757 142.191V142.041C37.9757 141.443 38.2001 140.894 38.6241 140.495C38.8237 140.296 39.0731 140.146 39.3225 140.021C39.5968 139.897 39.8712 139.847 40.1705 139.847H40.6693C40.9686 139.847 41.2429 139.897 41.5173 140.021C42.0411 140.246 42.4651 140.67 42.6895 141.194C42.8142 141.468 42.8641 141.742 42.8641 142.041V142.465L41.642 142.665V142.041C41.642 141.892 41.6171 141.767 41.5672 141.642C41.4674 141.393 41.2679 141.194 41.0185 141.094C40.8938 141.044 40.7691 141.019 40.6194 141.019H40.2702C40.1206 141.019 39.9959 141.044 39.8712 141.094C39.6218 141.194 39.4222 141.393 39.3225 141.642C39.2726 141.767 39.2477 141.892 39.2477 142.041V142.191C39.2477 142.391 39.2975 142.565 39.3724 142.715C39.4721 142.865 39.5719 142.989 39.7215 143.089C39.8961 143.214 40.0707 143.313 40.2702 143.388C40.4947 143.488 40.7192 143.563 40.9686 143.663C41.1931 143.737 41.4175 143.837 41.6919 143.987C41.9413 144.112 42.1658 144.261 42.3404 144.436C42.5399 144.635 42.7145 144.86 42.8392 145.109C42.9639 145.433 43.0387 145.758 43.0138 146.082L43.0387 146.331C43.0387 146.631 42.9639 146.93 42.8392 147.179C42.7145 147.429 42.5648 147.678 42.3404 147.878C42.1408 148.077 41.8914 148.227 41.6171 148.352C41.3427 148.476 41.0434 148.526 40.7441 148.526H40.1705C40.1705 148.551 40.1705 148.551 40.1705 148.551ZM38.4246 146.257V146.356C38.4246 146.581 38.4745 146.805 38.5742 147.005C38.674 147.204 38.7987 147.404 38.9484 147.553C39.123 147.703 39.2975 147.828 39.522 147.928C39.7465 148.027 39.946 148.052 40.1954 148.052H40.7691C40.9935 148.052 41.218 148.002 41.4425 147.928C41.642 147.828 41.8415 147.728 42.0161 147.553C42.1658 147.404 42.3154 147.204 42.3902 147.005C42.49 146.805 42.5399 146.581 42.5399 146.356V146.107C42.5399 145.833 42.49 145.558 42.3902 145.334C42.3154 145.134 42.1907 144.96 42.0161 144.81C41.8665 144.66 41.6669 144.536 41.4674 144.436C41.218 144.311 40.9935 144.211 40.794 144.137C40.5446 144.037 40.3201 143.962 40.0957 143.862C39.8712 143.762 39.6467 143.663 39.4472 143.513C39.2477 143.388 39.0731 143.189 38.9484 142.989C38.7987 142.74 38.7488 142.49 38.7488 142.216V142.066C38.7488 141.867 38.7987 141.667 38.8735 141.468C39.0232 141.094 39.3225 140.819 39.6966 140.67C39.8961 140.595 40.0957 140.545 40.2952 140.545H40.7192C40.9187 140.545 41.1182 140.595 41.3178 140.67C41.6919 140.819 41.9662 141.119 42.1159 141.468C42.1907 141.667 42.2406 141.867 42.2406 142.066V142.091L42.4651 142.066C42.4651 141.842 42.4152 141.617 42.3404 141.418C42.1658 141.019 41.8415 140.695 41.4425 140.52C41.2429 140.42 41.0185 140.37 40.7691 140.395H40.2453C40.0208 140.395 39.7964 140.445 39.5968 140.52C39.3973 140.595 39.1978 140.72 39.0481 140.894C38.7239 141.218 38.5493 141.642 38.5493 142.091V142.241C38.5493 142.515 38.5992 142.765 38.699 143.014C38.7738 143.214 38.8985 143.363 39.0731 143.513C39.2227 143.663 39.4222 143.787 39.6218 143.862C39.8462 143.987 40.0707 144.062 40.2952 144.137C40.5446 144.236 40.7691 144.311 40.9935 144.411C41.218 144.511 41.4425 144.61 41.642 144.76C41.8415 144.91 42.0161 145.084 42.1408 145.284C42.2905 145.533 42.3404 145.833 42.3404 146.107V146.356C42.3404 146.556 42.2905 146.78 42.2157 146.955C42.0411 147.329 41.7418 147.603 41.3677 147.753C41.1681 147.828 40.9935 147.878 40.7691 147.878H40.2702C40.0707 147.878 39.8712 147.828 39.6717 147.753C39.2975 147.603 38.9982 147.304 38.8237 146.955C38.7239 146.755 38.699 146.556 38.699 146.356V146.207L38.4246 146.257Z" fill="black"/>
<path d="M47.7031 148.202V140.246H48.4264V148.202H47.7031Z" fill="black"/>
<path d="M48.6752 148.452H47.4531V139.997H48.6752V148.452ZM47.9519 147.953H48.1764V140.496H47.9519V147.953Z" fill="black"/>
<path d="M58.0032 146.357C58.0032 146.606 57.9533 146.881 57.8536 147.105C57.6291 147.579 57.255 147.953 56.7811 148.153C56.5317 148.252 56.2823 148.302 56.0079 148.302H55.4343C55.1599 148.302 54.9105 148.252 54.6611 148.153C54.1872 147.953 53.8131 147.579 53.5886 147.105C53.4889 146.881 53.4141 146.606 53.4141 146.357V146.033L54.1374 145.908V146.332C54.1374 146.507 54.1623 146.681 54.2371 146.831C54.3119 146.98 54.4117 147.13 54.5364 147.23C54.6611 147.355 54.8108 147.429 54.9604 147.504C55.1101 147.579 55.2846 147.604 55.4592 147.604H55.9581C56.1326 147.604 56.3072 147.579 56.4569 147.504C56.6065 147.429 56.7562 147.355 56.8809 147.23C57.0056 147.105 57.1054 146.98 57.1802 146.831C57.255 146.681 57.2799 146.507 57.2799 146.332V146.083C57.2799 145.833 57.2301 145.609 57.1303 145.409C57.0305 145.235 56.8809 145.06 56.7063 144.96C56.5317 144.835 56.3072 144.711 56.1077 144.636C55.8832 144.536 55.6588 144.461 55.4094 144.362C55.1599 144.262 54.9355 144.162 54.711 144.062C54.4865 143.963 54.287 143.813 54.1124 143.663C53.9378 143.489 53.7882 143.289 53.6884 143.065C53.5637 142.79 53.5138 142.491 53.5388 142.192V142.042C53.5388 141.793 53.5887 141.518 53.6884 141.294C53.8879 140.82 54.2621 140.446 54.7359 140.246C54.9854 140.147 55.2348 140.097 55.5091 140.097H56.0079C56.2574 140.097 56.5317 140.147 56.7811 140.246C57.255 140.446 57.6291 140.82 57.8286 141.294C57.9284 141.518 57.9783 141.793 57.9783 142.042V142.242L57.255 142.366V142.042C57.255 141.867 57.2301 141.693 57.1552 141.543C57.0804 141.394 57.0056 141.269 56.8809 141.144C56.7562 141.02 56.6315 140.945 56.4818 140.87C56.3322 140.795 56.1576 140.77 55.983 140.77H55.5341C55.3595 140.77 55.1849 140.795 55.0352 140.87C54.8856 140.945 54.7359 141.02 54.6362 141.144C54.5115 141.269 54.4366 141.394 54.3618 141.543C54.287 141.693 54.2621 141.867 54.2621 142.042V142.192C54.2621 142.416 54.3119 142.641 54.4117 142.84C54.5115 143.015 54.6611 143.164 54.8357 143.289C55.0352 143.414 55.2348 143.539 55.4343 143.613C55.6588 143.713 55.8832 143.788 56.1326 143.888C56.3821 143.987 56.6065 144.087 56.831 144.187C57.0555 144.287 57.255 144.436 57.4296 144.611C57.6042 144.786 57.7538 144.985 57.8536 145.21C57.9783 145.484 58.0282 145.783 58.0032 146.083V146.357Z" fill="black"/>
<path d="M56.0074 148.551H55.4337C55.1344 148.551 54.8351 148.501 54.5608 148.376C54.037 148.152 53.5881 147.728 53.3636 147.204C53.2389 146.93 53.1641 146.655 53.1641 146.356V145.832L54.3862 145.633V146.356C54.3862 146.481 54.4111 146.631 54.461 146.755C54.5109 146.88 54.6106 146.98 54.7104 147.079C54.8102 147.179 54.9349 147.254 55.0596 147.304C55.1843 147.354 55.3339 147.379 55.4586 147.379H55.9575C56.0822 147.379 56.2318 147.354 56.3565 147.304C56.4812 147.254 56.6059 147.179 56.7057 147.079C56.8055 146.98 56.8803 146.88 56.9551 146.755C57.005 146.631 57.0299 146.506 57.0299 146.356V146.107C57.0299 145.907 56.9801 145.708 56.9052 145.533C56.8304 145.383 56.7057 145.259 56.5561 145.159C56.3815 145.034 56.2069 144.935 56.0074 144.86C55.7829 144.76 55.5584 144.685 55.309 144.585C55.0845 144.511 54.8351 144.411 54.5857 144.286C54.3363 144.161 54.1118 144.012 53.9372 143.837C53.7377 143.638 53.5631 143.413 53.4384 143.164C53.3137 142.839 53.2389 142.515 53.2638 142.191V142.041C53.2638 141.742 53.3137 141.468 53.4384 141.193C53.6629 140.67 54.0869 140.246 54.6106 140.021C54.885 139.896 55.1843 139.847 55.4836 139.871H55.9824C56.2817 139.871 56.5561 139.921 56.8304 140.046C57.3542 140.271 57.7782 140.695 58.0026 141.218C58.1273 141.493 58.1772 141.767 58.1772 142.066V142.49L56.9551 142.69V142.066C56.9551 141.917 56.9302 141.792 56.8803 141.667C56.8304 141.543 56.7556 141.443 56.6558 141.343C56.5561 141.243 56.4563 141.168 56.3316 141.119C56.2069 141.069 56.0822 141.044 55.9325 141.044H55.4836C55.3339 141.044 55.2092 141.069 55.0845 141.119C54.9598 141.168 54.8601 141.243 54.7603 141.343C54.6605 141.443 54.5857 141.543 54.5358 141.667C54.4859 141.792 54.461 141.917 54.461 142.066V142.216C54.461 142.415 54.4859 142.59 54.5857 142.74C54.6855 142.889 54.7852 143.014 54.9349 143.114C55.1095 143.239 55.2841 143.338 55.4836 143.413C55.7081 143.513 55.9325 143.588 56.1819 143.687C56.4064 143.762 56.6309 143.887 56.8803 144.012C57.1297 144.136 57.3542 144.286 57.5288 144.461C57.7283 144.66 57.9029 144.885 58.0026 145.134C58.1273 145.433 58.2022 145.758 58.1772 146.082L58.2022 146.331C58.2022 146.631 58.1273 146.93 58.0276 147.179C57.7782 147.703 57.3542 148.127 56.8304 148.351C56.581 148.501 56.3066 148.551 56.0074 148.551ZM56.0074 148.052C56.2318 148.052 56.4563 148.002 56.6808 147.927C57.1048 147.753 57.429 147.429 57.6285 147.005C57.7283 146.805 57.7782 146.581 57.7782 146.381L57.7532 146.132V146.107C57.7532 145.832 57.7033 145.583 57.6036 145.334C57.5288 145.134 57.4041 144.959 57.2295 144.81C57.0798 144.66 56.8803 144.535 56.6808 144.436C56.4314 144.311 56.2069 144.211 56.0074 144.136C55.7579 144.037 55.5335 143.962 55.309 143.862C55.0845 143.762 54.8601 143.663 54.6605 143.513C54.461 143.388 54.2864 143.189 54.1617 142.989C54.0121 142.74 53.9622 142.49 53.9622 142.216V142.066C53.9622 141.867 54.0121 141.667 54.0869 141.468C54.1617 141.293 54.2864 141.119 54.4111 140.994C54.5608 140.869 54.7104 140.744 54.885 140.67C55.0845 140.595 55.2841 140.545 55.4836 140.545H55.9325C56.1321 140.545 56.3316 140.595 56.5311 140.67C56.7057 140.744 56.8803 140.844 57.005 140.994C57.1546 141.143 57.2544 141.293 57.3292 141.468C57.4041 141.667 57.4539 141.867 57.4539 142.066V142.091L57.6784 142.066C57.6784 141.842 57.6285 141.617 57.5537 141.418C57.3791 140.994 57.0549 140.695 56.6558 140.52C56.4563 140.42 56.2318 140.395 56.0074 140.395H55.5085C55.2841 140.395 55.0346 140.42 54.8351 140.52C54.4361 140.695 54.1118 141.019 53.9372 141.418C53.8375 141.617 53.8125 141.842 53.8125 142.066V142.216C53.8125 142.49 53.8624 142.74 53.9622 142.989C54.037 143.189 54.1617 143.338 54.3363 143.488C54.4859 143.638 54.6855 143.762 54.885 143.837C55.1095 143.962 55.3339 144.037 55.5584 144.111C55.8078 144.211 56.0323 144.286 56.2568 144.386C56.4812 144.486 56.7057 144.585 56.9052 144.735C57.1048 144.885 57.2793 145.059 57.4041 145.284C57.5537 145.533 57.6036 145.832 57.6036 146.107V146.356C57.6036 146.556 57.5537 146.78 57.4789 146.955C57.4041 147.129 57.2793 147.304 57.1297 147.429C56.9801 147.578 56.8055 147.678 56.6309 147.753C56.4314 147.828 56.2318 147.878 56.0323 147.878H55.5335C55.3339 147.878 55.1344 147.828 54.9349 147.753C54.7603 147.678 54.5857 147.578 54.4361 147.429C54.2864 147.279 54.1866 147.129 54.0869 146.955C53.9871 146.755 53.9622 146.556 53.9622 146.356V146.207L53.7377 146.231V146.331C53.7377 146.556 53.7876 146.78 53.8874 146.98C54.0869 147.404 54.4111 147.728 54.8351 147.902C55.0596 148.002 55.2841 148.052 55.5085 148.027H56.0074V148.052Z" fill="black"/>
<path d="M73.3437 146.356C73.3437 146.605 73.2938 146.88 73.1691 147.104C73.0693 147.329 72.9197 147.553 72.7202 147.728C72.5456 147.902 72.3211 148.052 72.0717 148.152C71.8223 148.251 71.5729 148.301 71.2985 148.301H70.7249C70.4505 148.301 70.2011 148.251 69.9517 148.152C69.7272 148.052 69.5027 147.902 69.3032 147.728C69.1286 147.553 68.979 147.329 68.8543 147.104C68.7545 146.88 68.6797 146.605 68.6797 146.356V146.032L69.403 145.907V146.331C69.403 146.506 69.4279 146.68 69.5027 146.83C69.6524 147.129 69.9018 147.379 70.226 147.503C70.3757 147.578 70.5503 147.603 70.7249 147.603H71.2237C71.3983 147.603 71.5729 147.578 71.7225 147.503C72.0467 147.379 72.2962 147.129 72.4458 146.83C72.5206 146.68 72.5456 146.506 72.5456 146.331V146.082C72.5456 145.832 72.4957 145.608 72.3959 145.408C72.2961 145.234 72.1465 145.059 71.9719 144.959C71.7973 144.835 71.5729 144.71 71.3733 144.635C71.1489 144.535 70.9244 144.46 70.675 144.361C70.4256 144.261 70.2011 144.161 69.9766 144.061C69.7522 143.962 69.5526 143.812 69.378 143.662C69.2035 143.488 69.0538 143.288 68.954 143.064C68.8293 142.789 68.7795 142.49 68.8044 142.191V142.041C68.8044 141.517 69.0039 141.019 69.378 140.669C69.5526 140.495 69.7771 140.345 70.0016 140.245C70.251 140.146 70.5004 140.096 70.7498 140.096H71.2486C71.498 140.096 71.7724 140.146 71.9969 140.245C72.4707 140.445 72.8449 140.819 73.0444 141.293C73.1441 141.517 73.194 141.792 73.194 142.041V142.241L72.4707 142.365V142.041C72.4707 141.867 72.4458 141.692 72.371 141.542C72.2463 141.243 71.9969 140.994 71.6976 140.869C71.5479 140.794 71.3733 140.769 71.1987 140.769H70.7498C70.5752 140.769 70.4006 140.794 70.251 140.869C70.1013 140.944 69.9517 141.019 69.8519 141.143C69.7272 141.268 69.6524 141.393 69.5776 141.542C69.5027 141.692 69.4778 141.867 69.4778 142.041V142.191C69.4778 142.415 69.5277 142.64 69.6275 142.839C69.7272 143.014 69.8769 143.163 70.0514 143.288C70.251 143.413 70.4505 143.538 70.65 143.612C70.8745 143.712 71.099 143.787 71.3484 143.887C71.5978 143.987 71.8223 144.086 72.0467 144.186C72.2712 144.286 72.4707 144.435 72.6453 144.61C72.8199 144.785 72.9696 144.984 73.0693 145.209C73.194 145.483 73.2439 145.782 73.219 146.082L73.3437 146.356Z" fill="black"/>
<path d="M70.7486 148.551C70.4493 148.551 70.175 148.501 69.9006 148.377C69.6263 148.277 69.4018 148.102 69.1773 147.903C68.9778 147.703 68.8032 147.479 68.6785 147.204C68.5538 146.93 68.5039 146.656 68.5039 146.356V145.833L69.726 145.633V146.356C69.726 146.481 69.751 146.631 69.8008 146.755C69.9255 147.005 70.1251 147.204 70.3745 147.304C70.4992 147.354 70.6488 147.379 70.7735 147.379H71.2724C71.422 147.379 71.5467 147.354 71.6714 147.304C71.9208 147.204 72.1453 147.005 72.2451 146.755C72.295 146.631 72.3199 146.506 72.3199 146.356V146.107C72.3199 145.907 72.295 145.708 72.1952 145.533C72.1204 145.384 71.9957 145.259 71.846 145.159C71.6714 145.034 71.4968 144.935 71.2973 144.86C71.0728 144.76 70.8484 144.685 70.599 144.585C70.3745 144.511 70.1251 144.411 69.8757 144.286C69.6263 144.161 69.4018 144.012 69.2272 143.837C69.0277 143.638 68.8531 143.413 68.7284 143.164C68.6037 142.84 68.5288 142.515 68.5538 142.191V142.041C68.5538 141.443 68.7783 140.894 69.2023 140.495C69.4018 140.296 69.6512 140.146 69.9006 140.021C70.175 139.897 70.4493 139.847 70.7486 139.847H71.2474C71.5467 139.847 71.8211 139.897 72.0954 140.021C72.6192 140.246 73.0432 140.67 73.2677 141.194C73.3924 141.468 73.4422 141.742 73.4422 142.041V142.465L72.2201 142.665V142.041C72.2201 141.892 72.1952 141.767 72.1453 141.642C72.0455 141.393 71.846 141.194 71.5966 141.094C71.4719 141.044 71.3472 141.019 71.1975 141.019H70.7486C70.599 141.019 70.4743 141.044 70.3495 141.094C70.2248 141.144 70.1251 141.218 70.0253 141.318C69.9255 141.418 69.8507 141.518 69.8008 141.642C69.751 141.767 69.726 141.892 69.726 142.041V142.191C69.726 142.391 69.7759 142.565 69.8507 142.715C69.9505 142.865 70.0503 142.989 70.1999 143.089C70.3745 143.214 70.5491 143.313 70.7486 143.388C70.9731 143.488 71.1975 143.563 71.447 143.663C71.6714 143.737 71.8959 143.837 72.1702 143.987C72.4197 144.112 72.6441 144.261 72.8187 144.436C73.0182 144.635 73.1928 144.86 73.2926 145.109C73.4173 145.433 73.4921 145.733 73.4672 146.082L73.4921 146.356C73.4921 146.656 73.4173 146.955 73.2926 147.204C73.1679 147.454 73.0182 147.703 72.7938 147.903C72.5942 148.102 72.3448 148.252 72.0705 148.377C71.7961 148.501 71.4968 148.551 71.1975 148.551H70.7486ZM69.0027 146.257V146.356C69.0027 146.581 69.0526 146.805 69.1524 147.005C69.2521 147.204 69.3768 147.404 69.5265 147.553C69.7011 147.703 69.8757 147.828 70.1001 147.928C70.2997 148.027 70.5241 148.052 70.7486 148.052H71.3222C71.5467 148.052 71.7712 148.002 71.9707 147.928C72.1702 147.828 72.3698 147.728 72.5444 147.553C72.694 147.404 72.8437 147.204 72.9185 147.005C73.0182 146.805 73.0681 146.581 73.0681 146.356L73.0432 146.082V146.057C73.0432 145.783 72.9933 145.533 72.8935 145.284C72.8187 145.084 72.694 144.91 72.5194 144.76C72.3698 144.61 72.1702 144.486 71.9707 144.386C71.7213 144.261 71.4968 144.161 71.2973 144.087C71.0479 143.987 70.8234 143.912 70.599 143.812C70.3745 143.713 70.15 143.613 69.9505 143.463C69.751 143.338 69.5764 143.139 69.4517 142.939C69.302 142.69 69.2521 142.441 69.2521 142.166V142.017C69.2521 141.817 69.302 141.617 69.3768 141.418C69.4517 141.243 69.5764 141.069 69.7011 140.944C69.8507 140.794 70.0004 140.695 70.175 140.62C70.3745 140.545 70.574 140.495 70.7735 140.495H71.2225C71.422 140.495 71.6215 140.545 71.8211 140.62C72.1952 140.77 72.4695 141.069 72.6192 141.418C72.694 141.617 72.7439 141.817 72.7439 142.017V142.041L72.9684 142.017C72.9684 141.792 72.9185 141.568 72.8437 141.368C72.6691 140.969 72.3448 140.645 71.9458 140.47C71.7462 140.37 71.4968 140.346 71.2724 140.346H70.7486C70.5241 140.346 70.2997 140.395 70.0752 140.47C69.8757 140.545 69.6761 140.67 69.5265 140.844C69.2023 141.169 69.0277 141.593 69.0277 142.041V142.191C69.0277 142.466 69.0775 142.715 69.1773 142.964C69.2521 143.164 69.3768 143.313 69.5514 143.463C69.7011 143.613 69.9006 143.738 70.1001 143.812C70.3246 143.937 70.5491 144.012 70.7735 144.087C71.023 144.186 71.2474 144.261 71.4719 144.361C71.6964 144.461 71.9208 144.561 72.1204 144.71C72.3199 144.86 72.4945 145.034 72.6192 145.234C72.7688 145.483 72.8187 145.783 72.8187 146.057V146.306C72.8187 146.506 72.7688 146.73 72.694 146.905C72.5194 147.279 72.2201 147.553 71.846 147.703C71.6465 147.778 71.4719 147.803 71.2474 147.828H70.7486C70.5491 147.828 70.3495 147.778 70.15 147.703C69.7759 147.553 69.4766 147.254 69.302 146.905C69.2023 146.705 69.1773 146.506 69.1773 146.306V146.157L69.0027 146.257Z" fill="black"/>
<path d="M82.0474 148.202V144.561H79.0045V148.202H78.2812V140.246H79.0045V143.887H82.0474V140.246H82.7707V148.202H82.0474Z" fill="black"/>
<path d="M82.996 148.452H81.7739V144.811H79.2299V148.452H78.0078V139.997H79.2299V143.638H81.7739V139.997H82.996V148.452ZM82.2977 147.953H82.5222V140.496H82.2977V144.137H78.756V140.496H78.5316V147.953H78.756V144.312H82.2977V147.953Z" fill="black"/>
<path d="M90.9512 146.357H88.4322L87.9084 148.202H87.1602L89.4797 140.246H89.8538L92.1983 148.202H91.45L90.9512 146.357ZM88.6317 145.658H90.7766L89.7291 141.992L89.7042 141.693L89.6792 141.992L88.6317 145.658Z" fill="black"/>
<path d="M92.5475 148.452H91.2755L90.7766 146.606H88.6317L88.1079 148.452H86.8359L89.3051 139.997H90.0533L92.5475 148.452ZM91.6745 147.953H91.899L89.7042 140.496L87.5093 147.953H87.7338L88.2576 146.108H91.1507L91.6745 147.953ZM91.1009 145.908H88.3075L89.4298 141.942L89.4548 141.668H89.9536L89.9785 141.942L91.1009 145.908ZM88.9559 145.409H90.4275L89.6792 142.815L88.9559 145.409Z" fill="black"/>
<path d="M100.403 148.202L98.2585 144.81H97.2858V148.202H96.5625V140.246H99.0815C99.331 140.246 99.6053 140.296 99.8298 140.396C100.553 140.695 101.027 141.418 101.027 142.191V142.84C101.027 143.114 100.977 143.364 100.877 143.613C100.678 144.087 100.304 144.461 99.8298 144.661C99.5804 144.76 99.331 144.81 99.0815 144.81L101.226 148.202H100.403ZM100.304 142.216C100.304 142.042 100.279 141.867 100.204 141.718C100.129 141.568 100.054 141.418 99.9296 141.319C99.7051 141.069 99.3808 140.944 99.0317 140.944H97.2608V144.137H99.0317C99.3808 144.137 99.7051 144.012 99.9296 143.763C100.054 143.638 100.129 143.513 100.204 143.364C100.279 143.214 100.304 143.039 100.304 142.865V142.216Z" fill="black"/>
<path d="M101.676 148.452H100.255L98.1098 145.06H97.5112V148.452H96.2891V139.997H99.0575C99.3568 139.997 99.6312 140.047 99.9055 140.172C100.729 140.521 101.252 141.319 101.252 142.217V142.865C101.252 143.165 101.202 143.439 101.078 143.713C100.853 144.237 100.429 144.661 99.9055 144.886C99.7559 144.935 99.6312 144.985 99.4815 145.01L101.676 148.452ZM100.529 147.953H100.754L98.5836 144.561H99.0326C99.2571 144.561 99.4815 144.511 99.6811 144.437C100.105 144.262 100.404 143.938 100.579 143.539C100.679 143.339 100.704 143.115 100.704 142.865V142.217C100.704 141.518 100.305 140.92 99.6561 140.646C99.4566 140.546 99.2321 140.521 99.0076 140.521C99.0076 140.521 99.0076 140.521 98.9827 140.521H96.7131V147.978H96.9375V144.586H98.3093L100.529 147.953ZM99.0326 144.387H97.0124V140.695H99.0326C99.4316 140.695 99.8307 140.87 100.105 141.144C100.23 141.294 100.354 141.444 100.429 141.618C100.504 141.818 100.554 142.017 100.554 142.217V142.865C100.554 143.065 100.504 143.264 100.429 143.464C100.354 143.638 100.255 143.813 100.105 143.938C99.8307 144.212 99.4316 144.387 99.0326 144.387ZM97.5112 143.888H99.0326C99.3069 143.888 99.5563 143.788 99.7559 143.589C99.8556 143.489 99.9305 143.389 99.9803 143.264C100.03 143.14 100.055 143.015 100.055 142.865V142.217C100.055 142.067 100.03 141.942 99.9803 141.818C99.9305 141.693 99.8556 141.593 99.7559 141.494C99.5563 141.294 99.3069 141.194 99.0326 141.194H97.5112V143.888Z" fill="black"/>
<path d="M105.988 148.202V140.246H110.478V140.919H106.712V143.887H109.754V144.561H106.712V147.504H110.478V148.177L105.988 148.202Z" fill="black"/>
<path d="M110.703 148.452H105.715V139.997H110.703V141.169H106.937V143.638H109.98V144.811H106.937V147.255H110.703V148.452ZM106.239 147.953H110.229V147.779H106.463V144.337H109.506V144.137H106.463V140.67H110.229V140.496H106.239V147.953Z" fill="black"/>
<path d="M119.606 146.357C119.606 146.606 119.556 146.881 119.432 147.105C119.207 147.579 118.833 147.953 118.359 148.153C118.11 148.252 117.86 148.302 117.586 148.302H117.012C116.738 148.302 116.489 148.252 116.239 148.153C115.99 148.053 115.79 147.903 115.591 147.729C115.416 147.554 115.267 147.33 115.142 147.105C115.042 146.881 114.992 146.606 114.992 146.357V146.033L115.715 145.908V146.332C115.715 146.507 115.74 146.681 115.815 146.831C115.89 146.98 115.99 147.13 116.115 147.23C116.239 147.355 116.389 147.429 116.539 147.504C116.688 147.579 116.863 147.604 117.037 147.604H117.536C117.711 147.604 117.885 147.579 118.035 147.504C118.359 147.379 118.609 147.13 118.758 146.831C118.833 146.681 118.858 146.507 118.858 146.332V146.083C118.858 145.833 118.808 145.609 118.708 145.409C118.609 145.235 118.459 145.06 118.284 144.96C118.11 144.835 117.885 144.711 117.686 144.636C117.461 144.536 117.237 144.461 116.987 144.362C116.738 144.262 116.514 144.162 116.289 144.062C116.065 143.963 115.865 143.813 115.691 143.663C115.516 143.489 115.366 143.289 115.267 143.065C115.142 142.79 115.092 142.491 115.117 142.192V142.042C115.117 141.793 115.167 141.518 115.267 141.294C115.466 140.82 115.84 140.446 116.314 140.246C116.563 140.147 116.838 140.097 117.112 140.097H117.611C117.86 140.097 118.135 140.147 118.359 140.246C118.584 140.346 118.808 140.496 118.983 140.67C119.157 140.845 119.307 141.069 119.407 141.294C119.507 141.518 119.556 141.793 119.556 142.042V142.242L118.833 142.366V142.042C118.833 141.867 118.808 141.693 118.733 141.543C118.659 141.394 118.584 141.269 118.459 141.144C118.334 141.02 118.21 140.945 118.06 140.87C117.91 140.795 117.736 140.77 117.561 140.77H117.087C116.913 140.77 116.738 140.795 116.588 140.87C116.439 140.945 116.289 141.02 116.189 141.144C116.065 141.269 115.99 141.394 115.915 141.543C115.84 141.693 115.815 141.867 115.815 142.042V142.192C115.815 142.416 115.865 142.641 115.965 142.84C116.065 143.015 116.214 143.164 116.389 143.289C116.588 143.414 116.788 143.539 116.987 143.613C117.212 143.713 117.436 143.788 117.686 143.888C117.935 143.987 118.16 144.087 118.384 144.187C118.609 144.287 118.808 144.436 118.983 144.611C119.157 144.786 119.307 144.985 119.407 145.21C119.531 145.484 119.581 145.783 119.556 146.083L119.606 146.357Z" fill="black"/>
<path d="M116.987 148.551C116.688 148.551 116.413 148.501 116.139 148.376C115.865 148.277 115.64 148.102 115.416 147.902C115.216 147.703 115.041 147.479 114.917 147.204C114.792 146.93 114.742 146.655 114.742 146.356V145.832L115.964 145.633V146.356C115.964 146.481 115.989 146.631 116.039 146.755C116.089 146.88 116.189 146.98 116.289 147.079C116.388 147.179 116.513 147.254 116.638 147.304C116.762 147.354 116.912 147.379 117.037 147.379H117.536C117.685 147.379 117.81 147.354 117.935 147.304C118.184 147.204 118.409 147.005 118.508 146.755C118.558 146.631 118.583 146.506 118.583 146.356V146.107C118.583 145.907 118.533 145.708 118.458 145.533C118.384 145.383 118.259 145.259 118.109 145.159C117.935 145.034 117.76 144.935 117.561 144.86C117.336 144.76 117.112 144.685 116.862 144.585C116.638 144.511 116.388 144.411 116.139 144.286C115.889 144.161 115.665 144.012 115.49 143.837C115.291 143.638 115.116 143.413 114.992 143.164C114.867 142.839 114.792 142.515 114.817 142.191V142.041C114.817 141.742 114.867 141.468 114.992 141.193C115.216 140.67 115.64 140.246 116.164 140.021C116.463 139.896 116.762 139.847 117.062 139.871H117.561C117.86 139.871 118.134 139.921 118.409 140.046C118.658 140.146 118.907 140.32 119.107 140.52C119.306 140.719 119.456 140.969 119.581 141.218C119.705 141.493 119.755 141.767 119.755 142.066V142.49L118.533 142.69V142.066C118.533 141.917 118.508 141.792 118.458 141.667C118.409 141.543 118.334 141.443 118.234 141.343C118.134 141.243 118.034 141.168 117.91 141.119C117.785 141.069 117.635 141.044 117.511 141.044H117.087C116.937 141.044 116.812 141.069 116.688 141.119C116.563 141.168 116.463 141.243 116.363 141.343C116.264 141.443 116.189 141.543 116.139 141.667C116.089 141.792 116.064 141.917 116.064 142.066V142.216C116.064 142.415 116.114 142.59 116.189 142.74C116.289 142.889 116.388 143.014 116.538 143.114C116.713 143.239 116.887 143.338 117.087 143.413C117.311 143.513 117.536 143.588 117.785 143.687C118.009 143.762 118.234 143.862 118.508 144.012C118.758 144.136 118.982 144.286 119.157 144.461C119.356 144.66 119.531 144.885 119.631 145.134C119.755 145.458 119.83 145.783 119.805 146.107L119.83 146.331C119.83 146.631 119.755 146.93 119.631 147.179C119.381 147.703 118.957 148.127 118.433 148.351C118.159 148.476 117.86 148.526 117.561 148.526H116.987C117.012 148.551 117.012 148.551 116.987 148.551ZM115.266 146.256V146.356C115.266 146.581 115.316 146.805 115.416 147.005C115.515 147.204 115.64 147.404 115.79 147.553C115.939 147.703 116.139 147.828 116.338 147.927C116.563 148.027 116.762 148.052 117.012 148.052H117.585C117.81 148.052 118.034 148.002 118.259 147.927C118.683 147.753 119.007 147.429 119.207 147.005C119.306 146.805 119.356 146.581 119.356 146.356L119.331 146.132C119.331 145.857 119.281 145.583 119.182 145.359C119.107 145.159 118.982 144.984 118.808 144.835C118.658 144.685 118.458 144.56 118.259 144.461C118.009 144.336 117.785 144.236 117.585 144.161C117.336 144.062 117.112 143.987 116.887 143.887C116.663 143.787 116.438 143.687 116.239 143.538C116.039 143.413 115.865 143.214 115.74 143.014C115.59 142.765 115.54 142.515 115.54 142.241V142.091C115.54 141.892 115.59 141.692 115.665 141.493C115.74 141.318 115.865 141.143 115.989 141.019C116.139 140.869 116.289 140.769 116.463 140.695C116.663 140.62 116.837 140.57 117.062 140.57H117.511C117.71 140.57 117.91 140.62 118.109 140.695C118.284 140.769 118.458 140.869 118.583 141.019C118.733 141.168 118.833 141.318 118.907 141.493C118.982 141.692 119.032 141.892 119.032 142.091V142.116L119.257 142.091C119.257 141.867 119.207 141.642 119.132 141.443C119.057 141.243 118.932 141.044 118.758 140.894C118.608 140.744 118.409 140.62 118.209 140.52C118.009 140.42 117.785 140.395 117.561 140.395H117.062C116.812 140.395 116.588 140.42 116.363 140.52C115.964 140.695 115.64 141.019 115.465 141.418C115.366 141.617 115.341 141.842 115.341 142.066V142.216C115.341 142.49 115.391 142.74 115.49 142.989C115.565 143.189 115.69 143.338 115.865 143.488C116.014 143.638 116.214 143.762 116.413 143.837C116.638 143.962 116.862 144.037 117.087 144.111C117.336 144.211 117.561 144.286 117.785 144.386C118.009 144.486 118.234 144.585 118.433 144.735C118.633 144.885 118.808 145.059 118.932 145.259C119.082 145.508 119.132 145.807 119.132 146.082V146.331C119.132 146.531 119.082 146.755 119.007 146.93C118.833 147.304 118.533 147.578 118.159 147.728C117.96 147.803 117.76 147.828 117.561 147.853H117.062C116.862 147.853 116.663 147.803 116.463 147.728C116.289 147.653 116.114 147.553 115.964 147.404C115.815 147.279 115.715 147.104 115.615 146.93C115.515 146.73 115.49 146.531 115.49 146.331V146.182L115.266 146.256Z" fill="black"/>
<path d="M88.4054 68.7884C95.9126 68.7884 101.998 62.7026 101.998 55.1954C101.998 47.6883 95.9126 41.6025 88.4054 41.6025C80.8983 41.6025 74.8125 47.6883 74.8125 55.1954C74.8125 62.7026 80.8983 68.7884 88.4054 68.7884Z" fill="black"/>
<path d="M103.922 17.6097C79.4301 -5.71027 40.6965 -4.7625 17.3766 19.7297C14.8825 22.3734 12.5879 25.2167 10.5926 28.2595L10.4429 28.484C9.7446 29.5315 9.09613 30.604 8.4726 31.7014L8.32295 31.9508C7.72437 33.0233 7.15072 34.0958 6.62696 35.1932L6.50225 35.4675C6.00343 36.54 5.50461 37.6125 5.05567 38.7099C5.03073 38.8096 4.98084 38.9094 4.93096 38.9842C4.50696 40.0567 4.1079 41.1292 3.73379 42.2016C3.70885 42.3014 3.65896 42.4012 3.63402 42.5009C3.28485 43.5734 2.96061 44.6459 2.66132 45.7183L2.61144 46.0426C2.33708 47.115 2.06273 48.1626 1.83826 49.235C1.81332 49.3597 1.78838 49.4595 1.76344 49.5842C1.53897 50.6567 1.36438 51.7291 1.18979 52.8016C1.16485 52.9263 1.13991 53.051 1.13991 53.1757C0.990264 54.2482 0.865558 55.3207 0.765794 56.3931C0.765794 56.5178 0.740853 56.6675 0.740853 56.7922C0.641088 57.8896 0.591206 58.9621 0.541324 60.0595C0.541324 60.2091 0.541324 60.3338 0.516383 60.4835C0.491442 61.6308 0.491442 62.803 0.541324 63.9503C0.541324 64.0999 0.541324 64.2496 0.566265 64.4242C0.616147 65.5216 0.690971 66.594 0.790735 67.6665L0.840617 68.1653C0.965323 69.3376 1.11497 70.5098 1.3145 71.707C1.33944 71.8816 1.36438 72.0811 1.38932 72.2557C1.58885 73.5027 1.83826 74.7248 2.13756 75.947C2.18744 76.1465 2.23732 76.346 2.2872 76.5455C2.61144 77.8674 2.98555 79.1644 3.38461 80.4862C3.45944 80.7107 3.53426 80.9352 3.60908 81.1597C4.08296 82.5813 4.60673 84.0029 5.18037 85.3996C5.28014 85.6491 5.40484 85.8985 5.50461 86.1479C6.17802 87.7192 6.92625 89.2655 7.72437 90.762C7.87401 91.0363 8.02366 91.3356 8.19825 91.61C9.14601 93.306 10.1686 94.9521 11.266 96.5483C11.4655 96.8476 11.69 97.1469 11.8895 97.4462C13.1116 99.1671 14.4335 100.813 15.8302 102.385C16.1046 102.684 16.3789 103.008 16.6533 103.307C17.5761 104.305 18.5239 105.278 19.5215 106.225C20.2947 106.974 21.0928 107.672 21.8909 108.37C22.29 108.72 22.689 109.044 23.0881 109.368C25.3079 111.189 27.6523 112.835 30.0965 114.306C30.6951 114.656 31.2937 115.005 31.8923 115.329C34.985 117.05 38.2024 118.497 41.5445 119.669C42.4175 119.968 43.2904 120.242 44.1633 120.517C61.1233 125.58 79.4301 123.086 94.3948 113.658C95.1181 113.209 95.8164 112.735 96.5148 112.261C96.9637 111.962 97.3877 111.638 97.8117 111.338C98.3604 110.939 98.9341 110.515 99.4827 110.066C99.6823 109.917 99.8818 109.742 100.081 109.593L100.455 109.293L100.705 109.094L101.179 108.695L101.428 108.495L101.678 108.271L101.852 108.121L102.127 107.872C102.251 107.772 102.376 107.647 102.501 107.547L102.775 107.298H102.8L102.85 107.273L103.074 107.049L103.399 106.749C103.498 106.649 103.623 106.55 103.723 106.45L103.798 106.375C103.972 106.201 104.172 106.026 104.346 105.851L104.471 105.727L104.546 105.652L104.795 105.402L104.845 105.353L105.02 105.178L105.07 105.128L105.095 105.103L105.194 105.003L105.219 104.978L105.244 104.953L105.394 104.804L105.444 104.754L105.469 104.729L105.668 104.529L105.693 104.505L105.743 104.455L105.793 104.405C105.893 104.305 105.967 104.23 106.067 104.13L106.142 104.056C106.267 103.931 106.367 103.806 106.466 103.706C129.362 79.1893 128.265 40.78 103.922 17.6097ZM11.2411 28.6586C28.9742 32.5744 36.3069 47.9131 43.9888 63.9752C46.8819 70.0359 49.825 76.1964 53.4165 81.858C50.1991 76.9945 47.4306 71.7319 44.6871 66.5691C38.1525 54.1983 31.9671 42.5009 20.569 36.0412C17.0523 34.0459 13.2364 32.6242 9.27072 31.876C9.89425 30.7786 10.5427 29.7061 11.2411 28.6586ZM99.7821 108.944H99.7322L99.8319 108.919L99.7821 108.944ZM98.2357 108.62C98.535 108.545 98.8343 108.47 99.1336 108.37L99.4329 108.42L98.5599 108.695L98.2357 108.62ZM96.7392 108.271L97.6122 108.071L97.9115 108.121C97.6371 108.196 97.3628 108.271 97.0635 108.345L96.7392 108.271ZM95.2178 107.897L96.0658 107.722L96.3402 107.772L95.5171 107.946L95.2178 107.897ZM93.6715 107.522L94.4945 107.398L94.7439 107.448C94.4945 107.497 94.2202 107.547 93.9708 107.597L93.6715 107.522ZM92.1251 107.123L92.8983 107.049L93.1228 107.098L92.3745 107.198L92.1251 107.123ZM90.5538 106.724L91.3021 106.674L91.4767 106.724L90.7783 106.799L90.5538 106.724ZM89.0075 106.275H89.7058L89.8305 106.3L89.1821 106.325L89.0075 106.275ZM87.4113 105.801H88.0098H88.0597H87.511H87.4113ZM100.68 107.323L99.9317 107.547L99.7821 107.522L100.58 107.323H100.68ZM98.4602 107.971L98.2108 107.921L99.1086 107.697L99.3082 107.722L98.4602 107.971ZM96.7143 107.622L97.5872 107.448L97.7618 107.473L96.9388 107.672L96.7143 107.622ZM95.2178 107.298L96.0658 107.148L96.2155 107.173L95.4174 107.323L95.2178 107.298ZM93.6964 106.974L94.4945 106.874L94.5943 106.899L93.871 107.024L93.6964 106.974ZM92.1501 106.6L92.8983 106.55H92.9232L92.2498 106.625L92.1501 106.6ZM90.6037 106.225H90.903H90.6536H90.6037ZM99.1336 107.123L98.4103 107.298L98.2856 107.273C98.535 107.223 98.7844 107.173 99.0338 107.098L99.1336 107.123ZM96.839 107.024L97.5373 106.899H97.5623L96.9138 107.024H96.839ZM95.3675 106.749L95.5171 106.724L95.3675 106.749ZM78.5572 103.008L79.1557 103.257L78.9063 103.208C78.4823 103.108 78.0583 103.008 77.6343 102.908L78.5572 103.008ZM76.3374 102.235C76.5369 102.26 76.7365 102.31 76.936 102.335L77.335 102.509C76.4122 102.385 75.4894 102.235 74.6165 102.035C73.968 101.811 73.3195 101.586 72.696 101.362C73.8932 101.711 75.0903 102.01 76.3374 102.235ZM74.3172 102.335C74.6913 102.459 75.0405 102.584 75.4146 102.684C76.5369 103.008 77.6593 103.307 78.8315 103.557C79.3802 103.681 79.9289 103.781 80.4527 103.881L80.1534 103.831C77.7341 103.432 75.3647 102.809 73.0701 102.01C73.4941 102.135 73.8932 102.235 74.3172 102.335ZM99.9566 108.271L99.7072 108.221L100.63 107.946L100.855 107.971L99.9566 108.271ZM101.378 107.123H101.328L101.977 106.949L101.378 107.123ZM102.7 104.829C101.752 104.904 100.78 104.978 99.8319 105.053C98.8592 105.103 97.8865 105.128 96.9388 105.153C95.8663 105.153 94.7938 105.128 93.7214 105.103C91.5265 104.978 89.3567 104.779 87.2616 104.554C85.4908 104.205 83.7449 103.806 82.0739 103.382C83.7449 103.532 85.4409 103.657 87.1618 103.731C92.2997 104.23 97.7868 104.554 103.423 104.754L102.7 104.829ZM9.12107 32.1005C13.0867 32.8487 16.9276 34.2703 20.4443 36.2656C31.7676 42.7004 37.9281 54.3479 44.4626 66.6938C48.104 73.5526 51.7953 80.5611 56.5092 86.6467C52.1944 81.2594 48.6278 75.1738 45.1111 69.1879C38.5266 57.9395 31.6928 46.292 20.145 39.8821C16.1794 37.6873 11.8646 36.1409 7.40013 35.3179C7.94884 34.2454 8.52248 33.1729 9.12107 32.1005ZM7.30037 35.5922C11.7648 36.3903 16.0547 37.9367 20.0203 40.1315C31.4933 46.5164 38.3022 58.1141 44.8617 69.3126C49.2015 76.7201 53.641 84.2523 59.4523 90.4627C54.0899 84.9258 49.7502 78.2914 45.5351 71.7818C38.6015 61.107 31.4434 50.083 19.746 43.748C15.4062 41.3786 10.7173 39.7325 5.85378 38.8346C6.30272 37.7372 6.7766 36.6647 7.30037 35.5922ZM5.15543 40.5805C5.33002 40.0816 5.52955 39.5828 5.72908 39.1089C10.5926 40.0068 15.2566 41.6529 19.5963 43.9974C31.2189 50.2825 38.3521 61.2816 45.2608 71.9314C50.8476 80.5361 56.584 89.3653 64.7148 95.6006C57.2574 90.0636 51.6706 82.3319 45.8843 74.3008C38.6264 64.2496 31.1191 53.8491 19.322 47.6138C14.658 45.1447 9.66977 43.3739 4.50696 42.3513C4.73143 41.7527 4.93096 41.1541 5.15543 40.5805ZM4.4072 42.6506C9.57001 43.6482 14.5333 45.419 19.1723 47.8882C30.8947 54.0985 38.377 64.4491 45.6099 74.5004C53.8405 85.8985 61.6221 96.673 75.0405 101.561C75.1901 101.611 75.3647 101.661 75.5143 101.736C72.0725 101.013 68.7553 99.7159 65.7125 97.9201L65.4132 97.7455L65.064 97.521C64.7647 97.3215 64.4405 97.1469 64.1412 96.9474H64.1162C63.8918 96.7977 63.6673 96.6481 63.4428 96.4984C56.3596 91.6349 50.8476 84.3771 45.136 76.8698C37.8782 67.2924 30.3709 57.4157 18.9229 51.4797C14.0345 48.9357 8.82178 47.0402 3.43449 45.8929C3.73379 44.7955 4.05802 43.723 4.4072 42.6506ZM3.33473 46.1922C8.69707 47.3395 13.8848 49.2101 18.7733 51.7541C30.1714 57.6402 37.6537 67.5169 44.8866 77.0444C48.7775 82.1822 52.5934 87.1954 56.8584 91.4105C54.913 89.7145 52.9925 87.9436 51.097 86.098C49.1516 83.9281 47.2311 81.6335 45.3106 79.339C37.7784 70.3602 29.9968 61.0821 18.5239 55.3207C13.4359 52.7268 8.09848 50.7315 2.56155 49.4096C2.78602 48.3371 3.06038 47.2647 3.33473 46.1922ZM70.4263 100.813C64.5901 98.6683 59.7515 94.977 55.2372 90.5126C59.8763 94.6528 64.7647 98.2693 70.4263 100.813ZM2.48673 49.7588C7.79919 51.0058 12.9371 52.9014 18.3243 55.6199C29.7224 61.3564 37.4791 70.6096 45.0113 79.5634C45.9342 80.6608 46.832 81.7333 47.7549 82.8058L46.408 81.4589C38.3022 73.3531 29.9469 64.9978 18.0749 59.1616C13.9098 57.1164 8.52248 54.6971 1.91309 52.9762C2.08767 51.9037 2.26226 50.8313 2.48673 49.7588ZM1.8632 53.3752C8.42272 55.0962 13.7601 57.4656 17.9253 59.5108C29.7224 65.322 38.0777 73.6773 46.1586 81.7333C47.7798 83.3545 49.401 84.9756 50.9972 86.522C53.3167 89.1408 55.7859 91.61 58.4297 93.9295C54.2645 90.8368 50.2989 87.2952 46.2584 83.6787C37.9779 76.2961 29.4231 68.6392 17.6759 63.0025C13.0867 60.7828 7.69943 58.4134 1.51403 56.5926C1.58885 55.5202 1.71356 54.4477 1.8632 53.3752ZM1.46415 57.0166C7.59966 58.8124 12.9371 61.1818 17.5013 63.3766C29.1737 68.9884 37.7285 76.6204 45.984 83.978C54.913 91.9592 63.4179 99.5413 74.6663 102.958C76.4621 103.507 78.2828 103.931 80.1035 104.23C81.0762 104.405 82.0489 104.529 83.0466 104.654H83.0715C82.5228 104.604 81.9741 104.529 81.4254 104.48C67.184 102.759 57.2824 94.9022 45.8095 85.7987C37.4292 79.1394 28.7497 72.2557 17.2519 66.8684C13.0368 64.898 7.6246 62.354 1.28956 60.2839C1.3145 59.2115 1.36438 58.1141 1.46415 57.0166ZM1.28956 63.4265C1.26462 62.5286 1.26462 61.6308 1.28956 60.7329C7.57472 62.803 12.9121 65.2971 17.1022 67.2674C28.5502 72.6298 37.2048 79.4886 45.585 86.1479C54.888 93.5304 63.1685 100.115 73.5939 103.282C76.1379 104.056 78.7567 104.604 81.4004 104.929C82.5228 105.053 83.6451 105.178 84.7924 105.278L84.9171 105.303C84.1689 105.278 83.4207 105.228 82.6974 105.178C68.032 104.081 57.3572 96.5483 44.9864 87.8439C36.6062 81.9578 27.9516 75.8472 16.8528 70.7841C12.6876 68.8886 7.42507 66.5691 1.3145 64.2995C1.3145 63.9752 1.28956 63.7009 1.28956 63.4265ZM1.33944 64.7235C7.35025 66.9682 12.5629 69.2627 16.6782 71.1333C27.7271 76.1964 36.3817 82.282 44.737 88.1432C54.065 94.7276 62.4452 100.614 72.3219 103.632C75.6889 104.654 79.1557 105.303 82.6475 105.577C83.9195 105.677 85.1915 105.727 86.4884 105.777L86.688 105.826C85.7651 105.826 84.8423 105.801 83.9444 105.777C68.7054 105.303 57.0579 98.0448 43.5648 89.6147C35.7582 84.7512 26.929 79.2392 16.4538 74.5752C15.1069 73.9766 13.7352 73.3281 12.2637 72.6547C8.99636 71.1583 5.45472 69.5122 1.58885 67.9658C1.46415 66.8933 1.38932 65.8209 1.33944 64.7235ZM1.61379 68.4896C5.3799 70.011 8.84672 71.6072 12.0392 73.0787C13.5107 73.7521 14.9074 74.4006 16.2293 74.9992C26.6547 79.6632 35.1097 84.9258 43.2904 90.0137C52.6683 95.85 61.1483 101.137 70.6009 104.006C74.9157 105.328 79.3802 106.076 83.8946 106.225C85.2913 106.275 86.7129 106.275 88.1345 106.275L88.384 106.35C87.3115 106.4 86.239 106.425 85.1665 106.45C69.1045 106.625 56.2099 99.4914 41.2702 91.2608C33.9125 87.1954 25.5573 82.5813 16.0298 78.4411C13.9846 77.5432 11.7898 76.5206 9.49519 75.4481C7.2006 74.3757 4.70649 73.2284 2.11261 72.0561C1.91309 70.8839 1.76344 69.6867 1.61379 68.4896ZM2.21238 72.6298C4.70649 73.7272 7.05096 74.8495 9.27072 75.8721C11.5902 76.9695 13.7601 77.9921 15.8302 78.89C25.3328 83.0302 33.314 87.4199 41.0208 91.6848C50.4485 96.8726 59.0532 101.636 68.1816 104.405C73.6687 106.126 79.4052 106.974 85.1416 106.924C86.688 106.899 88.2094 106.849 89.7807 106.774L90.055 106.849C88.8329 106.949 87.6108 107.049 86.3887 107.098C69.1544 108.021 55.2123 101.212 37.6038 92.5827C30.745 89.2156 23.6867 85.7488 15.5808 82.3319C12.8373 81.1597 9.81942 79.6881 6.62696 78.1418C5.45472 77.5681 4.25755 76.9945 2.98555 76.3959C2.7112 75.1488 2.43685 73.8768 2.21238 72.6298ZM3.16014 76.9945C4.28249 77.5432 5.3799 78.067 6.42743 78.5658C9.61989 80.1121 12.6378 81.5836 15.4062 82.7559C23.4872 86.1728 30.5704 89.6396 37.4043 93.0067C47.256 97.8453 55.9605 102.11 64.7398 104.754C71.7233 106.874 78.7317 107.996 86.4386 107.572C88.1096 107.473 89.7557 107.348 91.4268 107.198L91.7261 107.273C90.3792 107.448 89.0075 107.597 87.6607 107.747C68.6805 109.543 52.3939 102.385 31.7427 93.306C26.505 91.0114 21.0679 88.6171 15.1818 86.1728C11.8895 84.8011 8.19825 82.9554 4.33237 80.9851C3.90838 79.6632 3.50932 78.3413 3.16014 76.9945ZM4.55684 81.6585C8.27307 83.554 11.7898 85.2999 14.9822 86.6218C20.8683 89.066 26.2806 91.4354 31.5182 93.7549C41.6942 98.2443 50.8226 102.26 59.7515 104.953C68.9798 107.747 77.9835 109.169 87.6856 108.246C89.4564 108.071 91.2272 107.872 92.9981 107.622L93.3472 107.722C91.8757 107.971 90.4042 108.221 88.9077 108.42C67.2588 111.363 48.2038 103.632 21.8161 92.9069C19.5215 91.9841 17.1771 91.0363 14.7827 90.0387C12.1389 88.9662 9.27072 87.5695 6.25284 85.9982C5.62931 84.5516 5.05567 83.13 4.55684 81.6585ZM6.57708 86.7465C9.39542 88.193 12.0891 89.5149 14.5832 90.5126C17.0025 91.4853 19.3469 92.433 21.6166 93.3559C33.1643 98.0448 43.3153 102.185 52.8927 105.078C65.2635 108.844 76.7115 110.565 88.9825 108.894C90.8781 108.645 92.7486 108.345 94.5943 107.996L94.9435 108.096C93.3472 108.445 91.751 108.769 90.1298 109.044C66.3111 113.259 43.6895 105.427 14.3338 93.8796C12.5879 93.1813 10.7921 92.3582 8.8966 91.4105C8.07354 89.889 7.30037 88.3427 6.57708 86.7465ZM9.39542 92.2585C11.0415 93.0566 12.6128 93.7799 14.1592 94.3784C24.834 98.5686 34.6358 102.285 43.9139 105.103C60.2254 110.066 74.9906 112.286 90.2545 109.568C92.2498 109.218 94.2202 108.819 96.1905 108.37L96.5646 108.47C94.8687 108.919 93.1727 109.318 91.4268 109.692C66.9595 115.005 42.7666 108.745 13.9596 97.7206C13.5107 97.546 13.0618 97.3714 12.6128 97.1719C11.4406 95.6006 10.3931 93.9544 9.39542 92.2585ZM13.2364 98.0448C13.4109 98.1196 13.5855 98.1944 13.7601 98.2443C21.1676 101.088 28.2509 103.607 35.1347 105.677C55.1125 111.737 73.2198 114.182 91.5515 110.216C93.6465 109.767 95.7166 109.243 97.7618 108.72L98.1359 108.794C96.3402 109.343 94.5195 109.842 92.6988 110.316C70.8254 115.928 47.4556 113.658 17.3766 102.933C15.8801 101.412 14.5084 99.7657 13.2364 98.0448ZM20.0453 105.727C19.4218 105.128 18.7982 104.505 18.1996 103.906C21.5168 105.078 24.7342 106.126 27.9017 107.098C53.0424 114.73 73.4941 115.878 92.7985 110.914C94.9684 110.366 97.1383 109.742 99.2583 109.069L99.5326 109.119L99.383 109.243C97.5872 109.867 95.7416 110.441 93.8959 110.989C72.1972 117.399 49.6753 116.801 23.7366 108.969C22.4646 107.946 21.2425 106.874 20.0453 105.727ZM85.1665 117.698C73.3943 122.612 60.3751 123.709 47.9544 120.816C49.9247 120.916 51.8951 120.966 53.8405 120.966C65.912 120.891 77.9336 118.995 89.4564 115.379C89.9802 115.204 90.479 115.055 91.0028 114.88C89.0823 115.903 87.1618 116.85 85.1665 117.698ZM44.9365 120.043C41.3201 118.995 37.8283 117.624 34.4862 115.928C55.6363 120.043 75.6889 118.821 95.2677 112.286C94.6941 112.685 94.0955 113.059 93.4969 113.433C79.1557 118.422 62.9939 121.39 44.9365 120.043ZM97.1133 110.989C96.4649 111.214 95.8164 111.438 95.143 111.663C75.0155 118.397 54.3643 119.494 32.5158 114.905C29.897 113.458 27.4029 111.812 25.0335 110.017C50.4734 117.474 72.6711 117.948 94.0705 111.613C95.3675 111.239 96.6644 110.815 97.9364 110.391C97.6621 110.565 97.3877 110.79 97.1133 110.989ZM104.745 104.455C101.478 104.355 98.2606 104.205 95.143 104.031C98.4103 104.105 101.727 104.105 105.119 104.081L104.745 104.455ZM105.543 103.632L105.469 103.706C98.9839 103.756 92.6489 103.681 86.7378 103.332C83.7698 103.033 80.9266 102.659 78.208 102.21C77.7092 102.035 77.2103 101.886 76.7365 101.711C75.3398 101.162 74.0179 100.614 72.7459 99.9902C72.2969 99.7657 71.848 99.5413 71.424 99.3168C69.6282 98.369 67.9322 97.2716 66.3111 96.0495C55.8358 88.0683 49.9497 75.7973 44.2631 63.8755C36.5314 47.7635 29.1987 32.3998 11.4157 28.4341C13.3361 25.516 15.5309 22.7974 17.9253 20.2534C40.8212 -4.03921 79.1059 -5.1865 103.399 17.7344C127.691 40.6553 128.838 78.9149 105.918 103.208C105.793 103.332 105.668 103.482 105.543 103.632Z" fill="black"/>
</svg>
