<svg width="14" height="12" viewBox="0 0 14 12" fill="none" xmlns="http://www.w3.org/2000/svg">
<path d="M7.00016 2.5C9.211 2.5 11.1827 3.7425 12.1452 5.70834C11.801 6.42 11.3168 7.0325 10.7393 7.52834L11.5618 8.35084C12.3727 7.63334 13.0143 6.735 13.4168 5.70834C12.4077 3.1475 9.91683 1.33334 7.00016 1.33334C6.25933 1.33334 5.54766 1.45 4.87683 1.66584L5.83933 2.62834C6.2185 2.5525 6.6035 2.5 7.00016 2.5ZM6.376 3.165L7.5835 4.3725C7.916 4.51834 8.18433 4.78667 8.33016 5.11917L9.53766 6.32667C9.58433 6.12834 9.61933 5.91834 9.61933 5.7025C9.62516 4.25584 8.44683 3.08334 7.00016 3.08334C6.78433 3.08334 6.58016 3.1125 6.376 3.165ZM1.17266 1.2575L2.736 2.82084C1.78516 3.5675 1.03266 4.55917 0.583496 5.70834C1.59266 8.26917 4.0835 10.0833 7.00016 10.0833C7.88683 10.0833 8.7385 9.91417 9.52016 9.605L11.5152 11.6L12.3377 10.7775L1.99516 0.429169L1.17266 1.2575ZM5.54766 5.6325L7.07016 7.155C7.04683 7.16084 7.0235 7.16667 7.00016 7.16667C6.19516 7.16667 5.54183 6.51334 5.54183 5.70834C5.54183 5.67917 5.54766 5.66167 5.54766 5.6325ZM3.56433 3.64917L4.58516 4.67C4.451 4.99084 4.37516 5.34084 4.37516 5.70834C4.37516 7.155 5.5535 8.33334 7.00016 8.33334C7.36766 8.33334 7.71766 8.2575 8.03266 8.12334L8.60433 8.695C8.091 8.835 7.55433 8.91667 7.00016 8.91667C4.78933 8.91667 2.81766 7.67417 1.85516 5.70834C2.2635 4.87417 2.8585 4.18584 3.56433 3.64917Z" fill="#09090A"/>
</svg>
