<svg width="178" height="187" viewBox="0 0 178 187" fill="none" xmlns="http://www.w3.org/2000/svg">
<g clip-path="url(#clip0_1_58)">
<path d="M84.9619 186.73C68.002 186.73 52.1781 180.945 39.6002 169.865C23.1272 155.445 13.6329 133.122 13.714 108.6C13.714 59.6361 50.5552 14.5832 95.7545 8.22849L95.8357 8.79878L95.7545 8.22849C116.691 5.29556 136.572 10.9985 151.828 24.3596C168.301 38.7798 177.795 61.1841 177.714 85.6251C177.633 134.589 140.792 179.642 95.5923 185.996C92.0218 186.485 88.4512 186.73 84.9619 186.73ZM106.466 8.63584C102.977 8.63584 99.4874 8.88025 95.9168 9.36907C51.2855 15.6423 14.8501 60.2064 14.7689 108.6C14.6878 132.796 24.0198 154.793 40.2494 168.969C55.2617 182.086 74.8184 187.707 95.43 184.774C140.061 178.501 176.497 133.937 176.578 85.5436C176.659 61.347 167.327 39.3501 151.097 25.1743C138.682 14.3387 123.101 8.63584 106.466 8.63584Z" fill="#000" fill-opacity="0.22"/>
<path d="M51.7724 178.42C51.6912 178.42 51.6912 178.42 51.7724 178.42L38.1395 170.924C14.2009 157.889 0 131.737 0 101.104C0 99.6379 0.0811479 98.09 0.0811479 96.5421C0.0811479 96.2162 0.0811479 95.9718 0.162296 95.7274L0.243444 94.7497C0.324592 93.8535 0.324592 92.9574 0.40574 92.0612C0.40574 91.6539 0.486887 91.328 0.568035 90.9206L0.730331 89.6986C0.811479 88.9653 0.892627 88.2321 0.973775 87.5803C1.05492 87.173 1.13607 86.7656 1.13607 86.3583L1.29837 85.1362C1.37951 84.4845 1.46066 83.8327 1.62296 83.181C1.70411 82.7736 1.78525 82.3663 1.8664 81.9589L2.10985 80.6554C2.19099 80.0851 2.35329 79.4333 2.51559 78.863C2.59673 78.3742 2.75903 77.9669 2.84018 77.5595L3.24592 76.1745C3.40821 75.6042 3.57051 74.9525 3.7328 74.3822C3.8951 73.8934 3.97625 73.486 4.13854 73.0787L4.46313 71.9381C4.62543 71.3678 4.78773 70.716 5.03117 70.1457C5.19347 69.6569 5.35576 69.2496 5.51806 68.7607L5.9238 67.5387C6.08609 67.1313 6.24839 66.6425 6.41069 66.2352L6.49183 65.9908C6.49183 65.6649 6.57298 65.4205 6.65413 65.1761L6.81642 64.6872C7.14102 63.7911 7.54676 62.8949 7.87135 61.9987C8.03364 61.6728 8.19594 61.2655 8.35823 60.9396L8.52053 60.6137C8.84512 59.799 9.25086 58.9843 9.57545 58.1696C9.8189 57.6808 10.0623 57.192 10.2246 56.7032C10.6304 55.8885 11.0361 55.0738 11.3607 54.3405L11.523 54.0961C11.6853 53.6888 11.9287 53.3629 12.091 52.9555L12.4156 52.3853C12.9025 51.4076 13.4706 50.5114 13.9574 49.5338C14.6066 48.3118 15.337 47.2526 15.9861 46.1121C16.1484 45.7862 16.3919 45.5418 16.5542 45.2159C17.1222 44.2383 17.6902 43.4235 18.3394 42.5274L19.0698 41.4683C19.1509 41.3053 19.2321 41.2239 19.3132 41.0609C19.3944 40.9794 19.4755 40.8165 19.5566 40.735C20.3681 39.513 21.2608 38.3724 22.1534 37.3133C22.478 36.9059 22.8026 36.4986 23.1272 36.0098C24.0198 34.8692 24.9124 33.8101 25.8862 32.6695L26.1296 32.4251C26.2108 32.3436 26.2919 32.1807 26.4542 32.0992L27.2657 31.2845C27.996 30.4698 28.7264 29.6551 29.4567 28.9219L30.1059 28.2701C30.9985 27.3739 31.8911 26.4778 32.8649 25.5816L33.4329 25.0928C33.9198 24.6854 34.4067 24.1966 34.8936 23.7893C35.0559 23.6263 35.2182 23.4634 35.3805 23.3004L35.7051 22.9746C36.0297 22.6487 36.2731 22.4857 36.5977 22.2413C37.4903 21.5081 38.3018 20.7749 39.1944 20.0416L39.6002 19.7157C40.574 18.901 41.6289 18.1678 42.6838 17.3531L43.9822 16.4569C44.2256 16.2125 44.5502 16.0496 44.7936 15.8867C44.9559 15.7237 45.1994 15.6422 45.3617 15.4793L45.7674 15.2349C46.2543 14.909 46.7412 14.5831 47.2281 14.2572C47.8773 13.8499 48.6076 13.3611 49.2568 12.9537L49.3379 12.8723C49.7437 12.6278 50.2306 12.302 50.6363 12.0576C51.3666 11.6502 52.097 11.2429 52.8273 10.8355L53.233 10.5911C53.5576 10.4282 53.8822 10.2652 54.2068 10.0208C55.0183 9.61345 55.8298 9.2061 56.6412 8.79875L57.1281 8.55434C57.3716 8.3914 57.615 8.30993 57.9396 8.14699L58.183 8.06552C59.238 7.5767 60.2929 7.08788 61.429 6.59906L62.3216 6.27317C63.2142 5.86582 64.188 5.53994 65.0806 5.21406C65.4052 4.96965 65.7298 4.88818 66.1355 4.72524C67.1905 4.31789 68.2454 3.99201 69.3003 3.66613L69.7872 3.50319C70.9233 3.17731 72.1405 2.85143 73.4389 2.44408L74.4938 2.19967C75.4676 1.95526 76.3602 1.79232 77.334 1.54791L77.5774 1.46644C77.902 1.38497 78.1454 1.3035 78.47 1.3035C79.9307 1.05909 81.1479 0.814677 82.284 0.651737C83.4201 0.488797 84.5561 0.325857 85.6922 0.244387C85.9356 0.244387 86.1791 0.162917 86.4225 0.162917H86.7471C87.5586 0.0814465 88.2889 0.0814465 89.1004 -2.36332e-05C89.5061 -2.36332e-05 89.9119 -2.36332e-05 90.3176 -0.0814938C91.048 -0.0814938 91.8594 -0.162964 92.5898 -0.162964H92.9144C93.1578 -0.162964 93.4012 -0.162964 93.6447 -0.162964C94.6185 -0.162964 95.5111 -0.162964 96.4037 -0.0814938H96.8906C97.9455 -2.36332e-05 99.0816 0.0814465 100.137 0.162917C100.299 0.162917 100.542 0.244387 100.705 0.244387L101.029 0.325857C101.759 0.407327 102.571 0.488797 103.301 0.651737C103.707 0.733207 104.032 0.733207 104.437 0.814678C105.168 0.896148 105.817 1.05909 106.547 1.22203L106.791 1.3035C107.034 1.38497 107.359 1.38497 107.602 1.46644C108.414 1.62938 109.225 1.79232 109.955 2.03673L110.199 2.1182C110.28 2.1182 110.442 2.19967 110.523 2.19967V2.85143L110.686 2.28114C111.741 2.52555 112.714 2.85143 113.769 3.17731L114.581 3.42172C115.311 3.66613 116.123 3.91054 116.853 4.15495C117.178 4.23642 117.502 4.39936 117.827 4.5623C118.476 4.80671 119.206 5.13259 119.855 5.377L120.099 5.45847C120.342 5.53994 120.586 5.62141 120.829 5.78435C121.722 6.1917 122.533 6.51759 123.345 6.92494L123.588 7.08788C124.481 7.49523 125.292 7.98405 126.104 8.3914L139.737 15.8052L139.169 16.8643H139.088C138.276 16.4569 137.546 16.0496 136.734 15.6422L136.41 15.4793C135.598 15.0719 134.787 14.6646 133.894 14.3387C133.651 14.2572 133.407 14.1758 133.245 14.0128L133.001 13.9314C132.352 13.687 131.703 13.3611 130.973 13.1167C130.648 12.9537 130.324 12.8723 129.999 12.7093C129.269 12.4649 128.538 12.2205 127.808 11.9761L127.078 11.7317C126.104 11.4058 125.049 11.1614 124.075 10.8355L123.426 10.6726C122.614 10.5096 121.884 10.2652 121.073 10.1023C120.829 10.0208 120.505 10.0208 120.261 9.93933L120.018 9.85786C119.287 9.69492 118.638 9.61345 117.908 9.45051C117.583 9.36904 117.178 9.36904 116.853 9.28757C116.123 9.2061 115.392 9.04316 114.581 8.96169H113.607C112.552 8.88022 111.497 8.79875 110.442 8.71728H109.955C109.063 8.63581 108.089 8.63581 107.196 8.63581C106.953 8.63581 106.709 8.63581 106.466 8.63581H106.141C105.411 8.63581 104.681 8.63581 103.869 8.71728C103.464 8.71728 103.058 8.71728 102.733 8.79875C102.003 8.79875 101.191 8.88022 100.38 8.96169H100.055C99.8119 8.96169 99.5685 8.96169 99.325 9.04316C98.189 9.12463 97.0529 9.28757 95.998 9.45051C94.8619 9.61345 93.7258 9.77639 92.2652 10.1023C91.9406 10.1837 91.6971 10.1837 91.3725 10.2652H91.2103C90.2365 10.4282 89.3438 10.6726 88.4512 10.917L88.1266 10.9984C87.8832 11.0799 87.6397 11.0799 87.3963 11.1614C86.0979 11.4873 84.8807 11.8131 83.7446 12.139L83.2578 12.302C82.2028 12.6278 81.1479 12.9537 80.1741 13.3611C79.8495 13.524 79.4438 13.6055 79.1192 13.7684C78.2266 14.0943 77.334 14.5017 76.3602 14.8275L75.4676 15.0719C74.3315 15.5608 73.1954 16.0496 72.0593 16.6199C71.8159 16.7013 71.5725 16.8643 71.329 17.0272L70.8421 17.2716C70.0306 17.679 69.2192 18.0863 68.4888 18.4937C68.1642 18.6566 67.8397 18.8196 67.5151 19.064L67.1093 19.3084C66.379 19.7157 65.6487 20.1231 64.9995 20.5304C64.5126 20.7749 64.1068 21.1007 63.62 21.3451C62.8896 21.834 62.2404 22.2413 61.5101 22.6487C61.0232 22.9745 60.5363 23.3004 60.0495 23.6263C59.3191 24.1151 58.5888 24.604 57.8585 25.1742L57.047 25.7445C55.9921 26.4778 55.0183 27.2925 54.0445 28.0257L53.6388 28.3516C52.7461 29.0848 51.9347 29.7366 51.042 30.4698C50.7174 30.7142 50.474 30.9586 50.1494 31.203C49.3379 31.9363 48.5265 32.6695 47.7961 33.4027L47.3092 33.8101C46.4166 34.7062 45.524 35.6024 44.6314 36.4986L43.9822 37.1503C43.2518 37.8836 42.5215 38.6983 41.7912 39.513L41.3043 40.0833C41.142 40.2462 41.0608 40.4092 40.8985 40.5721L40.574 40.898C39.6813 41.9571 38.7076 43.0977 37.8149 44.2382C37.4903 44.6456 37.1657 45.0529 36.8412 45.4603C35.9485 46.6009 35.137 47.7415 34.3256 48.882L34.001 49.2894C33.8387 49.4523 33.7575 49.6967 33.5952 49.8597L33.1083 50.5929C32.5403 51.4076 31.9723 52.3038 31.4042 53.2L30.8362 54.0961C30.187 55.1552 29.4567 56.2958 28.8887 57.3549C28.2395 58.577 27.5903 59.6361 27.0223 60.7767C26.86 61.1026 26.6165 61.5099 26.4542 61.8358L26.2919 62.1617C25.8862 62.9764 25.4804 63.7096 25.1559 64.5243C24.9124 65.0131 24.669 65.5019 24.5067 65.9908C24.1009 66.8055 23.7763 67.6202 23.4517 68.3534L23.3706 68.5978C23.2083 69.0052 23.046 69.4125 22.8837 69.8199C22.478 70.716 22.1534 71.6122 21.8288 72.5084L21.6665 72.9972C21.5853 73.2416 21.5042 73.4045 21.423 73.649C21.2608 74.2192 21.0173 74.7081 20.855 75.2784L20.2058 76.5819C20.0435 77.0707 19.8812 77.4781 19.7189 77.9669C19.5566 78.5372 19.3944 79.1075 19.2321 79.6777L18.9075 80.8998C18.7452 81.3072 18.664 81.7145 18.5017 82.2033C18.3394 82.7736 18.1771 83.3439 18.096 83.9142L17.7714 85.2177C17.6902 85.6251 17.5279 86.0324 17.4468 86.5212C17.2845 87.0915 17.2034 87.6618 17.0411 88.3136L16.7976 89.6171C16.7165 90.0245 16.6353 90.4318 16.5542 90.8391C16.473 91.4909 16.3107 92.0612 16.2296 92.713L15.9861 94.0165C15.905 94.4238 15.8238 94.8312 15.8238 95.1571C15.7427 95.8903 15.6615 96.5421 15.5804 97.2753L15.4181 98.4973C15.337 98.8232 15.337 99.2306 15.337 99.5564C15.2558 100.371 15.1747 101.267 15.1747 102.082L15.0935 103.223C15.0935 103.467 15.0124 103.793 15.0124 104.037C14.9312 105.504 14.9312 107.052 14.9312 108.518C14.8501 138.744 28.8887 164.407 52.4215 177.279L51.7724 178.42ZM93.3201 1.22203C93.1578 1.22203 92.9955 1.22203 92.8332 1.22203H92.5086C91.7783 1.22203 91.048 1.22203 90.2365 1.3035C89.8307 1.3035 89.425 1.3035 89.1004 1.38497C88.3701 1.38497 87.5586 1.46644 86.7471 1.54791H86.4225C86.1791 1.54791 85.9356 1.54791 85.6922 1.62938C84.5561 1.71085 83.4201 1.87379 82.3651 2.03673C81.2291 2.19967 80.093 2.36261 78.6323 2.68849C78.3077 2.76996 78.0643 2.76996 77.7397 2.85143L77.4963 2.9329C76.5225 3.09584 75.6299 3.34025 74.7372 3.58466L73.7635 3.82907C72.4651 4.15495 71.2479 4.48083 70.1118 4.80671L69.6249 4.96965C68.57 5.29553 67.5151 5.62141 66.5413 6.02876C66.2167 6.1917 65.811 6.27318 65.4864 6.43612C64.5937 6.762 63.7011 7.16935 62.7273 7.49523L61.8347 7.82111C60.7798 8.30993 59.7249 8.71728 58.6699 9.2061H58.4265C58.1831 9.28757 57.9396 9.45051 57.6962 9.61345L57.2093 9.77639C56.3978 10.1837 55.5863 10.5911 54.856 10.9984C54.5314 11.1614 54.2068 11.3243 53.8822 11.5687L53.4765 11.8131C52.7461 12.2205 52.0158 12.6278 51.3666 13.0352C50.9609 13.2796 50.474 13.524 50.0683 13.8499H49.906C49.2568 14.2572 48.5265 14.6646 47.8773 15.1534C47.3904 15.4793 46.9035 15.8052 46.4166 16.1311L46.0109 16.3755C45.8486 16.4569 45.6863 16.6199 45.4428 16.7014C45.1994 16.8643 44.8748 17.1087 44.6314 17.2716L43.4141 18.1678C42.3592 18.901 41.3854 19.7157 40.4117 20.449L40.0059 20.7749C39.1133 21.5081 38.3018 22.1598 37.4092 22.8931C37.1657 23.1375 36.8411 23.3819 36.5977 23.6263L36.192 23.9522C36.0297 24.1151 35.8674 24.2781 35.7051 24.3595C35.2182 24.7669 34.7313 25.2557 34.3256 25.6631L33.7575 26.1519C32.8649 27.0481 31.9723 27.9442 31.0796 28.8404L30.4305 29.4922C29.7001 30.2254 28.9698 31.0401 28.2395 31.8548L27.5091 32.6695C27.428 32.751 27.3468 32.9139 27.2657 32.9954C27.1845 33.0768 27.1034 33.2398 27.0223 33.3213C26.0485 34.3804 25.1559 35.5209 24.2632 36.6615C23.9386 37.0689 23.614 37.4762 23.2894 37.965C22.478 39.1056 21.5853 40.2462 20.7739 41.3868C20.6927 41.4683 20.6116 41.6312 20.5304 41.7127C20.4493 41.7941 20.3681 41.9571 20.287 42.0386L19.4755 43.2606C18.9075 44.1568 18.3394 44.9715 17.7714 45.8676C17.5279 46.1935 17.3657 46.5194 17.2034 46.7638C16.5542 47.8229 15.8238 48.9635 15.1747 50.1041C14.6066 51.0817 14.1197 51.9779 13.5517 52.9555L13.2271 53.5258C13.0648 53.8517 12.8214 54.2591 12.6591 54.5849L12.4968 54.8294C12.091 55.6441 11.6853 56.3773 11.3607 57.192C11.1173 57.6808 10.8738 58.1696 10.7115 58.6585C10.3058 59.4732 9.98119 60.2879 9.6566 61.0211L9.49431 61.347C9.33201 61.6729 9.16971 62.0802 9.00742 62.4061C8.60168 63.3022 8.27709 64.1984 7.9525 65.0946L7.7902 65.5834C7.70905 65.8278 7.6279 65.9908 7.54676 66.2352L7.46561 66.4796C7.30331 66.8869 7.14102 67.3758 6.97872 67.7831L6.57298 69.0052C6.41069 69.494 6.24839 69.9013 6.08609 70.3902C5.9238 70.9604 5.7615 71.5307 5.51806 72.1825L5.19347 73.3231C5.03117 73.7304 4.95002 74.2192 4.78773 74.6266C4.62543 75.1969 4.46314 75.7672 4.30084 76.4189L4.0574 77.7225C3.97625 78.1298 3.81395 78.6186 3.7328 79.026C3.57051 79.5963 3.48936 80.1666 3.32706 80.8183L3.08362 82.2033C3.00247 82.6107 2.92132 83.018 2.84018 83.4254C2.75903 84.0771 2.59673 84.7289 2.51559 85.3807L2.27214 86.6842C2.19099 87.0915 2.10985 87.4989 2.10985 87.9062C2.0287 88.6395 1.94755 89.2912 1.8664 90.0245L1.70411 91.2465C1.62296 91.5724 1.62296 91.9797 1.62296 92.3056C1.54181 93.2018 1.46066 94.098 1.46066 94.9941L1.37951 95.9718C1.37951 96.2162 1.29837 96.5421 1.29837 96.7865C1.21722 98.3344 1.21722 99.8009 1.21722 101.267C1.13607 131.493 15.1747 157.156 38.7076 170.028L41.142 171.332C23.6952 157.074 13.6328 134.507 13.714 108.681C13.714 107.215 13.7951 105.667 13.7951 104.119C13.7951 103.793 13.7951 103.548 13.8763 103.304L13.9574 102.163C14.0386 101.267 14.0386 100.453 14.1197 99.6379C14.1197 99.2306 14.2009 98.9047 14.282 98.4973L14.4443 97.2753C14.5255 96.5421 14.6066 95.8088 14.6878 95.0756C14.7689 94.6682 14.8501 94.2609 14.8501 93.8535L15.0935 92.55C15.1747 91.8983 15.2558 91.2465 15.4181 90.6762C15.4993 90.2689 15.5804 89.8615 15.6615 89.3727L15.905 88.0692C15.9861 87.4989 16.1484 86.8471 16.3107 86.2768C16.3919 85.8695 16.5542 85.3807 16.6353 84.9733L16.9599 83.6698C17.1222 83.0995 17.2845 82.5292 17.4468 81.8774C17.5279 81.4701 17.6902 80.9813 17.8525 80.5739L18.1771 79.3519C18.3394 78.7816 18.5017 78.2113 18.7452 77.641C18.9075 77.1522 19.0698 76.6634 19.2321 76.256L19.6378 75.1154C19.8001 74.5451 20.0435 73.9748 20.2058 73.4045C20.287 73.1601 20.3681 72.9157 20.4493 72.7528L20.6116 72.264C20.9362 71.3678 21.3419 70.4716 21.6665 69.5755C21.8288 69.1681 21.9911 68.7607 22.1534 68.3534L22.2345 68.109C22.5591 67.2943 22.9649 66.4796 23.2894 65.6649C23.5329 65.1761 23.7763 64.6872 23.9386 64.1984C24.3444 63.3837 24.7501 62.6505 25.0747 61.8358L25.237 61.5099C25.3993 61.184 25.6427 60.7767 25.805 60.4508C26.3731 59.3102 27.0223 58.1696 27.6714 57.0291C28.4018 55.807 29.051 54.7479 29.7001 53.6073L30.2682 52.6297C30.8362 51.7335 31.4042 50.8373 31.9723 50.0226L32.4592 49.2894C32.6215 49.045 32.7838 48.882 32.8649 48.6376L33.1895 48.2303C34.001 47.0897 34.8936 45.8677 35.7862 44.7271C36.1108 44.3197 36.4354 43.9124 36.76 43.4235C37.6526 42.283 38.6264 41.1424 39.519 40.0833L39.8436 39.6759C40.0059 39.513 40.1682 39.35 40.2494 39.1871L40.8174 38.6168C41.5477 37.8021 42.2781 36.9874 43.0084 36.2542L43.6576 35.6024C44.5502 34.7062 45.4428 33.8101 46.4166 32.9139L46.9035 32.5066C47.715 31.7733 48.5264 31.0401 49.3379 30.3069C49.6625 30.0625 49.906 29.818 50.2306 29.5736C51.1232 28.8404 51.9347 28.1072 52.8273 27.3739L53.233 27.0481C54.2068 26.2334 55.2617 25.5001 56.3167 24.6854L57.2093 24.0337C57.9396 23.5448 58.6699 22.9746 59.4003 22.4857C59.8872 22.1598 60.374 21.834 60.8609 21.5081C61.5101 21.1007 62.2404 20.6119 62.8896 20.2046C63.3765 19.8787 63.8634 19.6343 64.3503 19.3084C65.0806 18.901 65.811 18.4937 66.5413 18.0863L66.947 17.8419C67.2716 17.679 67.5962 17.4346 67.9208 17.2716C68.7323 16.8643 69.5438 16.4569 70.3552 16.0496L70.8421 15.8052C71.0856 15.6422 71.329 15.5608 71.5725 15.3978C72.7085 14.8275 73.8446 14.3387 74.9807 13.8499L75.8733 13.524C76.7659 13.1167 77.7397 12.7908 78.6323 12.4649C78.9569 12.302 79.3627 12.2205 79.6872 12.0576C80.7422 11.6502 81.7971 11.3243 82.852 10.9984L83.3389 10.8355C84.475 10.5096 85.6922 10.1837 86.9906 9.77639C87.234 9.69492 87.4774 9.69492 87.7209 9.61345L88.0455 9.53198C89.0193 9.28757 89.9119 9.12463 90.8857 8.88022H91.048C91.3725 8.79875 91.616 8.71728 91.9406 8.71728C93.4012 8.47287 94.6185 8.22846 95.7545 8.06552C96.8906 7.90258 98.0267 7.73964 99.1627 7.65817C99.4062 7.65817 99.6496 7.5767 99.8931 7.5767H100.218C101.029 7.49523 101.759 7.49523 102.571 7.41376C102.977 7.41376 103.382 7.41376 103.788 7.33229C104.519 7.33229 105.33 7.25082 106.06 7.25082H106.385C106.628 7.25082 106.872 7.25082 107.115 7.25082C108.089 7.25082 108.982 7.25082 109.874 7.33229H110.361C111.416 7.41376 112.552 7.49523 113.607 7.5767C113.769 7.5767 114.013 7.65817 114.175 7.65817L114.5 7.73964C115.23 7.82111 116.042 7.90258 116.772 8.06552C117.178 8.14699 117.502 8.14699 117.908 8.22846C118.638 8.30993 119.287 8.47287 120.018 8.63581L120.261 8.71728C120.505 8.79875 120.829 8.79875 121.073 8.88022C121.884 9.04316 122.696 9.2061 123.426 9.45051L124.156 9.61345C125.211 9.85786 126.185 10.1837 127.24 10.5096L127.889 10.754L125.292 9.36904C124.481 8.96169 123.669 8.55434 122.858 8.14699L122.533 7.98405C121.722 7.5767 120.91 7.16935 120.018 6.84347C119.774 6.762 119.531 6.68053 119.369 6.51759L119.125 6.43612C118.476 6.19171 117.827 5.86582 117.096 5.62141C116.772 5.45847 116.447 5.377 116.123 5.21406C115.392 4.96965 114.662 4.72524 113.932 4.48083L113.201 4.23642C112.228 3.91054 111.173 3.66613 110.199 3.34025L109.712 3.25878C108.9 3.09584 108.17 2.85143 107.359 2.68849C107.115 2.60702 106.791 2.60702 106.547 2.52555H106.304C105.573 2.36261 104.924 2.28114 104.194 2.1182C103.869 2.03673 103.464 2.03673 103.139 1.95526C102.409 1.87379 101.678 1.71085 100.867 1.62938L99.9742 1.54791C98.9193 1.46644 97.8644 1.38497 96.8095 1.3035H96.3226C95.4299 1.22203 94.4562 1.22203 93.5635 1.22203C93.4824 1.22203 93.4012 1.22203 93.3201 1.22203Z" fill="#000" fill-opacity="0.22"/>
<path d="M141.93 91.2471C146.813 82.2358 144.549 71.5315 136.872 67.3384C129.195 63.1454 119.014 67.0513 114.13 76.0626C109.247 85.074 111.512 95.7783 119.188 99.9713C126.865 104.164 137.046 100.258 141.93 91.2471Z" fill="#000" fill-opacity="0.22"/>
<path d="M146.878 31.6919C176.334 57.9252 177.552 108.192 149.718 144.202C149.556 144.365 149.474 144.528 149.312 144.772C149.15 145.017 148.988 145.18 148.906 145.343C146.959 147.705 146.715 148.031 146.472 148.276C146.229 148.52 146.147 148.683 145.985 148.846C145.823 149.009 145.742 149.172 145.579 149.253C144.768 150.231 144.606 150.394 144.443 150.557C143.064 152.023 142.902 152.268 142.658 152.431C142.252 152.919 142.09 153.082 141.928 153.164C141.684 153.408 141.441 153.653 141.197 153.897C140.548 154.549 139.818 155.201 139.169 155.852C138.682 156.341 138.114 156.83 137.546 157.319C136.734 158.052 135.842 158.785 134.949 159.518C122.939 169.458 109.144 175.568 95.3488 177.442C88.2078 178.42 80.9856 178.338 74.0881 177.116C73.0331 176.953 71.9782 176.709 70.9233 176.464C66.9471 175.487 63.052 174.183 59.238 172.391C58.5077 172.065 57.7773 171.739 57.047 171.332C54.1257 169.865 51.2855 168.073 48.5265 166.036C48.0396 165.629 47.5527 165.303 47.0658 164.895C46.092 164.162 45.1183 163.348 44.2256 162.533C43.0084 161.474 41.8723 160.333 40.7363 159.193C40.4117 158.867 40.0871 158.459 39.7625 158.133C38.0584 156.26 36.5166 154.386 35.0559 152.349C34.8125 152.023 34.569 151.616 34.3256 151.29C33.0272 149.335 31.7289 147.379 30.5928 145.343C30.4305 145.017 30.187 144.609 30.0248 144.284C29.051 142.41 28.1583 140.536 27.3469 138.581C27.1846 138.255 27.1034 137.929 26.9411 137.603C26.2108 135.892 25.6428 134.1 25.0747 132.307C24.9936 131.982 24.9124 131.737 24.8313 131.493C24.3444 129.863 23.8575 128.234 23.5329 126.523C23.4518 126.279 23.4518 126.034 23.3706 125.708C23.046 124.16 22.7214 122.613 22.478 120.983C22.478 120.739 22.3968 120.494 22.3968 120.25C22.1534 118.783 21.9911 117.235 21.8288 115.688C21.8288 115.443 21.8288 115.28 21.7477 115.036C21.5854 113.651 21.5042 112.184 21.5042 110.799C21.5042 110.555 21.5042 110.392 21.5042 110.229C21.4231 108.681 21.4231 107.215 21.5042 105.667C21.5042 105.504 21.5042 105.259 21.5042 105.096C21.5854 103.63 21.5854 102.245 21.7477 100.779C21.7477 100.616 21.7477 100.453 21.7477 100.208C21.8288 98.7418 21.9911 97.3568 22.2346 95.8903C22.478 93.935 22.7214 92.55 23.046 91.0836C23.3706 89.1283 23.6952 87.7433 24.101 86.2768C24.5878 84.403 24.9936 82.9366 25.3993 81.4701C25.9674 79.5963 26.4542 78.0484 26.9411 76.5819C27.5903 74.7081 28.2395 73.1601 28.8075 71.6937C29.619 69.8199 30.2682 68.2719 30.9985 66.8055C31.8912 64.9317 32.7026 63.3837 33.5953 61.9173C36.192 57.3549 38.8699 53.2 42.0346 49.2894C56.7224 30.6327 76.2791 19.5528 95.8357 16.7828C114.256 14.1758 132.596 18.901 146.878 31.6919ZM148.501 144.447C155.398 135.566 160.673 125.871 164.162 115.443C167.489 105.341 169.112 95.0756 168.869 84.8104C168.625 74.5451 166.678 64.8502 162.864 55.9699C158.969 46.7638 153.37 38.8612 146.229 32.5066C132.596 20.3675 114.662 15.0719 95.8357 17.7605C86.0168 19.1455 76.4414 22.5672 67.4339 27.9442C58.1019 33.4842 49.7437 40.898 42.765 49.8597C39.8437 53.6073 37.1658 57.5993 34.8125 61.6729C56.3167 63.8726 65.1618 82.7736 74.4938 102.571C81.3914 117.235 88.4512 132.307 101.11 141.025C103.058 142.328 105.087 143.469 107.278 144.447C107.764 144.691 108.332 144.854 108.901 145.098C110.442 145.669 112.065 146.157 113.769 146.646C114.337 146.809 114.987 146.972 115.555 147.054C118.801 147.216 122.29 147.216 125.86 147.054C131.784 146.565 138.033 145.831 144.524 144.935C145.823 144.854 147.202 144.609 148.501 144.447ZM26.3731 81.5516C25.9674 83.018 25.5616 84.4845 25.1559 85.951C31.6477 86.5212 37.815 88.0692 43.901 90.5948C57.7773 96.3791 66.8659 108.111 75.6299 119.435C82.5274 128.315 89.1816 136.87 97.7833 142.084C98.0267 142.247 98.3513 142.41 98.5947 142.573C99.0005 142.817 99.3251 142.98 99.7308 143.224C99.8931 143.306 100.055 143.387 100.137 143.469C100.299 143.55 100.38 143.55 100.461 143.632C104.032 145.424 107.927 146.565 112.309 146.972C112.146 146.891 111.903 146.891 111.741 146.809C95.5111 142.654 86.098 129.863 76.1979 116.339C67.4339 104.363 58.4265 92.0612 44.2256 85.951C38.5453 83.4254 32.6215 82.0404 26.3731 81.5516ZM22.7214 100.941C22.6403 102.408 22.5591 103.793 22.478 105.259C30.187 106.889 36.6789 109.251 41.7912 111.207C55.6675 116.339 66.2167 123.835 76.2791 131.167C90.1554 141.188 102.084 149.742 119.369 149.579C120.018 149.579 120.667 149.579 121.397 149.498C120.18 149.498 118.963 149.498 117.827 149.416C115.555 149.335 113.364 149.09 111.254 148.683C97.621 146.157 87.3963 137.603 76.6037 128.723C66.6225 120.494 56.3167 111.94 42.1969 106.563C36.5977 104.445 30.187 102.245 22.7214 100.941ZM22.478 109.333C22.478 109.659 22.478 110.066 22.478 110.392C29.8625 112.347 36.192 114.465 41.3043 116.258C54.6937 120.983 65.1618 127.501 75.3053 133.855C90.2365 143.143 103.139 151.209 120.91 150.149C121.803 150.068 122.696 150.068 123.588 149.986C122.046 149.986 120.667 150.068 119.287 150.068C115.96 150.068 112.796 149.824 109.793 149.253C97.2152 146.891 87.1529 139.64 75.9545 131.574C65.811 124.323 55.3429 116.747 41.5478 111.696C36.5166 109.822 30.0248 107.459 22.3968 105.83C22.478 107.052 22.478 108.192 22.478 109.333ZM22.5591 111.044C22.6403 112.51 22.7214 113.895 22.8026 115.28C27.5092 116.665 31.7289 118.213 35.7051 119.598C37.4904 120.25 39.1945 120.82 40.8174 121.39C53.4765 125.708 64.188 131.411 73.6012 136.462C89.9119 145.18 104.032 152.756 122.452 150.72C123.588 150.638 124.643 150.475 125.779 150.312C123.994 150.394 122.452 150.557 120.91 150.638C116.447 150.883 112.309 150.638 108.414 149.824C96.4849 147.542 86.3414 141.269 75.0618 134.263C64.9995 127.99 54.5314 121.472 41.142 116.747C36.1108 115.117 29.8625 112.999 22.5591 111.044ZM27.2657 78.7001C27.0223 79.5148 26.6977 80.3295 26.5354 81.1442C32.8649 81.633 38.7887 83.018 44.4691 85.5436C58.7511 91.7353 67.7585 104.119 76.5225 116.013C83.5012 125.545 90.2365 134.752 99.2439 140.699C89.425 133.937 82.5275 123.346 75.711 112.999C67.4339 100.208 58.7511 87.0101 44.7125 80.7369C39.4379 78.3742 33.9199 77.0707 27.9149 76.6634C27.6715 77.3966 27.5092 78.0484 27.2657 78.7001ZM23.5329 120.576C26.6977 121.635 29.619 122.775 32.4592 123.753C35.2182 124.812 37.8961 125.708 40.4117 126.605C51.9347 130.434 61.997 134.996 70.9233 139.069C88.7758 147.216 104.194 154.304 123.264 151.616C123.507 151.616 123.751 151.534 123.994 151.534C125.292 151.371 126.591 151.127 127.889 150.883C127.808 150.883 127.727 150.883 127.565 150.801C127.078 150.883 126.51 150.964 126.023 151.046C124.806 151.209 123.588 151.371 122.452 151.453C116.772 152.023 111.416 151.779 106.385 150.801C94.9431 148.683 84.7184 143.143 73.3577 137.114C63.4577 131.819 53.2331 126.36 40.6551 122.042C39.0322 121.472 37.3281 120.902 35.5428 120.25C31.6477 118.865 27.5092 117.398 22.9649 116.013C23.046 117.48 23.2895 119.028 23.5329 120.576ZM23.6141 121.309C23.8575 122.938 24.1821 124.486 24.5878 126.116C26.1297 126.686 27.5903 127.256 28.9698 127.827C32.8649 129.293 36.4354 130.76 39.8436 131.819C49.6625 134.914 58.1831 138.255 66.4602 141.514C86.5037 149.335 102.571 155.608 121.722 152.919C122.939 152.756 124.237 152.512 125.536 152.268C126.997 151.942 128.457 151.616 129.999 151.29C129.918 151.29 129.756 151.29 129.674 151.209C127.808 151.616 125.942 151.942 124.075 152.186C123.832 152.186 123.588 152.268 123.345 152.268C116.285 153.245 109.793 152.919 103.464 151.779C92.4275 149.742 82.0406 144.935 70.5987 139.721C61.2667 135.485 51.6101 131.004 40.0871 127.256C37.5715 126.442 34.9748 125.464 32.1346 124.405C29.4567 123.346 26.6165 122.287 23.6141 121.309ZM29.8625 71.8566C29.2133 73.3231 28.6452 74.7896 28.0772 76.3375C34.0821 76.7448 39.6814 78.0484 44.8748 80.411C58.9946 86.6842 67.6774 99.9638 76.0356 112.755C81.1479 120.576 86.3414 128.56 92.8332 134.915C85.7734 127.827 80.4987 118.62 75.2241 109.659C67.2716 96.0533 59.0757 82.0404 45.1994 75.6043C40.4928 73.4046 35.3805 72.1825 29.8625 71.8566ZM24.7501 126.849C25.1559 128.56 25.6428 130.189 26.1297 131.9C30.8362 133.855 35.2182 135.648 39.2756 136.87C46.4166 139.069 52.9896 141.269 59.3191 143.387C81.6348 150.883 99.812 156.993 119.855 154.141C122.209 153.816 124.562 153.327 126.997 152.756C128.619 152.349 130.242 151.942 131.947 151.453C131.784 151.453 131.703 151.453 131.541 151.371C129.512 151.86 127.483 152.349 125.536 152.756C124.237 153.001 122.939 153.245 121.722 153.408C113.851 154.549 106.547 154.141 99.3251 152.756C88.6947 150.72 78.1455 146.646 66.2167 142.002C57.9396 138.744 49.4191 135.403 39.6002 132.307C36.2731 131.248 32.6215 129.863 28.7264 128.315C27.428 127.908 26.1297 127.338 24.7501 126.849ZM32.0534 66.8869C31.3231 68.3534 30.5928 69.9013 30.0248 71.4493C35.5428 71.7752 40.6551 73.0787 45.4429 75.2784C59.4003 81.7145 67.5962 95.8088 75.6299 109.414C79.8496 116.665 84.1504 124.079 89.425 130.352C83.7447 123.183 79.2815 114.628 74.8995 106.237C67.0282 91.165 59.5626 76.9078 45.8486 70.3902C41.5478 68.4349 37.0846 67.2943 32.0534 66.8869ZM25.0747 86.4398C24.7501 87.9062 24.4255 89.3727 24.101 90.7577C30.5928 91.4909 36.8412 93.1203 43.4142 95.7274C57.2905 101.349 66.7036 112.184 75.7922 122.694C78.1455 125.382 80.4176 128.071 82.7709 130.597C85.043 132.715 87.3963 134.67 89.7496 136.544C84.5561 131.737 80.0119 125.79 75.3053 119.761C66.5413 108.518 57.5339 96.7865 43.7388 91.0836C37.6527 88.558 31.4854 87.0101 25.0747 86.4398ZM26.4542 132.715C27.0223 134.507 27.7526 136.299 28.4829 138.092C32.1346 139.64 35.624 141.025 38.7887 141.921C41.7101 142.736 44.5502 143.632 47.3093 144.447C74.575 152.594 95.43 158.867 117.259 155.771C120.992 155.282 124.724 154.467 128.538 153.327C130.324 152.838 132.109 152.268 133.894 151.616C133.732 151.616 133.651 151.616 133.488 151.534C131.378 152.186 129.188 152.756 127.078 153.245C124.643 153.816 122.209 154.304 119.855 154.63C110.767 155.934 102.084 155.363 93.239 153.734C82.4463 151.697 71.4102 148.031 59.0757 143.876C52.7462 141.758 46.1732 139.558 39.0322 137.359C35.2182 136.299 30.9174 134.589 26.4542 132.715ZM34.6502 61.9987C33.8387 63.4652 33.0272 65.0131 32.2157 66.5611C37.1658 66.9684 41.7101 68.109 45.9297 70.1458C59.7249 76.6634 67.1905 90.9206 75.0618 106.074C78.3889 112.429 81.716 118.783 85.6111 124.649C81.3102 117.887 77.7397 110.311 74.2504 102.815C64.9995 83.018 56.1544 64.117 34.6502 61.9987ZM23.2083 96.0533C23.046 97.5197 22.8837 98.9047 22.7214 100.371C30.2682 101.675 36.76 103.874 42.2781 105.993C56.479 111.37 66.7848 119.924 76.8471 128.234C81.716 132.307 86.5037 136.218 91.5349 139.558C88.3701 137.114 85.4488 134.181 82.5274 131.085C80.5799 129.293 78.6324 127.501 76.6848 125.627C66.9471 116.421 56.8036 106.889 42.5215 101.267C37.6527 99.3935 31.1608 97.1938 23.2083 96.0533ZM28.8887 139.069C29.7813 141.025 30.6739 142.98 31.7289 144.772C34.001 145.669 36.192 146.483 38.3018 147.054C67.1905 155.282 90.7234 161.066 114.013 157.808C119.369 157.074 124.724 155.852 130.08 154.06C132.028 153.408 133.975 152.675 135.923 152.023C135.76 152.023 135.679 151.942 135.517 151.942C133.245 152.675 130.973 153.408 128.701 154.06C124.887 155.201 121.073 156.015 117.34 156.504C106.628 158.052 96.1603 157.319 85.043 155.201C73.4389 153.001 61.1856 149.335 47.2281 145.18C44.4691 144.365 41.6289 143.469 38.7076 142.654C35.5428 141.758 32.2969 140.454 28.8887 139.069ZM32.2969 145.831C33.5141 147.868 34.7313 149.824 36.1108 151.779C36.6789 151.942 37.1658 152.105 37.7338 152.268C63.9446 159.437 86.9906 163.511 109.469 160.333C116.853 159.274 124.156 157.482 131.541 154.712C133.651 153.897 135.679 153.082 137.789 152.186C137.627 152.186 137.465 152.186 137.383 152.105C135.03 153.001 132.596 153.897 130.242 154.712C124.806 156.504 119.45 157.808 114.013 158.541C101.029 160.333 88.0455 159.437 74.0881 156.748C62.8897 154.63 50.9609 151.453 38.0584 147.787C36.192 147.216 34.2444 146.565 32.2969 145.831ZM24.0198 91.2465C23.7764 92.713 23.5329 94.098 23.2895 95.5644C31.3231 96.705 37.815 98.9047 42.8461 100.941C57.2093 106.563 67.2716 116.095 77.0905 125.382C77.6586 125.871 78.1455 126.442 78.7135 126.93C77.5774 125.708 76.5225 124.405 75.3864 123.183C66.2979 112.755 56.9659 101.919 43.1707 96.2977C36.6789 93.6091 30.4305 91.9798 24.0198 91.2465ZM36.9223 152.756C38.4641 154.793 40.0871 156.667 41.8723 158.541C65.4864 164.325 85.6922 165.955 104.194 163.348C114.256 161.963 123.751 159.274 133.083 155.363C135.274 154.467 137.465 153.408 139.656 152.431C139.493 152.431 139.331 152.431 139.25 152.349C136.815 153.408 134.3 154.467 131.703 155.363C124.319 158.133 116.934 160.007 109.469 161.066C94.6185 163.185 79.525 162.126 63.3765 159.03C55.0183 157.482 46.4978 155.363 37.4904 152.919C37.3281 152.919 37.0846 152.838 36.9223 152.756ZM141.197 152.756C141.279 152.594 141.197 152.594 141.035 152.512C138.438 153.734 135.842 154.875 133.245 156.015C123.832 159.926 114.256 162.614 104.194 164.081C89.1004 166.199 72.952 165.547 54.6937 162.126C50.8798 161.392 46.9847 160.578 42.9273 159.6C43.6576 160.333 44.3879 160.985 45.1183 161.718C46.5789 163.022 48.0396 164.244 49.5814 165.384C66.7036 168.562 82.6086 169.132 97.8644 166.932C110.523 165.14 122.615 161.555 134.543 156.015C136.815 154.956 139.006 153.816 141.197 152.756ZM138.438 155.363C138.763 155.038 139.088 154.712 139.412 154.386C137.87 155.119 136.329 155.934 134.706 156.667C122.696 162.207 110.523 165.873 97.7833 167.665C83.0143 169.784 67.5962 169.295 51.1232 166.362C53.9634 168.317 57.047 170.028 60.2118 171.495C70.9233 172.391 81.3914 172.146 91.6972 170.68C106.791 168.562 121.56 163.836 136.085 156.504C136.815 156.178 137.627 155.771 138.438 155.363ZM134.056 159.193C134.787 158.622 135.517 157.971 136.166 157.4C121.56 164.733 106.791 169.458 91.616 171.576C82.1217 172.88 72.384 173.287 62.5651 172.554C66.6225 174.183 70.8421 175.405 75.2241 176.138C78.7946 175.894 82.284 175.568 85.7734 175.079C103.464 172.635 119.531 166.769 134.056 159.193ZM123.913 166.281C126.347 164.814 128.701 163.266 130.973 161.555C130.324 161.881 129.756 162.126 129.106 162.451C114.824 169.295 100.299 173.776 86.0168 175.894C83.6635 176.22 81.3102 176.464 78.8758 176.709C84.3127 177.279 89.8308 177.197 95.5111 176.464C105.33 174.998 114.905 171.576 123.913 166.281ZM106.141 146.565C99.3251 144.202 93.4013 140.292 87.8021 135.648C93.239 140.78 99.0816 144.772 106.141 146.565ZM145.174 146.32C145.498 146.239 145.742 146.157 146.066 146.076C139.25 146.809 132.596 147.298 126.347 147.542C124.237 147.705 122.209 147.868 120.18 147.95C122.209 148.194 124.319 148.439 126.428 148.601C129.025 148.52 131.622 148.439 134.3 148.194C135.598 148.031 136.897 147.868 138.195 147.705C139.331 147.542 140.548 147.298 141.684 147.054C142.902 146.891 144.038 146.646 145.174 146.32ZM116.366 148.764C114.905 148.601 113.526 148.439 112.228 148.194C111.822 148.113 111.335 148.031 110.929 147.95C110.442 147.868 109.955 147.868 109.469 147.787C112.228 148.439 115.068 148.846 118.07 148.927C118.233 148.927 118.314 148.927 118.395 148.927C117.664 148.927 117.015 148.846 116.366 148.764ZM111.173 147.461C112.228 147.542 113.364 147.624 114.419 147.624C114.256 147.542 114.094 147.542 113.932 147.461C113.688 147.461 113.445 147.461 113.201 147.461C111.66 147.379 110.199 147.216 108.819 146.891C109.631 147.135 110.442 147.298 111.173 147.461ZM147.689 145.506C147.852 145.343 148.014 145.18 148.095 144.935C146.878 145.098 145.742 145.261 144.524 145.424C141.684 145.831 138.844 146.239 136.004 146.565C139.818 146.32 143.713 145.913 147.689 145.506ZM114.905 148.113C115.392 148.194 115.96 148.276 116.447 148.276C116.528 148.276 116.61 148.276 116.772 148.276C116.528 148.194 116.285 148.113 116.042 148.113C115.636 148.113 115.23 148.113 114.905 148.113ZM141.279 151.616C141.116 151.616 141.035 151.616 140.954 151.616C140.629 151.779 140.224 151.942 139.899 152.105C140.061 152.105 140.142 152.105 140.305 152.186C140.548 151.942 140.873 151.779 141.279 151.616ZM141.847 151.29C142.171 151.127 142.577 150.964 142.902 150.801H142.658C142.252 150.964 141.928 151.127 141.522 151.29C141.684 151.29 141.765 151.29 141.847 151.29ZM139.412 151.534C139.331 151.534 139.169 151.534 139.088 151.534C138.763 151.697 138.357 151.779 138.033 151.942C138.195 151.942 138.276 151.942 138.438 151.942C138.682 151.779 139.006 151.616 139.412 151.534ZM140.873 150.72C140.548 150.883 140.142 151.046 139.818 151.127C139.899 151.127 139.98 151.127 140.142 151.127C140.467 150.964 140.792 150.801 141.197 150.638L140.873 150.72ZM137.14 151.29C136.815 151.371 136.41 151.534 136.085 151.616C136.247 151.616 136.329 151.616 136.491 151.697C136.815 151.534 137.14 151.453 137.465 151.29C137.383 151.371 137.221 151.29 137.14 151.29ZM139.006 150.638C138.682 150.801 138.276 150.883 137.951 151.046H138.195C138.52 150.883 138.844 150.801 139.169 150.638H139.006ZM135.274 151.127C134.949 151.209 134.624 151.371 134.3 151.453C134.381 151.453 134.543 151.453 134.624 151.534C134.949 151.453 135.274 151.29 135.598 151.209C135.436 151.127 135.355 151.127 135.274 151.127ZM142.658 149.986C142.333 150.149 142.009 150.231 141.684 150.394H141.847C142.171 150.231 142.415 150.149 142.739 149.986H142.658ZM137.14 150.557C136.815 150.638 136.491 150.801 136.085 150.883H136.329C136.653 150.801 136.978 150.638 137.302 150.557H137.14ZM133.326 150.964C133.001 151.046 132.677 151.127 132.352 151.209C132.433 151.209 132.596 151.209 132.677 151.29C133.001 151.209 133.245 151.127 133.569 151.046L133.326 150.964ZM139.899 150.312H140.061C140.386 150.149 140.629 150.068 140.954 149.986H140.873C140.467 150.068 140.224 150.231 139.899 150.312ZM143.632 149.579C143.875 149.498 144.119 149.335 144.362 149.253C144.119 149.335 143.794 149.498 143.632 149.579ZM134.3 150.72H134.462C134.787 150.638 135.03 150.557 135.355 150.475H135.274C134.949 150.557 134.624 150.638 134.3 150.72ZM138.114 150.231H138.195C138.438 150.149 138.682 150.068 139.006 149.905C138.682 150.068 138.357 150.149 138.114 150.231ZM131.378 150.72C131.054 150.801 130.81 150.883 130.486 150.883L130.729 150.964C130.973 150.883 131.297 150.801 131.541 150.72H131.378ZM132.433 150.475H132.515C132.758 150.394 133.083 150.312 133.326 150.231C133.001 150.312 132.758 150.394 132.433 150.475ZM128.619 150.638H128.782C129.025 150.557 129.269 150.557 129.512 150.475H129.35C129.188 150.475 128.863 150.557 128.619 150.638ZM126.672 150.231H126.753C126.997 150.231 127.159 150.149 127.402 150.149H127.321C127.159 150.231 126.915 150.231 126.672 150.231ZM130.567 150.231C130.729 150.231 130.81 150.231 130.892 150.149C130.81 150.231 130.729 150.231 130.567 150.231ZM136.329 150.149L136.491 150.068L136.329 150.149Z" fill="#000" fill-opacity="0.22"/>
</g>
<defs>
<clipPath id="clip0_1_58">
<rect width="177.795" height="186.73" fill="white"/>
</clipPath>
</defs>
</svg>
