<svg width="28" height="28" viewBox="0 0 28 28" fill="none" xmlns="http://www.w3.org/2000/svg">
<path d="M19.7917 17.4167H18.5408L18.0975 16.9892C19.6492 15.1842 20.5833 12.8408 20.5833 10.2917C20.5833 4.6075 15.9758 0 10.2917 0C4.6075 0 0 4.6075 0 10.2917C0 15.9758 4.6075 20.5833 10.2917 20.5833C12.8408 20.5833 15.1842 19.6492 16.9892 18.0975L17.4167 18.5408V19.7917L25.3333 27.6925L27.6925 25.3333L19.7917 17.4167ZM10.2917 17.4167C6.34917 17.4167 3.16667 14.2342 3.16667 10.2917C3.16667 6.34917 6.34917 3.16667 10.2917 3.16667C14.2342 3.16667 17.4167 6.34917 17.4167 10.2917C17.4167 14.2342 14.2342 17.4167 10.2917 17.4167Z" fill="#117DCC"/>
</svg>
