<svg width="17" height="17" viewBox="0 0 17 17" fill="none" xmlns="http://www.w3.org/2000/svg">
<path d="M12.0616 10.7007H11.3449L11.0909 10.4558C11.98 9.42155 12.5152 8.0789 12.5152 6.61832C12.5152 3.36149 9.87527 0.721558 6.61844 0.721558C3.36161 0.721558 0.72168 3.36149 0.72168 6.61832C0.72168 9.87515 3.36161 12.5151 6.61844 12.5151C8.07902 12.5151 9.42167 11.9798 10.4559 11.0908L10.7008 11.3448V12.0615L15.2368 16.5884L16.5885 15.2367L12.0616 10.7007ZM6.61844 10.7007C4.35953 10.7007 2.53607 8.87723 2.53607 6.61832C2.53607 4.35941 4.35953 2.53595 6.61844 2.53595C8.87735 2.53595 10.7008 4.35941 10.7008 6.61832C10.7008 8.87723 8.87735 10.7007 6.61844 10.7007Z" fill="white"/>
</svg>
