<svg width="66" height="66" viewBox="0 0 66 66" fill="none" xmlns="http://www.w3.org/2000/svg">
<g clip-path="url(#clip0_129_371)">
<path d="M30.25 24.75H35.75V30.25H30.25V24.75ZM24.75 30.25H30.25V35.75H24.75V30.25ZM35.75 30.25H41.25V35.75H35.75V30.25ZM41.25 24.75H46.75V30.25H41.25V24.75ZM19.25 24.75H24.75V30.25H19.25V24.75ZM52.25 8.25H13.75C10.725 8.25 8.25 10.725 8.25 13.75V52.25C8.25 55.275 10.725 57.75 13.75 57.75H52.25C55.275 57.75 57.75 55.275 57.75 52.25V13.75C57.75 10.725 55.275 8.25 52.25 8.25ZM24.75 49.5H19.25V44H24.75V49.5ZM35.75 49.5H30.25V44H35.75V49.5ZM46.75 49.5H41.25V44H46.75V49.5ZM52.25 30.25H46.75V35.75H52.25V41.25H46.75V35.75H41.25V41.25H35.75V35.75H30.25V41.25H24.75V35.75H19.25V41.25H13.75V35.75H19.25V30.25H13.75V13.75H52.25V30.25Z" fill="#117DCC"/>
</g>
<defs>
<clipPath id="clip0_129_371">
<rect width="66" height="66" fill="white"/>
</clipPath>
</defs>
</svg>
