<svg width="50" height="50" viewBox="0 0 50 50" fill="none" xmlns="http://www.w3.org/2000/svg">
<path d="M22.25 16.75H27.75V22.25H22.25V16.75ZM16.75 22.25H22.25V27.75H16.75V22.25ZM27.75 22.25H33.25V27.75H27.75V22.25ZM33.25 16.75H38.75V22.25H33.25V16.75ZM11.25 16.75H16.75V22.25H11.25V16.75ZM44.25 0.25H5.75C2.725 0.25 0.25 2.725 0.25 5.75V44.25C0.25 47.275 2.725 49.75 5.75 49.75H44.25C47.275 49.75 49.75 47.275 49.75 44.25V5.75C49.75 2.725 47.275 0.25 44.25 0.25ZM16.75 41.5H11.25V36H16.75V41.5ZM27.75 41.5H22.25V36H27.75V41.5ZM38.75 41.5H33.25V36H38.75V41.5ZM44.25 22.25H38.75V27.75H44.25V33.25H38.75V27.75H33.25V33.25H27.75V27.75H22.25V33.25H16.75V27.75H11.25V33.25H5.75V27.75H11.25V22.25H5.75V5.75H44.25V22.25Z" fill="white"/>
</svg>
