<svg width="66" height="66" viewBox="0 0 66 66" fill="none" xmlns="http://www.w3.org/2000/svg">
<g clip-path="url(#clip0_129_359)">
<path d="M30.25 5.5H8.25V11H30.25V5.5Z" fill="#117DCC"/>
<path d="M16.5 30.25H22V19.25H30.25V13.75H8.25V19.25H16.5V30.25Z" fill="#117DCC"/>
<path d="M55.4992 34.1102L34.1094 55.5L37.9984 59.389L59.3882 37.9993L55.4992 34.1102Z" fill="#117DCC"/>
<path d="M39.875 44C42.1532 44 44 42.1532 44 39.875C44 37.5968 42.1532 35.75 39.875 35.75C37.5968 35.75 35.75 37.5968 35.75 39.875C35.75 42.1532 37.5968 44 39.875 44Z" fill="#117DCC"/>
<path d="M53.625 57.75C55.9032 57.75 57.75 55.9032 57.75 53.625C57.75 51.3468 55.9032 49.5 53.625 49.5C51.3468 49.5 49.5 51.3468 49.5 53.625C49.5 55.9032 51.3468 57.75 53.625 57.75Z" fill="#117DCC"/>
<path d="M42.625 30.25C46.42 30.25 49.5 27.17 49.5 23.375V11H57.75V5.5H46.75V17.9025C45.595 17.0225 44.1925 16.5 42.625 16.5C38.83 16.5 35.75 19.58 35.75 23.375C35.75 27.17 38.83 30.25 42.625 30.25Z" fill="#117DCC"/>
<path d="M26.7833 43.8904L22.9058 47.7679L20.9533 45.8154L21.9158 44.8528C24.6108 42.1579 24.6108 37.8129 21.9158 35.1179C20.5683 33.7704 18.8083 33.1104 17.0483 33.1104C15.2883 33.1104 13.5283 33.7704 12.1808 35.1179C9.48578 37.8129 9.48578 42.1579 12.1808 44.8528L13.1433 45.8154L10.2283 48.7303C7.53328 51.4254 7.53328 55.7704 10.2283 58.4654C11.6033 59.8404 13.3633 60.5004 15.1233 60.5004C16.8833 60.5004 18.6433 59.8404 19.9908 58.4929L22.9058 55.5778L26.7833 59.4554L30.6608 55.5778L26.7833 51.7003L30.6608 47.8229L26.7833 43.8904ZM16.0858 39.0504C16.4158 38.7204 16.8008 38.6379 17.0483 38.6379C17.2958 38.6379 17.6808 38.7204 18.0108 39.0504C18.5333 39.6004 18.5333 40.4529 18.0108 41.0029L17.0483 41.9654L16.0858 40.9754C15.5633 40.4529 15.5633 39.5729 16.0858 39.0504ZM16.0858 54.5879C15.7558 54.9179 15.3708 55.0004 15.1233 55.0004C14.8758 55.0004 14.4908 54.9179 14.1608 54.5879C13.6383 54.0654 13.6383 53.1854 14.1608 52.6353L17.0758 49.7204L19.0283 51.6729L16.0858 54.5879Z" fill="#117DCC"/>
</g>
<defs>
<clipPath id="clip0_129_359">
<rect width="66" height="66" fill="white"/>
</clipPath>
</defs>
</svg>
