<svg width="163" height="34" viewBox="0 0 163 34" fill="none" xmlns="http://www.w3.org/2000/svg">
<path d="M17.8061 0.788086C18.4693 0.880423 19.1386 0.94011 19.7941 1.0702C22.6806 1.64309 25.2446 2.88479 27.4586 4.82947C30.1114 7.15983 31.8525 10.0416 32.6769 13.4729C33.0621 15.0758 33.2258 16.7083 33.1029 18.3468C32.7621 22.8734 30.8888 26.6633 27.4821 29.6777C25.167 31.7265 22.4632 32.9886 19.4248 33.5304C17.8775 33.8064 16.3185 33.8385 14.7549 33.665C11.5068 33.3044 8.61121 32.0877 6.10281 30.0078C2.99092 27.4275 1.07123 24.1309 0.340191 20.1492C0.0917488 18.7968 0.0187977 17.4306 0.112665 16.0675C0.294277 13.4244 1.08909 10.962 2.47414 8.69741C3.925 6.32573 5.85284 4.43105 8.249 3.02304C10.1916 1.88133 12.2904 1.17835 14.5253 0.883994C14.8192 0.845222 15.1146 0.819715 15.4094 0.788086C16.2083 0.788086 17.0072 0.788086 17.8066 0.788086H17.8061ZM9.67997 24.6665V24.7104C10.4702 24.7104 11.2604 24.7165 12.0506 24.7069C12.3123 24.7038 12.5791 24.6859 12.8347 24.6329C13.5535 24.4839 14.0157 24.0136 14.3636 23.3922C14.9401 22.3632 15.5324 21.3429 16.118 20.3191C17.3653 18.1387 18.6014 15.9517 19.8661 13.781C20.3813 12.8975 20.4221 12.0562 19.8906 11.1675C19.2809 10.1483 18.7121 9.10451 18.1178 8.07554C17.7826 7.4955 17.4567 6.9073 17.0802 6.35379C16.6348 5.69927 15.8308 5.71509 15.3753 6.35889C15.2186 6.5803 15.0778 6.81344 14.9432 7.04912C12.2929 11.6828 9.64324 16.3165 6.9971 20.9527C6.56807 21.7041 6.12067 22.4479 5.74979 23.2279C5.4085 23.9457 5.88192 24.6492 6.67571 24.6625C7.67713 24.6793 8.67906 24.6665 9.68099 24.6665H9.67997ZM23.1876 24.7104C23.1876 24.6951 23.1876 24.6803 23.1876 24.665C24.3171 24.665 25.4466 24.6783 26.5755 24.6604C27.3081 24.6487 27.7519 23.9641 27.4877 23.2841C27.4081 23.0795 27.3045 22.8821 27.1938 22.6918C26.4062 21.3332 25.6185 19.9752 24.8206 18.6223C24.5452 18.155 24.2707 17.6826 23.9437 17.2516C23.5845 16.7787 22.8668 16.7756 22.4643 17.2118C22.3158 17.3725 22.1888 17.5576 22.0776 17.7464C21.294 19.0774 20.514 20.4109 19.7396 21.7475C19.4544 22.2393 19.1585 22.7275 18.9182 23.2412C18.6193 23.8809 19.0417 24.5987 19.7227 24.6579C20.0691 24.688 20.4175 24.7043 20.7655 24.7074C21.5725 24.7145 22.3801 24.7094 23.1871 24.7094L23.1876 24.7104Z" fill="white"/>
<path d="M162.999 23.0473C161.954 23.0504 160.909 23.0555 159.864 23.0565C158.377 23.058 156.89 23.0575 155.404 23.0565C155.062 23.0565 155.046 23.0412 155.046 22.6953C155.046 19.0799 155.047 15.465 155.042 11.8496C155.042 11.6037 155.107 11.5108 155.373 11.5118C157.718 11.5215 160.063 11.5175 162.408 11.518C162.741 11.518 162.745 11.5221 162.746 11.8639C162.748 12.2628 162.748 12.6617 162.746 13.0607C162.745 13.405 162.729 13.4218 162.388 13.4224C160.841 13.4234 159.295 13.4224 157.748 13.4224C157.655 13.4224 157.561 13.4315 157.468 13.4208C157.227 13.3928 157.142 13.4846 157.147 13.7341C157.162 14.4467 157.162 15.1599 157.147 15.8726C157.142 16.1164 157.232 16.1736 157.458 16.1726C158.987 16.1654 160.516 16.1685 162.046 16.169C162.314 16.169 162.448 16.3066 162.449 16.5817C162.449 16.9551 162.449 17.3285 162.449 17.702C162.448 18.0723 162.447 18.0734 162.087 18.0734C160.549 18.0734 159.011 18.0795 157.473 18.0678C157.211 18.0657 157.142 18.1443 157.147 18.3993C157.162 19.2054 157.152 20.0119 157.153 20.818C157.153 21.0377 157.267 21.1479 157.495 21.1485C159.236 21.1485 160.979 21.1485 162.72 21.1496C162.814 21.1496 162.906 21.1587 163 21.1633V23.0478L162.999 23.0473Z" fill="white"/>
<path d="M111.336 14.3834C111.336 14.4839 111.336 14.585 111.336 14.6854C111.336 17.3341 111.336 19.9828 111.336 22.631C111.336 22.914 111.195 23.0558 110.914 23.0565C110.447 23.0565 109.979 23.0503 109.512 23.059C109.309 23.0626 109.226 22.9998 109.226 22.783C109.231 19.1156 109.231 15.4486 109.227 11.7812C109.227 11.5853 109.286 11.5113 109.489 11.5139C110.237 11.523 110.985 11.5225 111.732 11.5139C111.918 11.5113 112.026 11.5792 112.125 11.7307C113.494 13.8376 114.869 15.9414 116.244 18.0463C116.66 18.6845 117.078 19.3217 117.543 19.9481V19.6818C117.543 17.1097 117.543 14.5375 117.543 11.9653C117.543 11.47 117.508 11.521 118.002 11.5185C118.418 11.5164 118.835 11.5179 119.251 11.5185C119.517 11.5185 119.651 11.6559 119.651 11.9307C119.651 12.6775 119.651 13.4249 119.651 14.1717C119.651 16.9985 119.651 19.8252 119.651 22.6524C119.651 22.9221 119.514 23.0571 119.24 23.0575C118.603 23.0575 117.965 23.0493 117.328 23.0621C117.1 23.0667 116.957 22.9978 116.83 22.7993C115.059 20.0415 113.279 17.2892 111.502 14.536C111.466 14.4799 111.426 14.4263 111.388 14.3712C111.37 14.3758 111.352 14.3799 111.334 14.3845L111.336 14.3834Z" fill="white"/>
<path d="M139.778 17.2654C139.778 15.4661 139.778 13.6668 139.778 11.8675C139.778 11.5196 139.78 11.5186 140.13 11.5181C140.614 11.5175 141.099 11.5298 141.583 11.5129C141.827 11.5043 141.888 11.6022 141.887 11.8246C141.881 13.1148 141.884 14.405 141.884 15.6946C141.884 16.065 141.886 16.0665 142.25 16.0665C143.78 16.0665 145.31 16.067 146.839 16.0665C147.179 16.0665 147.182 16.0635 147.182 15.7278C147.183 14.4376 147.182 13.1475 147.183 11.8578C147.183 11.5226 147.189 11.5186 147.527 11.5181C148.003 11.517 148.479 11.517 148.954 11.5181C149.293 11.5186 149.295 11.5196 149.295 11.8568C149.295 14.8697 149.295 17.8826 149.295 20.8956C149.295 21.5236 149.288 22.1516 149.298 22.7796C149.301 22.9923 149.22 23.0632 149.014 23.0596C148.504 23.051 147.994 23.0474 147.484 23.0612C147.245 23.0678 147.178 22.9739 147.179 22.7474C147.185 21.2705 147.182 19.7937 147.182 18.3173C147.182 17.9724 147.181 17.9719 146.826 17.9719C145.288 17.9719 143.75 17.9775 142.212 17.9663C141.954 17.9643 141.876 18.0398 141.878 18.2974C141.889 19.7488 141.884 21.2001 141.883 22.6515C141.883 23.0566 141.882 23.0571 141.468 23.0576C141.01 23.0576 140.55 23.0469 140.092 23.0617C139.846 23.0698 139.771 22.9836 139.772 22.7403C139.781 20.9155 139.777 19.0907 139.777 17.2659L139.778 17.2654Z" fill="white"/>
<path d="M50.914 23.0315C50.7906 23.0427 50.7161 23.0555 50.6416 23.056C50.0299 23.0575 49.4178 23.0514 48.8061 23.0601C48.6163 23.0626 48.5138 22.9953 48.4439 22.8177C48.171 22.1229 47.8756 21.4363 47.6103 20.7389C47.5185 20.4966 47.3996 20.4037 47.1303 20.4068C45.7029 20.4216 44.275 20.4195 42.8476 20.4083C42.6068 20.4063 42.4849 20.4757 42.3997 20.7062C42.1374 21.4143 41.8467 22.1117 41.5773 22.8172C41.5095 22.9953 41.409 23.0641 41.2182 23.0611C40.6233 23.0519 40.0285 23.0585 39.4337 23.0565C39.3592 23.0565 39.2847 23.0437 39.1699 23.033C39.2046 22.9249 39.2245 22.8382 39.2597 22.7586C40.8478 19.1095 42.4384 15.4614 44.0219 11.8103C44.1168 11.5914 44.2336 11.5011 44.477 11.5134C44.8836 11.5343 45.2927 11.5292 45.7003 11.5149C45.9034 11.5078 46.0039 11.5848 46.0819 11.7674C46.9405 13.7718 47.8067 15.7736 48.6699 17.776C49.3754 19.4125 50.0804 21.0491 50.7844 22.6856C50.8268 22.7846 50.8605 22.8871 50.9145 23.033L50.914 23.0315ZM43.2567 18.5774H46.7201C46.1462 17.0623 45.5871 15.5864 45.004 14.0463C44.4091 15.5884 43.8403 17.0633 43.2567 18.5774Z" fill="white"/>
<path d="M104.736 23.0347C104.577 23.0444 104.477 23.0556 104.377 23.0561C103.834 23.0576 103.289 23.0377 102.746 23.0643C102.444 23.0791 102.31 22.9633 102.208 22.6939C101.951 22.0113 101.658 21.3425 101.395 20.662C101.321 20.4727 101.221 20.4079 101.019 20.4089C99.5484 20.4171 98.0786 20.4166 96.6084 20.4089C96.4059 20.4079 96.3069 20.4753 96.235 20.6656C95.9661 21.3803 95.6738 22.0858 95.4029 22.8C95.332 22.9867 95.2361 23.0653 95.0305 23.0612C94.4443 23.0495 93.8582 23.0576 93.2715 23.0561C93.1889 23.0561 93.1062 23.0449 92.9858 23.0367C93.0256 22.9153 93.0481 22.8194 93.0868 22.7301C94.6821 19.0657 96.2799 15.4024 97.8725 11.737C97.945 11.5706 98.0429 11.511 98.2205 11.515C98.6622 11.5247 99.1045 11.5258 99.5458 11.515C99.7279 11.5104 99.8172 11.5814 99.8876 11.7456C101.086 14.5366 102.291 17.3256 103.494 20.1151C103.847 20.9334 104.201 21.7506 104.553 22.5694C104.613 22.7067 104.662 22.848 104.736 23.0357V23.0347ZM98.8229 14.0454C98.2266 15.5916 97.6547 17.0736 97.0731 18.5811H100.54C99.9698 17.0751 99.4122 15.6013 98.8229 14.0454Z" fill="white"/>
<path d="M66.3374 23.0244C66.3813 22.8969 66.4073 22.801 66.4461 22.7112C68.0352 19.0621 69.6263 15.4146 71.2114 11.764C71.291 11.5803 71.392 11.5068 71.5935 11.5135C72.0179 11.5272 72.4434 11.5278 72.8678 11.5135C73.0703 11.5063 73.1698 11.5803 73.2489 11.764C74.2314 14.0571 75.2216 16.3471 76.2103 18.6377C76.7919 19.9855 77.3745 21.3333 77.955 22.6811C77.9979 22.7801 78.0331 22.8826 78.0861 23.0219C77.9759 23.0362 77.8974 23.055 77.8188 23.055C77.1985 23.0576 76.5781 23.051 75.9578 23.0596C75.7741 23.0622 75.6843 22.9887 75.619 22.8239C75.3318 22.098 75.0293 21.3782 74.7441 20.6517C74.6748 20.4752 74.5819 20.4079 74.3886 20.4089C72.9102 20.416 71.4312 20.416 69.9528 20.4089C69.7626 20.4079 69.6636 20.4681 69.5947 20.6487C69.3238 21.3624 69.0315 22.0684 68.7622 22.7831C68.6836 22.9923 68.5668 23.0663 68.3459 23.0607C67.7852 23.0474 67.2241 23.0576 66.6634 23.055C66.5665 23.055 66.469 23.0372 66.3369 23.0239L66.3374 23.0244ZM72.2087 14.1356C72.1852 14.1366 72.1618 14.1377 72.1383 14.1387C71.5715 15.6094 71.0048 17.0797 70.4268 18.5795H73.8922C73.3218 17.0741 72.7653 15.6049 72.2087 14.1351V14.1356Z" fill="white"/>
<path d="M134.963 13.0689C134.882 13.1205 134.822 13.1536 134.768 13.1934C134.343 13.5046 133.916 13.8138 133.495 14.1306C133.374 14.2219 133.275 14.2448 133.168 14.1178C131.597 12.2507 127.931 13.0297 127.163 15.9278C126.793 17.3226 126.93 18.6806 127.8 19.8886C128.48 20.8334 129.421 21.3267 130.585 21.4144C131.699 21.4981 132.591 21.0839 133.296 20.2426C133.437 20.0743 133.535 20.0554 133.71 20.187C134.124 20.4977 134.548 20.7967 134.978 21.0854C135.164 21.2099 135.185 21.3068 135.04 21.4859C134.317 22.3817 133.387 22.9434 132.272 23.1847C130.623 23.5418 129.04 23.3474 127.572 22.4955C126.041 21.6073 125.181 20.2386 124.885 18.5168C124.634 17.0573 124.79 15.6406 125.471 14.3066C126.342 12.5981 127.769 11.6512 129.632 11.3237C130.973 11.088 132.273 11.1987 133.495 11.8497C134.049 12.1446 134.498 12.5639 134.962 13.0689H134.963Z" fill="white"/>
<path d="M53.0654 11.518C53.4802 11.518 53.8266 11.518 54.1735 11.518C54.5219 11.518 54.8708 11.5271 55.2188 11.5144C55.4116 11.5073 55.5055 11.5797 55.5703 11.7608C56.1901 13.4943 56.8176 15.2252 57.443 16.9566C57.8032 17.954 58.1628 18.9518 58.5235 19.9492C58.5373 19.9874 58.5582 20.0231 58.597 20.1048C58.8306 19.4788 59.0484 18.8937 59.2668 18.3085C60.0764 16.1384 60.8885 13.9692 61.6905 11.7965C61.7675 11.5873 61.8685 11.5067 62.094 11.5129C62.646 11.5282 63.1985 11.5175 63.751 11.5185C63.8341 11.5185 63.9173 11.5266 64.0407 11.5333C64.0015 11.6516 63.976 11.7455 63.9397 11.8348C62.468 15.4772 60.9931 19.1187 59.5275 22.7637C59.4356 22.9922 59.3137 23.0738 59.0745 23.0616C58.7357 23.0437 58.3949 23.0585 58.0552 23.057C57.5292 23.0544 57.6159 23.1009 57.4354 22.6427C56.1508 19.3824 54.8703 16.1205 53.5894 12.8586C53.4225 12.4342 53.2578 12.0092 53.0659 11.5185L53.0654 11.518Z" fill="white"/>
<path d="M82.565 17.2919C82.565 15.4926 82.565 13.6928 82.565 11.8935C82.565 11.519 82.5661 11.5185 82.9492 11.5185C83.4165 11.5185 83.8848 11.5323 84.3511 11.5129C84.6123 11.5022 84.6842 11.5935 84.6832 11.8471C84.6745 13.8841 84.6786 15.9216 84.6786 17.9586C84.6786 18.9264 84.6847 19.8941 84.6745 20.8614C84.6719 21.0843 84.7413 21.1537 84.9653 21.1521C86.3845 21.1435 87.8037 21.1475 89.223 21.1481C89.5643 21.1481 89.5704 21.1542 89.5714 21.4842C89.5729 21.9174 89.5663 22.35 89.574 22.7831C89.5775 22.9739 89.5148 23.0596 89.3112 23.0591C87.1523 23.055 84.9939 23.054 82.8349 23.0601C82.5895 23.0606 82.5625 22.9371 82.563 22.7412C82.5666 20.9246 82.565 19.108 82.565 17.2919Z" fill="white"/>
</svg>
