<svg width="59" height="54" viewBox="0 0 59 54" fill="none" xmlns="http://www.w3.org/2000/svg">
<path d="M38.8947 37.4234L30.4474 32.546C30.3096 32.4664 30.1534 32.4246 29.9943 32.4246C29.8352 32.4246 29.6789 32.4664 29.5411 32.546L21.0938 37.4234C20.956 37.5028 20.8416 37.6171 20.762 37.7548C20.6825 37.8925 20.6406 38.0487 20.6406 38.2077V47.9372C20.6406 48.0964 20.6825 48.2527 20.7621 48.3906C20.8416 48.5285 20.956 48.643 21.0938 48.7227L29.5411 53.5989C29.6787 53.6788 29.8351 53.7209 29.9943 53.7209C30.1534 53.7209 30.3098 53.6788 30.4474 53.5989L38.8947 48.7227C39.0325 48.643 39.1469 48.5285 39.2264 48.3906C39.306 48.2527 39.3479 48.0964 39.3479 47.9372V38.2077C39.3479 38.0487 39.306 37.8925 39.2265 37.7548C39.1469 37.6171 39.0325 37.5028 38.8947 37.4234ZM29.9943 34.378L36.6288 38.2077L29.9943 42.0386L23.3597 38.2077L29.9943 34.378ZM22.4533 39.7775L29.0879 43.6084V51.2448L22.4533 47.4139V39.7775ZM37.5352 47.4139L30.9006 51.2448V43.6084L37.5352 39.7775V47.4139Z" fill="white"/>
<path d="M17.2562 18.9084C17.415 18.9091 17.571 18.8674 17.7082 18.7876L21.5572 16.5664L29.5416 21.1804C29.6793 21.2603 29.8356 21.3024 29.9948 21.3024C30.154 21.3024 30.3103 21.2603 30.448 21.1804L38.4324 16.5712L42.2814 18.7924C42.4186 18.8722 42.5747 18.9139 42.7334 18.9133C42.9332 18.9138 43.1276 18.8482 43.2863 18.7268C43.445 18.6054 43.5591 18.435 43.611 18.242C43.6628 18.049 43.6494 17.8443 43.5729 17.6598C43.4963 17.4752 43.3609 17.3211 43.1878 17.2214L39.3484 15.0014V5.78315C39.3484 5.62398 39.3065 5.46761 39.227 5.32974C39.1475 5.19186 39.033 5.07733 38.8953 4.99764L30.448 0.121429C30.3102 0.0418794 30.1539 0 29.9948 0C29.8357 0 29.6794 0.0418794 29.5416 0.121429L21.0944 4.99764C20.9566 5.07733 20.8422 5.19186 20.7626 5.32974C20.6831 5.46761 20.6412 5.62398 20.6412 5.78315V15.0014L16.8018 17.2178C16.6287 17.3175 16.4933 17.4716 16.4168 17.6561C16.3402 17.8407 16.3268 18.0454 16.3787 18.2384C16.4305 18.4314 16.5446 18.6018 16.7034 18.7232C16.8621 18.8446 17.0564 18.9089 17.2562 18.9084ZM34.9 12.4298C34.7969 12.3703 34.683 12.3317 34.5649 12.3162C34.4469 12.3006 34.3269 12.3086 34.2119 12.3394C34.0968 12.3703 33.989 12.4235 33.8946 12.496C33.8001 12.5685 33.7209 12.659 33.6613 12.7621C33.6018 12.8653 33.5632 12.9791 33.5477 13.0972C33.5322 13.2153 33.5401 13.3353 33.571 13.4503C33.6018 13.5653 33.655 13.6731 33.7276 13.7676C33.8001 13.862 33.8905 13.9413 33.9937 14.0008L36.6233 15.5199L30.9012 18.8202V11.1826L35.5997 8.47081L37.5333 7.35176V13.9537L34.9 12.4298ZM29.9948 1.95227L36.6294 5.78315L29.9948 9.61282L23.3603 5.78315L29.9948 1.95227ZM22.4539 7.35176L24.3875 8.47081L29.086 11.1826V18.8202L23.3675 15.5187L25.9972 13.9996C26.1003 13.9401 26.1907 13.8608 26.2633 13.7664C26.3358 13.6719 26.389 13.5641 26.4199 13.4491C26.4507 13.3341 26.4586 13.2141 26.4431 13.096C26.4276 12.9779 26.389 12.8641 26.3295 12.7609C26.27 12.6578 26.1907 12.5673 26.0963 12.4948C26.0018 12.4223 25.894 12.3691 25.779 12.3382C25.664 12.3073 25.544 12.2994 25.4259 12.3149C25.3078 12.3305 25.194 12.3691 25.0908 12.4286L22.4539 13.9537V7.35176Z" fill="white"/>
<path d="M22.2385 35.0187C22.3757 35.0985 22.5317 35.1402 22.6904 35.1395C22.8903 35.14 23.0846 35.0745 23.2433 34.9531C23.402 34.8317 23.5162 34.6612 23.568 34.4683C23.6198 34.2753 23.6064 34.0706 23.5299 33.886C23.4534 33.7014 23.318 33.5473 23.1448 33.4476L19.6995 31.4609V22.268C19.6994 22.1088 19.6576 21.9525 19.578 21.8146C19.4985 21.6767 19.3841 21.5622 19.2463 21.4825L10.799 16.6051C10.6612 16.5255 10.5049 16.4836 10.3458 16.4836C10.1867 16.4836 10.0304 16.5255 9.89265 16.6051L1.44539 21.4765C1.30671 21.5567 1.19173 21.6721 1.11214 21.8112C1.03254 21.9502 0.991163 22.1078 0.992207 22.268V31.9975C0.992194 32.1565 1.03407 32.3127 1.11363 32.4504C1.19319 32.5881 1.30761 32.7024 1.44539 32.7818L9.89265 37.6592C10.0303 37.7391 10.1867 37.7812 10.3458 37.7812C10.505 37.7812 10.6614 37.7391 10.799 37.6592L18.7991 33.0404L22.2385 35.0187ZM10.3458 18.4311L16.9804 22.262L10.3458 26.0916L3.71128 22.268L10.3458 18.4311ZM2.80493 23.8318L4.73849 24.9496L9.43947 27.6627V35.2978L2.80493 31.4669V23.8318ZM11.2522 35.2978V27.6627L15.9508 24.9496L17.8843 23.8318V30.4144L14.7918 28.6294C14.5835 28.5092 14.336 28.4767 14.1037 28.5391C13.8714 28.6014 13.6733 28.7534 13.5531 28.9618C13.4329 29.1701 13.4004 29.4176 13.4628 29.6499C13.5251 29.8822 13.6771 30.0803 13.8855 30.2005L16.984 31.989L11.2522 35.2978Z" fill="white"/>
<path d="M58.546 21.4766L50.0988 16.5992C49.961 16.5197 49.8047 16.4778 49.6456 16.4778C49.4865 16.4778 49.3302 16.5197 49.1924 16.5992L40.7512 21.4766C40.6134 21.5563 40.499 21.6709 40.4195 21.8087C40.3399 21.9466 40.298 22.103 40.298 22.2621V31.4611L36.8526 33.4502C36.6795 33.5499 36.5441 33.704 36.4676 33.8886C36.391 34.0732 36.3776 34.2779 36.4295 34.4708C36.4813 34.6638 36.5954 34.8343 36.7541 34.9557C36.9128 35.0771 37.1072 35.1426 37.307 35.1421C37.4657 35.1428 37.6218 35.101 37.759 35.0213L41.1983 33.0369L49.1985 37.6557C49.3361 37.7357 49.4925 37.7777 49.6516 37.7777C49.8108 37.7777 49.9671 37.7357 50.1048 37.6557L58.5521 32.7783C58.6891 32.698 58.8025 32.5829 58.881 32.4449C58.9595 32.3068 59.0003 32.1504 58.9992 31.9916V22.2682C59.0003 22.108 58.9589 21.9504 58.8793 21.8113C58.7997 21.6723 58.6847 21.5568 58.546 21.4766ZM49.6456 18.4313L56.2801 22.2621L49.6456 26.0918L43.011 22.2682L49.6456 18.4313ZM46.431 28.9607C46.3716 28.8577 46.2924 28.7674 46.198 28.6949C46.1036 28.6225 45.9959 28.5694 45.8809 28.5386C45.766 28.5079 45.6461 28.5001 45.5282 28.5157C45.4102 28.5313 45.2965 28.57 45.1936 28.6296L42.1047 30.4145V23.832L44.0382 24.9498L48.7368 27.6628V35.298L43.0026 31.988L46.1011 30.1994C46.2041 30.1398 46.2944 30.0604 46.3667 29.9659C46.439 29.8713 46.492 29.7634 46.5226 29.6484C46.5533 29.5334 46.561 29.4135 46.5452 29.2955C46.5295 29.1775 46.4907 29.0637 46.431 28.9607ZM50.5483 35.298V27.6628L55.2529 24.9498L57.1865 23.832V31.4671L50.5483 35.298Z" fill="white"/>
</svg>
