<svg width="46" height="46" viewBox="0 0 46 46" fill="none" xmlns="http://www.w3.org/2000/svg">
<path d="M16.8077 0H4.42308C3.25044 0.00140464 2.12622 0.467857 1.29704 1.29704C0.467857 2.12622 0.00140464 3.25043 0 4.42308V16.8077C0.00140464 17.9803 0.467857 19.1045 1.29704 19.9337C2.12622 20.7629 3.25044 21.2294 4.42308 21.2308H16.8077C17.9803 21.2294 19.1045 20.7629 19.9337 19.9337C20.7629 19.1045 21.2294 17.9803 21.2308 16.8077V4.42308C21.2294 3.25043 20.7629 2.12622 19.9337 1.29704C19.1045 0.467857 17.9803 0.00140464 16.8077 0ZM19.4615 16.8077C19.4615 17.5115 19.1819 18.1866 18.6842 18.6842C18.1866 19.1819 17.5115 19.4615 16.8077 19.4615H4.42308C3.71923 19.4615 3.04422 19.1819 2.54652 18.6842C2.04883 18.1866 1.76923 17.5115 1.76923 16.8077V4.42308C1.76923 3.71923 2.04883 3.04422 2.54652 2.54652C3.04422 2.04883 3.71923 1.76923 4.42308 1.76923H16.8077C17.5115 1.76923 18.1866 2.04883 18.6842 2.54652C19.1819 3.04422 19.4615 3.71923 19.4615 4.42308V16.8077ZM41.5769 0H29.1923C28.0197 0.00140464 26.8955 0.467857 26.0663 1.29704C25.2371 2.12622 24.7706 3.25043 24.7692 4.42308V16.8077C24.7706 17.9803 25.2371 19.1045 26.0663 19.9337C26.8955 20.7629 28.0197 21.2294 29.1923 21.2308H41.5769C42.7496 21.2294 43.8738 20.7629 44.703 19.9337C45.5321 19.1045 45.9986 17.9803 46 16.8077V4.42308C45.9986 3.25043 45.5321 2.12622 44.703 1.29704C43.8738 0.467857 42.7496 0.00140464 41.5769 0ZM44.2308 16.8077C44.2308 17.5115 43.9512 18.1866 43.4535 18.6842C42.9558 19.1819 42.2808 19.4615 41.5769 19.4615H29.1923C28.4885 19.4615 27.8134 19.1819 27.3158 18.6842C26.8181 18.1866 26.5385 17.5115 26.5385 16.8077V4.42308C26.5385 3.71923 26.8181 3.04422 27.3158 2.54652C27.8134 2.04883 28.4885 1.76923 29.1923 1.76923H41.5769C42.2808 1.76923 42.9558 2.04883 43.4535 2.54652C43.9512 3.04422 44.2308 3.71923 44.2308 4.42308V16.8077ZM16.8077 24.7692H4.42308C3.25044 24.7706 2.12622 25.2371 1.29704 26.0663C0.467857 26.8955 0.00140464 28.0197 0 29.1923V41.5769C0.00140464 42.7496 0.467857 43.8738 1.29704 44.7029C2.12622 45.5321 3.25044 45.9986 4.42308 46H16.8077C17.9803 45.9986 19.1045 45.5321 19.9337 44.7029C20.7629 43.8738 21.2294 42.7496 21.2308 41.5769V29.1923C21.2294 28.0197 20.7629 26.8955 19.9337 26.0663C19.1045 25.2371 17.9803 24.7706 16.8077 24.7692ZM19.4615 41.5769C19.4615 42.2808 19.1819 42.9558 18.6842 43.4535C18.1866 43.9512 17.5115 44.2308 16.8077 44.2308H4.42308C3.71923 44.2308 3.04422 43.9512 2.54652 43.4535C2.04883 42.9558 1.76923 42.2808 1.76923 41.5769V29.1923C1.76923 28.4885 2.04883 27.8134 2.54652 27.3158C3.04422 26.8181 3.71923 26.5385 4.42308 26.5385H16.8077C17.5115 26.5385 18.1866 26.8181 18.6842 27.3158C19.1819 27.8134 19.4615 28.4885 19.4615 29.1923V41.5769ZM35.3846 24.7692C33.2851 24.7692 31.2327 25.3918 29.487 26.5582C27.7413 27.7247 26.3807 29.3826 25.5773 31.3223C24.7738 33.262 24.5636 35.3964 24.9732 37.4556C25.3828 39.5148 26.3938 41.4062 27.8784 42.8908C29.363 44.3754 31.2545 45.3864 33.3137 45.796C35.3728 46.2056 37.5072 45.9954 39.4469 45.1919C41.3867 44.3885 43.0445 43.0279 44.211 41.2822C45.3774 39.5365 46 37.4841 46 35.3846C45.997 32.5702 44.8776 29.8719 42.8875 27.8818C40.8974 25.8917 38.1991 24.7723 35.3846 24.7692ZM35.3846 44.2308C33.635 44.2308 31.9247 43.7119 30.47 42.7399C29.0152 41.7679 27.8814 40.3863 27.2118 38.7699C26.5423 37.1535 26.3671 35.3748 26.7084 33.6588C27.0498 31.9428 27.8923 30.3666 29.1294 29.1294C30.3666 27.8923 31.9428 27.0498 33.6588 26.7084C35.3748 26.3671 37.1535 26.5423 38.7699 27.2118C40.3863 27.8814 41.7679 29.0152 42.7399 30.47C43.712 31.9247 44.2308 33.635 44.2308 35.3846C44.2282 37.73 43.2954 39.9785 41.6369 41.6369C39.9785 43.2954 37.73 44.2282 35.3846 44.2308Z" fill="white"/>
</svg>
