<svg width="46" height="46" viewBox="0 0 46 46" fill="none" xmlns="http://www.w3.org/2000/svg">
<path d="M18.6621 34.3113L13.3576 39.6158C11.1584 41.815 7.59708 41.815 5.39978 39.6163C3.20204 37.4185 3.20204 33.8568 5.39934 31.6595L16.0102 21.0487C18.2075 18.8513 21.7692 18.8513 23.9665 21.0487C24.699 21.7812 25.8867 21.7812 26.6192 21.0487C27.3517 20.3162 27.3517 19.1285 26.6192 18.396C22.9568 14.7336 17.0199 14.7336 13.3576 18.396L2.74678 29.0068C-0.915592 32.6692 -0.915592 38.606 2.74678 42.2684C6.4087 45.9327 12.346 45.9327 16.0103 42.2684L21.3148 36.9639C22.0473 36.2314 22.0473 35.0437 21.3148 34.3112C20.5823 33.5787 19.3946 33.5788 18.6621 34.3113Z" fill="#FEC201"/>
<path d="M42.2687 2.74678C38.6063 -0.915592 32.6675 -0.915592 29.0052 2.74678L22.6409 9.11103C21.9084 9.84353 21.9084 11.0312 22.6409 11.7637C23.3734 12.4962 24.5611 12.4962 25.2936 11.7637L31.6578 5.39943C33.8551 3.20204 37.4187 3.20204 39.616 5.39943C41.8133 7.59673 41.8133 11.1584 39.616 13.3557L27.9454 25.0264C25.748 27.2238 22.1864 27.2238 19.9891 25.0264C19.2566 24.2939 18.069 24.2939 17.3365 25.0264C16.604 25.7589 16.604 26.9466 17.3365 27.6791C20.9988 31.3415 26.9357 31.3415 30.5981 27.6791L42.2687 16.0085C45.9311 12.3461 45.9311 6.40914 42.2687 2.74678Z" fill="#FEC201"/>
</svg>
