<svg width="45" height="45" viewBox="0 0 45 45" fill="none" xmlns="http://www.w3.org/2000/svg">
<mask id="mask0_317_2269" style="mask-type:luminance" maskUnits="userSpaceOnUse" x="0" y="0" width="45" height="45">
<path d="M0 -0.00012207H44.6666V44.6665H0V-0.00012207Z" fill="white"/>
</mask>
<g mask="url(#mask0_317_2269)">
<path d="M17.8518 5.14097C17.8518 6.04818 17.1162 6.78369 16.209 6.78369C15.3018 6.78369 14.5664 6.04818 14.5664 5.14097C14.5664 4.23377 15.3018 3.49825 16.209 3.49825C17.1162 3.49825 17.8518 4.23377 17.8518 5.14097Z" fill="black" stroke="white" stroke-width="1.30859" stroke-miterlimit="10" stroke-linecap="round" stroke-linejoin="round"/>
<path d="M34.301 27.6087C34.301 28.5159 33.5655 29.2515 32.6583 29.2515C31.7511 29.2515 31.0156 28.5159 31.0156 27.6087C31.0156 26.7015 31.7511 25.966 32.6583 25.966C33.5655 25.966 34.301 26.7015 34.301 27.6087Z" fill="black" stroke="white" stroke-width="1.30859" stroke-miterlimit="10" stroke-linecap="round" stroke-linejoin="round"/>
<path d="M9.17357 39.3075C12.7556 42.2471 17.3386 44.012 22.334 44.012C22.7121 44.012 23.0885 44.0021 23.4622 43.9813L22.9229 42.6721C22.577 41.8326 22.8585 40.8681 23.5937 40.3435C24.1078 39.9789 24.4122 39.3873 24.4122 38.7569C24.3689 38.3807 24.5983 37.5227 23.8855 36.7624L22.8688 35.6783C22.2448 35.0129 22.1665 34.0025 22.6806 33.249L22.9535 32.8491C23.6837 31.7776 23.1831 30.3054 21.9522 29.9011L19.0006 28.9322C18.7294 28.843 18.5016 28.6585 18.3585 28.4117L16.3343 24.9297C15.894 24.1706 14.8026 24.1563 14.3415 24.9036L13.8572 25.6888C13.6428 26.0355 13.2674 26.2408 12.8694 26.2408C12.1064 26.2408 11.5528 25.5202 11.7438 24.7857L12.792 20.7732C12.8748 20.4535 13.0909 20.1843 13.3844 20.0331L15.5203 18.9336C16.0017 18.6869 16.2355 18.1483 16.1226 17.6487C15.9246 16.7563 15.206 16.0729 14.3056 15.9189C13.2152 15.6912 12.5168 15.7402 11.643 15.2094L8.54361 13.3283C7.7773 12.8628 7.21268 12.1271 6.96239 11.2664L6.53204 9.78869C3.43984 13.4138 1.57422 18.1151 1.57422 23.2522C1.57422 28.7798 3.73497 33.8022 7.25744 37.5224" fill="black"/>
<path d="M9.17357 39.3075C12.7556 42.2471 17.3386 44.012 22.334 44.012C22.7121 44.012 23.0885 44.0021 23.4622 43.9813L22.9229 42.6721C22.577 41.8326 22.8585 40.8681 23.5937 40.3435C24.1078 39.9789 24.4122 39.3873 24.4122 38.7569C24.3689 38.3807 24.5983 37.5227 23.8855 36.7624L22.8688 35.6783C22.2448 35.0129 22.1665 34.0025 22.6806 33.249L22.9535 32.8491C23.6837 31.7776 23.1831 30.3054 21.9522 29.9011L19.0006 28.9322C18.7294 28.843 18.5017 28.6585 18.3585 28.4117L16.3343 24.9297C15.894 24.1706 14.8026 24.1563 14.3415 24.9036L13.8572 25.6888C13.6428 26.0355 13.2674 26.2408 12.8694 26.2408C12.1064 26.2408 11.5528 25.5202 11.7438 24.7857L12.792 20.7732C12.8748 20.4535 13.0909 20.1843 13.3844 20.0331L15.5203 18.9336C16.0017 18.6869 16.2355 18.1483 16.1226 17.6487C15.9246 16.7563 15.206 16.0729 14.3056 15.9189C13.2152 15.6912 12.5168 15.7402 11.643 15.2094L8.54361 13.3283C7.7773 12.8628 7.21268 12.1271 6.96239 11.2664L6.53204 9.78869C3.43984 13.4138 1.57422 18.1151 1.57422 23.2522C1.57422 28.7798 3.73497 33.8022 7.25744 37.5224" stroke="white" stroke-width="1.30859" stroke-miterlimit="10" stroke-linecap="round" stroke-linejoin="round"/>
<path d="M16.2233 0.653979C13.6068 0.64447 11.5752 2.91366 11.7311 5.52561C11.8902 8.1913 13.6606 10.5914 14.9263 11.9837C15.612 12.738 16.7989 12.7402 17.4848 11.986C18.8112 10.5275 20.6937 7.96072 20.6937 5.14106C20.6937 2.66843 18.6938 0.662965 16.2233 0.653979Z" fill="black" stroke="white" stroke-width="1.30859" stroke-miterlimit="10" stroke-linecap="round" stroke-linejoin="round"/>
<path d="M38.229 9.90308L37.3853 11.4033C37.0646 11.9763 36.4682 12.3747 35.7816 12.4297C35.0955 12.4847 34.4841 12.8845 34.159 13.4905L33.3865 14.9303C33.0091 15.6336 32.2537 16.0495 31.4568 15.9928C30.9744 15.9606 30.8835 15.945 30.6536 15.945C29.6046 15.945 28.5987 16.3836 27.8838 17.1625C26.4733 18.7025 27.1514 20.3371 25.9902 21.8799L24.2289 24.2301C23.8192 24.7775 23.9363 25.5546 24.4901 25.9563L26.0164 27.0629C26.3125 27.2772 26.689 27.3484 27.0437 27.2565C27.5436 27.1319 27.9304 27.031 28.2382 26.9492C28.5931 24.8053 30.4152 23.1135 32.6748 23.1217C35.1454 23.1307 37.1453 25.1361 37.1453 27.6088C37.1453 28.1301 37.0806 28.6427 36.9673 29.1414C36.9826 29.1527 36.9983 29.1646 37.0144 29.1772L41.0348 32.2693C42.3522 29.5428 43.0906 26.483 43.0906 23.2522C43.0906 18.1692 41.2626 13.5121 38.229 9.90308Z" fill="black" stroke="white" stroke-width="1.30859" stroke-miterlimit="10" stroke-linecap="round" stroke-linejoin="round"/>
<path d="M30.6997 4.24788C28.1403 3.11926 25.3101 2.49218 22.3332 2.49218C21.5193 2.49218 20.7165 2.53982 19.9271 2.63089C20.4113 3.34731 20.6944 4.21098 20.6944 5.14086C20.6944 7.96053 18.8117 10.5273 17.4854 11.9858C16.7995 12.7399 15.6127 12.7378 14.9269 11.9834C13.6612 10.5911 11.8907 8.1911 11.7317 5.52542C11.7292 5.48468 11.7289 5.44437 11.7275 5.40389C9.76313 6.57377 8.00717 8.05728 6.53125 9.78759V9.78846L6.9616 11.2661C7.21198 12.1269 7.77651 12.8626 8.54282 13.3281L11.6422 15.2092C12.516 15.74 13.2144 15.6911 14.3048 15.9188C15.2053 16.0727 15.9238 16.7561 16.1218 17.6485C16.2347 18.1482 16.0009 18.6866 15.5195 18.9334L13.3837 20.0328C13.0901 20.1842 12.874 20.4534 12.7912 20.7731L11.743 24.7855C11.5521 25.52 12.1056 26.2405 12.8686 26.2405C13.2666 26.2405 13.6421 26.0352 13.8564 25.6886L14.3408 24.9034C14.8019 24.156 15.8932 24.1704 16.3335 24.9295L18.3577 28.4116C18.5009 28.6583 18.7286 28.8429 18.9998 28.932L21.9514 29.9009C23.1823 30.3052 23.6829 31.7774 22.9527 32.8489L22.6798 33.2487C22.1657 34.0024 22.244 35.0127 22.8681 35.6781L23.8847 36.7623C24.5975 37.5225 24.3681 38.3805 24.4114 38.7568C24.4114 39.3871 24.1071 39.9787 23.5929 40.3433C22.8577 40.868 22.5763 41.8324 22.9221 42.6719L23.4614 43.9812C31.2125 43.566 37.8353 38.8991 41.0363 32.269L37.0159 29.1769C36.9997 29.1644 36.9841 29.1526 36.9688 29.1412C36.4693 31.3394 35.019 33.2647 33.9378 34.4535C33.252 35.2077 32.065 35.2054 31.3794 34.4512C30.1137 33.0589 28.3432 30.6588 28.1841 27.9931C28.1629 27.6369 28.1836 27.2875 28.2397 26.949C27.9319 27.0307 27.5451 27.1317 27.0452 27.2563C26.6905 27.3481 26.3141 27.277 26.0179 27.0627L24.4916 25.956C23.9378 25.5544 23.8207 24.7773 24.2305 24.2298L25.9917 21.8797C27.1528 20.3369 26.4748 18.7023 27.8853 17.1623C28.6003 16.3833 29.6061 15.9449 30.6551 15.9449C30.8849 15.9449 30.9758 15.9603 31.4583 15.9926C32.2552 16.0493 33.0106 15.6333 33.3879 14.93L34.1605 13.4902C34.4856 12.8842 35.097 12.4844 35.7832 12.4296C36.4698 12.3744 37.0662 11.9761 37.3868 11.403L38.2305 9.90283C36.7829 8.18002 35.0599 6.69678 33.1299 5.51896" fill="black"/>
<path d="M30.6997 4.24788C28.1403 3.11926 25.3101 2.49218 22.3332 2.49218C21.5193 2.49218 20.7165 2.53982 19.9271 2.63089C20.4113 3.34731 20.6944 4.21098 20.6944 5.14086C20.6944 7.96053 18.8117 10.5273 17.4854 11.9858C16.7995 12.7399 15.6127 12.7378 14.9269 11.9834C13.6612 10.5912 11.8907 8.19111 11.7317 5.52542C11.7292 5.48468 11.7289 5.44437 11.7275 5.40389C9.76313 6.57377 8.00717 8.05728 6.53125 9.78759V9.78846L6.9616 11.2661C7.21198 12.1269 7.77651 12.8626 8.54282 13.3281L11.6422 15.2092C12.516 15.74 13.2144 15.6911 14.3048 15.9188C15.2053 16.0727 15.9238 16.7561 16.1218 17.6485C16.2347 18.1482 16.0009 18.6866 15.5195 18.9334L13.3837 20.0328C13.0901 20.1842 12.874 20.4534 12.7912 20.773L11.743 24.7855C11.5521 25.52 12.1056 26.2405 12.8686 26.2405C13.2666 26.2405 13.6421 26.0352 13.8564 25.6886L14.3408 24.9034C14.8019 24.156 15.8932 24.1704 16.3335 24.9295L18.3577 28.4116C18.5009 28.6583 18.7286 28.8429 18.9998 28.932L21.9514 29.9009C23.1823 30.3052 23.6829 31.7774 22.9527 32.8489L22.6798 33.2487C22.1657 34.0024 22.244 35.0127 22.8681 35.6781L23.8847 36.7623C24.5975 37.5225 24.3681 38.3805 24.4114 38.7568C24.4114 39.3871 24.1071 39.9787 23.5929 40.3433C22.8577 40.868 22.5763 41.8324 22.9221 42.6719L23.4614 43.9812C31.2125 43.566 37.8353 38.8991 41.0363 32.269L37.0159 29.1769C36.9997 29.1644 36.9841 29.1526 36.9688 29.1412C36.4693 31.3394 35.019 33.2647 33.9378 34.4535C33.252 35.2077 32.065 35.2054 31.3794 34.4512C30.1137 33.0589 28.3432 30.6588 28.1841 27.9931C28.1629 27.6369 28.1836 27.2875 28.2397 26.949C27.9319 27.0307 27.5451 27.1317 27.0452 27.2563C26.6905 27.3481 26.3141 27.277 26.0179 27.0627L24.4916 25.956C23.9378 25.5544 23.8207 24.7773 24.2305 24.2298L25.9917 21.8797C27.1528 20.3369 26.4748 18.7023 27.8853 17.1623C28.6003 16.3833 29.6061 15.9449 30.6551 15.9449C30.8849 15.9449 30.9758 15.9603 31.4583 15.9926C32.2552 16.0493 33.0106 15.6333 33.3879 14.93L34.1605 13.4902C34.4856 12.8842 35.097 12.4844 35.7832 12.4295C36.4698 12.3744 37.0662 11.9761 37.3868 11.403L38.2305 9.90283C36.7829 8.18002 35.0599 6.69678 33.1299 5.51896" stroke="white" stroke-width="1.30859" stroke-miterlimit="10" stroke-linecap="round" stroke-linejoin="round"/>
<path d="M32.6764 23.1218C30.0599 23.1122 28.0283 25.3814 28.1842 27.9933C28.3433 30.659 30.1138 33.0591 31.3794 34.4515C32.0651 35.2057 33.252 35.208 33.9379 34.4538C35.2643 32.9953 37.1468 30.4285 37.1468 27.6088C37.1468 25.1362 35.1469 23.1307 32.6764 23.1218Z" fill="black" stroke="white" stroke-width="1.30859" stroke-miterlimit="10" stroke-linecap="round" stroke-linejoin="round"/>
</g>
</svg>
