<svg width="499" height="500" viewBox="0 0 499 500" fill="none" xmlns="http://www.w3.org/2000/svg">
<path d="M79.4 153.8C120.49 153.8 153.8 120.49 153.8 79.4C153.8 38.31 120.49 5 79.4 5C38.31 5 5 38.31 5 79.4C5 120.49 38.31 153.8 79.4 153.8Z" stroke="white" stroke-width="10" stroke-miterlimit="10" stroke-linecap="round" stroke-linejoin="round"/>
<path d="M79.4008 317.4C107.07 317.4 129.501 294.969 129.501 267.3C129.501 239.63 107.07 217.2 79.4008 217.2C51.7313 217.2 29.3008 239.63 29.3008 267.3C29.3008 294.969 51.7313 317.4 79.4008 317.4Z" stroke="white" stroke-width="10" stroke-miterlimit="10" stroke-linecap="round" stroke-linejoin="round"/>
<path d="M203.799 431.7C231.469 431.7 253.899 409.269 253.899 381.6C253.899 353.931 231.469 331.5 203.799 331.5C176.13 331.5 153.699 353.931 153.699 381.6C153.699 409.269 176.13 431.7 203.799 431.7Z" stroke="white" stroke-width="10" stroke-miterlimit="10" stroke-linecap="round" stroke-linejoin="round"/>
<path d="M203.801 250C222.578 250 237.801 234.778 237.801 216C237.801 197.222 222.578 182 203.801 182C185.023 182 169.801 197.222 169.801 216C169.801 234.778 185.023 250 203.801 250Z" stroke="white" stroke-width="10" stroke-miterlimit="10" stroke-linecap="round" stroke-linejoin="round"/>
<path d="M79.3984 153.8V217.1" stroke="white" stroke-width="10" stroke-miterlimit="10" stroke-linecap="round" stroke-linejoin="round"/>
<path d="M119.5 297.3L168.3 346.1" stroke="white" stroke-width="10" stroke-miterlimit="10" stroke-linecap="round" stroke-linejoin="round"/>
<path d="M267.202 133.8C294.871 133.8 317.302 111.37 317.302 83.7001C317.302 56.0306 294.871 33.6001 267.202 33.6001C239.532 33.6001 217.102 56.0306 217.102 83.7001C217.102 111.37 239.532 133.8 267.202 133.8Z" stroke="white" stroke-width="10" stroke-miterlimit="10" stroke-linecap="round" stroke-linejoin="round"/>
<path d="M381.6 258.2C409.269 258.2 431.7 235.769 431.7 208.1C431.7 180.431 409.269 158 381.6 158C353.931 158 331.5 180.431 331.5 208.1C331.5 235.769 353.931 258.2 381.6 258.2Z" stroke="white" stroke-width="10" stroke-miterlimit="10" stroke-linecap="round" stroke-linejoin="round"/>
<path d="M153.801 83.7H217.101" stroke="white" stroke-width="10" stroke-miterlimit="10" stroke-linecap="round" stroke-linejoin="round"/>
<path d="M297.301 123.8L346.101 172.7" stroke="white" stroke-width="10" stroke-miterlimit="10" stroke-linecap="round" stroke-linejoin="round"/>
<path d="M304.199 484.9L314.299 495" stroke="white" stroke-width="10" stroke-miterlimit="10" stroke-linecap="round" stroke-linejoin="round"/>
<path d="M237.699 418.5L278.399 459.1" stroke="white" stroke-width="10" stroke-miterlimit="10" stroke-linecap="round" stroke-linejoin="round"/>
<path d="M483.898 310L493.998 320.1" stroke="white" stroke-width="10" stroke-miterlimit="10" stroke-linecap="round" stroke-linejoin="round"/>
<path d="M417.5 243.5L458.1 284.2" stroke="white" stroke-width="10" stroke-miterlimit="10" stroke-linecap="round" stroke-linejoin="round"/>
<path d="M203.801 331.5V250" stroke="white" stroke-width="10" stroke-miterlimit="10" stroke-linecap="round" stroke-linejoin="round"/>
<path d="M381.602 407.7C400.379 407.7 415.602 392.478 415.602 373.7C415.602 354.922 400.379 339.7 381.602 339.7C362.824 339.7 347.602 354.922 347.602 373.7C347.602 392.478 362.824 407.7 381.602 407.7Z" stroke="white" stroke-width="10" stroke-miterlimit="10" stroke-linecap="round" stroke-linejoin="round"/>
<path d="M381.602 258.3V339.7" stroke="white" stroke-width="10" stroke-miterlimit="10" stroke-linecap="round" stroke-linejoin="round"/>
</svg>
