<svg width="51" height="52" viewBox="0 0 51 52" fill="none" xmlns="http://www.w3.org/2000/svg">
<path d="M49.7679 9.81917C48.8465 6.1007 45.5082 3.48972 41.6772 3.49129C39.068 3.49363 36.611 4.7201 35.0408 6.80409C34.2434 6.38563 33.4203 6.01777 32.5766 5.70285C32.4209 5.5619 32.217 5.4861 32.007 5.49118C27.8209 4.05978 23.2971 3.94305 19.0428 5.15672C18.0283 5.44801 17.0369 5.8145 16.0769 6.25308C14.7071 2.79034 11.2052 0.657402 7.49986 1.02888C3.79448 1.40035 0.785751 4.18598 0.130516 7.8519C-0.52472 11.5177 1.33266 15.1732 4.67995 16.8052C4.70378 16.8183 4.7283 16.8301 4.75331 16.8406C4.92268 16.9217 5.09343 16.9993 5.26886 17.0692C2.69011 22.7415 2.69002 29.2519 5.26886 34.9242C2.19879 36.135 0.134423 39.0456 0.00685336 42.3433C-0.120716 45.641 1.71263 48.7023 4.68005 50.1466C4.70388 50.1597 4.7284 50.1715 4.7534 50.1821C7.01645 51.2764 9.65556 51.2764 11.9186 50.1821C11.9436 50.1715 11.9681 50.1597 11.992 50.1466C13.8538 49.2329 15.3103 47.6607 16.0792 45.7344C18.8836 47.0064 21.9272 47.6658 25.0067 47.6686C25.6502 47.6686 26.2724 47.6393 26.8427 47.5831C33.4564 47.0344 39.4519 43.4791 43.1059 37.9391C46.7599 32.3992 47.6675 25.4882 45.5681 19.1925C48.9564 17.4052 50.6893 13.5376 49.7679 9.81917ZM3.3347 13.4937C3.3347 13.5784 3.3517 13.661 3.356 13.7453C2.26921 12.5298 1.66819 10.9566 1.6676 9.32599C1.66077 6.35369 3.62188 3.73578 6.47628 2.90687C9.33067 2.07796 12.3889 3.2383 13.9751 5.75198C15.5614 8.26558 15.2925 11.5256 13.3157 13.7453C13.32 13.661 13.337 13.5784 13.337 13.4937C13.3348 11.8524 12.5255 10.3172 11.1726 9.38801C11.4954 8.86885 11.6675 8.27027 11.67 7.65899C11.67 5.81763 10.1773 4.32488 8.3359 4.32488C6.49454 4.32488 5.0018 5.81753 5.0018 7.65899C5.00424 8.27027 5.17645 8.86885 5.49919 9.38801C4.14623 10.3172 3.33685 11.8524 3.3347 13.4937ZM10.003 7.65899C10.0019 8.57923 9.25614 9.32501 8.3359 9.32609C7.41517 9.32609 6.6688 8.57971 6.6688 7.65899C6.6688 6.73826 7.41517 5.99189 8.3359 5.99189C9.25663 5.99189 10.003 6.73826 10.003 7.65899ZM5.0018 13.4937C5.00434 12.2741 5.67189 11.153 6.74285 10.5695C7.73009 11.1344 8.94269 11.1342 9.92984 10.5692C11.0005 11.153 11.6677 12.2742 11.6701 13.4937C11.6711 14.1822 11.454 14.8535 11.05 15.411C10.1967 15.7951 9.27167 15.9939 8.336 15.9943C7.40023 15.9939 6.4752 15.7951 5.62197 15.411C5.21787 14.8535 5.00083 14.1822 5.0018 13.4937ZM5.0018 25.9967C5.00473 23.0691 5.65108 20.178 6.89503 17.5279C8.59993 17.8409 10.3603 17.6 11.9186 16.8406C11.9436 16.83 11.9681 16.8182 11.992 16.8052C15.3394 15.1968 17.2005 11.5509 16.5396 7.89644C17.3555 7.51012 18.1971 7.18065 19.0583 6.91027C20.0816 7.82504 20.3015 9.34191 19.5801 10.5096C19.4348 10.7033 19.272 10.8856 19.1105 11.068C18.7998 11.397 18.5224 11.7558 18.2822 12.1393C17.1777 13.9814 17.9843 16.0668 18.6322 17.7429L18.6969 17.9106C18.8852 18.2541 18.9573 18.6493 18.9024 19.0371C18.7059 19.3528 18.4379 19.618 18.1202 19.8112C16.9057 20.7514 15.6912 21.6826 14.4551 22.6171L14.3864 22.6708C13.4122 23.3331 12.5918 24.1969 11.9806 25.2039C11.4475 26.4408 11.2899 27.8073 11.5276 29.1331C11.6326 29.9102 11.6278 30.6983 11.5133 31.4742C11.1788 32.5742 10.6301 33.5971 9.89878 34.4842C8.90772 34.2879 7.88843 34.2816 6.89503 34.4655C5.65108 31.8154 5.00473 28.9242 5.0018 25.9967ZM11.0499 48.7523C9.32413 49.53 7.34758 49.53 5.62178 48.7523C5.21777 48.1948 5.00073 47.5235 5.0017 46.835C5.00424 45.6154 5.67179 44.4943 6.74275 43.9109C7.73 44.4757 8.94259 44.4755 9.92974 43.9105C11.0004 44.4943 11.6676 45.6155 11.67 46.835C11.671 47.5235 11.4539 48.1948 11.0499 48.7523ZM6.6688 41.0003C6.6688 40.0796 7.41517 39.3332 8.3359 39.3332C9.25663 39.3332 10.003 40.0796 10.003 41.0003C10.0019 41.9205 9.25614 42.6663 8.3359 42.6674C7.41517 42.6674 6.6688 41.921 6.6688 41.0003ZM13.3158 47.0866C13.3201 47.0023 13.3371 46.9197 13.3371 46.835C13.3349 45.1937 12.5256 43.6586 11.1727 42.7293C11.4955 42.2102 11.6676 41.6116 11.6701 41.0003C11.6701 39.1589 10.1774 37.6662 8.336 37.6662C6.49464 37.6662 5.0019 39.1589 5.0019 41.0003C5.00434 41.6116 5.17655 42.2102 5.49929 42.7293C4.14642 43.6586 3.33705 45.1938 3.3349 46.835C3.3349 46.9197 3.35189 47.0023 3.35619 47.0866C0.973492 44.411 1.13095 40.3308 3.71272 37.8467C6.2945 35.3626 10.3777 35.3626 12.9595 37.8467C15.5411 40.3308 15.6985 44.4111 13.3158 47.0866ZM25.0066 46.0015C22.078 46.0085 19.1848 45.362 16.5378 44.1088C16.7749 42.8155 16.6952 41.4839 16.3053 40.2281C16.4708 40.1742 16.6455 40.1541 16.8189 40.1691C17.3495 40.3018 17.8386 40.5648 18.2417 40.9344C18.7555 41.3608 19.3394 41.6949 19.9674 41.9217C20.6709 42.1008 21.4028 42.1394 22.1212 42.0357C22.4339 41.999 22.7487 41.9837 23.0635 41.9901C23.152 41.9936 23.2397 42.0092 23.324 42.0365C23.3953 42.0862 23.4572 42.1482 23.5067 42.2196C23.9971 42.926 24.3881 43.6965 24.6686 44.5094C24.8671 45.0038 25.0719 45.5061 25.3174 45.9944C25.2132 45.996 25.1124 46.0015 25.0066 46.0015ZM27.1646 45.8601C26.7843 45.2356 26.4664 44.5752 26.2157 43.8883C25.8789 42.9257 25.4071 42.0158 24.8144 41.1858C24.4346 40.6521 23.8222 40.3325 23.1673 40.3262C22.7709 40.3163 22.3743 40.3325 21.9801 40.3743C21.4741 40.4526 20.958 40.4372 20.4576 40.3286C20.0138 40.152 19.6015 39.9049 19.2366 39.5968C18.6058 39.0402 17.8354 38.6656 17.0078 38.5134C16.5513 38.4676 16.0904 38.53 15.6626 38.6955C14.7585 37.036 13.3205 35.7303 11.5817 34.9902C12.3095 34.0477 12.841 32.9689 13.1446 31.8175C13.2967 30.8837 13.3116 29.9327 13.1889 28.9946C12.9966 27.9794 13.0914 26.9307 13.4628 25.9665C13.9731 25.1788 14.6382 24.5032 15.4176 23.9804L15.473 23.9364C16.7013 23.0093 17.9197 22.0767 19.1282 21.1387C19.7043 20.7767 20.1647 20.2576 20.4555 19.6426C20.6873 18.8648 20.6137 18.0278 20.2496 17.3024L20.1869 17.1412C19.6162 15.6655 19.0262 14.14 19.7152 12.9906C19.9041 12.6991 20.1193 12.4256 20.3582 12.1734C20.5504 11.9568 20.742 11.7395 20.9321 11.4839C21.9469 9.93951 21.9029 7.92907 20.8218 6.43037C23.998 5.75345 27.2912 5.86158 30.4161 6.74529C28.2998 9.35324 27.9527 12.9757 29.5352 15.9381C29.8254 16.4558 30.173 16.9557 30.5092 17.4383C31.7025 19.1526 32.3912 20.2742 31.547 21.6841C31.1004 22.3608 30.4604 22.8872 29.7103 23.1949C28.4196 23.7558 24.9911 25.2454 24.9602 28.0635C24.9492 29.5621 25.906 30.6919 26.7502 31.6882C26.9887 31.9698 27.2268 32.2499 27.4424 32.5397C28.4781 33.9761 28.933 35.7508 28.716 37.5083C28.5852 38.6462 29.1582 39.7495 30.1641 40.2971C31.1255 40.8266 32.3137 40.7088 33.1523 40.0008C33.1698 39.9862 33.2044 39.9544 33.2207 39.939C34.3383 39.1264 35.2776 38.0933 35.9805 36.9036C36.5059 35.7394 36.8068 34.4864 36.8674 33.2105C36.9008 32.0095 37.2033 30.8312 37.7525 29.7624C38.088 29.175 38.665 28.765 39.3301 28.6416C40.1596 28.5268 40.7196 29.0209 41.5661 29.8244C41.8047 30.0507 42.0435 30.2761 42.2963 30.4861C42.8622 30.9461 43.5362 31.2537 44.2546 31.3797C42.0242 39.2271 35.272 44.9483 27.1646 45.8601ZM44.651 29.7461C44.1758 29.6912 43.7262 29.5013 43.3556 29.1989C43.1362 29.0166 42.9255 28.8155 42.7134 28.6145C41.8489 27.794 40.7692 26.77 39.1184 26.9874C37.9545 27.1688 36.9338 27.8636 36.3382 28.8799C35.6468 30.1575 35.2606 31.5778 35.21 33.0296C35.1649 34.1018 34.9236 35.1565 34.4982 36.1415C33.8704 37.145 33.0547 38.0175 32.0957 38.7113C31.7802 38.9895 31.3231 39.0372 30.957 38.8301C30.5455 38.6074 30.3134 38.1546 30.3729 37.6905C30.6355 35.5134 30.0659 33.3175 28.7783 31.5424C28.5443 31.2273 28.2838 30.9197 28.0221 30.6103C27.3017 29.7597 26.6208 28.9563 26.6273 28.078C26.6444 26.5232 28.7742 25.4194 30.3839 24.7194C31.457 24.2813 32.3653 23.5171 32.9805 22.5346C34.4176 20.1349 33.0094 18.1122 31.8775 16.4858C31.5495 16.0153 31.2401 15.5701 30.989 15.1224C29.6534 12.5437 30.1227 9.39915 32.1529 7.32267C32.8416 7.5867 33.5151 7.88902 34.1701 8.22826C32.175 12.3507 33.8991 17.3099 38.0212 19.3057C38.045 19.3188 38.0695 19.3306 38.0945 19.3411C39.941 20.2342 42.0543 20.4052 44.0203 19.8206C44.6722 21.8146 45.0065 23.8986 45.0112 25.9965C45.011 27.2551 44.8904 28.5107 44.651 29.7461ZM44.3913 17.9116C44.3506 17.9299 44.3122 17.9523 44.2711 17.9697L44.2645 17.9706L44.2587 17.9743C42.5614 18.6896 40.6431 18.6669 38.9632 17.9116C38.5592 17.3541 38.3421 16.6828 38.3431 15.9943C38.3456 14.7747 39.0132 13.6536 40.0841 13.0701C41.0714 13.635 42.284 13.6348 43.2711 13.0698C44.3418 13.6536 45.009 14.7748 45.0114 15.9943C45.0124 16.6828 44.7952 17.3541 44.3913 17.9116ZM40.0102 10.1596C40.0102 9.23886 40.7566 8.49249 41.6773 8.49249C42.598 8.49249 43.3444 9.23886 43.3444 10.1596C43.3433 11.0798 42.5976 11.8256 41.6773 11.8267C40.7566 11.8266 40.0102 11.0802 40.0102 10.1596ZM44.514 11.8886C44.8367 11.3694 45.0089 10.7709 45.0114 10.1596C45.0114 8.31823 43.5187 6.82548 41.6773 6.82548C39.8359 6.82548 38.3432 8.31823 38.3432 10.1596C38.3457 10.7709 38.5179 11.3694 38.8406 11.8886C37.4877 12.8178 36.6783 14.3531 36.6762 15.9943C36.6762 16.079 36.6932 16.1616 36.6975 16.2459C34.3148 13.5703 34.4723 9.49009 37.054 7.006C39.6358 4.5219 43.719 4.5219 46.3008 7.006C48.8825 9.49009 49.04 13.5703 46.6573 16.2459C46.6616 16.1616 46.6786 16.079 46.6786 15.9943C46.6763 14.353 45.8669 12.8178 44.514 11.8886Z" fill="white"/>
</svg>
