<svg width="421" height="530" viewBox="0 0 421 530" fill="none" xmlns="http://www.w3.org/2000/svg">
<rect x="4.33022" width="231.708" height="231.708" transform="matrix(0.866044 -0.499967 0.866044 0.499967 11.2724 413.511)" stroke="white" stroke-width="5"/>
<rect x="4.33022" width="231.708" height="231.708" transform="matrix(0.866044 -0.499967 0.866044 0.499967 11.2724 383.511)" fill="white" fill-opacity="0.2" stroke="white" stroke-width="5"/>
<rect x="4.33022" width="231.708" height="231.708" transform="matrix(0.866044 -0.499967 0.866044 0.499967 11.2724 340.511)" fill="white" fill-opacity="0.2" stroke="white" stroke-width="5"/>
<rect x="4.33022" width="231.708" height="231.708" transform="matrix(0.866044 -0.499967 0.866044 0.499967 11.2724 297.511)" fill="white" fill-opacity="0.2" stroke="white" stroke-width="5"/>
<rect x="4.33022" width="231.708" height="231.708" transform="matrix(0.866044 -0.499967 0.866044 0.499967 11.2724 254.511)" fill="white" fill-opacity="0.2" stroke="white" stroke-width="5"/>
<circle cx="5.69231" cy="203.692" r="5.69231" fill="white"/>
<rect x="4.98096" y="208.673" width="1.42308" height="44.8269" fill="url(#paint0_linear_143_42)"/>
<circle cx="153.385" cy="154.692" r="5.69231" fill="white"/>
<rect x="152.673" y="159.673" width="1.42308" height="44.8269" fill="url(#paint1_linear_143_42)"/>
<circle cx="197.385" cy="5.69231" r="5.69231" fill="white"/>
<rect x="196.673" y="10.6731" width="1.42308" height="44.8269" fill="url(#paint2_linear_143_42)"/>
<circle cx="384.692" cy="153.692" r="5.69231" fill="white"/>
<rect x="383.981" y="158.673" width="1.42308" height="44.8269" fill="url(#paint3_linear_143_42)"/>
<circle cx="79.3847" cy="68.6923" r="5.69231" fill="white"/>
<rect x="78.6924" y="74" width="1" height="124" fill="url(#paint4_linear_143_42)"/>
<circle cx="260.385" cy="103.692" r="5.69231" fill="white"/>
<rect x="259.692" y="109" width="1" height="124" fill="url(#paint5_linear_143_42)"/>
<circle cx="317.692" cy="38.6923" r="5.69231" fill="white"/>
<rect x="317" y="44" width="1" height="124" fill="url(#paint6_linear_143_42)"/>
<circle cx="328.385" cy="251.692" r="5.69231" fill="white"/>
<rect x="327.692" y="257" width="1" height="124" fill="url(#paint7_linear_143_42)"/>
<circle cx="142.385" cy="290.692" r="5.69231" fill="white"/>
<rect x="141.692" y="296" width="1" height="124" fill="url(#paint8_linear_143_42)"/>
<defs>
<linearGradient id="paint0_linear_143_42" x1="5.6925" y1="208.673" x2="5.6925" y2="253.5" gradientUnits="userSpaceOnUse">
<stop stop-color="white"/>
<stop offset="1" stop-color="#D9D9D9" stop-opacity="0"/>
</linearGradient>
<linearGradient id="paint1_linear_143_42" x1="153.385" y1="159.673" x2="153.385" y2="204.5" gradientUnits="userSpaceOnUse">
<stop stop-color="white"/>
<stop offset="1" stop-color="#D9D9D9" stop-opacity="0"/>
</linearGradient>
<linearGradient id="paint2_linear_143_42" x1="197.385" y1="10.6731" x2="197.385" y2="55.5" gradientUnits="userSpaceOnUse">
<stop stop-color="white"/>
<stop offset="1" stop-color="#D9D9D9" stop-opacity="0"/>
</linearGradient>
<linearGradient id="paint3_linear_143_42" x1="384.692" y1="158.673" x2="384.692" y2="203.5" gradientUnits="userSpaceOnUse">
<stop stop-color="white"/>
<stop offset="1" stop-color="#D9D9D9" stop-opacity="0"/>
</linearGradient>
<linearGradient id="paint4_linear_143_42" x1="79.1924" y1="74" x2="79.1924" y2="198" gradientUnits="userSpaceOnUse">
<stop stop-color="white"/>
<stop offset="1" stop-color="#D9D9D9" stop-opacity="0"/>
</linearGradient>
<linearGradient id="paint5_linear_143_42" x1="260.192" y1="109" x2="260.192" y2="233" gradientUnits="userSpaceOnUse">
<stop stop-color="white"/>
<stop offset="1" stop-color="#D9D9D9" stop-opacity="0"/>
</linearGradient>
<linearGradient id="paint6_linear_143_42" x1="317.5" y1="44" x2="317.5" y2="168" gradientUnits="userSpaceOnUse">
<stop stop-color="white"/>
<stop offset="1" stop-color="#D9D9D9" stop-opacity="0"/>
</linearGradient>
<linearGradient id="paint7_linear_143_42" x1="328.192" y1="257" x2="328.192" y2="381" gradientUnits="userSpaceOnUse">
<stop stop-color="white"/>
<stop offset="1" stop-color="#D9D9D9" stop-opacity="0"/>
</linearGradient>
<linearGradient id="paint8_linear_143_42" x1="142.192" y1="296" x2="142.192" y2="420" gradientUnits="userSpaceOnUse">
<stop stop-color="white"/>
<stop offset="1" stop-color="#D9D9D9" stop-opacity="0"/>
</linearGradient>
</defs>
</svg>
