<svg width="24" height="23" viewBox="0 0 24 23" fill="none" xmlns="http://www.w3.org/2000/svg">
<path fill-rule="evenodd" clip-rule="evenodd" d="M23.1295 11.2281C23.1295 17.4292 18.0424 22.4561 11.7671 22.4561C5.49188 22.4561 0.404785 17.4292 0.404785 11.2281C0.404785 5.02698 5.49188 0 11.7671 0C18.0424 0 23.1295 5.02698 23.1295 11.2281ZM8.00358 16.0729C10.6929 16.0729 12.8729 13.9038 12.8729 11.2281C12.8729 8.55238 10.6929 6.3833 8.00362 6.3833C5.31434 6.3833 3.13428 8.55238 3.13428 11.2281C3.13428 13.9038 5.31434 16.0729 8.00358 16.0729ZM18.2146 11.228C18.2146 13.7467 17.1246 15.7885 15.78 15.7885C14.4353 15.7885 13.3453 13.7467 13.3453 11.228C13.3453 8.70928 14.4353 6.66748 15.78 6.66748C17.1246 6.66748 18.2146 8.70928 18.2146 11.228ZM19.5435 15.314C20.0164 15.314 20.3998 13.4846 20.3998 11.2279C20.3998 8.97123 20.0164 7.14185 19.5435 7.14185C19.0706 7.14185 18.6873 8.97123 18.6873 11.2279C18.6873 13.4846 19.0706 15.314 19.5435 15.314Z" fill="white"/>
</svg>
