<svg width="28" height="22" viewBox="0 0 28 22" fill="none" xmlns="http://www.w3.org/2000/svg">
<g clip-path="url(#clip0_320_17)">
<path d="M28.0003 19.2306C27.9732 19.3259 27.9433 19.4212 27.9199 19.5172C27.5108 21.2096 25.8015 22.2216 24.1578 21.6971C22.8488 21.279 21.558 20.8018 20.2621 20.3431C20.1722 20.3055 20.0967 20.2397 20.0466 20.1555C19.8107 19.7625 19.5776 19.3665 19.365 18.9602C19.3412 18.9067 19.3289 18.8487 19.3289 18.79C19.3289 18.7313 19.3412 18.6732 19.365 18.6197C22.1999 13.5798 25.0405 8.54259 27.887 3.50809C27.921 3.45596 27.9588 3.40657 28.0003 3.36035V19.2306Z" fill="white"/>
<path d="M9.17966 13.0934C9.17966 15.8576 9.17966 18.6226 9.18478 21.3868C9.18478 21.6084 9.12487 21.7126 8.91814 21.7901C8.10583 22.0945 7.31105 22.0723 6.53307 21.6897C4.90625 20.886 3.2787 20.083 1.66357 19.2519C0.577316 18.6972 0.0104498 17.7701 0.00752783 16.538C-0.00269915 12.0595 -0.00342965 7.58096 0.00533633 3.10246C0.00533633 0.790326 2.34877 -0.640538 4.38832 0.415066C5.48992 0.985343 6.58785 1.56301 7.68214 2.14806C7.8064 2.21835 7.91038 2.3202 7.98384 2.44354C8.34908 3.05814 8.70776 3.67865 9.05256 4.30654C9.13023 4.44906 9.17259 4.60849 9.17601 4.77119C9.18234 7.54575 9.18356 10.3198 9.17966 13.0934Z" fill="white"/>
<path d="M18.3085 17.1305L16.7657 14.4424C15.5049 12.245 14.2433 10.0481 12.981 7.85167C12.9336 7.78773 12.908 7.70997 12.908 7.63006C12.908 7.55014 12.9336 7.47238 12.981 7.40845C14.1795 5.44153 15.3727 3.47166 16.5605 1.49884C17.3479 0.207587 18.7183 -0.280694 20.1567 0.156617C22.2751 0.799287 24.4002 1.40502 26.523 2.02627C26.6004 2.04917 26.6778 2.07576 26.7845 2.10974L18.3085 17.1305Z" fill="white"/>
<path d="M17.0807 19.2425L14.6956 18.4099C13.4749 17.9844 12.255 17.5575 11.0299 17.1379C10.8838 17.0869 10.8108 17.0278 10.8108 16.8535C10.8166 13.7859 10.8183 10.7183 10.8159 7.65075C10.8159 7.60052 10.8239 7.55028 10.8342 7.43652C10.9233 7.58426 10.9803 7.66995 11.0336 7.76155L17.1698 18.4616C17.3933 18.8458 17.3933 18.8458 17.0807 19.2425Z" fill="white"/>
</g>
<defs>
<clipPath id="clip0_320_17">
<rect width="28" height="22" fill="white"/>
</clipPath>
</defs>
</svg>
