<svg width="64" height="56" viewBox="0 0 64 56" fill="none" xmlns="http://www.w3.org/2000/svg">
<path d="M62.9878 46.1883H55.372V26.716H62.9878C63.1202 26.7174 63.2517 26.6926 63.3745 26.6429C63.4973 26.5933 63.6091 26.5197 63.7033 26.4266C63.7975 26.3334 63.8722 26.2225 63.9233 26.1003C63.9743 25.978 64.0006 25.8468 64.0006 25.7144C64.0006 25.5819 63.9743 25.4507 63.9233 25.3285C63.8722 25.2062 63.7975 25.0953 63.7033 25.0021C63.6091 24.909 63.4973 24.8354 63.3745 24.7858C63.2517 24.7361 63.1202 24.7113 62.9878 24.7128H55.1194C54.6553 24.7133 54.2103 24.8978 53.8821 25.226C53.5539 25.5542 53.3693 25.9992 53.3688 26.4633V27.2905H48.7514C48.5445 27.2906 48.3415 27.2345 48.1641 27.1281L35.9151 19.7788C35.178 19.3364 34.3345 19.1026 33.4748 19.1025H25.4203C24.6982 19.1044 23.9863 19.2732 23.3403 19.5959C22.6943 19.9186 22.1318 20.3863 21.6966 20.9625L16.9999 27.1387H10.6318V26.4633C10.6313 25.9992 10.4467 25.5542 10.1185 25.226C9.79028 24.8978 9.3453 24.7133 8.88117 24.7128H1.01285C0.880374 24.7113 0.748923 24.7361 0.626106 24.7858C0.503289 24.8354 0.391546 24.909 0.297346 25.0021C0.203146 25.0953 0.128361 25.2062 0.0773207 25.3285C0.0262808 25.4507 0 25.5819 0 25.7144C0 25.8468 0.0262808 25.978 0.0773207 26.1003C0.128361 26.2225 0.203146 26.3334 0.297346 26.4266C0.391546 26.5197 0.503289 26.5933 0.626106 26.6429C0.748923 26.6926 0.880374 26.7174 1.01285 26.716H8.62863V46.1883H1.01285C0.880374 46.1868 0.748923 46.2117 0.626106 46.2613C0.503289 46.311 0.391546 46.3845 0.297346 46.4777C0.203146 46.5708 0.128361 46.6818 0.0773207 46.804C0.0262808 46.9263 0 47.0574 0 47.1899C0 47.3224 0.0262808 47.4536 0.0773207 47.5758C0.128361 47.6981 0.203146 47.809 0.297346 47.9021C0.391546 47.9953 0.503289 48.0688 0.626106 48.1185C0.748923 48.1682 0.880374 48.193 1.01285 48.1915H8.88117C9.34531 48.191 9.79029 48.0064 10.1185 47.6782C10.4467 47.35 10.6313 46.905 10.6318 46.4409V43.8499H12.1753C12.0775 44.4889 12.165 45.1425 12.4274 45.7334C12.6898 46.3242 13.1161 46.8273 13.6558 47.1832C13.8776 47.3294 14.1484 47.3814 14.4086 47.3279C14.6688 47.2744 14.8971 47.1197 15.0432 46.8978C15.1893 46.676 15.2414 46.4052 15.1878 46.145C15.1343 45.8848 14.9796 45.6566 14.7578 45.5104C14.4538 45.3101 14.2418 44.9973 14.1684 44.6406C14.095 44.284 14.1663 43.9129 14.3666 43.6088L15.269 42.2389C15.4701 41.9368 15.7827 41.7266 16.1383 41.6544C16.494 41.5821 16.8638 41.6536 17.1668 41.8532C17.4699 42.0528 17.6816 42.3644 17.7556 42.7197C17.8297 43.075 17.76 43.4451 17.5618 43.7492L16.6593 45.1192C16.1677 45.8672 15.993 46.7796 16.1734 47.6563C16.3537 48.533 16.8745 49.3023 17.6214 49.7955C17.8433 49.9416 18.1141 49.9936 18.3743 49.9401C18.6344 49.8866 18.8627 49.7319 19.0088 49.5101C19.155 49.2882 19.207 49.0174 19.1535 48.7573C19.1 48.4971 18.9453 48.2688 18.7234 48.1227C18.4198 47.9221 18.2081 47.6093 18.1348 47.2528C18.0614 46.8964 18.1324 46.5254 18.3322 46.2212L19.2346 44.8513C19.436 44.5499 19.7484 44.3404 20.1036 44.2684C20.4589 44.1965 20.8282 44.2679 21.1309 44.4672C21.4337 44.6665 21.6453 44.9775 21.7197 45.3323C21.7941 45.687 21.7251 46.0568 21.5279 46.3609L20.6254 47.7309C20.1339 48.4789 19.9592 49.3914 20.1396 50.2681C20.3199 51.1448 20.8407 51.9141 21.5876 52.4073C21.6974 52.4807 21.8207 52.5317 21.9503 52.5573C22.0799 52.5829 22.2133 52.5826 22.3428 52.5564C22.4723 52.5302 22.5953 52.4786 22.7048 52.4047C22.8143 52.3308 22.9081 52.2359 22.9807 52.1256C23.0534 52.0153 23.1035 51.8917 23.1282 51.7619C23.1529 51.6321 23.1517 51.4987 23.1247 51.3694C23.0976 51.2401 23.0452 51.1174 22.9706 51.0084C22.8959 50.8995 22.8004 50.8063 22.6896 50.7344C22.386 50.5338 22.1743 50.221 22.101 49.8645C22.0277 49.5081 22.0987 49.1371 22.2985 48.8329L23.2009 47.4629C23.4011 47.1588 23.7139 46.9467 24.0705 46.8732C24.4271 46.7997 24.7983 46.8709 25.1024 47.0711C25.4065 47.2714 25.6186 47.5842 25.6921 47.9408C25.7655 48.2974 25.6943 48.6685 25.4941 48.9726L24.5903 50.3439C24.0988 51.0919 23.9241 52.0044 24.1045 52.8811C24.2848 53.7578 24.8056 54.5271 25.5525 55.0203C25.7743 55.1643 26.0441 55.2147 26.303 55.1606C26.5619 55.1064 26.7888 54.952 26.9343 54.7311C27.0798 54.5103 27.1321 54.2408 27.0796 53.9816C27.0272 53.7224 26.8744 53.4944 26.6545 53.3474C26.3509 53.1468 26.1392 52.834 26.0659 52.4775C25.9926 52.121 26.0636 51.7501 26.2634 51.4459L27.1658 50.0759C27.3661 49.7718 27.679 49.5598 28.0356 49.4865C28.3922 49.4131 28.7634 49.4845 29.0674 49.6848C29.3715 49.8851 29.5835 50.1979 29.6568 50.5546C29.7302 50.9112 29.6588 51.2823 29.4585 51.5864C29.3736 51.7153 29.3199 51.8624 29.3017 52.0157C29.2981 52.0228 29.2938 52.0295 29.2905 52.0367C29.1774 52.2771 29.1645 52.5525 29.2545 52.8025C29.3446 53.0524 29.5302 53.2563 29.7706 53.3694C30.229 53.5851 30.6974 53.8 31.1636 54.0085C31.6876 54.3199 32.2822 54.4928 32.8914 54.511C33.5006 54.5293 34.1045 54.3922 34.6461 54.1127C35.1878 53.8332 35.6494 53.4204 35.9875 52.9133C36.3257 52.4062 36.5293 51.8215 36.5791 51.214C37.0004 51.3839 37.4504 51.4716 37.9047 51.4723C38.185 51.4722 38.4644 51.4395 38.7373 51.3749C39.509 51.1936 40.1992 50.7623 40.7004 50.1482C41.2017 49.534 41.4859 48.7714 41.5088 47.979C41.8595 48.0921 42.2257 48.1501 42.5942 48.1507C42.8745 48.1504 43.1539 48.1178 43.4267 48.0533C44.2066 47.87 44.903 47.4315 45.4054 46.8074C45.9078 46.1832 46.1874 45.4092 46.1999 44.6081C46.4465 44.6616 46.6981 44.6887 46.9505 44.6888C47.2308 44.6886 47.5101 44.656 47.7829 44.5915C48.4759 44.4282 49.1049 44.0632 49.5905 43.5425C50.076 43.0218 50.3963 42.3689 50.5109 41.6663C50.6254 40.9636 50.5291 40.2427 50.2341 39.5948C49.9391 38.9469 49.4586 38.4009 48.8534 38.026L30.1547 26.3962H30.1538L30.1503 26.3941C30.1446 26.3904 30.1386 26.3877 30.1327 26.3843C29.5179 26.0038 28.784 25.8646 28.0725 25.9935C27.3611 26.1224 26.7227 26.5103 26.2805 27.0823L22.5153 31.9094C22.3037 32.1819 22.0403 32.4098 21.7402 32.58C21.4401 32.7502 21.1093 32.8593 20.7669 32.9011C20.4244 32.9429 20.0771 32.9164 19.7449 32.8234C19.4127 32.7303 19.1022 32.5724 18.8313 32.3588C18.5604 32.1452 18.3345 31.8801 18.1665 31.5788C17.9986 31.2775 17.8919 30.9459 17.8526 30.6031C17.8134 30.2604 17.8424 29.9133 17.9379 29.5818C18.0334 29.2503 18.1936 28.941 18.4092 28.6717L23.2978 22.1656C23.5458 21.8372 23.8665 21.5706 24.2347 21.3867C24.6029 21.2028 25.0087 21.1066 25.4203 21.1056H33.4748C33.9712 21.1056 34.4582 21.2405 34.8838 21.4958L47.1329 28.8452C47.6217 29.1384 48.181 29.2933 48.751 29.2934H53.3684V46.4409C53.3689 46.905 53.5536 47.35 53.8817 47.6782C54.2099 48.0064 54.6549 48.191 55.1191 48.1915H62.9874C63.1199 48.193 63.2513 48.1682 63.3741 48.1185C63.4969 48.0688 63.6087 47.9953 63.7029 47.9021C63.7971 47.809 63.8719 47.6981 63.9229 47.5758C63.974 47.4536 64.0002 47.3224 64.0002 47.1899C64.0002 47.0574 63.974 46.9263 63.9229 46.804C63.8719 46.6818 63.7971 46.5708 63.7029 46.4777C63.6087 46.3845 63.4969 46.311 63.3741 46.2613C63.2513 46.2117 63.1199 46.1868 62.9874 46.1883H62.9878ZM20.4552 34.9249C21.1578 34.925 21.8511 34.7644 22.482 34.4553C23.1129 34.1461 23.6647 33.6968 24.0951 33.1415L27.8597 28.313C28 28.1299 28.2036 28.0057 28.4306 27.9647C28.6576 27.9237 28.8918 27.9689 29.0873 28.0914L29.09 28.0929L29.0917 28.094L47.7978 39.7275C47.9762 39.8379 48.1311 39.9823 48.2537 40.1525C48.3764 40.3228 48.4642 40.5155 48.5123 40.7197C48.5605 40.9238 48.5679 41.1355 48.5342 41.3426C48.5006 41.5496 48.4264 41.7481 48.3161 41.9265C48.2057 42.1049 48.0613 42.2598 47.8911 42.3824C47.7208 42.505 47.5281 42.5929 47.3239 42.641C47.1197 42.6891 46.9081 42.6966 46.701 42.6629C46.4939 42.6292 46.2955 42.5551 46.1171 42.4447L44.4942 41.4849L40.1167 38.6723C39.8977 38.5309 39.6321 38.4806 39.3766 38.532C39.1211 38.5835 38.8957 38.7325 38.7484 38.9475C38.601 39.1625 38.5434 39.4265 38.5877 39.6834C38.632 39.9403 38.7747 40.1697 38.9856 40.3229C39 40.3343 39.0157 40.3459 39.0339 40.3576L43.427 43.1803L43.4415 43.1896C43.8008 43.4129 44.0568 43.7697 44.1533 44.1815C44.2499 44.5934 44.1791 45.0267 43.9566 45.3865C43.734 45.7462 43.3779 46.003 42.9662 46.1005C42.5546 46.1979 42.1211 46.1282 41.7609 45.9064L39.799 44.8028L36.6927 42.7771C36.5825 42.7052 36.4593 42.6557 36.33 42.6315C36.2006 42.6072 36.0678 42.6087 35.9391 42.6358C35.6791 42.6904 35.4514 42.8462 35.3062 43.0687C35.1611 43.2912 35.1102 43.5623 35.1649 43.8223C35.2196 44.0823 35.3753 44.31 35.5978 44.4552L38.7318 46.4988L38.7519 46.5113C38.9303 46.6217 39.0852 46.7661 39.2078 46.9364C39.3304 47.1066 39.4183 47.2993 39.4664 47.5035C39.5145 47.7077 39.522 47.9194 39.4883 48.1265C39.4546 48.3335 39.3804 48.5319 39.2701 48.7103C39.1597 48.8888 39.0153 49.0437 38.8451 49.1663C38.6748 49.2889 38.4821 49.3768 38.2779 49.4249C37.8655 49.5221 37.4314 49.4514 37.0711 49.2285L34.8968 47.8839L33.3627 46.8311C33.1506 46.6858 32.8907 46.6277 32.6369 46.6687C32.3831 46.7098 32.1548 46.8469 31.9992 47.0517C31.8437 47.2564 31.7729 47.5131 31.8015 47.7687C31.83 48.0242 31.9558 48.2589 32.1526 48.4243C32.1719 48.4408 32.1944 48.4577 32.2186 48.4743C32.2222 48.4769 32.2255 48.4798 32.2292 48.4824L33.7829 49.5487L33.8054 49.5626L33.8447 49.5883C34.1983 49.8076 34.4505 50.1582 34.5459 50.5632C34.6413 50.9682 34.5722 51.3946 34.3538 51.7487C34.1306 52.1088 33.7737 52.3656 33.3613 52.4628C32.949 52.5599 32.5149 52.4894 32.1545 52.2668L32.0973 52.2314L32.0359 52.204C31.855 52.1233 31.6735 52.0408 31.4929 51.9584C31.6924 51.3958 31.7391 50.7903 31.6283 50.2037C31.5175 49.6172 31.2532 49.0705 30.8622 48.6194C30.4712 48.1683 29.9676 47.829 29.4027 47.636C28.8379 47.443 28.2319 47.4033 27.6467 47.5209C27.4639 46.6504 26.9445 45.8874 26.2017 45.3981C25.459 44.9088 24.5529 44.7328 23.681 44.9085C23.4982 44.0384 22.9791 43.2756 22.2367 42.7863C21.4943 42.297 20.5887 42.1208 19.717 42.2959C19.5794 41.6441 19.252 41.0475 18.7761 40.5814C18.3001 40.1153 17.6969 39.8004 17.0424 39.6764C16.3878 39.5524 15.7112 39.6249 15.0978 39.8847C14.4844 40.1444 13.9615 40.5799 13.5951 41.1363L13.1275 41.8461H10.6318V29.142H15.9808C15.8049 29.8252 15.7876 30.5395 15.93 31.2304C16.0725 31.9214 16.3709 32.5706 16.8026 33.1285C17.2343 33.6865 17.7878 34.1384 18.4208 34.4497C19.0539 34.761 19.7497 34.9236 20.4551 34.9249H20.4552Z" fill="white"/>
<path d="M32.0486 6.56808C32.1801 6.56808 32.3104 6.54217 32.4319 6.49183C32.5534 6.44149 32.6638 6.36771 32.7568 6.27469C32.8498 6.18168 32.9236 6.07126 32.9739 5.94973C33.0243 5.82821 33.0501 5.69796 33.0501 5.56642V1.01285C33.0516 0.880374 33.0268 0.748923 32.9771 0.626106C32.9275 0.503289 32.8539 0.391546 32.7608 0.297346C32.6676 0.203146 32.5567 0.12836 32.4344 0.0773205C32.3122 0.0262806 32.181 0 32.0485 0C31.9161 0 31.7849 0.0262806 31.6626 0.0773205C31.5404 0.12836 31.4295 0.203146 31.3363 0.297346C31.2432 0.391546 31.1696 0.503289 31.1199 0.626106C31.0703 0.748923 31.0455 0.880374 31.0469 1.01285V5.5663C31.0469 5.69785 31.0728 5.82811 31.1231 5.94965C31.1735 6.0712 31.2473 6.18163 31.3403 6.27466C31.4333 6.36768 31.5437 6.44148 31.6652 6.49182C31.7868 6.54217 31.917 6.56808 32.0486 6.56808Z" fill="white"/>
<path d="M39.2204 9.6752C39.3519 9.67537 39.4822 9.64954 39.6038 9.59921C39.7253 9.54889 39.8357 9.47504 39.9286 9.38192L43.1484 6.16214C43.3363 5.9743 43.4418 5.71953 43.4418 5.45387C43.4418 5.18821 43.3363 4.93342 43.1485 4.74556C42.9606 4.5577 42.7059 4.45216 42.4402 4.45215C42.1745 4.45214 41.9197 4.55766 41.7319 4.7455L38.5121 7.96528C38.372 8.10536 38.2766 8.28384 38.238 8.47814C38.1993 8.67243 38.2192 8.87383 38.295 9.05685C38.3708 9.23988 38.4992 9.39631 38.6639 9.50637C38.8286 9.61644 39.0223 9.67519 39.2204 9.6752Z" fill="white"/>
<path d="M23.9464 9.38199C24.0394 9.475 24.1499 9.54878 24.2714 9.59911C24.3929 9.64944 24.5232 9.67535 24.6547 9.67534C24.7863 9.67533 24.9165 9.64942 25.0381 9.59908C25.1596 9.54873 25.27 9.47494 25.363 9.38193C25.456 9.28891 25.5298 9.17848 25.5801 9.05695C25.6305 8.93542 25.6564 8.80516 25.6564 8.67362C25.6564 8.54208 25.6304 8.41183 25.5801 8.2903C25.5298 8.16878 25.456 8.05836 25.3629 7.96535L22.143 4.74557C22.0503 4.65139 21.9398 4.5765 21.818 4.52522C21.6961 4.47394 21.5653 4.44728 21.4332 4.44678C21.301 4.44629 21.17 4.47196 21.0478 4.52232C20.9256 4.57268 20.8145 4.64674 20.721 4.74022C20.6276 4.8337 20.5536 4.94475 20.5032 5.06698C20.4529 5.18921 20.4272 5.32019 20.4277 5.45238C20.4283 5.58457 20.4549 5.71534 20.5062 5.83717C20.5575 5.959 20.6325 6.06947 20.7266 6.16221L23.9464 9.38199Z" fill="white"/>
<path d="M17.296 15.2982H21.8495C21.982 15.2997 22.1134 15.2748 22.2362 15.2252C22.3591 15.1755 22.4708 15.102 22.565 15.0088C22.6592 14.9157 22.734 14.8047 22.785 14.6825C22.8361 14.5602 22.8623 14.4291 22.8623 14.2966C22.8623 14.1641 22.8361 14.0329 22.785 13.9107C22.734 13.7884 22.6592 13.6775 22.565 13.5844C22.4708 13.4912 22.3591 13.4177 22.2362 13.368C22.1134 13.3183 21.982 13.2935 21.8495 13.295H17.296C17.1636 13.2935 17.0321 13.3183 16.9093 13.368C16.7865 13.4177 16.6747 13.4912 16.5805 13.5844C16.4863 13.6775 16.4116 13.7884 16.3605 13.9107C16.3095 14.0329 16.2832 14.1641 16.2832 14.2966C16.2832 14.4291 16.3095 14.5602 16.3605 14.6825C16.4116 14.8047 16.4863 14.9157 16.5805 15.0088C16.6747 15.102 16.7865 15.1755 16.9093 15.2252C17.0321 15.2748 17.1636 15.2997 17.296 15.2982Z" fill="white"/>
<path d="M41.4668 14.2965C41.4668 14.5622 41.5724 14.8169 41.7602 15.0048C41.9481 15.1926 42.2028 15.2981 42.4685 15.2982H47.0219C47.1544 15.2997 47.2858 15.2748 47.4086 15.2252C47.5315 15.1755 47.6432 15.102 47.7374 15.0088C47.8316 14.9157 47.9064 14.8047 47.9574 14.6825C48.0085 14.5602 48.0348 14.4291 48.0348 14.2966C48.0348 14.1641 48.0085 14.0329 47.9574 13.9107C47.9064 13.7884 47.8316 13.6775 47.7374 13.5844C47.6432 13.4912 47.5315 13.4177 47.4086 13.368C47.2858 13.3183 47.1544 13.2935 47.0219 13.295H42.4685C42.2028 13.295 41.9481 13.4005 41.7603 13.5884C41.5724 13.7762 41.4669 14.0309 41.4668 14.2965Z" fill="white"/>
</svg>
