<svg width="44" height="50" viewBox="0 0 44 50" fill="none" xmlns="http://www.w3.org/2000/svg">
<path d="M41.6642 31.2515C40.7869 30.7454 39.769 30.5378 38.7636 30.6601C37.7582 30.7823 36.8197 31.2277 36.0892 31.9293L33.7961 30.6054C34.5482 28.9359 34.9371 27.1257 34.9371 25.2946C34.9371 23.4635 34.5482 21.6533 33.7961 19.9838L36.0892 18.6599C36.6576 19.2077 37.3562 19.6016 38.119 19.8044C38.5158 19.9112 38.9249 19.9654 39.3358 19.9656C40.3076 19.9639 41.2548 19.6592 42.0453 19.0939C42.8359 18.5286 43.4304 17.7308 43.7462 16.8117C44.062 15.8926 44.0833 14.8978 43.8072 13.966C43.531 13.0342 42.9711 12.2117 42.2055 11.6131C41.4399 11.0145 40.5067 10.6695 39.5358 10.6262C38.5648 10.5829 37.6046 10.8435 36.7888 11.3717C35.9729 11.8998 35.3421 12.6692 34.9842 13.5728C34.6262 14.4763 34.5589 15.469 34.7917 16.4126L32.4944 17.7384C31.425 16.2527 30.0525 15.0107 28.4676 14.0947C26.8826 13.1786 25.1213 12.6093 23.3001 12.4243V9.77549C24.3814 9.4629 25.3135 8.77044 25.925 7.82545C26.5365 6.88046 26.7863 5.74648 26.6284 4.63202C26.4706 3.51757 25.9157 2.49756 25.0658 1.75958C24.2159 1.02159 23.1281 0.615234 22.0026 0.615234C20.877 0.615234 19.7892 1.02159 18.9394 1.75958C18.0895 2.49756 17.5346 3.51757 17.3767 4.63202C17.2189 5.74648 17.4686 6.88046 18.0801 7.82545C18.6916 8.77044 19.6237 9.4629 20.705 9.77549V12.4243C18.8838 12.6093 17.1225 13.1786 15.5376 14.0947C13.9526 15.0107 12.5801 16.2527 11.5107 17.7384L9.21345 16.4121C9.44557 15.4692 9.37792 14.4774 9.01992 13.5747C8.66192 12.672 8.03138 11.9034 7.21609 11.3759C6.40079 10.8484 5.44131 10.5882 4.4712 10.6315C3.5011 10.6749 2.56865 11.0196 1.80366 11.6178C1.03868 12.2159 0.479219 13.0377 0.203171 13.9687C-0.0728763 14.8997 -0.0517763 15.8936 0.263534 16.8121C0.578844 17.7306 1.17267 18.5279 1.96236 19.093C2.75204 19.6581 3.69828 19.963 4.66935 19.9651C5.08023 19.9649 5.4893 19.9107 5.88608 19.804C6.64894 19.6011 7.34752 19.2072 7.91593 18.6594L10.2091 19.9834C9.45695 21.6528 9.06798 23.463 9.06798 25.2941C9.06798 27.1252 9.45695 28.9354 10.2091 30.6049L7.91593 31.9288C7.40213 31.4347 6.78209 31.0647 6.10328 30.8472C5.42447 30.6296 4.70488 30.5703 3.99959 30.6737C3.29431 30.7771 2.62203 31.0405 2.03422 31.4437C1.44641 31.8469 0.958647 32.3793 0.608274 33C0.257901 33.6208 0.0542059 34.3135 0.0127803 35.0251C-0.0286454 35.7368 0.093297 36.4484 0.369273 37.1057C0.645249 37.7629 1.06794 38.3483 1.605 38.817C2.14205 39.2857 2.77922 39.6253 3.46775 39.8098C3.86453 39.9166 4.2736 39.9708 4.68448 39.9711C5.39282 39.9694 6.09152 39.8068 6.72783 39.4956C7.36414 39.1844 7.92143 38.7326 8.35761 38.1745C8.7938 37.6164 9.09749 36.9665 9.24575 36.2738C9.39401 35.5812 9.38296 34.8639 9.21345 34.1761L11.5107 32.8498C12.5801 34.3356 13.9526 35.5775 15.5376 36.4936C17.1225 37.4096 18.8838 37.979 20.705 38.1639V40.8127C19.6237 41.1253 18.6916 41.8178 18.0801 42.7628C17.4686 43.7078 17.2189 44.8418 17.3767 45.9562C17.5346 47.0707 18.0895 48.0907 18.9394 48.8287C19.7892 49.5666 20.877 49.973 22.0026 49.973C23.1281 49.973 24.2159 49.5666 25.0658 48.8287C25.9157 48.0907 26.4706 47.0707 26.6284 45.9562C26.7863 44.8418 26.5365 43.7078 25.925 42.7628C25.3135 41.8178 24.3814 41.1253 23.3001 40.8127V38.1639C25.1213 37.979 26.8826 37.4096 28.4676 36.4936C30.0525 35.5775 31.425 34.3356 32.4944 32.8498L34.7917 34.1761C34.6224 34.8639 34.6115 35.5811 34.7599 36.2736C34.9082 36.9662 35.2119 37.616 35.6481 38.1741C36.0842 38.7321 36.6414 39.1838 37.2776 39.4951C37.9138 39.8064 38.6124 39.9692 39.3206 39.9711C39.7315 39.9708 40.1406 39.9166 40.5374 39.8098C41.4298 39.5706 42.2312 39.0721 42.8404 38.3774C43.4495 37.6828 43.839 36.8231 43.9596 35.9071C44.0802 34.991 43.9265 34.0598 43.518 33.2312C43.1094 32.4025 42.4643 31.7136 41.6642 31.2515ZM37.3219 14.7536C37.4404 14.3125 37.7008 13.9227 38.0628 13.6443C38.4249 13.3659 38.8686 13.2144 39.3253 13.2132C39.5079 13.2134 39.6898 13.2374 39.8662 13.2849C40.263 13.3912 40.6193 13.6128 40.8901 13.9216C41.161 14.2305 41.3342 14.6127 41.3878 15.02C41.4414 15.4272 41.373 15.8413 41.1914 16.2097C41.0097 16.5781 40.7228 16.8844 40.3671 17.0898C40.0113 17.2952 39.6027 17.3905 39.1927 17.3636C38.7828 17.3368 38.3901 17.1889 38.0642 16.9389C37.7383 16.6888 37.4939 16.3477 37.3618 15.9588C37.2298 15.5698 37.216 15.1504 37.3223 14.7536H37.3219ZM6.47565 16.3297C6.30485 16.6255 6.06375 16.8746 5.77369 17.0549C5.48363 17.2353 5.15357 17.3413 4.81275 17.3636C4.47193 17.3859 4.13086 17.3239 3.81976 17.1829C3.50865 17.0419 3.23712 16.8264 3.0292 16.5554C2.82128 16.2844 2.68339 15.9664 2.62776 15.6294C2.57212 15.2924 2.60045 14.9469 2.71023 14.6235C2.82001 14.3 3.00787 14.0087 3.25715 13.7752C3.50643 13.5417 3.80944 13.3733 4.13935 13.2849C4.31574 13.2375 4.49759 13.2134 4.68024 13.2132C5.0446 13.214 5.40236 13.3105 5.71764 13.4931C6.03292 13.6757 6.29463 13.9381 6.47651 14.2538C6.6584 14.5695 6.75406 14.9275 6.75391 15.2919C6.75376 15.6562 6.6578 16.0141 6.47565 16.3297ZM6.6832 35.8347C6.5826 36.2086 6.37945 36.5469 6.09668 36.8114C5.81392 37.076 5.46281 37.2561 5.08302 37.3316C4.70324 37.4071 4.30992 37.3748 3.9475 37.2385C3.58507 37.1022 3.26799 36.8673 3.03208 36.5602C2.79616 36.2532 2.65081 35.8863 2.61245 35.501C2.57409 35.1157 2.64424 34.7273 2.81499 34.3798C2.98574 34.0323 3.25027 33.7394 3.5787 33.5343C3.90714 33.3292 4.28638 33.2201 4.67359 33.2192C4.85624 33.2193 5.03809 33.2434 5.21448 33.2908C5.74654 33.4334 6.20017 33.7815 6.4756 34.2586C6.75103 34.7356 6.8257 35.3026 6.6832 35.8347ZM19.9255 5.28817C19.9255 4.87735 20.0473 4.47576 20.2755 4.13417C20.5037 3.79259 20.8281 3.52635 21.2076 3.36912C21.5872 3.2119 22.0048 3.17075 22.4077 3.25088C22.8106 3.33102 23.1808 3.52883 23.4713 3.81931C23.7617 4.1098 23.9596 4.4799 24.0397 4.88282C24.1199 5.28573 24.0788 5.70337 23.9216 6.08292C23.7643 6.46246 23.4981 6.78686 23.1565 7.0151C22.815 7.24334 22.4134 7.36516 22.0026 7.36516C21.4519 7.36455 20.9239 7.14553 20.5346 6.75615C20.1452 6.36678 19.9261 5.83884 19.9255 5.28817ZM24.0797 45.3001C24.0797 45.7109 23.9579 46.1125 23.7296 46.4541C23.5014 46.7956 23.177 47.0619 22.7975 47.2191C22.418 47.3763 22.0003 47.4175 21.5974 47.3373C21.1945 47.2572 20.8244 47.0594 20.5339 46.7689C20.2434 46.4784 20.0455 46.1083 19.9654 45.7054C19.8852 45.3025 19.9264 44.8849 20.0836 44.5053C20.2408 44.1258 20.507 43.8014 20.8486 43.5731C21.1902 43.3449 21.5918 43.2231 22.0026 43.2231C22.5532 43.2237 23.0812 43.4427 23.4706 43.8321C23.86 44.2215 24.079 44.7494 24.0797 45.3001ZM22.0026 35.6339C19.9576 35.6339 17.9585 35.0275 16.2581 33.8913C14.5577 32.7552 13.2324 31.1404 12.4498 29.251C11.6672 27.3617 11.4624 25.2827 11.8614 23.277C12.2603 21.2713 13.2451 19.4289 14.6911 17.9828C16.1372 16.5368 17.9795 15.552 19.9853 15.1531C21.991 14.7541 24.0699 14.9588 25.9593 15.7414C27.8486 16.524 29.4635 17.8493 30.5996 19.5497C31.7358 21.25 32.3422 23.2491 32.3422 25.2941C32.3391 28.0354 31.2488 30.6636 29.3104 32.602C27.372 34.5404 24.7439 35.6307 22.0026 35.6339ZM41.127 36.3355C40.9562 36.6313 40.7151 36.8805 40.425 37.0608C40.135 37.2412 39.8049 37.3472 39.4641 37.3696C39.1232 37.3919 38.7822 37.3298 38.471 37.1889C38.1599 37.0479 37.8884 36.8324 37.6805 36.5614C37.4725 36.2904 37.3346 35.9724 37.279 35.6354C37.2234 35.2984 37.2517 34.9528 37.3615 34.6294C37.4713 34.306 37.6591 34.0146 37.9084 33.7811C38.1577 33.5476 38.4607 33.3792 38.7907 33.2908C38.967 33.2434 39.1489 33.2193 39.3315 33.2192C39.6958 33.2201 40.0534 33.3168 40.3686 33.4994C40.6837 33.6821 40.9453 33.9444 41.1272 34.26C41.309 34.5757 41.4047 34.9336 41.4047 35.2978C41.4046 35.6621 41.3089 36.0199 41.127 36.3355Z" fill="white"/>
<path d="M22.0025 24.5744C22.8331 24.5744 23.6449 24.3281 24.3355 23.8666C25.0261 23.4052 25.5643 22.7494 25.8822 21.982C26.2 21.2147 26.2831 20.3704 26.1211 19.5558C25.9591 18.7412 25.5591 17.993 24.9718 17.4057C24.3845 16.8184 23.6363 16.4185 22.8217 16.2565C22.0071 16.0944 21.1628 16.1776 20.3954 16.4955C19.6281 16.8133 18.9723 17.3516 18.5109 18.0421C18.0495 18.7327 17.8032 19.5446 17.8032 20.3752C17.8045 21.4885 18.2473 22.5558 19.0346 23.3431C19.8218 24.1303 20.8892 24.5731 22.0025 24.5744ZM22.0025 18.7712C22.3198 18.7712 22.63 18.8653 22.8939 19.0415C23.1577 19.2178 23.3634 19.4684 23.4848 19.7615C23.6062 20.0547 23.638 20.3773 23.5761 20.6885C23.5142 20.9997 23.3615 21.2856 23.1371 21.51C22.9127 21.7343 22.6269 21.8872 22.3156 21.9491C22.0044 22.011 21.6818 21.9792 21.3887 21.8578C21.0955 21.7364 20.8449 21.5307 20.6686 21.2669C20.4924 21.0031 20.3983 20.6929 20.3983 20.3756C20.3986 19.9501 20.5677 19.5422 20.8685 19.2414C21.1692 18.9405 21.5771 18.7713 22.0025 18.7708V18.7712Z" fill="white"/>
<path d="M26.0685 26.689C24.919 25.7556 23.4834 25.2461 22.0027 25.2461C20.522 25.2461 19.0864 25.7556 17.9369 26.689C16.8075 27.573 15.9029 28.8084 15.3217 30.2619L14.9902 31.0909L15.6457 31.6969C17.3763 33.2962 19.6461 34.1844 22.0025 34.1844C24.3589 34.1844 26.6287 33.2962 28.3593 31.6969L29.0148 31.0909L28.6833 30.2619C28.1022 28.8084 27.1979 27.573 26.0685 26.689ZM22.0027 31.589C20.6208 31.5905 19.2717 31.1678 18.1377 30.3779C19.0387 28.7925 20.4609 27.8408 22.0027 27.8408C23.5445 27.8408 24.9667 28.7925 25.8677 30.3779C24.7337 31.1678 23.3846 31.5905 22.0027 31.589Z" fill="white"/>
</svg>
