<svg width="137" height="121" viewBox="0 0 137 121" fill="none" xmlns="http://www.w3.org/2000/svg">
<path fill-rule="evenodd" clip-rule="evenodd" d="M68.0934 111.229C67.7053 111.303 67.1633 111.266 66.6151 111.044C64.102 110.071 62.3342 106.006 61.9215 103.246C61.4288 99.5565 61.7306 97.2036 61.9092 92.4607C67.8716 98.5217 66.0607 108.833 68.0934 111.229Z" fill="white"/>
<path fill-rule="evenodd" clip-rule="evenodd" d="M68.0997 111.235C67.8779 110.909 67.4591 110.557 66.9171 110.33C64.4409 109.264 60.3325 110.927 58.1028 112.602C55.1647 114.894 53.7295 116.779 50.5327 120.289C59.0329 120.142 64.9645 111.512 68.0997 111.229V111.235Z" fill="white"/>
<path fill-rule="evenodd" clip-rule="evenodd" d="M56.4644 111.759C56.0887 111.759 55.5898 111.635 55.1155 111.34C52.9289 110.003 51.968 105.907 52.0481 103.258C52.2144 99.729 52.8919 97.5793 53.8651 93.1752C58.4109 99.8522 54.9677 109.184 56.4644 111.765V111.759Z" fill="white"/>
<path fill-rule="evenodd" clip-rule="evenodd" d="M56.4706 111.765C56.3166 111.426 55.984 111.032 55.5159 110.724C53.3785 109.319 49.2701 110.194 46.911 111.395C43.7943 113.052 42.1435 114.573 38.5771 117.333C46.5414 118.596 53.5017 111.512 56.4706 111.765Z" fill="white"/>
<path fill-rule="evenodd" clip-rule="evenodd" d="M44.977 109.861C44.626 109.794 44.1886 109.578 43.8067 109.208C42.0389 107.545 41.9466 103.56 42.5317 101.121C43.3694 97.8811 44.4165 96.0209 46.172 92.1219C49.0916 99.1931 44.0839 107.176 44.9709 109.861H44.977Z" fill="white"/>
<path fill-rule="evenodd" clip-rule="evenodd" d="M44.9768 109.868C44.8968 109.523 44.6689 109.091 44.287 108.722C42.5746 107.016 38.5956 107.053 36.181 107.724C32.9781 108.666 31.161 109.769 27.3359 111.654C34.481 114.321 42.2666 109.073 44.9707 109.861L44.9768 109.868Z" fill="white"/>
<path fill-rule="evenodd" clip-rule="evenodd" d="M34.2654 105.353C33.9574 105.217 33.6001 104.928 33.3291 104.509C32.0541 102.605 32.8056 98.9159 33.8588 96.7909C35.3125 93.9821 36.6676 92.4915 39.1068 89.2762C40.3017 96.4028 34.0128 102.698 34.2654 105.353Z" fill="white"/>
<path fill-rule="evenodd" clip-rule="evenodd" d="M34.2655 105.359C34.2655 105.026 34.1361 104.583 33.8651 104.164C32.6332 102.242 28.9683 101.466 26.6092 101.589C23.4678 101.805 21.5707 102.451 17.6655 103.4C23.6957 107.318 31.9372 104.071 34.2593 105.353L34.2655 105.359Z" fill="white"/>
<path fill-rule="evenodd" clip-rule="evenodd" d="M24.7739 97.53C24.5214 97.3391 24.2565 96.9941 24.0902 96.5568C23.3265 94.5426 24.7986 91.3151 26.2214 89.5965C28.1555 87.3298 29.7139 86.2519 32.6335 83.8189C32.2147 90.6067 25.1127 95.0416 24.7739 97.53Z" fill="white"/>
<path fill-rule="evenodd" clip-rule="evenodd" d="M24.7678 97.53C24.8355 97.222 24.8109 96.7909 24.6446 96.3535C23.9116 94.3394 20.7086 92.8734 18.522 92.5038C15.5962 92.0542 13.7237 92.2575 9.9541 92.3252C14.6785 97.1543 22.8953 95.8731 24.7678 97.53Z" fill="white"/>
<path fill-rule="evenodd" clip-rule="evenodd" d="M17.0804 87.8965C16.8894 87.6747 16.7108 87.3052 16.6492 86.8678C16.3474 84.866 18.3431 82.2051 19.9876 80.9116C22.2051 79.2239 23.8497 78.5402 27.0095 76.8956C25.2725 83.0305 17.8811 85.6791 17.0804 87.8903V87.8965Z" fill="white"/>
<path fill-rule="evenodd" clip-rule="evenodd" d="M17.0743 87.8965C17.1914 87.6255 17.253 87.2313 17.1852 86.794C16.8957 84.8106 14.241 82.8519 12.313 82.0942C9.71986 81.1272 7.9644 80.9486 4.49658 80.2957C7.9028 85.6236 15.6761 86.0179 17.0743 87.8965Z" fill="white"/>
<path fill-rule="evenodd" clip-rule="evenodd" d="M11.5122 77.1789C11.3767 76.9387 11.2782 76.5691 11.2967 76.1626C11.3706 74.2778 13.6681 72.1897 15.3989 71.2904C17.7334 70.1324 19.3595 69.7936 22.544 68.8451C19.8769 74.1669 12.6333 75.2941 11.5061 77.1851L11.5122 77.1789Z" fill="white"/>
<path fill-rule="evenodd" clip-rule="evenodd" d="M11.5121 77.1789C11.6661 76.951 11.7893 76.5999 11.8016 76.1872C11.8693 74.3209 9.75661 72.085 8.11202 71.0687C5.89459 69.7505 4.31775 69.2947 1.24414 68.1183C3.48005 73.5694 10.545 75.2264 11.5121 77.1789Z" fill="white"/>
<path fill-rule="evenodd" clip-rule="evenodd" d="M8.16141 66.4244C8.06902 66.1841 8.03822 65.833 8.11829 65.4573C8.46939 63.7388 10.8839 62.1681 12.6086 61.6015C14.9184 60.887 16.4583 60.8192 19.5257 60.4188C16.2858 64.8968 9.47955 64.8598 8.16757 66.4244H8.16141Z" fill="white"/>
<path fill-rule="evenodd" clip-rule="evenodd" d="M8.16138 66.4244C8.33384 66.2396 8.49399 65.9316 8.56175 65.5559C8.88204 63.8559 7.25593 61.5152 5.88851 60.3511C4.04065 58.8358 2.65476 58.2014 0 56.6985C1.29966 62.008 7.54542 64.5026 8.16754 66.4244H8.16138Z" fill="white"/>
<path fill-rule="evenodd" clip-rule="evenodd" d="M6.89277 54.7459C6.8435 54.5119 6.86198 54.1916 6.99133 53.859C7.558 52.3437 9.98486 51.2473 11.6356 50.9763C13.8469 50.6498 15.2636 50.81 18.1154 50.8839C14.5244 54.5119 8.31563 53.5017 6.89277 54.7459Z" fill="white"/>
<path fill-rule="evenodd" clip-rule="evenodd" d="M6.89266 54.7398C7.07129 54.5919 7.26223 54.3332 7.37311 54.0006C7.88435 52.4854 6.70788 50.1386 5.61148 48.9005C4.12087 47.2744 2.93825 46.5168 0.708496 44.7921C1.20126 49.806 6.58469 52.9042 6.89882 54.7398H6.89266Z" fill="white"/>
<path fill-rule="evenodd" clip-rule="evenodd" d="M7.82275 44.09C7.82275 43.8744 7.89051 43.5849 8.06298 43.3077C8.83292 42.0327 11.2105 41.466 12.7442 41.5029C14.7953 41.5892 16.0396 41.9772 18.6019 42.5254C14.7399 45.1802 9.31952 43.2091 7.82275 44.0838V44.09Z" fill="white"/>
<path fill-rule="evenodd" clip-rule="evenodd" d="M7.82274 44.0899C8.00752 43.9852 8.21695 43.7758 8.37093 43.4986C9.07312 42.2113 8.37093 39.9076 7.57635 38.6141C6.48612 36.9141 5.53139 36.0394 3.78824 34.1361C3.44947 38.7434 7.82274 42.3837 7.81658 44.0899H7.82274Z" fill="white"/>
<path fill-rule="evenodd" clip-rule="evenodd" d="M11.2412 33.4278C11.272 33.2307 11.3829 32.9843 11.58 32.7626C12.467 31.7401 14.6844 31.5923 16.058 31.8694C17.8812 32.2636 18.9468 32.7995 21.1581 33.6927C17.2837 35.4789 12.7195 32.8734 11.2474 33.434L11.2412 33.4278Z" fill="white"/>
<path fill-rule="evenodd" clip-rule="evenodd" d="M11.2414 33.4278C11.4262 33.36 11.6418 33.1999 11.8143 32.9658C12.6212 31.9064 12.3132 29.7321 11.7712 28.4632C11.0197 26.7817 10.2867 25.87 8.98088 23.9113C8.04464 28.0136 11.4817 31.8879 11.2414 33.4216V33.4278Z" fill="white"/>
<path fill-rule="evenodd" clip-rule="evenodd" d="M16.7847 23.474C16.8401 23.3015 16.9695 23.0983 17.1727 22.9258C18.1028 22.1374 20.1047 22.3098 21.2873 22.741C22.8641 23.3385 23.7326 23.9668 25.5866 25.0632C21.8848 26.1288 18.1767 23.1783 16.7847 23.474Z" fill="white"/>
<path fill-rule="evenodd" clip-rule="evenodd" d="M16.7849 23.474C16.9573 23.4309 17.1668 23.32 17.3516 23.1291C18.2016 22.2729 18.1708 20.2895 17.8382 19.0884C17.3639 17.4931 16.8095 16.5877 15.8671 14.6844C14.549 18.2507 17.1791 22.1251 16.7849 23.474Z" fill="white"/>
<path fill-rule="evenodd" clip-rule="evenodd" d="M24.0776 14.6227C24.1454 14.4811 24.2871 14.3148 24.4903 14.1854C25.4081 13.6002 27.1574 13.9945 28.1552 14.5242C29.4734 15.2448 30.1694 15.9039 31.6723 17.0989C28.2723 17.5916 25.3465 14.5303 24.0838 14.6227H24.0776Z" fill="white"/>
<path fill-rule="evenodd" clip-rule="evenodd" d="M24.084 14.6166C24.238 14.5981 24.4412 14.518 24.626 14.364C25.4637 13.6803 25.6362 11.9125 25.4514 10.81C25.1804 9.34402 24.78 8.48168 24.1209 6.69542C22.5995 9.74439 24.5644 13.4463 24.084 14.6104V14.6166Z" fill="white"/>
<path fill-rule="evenodd" clip-rule="evenodd" d="M32.7627 7.12663C32.8366 7.0096 32.9783 6.88025 33.1692 6.78786C34.0377 6.37517 35.516 6.91721 36.3352 7.48388C37.407 8.25999 37.9429 8.9129 39.1255 10.1202C36.1012 10.1756 33.8776 7.18823 32.7627 7.12663Z" fill="white"/>
<path fill-rule="evenodd" clip-rule="evenodd" d="M32.775 7.1266C32.9166 7.1266 33.1014 7.065 33.2739 6.94797C34.0685 6.41209 34.358 4.85989 34.2841 3.86821C34.1609 2.55007 33.8714 1.75549 33.434 0.123215C31.8449 2.6979 33.2924 6.13491 32.7688 7.1266H32.775Z" fill="white"/>
<path fill-rule="evenodd" clip-rule="evenodd" d="M68.728 111.229C69.1161 111.303 69.6581 111.266 70.2063 111.05C72.7194 110.077 74.4872 106.012 74.8999 103.252C75.3926 99.5626 75.0908 97.2097 74.9122 92.4669C68.9498 98.5278 70.7668 108.845 68.728 111.235V111.229Z" fill="white"/>
<path fill-rule="evenodd" clip-rule="evenodd" d="M68.7222 111.235C68.9439 110.909 69.3628 110.557 69.9048 110.33C72.3809 109.264 76.4893 110.927 78.7191 112.602C81.6572 114.888 83.0924 116.779 86.2891 120.289C77.789 120.142 71.8574 111.512 68.7283 111.229L68.7222 111.235Z" fill="white"/>
<path fill-rule="evenodd" clip-rule="evenodd" d="M80.3694 111.758C80.7452 111.758 81.2441 111.635 81.7184 111.34C83.905 110.003 84.8659 105.901 84.7797 103.252C84.6134 99.7228 83.9358 97.5731 82.9564 93.169C78.4169 99.846 81.86 109.178 80.3633 111.758H80.3694Z" fill="white"/>
<path fill-rule="evenodd" clip-rule="evenodd" d="M80.3694 111.765C80.5234 111.426 80.856 111.032 81.3242 110.724C83.4615 109.319 87.5699 110.194 89.929 111.395C93.0458 113.046 94.6965 114.573 98.2629 117.327C90.2986 118.589 83.3322 111.506 80.3633 111.759L80.3694 111.765Z" fill="white"/>
<path fill-rule="evenodd" clip-rule="evenodd" d="M91.8758 109.855C92.2269 109.787 92.6642 109.572 93.0461 109.202C94.8139 107.539 94.9063 103.548 94.315 101.109C93.4773 97.8688 92.424 96.0086 90.6685 92.1158C87.7551 99.1869 92.7689 107.17 91.8819 109.855H91.8758Z" fill="white"/>
<path fill-rule="evenodd" clip-rule="evenodd" d="M91.8755 109.861C91.9556 109.516 92.1835 109.085 92.5654 108.716C94.2777 107.01 98.2568 107.046 100.671 107.712C103.874 108.654 105.691 109.757 109.516 111.635C102.377 114.309 94.5857 109.061 91.8816 109.855L91.8755 109.861Z" fill="white"/>
<path fill-rule="evenodd" clip-rule="evenodd" d="M102.599 105.328C102.907 105.192 103.265 104.897 103.536 104.478C104.811 102.575 104.053 98.8851 102.994 96.7601C101.534 93.9513 100.179 92.4607 97.7394 89.2516C96.5506 96.3782 102.846 102.667 102.599 105.328Z" fill="white"/>
<path fill-rule="evenodd" clip-rule="evenodd" d="M102.6 105.334C102.6 105.002 102.729 104.558 103 104.139C104.226 102.217 107.897 101.441 110.25 101.558C113.391 101.768 115.288 102.415 119.193 103.357C113.169 107.281 104.922 104.041 102.6 105.328V105.334Z" fill="white"/>
<path fill-rule="evenodd" clip-rule="evenodd" d="M112.104 97.4807C112.356 97.2898 112.621 96.9449 112.781 96.5014C113.545 94.4872 112.067 91.2596 110.644 89.5411C108.71 87.2806 107.151 86.2026 104.226 83.7758C104.657 90.5636 111.765 94.9861 112.104 97.4807Z" fill="white"/>
<path fill-rule="evenodd" clip-rule="evenodd" d="M112.103 97.4807C112.036 97.1727 112.06 96.7416 112.227 96.3043C112.96 94.2901 116.156 92.818 118.343 92.4484C121.263 91.9987 123.135 92.1958 126.911 92.2574C122.193 97.0927 113.97 95.8238 112.103 97.4807Z" fill="white"/>
<path fill-rule="evenodd" clip-rule="evenodd" d="M119.791 87.8226C119.982 87.5947 120.16 87.2313 120.222 86.794C120.517 84.7921 118.522 82.1373 116.877 80.8438C114.654 79.1561 113.009 78.4786 109.849 76.8401C111.592 82.9689 118.99 85.6052 119.797 87.8226H119.791Z" fill="white"/>
<path fill-rule="evenodd" clip-rule="evenodd" d="M119.797 87.8226C119.68 87.5578 119.618 87.1574 119.68 86.7201C119.963 84.7367 122.618 82.778 124.546 82.0142C127.133 81.041 128.888 80.8623 132.362 80.2033C128.968 85.5374 121.189 85.944 119.797 87.8226Z" fill="white"/>
<path fill-rule="evenodd" clip-rule="evenodd" d="M125.353 77.0988C125.488 76.8586 125.587 76.4891 125.562 76.0764C125.482 74.1916 123.185 72.1035 121.448 71.2103C119.113 70.0523 117.487 69.7197 114.296 68.7773C116.976 74.093 124.219 75.2079 125.347 77.0988H125.353Z" fill="white"/>
<path fill-rule="evenodd" clip-rule="evenodd" d="M125.353 77.0988C125.199 76.8709 125.075 76.5198 125.063 76.1071C124.995 74.2408 127.096 72.0049 128.74 70.9824C130.952 69.6581 132.535 69.2023 135.602 68.0197C133.378 73.4709 126.314 75.1463 125.346 77.0988H125.353Z" fill="white"/>
<path fill-rule="evenodd" clip-rule="evenodd" d="M128.691 66.3135C128.784 66.0733 128.814 65.7222 128.734 65.3465C128.383 63.628 125.963 62.0573 124.238 61.4968C121.928 60.7823 120.382 60.7207 117.321 60.3265C120.567 64.7983 127.373 64.749 128.691 66.3135Z" fill="white"/>
<path fill-rule="evenodd" clip-rule="evenodd" d="M128.691 66.3135C128.519 66.1287 128.359 65.8208 128.291 65.445C127.971 63.745 129.591 61.3982 130.958 60.2402C132.806 58.7188 134.192 58.0844 136.84 56.5753C135.553 61.8848 129.307 64.3917 128.691 66.3135Z" fill="white"/>
<path fill-rule="evenodd" clip-rule="evenodd" d="M129.942 54.6289C129.991 54.3948 129.966 54.0745 129.843 53.7419C129.276 52.2267 126.843 51.1364 125.186 50.8716C122.975 50.5513 121.558 50.7176 118.707 50.7977C122.31 54.4133 128.513 53.3908 129.942 54.6289Z" fill="white"/>
<path fill-rule="evenodd" clip-rule="evenodd" d="M129.935 54.6227C129.757 54.4749 129.566 54.2162 129.455 53.8836C128.937 52.3745 130.114 50.0215 131.204 48.7773C132.689 47.1512 133.871 46.3874 136.095 44.6628C135.614 49.6766 130.243 52.7872 129.929 54.6227H129.935Z" fill="white"/>
<path fill-rule="evenodd" clip-rule="evenodd" d="M128.974 43.9606C128.974 43.745 128.907 43.4555 128.734 43.1783C127.964 41.9094 125.587 41.3428 124.047 41.3859C121.996 41.4783 120.752 41.8663 118.195 42.4268C122.063 45.0693 127.484 43.0859 128.974 43.9606Z" fill="white"/>
<path fill-rule="evenodd" clip-rule="evenodd" d="M128.975 43.9606C128.79 43.8559 128.574 43.6526 128.426 43.3693C127.724 42.0819 128.414 39.7783 129.209 38.4848C130.293 36.7786 131.241 35.9101 132.984 34.0006C133.335 38.608 128.975 42.2544 128.981 43.9667L128.975 43.9606Z" fill="white"/>
<path fill-rule="evenodd" clip-rule="evenodd" d="M125.525 33.2861C125.494 33.089 125.384 32.8426 125.186 32.6209C124.299 31.5984 122.076 31.4629 120.702 31.7401C118.879 32.1404 117.82 32.6825 115.608 33.5756C119.489 35.3557 124.041 32.7379 125.519 33.2861H125.525Z" fill="white"/>
<path fill-rule="evenodd" clip-rule="evenodd" d="M125.519 33.2861C125.334 33.2184 125.119 33.0644 124.94 32.8303C124.127 31.7709 124.435 29.5966 124.971 28.3277C125.716 26.6462 126.449 25.7284 127.749 23.7697C128.697 27.8658 125.273 31.7524 125.513 33.2861H125.519Z" fill="white"/>
<path fill-rule="evenodd" clip-rule="evenodd" d="M119.944 23.3323C119.889 23.1599 119.76 22.9566 119.55 22.7841C118.62 21.9957 116.618 22.1743 115.429 22.6117C113.859 23.2153 112.984 23.8436 111.136 24.9461C114.838 25.9994 118.546 23.0428 119.938 23.3323H119.944Z" fill="white"/>
<path fill-rule="evenodd" clip-rule="evenodd" d="M119.938 23.3323C119.766 23.2954 119.55 23.1783 119.372 22.9874C118.522 22.1312 118.54 20.1479 118.873 18.9467C119.341 17.3514 119.895 16.446 120.831 14.5427C122.162 18.1029 119.544 21.9834 119.938 23.3323Z" fill="white"/>
<path fill-rule="evenodd" clip-rule="evenodd" d="M112.615 14.4811C112.547 14.3394 112.405 14.1731 112.202 14.0438C111.284 13.4586 109.535 13.8651 108.543 14.3887C107.225 15.1155 106.535 15.7746 105.032 16.9757C108.432 17.4561 111.352 14.3887 112.615 14.4749V14.4811Z" fill="white"/>
<path fill-rule="evenodd" clip-rule="evenodd" d="M112.609 14.4811C112.455 14.4626 112.251 14.3825 112.067 14.2285C111.229 13.551 111.05 11.7832 111.229 10.6806C111.494 9.21467 111.894 8.35233 112.547 6.56607C114.081 9.60888 112.122 13.3231 112.609 14.4811Z" fill="white"/>
<path fill-rule="evenodd" clip-rule="evenodd" d="M103.893 6.99723C103.819 6.8802 103.677 6.75085 103.486 6.65846C102.618 6.25193 101.14 6.79397 100.327 7.36064C99.2548 8.13674 98.7251 8.79581 97.5425 10.0031C100.567 10.0524 102.778 7.05267 103.893 6.99107V6.99723Z" fill="white"/>
<path fill-rule="evenodd" clip-rule="evenodd" d="M103.887 6.99726C103.745 6.99726 103.56 6.93566 103.388 6.81863C102.593 6.28275 102.291 4.73671 102.365 3.74502C102.482 2.42688 102.772 1.63231 103.203 3.05176e-05C104.798 2.56855 103.369 6.01173 103.887 6.99726Z" fill="white"/>
</svg>
