<svg width="44" height="44" viewBox="0 0 44 44" fill="none" xmlns="http://www.w3.org/2000/svg">
<path d="M43.9481 3.28516C43.8528 1.53737 42.4628 0.147516 40.715 0.0521258C37.1883 -0.140545 30.2873 0.0468838 23.6883 3.46004C20.3244 5.20009 16.7666 8.15021 13.9273 11.554C13.8923 11.5959 13.8583 11.6381 13.8236 11.6802L7.38002 12.1779C6.31939 12.2599 5.37469 12.8158 4.78808 13.703L0.392065 20.3521C-0.0528297 21.025 -0.123556 21.8671 0.202747 22.6047C0.529135 23.3424 1.19979 23.8565 1.99685 23.98L7.42557 24.8208C7.4064 24.9263 7.38716 25.0317 7.36954 25.1373C7.18881 26.2184 7.547 27.3299 8.32782 28.1106L15.8896 35.6724C16.5369 36.3198 17.4117 36.6767 18.308 36.6767C18.4926 36.6767 18.6782 36.6615 18.863 36.6306C18.9685 36.613 19.074 36.5938 19.1795 36.5746L20.0203 42.0034C20.1438 42.8005 20.6579 43.4712 21.3954 43.7975C21.7023 43.9333 22.027 44.0003 22.3503 44.0003C22.8043 44.0002 23.2551 43.8681 23.648 43.6083L30.2972 39.2122C31.1845 38.6255 31.7403 37.6808 31.8221 36.6202L32.3199 30.1768C32.3619 30.1421 32.4042 30.108 32.4461 30.0731C35.85 27.2338 38.8002 23.676 40.5401 20.3119C43.9535 13.7127 44.1405 6.81158 43.9481 3.28516ZM28.8753 37.0615L22.5151 41.2667L21.6956 35.976C24.3837 35.1856 27.0428 33.9198 29.5761 32.224L29.2519 36.4216C29.2317 36.6834 29.0944 36.9167 28.8753 37.0615ZM17.7126 33.8495L10.1507 26.2876C9.95778 26.0946 9.86858 25.8235 9.91232 25.5623C10.1371 24.218 10.4865 22.9383 10.9189 21.7328L22.265 33.0789C20.8171 33.5975 19.5202 33.9069 18.4379 34.0879C18.1763 34.1313 17.9055 34.0424 17.7126 33.8495ZM7.57862 14.7484L11.7761 14.4241C10.0802 16.9575 8.81439 19.6166 8.02403 22.3047L2.73342 21.4853L6.93865 15.1249C7.08354 14.9058 7.31686 14.7686 7.57862 14.7484ZM30.7949 28.0932C28.7124 29.8302 26.6909 31.0866 24.8276 31.9957L12.004 19.1721C13.1949 16.7398 14.6484 14.7143 15.907 13.2055C18.5345 10.0554 21.8025 7.33803 24.8729 5.74991C30.9292 2.61726 37.3101 2.44856 40.5747 2.62628C41.0068 2.64983 41.3504 2.99349 41.374 3.42566C41.552 6.69023 41.3829 13.071 38.2503 19.1274C36.6622 22.1978 33.9448 25.4656 30.7949 28.0932Z" fill="white"/>
<path d="M30.1399 20.3023C31.7901 20.3021 33.4409 19.6739 34.6972 18.4176C35.9146 17.2003 36.5849 15.5817 36.5849 13.8603C36.5849 12.1388 35.9145 10.5202 34.6972 9.30294C32.1843 6.78989 28.0954 6.79006 25.5826 9.30294C24.3652 10.5202 23.6948 12.1388 23.6948 13.8603C23.6948 15.5817 24.3653 17.2003 25.5826 18.4176C26.8392 19.6741 28.4892 20.3024 30.1399 20.3023ZM27.4054 11.1258C28.1592 10.3719 29.1495 9.99499 30.1397 9.99499C31.1301 9.99499 32.1203 10.3719 32.8742 11.1258C33.6045 11.8562 34.0067 12.8273 34.0067 13.8602C34.0067 14.893 33.6045 15.8642 32.8742 16.5946C31.3665 18.1024 28.9131 18.1023 27.4053 16.5946C26.6749 15.8642 26.2727 14.8931 26.2727 13.8603C26.2727 12.8274 26.675 11.8562 27.4054 11.1258Z" fill="white"/>
<path d="M1.31489 36.2604C1.6448 36.2604 1.97471 36.1346 2.22634 35.8828L6.43492 31.6742C6.93834 31.1708 6.93834 30.3546 6.43492 29.8512C5.93159 29.3478 5.11536 29.3478 4.61194 29.8512L0.403443 34.0598C-0.0999756 34.5632 -0.0999756 35.3793 0.403443 35.8828C0.655066 36.1345 0.984977 36.2604 1.31489 36.2604Z" fill="white"/>
<path d="M10.2918 33.7081C9.78851 33.2047 8.97228 33.2047 8.46886 33.7081L0.377564 41.7995C-0.125855 42.3029 -0.125855 43.1191 0.377564 43.6225C0.629273 43.8742 0.959099 44 1.28901 44C1.61892 44 1.94883 43.8742 2.20046 43.6224L10.2918 35.5311C10.7953 35.0277 10.7953 34.2115 10.2918 33.7081Z" fill="white"/>
<path d="M12.3259 37.5651L8.11731 41.7736C7.61389 42.2771 7.61389 43.0932 8.11731 43.5966C8.36902 43.8483 8.69893 43.9742 9.02876 43.9742C9.35858 43.9742 9.68858 43.8484 9.9402 43.5966L14.1488 39.388C14.6522 38.8846 14.6522 38.0685 14.1488 37.5651C13.6455 37.0616 12.8292 37.0616 12.3259 37.5651Z" fill="white"/>
</svg>
