<svg width="50" height="50" viewBox="0 0 50 50" fill="none" xmlns="http://www.w3.org/2000/svg">
<path d="M24.1665 22.4999H25.8332C26.0542 22.4998 26.2662 22.5875 26.4226 22.7438C26.5789 22.9 26.6668 23.1119 26.6669 23.3329C26.667 23.554 26.5793 23.766 26.4231 23.9223C26.2668 24.0787 26.0549 24.1666 25.8339 24.1667L22.4998 24.1666V25.8333L24.1665 25.8333V27.4999H25.8332V25.8334H25.8339C26.1622 25.8333 26.4873 25.7686 26.7906 25.6429C27.0939 25.5172 27.3695 25.333 27.6016 25.1009C27.8337 24.8687 28.0178 24.593 28.1434 24.2897C28.269 23.9864 28.3336 23.6613 28.3336 23.3329C28.3335 23.0046 28.2688 22.6795 28.1431 22.3762C28.0175 22.0729 27.8333 21.7974 27.6011 21.5652C27.3689 21.3331 27.0933 21.149 26.7899 21.0234C26.4866 20.8978 26.1615 20.8332 25.8332 20.8333H24.1665C23.9455 20.8333 23.7335 20.7455 23.5772 20.5892C23.421 20.4329 23.3332 20.2209 23.3332 19.9999C23.3332 19.7789 23.421 19.5669 23.5772 19.4107C23.7335 19.2544 23.9455 19.1666 24.1665 19.1666H27.4998V17.4999H25.8332V15.8333H24.1665V17.4999C23.5035 17.4999 22.8676 17.7633 22.3987 18.2322C21.9299 18.701 21.6665 19.3369 21.6665 19.9999C21.6665 20.663 21.9299 21.2988 22.3987 21.7677C22.8676 22.2365 23.5035 22.4999 24.1665 22.4999Z" fill="white"/>
<path d="M0.833333 36.6667H5.83333C6.05435 36.6667 6.26631 36.5789 6.42259 36.4227C6.57887 36.2664 6.66666 36.0544 6.66667 35.8334H7.22728C9.49569 37.4537 12.2123 38.3275 15 38.3334H19.1667V40.8334C18.9457 40.8334 18.7337 40.9212 18.5774 41.0775C18.4211 41.2338 18.3333 41.4457 18.3333 41.6667V49.1667C18.3333 49.3878 18.4211 49.5997 18.5774 49.756C18.7337 49.9123 18.9457 50.0001 19.1667 50.0001H30.8333C31.0543 50.0001 31.2663 49.9123 31.4226 49.756C31.5789 49.5997 31.6667 49.3878 31.6667 49.1667V41.6667C31.6667 41.4457 31.5789 41.2338 31.4226 41.0775C31.2663 40.9212 31.0543 40.8334 30.8333 40.8334H30.5989C30.9829 40.0382 31.267 39.1985 31.4447 38.3334H35.8333C38.5156 38.3269 41.1344 37.5169 43.3519 36.0079C43.3919 36.1944 43.4946 36.3615 43.6428 36.4814C43.7911 36.6013 43.976 36.6667 44.1667 36.6667H49.1667C49.3877 36.6667 49.5996 36.5789 49.7559 36.4227C49.9122 36.2664 50 36.0544 50 35.8334V25.8334C50 25.6124 49.9122 25.4004 49.7559 25.2442C49.5996 25.0879 49.3877 25.0001 49.1667 25.0001H44.1667C43.9457 25.0001 43.7337 25.0879 43.5774 25.2442C43.4211 25.4004 43.3333 25.6124 43.3333 25.8334V27.5001H42.7026C40.4231 27.4943 38.221 28.3261 36.5145 29.8374C36.2628 29.041 35.7227 28.3675 35 27.9488V19.1667C34.9975 17.3396 34.3955 15.5638 33.2864 14.1117C32.1774 12.6597 30.6225 11.6117 28.8604 11.1285L28.9355 11.0158C29.6307 9.97516 30.0012 8.75154 30 7.50008C30 7.27907 29.9122 7.06711 29.7559 6.91083C29.5996 6.75455 29.3877 6.66675 29.1667 6.66675H20.8333C20.6123 6.66675 20.4004 6.75455 20.2441 6.91083C20.0878 7.06711 20 7.27907 20 7.50008C19.9988 8.75155 20.3693 9.97519 21.0645 11.0158L21.1396 11.1285C19.3775 11.6117 17.8226 12.6597 16.7136 14.1117C15.6045 15.5638 15.0025 17.3396 15 19.1667V27.4017C15.0004 27.527 14.9657 27.6499 14.8998 27.7565C14.834 27.8631 14.7395 27.9491 14.6273 28.0047C14.1238 28.255 13.7278 28.679 13.5125 29.1984C11.9378 28.0885 10.0572 27.4951 8.13059 27.5001H6.66667V25.8334C6.66666 25.6124 6.57887 25.4004 6.42259 25.2442C6.26631 25.0879 6.05435 25.0001 5.83333 25.0001H0.833333C0.61232 25.0001 0.40036 25.0879 0.24408 25.2442C0.0878002 25.4004 2.2101e-06 25.6124 0 25.8334V35.8334C2.2101e-06 36.0544 0.0878002 36.2664 0.24408 36.4227C0.40036 36.5789 0.61232 36.6667 0.833333 36.6667ZM45 26.6667H48.3333V35.0001H45V26.6667ZM30 48.3334H20V42.5001H30V48.3334ZM20.8333 40.8334V33.3334H26.664C25.5885 34.5275 24.9954 36.0788 25 37.6858V38.6621H26.6667V37.6858C26.6649 37.0477 26.7897 36.4157 27.0339 35.8261C27.2781 35.2366 27.6368 34.7014 28.0892 34.2514C28.1666 34.1741 28.228 34.0822 28.2699 33.9811C28.3118 33.88 28.3333 33.7716 28.3333 33.6621V30.8334C28.3333 30.6124 28.4211 30.4004 28.5774 30.2442C28.7337 30.0879 28.9457 30.0001 29.1667 30.0001C29.3877 30.0001 29.5996 30.0879 29.7559 30.2442C29.9122 30.4004 30 30.6124 30 30.8334V36.1621C30.0012 37.8078 29.5541 39.4227 28.7066 40.8334H20.8333ZM42.7026 29.1667H43.3333V34.1667H43.3332C43.1529 34.1668 42.9775 34.2252 42.8332 34.3334C40.8114 35.8433 38.3568 36.6615 35.8333 36.6667H31.6535C31.6613 36.499 31.6667 36.3309 31.6667 36.1621L36.6667 35.0001V33.3334H32.3549C31.9754 33.3334 31.6667 32.9595 31.6667 32.5001C31.6629 32.2733 31.7442 32.0533 31.8945 31.8834C31.9521 31.8174 32.0228 31.764 32.1021 31.7267C32.1815 31.6894 32.2676 31.669 32.3552 31.6667H36.6667V31.6664C36.776 31.6667 36.8844 31.6454 36.9855 31.6037C37.0866 31.562 37.1785 31.5007 37.2558 31.4233C37.9693 30.7056 38.8182 30.1367 39.7531 29.7493C40.6881 29.362 41.6906 29.164 42.7026 29.1667ZM22.4512 10.0913C22.0965 9.56021 21.8548 8.96186 21.7411 8.33341H28.2589C28.1452 8.96184 27.9035 9.56018 27.5488 10.0912L27.0476 10.8431C26.9212 10.8374 26.7944 10.8334 26.6667 10.8334H23.3333C23.2056 10.8334 23.0788 10.8374 22.9524 10.8431L22.4512 10.0913ZM15.3727 29.4954C15.7625 29.3022 16.0903 29.0036 16.319 28.6335C16.5477 28.2635 16.6681 27.8367 16.6667 27.4017V19.1667C16.6687 17.3993 17.3717 15.7047 18.6215 14.4549C19.8713 13.2051 21.5658 12.5021 23.3333 12.5001H26.6667C28.4342 12.5021 30.1287 13.2051 31.3785 14.4549C32.6283 15.7047 33.3313 17.3993 33.3333 19.1667V27.5003H31.6667V29.167H33.3333C33.6255 29.1674 33.9124 29.2445 34.1653 29.3907C34.4182 29.5369 34.6282 29.7471 34.7743 30.0001H32.355C32.0865 29.9999 31.8202 30.048 31.5687 30.1421C31.4021 29.5631 31.032 29.0636 30.5264 28.7358C30.0209 28.408 29.4139 28.2738 28.8173 28.3579C28.2207 28.442 27.6745 28.7389 27.2793 29.1937C26.8842 29.6486 26.6666 30.2309 26.6667 30.8334V31.6667H19.8581C19.6852 31.1795 19.3657 30.7577 18.9435 30.4593C18.5213 30.1608 18.017 30.0004 17.5 30.0001H17.4995L15.0072 30.0006C15.0226 29.8931 15.0639 29.7909 15.1276 29.7029C15.1913 29.6149 15.2754 29.5437 15.3727 29.4954ZM8.13059 29.1667C9.14261 29.164 10.1451 29.362 11.0801 29.7493C12.0151 30.1367 12.8639 30.7056 13.5775 31.4233C13.6548 31.5007 13.7467 31.5621 13.8478 31.604C13.9489 31.6458 14.0573 31.6674 14.1668 31.6674H14.167L17.4998 31.6667C17.7208 31.6667 17.9328 31.7544 18.0891 31.9106C18.2455 32.0669 18.3333 32.2788 18.3334 32.4998C18.3335 32.7208 18.2457 32.9328 18.0895 33.0892C17.9333 33.2455 17.7213 33.3333 17.5003 33.3334H13.3333V35.0001L19.1667 35.0001V36.6667H15C12.4765 36.6615 10.0219 35.8433 7.99998 34.3334C7.85574 34.2252 7.6803 34.1667 7.5 34.1667H6.66667V29.1667H8.13059ZM1.66667 26.6667H5V35.0001H1.66667V26.6667Z" fill="white"/>
<path d="M13.3335 13.3335H10.8335V15.0002H13.3335V13.3335Z" fill="white"/>
<path d="M39.1665 13.3335H36.6665V15.0002H39.1665V13.3335Z" fill="white"/>
<path d="M34.4279 3.5601L32.6602 5.32788L33.8387 6.50642L35.6065 4.73864L34.4279 3.5601Z" fill="white"/>
<path d="M25.8332 0H24.1665V2.5H25.8332V0Z" fill="white"/>
<path d="M15.5721 3.56004L14.3936 4.73853L16.1613 6.50638L17.3398 5.3279L15.5721 3.56004Z" fill="white"/>
</svg>
