<svg width="46" height="46" viewBox="0 0 46 46" fill="none" xmlns="http://www.w3.org/2000/svg">
<path d="M11.8713 29.0298C11.1719 28.3307 10.9086 28.682 10.753 28.8377C6.72595 32.8647 3.15079 42.5815 5.04083 41.6324C11.9213 38.1777 13.0677 39.2063 17.0947 35.1795C17.2504 35.0238 17.6083 34.7671 16.8887 34.0473L11.8713 29.0298Z" fill="#DB0909"/>
<path d="M33.5808 28.9758C33.3984 28.395 33.7807 28.1152 33.9416 27.9415C42.8297 18.3456 48.4785 5.56096 44.2924 1.37463C40.1284 -2.78915 27.738 3.02468 18.1448 11.8487C17.955 12.0235 17.5809 12.3545 16.9117 12.2148L13.9228 11.5031C13.093 11.3057 11.9204 11.6375 11.3172 12.2407L0.350124 23.2076C-0.25307 23.811 -0.057094 24.4129 0.785673 24.5452L8.71784 25.7918C9.5606 25.9244 10.7436 25.5391 11.3467 24.9358C11.3467 24.9358 11.756 24.5254 12.1672 24.9365C14.4358 27.2049 18.6516 31.4206 20.813 33.5821C21.2426 34.0116 20.8311 34.4202 20.8311 34.4202C20.2278 35.0236 19.8427 36.2063 19.9753 37.0492L21.2217 44.9812C21.3541 45.8243 21.9561 46.0203 22.5593 45.4169L33.5265 34.4497C34.1296 33.8465 34.4614 32.6742 34.2638 31.8444L33.5808 28.9758ZM31.1254 14.8071C29.2679 12.9495 29.2679 9.93804 31.1254 8.08073C32.9829 6.22315 35.9943 6.22315 37.852 8.08073C39.7093 9.9379 39.7093 12.9495 37.852 14.8069C35.9943 16.6645 32.9827 16.6645 31.1254 14.8071Z" fill="#DB0909"/>
</svg>
