<svg width="28" height="23" viewBox="0 0 28 23" fill="none" xmlns="http://www.w3.org/2000/svg">
<g clip-path="url(#clip0_320_24)">
<path d="M28.0006 1.7868C27.8377 2.51124 27.6698 3.23497 27.5128 3.96085C26.3171 9.47939 25.1232 14.9977 23.931 20.5158C23.8434 20.919 23.7689 21.3259 23.6615 21.7248C23.3088 23.0383 22.3369 23.371 21.2211 22.5659C19.3094 21.1886 17.3993 19.8091 15.491 18.4274C14.9323 18.0241 14.9331 18.0234 14.4416 18.4864C13.5128 19.3616 12.5844 20.2368 11.6565 21.112C11.5118 21.2588 11.338 21.3745 11.1459 21.4521C10.9538 21.5296 10.7475 21.5673 10.54 21.5628C10.5663 21.1754 10.5897 20.7952 10.6174 20.4157C10.7386 18.7313 10.8569 17.0469 10.9906 15.364C11.0104 15.2189 11.0809 15.0853 11.1899 14.9859C15.048 11.5586 18.9094 8.13564 22.7743 4.71698C22.8086 4.68674 22.8539 4.66369 22.8751 4.62697C22.9481 4.49518 23.016 4.35836 23.0861 4.22298C22.9196 4.19057 22.7458 4.1128 22.5888 4.138C22.4085 4.16681 22.2325 4.26978 22.0726 4.36844C17.2788 7.32238 12.4875 10.2799 7.69867 13.2411C7.60245 13.3098 7.49053 13.354 7.37283 13.3698C7.25514 13.3856 7.1353 13.3726 7.02394 13.3318C5.0399 12.7096 3.04783 12.1076 1.06306 11.4897C0.794777 11.4069 0.541257 11.2832 0.31165 11.1232C-0.0658794 10.8553 -0.108233 10.4708 0.232055 10.1589C0.501394 9.90618 0.815156 9.70388 1.15799 9.56197C3.02592 8.83176 4.90554 8.13108 6.78077 7.42248C13.2019 4.99855 19.6231 2.57606 26.0443 0.155003C26.2294 0.0816257 26.4237 0.0331816 26.6219 0.0109782C27.328 -0.0559933 27.7676 0.260861 27.9465 0.936336C27.9604 0.987465 27.9823 1.03643 28.0006 1.08684V1.7868Z" fill="white"/>
</g>
<defs>
<clipPath id="clip0_320_24">
<rect width="28" height="23" fill="white"/>
</clipPath>
</defs>
</svg>
