<svg width="24" height="23" viewBox="0 0 24 23" fill="none" xmlns="http://www.w3.org/2000/svg">
<path d="M12.1977 0C5.9325 0 0.835327 5.03694 0.835327 11.2281C0.835327 17.4187 5.9325 22.4561 12.1977 22.4561C18.4624 22.4561 23.56 17.4187 23.56 11.2281C23.56 5.03694 18.4633 0 12.1977 0ZM17.2665 8.65827C17.2715 8.76953 17.2743 8.88169 17.2743 8.99385C17.2743 12.4089 14.6444 16.3455 9.83285 16.3455C8.35592 16.3455 6.98105 15.919 5.82403 15.1854C6.02862 15.2094 6.23686 15.2216 6.44785 15.2216C7.67352 15.2216 8.80078 14.8082 9.696 14.1154C8.5518 14.0946 7.58564 13.3474 7.25291 12.3203C7.41218 12.3502 7.57649 12.3669 7.74446 12.3669C7.98291 12.3669 8.21449 12.3361 8.43372 12.2769C7.23735 12.0399 6.33618 10.9956 6.33618 9.74281C6.33618 9.73196 6.33618 9.72065 6.33664 9.71025C6.68905 9.90337 7.09226 10.0201 7.52065 10.0332C6.81949 9.5705 6.35769 8.77903 6.35769 7.88262C6.35769 7.40865 6.4863 6.96452 6.71147 6.5828C8.00076 8.14675 9.9285 9.17521 12.1016 9.28376C12.0567 9.09426 12.0343 8.89752 12.0343 8.69445C12.0343 7.26754 13.205 6.11018 14.649 6.11018C15.4014 6.11018 16.0802 6.42405 16.558 6.92607C17.1543 6.81029 17.7127 6.59591 18.2194 6.29877C18.0226 6.90255 17.6093 7.40865 17.0678 7.72885C17.5974 7.66644 18.1027 7.52804 18.57 7.32226C18.2212 7.83966 17.7777 8.29509 17.2665 8.65827Z" fill="white"/>
</svg>
