<svg width="30" height="24" viewBox="0 0 30 24" fill="none" xmlns="http://www.w3.org/2000/svg">
<g clip-path="url(#clip0_320_28)">
<path d="M0 21.2958C3.36251 21.5929 6.33294 20.797 9.03413 18.8069C6.22186 18.5575 4.34824 17.1646 3.29631 14.5839C4.22907 14.6866 5.09784 14.7133 6.03207 14.4574C4.56084 14.1039 3.39267 13.397 2.49669 12.2888C1.60071 11.1806 1.1586 9.91923 1.16081 8.45759C2.01707 8.87975 2.87995 9.15733 3.83552 9.18046C1.13653 6.93956 0.514933 4.2794 2.01118 1.08432C5.37369 4.97408 9.5807 7.10293 14.6925 7.44124C14.6697 6.83909 14.6189 6.26657 14.6337 5.69551C14.7072 3.20522 16.6463 0.83999 19.1055 0.226996C21.3815 -0.341179 23.3767 0.166516 25.0912 1.75008C25.1417 1.80557 25.2075 1.84558 25.2805 1.86532C25.3536 1.88507 25.4309 1.88371 25.5032 1.8614C26.7933 1.57826 28.0309 1.10005 29.1717 0.443857C28.6891 1.87948 27.824 2.9139 26.636 3.72641C27.7887 3.62738 28.8745 3.29269 30 2.84812C29.2129 3.9852 28.336 4.93649 27.2723 5.71069C27.0031 5.90586 26.9332 6.11116 26.9398 6.43356C26.9987 9.21299 26.3727 11.85 25.1464 14.3475C23.6751 17.3453 21.536 19.7691 18.6443 21.5314C16.5845 22.7841 14.3438 23.5294 11.9457 23.841C9.85683 24.1207 7.73444 24.0435 5.67236 23.6126C3.70857 23.1979 1.83402 22.448 0.133883 21.397C0.109607 21.3803 0.0882742 21.3615 0 21.2958Z" fill="white"/>
</g>
<defs>
<clipPath id="clip0_320_28">
<rect width="30" height="24" fill="white"/>
</clipPath>
</defs>
</svg>
