<svg width="28" height="28" viewBox="0 0 28 28" fill="none" xmlns="http://www.w3.org/2000/svg">
<g clip-path="url(#clip0_320_13)">
<path d="M13.179 0H14.8201C14.8984 0.0204029 14.978 0.0357779 15.0583 0.046031C17.3628 0.214811 19.5087 0.896508 21.4456 2.14957C24.9199 4.39633 27.057 7.55639 27.7906 11.6437C27.8812 12.1551 27.9316 12.6666 28.0003 13.178V14.8183C27.9794 14.8968 27.9638 14.9767 27.9535 15.0573C27.8839 16.0571 27.7025 17.046 27.4129 18.0054C25.1559 25.5998 17.0376 29.7945 9.50387 27.2547C6.50852 26.2426 3.94468 24.2451 2.23085 21.5882C0.51702 18.9312 -0.245583 15.7718 0.0675177 12.6256C0.335667 9.84333 1.35346 7.34669 3.13114 5.18762C5.35085 2.48421 8.18359 0.8081 11.641 0.210427C12.1503 0.122019 12.6661 0.0730651 13.179 0ZM5.91857 13.0984C5.93026 12.9954 5.94414 12.9157 5.94706 12.8353C6.00466 11.3704 6.20805 9.9148 6.55423 8.49016C6.62072 8.21763 6.8085 7.89614 6.72302 7.68645C6.63242 7.4614 6.28463 7.34012 6.04862 7.17499L6.02671 7.15892L4.66989 6.11701C2.98208 8.13872 2.02931 10.4527 1.82035 13.0984H5.91857ZM4.66916 21.883C4.69975 21.8716 4.72933 21.8577 4.75757 21.8413C5.38592 21.3759 6.00917 20.9032 6.64484 20.4487C6.78001 20.3523 6.75443 20.2639 6.72229 20.1492C6.27045 18.5166 6.01246 16.8364 5.95364 15.1435C5.94633 14.9403 5.88058 14.8841 5.67818 14.8855C4.4675 14.8943 3.25608 14.8899 2.04539 14.8907C1.96976 14.8947 1.89439 14.9027 1.81962 14.9148C2.03443 17.5561 2.98355 19.8671 4.66916 21.883ZM21.2389 7.68133C21.2425 7.6996 21.2505 7.74271 21.2622 7.78508C21.7206 9.44415 21.9837 11.1511 22.0462 12.8711C22.0528 13.0604 22.1193 13.1174 22.3056 13.1159C23.5258 13.1086 24.746 13.1159 25.9662 13.1115C26.0275 13.1115 26.0889 13.0998 26.1781 13.0903C25.9662 10.4522 25.0192 8.13166 23.3373 6.1287L21.2389 7.68133ZM22.0784 14.9053C22.0345 15.454 21.9995 15.9786 21.9505 16.5025C21.8306 17.7433 21.605 18.9716 21.2761 20.174C21.2571 20.2471 21.2681 20.3713 21.3134 20.4049C21.9797 20.893 22.6541 21.3693 23.3314 21.8523C24.735 20.5313 26.3373 16.5938 26.1401 14.9053H22.0784ZM8.39621 8.48432C7.99985 9.9906 7.77364 11.5366 7.72182 13.0933H13.0979V9.62048C11.4775 9.51176 9.88748 9.12753 8.39621 8.48432ZM8.39621 19.4616C9.17289 19.2205 9.92473 18.9458 10.6985 18.7602C11.4722 18.5746 12.2869 18.4723 13.0899 18.332V14.9053H7.74885C7.65313 15.5979 8.05426 18.4124 8.39401 19.4616H8.39621ZM14.9034 13.0969H20.2795C20.2282 11.5395 20.001 9.99288 19.6022 8.48651C18.1121 9.12986 16.5229 9.51339 14.9034 9.62048V13.0969ZM20.2802 14.9155H14.9056V18.3876C16.5238 18.4893 18.1124 18.8685 19.6022 19.5084C19.9972 18.0072 20.2239 16.4668 20.278 14.9155H20.2802ZM14.9041 20.1762V26.0499C16.5057 25.7328 18.2578 23.4926 19.0213 21.2152C17.7224 20.626 16.3285 20.2739 14.9056 20.1755L14.9041 20.1762ZM19.0432 6.75779C18.9424 6.51887 18.854 6.2909 18.751 6.06878C18.1599 4.79599 17.4512 3.60649 16.3464 2.70122C15.9277 2.34276 15.436 2.0795 14.9056 1.92965V7.80481C15.8203 7.85596 18.089 7.28313 19.0432 6.75779ZM8.93689 6.76656C10.248 7.36646 11.6566 7.72463 13.095 7.82381V1.89312C10.8198 2.79474 9.84363 4.73023 8.93689 6.76656ZM8.93031 21.2386C9.1685 21.7398 9.37747 22.2235 9.62224 22.6882C10.1834 23.7535 10.8643 24.726 11.8493 25.4522C12.2196 25.7399 12.644 25.9501 13.0972 26.0703V20.174C11.656 20.278 10.2448 20.6385 8.93031 21.2386ZM19.0352 2.87073L20.6923 5.88904L22.0725 4.84129C21.1667 4.03316 20.1424 3.3686 19.0352 2.87073ZM22.074 23.1616L20.6931 22.1175C20.1217 23.1551 19.573 24.1531 19.0338 25.1337C20.1419 24.6354 21.1672 23.9703 22.074 23.1616ZM7.30681 5.88758L8.96465 2.86853C7.85793 3.36729 6.83411 4.03259 5.9288 4.84129C6.41541 5.21246 6.87718 5.56244 7.30681 5.88758ZM8.96246 25.13L7.30681 22.1131L5.92661 23.1616C6.83326 23.9671 7.85655 24.6307 8.96173 25.13H8.96246Z" fill="white"/>
</g>
<defs>
<clipPath id="clip0_320_13">
<rect width="28" height="28" fill="white"/>
</clipPath>
</defs>
</svg>
