<svg width="58" height="58" viewBox="0 0 58 58" fill="none" xmlns="http://www.w3.org/2000/svg">
<g clip-path="url(#clip0_3833_804)">
<path d="M19.2366 30.6313L28.1402 30.6313L28.1402 39.5349H30.6332L30.6332 30.6313L39.5368 30.6313L39.5368 28.1383L30.6332 28.1383V19.2347H28.1402V28.1383L19.2366 28.1383L19.2366 30.6313ZM17.5153 41.2562C15.8928 39.6338 14.6711 37.7888 13.85 35.7212C13.0289 33.6536 12.6183 31.5414 12.6183 29.3848C12.6183 27.2281 13.0289 25.116 13.85 23.0484C14.6711 20.9808 15.8928 19.1358 17.5153 17.5133C19.1575 15.8711 21.0124 14.6395 23.08 13.8184C25.1476 12.9973 27.2548 12.5916 29.4016 12.6015C31.5483 12.6114 33.6555 13.0269 35.7231 13.848C37.7907 14.6691 39.6357 15.8909 41.2582 17.5133C42.9004 19.1556 44.132 21.0105 44.9531 23.0781C45.7743 25.1457 46.1848 27.2479 46.1848 29.3848C46.1848 31.5217 45.7743 33.6239 44.9531 35.6915C44.132 37.7591 42.9004 39.614 41.2582 41.2562C39.6357 42.8787 37.7907 44.1004 35.7231 44.9215C33.6555 45.7427 31.5483 46.1582 29.4016 46.168C27.2548 46.1779 25.1476 45.7723 23.08 44.9512C21.0124 44.1301 19.1575 42.8985 17.5153 41.2562ZM19.296 39.4755C22.1056 42.2851 25.4741 43.6849 29.4016 43.675C33.329 43.6652 36.6877 42.2653 39.4774 39.4755C42.287 36.6659 43.6918 33.3024 43.6918 29.3848C43.6918 25.4672 42.287 22.1036 39.4774 19.2941C36.6877 16.5043 33.329 15.1044 29.4016 15.0945C25.4741 15.0847 22.1056 16.4845 19.296 19.2941C16.5062 22.0839 15.1113 25.4474 15.1113 29.3848C15.1113 33.3222 16.5062 36.6857 19.296 39.4755Z" fill="black"/>
</g>
<defs>
<clipPath id="clip0_3833_804">
<rect width="40.293" height="40.293" fill="black" transform="translate(29.3867 0.893311) rotate(45)"/>
</clipPath>
</defs>
</svg>
