<svg width="21" height="21" viewBox="0 0 21 21" fill="none" xmlns="http://www.w3.org/2000/svg">
<path d="M6.70691 8.86814L10.6815 4.89356L14.6561 8.86814L16.9665 6.55771L10.6815 0.272705L4.39648 6.55771L6.70691 8.86814Z" fill="black"/>
<path d="M2.76478 8.19323L0.457031 10.501L2.76478 12.8087L5.07253 10.501L2.76478 8.19323Z" fill="black"/>
<path d="M6.70691 12.1318L10.6815 16.1064L14.6561 12.1318L16.9665 14.4423L10.6815 20.7273L4.39648 14.4423L6.70691 12.1318Z" fill="black"/>
<path d="M18.5978 8.19347L16.29 10.5012L18.5978 12.809L20.9055 10.5012L18.5978 8.19347Z" fill="black"/>
<path d="M13.0243 10.5L10.6816 8.15723L8.95283 9.88601L8.74279 10.0799L8.33887 10.5L10.6816 12.8427L13.0243 10.5Z" fill="black"/>
</svg>
