<svg width="40" height="40" viewBox="0 0 40 40" fill="none" xmlns="http://www.w3.org/2000/svg">
<path d="M18.55 34.35H21.3V31.75C23.3333 31.5167 24.9167 30.8917 26.05 29.875C27.1833 28.8583 27.75 27.5 27.75 25.8C27.75 24.1 27.2667 22.7167 26.3 21.65C25.3333 20.5833 23.7 19.5667 21.4 18.6C19.4667 17.8 18.0667 17.0833 17.2 16.45C16.3333 15.8167 15.9 14.9667 15.9 13.9C15.9 12.8667 16.275 12.05 17.025 11.45C17.775 10.85 18.8 10.55 20.1 10.55C21.1 10.55 21.9667 10.7833 22.7 11.25C23.4333 11.7167 24.05 12.4167 24.55 13.35L26.95 12.2C26.3833 11.0333 25.6333 10.1167 24.7 9.45C23.7667 8.78333 22.6667 8.38333 21.4 8.25V5.7H18.65V8.25C16.95 8.48333 15.6083 9.10833 14.625 10.125C13.6417 11.1417 13.15 12.4 13.15 13.9C13.15 15.5333 13.65 16.8333 14.65 17.8C15.65 18.7667 17.15 19.6667 19.15 20.5C21.3833 21.4333 22.9167 22.275 23.75 23.025C24.5833 23.775 25 24.7 25 25.8C25 26.8667 24.5583 27.725 23.675 28.375C22.7917 29.025 21.6833 29.35 20.35 29.35C19.05 29.35 17.8917 28.9833 16.875 28.25C15.8583 27.5167 15.15 26.5167 14.75 25.25L12.2 26.1C12.9 27.6333 13.7583 28.8417 14.775 29.725C15.7917 30.6083 17.05 31.25 18.55 31.65V34.35ZM20 40C17.2667 40 14.6833 39.475 12.25 38.425C9.81667 37.375 7.69167 35.9417 5.875 34.125C4.05833 32.3083 2.625 30.1833 1.575 27.75C0.525 25.3167 0 22.7333 0 20C0 17.2333 0.525 14.6333 1.575 12.2C2.625 9.76667 4.05833 7.65 5.875 5.85C7.69167 4.05 9.81667 2.625 12.25 1.575C14.6833 0.525 17.2667 0 20 0C22.7667 0 25.3667 0.525 27.8 1.575C30.2333 2.625 32.35 4.05 34.15 5.85C35.95 7.65 37.375 9.76667 38.425 12.2C39.475 14.6333 40 17.2333 40 20C40 22.7333 39.475 25.3167 38.425 27.75C37.375 30.1833 35.95 32.3083 34.15 34.125C32.35 35.9417 30.2333 37.375 27.8 38.425C25.3667 39.475 22.7667 40 20 40ZM20 37C24.7333 37 28.75 35.3417 32.05 32.025C35.35 28.7083 37 24.7 37 20C37 15.2667 35.35 11.25 32.05 7.95C28.75 4.65 24.7333 3 20 3C15.3 3 11.2917 4.65 7.975 7.95C4.65833 11.25 3 15.2667 3 20C3 24.7 4.65833 28.7083 7.975 32.025C11.2917 35.3417 15.3 37 20 37Z" fill="#616161"/>
</svg>
