<svg width="218" height="397" viewBox="0 0 218 397" fill="none" xmlns="http://www.w3.org/2000/svg">
<g clip-path="url(#clip0)">
<path d="M105.511 186.729C88.5511 186.729 72.7273 180.945 60.1494 169.865C43.6763 155.445 34.182 133.122 34.2632 108.6C34.2632 59.6361 71.1043 14.5831 116.304 8.22848L116.385 8.79877L116.304 8.22848C137.24 5.29555 157.121 10.9985 172.377 24.3596C188.85 38.7798 198.344 61.1841 198.263 85.6251C198.182 134.589 161.341 179.642 116.141 185.996C112.571 186.485 109 186.729 105.511 186.729ZM127.015 8.63583C123.526 8.63583 120.037 8.88024 116.466 9.36906C71.8347 15.6423 35.3993 60.2064 35.3181 108.6C35.237 132.796 44.569 154.793 60.7985 168.969C75.8109 182.086 95.3676 187.707 115.979 184.774C160.61 178.501 197.046 133.937 197.127 85.5436C197.208 61.347 187.876 39.3501 171.647 25.1743C159.231 14.3387 143.651 8.63583 127.015 8.63583Z" fill="#000"/>
<path d="M72.3216 178.42C72.2404 178.42 72.2404 178.42 72.3216 178.42L58.6887 170.924C34.7501 157.889 20.5492 131.737 20.5492 101.104C20.5492 99.6379 20.6303 98.09 20.6303 96.5421C20.6303 96.2162 20.6303 95.9718 20.7115 95.7274L20.7926 94.7497C20.8738 93.8536 20.8738 92.9574 20.9549 92.0612C20.9549 91.6539 21.0361 91.328 21.1172 90.9206L21.2795 89.6986C21.3607 88.9654 21.4418 88.2321 21.523 87.5804C21.6041 87.173 21.6853 86.7657 21.6853 86.3583L21.8476 85.1363C21.9287 84.4845 22.0099 83.8327 22.1722 83.181C22.2533 82.7736 22.3344 82.3663 22.4156 81.9589L22.659 80.6554C22.7402 80.0851 22.9025 79.4334 23.0648 78.8631C23.1459 78.3743 23.3082 77.9669 23.3894 77.5595L23.7951 76.1746C23.9574 75.6043 24.1197 74.9525 24.282 74.3822C24.4443 73.8934 24.5254 73.486 24.6877 73.0787L25.0123 71.9381C25.1746 71.3678 25.3369 70.7161 25.5804 70.1458C25.7427 69.6569 25.905 69.2496 26.0673 68.7608L26.473 67.5387C26.6353 67.1314 26.7976 66.6426 26.9599 66.2352L27.041 65.9908C27.041 65.6649 27.1222 65.4205 27.2033 65.1761L27.3656 64.6873C27.6902 63.7911 28.0959 62.8949 28.4205 61.9988C28.5828 61.6729 28.7451 61.2655 28.9074 60.9396L29.0697 60.6138C29.3943 59.7991 29.8001 58.9844 30.1246 58.1697C30.3681 57.6808 30.6115 57.192 30.7738 56.7032C31.1796 55.8885 31.5853 55.0738 31.9099 54.3406L32.0722 54.0962C32.2345 53.6888 32.4779 53.3629 32.6402 52.9556L32.9648 52.3853C33.4517 51.4076 34.0197 50.5115 34.5066 49.5338C35.1558 48.3118 35.8861 47.2527 36.5353 46.1121C36.6976 45.7862 36.9411 45.5418 37.1034 45.2159C37.6714 44.2383 38.2394 43.4236 38.8886 42.5274L39.619 41.4683C39.7001 41.3053 39.7812 41.2239 39.8624 41.0609C39.9435 40.9795 40.0247 40.8165 40.1058 40.7351C40.9173 39.513 41.8099 38.3724 42.7026 37.3133C43.0272 36.906 43.3518 36.4986 43.6763 36.0098C44.569 34.8692 45.4616 33.8101 46.4354 32.6695L46.6788 32.4251C46.76 32.3436 46.8411 32.1807 47.0034 32.0992L47.8149 31.2845C48.5452 30.4698 49.2756 29.6551 50.0059 28.9219L50.6551 28.2701C51.5477 27.374 52.4403 26.4778 53.4141 25.5816L53.9821 25.0928C54.469 24.6854 54.9559 24.1966 55.4428 23.7893C55.6051 23.6263 55.7674 23.4634 55.9297 23.3005L56.2543 22.9746C56.5789 22.6487 56.8223 22.4858 57.1469 22.2413C58.0395 21.5081 58.851 20.7749 59.7436 20.0416L60.1494 19.7158C61.1231 18.9011 62.1781 18.1678 63.233 17.3531L64.5314 16.457C64.7748 16.2126 65.0994 16.0496 65.3428 15.8867C65.5051 15.7237 65.7486 15.6423 65.9109 15.4793L66.3166 15.2349C66.8035 14.909 67.2904 14.5831 67.7773 14.2573C68.4265 13.8499 69.1568 13.3611 69.806 12.9537L69.8871 12.8723C70.2929 12.6279 70.7798 12.302 71.1855 12.0576C71.9158 11.6502 72.6462 11.2429 73.3765 10.8355L73.7822 10.5911C74.1068 10.4282 74.4314 10.2652 74.756 10.0208C75.5675 9.61347 76.379 9.20612 77.1904 8.79877L77.6773 8.55436C77.9208 8.39142 78.1642 8.30995 78.4888 8.14701L78.7322 8.06554C79.7872 7.57672 80.8421 7.0879 81.9782 6.59908L82.8708 6.2732C83.7634 5.86585 84.7372 5.53997 85.6298 5.21409C85.9544 4.96968 86.279 4.88821 86.6847 4.72527C87.7397 4.31792 88.7946 3.99203 89.8495 3.66615L90.3364 3.50321C91.4725 3.17733 92.6897 2.85145 93.9881 2.4441L95.043 2.19969C96.0168 1.95528 96.9094 1.79234 97.8832 1.54793L98.1266 1.46646C98.4512 1.38499 98.6946 1.30352 99.0192 1.30352C100.48 1.05911 101.697 0.8147 102.833 0.65176C103.969 0.48882 105.105 0.32588 106.241 0.24441C106.485 0.24441 106.728 0.162939 106.972 0.162939H107.296C108.108 0.0814694 108.838 0.0814694 109.65 -7.45058e-07C110.055 -7.45058e-07 110.461 -7.45058e-07 110.867 -0.0814709C111.597 -0.0814709 112.409 -0.162941 113.139 -0.162941H113.464C113.707 -0.162941 113.95 -0.162941 114.194 -0.162941C115.168 -0.162941 116.06 -0.162941 116.953 -0.0814709H117.44C118.495 -7.45058e-07 119.631 0.0814694 120.686 0.162939C120.848 0.162939 121.091 0.24441 121.254 0.24441L121.578 0.32588C122.309 0.40735 123.12 0.48882 123.85 0.65176C124.256 0.73323 124.581 0.73323 124.987 0.8147C125.717 0.89617 126.366 1.05911 127.096 1.22205L127.34 1.30352C127.583 1.38499 127.908 1.38499 128.151 1.46646C128.963 1.6294 129.774 1.79234 130.505 2.03675L130.748 2.11822C130.829 2.11822 130.991 2.19969 131.073 2.19969V2.85145L131.235 2.28116C132.29 2.52557 133.264 2.85145 134.319 3.17733L135.13 3.42174C135.86 3.66615 136.672 3.91056 137.402 4.15497C137.727 4.23644 138.051 4.39938 138.376 4.56233C139.025 4.80674 139.755 5.13262 140.405 5.37703L140.648 5.4585C140.892 5.53997 141.135 5.62144 141.378 5.78438C142.271 6.19173 143.083 6.51761 143.894 6.92496L144.137 7.0879C145.03 7.49525 145.842 7.98407 146.653 8.39142L160.286 15.8052L159.718 16.8643H159.637C158.825 16.457 158.095 16.0496 157.283 15.6423L156.959 15.4793C156.147 15.072 155.336 14.6646 154.443 14.3387C154.2 14.2573 153.956 14.1758 153.794 14.0129L153.551 13.9314C152.901 13.687 152.252 13.3611 151.522 13.1167C151.197 12.9537 150.873 12.8723 150.548 12.7093C149.818 12.4649 149.087 12.2205 148.357 11.9761L147.627 11.7317C146.653 11.4058 145.598 11.1614 144.624 10.8355L143.975 10.6726C143.164 10.5096 142.433 10.2652 141.622 10.1023C141.378 10.0208 141.054 10.0208 140.81 9.93935L140.567 9.85788C139.837 9.69494 139.187 9.61347 138.457 9.45053C138.133 9.36906 137.727 9.36906 137.402 9.28759C136.672 9.20612 135.942 9.04318 135.13 8.96171H134.156C133.101 8.88024 132.046 8.79877 130.992 8.7173H130.505C129.612 8.63583 128.638 8.63583 127.746 8.63583C127.502 8.63583 127.259 8.63583 127.015 8.63583H126.691C125.96 8.63583 125.23 8.63583 124.419 8.7173C124.013 8.7173 123.607 8.7173 123.282 8.79877C122.552 8.79877 121.741 8.88024 120.929 8.96171H120.605C120.361 8.96171 120.118 8.96171 119.874 9.04318C118.738 9.12465 117.602 9.28759 116.547 9.45053C115.411 9.61347 114.275 9.77641 112.814 10.1023C112.49 10.1838 112.246 10.1838 111.922 10.2652H111.759C110.786 10.4282 109.893 10.6726 109 10.917L108.676 10.9985C108.432 11.0799 108.189 11.0799 107.945 11.1614C106.647 11.4873 105.43 11.8132 104.294 12.139L103.807 12.302C102.752 12.6279 101.697 12.9537 100.723 13.3611C100.399 13.524 99.993 13.6055 99.6684 13.7684C98.7758 14.0943 97.8831 14.5017 96.9094 14.8276L96.0167 15.072C94.8807 15.5608 93.7446 16.0496 92.6085 16.6199C92.3651 16.7014 92.1217 16.8643 91.8782 17.0273L91.3913 17.2717C90.5798 17.679 89.7684 18.0864 89.038 18.4937C88.7134 18.6567 88.3888 18.8196 88.0643 19.064L87.6585 19.3084C86.9282 19.7158 86.1979 20.1231 85.5487 20.5305C85.0618 20.7749 84.656 21.1008 84.1692 21.3452C83.4388 21.834 82.7896 22.2413 82.0593 22.6487C81.5724 22.9746 81.0855 23.3005 80.5986 23.6263C79.8683 24.1152 79.138 24.604 78.4077 25.1743L77.5962 25.7446C76.5413 26.4778 75.5675 27.2925 74.5937 28.0257L74.188 28.3516C73.2953 29.0848 72.4839 29.7366 71.5912 30.4698C71.2666 30.7142 71.0232 30.9586 70.6986 31.2031C69.8871 31.9363 69.0756 32.6695 68.3453 33.4027L67.8584 33.8101C66.9658 34.7063 66.0732 35.6024 65.1805 36.4986L64.5314 37.1504C63.801 37.8836 63.0707 38.6983 62.3404 39.513L61.8535 40.0833C61.6912 40.2462 61.61 40.4092 61.4477 40.5721L61.1231 40.898C60.2305 41.9571 59.2567 43.0977 58.3641 44.2383C58.0395 44.6456 57.7149 45.053 57.3903 45.4603C56.4977 46.6009 55.6862 47.7415 54.8748 48.8821L54.5502 49.2894C54.3879 49.4524 54.3067 49.6968 54.1444 49.8597L53.6575 50.5929C53.0895 51.4076 52.5215 52.3038 51.9534 53.2L51.3854 54.0962C50.7362 55.1553 50.0059 56.2958 49.4378 57.355C48.7887 58.577 48.1395 59.6361 47.5714 60.7767C47.4092 61.1026 47.1657 61.5099 47.0034 61.8358L46.8411 62.1617C46.4354 62.9764 46.0296 63.7096 45.705 64.5243C45.4616 65.0131 45.2182 65.502 45.0559 65.9908C44.6501 66.8055 44.3255 67.6202 44.0009 68.3534L43.9198 68.5978C43.7575 69.0052 43.5952 69.4125 43.4329 69.8199C43.0272 70.7161 42.7026 71.6122 42.378 72.5084L42.2157 72.9972C42.1345 73.2416 42.0534 73.4046 41.9722 73.649C41.8099 74.2193 41.5665 74.7081 41.4042 75.2784L40.755 76.5819C40.5927 77.0707 40.4304 77.4781 40.2681 77.9669C40.1058 78.5372 39.9435 79.1075 39.7812 79.6778L39.4567 80.8998C39.2944 81.3072 39.2132 81.7145 39.0509 82.2033C38.8886 82.7736 38.7263 83.3439 38.6452 83.9142L38.3206 85.2177C38.2394 85.6251 38.0771 86.0324 37.996 86.5213C37.8337 87.0915 37.7526 87.6618 37.5903 88.3136L37.3468 89.6171C37.2657 90.0245 37.1845 90.4318 37.1034 90.8392C37.0222 91.4909 36.8599 92.0612 36.7788 92.713L36.5353 94.0165C36.4542 94.4239 36.373 94.8312 36.373 95.1571C36.2919 95.8903 36.2107 96.5421 36.1296 97.2753L35.9673 98.4974C35.8861 98.8232 35.8861 99.2306 35.8861 99.5565C35.805 100.371 35.7239 101.267 35.7239 102.082L35.6427 103.223C35.6427 103.467 35.5616 103.793 35.5616 104.037C35.4804 105.504 35.4804 107.052 35.4804 108.518C35.3993 138.744 49.4378 164.407 72.9707 177.279L72.3216 178.42ZM113.869 1.22205C113.707 1.22205 113.545 1.22205 113.382 1.22205H113.058C112.327 1.22205 111.597 1.22205 110.786 1.30352C110.38 1.30352 109.974 1.30352 109.65 1.38499C108.919 1.38499 108.108 1.46646 107.296 1.54793H106.972C106.728 1.54793 106.485 1.54793 106.241 1.6294C105.105 1.71087 103.969 1.87381 102.914 2.03675C101.778 2.19969 100.642 2.36263 99.1815 2.68851C98.8569 2.76998 98.6135 2.76998 98.2889 2.85145L98.0454 2.93292C97.0717 3.09586 96.179 3.34027 95.2864 3.58468L94.3126 3.82909C93.0143 4.15497 91.7971 4.48086 90.661 4.80674L90.1741 4.96968C89.1192 5.29556 88.0643 5.62144 87.0905 6.02879C86.7659 6.19173 86.3601 6.2732 86.0356 6.43614C85.1429 6.76202 84.2503 7.16937 83.2765 7.49525L82.3839 7.82113C81.329 8.30995 80.2741 8.7173 79.2191 9.20612H78.9757C78.7322 9.28759 78.4888 9.45053 78.2454 9.61347L77.7585 9.77641C76.947 10.1838 76.1355 10.5911 75.4052 10.9985C75.0806 11.1614 74.756 11.3243 74.4314 11.5688L74.0257 11.8132C73.2953 12.2205 72.565 12.6279 71.9158 13.0352C71.5101 13.2796 71.0232 13.524 70.6175 13.8499H70.4552C69.806 14.2573 69.0756 14.6646 68.4265 15.1534C67.9396 15.4793 67.4527 15.8052 66.9658 16.1311L66.5601 16.3755C66.3978 16.457 66.2355 16.6199 65.992 16.7014C65.7486 16.8643 65.424 17.1087 65.1805 17.2717L63.9633 18.1678C62.9084 18.9011 61.9346 19.7158 60.9609 20.449L60.5551 20.7749C59.6625 21.5081 58.851 22.1599 57.9584 22.8931C57.7149 23.1375 57.3903 23.3819 57.1469 23.6263L56.7412 23.9522C56.5789 24.1152 56.4166 24.2781 56.2543 24.3596C55.7674 24.7669 55.2805 25.2557 54.8748 25.6631L54.3067 26.1519C53.4141 27.0481 52.5215 27.9443 51.6288 28.8404L50.9797 29.4922C50.2493 30.2254 49.519 31.0401 48.7887 31.8548L48.0583 32.6695C47.9772 32.751 47.896 32.9139 47.8149 32.9954C47.7337 33.0769 47.6526 33.2398 47.5714 33.3213C46.5977 34.3804 45.705 35.521 44.8124 36.6616C44.4878 37.0689 44.1632 37.4762 43.8386 37.9651C43.0272 39.1057 42.1345 40.2462 41.3231 41.3868C41.2419 41.4683 41.1608 41.6312 41.0796 41.7127C40.9985 41.7942 40.9173 41.9571 40.8362 42.0386L40.0247 43.2606C39.4567 44.1568 38.8886 44.9715 38.3206 45.8677C38.0771 46.1936 37.9148 46.5194 37.7526 46.7638C37.1034 47.823 36.373 48.9635 35.7239 50.1041C35.1558 51.0818 34.6689 51.9779 34.1009 52.9556L33.7763 53.5259C33.614 53.8517 33.3706 54.2591 33.2083 54.585L33.046 54.8294C32.6402 55.6441 32.2345 56.3773 31.9099 57.192C31.6665 57.6808 31.423 58.1697 31.2607 58.6585C30.855 59.4732 30.5304 60.2879 30.2058 61.0211L30.0435 61.347C29.8812 61.6729 29.7189 62.0802 29.5566 62.4061C29.1509 63.3023 28.8263 64.1984 28.5017 65.0946L28.3394 65.5834C28.2582 65.8279 28.1771 65.9908 28.096 66.2352L28.0148 66.4796C27.8525 66.887 27.6902 67.3758 27.5279 67.7831L27.1222 69.0052C26.9599 69.494 26.7976 69.9014 26.6353 70.3902C26.473 70.9605 26.3107 71.5308 26.0673 72.1825L25.7427 73.3231C25.5804 73.7305 25.4992 74.2193 25.3369 74.6266C25.1746 75.1969 25.0123 75.7672 24.85 76.419L24.6066 77.7225C24.5254 78.1298 24.3631 78.6187 24.282 79.026C24.1197 79.5963 24.0386 80.1666 23.8763 80.8183L23.6328 82.2033C23.5517 82.6107 23.4705 83.018 23.3894 83.4254C23.3082 84.0772 23.1459 84.7289 23.0648 85.3807L22.8213 86.6842C22.7402 87.0916 22.659 87.4989 22.659 87.9062C22.5779 88.6395 22.4967 89.2912 22.4156 90.0245L22.2533 91.2465C22.1722 91.5724 22.1722 91.9798 22.1722 92.3056C22.091 93.2018 22.0099 94.098 22.0099 94.9941L21.9287 95.9718C21.9287 96.2162 21.8476 96.5421 21.8476 96.7865C21.7664 98.3344 21.7664 99.8009 21.7664 101.267C21.6853 131.493 35.7239 157.156 59.2567 170.028L61.6912 171.332C44.2444 157.074 34.182 134.507 34.2632 108.681C34.2632 107.215 34.3443 105.667 34.3443 104.119C34.3443 103.793 34.3443 103.549 34.4255 103.304L34.5066 102.164C34.5878 101.267 34.5878 100.453 34.6689 99.6379C34.6689 99.2306 34.7501 98.9047 34.8312 98.4974L34.9935 97.2753C35.0747 96.5421 35.1558 95.8088 35.237 95.0756C35.3181 94.6683 35.3993 94.2609 35.3993 93.8536L35.6427 92.55C35.7239 91.8983 35.805 91.2465 35.9673 90.6762C36.0484 90.2689 36.1296 89.8615 36.2107 89.3727L36.4542 88.0692C36.5353 87.4989 36.6976 86.8471 36.8599 86.2768C36.9411 85.8695 37.1034 85.3807 37.1845 84.9733L37.5091 83.6698C37.6714 83.0995 37.8337 82.5292 37.996 81.8775C38.0771 81.4701 38.2394 80.9813 38.4017 80.5739L38.7263 79.3519C38.8886 78.7816 39.0509 78.2113 39.2944 77.641C39.4567 77.1522 39.619 76.6634 39.7812 76.256L40.187 75.1154C40.3493 74.5452 40.5927 73.9749 40.755 73.4046C40.8362 73.1602 40.9173 72.9157 40.9985 72.7528L41.1608 72.264C41.4854 71.3678 41.8911 70.4716 42.2157 69.5755C42.378 69.1681 42.5403 68.7608 42.7026 68.3534L42.7837 68.109C43.1083 67.2943 43.5141 66.4796 43.8386 65.6649C44.0821 65.1761 44.3255 64.6873 44.4878 64.1984C44.8936 63.3837 45.2993 62.6505 45.6239 61.8358L45.7862 61.5099C45.9485 61.1841 46.1919 60.7767 46.3542 60.4508C46.9223 59.3102 47.5714 58.1697 48.2206 57.0291C48.951 55.807 49.6001 54.7479 50.2493 53.6073L50.8174 52.6297C51.3854 51.7335 51.9534 50.8374 52.5215 50.0227L53.0084 49.2894C53.1707 49.045 53.333 48.8821 53.4141 48.6377L53.7387 48.2303C54.5502 47.0897 55.4428 45.8677 56.3354 44.7271C56.66 44.3197 56.9846 43.9124 57.3092 43.4236C58.2018 42.283 59.1756 41.1424 60.0682 40.0833L60.3928 39.6759C60.5551 39.513 60.7174 39.3501 60.7986 39.1871L61.3666 38.6168C62.0969 37.8021 62.8273 36.9874 63.5576 36.2542L64.2068 35.6024C65.0994 34.7063 65.992 33.8101 66.9658 32.9139L67.4527 32.5066C68.2642 31.7733 69.0756 31.0401 69.8871 30.3069C70.2117 30.0625 70.4552 29.8181 70.7798 29.5737C71.6724 28.8404 72.4839 28.1072 73.3765 27.374L73.7822 27.0481C74.756 26.2334 75.8109 25.5001 76.8658 24.6854L77.7585 24.0337C78.4888 23.5449 79.2191 22.9746 79.9495 22.4858C80.4363 22.1599 80.9232 21.834 81.4101 21.5081C82.0593 21.1008 82.7896 20.6119 83.4388 20.2046C83.9257 19.8787 84.4126 19.6343 84.8995 19.3084C85.6298 18.9011 86.3601 18.4937 87.0905 18.0864L87.4962 17.842C87.8208 17.679 88.1454 17.4346 88.47 17.2717C89.2815 16.8643 90.0929 16.457 90.9044 16.0496L91.3913 15.8052C91.6348 15.6423 91.8782 15.5608 92.1217 15.3979C93.2577 14.8276 94.3938 14.3387 95.5299 13.8499L96.4225 13.524C97.3151 13.1167 98.2889 12.7908 99.1815 12.4649C99.5061 12.302 99.9118 12.2205 100.236 12.0576C101.291 11.6502 102.346 11.3243 103.401 10.9985L103.888 10.8355C105.024 10.5096 106.241 10.1838 107.54 9.77641C107.783 9.69494 108.027 9.69494 108.27 9.61347L108.595 9.532C109.568 9.28759 110.461 9.12465 111.435 8.88024H111.597C111.922 8.79877 112.165 8.7173 112.49 8.7173C113.95 8.47289 115.168 8.22848 116.304 8.06554C117.44 7.9026 118.576 7.73966 119.712 7.65819C119.955 7.65819 120.199 7.57672 120.442 7.57672H120.767C121.578 7.49525 122.309 7.49525 123.12 7.41378C123.526 7.41378 123.932 7.41378 124.337 7.33231C125.068 7.33231 125.879 7.25084 126.61 7.25084H126.934C127.178 7.25084 127.421 7.25084 127.664 7.25084C128.638 7.25084 129.531 7.25084 130.423 7.33231H130.91C131.965 7.41378 133.101 7.49525 134.156 7.57672C134.319 7.57672 134.562 7.65819 134.724 7.65819L135.049 7.73966C135.779 7.82113 136.591 7.9026 137.321 8.06554C137.727 8.14701 138.051 8.14701 138.457 8.22848C139.187 8.30995 139.837 8.47289 140.567 8.63583L140.81 8.7173C141.054 8.79877 141.378 8.79877 141.622 8.88024C142.433 9.04318 143.245 9.20612 143.975 9.45053L144.705 9.61347C145.76 9.85788 146.734 10.1838 147.789 10.5096L148.438 10.7541L145.842 9.36906C145.03 8.96171 144.219 8.55436 143.407 8.14701L143.083 7.98407C142.271 7.57672 141.46 7.16937 140.567 6.84349C140.324 6.76202 140.08 6.68055 139.918 6.51761L139.674 6.43614C139.025 6.19173 138.376 5.86585 137.646 5.62144C137.321 5.4585 136.996 5.37703 136.672 5.21409C135.942 4.96968 135.211 4.72527 134.481 4.48086L133.751 4.23644C132.777 3.91056 131.722 3.66615 130.748 3.34027L130.261 3.2588C129.45 3.09586 128.719 2.85145 127.908 2.68851C127.664 2.60704 127.34 2.60704 127.096 2.52557H126.853C126.123 2.36263 125.473 2.28116 124.743 2.11822C124.419 2.03675 124.013 2.03675 123.688 1.95528C122.958 1.87381 122.228 1.71087 121.416 1.6294L120.523 1.54793C119.468 1.46646 118.414 1.38499 117.359 1.30352H116.872C115.979 1.22205 115.005 1.22205 114.113 1.22205C114.032 1.22205 113.95 1.22205 113.869 1.22205Z" fill="#000"/>
<path d="M162.479 91.2472C167.362 82.2358 165.098 71.5315 157.421 67.3385C149.745 63.1454 139.563 67.0514 134.68 76.0627C129.796 85.074 132.061 95.7783 139.737 99.9714C147.414 104.164 157.596 100.258 162.479 91.2472Z" fill="#000"/>
<path d="M167.427 31.6919C196.884 57.9253 198.101 108.192 170.267 144.202C170.105 144.365 170.024 144.528 169.861 144.772C169.699 145.017 169.537 145.18 169.456 145.343C167.508 147.705 167.265 148.031 167.021 148.276C166.778 148.52 166.697 148.683 166.534 148.846C166.372 149.009 166.291 149.172 166.129 149.253C165.317 150.231 165.155 150.394 164.992 150.557C163.613 152.023 163.451 152.268 163.207 152.431C162.801 152.919 162.639 153.082 162.477 153.164C162.233 153.408 161.99 153.653 161.747 153.897C161.097 154.549 160.367 155.201 159.718 155.852C159.231 156.341 158.663 156.83 158.095 157.319C157.283 158.052 156.391 158.785 155.498 159.519C143.488 169.458 129.693 175.568 115.898 177.442C108.757 178.42 101.535 178.338 94.6372 177.116C93.5823 176.953 92.5274 176.709 91.4725 176.464C87.4962 175.487 83.6011 174.183 79.7872 172.391C79.0568 172.065 78.3265 171.739 77.5962 171.332C74.6749 169.865 71.8347 168.073 69.0756 166.036C68.5888 165.629 68.1019 165.303 67.615 164.896C66.6412 164.162 65.6674 163.348 64.7748 162.533C63.5576 161.474 62.4215 160.333 61.2854 159.193C60.9608 158.867 60.6363 158.459 60.3117 158.134C58.6076 156.26 57.0657 154.386 55.6051 152.349C55.3616 152.023 55.1182 151.616 54.8748 151.29C53.5764 149.335 52.278 147.379 51.142 145.343C50.9797 145.017 50.7362 144.609 50.5739 144.284C49.6001 142.41 48.7075 140.536 47.896 138.581C47.7337 138.255 47.6526 137.929 47.4903 137.603C46.76 135.892 46.1919 134.1 45.6239 132.307C45.5427 131.982 45.4616 131.737 45.3804 131.493C44.8936 129.863 44.4067 128.234 44.0821 126.523C44.0009 126.279 44.0009 126.034 43.9198 125.708C43.5952 124.16 43.2706 122.613 43.0272 120.983C43.0272 120.739 42.946 120.494 42.946 120.25C42.7026 118.783 42.5403 117.236 42.378 115.688C42.378 115.443 42.378 115.28 42.2968 115.036C42.1345 113.651 42.0534 112.184 42.0534 110.799C42.0534 110.555 42.0534 110.392 42.0534 110.229C41.9722 108.681 41.9722 107.215 42.0534 105.667C42.0534 105.504 42.0534 105.259 42.0534 105.096C42.1345 103.63 42.1345 102.245 42.2968 100.779C42.2968 100.616 42.2968 100.453 42.2968 100.208C42.378 98.7418 42.5403 97.3568 42.7837 95.8903C43.0272 93.9351 43.2706 92.5501 43.5952 91.0836C43.9198 89.1283 44.2444 87.7433 44.6501 86.2769C45.137 84.4031 45.5427 82.9366 45.9485 81.4701C46.5165 79.5963 47.0034 78.0484 47.4903 76.5819C48.1395 74.7081 48.7887 73.1602 49.3567 71.6937C50.1682 69.8199 50.8174 68.272 51.5477 66.8055C52.4403 64.9317 53.2518 63.3838 54.1444 61.9173C56.7412 57.355 59.419 53.2 62.5838 49.2894C77.2716 30.6328 96.8282 19.5528 116.385 16.7828C134.805 14.1758 153.145 18.9011 167.427 31.6919ZM169.05 144.447C175.947 135.566 181.222 125.871 184.711 115.443C188.038 105.341 189.661 95.0756 189.418 84.8104C189.175 74.5452 187.227 64.8502 183.413 55.97C179.518 46.7638 173.919 38.8612 166.778 32.5066C153.145 20.3675 135.211 15.072 116.385 17.7605C106.566 19.1455 96.9905 22.5672 87.9831 27.9443C78.6511 33.4842 70.2929 40.898 63.3141 49.8597C60.3928 53.6073 57.7149 57.5994 55.3616 61.6729C76.8658 63.8726 85.711 82.7737 95.043 102.571C101.941 117.236 109 132.307 121.659 141.025C123.607 142.328 125.636 143.469 127.827 144.447C128.314 144.691 128.882 144.854 129.45 145.098C130.991 145.669 132.614 146.157 134.319 146.646C134.887 146.809 135.536 146.972 136.104 147.054C139.35 147.217 142.839 147.217 146.41 147.054C152.333 146.565 158.582 145.832 165.074 144.935C166.372 144.854 167.752 144.609 169.05 144.447ZM46.9223 81.5516C46.5165 83.0181 46.1108 84.4845 45.705 85.951C52.1969 86.5213 58.3641 88.0692 64.4502 90.5948C78.3265 96.3792 87.4151 108.111 96.179 119.435C103.077 128.315 109.731 136.87 118.332 142.084C118.576 142.247 118.9 142.41 119.144 142.573C119.55 142.817 119.874 142.98 120.28 143.224C120.442 143.306 120.605 143.387 120.686 143.469C120.848 143.55 120.929 143.55 121.01 143.632C124.581 145.424 128.476 146.565 132.858 146.972C132.696 146.891 132.452 146.891 132.29 146.809C116.06 142.654 106.647 129.863 96.7471 116.339C87.9831 104.363 78.9757 92.0612 64.7748 85.951C59.0944 83.4254 53.1706 82.0404 46.9223 81.5516ZM43.2706 100.941C43.1895 102.408 43.1083 103.793 43.0272 105.259C50.7362 106.889 57.228 109.251 62.3404 111.207C76.2167 116.339 86.7659 123.835 96.8282 131.167C110.705 141.188 122.633 149.742 139.918 149.579C140.567 149.579 141.216 149.579 141.946 149.498C140.729 149.498 139.512 149.498 138.376 149.416C136.104 149.335 133.913 149.09 131.803 148.683C118.17 146.157 107.945 137.603 97.1528 128.723C87.1716 120.494 76.8658 111.94 62.7461 106.563C57.1469 104.445 50.7362 102.245 43.2706 100.941ZM43.0272 109.333C43.0272 109.659 43.0272 110.066 43.0272 110.392C50.4116 112.347 56.7412 114.466 61.8535 116.258C75.2429 120.983 85.711 127.501 95.8545 133.855C110.786 143.143 123.688 151.209 141.46 150.149C142.352 150.068 143.245 150.068 144.137 149.987C142.596 149.987 141.216 150.068 139.837 150.068C136.51 150.068 133.345 149.824 130.342 149.253C117.764 146.891 107.702 139.64 96.5036 131.574C86.3601 124.323 75.8921 116.747 62.0969 111.696C57.0658 109.822 50.5739 107.459 42.946 105.83C43.0272 107.052 43.0272 108.192 43.0272 109.333ZM43.1083 111.044C43.1895 112.51 43.2706 113.895 43.3518 115.28C48.0583 116.665 52.278 118.213 56.2543 119.598C58.0395 120.25 59.7436 120.82 61.3666 121.39C74.0257 125.708 84.7372 131.411 94.1503 136.462C110.461 145.18 124.581 152.756 143.001 150.72C144.137 150.638 145.192 150.475 146.328 150.312C144.543 150.394 143.001 150.557 141.46 150.638C136.996 150.883 132.858 150.638 128.963 149.824C117.034 147.542 106.891 141.269 95.611 134.263C85.5487 127.99 75.0806 121.472 61.6912 116.747C56.66 115.117 50.4116 112.999 43.1083 111.044ZM47.8149 78.7001C47.5714 79.5148 47.2469 80.3295 47.0846 81.1442C53.4141 81.6331 59.3379 83.0181 65.0182 85.5436C79.3003 91.7354 88.3077 104.119 97.0717 116.013C104.05 125.545 110.786 134.752 119.793 140.699C109.974 133.937 103.077 123.346 96.2602 112.999C87.9831 100.208 79.3003 87.0101 65.2617 80.7369C59.9871 78.3743 54.469 77.0707 48.4641 76.6634C48.2206 77.3966 48.0583 78.0484 47.8149 78.7001ZM44.0821 120.576C47.2469 121.635 50.1682 122.775 53.0084 123.753C55.7674 124.812 58.4453 125.708 60.9608 126.605C72.4839 130.434 82.5462 134.996 91.4725 139.069C109.325 147.217 124.743 154.304 143.813 151.616C144.056 151.616 144.3 151.534 144.543 151.534C145.842 151.371 147.14 151.127 148.438 150.883C148.357 150.883 148.276 150.883 148.114 150.801C147.627 150.883 147.059 150.964 146.572 151.046C145.355 151.209 144.137 151.371 143.001 151.453C137.321 152.023 131.965 151.779 126.934 150.801C115.492 148.683 105.268 143.143 93.9069 137.114C84.0069 131.819 73.7822 126.36 61.2043 122.042C59.5813 121.472 57.8772 120.902 56.092 120.25C52.1969 118.865 48.0583 117.398 43.514 116.013C43.5952 117.48 43.8386 119.028 44.0821 120.576ZM44.1632 121.309C44.4067 122.938 44.7313 124.486 45.137 126.116C46.6788 126.686 48.1395 127.256 49.519 127.827C53.4141 129.293 56.9846 130.76 60.3928 131.819C70.2117 134.915 78.7322 138.255 87.0093 141.514C107.053 149.335 123.12 155.608 142.271 152.919C143.488 152.756 144.787 152.512 146.085 152.268C147.546 151.942 149.006 151.616 150.548 151.29C150.467 151.29 150.305 151.29 150.224 151.209C148.357 151.616 146.491 151.942 144.624 152.186C144.381 152.186 144.137 152.268 143.894 152.268C136.834 153.245 130.342 152.919 124.013 151.779C112.977 149.742 102.59 144.935 91.1479 139.721C81.8159 135.485 72.1593 131.004 60.6363 127.256C58.1207 126.442 55.5239 125.464 52.6838 124.405C50.0059 123.346 47.1657 122.287 44.1632 121.309ZM50.4116 71.8566C49.7624 73.3231 49.1944 74.7896 48.6264 76.3375C54.6313 76.7449 60.2305 78.0484 65.424 80.411C79.5437 86.6842 88.2265 99.9638 96.5848 112.755C101.697 120.576 106.891 128.56 113.382 134.915C106.323 127.827 101.048 118.621 95.7733 109.659C87.8208 96.0533 79.6249 82.0404 65.7486 75.6043C61.042 73.4046 55.9297 72.1825 50.4116 71.8566ZM45.2993 126.849C45.705 128.56 46.1919 130.189 46.6788 131.9C51.3854 133.855 55.7674 135.648 59.8248 136.87C66.9658 139.069 73.5388 141.269 79.8683 143.387C102.184 150.883 120.361 156.993 140.405 154.141C142.758 153.816 145.111 153.327 147.546 152.756C149.169 152.349 150.792 151.942 152.496 151.453C152.333 151.453 152.252 151.453 152.09 151.371C150.061 151.86 148.033 152.349 146.085 152.756C144.787 153.001 143.488 153.245 142.271 153.408C134.4 154.549 127.096 154.141 119.874 152.756C109.244 150.72 98.6946 146.646 86.7659 142.002C78.4888 138.744 69.9683 135.403 60.1494 132.307C56.8223 131.248 53.1706 129.863 49.2755 128.315C47.9772 127.908 46.6788 127.338 45.2993 126.849ZM52.6026 66.887C51.8723 68.3534 51.142 69.9014 50.5739 71.4493C56.092 71.7752 61.2043 73.0787 65.992 75.2784C79.9495 81.7145 88.1454 95.8089 96.179 109.414C100.399 116.665 104.7 124.079 109.974 130.352C104.294 123.183 99.8307 114.628 95.4487 106.237C87.5774 91.1651 80.1118 76.9078 66.3978 70.3902C62.0969 68.4349 57.6338 67.2943 52.6026 66.887ZM45.6239 86.4398C45.2993 87.9063 44.9747 89.3727 44.6501 90.7577C51.142 91.491 57.3903 93.1204 63.9633 95.7274C77.8396 101.349 87.2528 112.184 96.3413 122.694C98.6946 125.383 100.967 128.071 103.32 130.597C105.592 132.715 107.945 134.67 110.299 136.544C105.105 131.737 100.561 125.79 95.8545 119.761C87.0905 108.518 78.0831 96.7865 64.2879 91.0836C58.2018 88.558 52.0346 87.0101 45.6239 86.4398ZM47.0034 132.715C47.5714 134.507 48.3018 136.3 49.0321 138.092C52.6838 139.64 56.1731 141.025 59.3379 141.921C62.2592 142.736 65.0994 143.632 67.8584 144.447C95.1241 152.594 115.979 158.867 137.808 155.771C141.541 155.282 145.274 154.467 149.087 153.327C150.873 152.838 152.658 152.268 154.443 151.616C154.281 151.616 154.2 151.616 154.038 151.534C151.928 152.186 149.737 152.756 147.627 153.245C145.192 153.816 142.758 154.304 140.405 154.63C131.316 155.934 122.633 155.364 113.788 153.734C102.995 151.697 91.9594 148.031 79.6249 143.876C73.2953 141.758 66.7223 139.558 59.5813 137.359C55.7674 136.3 51.4665 134.589 47.0034 132.715ZM55.1993 61.9988C54.3879 63.4652 53.5764 65.0132 52.7649 66.5611C57.7149 66.9684 62.2592 68.109 66.4789 70.1458C80.2741 76.6634 87.7397 90.9207 95.611 106.074C98.9381 112.429 102.265 118.783 106.16 124.649C101.859 117.887 98.2889 110.311 94.7995 102.815C85.5487 83.0181 76.7035 64.117 55.1993 61.9988ZM43.7575 96.0533C43.5952 97.5197 43.4329 98.9047 43.2706 100.371C50.8174 101.675 57.3092 103.874 62.8272 105.993C77.0281 111.37 87.3339 119.924 97.3963 128.234C102.265 132.307 107.053 136.218 112.084 139.558C108.919 137.114 105.998 134.181 103.077 131.085C101.129 129.293 99.1815 127.501 97.234 125.627C87.4962 116.421 77.3527 106.889 63.0707 101.267C58.2018 99.3936 51.71 97.1939 43.7575 96.0533ZM49.4378 139.069C50.3305 141.025 51.2231 142.98 52.278 144.772C54.5502 145.669 56.7412 146.483 58.851 147.054C87.7397 155.282 111.273 161.066 134.562 157.808C139.918 157.074 145.274 155.852 150.629 154.06C152.577 153.408 154.524 152.675 156.472 152.023C156.31 152.023 156.229 151.942 156.066 151.942C153.794 152.675 151.522 153.408 149.25 154.06C145.436 155.201 141.622 156.015 137.889 156.504C127.178 158.052 116.709 157.319 105.592 155.201C93.988 153.001 81.7347 149.335 67.7773 145.18C65.0182 144.365 62.1781 143.469 59.2567 142.654C56.092 141.758 52.8461 140.454 49.4378 139.069ZM52.8461 145.832C54.0633 147.868 55.2805 149.824 56.66 151.779C57.228 151.942 57.7149 152.105 58.283 152.268C84.4937 159.437 107.54 163.511 130.018 160.333C137.402 159.274 144.705 157.482 152.09 154.712C154.2 153.897 156.229 153.082 158.338 152.186C158.176 152.186 158.014 152.186 157.933 152.105C155.579 153.001 153.145 153.897 150.792 154.712C145.355 156.504 139.999 157.808 134.562 158.541C121.578 160.333 108.595 159.437 94.6372 156.749C83.4388 154.63 71.5101 151.453 58.6076 147.787C56.7412 147.216 54.7936 146.565 52.8461 145.832ZM44.569 91.2465C44.3255 92.713 44.0821 94.098 43.8386 95.5645C51.8723 96.705 58.3641 98.9047 63.3953 100.941C77.7585 106.563 87.8208 116.095 97.6397 125.383C98.2077 125.871 98.6946 126.442 99.2627 126.93C98.1266 125.708 97.0717 124.405 95.9356 123.183C86.847 112.755 77.515 101.919 63.7199 96.2977C57.228 93.6092 50.9797 91.9798 44.569 91.2465ZM57.4715 152.756C59.0133 154.793 60.6363 156.667 62.4215 158.541C86.0356 164.325 106.241 165.955 124.743 163.348C134.805 161.963 144.3 159.274 153.632 155.364C155.823 154.467 158.014 153.408 160.205 152.431C160.042 152.431 159.88 152.431 159.799 152.349C157.365 153.408 154.849 154.467 152.252 155.364C144.868 158.134 137.483 160.007 130.018 161.066C115.168 163.185 100.074 162.126 83.9257 159.03C75.5675 157.482 67.0469 155.364 58.0395 152.919C57.8772 152.919 57.6338 152.838 57.4715 152.756ZM161.747 152.756C161.828 152.594 161.747 152.594 161.584 152.512C158.988 153.734 156.391 154.875 153.794 156.015C144.381 159.926 134.805 162.614 124.743 164.081C109.65 166.199 93.5012 165.547 75.2429 162.126C71.4289 161.392 67.5338 160.578 63.4764 159.6C64.2068 160.333 64.9371 160.985 65.6674 161.718C67.1281 163.022 68.5888 164.244 70.1306 165.384C87.2528 168.562 103.158 169.132 118.414 166.932C131.073 165.14 143.164 161.555 155.092 156.015C157.365 154.956 159.556 153.816 161.747 152.756ZM158.988 155.364C159.312 155.038 159.637 154.712 159.961 154.386C158.419 155.119 156.878 155.934 155.255 156.667C143.245 162.207 131.073 165.873 118.332 167.666C103.563 169.784 88.1454 169.295 71.6724 166.362C74.5126 168.317 77.5962 170.028 80.7609 171.495C91.4725 172.391 101.941 172.146 112.246 170.68C127.34 168.562 142.109 163.836 156.634 156.504C157.365 156.178 158.176 155.771 158.988 155.364ZM154.606 159.193C155.336 158.622 156.066 157.971 156.715 157.4C142.109 164.733 127.34 169.458 112.165 171.576C102.671 172.88 92.9331 173.287 83.1142 172.554C87.1716 174.183 91.3913 175.405 95.7733 176.138C99.3438 175.894 102.833 175.568 106.323 175.079C124.013 172.635 140.08 166.769 154.606 159.193ZM144.462 166.281C146.896 164.814 149.25 163.266 151.522 161.555C150.873 161.881 150.305 162.126 149.656 162.451C135.373 169.295 120.848 173.776 106.566 175.894C104.213 176.22 101.859 176.464 99.425 176.709C104.862 177.279 110.38 177.198 116.06 176.464C125.879 174.998 135.455 171.576 144.462 166.281ZM126.691 146.565C119.874 144.202 113.95 140.292 108.351 135.648C113.788 140.78 119.631 144.772 126.691 146.565ZM165.723 146.32C166.047 146.239 166.291 146.157 166.615 146.076C159.799 146.809 153.145 147.298 146.896 147.542C144.787 147.705 142.758 147.868 140.729 147.95C142.758 148.194 144.868 148.439 146.978 148.601C149.574 148.52 152.171 148.439 154.849 148.194C156.147 148.031 157.446 147.868 158.744 147.705C159.88 147.542 161.097 147.298 162.233 147.054C163.451 146.891 164.587 146.646 165.723 146.32ZM136.915 148.764C135.455 148.602 134.075 148.439 132.777 148.194C132.371 148.113 131.884 148.031 131.478 147.95C130.991 147.868 130.505 147.868 130.018 147.787C132.777 148.439 135.617 148.846 138.619 148.927C138.782 148.927 138.863 148.927 138.944 148.927C138.214 148.927 137.564 148.846 136.915 148.764ZM131.722 147.461C132.777 147.542 133.913 147.624 134.968 147.624C134.805 147.542 134.643 147.542 134.481 147.461C134.237 147.461 133.994 147.461 133.751 147.461C132.209 147.379 130.748 147.217 129.369 146.891C130.18 147.135 130.991 147.298 131.722 147.461ZM168.238 145.506C168.401 145.343 168.563 145.18 168.644 144.935C167.427 145.098 166.291 145.261 165.074 145.424C162.233 145.832 159.393 146.239 156.553 146.565C160.367 146.32 164.262 145.913 168.238 145.506ZM135.455 148.113C135.942 148.194 136.51 148.276 136.996 148.276C137.078 148.276 137.159 148.276 137.321 148.276C137.078 148.194 136.834 148.113 136.591 148.113C136.185 148.113 135.779 148.113 135.455 148.113ZM161.828 151.616C161.665 151.616 161.584 151.616 161.503 151.616C161.179 151.779 160.773 151.942 160.448 152.105C160.61 152.105 160.692 152.105 160.854 152.186C161.097 151.942 161.422 151.779 161.828 151.616ZM162.396 151.29C162.72 151.127 163.126 150.964 163.451 150.801H163.207C162.801 150.964 162.477 151.127 162.071 151.29C162.233 151.29 162.315 151.29 162.396 151.29ZM159.961 151.534C159.88 151.534 159.718 151.534 159.637 151.534C159.312 151.697 158.906 151.779 158.582 151.942C158.744 151.942 158.825 151.942 158.988 151.942C159.231 151.779 159.556 151.616 159.961 151.534ZM161.422 150.72C161.097 150.883 160.692 151.046 160.367 151.127C160.448 151.127 160.529 151.127 160.692 151.127C161.016 150.964 161.341 150.801 161.747 150.638L161.422 150.72ZM157.689 151.29C157.365 151.371 156.959 151.534 156.634 151.616C156.797 151.616 156.878 151.616 157.04 151.697C157.365 151.534 157.689 151.453 158.014 151.29C157.933 151.371 157.77 151.29 157.689 151.29ZM159.556 150.638C159.231 150.801 158.825 150.883 158.501 151.046H158.744C159.069 150.883 159.393 150.801 159.718 150.638H159.556ZM155.823 151.127C155.498 151.209 155.174 151.371 154.849 151.453C154.93 151.453 155.092 151.453 155.174 151.534C155.498 151.453 155.823 151.29 156.147 151.209C155.985 151.127 155.904 151.127 155.823 151.127ZM163.207 149.987C162.883 150.149 162.558 150.231 162.233 150.394H162.396C162.72 150.231 162.964 150.149 163.288 149.987H163.207ZM157.689 150.557C157.365 150.638 157.04 150.801 156.634 150.883H156.878C157.202 150.801 157.527 150.638 157.851 150.557H157.689ZM153.875 150.964C153.551 151.046 153.226 151.127 152.901 151.209C152.983 151.209 153.145 151.209 153.226 151.29C153.551 151.209 153.794 151.127 154.119 151.046L153.875 150.964ZM160.448 150.312H160.61C160.935 150.149 161.179 150.068 161.503 149.987H161.422C161.016 150.068 160.773 150.231 160.448 150.312ZM164.181 149.579C164.424 149.498 164.668 149.335 164.911 149.253C164.668 149.335 164.343 149.498 164.181 149.579ZM154.849 150.72H155.011C155.336 150.638 155.579 150.557 155.904 150.475H155.823C155.498 150.557 155.174 150.638 154.849 150.72ZM158.663 150.231H158.744C158.988 150.149 159.231 150.068 159.556 149.905C159.231 150.068 158.906 150.149 158.663 150.231ZM151.928 150.72C151.603 150.801 151.36 150.883 151.035 150.883L151.278 150.964C151.522 150.883 151.847 150.801 152.09 150.72H151.928ZM152.983 150.475H153.064C153.307 150.394 153.632 150.312 153.875 150.231C153.551 150.312 153.307 150.394 152.983 150.475ZM149.169 150.638H149.331C149.574 150.557 149.818 150.557 150.061 150.475H149.899C149.737 150.475 149.412 150.557 149.169 150.638ZM147.221 150.231H147.302C147.546 150.231 147.708 150.149 147.951 150.149H147.87C147.708 150.231 147.465 150.231 147.221 150.231ZM151.116 150.231C151.278 150.231 151.36 150.231 151.441 150.149C151.36 150.231 151.278 150.231 151.116 150.231ZM156.878 150.149L157.04 150.068L156.878 150.149Z" fill="#000"/>
</g>
<g clip-path="url(#clip1)">
<path d="M213.613 325.292L217.246 327.185L213.613 329.077" stroke="#117DCC" stroke-miterlimit="10"/>
<path d="M206.346 332.795L162.814 355.369L54.5686 355.842L8.02075 331.781" stroke="#117DCC" stroke-miterlimit="10" stroke-dasharray="12.01 12.01"/>
<path d="M4.38742 329.888L0.754089 327.996L4.38742 326.103" stroke="#117DCC" stroke-miterlimit="10"/>
<path d="M11.6541 322.318L55.1855 299.743L163.431 299.338L209.979 323.4" stroke="#117DCC" stroke-miterlimit="10" stroke-dasharray="12.01 12.01"/>
</g>
<g filter="url(#filter0_d)">
<rect x="45.5656" y="198.344" width="0.893443" height="18.7623" fill="#117DCC"/>
</g>
<g filter="url(#filter1_d)">
<rect x="62.541" y="247.484" width="0.893443" height="25.0164" fill="black"/>
<rect x="62.541" y="247.484" width="0.893443" height="25.0164" fill="url(#paint0_linear)"/>
</g>
<g filter="url(#filter2_d)">
<rect x="79.5164" y="202.811" width="0.893443" height="32.1639" fill="url(#paint1_linear)"/>
</g>
<g filter="url(#filter3_d)">
<rect x="99.1721" y="267.139" width="0.893443" height="19.6557" fill="#117DCC"/>
<rect x="99.1721" y="267.139" width="0.893443" height="19.6557" fill="#117DCC"/>
</g>
<g filter="url(#filter4_d)">
<rect x="120.615" y="269.82" width="0.893443" height="56.2869" transform="rotate(-180 120.615 269.82)" fill="black"/>
<rect x="120.615" y="269.82" width="0.893443" height="56.2869" transform="rotate(-180 120.615 269.82)" fill="url(#paint2_linear)"/>
</g>
<g filter="url(#filter5_d)">
<rect x="143.844" y="197.451" width="0.893443" height="41.9918" fill="#117DCC"/>
<rect x="143.844" y="197.451" width="0.893443" height="41.9918" fill="#117DCC"/>
</g>
<g filter="url(#filter6_d)">
<rect x="162.607" y="234.975" width="0.893443" height="26.8033" fill="black"/>
<rect x="162.607" y="234.975" width="0.893443" height="26.8033" fill="url(#paint3_linear)"/>
</g>
<g clip-path="url(#clip2)">
<path d="M55.4609 364.053L55.5957 396.344L2.66348 368.394L2.52863 336.103L55.4609 364.053Z" fill="url(#paint4_linear)"/>
<path d="M56.0678 307.746L162.539 307.339L215.471 335.289L161.932 363.578L55.4609 364.053L2.52863 336.103L56.0678 307.746Z" stroke="#000" stroke-miterlimit="10"/>
<path d="M215.471 335.289L215.674 367.58L162.135 395.937L161.932 363.578L215.471 335.289Z" fill="url(#paint5_linear)"/>
<path d="M161.932 363.578L162.135 395.937L55.5957 396.344L55.4609 364.053L161.932 363.578Z" fill="url(#paint6_linear)"/>
<path d="M56.0677 307.746L161.932 363.578" stroke="url(#paint7_linear)" stroke-miterlimit="10"/>
<path d="M162.539 307.339L55.4609 364.053" stroke="url(#paint8_linear)" stroke-miterlimit="10"/>
<path d="M215.471 335.289L2.52863 336.103" stroke="url(#paint9_linear)" stroke-miterlimit="10"/>
</g>
<defs>
<filter id="filter0_d" x="41.5656" y="198.344" width="8.89344" height="26.7623" filterUnits="userSpaceOnUse" color-interpolation-filters="sRGB">
<feFlood flood-opacity="0" result="BackgroundImageFix"/>
<feColorMatrix in="SourceAlpha" type="matrix" values="0 0 0 0 0 0 0 0 0 0 0 0 0 0 0 0 0 0 127 0"/>
<feOffset dy="4"/>
<feGaussianBlur stdDeviation="2"/>
<feColorMatrix type="matrix" values="0 0 0 0 0 0 0 0 0 0 0 0 0 0 0 0 0 0 0.25 0"/>
<feBlend mode="normal" in2="BackgroundImageFix" result="effect1_dropShadow"/>
<feBlend mode="normal" in="SourceGraphic" in2="effect1_dropShadow" result="shape"/>
</filter>
<filter id="filter1_d" x="58.541" y="247.484" width="8.89344" height="33.0164" filterUnits="userSpaceOnUse" color-interpolation-filters="sRGB">
<feFlood flood-opacity="0" result="BackgroundImageFix"/>
<feColorMatrix in="SourceAlpha" type="matrix" values="0 0 0 0 0 0 0 0 0 0 0 0 0 0 0 0 0 0 127 0"/>
<feOffset dy="4"/>
<feGaussianBlur stdDeviation="2"/>
<feColorMatrix type="matrix" values="0 0 0 0 0 0 0 0 0 0 0 0 0 0 0 0 0 0 0.25 0"/>
<feBlend mode="normal" in2="BackgroundImageFix" result="effect1_dropShadow"/>
<feBlend mode="normal" in="SourceGraphic" in2="effect1_dropShadow" result="shape"/>
</filter>
<filter id="filter2_d" x="75.5164" y="202.811" width="8.89344" height="40.1639" filterUnits="userSpaceOnUse" color-interpolation-filters="sRGB">
<feFlood flood-opacity="0" result="BackgroundImageFix"/>
<feColorMatrix in="SourceAlpha" type="matrix" values="0 0 0 0 0 0 0 0 0 0 0 0 0 0 0 0 0 0 127 0"/>
<feOffset dy="4"/>
<feGaussianBlur stdDeviation="2"/>
<feColorMatrix type="matrix" values="0 0 0 0 0 0 0 0 0 0 0 0 0 0 0 0 0 0 0.25 0"/>
<feBlend mode="normal" in2="BackgroundImageFix" result="effect1_dropShadow"/>
<feBlend mode="normal" in="SourceGraphic" in2="effect1_dropShadow" result="shape"/>
</filter>
<filter id="filter3_d" x="95.1721" y="267.139" width="8.89344" height="27.6557" filterUnits="userSpaceOnUse" color-interpolation-filters="sRGB">
<feFlood flood-opacity="0" result="BackgroundImageFix"/>
<feColorMatrix in="SourceAlpha" type="matrix" values="0 0 0 0 0 0 0 0 0 0 0 0 0 0 0 0 0 0 127 0"/>
<feOffset dy="4"/>
<feGaussianBlur stdDeviation="2"/>
<feColorMatrix type="matrix" values="0 0 0 0 0 0 0 0 0 0 0 0 0 0 0 0 0 0 0.25 0"/>
<feBlend mode="normal" in2="BackgroundImageFix" result="effect1_dropShadow"/>
<feBlend mode="normal" in="SourceGraphic" in2="effect1_dropShadow" result="shape"/>
</filter>
<filter id="filter4_d" x="115.721" y="213.533" width="8.89345" height="64.2869" filterUnits="userSpaceOnUse" color-interpolation-filters="sRGB">
<feFlood flood-opacity="0" result="BackgroundImageFix"/>
<feColorMatrix in="SourceAlpha" type="matrix" values="0 0 0 0 0 0 0 0 0 0 0 0 0 0 0 0 0 0 127 0"/>
<feOffset dy="4"/>
<feGaussianBlur stdDeviation="2"/>
<feColorMatrix type="matrix" values="0 0 0 0 0 0 0 0 0 0 0 0 0 0 0 0 0 0 0.25 0"/>
<feBlend mode="normal" in2="BackgroundImageFix" result="effect1_dropShadow"/>
<feBlend mode="normal" in="SourceGraphic" in2="effect1_dropShadow" result="shape"/>
</filter>
<filter id="filter5_d" x="139.844" y="197.451" width="8.89344" height="49.9918" filterUnits="userSpaceOnUse" color-interpolation-filters="sRGB">
<feFlood flood-opacity="0" result="BackgroundImageFix"/>
<feColorMatrix in="SourceAlpha" type="matrix" values="0 0 0 0 0 0 0 0 0 0 0 0 0 0 0 0 0 0 127 0"/>
<feOffset dy="4"/>
<feGaussianBlur stdDeviation="2"/>
<feColorMatrix type="matrix" values="0 0 0 0 0 0 0 0 0 0 0 0 0 0 0 0 0 0 0.25 0"/>
<feBlend mode="normal" in2="BackgroundImageFix" result="effect1_dropShadow"/>
<feBlend mode="normal" in="SourceGraphic" in2="effect1_dropShadow" result="shape"/>
</filter>
<filter id="filter6_d" x="158.607" y="234.975" width="8.89344" height="34.8033" filterUnits="userSpaceOnUse" color-interpolation-filters="sRGB">
<feFlood flood-opacity="0" result="BackgroundImageFix"/>
<feColorMatrix in="SourceAlpha" type="matrix" values="0 0 0 0 0 0 0 0 0 0 0 0 0 0 0 0 0 0 127 0"/>
<feOffset dy="4"/>
<feGaussianBlur stdDeviation="2"/>
<feColorMatrix type="matrix" values="0 0 0 0 0 0 0 0 0 0 0 0 0 0 0 0 0 0 0.25 0"/>
<feBlend mode="normal" in2="BackgroundImageFix" result="effect1_dropShadow"/>
<feBlend mode="normal" in="SourceGraphic" in2="effect1_dropShadow" result="shape"/>
</filter>
<linearGradient id="paint0_linear" x1="62.9877" y1="247.484" x2="62.9877" y2="272.5" gradientUnits="userSpaceOnUse">
<stop stop-color="#818286"/>
<stop offset="1" stop-color="white" stop-opacity="0"/>
</linearGradient>
<linearGradient id="paint1_linear" x1="79.9631" y1="202.811" x2="79.9631" y2="234.975" gradientUnits="userSpaceOnUse">
<stop stop-color="#C1C2C4"/>
<stop offset="1" stop-color="#D5D5D6" stop-opacity="0"/>
</linearGradient>
<linearGradient id="paint2_linear" x1="121.061" y1="269.82" x2="121.061" y2="326.107" gradientUnits="userSpaceOnUse">
<stop stop-color="#818286"/>
<stop offset="1" stop-color="white" stop-opacity="0"/>
</linearGradient>
<linearGradient id="paint3_linear" x1="163.053" y1="234.975" x2="163.053" y2="261.779" gradientUnits="userSpaceOnUse">
<stop stop-color="#818286"/>
<stop offset="1" stop-color="white" stop-opacity="0"/>
</linearGradient>
<linearGradient id="paint4_linear" x1="29.0706" y1="336.098" x2="29.0706" y2="396.345" gradientUnits="userSpaceOnUse">
<stop stop-color="white"/>
<stop offset="1" stop-opacity="0"/>
</linearGradient>
<linearGradient id="paint5_linear" x1="188.807" y1="335.264" x2="188.807" y2="395.928" gradientUnits="userSpaceOnUse">
<stop stop-color="white"/>
<stop offset="1" stop-opacity="0"/>
</linearGradient>
<linearGradient id="paint6_linear" x1="108.788" y1="363.605" x2="108.788" y2="396.345" gradientUnits="userSpaceOnUse">
<stop stop-color="white"/>
<stop offset="1" stop-opacity="0"/>
</linearGradient>
<linearGradient id="paint7_linear" x1="55.9019" y1="335.681" x2="162.104" y2="335.681" gradientUnits="userSpaceOnUse">
<stop stop-color="white"/>
<stop offset="1"/>
</linearGradient>
<linearGradient id="paint8_linear" x1="55.2995" y1="335.681" x2="162.706" y2="335.681" gradientUnits="userSpaceOnUse">
<stop stop-color="white"/>
<stop offset="1"/>
</linearGradient>
<linearGradient id="paint9_linear" x1="215.495" y1="335.681" x2="2.51069" y2="335.681" gradientUnits="userSpaceOnUse">
<stop stop-color="white"/>
<stop offset="1"/>
</linearGradient>
<clipPath id="clip0">
<rect width="177.795" height="186.73" fill="black" transform="translate(20.5492)"/>
</clipPath>
<clipPath id="clip1">
<rect width="218" height="57.1803" fill="black" transform="translate(0 299)"/>
</clipPath>
<clipPath id="clip2">
<rect width="214.426" height="89.3443" fill="black" transform="translate(1.7869 307)"/>
</clipPath>
</defs>
</svg>
