<svg width="43" height="44" viewBox="0 0 43 44" fill="none" xmlns="http://www.w3.org/2000/svg">
<path d="M30.938 24.5284C33.553 24.5284 35.6729 22.4085 35.6729 19.7935C35.6729 17.1785 33.553 15.0586 30.938 15.0586C28.323 15.0586 26.2031 17.1785 26.2031 19.7935C26.2031 22.4085 28.323 24.5284 30.938 24.5284Z" fill="white"/>
<path d="M36.3421 6.71934C27.8289 -1.38796 14.349 -1.06908 6.22237 7.4344C5.34304 8.35239 4.55067 9.34768 3.85493 10.4106L3.80661 10.4879C3.56504 10.8455 3.33313 11.2223 3.14953 11.5992L3.11088 11.6958C2.89829 12.0727 2.69536 12.4399 2.52143 12.8264L2.47311 12.923C2.29918 13.2999 2.12525 13.6671 1.97064 14.0536C1.96097 14.0922 1.95131 14.1212 1.93198 14.1502C1.77738 14.5271 1.64209 14.8943 1.51647 15.2711C1.51647 15.3001 1.51647 15.3388 1.48748 15.3774C1.36187 15.7543 1.25557 16.1215 1.14928 16.4887V16.6046C0.985007 16.9815 0.86905 17.339 0.791746 17.7159C0.791746 17.7642 0.791746 17.7932 0.791746 17.8415C0.714441 18.2184 0.656463 18.5855 0.598485 18.9527C0.588822 19.0011 0.588822 19.0397 0.598485 19.088C0.55017 19.4649 0.501855 19.8321 0.463202 20.2089C0.463202 20.2573 0.463202 20.3056 0.463202 20.3442C0.366572 20.7307 0.356909 21.0979 0.32792 21.4845C0.32792 21.5328 0.32792 21.5811 0.32792 21.6294C0.32792 22.0256 0.32792 22.4411 0.32792 22.8373C0.308594 22.8953 0.308594 22.9532 0.308594 23.0016C0.308594 23.3881 0.347246 23.7649 0.376235 24.1418V24.3157C0.42455 24.7216 0.472865 25.1274 0.540507 25.5526C0.540507 25.6202 0.540507 25.6782 0.540507 25.7459C0.608148 26.1807 0.695115 26.6059 0.801409 27.06L0.849724 27.2726C0.965681 27.7365 1.0913 28.181 1.22658 28.6448L1.32321 28.867C1.48748 29.3598 1.67108 29.8623 1.86434 30.3455L1.9803 30.6064C2.21221 31.1475 2.47311 31.6886 2.74368 32.2104C2.792 32.3167 2.84997 32.4134 2.91761 32.51C3.24616 33.1091 3.5747 33.6792 3.98055 34.2397L4.2028 34.5489C4.65696 35.1383 5.14011 35.7181 5.65226 36.2593L5.93248 36.5781C6.25136 36.926 6.58957 37.2352 6.93744 37.5928C7.28531 37.9503 7.47857 38.0952 7.7588 38.3368L8.17431 38.6847C8.94735 39.3128 9.75905 39.8926 10.6191 40.4047L11.2472 40.7622C12.3294 41.3613 13.4503 41.8638 14.6099 42.2697C14.9094 42.376 15.209 42.4629 15.5182 42.5692C21.4223 44.3376 27.7999 43.4679 33.018 40.1824L33.7814 39.6606L34.2259 39.3418C34.4191 39.2065 34.6221 39.0519 34.8056 38.8973L35.0182 38.733L35.1535 38.6267L35.2405 38.5591L35.4048 38.4141L35.4917 38.3465L35.5884 38.2692L35.627 38.2112L35.7236 38.1242L35.8589 38.0083L35.9556 37.9213L36.0329 37.844L36.1488 37.7377C36.1778 37.7087 36.2261 37.6701 36.2648 37.6314C36.3227 37.5734 36.4001 37.5154 36.458 37.4478L36.5063 37.4092L36.5933 37.3222L36.6513 37.2642V37.2256L36.6996 37.1772L36.7672 37.1096L36.8639 37.013L36.9798 36.897C45.1451 28.4032 44.8842 14.9039 36.3904 6.73866C36.3614 6.73866 36.3517 6.729 36.3421 6.71934ZM4.05785 10.5459C10.2325 11.9084 12.7836 17.2521 15.4602 22.8566C16.4265 24.9921 17.5281 27.0794 18.7457 29.0893C17.6248 27.3982 16.6585 25.5623 15.7115 23.7553C13.4503 19.4456 11.2858 15.3774 7.3143 13.1259C6.08709 12.4302 4.76326 11.9374 3.37178 11.6765C3.59403 11.3189 3.81628 10.9131 4.05785 10.5459ZM34.9023 38.5204H34.9409H34.9023ZM34.3611 38.4044L34.68 38.3175H34.7863L34.4771 38.4141L34.3611 38.4044ZM33.849 38.2885L34.1486 38.2209H34.2549L33.9553 38.2982L33.849 38.2885ZM33.2982 38.1532L33.5978 38.0952H33.6944L33.4045 38.1629L33.2982 38.1532ZM32.7764 38.0276L33.0566 37.9889H33.1533L32.8827 38.0373L32.7764 38.0276ZM32.2353 37.8826H32.5058H32.5832L32.3222 37.9116L32.2353 37.8826ZM31.6845 37.7377H31.9454H32.0034H31.7618H31.6845ZM31.1627 37.5734H31.4526H31.2207H31.1627ZM35.2018 37.9406L34.9409 38.0083H34.9023L35.1825 37.9406H35.2018ZM34.4385 38.1822H34.3515L34.6607 38.1049H34.7283L34.4385 38.1822ZM33.8297 38.0566L34.1389 37.9986H34.1969L33.907 38.0662L33.8297 38.0566ZM33.3175 37.9406L33.6171 37.8923H33.6654L33.3852 37.9406H33.3175ZM32.7861 37.8247L33.0663 37.786H33.105L32.8537 37.8247H32.7861ZM32.2449 37.699H32.5058H32.2739H32.2449ZM34.68 37.8826L34.4288 37.9406H34.3901L34.6414 37.8826H34.68ZM33.878 37.8826L34.1196 37.8343L33.8973 37.8826H33.878ZM27.5004 36.4718L27.713 36.5588H27.626L27.1815 36.4525L27.5004 36.4718ZM26.737 36.2013L26.9399 36.2399L27.0849 36.2979C26.766 36.2496 26.4278 36.2013 26.1379 36.1336L25.4808 35.9017C25.8963 36.0177 26.3118 36.1143 26.737 36.1819V36.2013ZM26.0316 36.2399C26.1669 36.2786 26.2828 36.3269 26.4181 36.3559C26.8047 36.4718 27.2008 36.5685 27.6067 36.6651L28.1671 36.7811H28.0608C27.2202 36.6361 26.3988 36.4139 25.5968 36.124L26.0316 36.2399ZM34.9603 38.3078H34.8733L35.1922 38.2112H35.2695L34.9603 38.3078ZM35.4627 37.902L35.6946 37.844L35.4627 37.902ZM35.9169 37.0999L34.9216 37.1772C34.5834 37.1772 34.2645 37.1772 33.907 37.1772H32.7861C32.0227 37.1289 31.269 37.0613 30.5346 36.984C29.9162 36.8584 29.317 36.7231 28.7276 36.5685C29.3074 36.6168 29.9065 36.6651 30.4959 36.6941C32.2836 36.868 34.1969 36.984 36.1585 37.0516L35.9169 37.0999ZM3.32346 11.7538C4.70528 12.0147 6.03878 12.5075 7.26598 13.2032C11.2085 15.4451 13.3537 19.5035 15.6342 23.8036C16.8324 26.2387 18.2335 28.5578 19.8279 30.7513C18.3592 28.8187 17.0353 26.7895 15.8564 24.6636C13.5663 20.7211 11.1795 16.6916 7.15969 14.4594C5.77787 13.6961 4.27044 13.1549 2.71469 12.865C2.93694 12.4882 3.11088 12.1113 3.32346 11.7538ZM2.66638 12.9617C4.22213 13.2419 5.7199 13.7734 7.09205 14.5464C11.0925 16.7689 13.4697 20.8081 15.7501 24.7119C17.1706 27.3499 18.8713 29.8237 20.8329 32.0848C19.0162 30.0749 17.3928 27.8911 15.9917 25.5719C13.5663 21.8517 11.0829 18.0154 7.00508 15.8026C5.48798 14.9812 3.85493 14.4015 2.1639 14.0922C2.31851 13.7154 2.48278 13.3385 2.66638 12.9617ZM1.93198 14.701C1.98996 14.5271 2.06727 14.3531 2.13491 14.1889C3.82594 14.5077 5.45899 15.0875 6.96643 15.9089C11.0152 18.1024 13.5276 21.9386 15.9047 25.6396C17.876 28.6351 19.8473 31.708 22.6882 33.8821C20.0598 31.9495 18.1369 29.2922 16.127 26.4609C13.5953 22.9339 10.9766 19.3103 6.87946 17.1458C5.25607 16.2857 3.51672 15.6673 1.70973 15.3098C1.78704 15.1069 1.85468 14.9039 1.93198 14.701ZM1.67108 15.4257C3.46841 15.7639 5.19809 16.3727 6.82148 17.2231C10.8993 19.3779 13.518 22.9919 16.011 26.4803C18.8713 30.4518 21.5866 34.201 26.2635 35.9017L26.4278 35.9694C25.2296 35.7181 24.07 35.2736 23.0167 34.6552L22.9104 34.5972L22.7848 34.5199L22.4659 34.317L22.234 34.1624C19.77 32.4617 17.847 29.9396 15.8564 27.3209C13.3247 23.9775 10.7157 20.5375 6.72485 18.4696C5.02416 17.5709 3.20751 16.9138 1.32321 16.4983C1.43917 16.1311 1.55513 15.7543 1.67108 15.3871V15.4257ZM1.29422 16.6626C3.16885 17.0588 4.97584 17.7159 6.66687 18.5952C10.6384 20.6438 13.2281 24.0742 15.7598 27.4079C17.0257 29.1762 18.4268 30.8479 19.9246 32.4134C19.2482 31.8239 18.5814 31.2055 17.9147 30.5581C17.2576 29.8043 16.5715 29.0023 15.8951 28.2003C13.2667 25.0984 10.5611 21.813 6.56058 19.8417C4.80191 18.9334 2.93694 18.2377 1.00433 17.7835C1.11063 17.397 1.20726 17.0298 1.29422 16.6626ZM24.6788 35.6891C22.6785 34.8871 20.8715 33.6696 19.3931 32.0945C20.9488 33.5729 22.7365 34.7808 24.6788 35.6891ZM1.00433 17.8801C2.91761 18.3343 4.77292 19.0204 6.52193 19.919C10.4644 21.8903 13.1991 25.1661 15.8178 28.2583C16.1367 28.6351 16.4749 29.012 16.7648 29.3888L16.3009 28.925C13.4793 26.0937 10.5611 23.1852 6.45429 21.1559C4.6473 20.2573 2.75334 19.5422 0.801409 19.0204C0.86905 18.6532 0.936691 18.2667 1.00433 17.8801ZM0.782083 19.1943C2.71469 19.7161 4.58932 20.4312 6.37698 21.3299C10.4838 23.3494 13.402 26.2677 16.2236 29.0699C16.7841 29.6304 17.3542 30.2005 17.905 30.7417C18.7167 31.65 19.5864 32.5197 20.4947 33.3314C19.0356 32.2201 17.6538 31.0122 16.2526 29.698C13.3634 27.1277 10.3871 24.451 6.29968 22.4798C4.49269 21.5811 2.6084 20.837 0.666126 20.2476C0.695115 19.8997 0.733768 19.5519 0.782083 19.1943ZM0.6468 20.4312C2.56008 21.011 4.42505 21.755 6.22237 22.6537C10.2905 24.625 13.2667 27.2436 16.1463 29.8237C19.2578 32.6066 22.2244 35.2446 26.1379 36.4429C26.7563 36.6264 27.3844 36.7811 28.0319 36.8874C28.3701 36.955 28.6889 36.9936 29.0658 37.042L28.544 36.984C23.5579 36.3849 20.1082 33.6502 16.1077 30.4711C13.1894 28.152 10.2035 25.7555 6.15473 23.9099C4.34774 23.0209 2.49244 22.2478 0.598485 21.5908C0.598485 21.1946 0.617811 20.8081 0.6468 20.4312ZM0.588822 22.6537C0.588822 22.3445 0.588822 21.9966 0.588822 21.7164C2.47311 22.3638 4.30909 23.1175 6.09676 23.9969C10.0876 25.8715 13.1025 28.2583 16.0207 30.5581C19.2675 33.1284 22.1471 35.4186 25.7804 36.5202C26.6694 36.7907 27.5777 36.984 28.4957 37.0903C28.8919 37.1386 29.2784 37.1869 29.6746 37.2159H29.7229C29.462 37.2159 29.2011 37.2159 28.9498 37.1772C23.8478 36.7907 20.1178 34.172 15.8274 31.1378C12.7546 28.8477 9.46916 26.8668 6.01945 25.2144C4.56999 24.5573 2.73402 23.7456 0.608148 22.9532C0.598485 22.8566 0.588822 22.76 0.588822 22.6537ZM0.588822 23.1079C2.6857 23.8906 4.53134 24.6926 5.93248 25.34C9.37253 26.9924 12.6386 28.9733 15.7018 31.2441C18.9486 33.5439 21.8668 35.5925 25.3069 36.6361C26.4761 36.984 27.684 37.2062 28.9112 37.2932C29.3557 37.3222 29.8002 37.3415 30.2254 37.3608H30.293C29.9741 37.3608 29.6359 37.3608 29.3364 37.3608C24.07 37.2449 19.9922 34.7132 15.3153 31.7756C12.2908 29.8043 9.14061 28.0457 5.87451 26.5286L4.40572 25.8715C3.26548 25.3497 2.03828 24.7796 0.695115 24.2384C0.6468 23.8712 0.627474 23.4944 0.608148 23.1368L0.588822 23.1079ZM0.685452 24.4124C1.99963 24.9438 3.20751 25.5043 4.31876 26.0164L5.77787 26.6735C9.04398 28.2003 12.1941 29.9493 15.1993 31.9205C18.4848 33.9594 21.4223 35.7954 24.7174 36.7907C26.2249 37.2545 27.7903 37.5154 29.375 37.5638C29.8582 37.5638 30.351 37.5638 30.8535 37.5638H30.9404C30.5636 37.5638 30.1964 37.5638 29.8195 37.5638C24.2246 37.6217 19.7313 35.1383 14.5229 32.2781C11.9622 30.8576 9.05365 29.2535 5.72956 27.8041C5.02416 27.4949 4.25111 27.147 3.44908 26.7701C2.64705 26.3933 1.77738 25.9778 0.878713 25.5913C0.811072 25.253 0.753094 24.8472 0.704778 24.4414L0.685452 24.4124ZM0.888376 25.8618C1.75805 26.2387 2.57941 26.6349 3.35245 26.9924C4.12549 27.3499 4.9082 27.7268 5.65226 28.0457C8.93769 29.4855 11.74 31.0219 14.436 32.5003C17.7214 34.3073 20.7169 35.9694 23.8961 36.9357C25.8094 37.5348 27.7999 37.8247 29.8002 37.8053C30.3413 37.8053 30.8728 37.8053 31.4139 37.757H31.5106C31.0854 37.7957 30.6602 37.8247 30.235 37.8537C24.2343 38.1725 19.3834 35.7954 13.2377 32.7902C10.851 31.6596 8.3869 30.4324 5.55562 29.2439C4.60865 28.838 3.58436 28.3259 2.45379 27.7848L1.17827 27.176C1.06231 26.7315 0.965681 26.2967 0.898039 25.8618H0.888376ZM1.21692 27.3886L2.35716 27.9297C3.46841 28.4708 4.51202 28.983 5.47832 29.3888C8.30959 30.587 10.8123 31.7949 13.1604 32.9835C16.5908 34.6649 19.625 36.153 22.6882 37.0709C25.1329 37.844 27.6937 38.1822 30.2447 38.0566C30.8245 38.0179 31.4043 37.9793 31.984 37.9213H32.0807L30.6699 38.0856C24.0507 38.7137 18.3785 36.2109 11.1795 33.0608C9.3532 32.2588 7.46891 31.4277 5.41068 30.5774C4.27044 30.1136 2.98526 29.4758 1.6131 28.7897C1.48748 28.3259 1.3522 27.8717 1.22658 27.4079L1.21692 27.3886ZM1.72906 29.041C3.04323 29.698 4.25111 30.3165 5.36236 30.7706C7.41093 31.621 9.30488 32.4424 11.1215 33.254C14.32 34.7518 17.6054 36.0563 20.9682 37.1579C24.1087 38.1822 27.4134 38.5784 30.6989 38.3078C31.3173 38.2402 31.9357 38.1725 32.5542 38.0856L32.6701 38.1242C32.158 38.2112 31.6458 38.2982 31.124 38.3658C23.5869 39.3901 16.9387 36.6941 7.74914 32.9545C6.95677 32.6356 6.13541 32.2974 5.30439 31.9592C4.47336 31.621 3.38144 31.0702 2.32817 30.5291C2.09626 30.0169 1.903 29.5241 1.72906 29.041ZM2.43446 30.8093C3.41043 31.3118 4.34774 31.7756 5.22708 32.1235L7.67183 33.1188C11.6917 34.7518 15.2283 36.2013 18.5717 37.1966C22.8815 38.5107 26.8723 39.1099 31.1434 38.5107C31.8004 38.4238 32.4575 38.3175 33.1146 38.1919L33.2306 38.2305C32.6701 38.3465 32.1193 38.4624 31.5589 38.5591C23.2487 40.0278 15.3733 37.3029 5.14011 33.312C4.54101 33.0704 3.90324 32.7806 3.24616 32.452C2.92728 31.8819 2.67604 31.3408 2.4248 30.7803V30.8093H2.43446ZM3.41043 32.7322C3.99021 33.0125 4.53134 33.2637 5.07247 33.4666C8.79274 34.9258 12.2038 36.2206 15.4313 37.2062C21.1131 38.9359 26.2635 39.709 31.5782 38.762C32.2739 38.6364 32.96 38.5011 33.6461 38.3465H33.7814C33.1919 38.5011 32.6025 38.646 31.9937 38.7716C23.4612 40.6269 15.0447 38.4431 4.99517 34.6069L4.53134 34.4136C4.12549 33.8628 3.74864 33.2927 3.41043 32.7033V32.7322ZM4.7246 34.7518L4.9082 34.8195C7.48823 35.8148 9.95231 36.6844 12.3487 37.4092C19.3158 39.5254 25.6161 40.3757 32.042 38.9939C32.7667 38.8393 33.4915 38.6557 34.1969 38.4721H34.3322C33.6751 38.6653 33.076 38.8296 32.4382 38.9939C24.8141 40.9652 16.6874 40.1631 6.18372 36.4235C5.67158 35.8824 5.18843 35.3123 4.74393 34.7132L4.7246 34.7518ZM7.10171 37.4285L6.44462 36.7714C7.60419 37.1772 8.71544 37.5444 9.82669 37.8826C18.5814 40.54 25.7127 40.9458 32.4285 39.1968C33.1919 39.0036 33.9456 38.791 34.68 38.5397H34.7767L34.7283 38.5784C34.0713 38.8006 33.4625 38.9939 32.8151 39.1872C25.2586 41.4193 17.4025 41.2164 8.36757 38.4818C7.97139 38.1629 7.53655 37.7957 7.12104 37.3898L7.10171 37.4285ZM29.7905 41.5933C25.6934 43.3036 21.1518 43.6901 16.8324 42.6852C17.4895 42.6852 18.2045 42.7335 18.881 42.7335C23.094 42.6948 27.2781 42.0378 31.2883 40.7622L31.8198 40.5883C31.1627 40.9458 30.5056 41.2744 29.8099 41.5643L29.7905 41.5933ZM15.7984 42.3856C14.5326 42.0184 13.3054 41.5449 12.1265 40.9458C19.1805 42.4049 26.4954 41.9701 33.3272 39.68C33.1339 39.8153 32.9214 39.9505 32.7088 40.0762C27.2878 42.0184 21.5286 42.8011 15.7984 42.3856ZM33.9746 39.2355L33.3175 39.4674C26.2732 41.8252 18.7263 42.2117 11.4791 40.598C10.5611 40.0858 9.69141 39.5157 8.85072 38.8876C17.7214 41.4773 25.4518 41.6512 32.902 39.4384C33.3562 39.3031 33.8104 39.1582 34.2162 39.0132C34.1196 39.0809 34.0229 39.1485 33.9263 39.2258L33.9746 39.2355ZM36.5933 36.955C35.4531 36.926 34.3322 36.868 33.2499 36.81C34.3901 36.81 35.54 36.81 36.7189 36.81L36.5933 36.955ZM36.8735 36.6748C34.6124 36.6748 32.3996 36.6748 30.351 36.5395C29.317 36.4332 28.3217 36.3076 27.3748 36.1433L26.8626 35.9694C26.3795 35.7761 25.9157 35.5828 25.4712 35.3703L25.0073 35.1383C24.3792 34.8098 23.7898 34.4233 23.2197 33.9981C19.567 31.2151 17.5185 26.9441 15.5375 22.789C12.8609 17.1747 10.3002 11.8311 4.10617 10.4396C4.77292 9.42499 5.5363 8.47801 6.37698 7.59867C14.3683 -0.875816 27.713 -1.272 36.1875 6.71934C44.662 14.7107 45.0581 28.0553 37.0668 36.5298C37.0185 36.5781 36.9798 36.6264 36.9315 36.6844L36.8735 36.6748Z" fill="white"/>
</svg>
