<svg width="42" height="34" viewBox="0 0 42 34" fill="none" xmlns="http://www.w3.org/2000/svg">
<path d="M14 34C10.1 34 6.79167 32.6417 4.075 29.925C1.35833 27.2083 0 23.9 0 20C0 15.9 1.45833 12.5583 4.375 9.975C7.29167 7.39167 10.55 6.21667 14.15 6.45L9.85 2.15L12 0L20 8L12 16L9.85 13.85L14.3 9.4C11.1333 9.33333 8.45833 10.3 6.275 12.3C4.09167 14.3 3 16.8667 3 20C3 23.0333 4.075 25.625 6.225 27.775C8.375 29.925 10.9667 31 14 31H20V34H14ZM24 16V2H42V16H24ZM24 34V20H42V34H24ZM27 31H39V23H27V31Z" fill="white"/>
</svg>
