<svg width="40" height="38" viewBox="0 0 40 38" fill="none" xmlns="http://www.w3.org/2000/svg">
<path d="M0 18L10 0L20 18H0ZM10.05 38C7.85 38 5.96667 37.2167 4.4 35.65C2.83333 34.0833 2.05 32.2 2.05 30C2.05 27.7667 2.83333 25.875 4.4 24.325C5.96667 22.775 7.85 22 10.05 22C12.25 22 14.1333 22.7833 15.7 24.35C17.2667 25.9167 18.05 27.8 18.05 30C18.05 32.2 17.2667 34.0833 15.7 35.65C14.1333 37.2167 12.25 38 10.05 38ZM10.05 35C11.45 35 12.6333 34.5167 13.6 33.55C14.5667 32.5833 15.05 31.4 15.05 30C15.05 28.6 14.5667 27.4167 13.6 26.45C12.6333 25.4833 11.45 25 10.05 25C8.65 25 7.46667 25.4833 6.5 26.45C5.53333 27.4167 5.05 28.6 5.05 30C5.05 31.4 5.53333 32.5833 6.5 33.55C7.46667 34.5167 8.65 35 10.05 35ZM5.1 15H14.9L10 6.2L5.1 15ZM22 38V22H38V38H22ZM25 35H35V25H25V35ZM30 18C28.1 16.4 26.5083 15.05 25.225 13.95C23.9417 12.85 22.9167 11.8833 22.15 11.05C21.3833 10.2167 20.8333 9.43333 20.5 8.7C20.1667 7.96667 20 7.18333 20 6.35C20 4.85 20.525 3.58333 21.575 2.55C22.625 1.51667 23.9333 1 25.5 1C26.3667 1 27.2 1.2 28 1.6C28.8 2 29.4667 2.58333 30 3.35C30.5333 2.58333 31.2 2 32 1.6C32.8 1.2 33.6333 1 34.5 1C36.0667 1 37.375 1.51667 38.425 2.55C39.475 3.58333 40 4.85 40 6.35C40 7.18333 39.8333 7.96667 39.5 8.7C39.1667 9.43333 38.6167 10.2167 37.85 11.05C37.0833 11.8833 36.0583 12.85 34.775 13.95C33.4917 15.05 31.9 16.4 30 18ZM30 14.05C32.8333 11.7167 34.7083 10.05 35.625 9.05C36.5417 8.05 37 7.18333 37 6.45C37 5.71667 36.7833 5.125 36.35 4.675C35.9167 4.225 35.3333 4 34.6 4C34.1667 4 33.7417 4.11667 33.325 4.35C32.9083 4.58333 32.3833 4.98333 31.75 5.55L30 7.2L28.25 5.55C27.6167 4.98333 27.0917 4.58333 26.675 4.35C26.2583 4.11667 25.8333 4 25.4 4C24.6667 4 24.0833 4.225 23.65 4.675C23.2167 5.125 23 5.71667 23 6.45C23 7.18333 23.4583 8.05 24.375 9.05C25.2917 10.05 27.1667 11.7167 30 14.05Z" fill="#000000"/>
</svg>
