<svg width="40" height="40" viewBox="0 0 40 40" fill="none" xmlns="http://www.w3.org/2000/svg">
<path d="M22 0C26.7667 0.466667 30.8167 2.36667 34.15 5.7C37.4833 9.03333 39.3833 13.0833 39.85 17.85H25.65C25.3833 16.9833 24.925 16.25 24.275 15.65C23.625 15.05 22.8667 14.6167 22 14.35V0ZM25 3.8V12.5C25.4667 12.8 25.9167 13.1417 26.35 13.525C26.7833 13.9083 27.1333 14.35 27.4 14.85H36.05C35.2167 12.1833 33.8333 9.875 31.9 7.925C29.9667 5.975 27.6667 4.6 25 3.8ZM17.9 0V14.35C16.7333 14.8167 15.7917 15.5667 15.075 16.6C14.3583 17.6333 14 18.7833 14 20.05C14 21.25 14.3583 22.3333 15.075 23.3C15.7917 24.2667 16.7333 24.9667 17.9 25.4V39.8C12.8 39.3333 8.54167 37.2167 5.125 33.45C1.70833 29.6833 0 25.2167 0 20.05C0 14.8833 1.7 10.375 5.1 6.525C8.5 2.675 12.7667 0.5 17.9 0ZM14.9 3.8C11.2667 4.8 8.375 6.81667 6.225 9.85C4.075 12.8833 3 16.2833 3 20.05C3 23.75 4.1 27.075 6.3 30.025C8.5 32.975 11.3667 34.9833 14.9 36.05V27.35C13.6667 26.5167 12.7083 25.4667 12.025 24.2C11.3417 22.9333 11 21.55 11 20.05C11 18.55 11.3333 17.1333 12 15.8C12.6667 14.4667 13.6333 13.3667 14.9 12.5V3.8ZM25.65 21.95H39.85C39.3833 26.7167 37.4833 30.7667 34.15 34.1C30.8167 37.4333 26.7667 39.3333 22 39.8V25.4C22.8667 25.1333 23.625 24.7083 24.275 24.125C24.925 23.5417 25.3833 22.8167 25.65 21.95ZM27.4 24.95C27.0667 25.4167 26.7083 25.8667 26.325 26.3C25.9417 26.7333 25.5 27.0833 25 27.35V36C27.6667 35.2333 29.9667 33.8667 31.9 31.9C33.8333 29.9333 35.2167 27.6167 36.05 24.95H27.4Z" fill="#000000"/>
</svg>
