<svg width="32" height="42" viewBox="0 0 32 42" fill="none" xmlns="http://www.w3.org/2000/svg">
<path d="M3 14.3H22.5V9.5C22.5 7.7 21.8667 6.16667 20.6 4.9C19.3333 3.63333 17.8 3 16 3C14.2 3 12.6667 3.63333 11.4 4.9C10.1333 6.16667 9.5 7.7 9.5 9.5H6.5C6.5 6.86667 7.425 4.625 9.275 2.775C11.125 0.925 13.3667 0 16 0C18.6333 0 20.875 0.925 22.725 2.775C24.575 4.625 25.5 6.86667 25.5 9.5V14.3H29C29.8333 14.3 30.5417 14.5917 31.125 15.175C31.7083 15.7583 32 16.4667 32 17.3V39C32 39.8333 31.7083 40.5417 31.125 41.125C30.5417 41.7083 29.8333 42 29 42H3C2.16667 42 1.45833 41.7083 0.875 41.125C0.291667 40.5417 0 39.8333 0 39V17.3C0 16.4667 0.291667 15.7583 0.875 15.175C1.45833 14.5917 2.16667 14.3 3 14.3ZM3 39H29V17.3H3V39ZM16 32C17.0667 32 17.975 31.6333 18.725 30.9C19.475 30.1667 19.85 29.2833 19.85 28.25C19.85 27.25 19.475 26.3417 18.725 25.525C17.975 24.7083 17.0667 24.3 16 24.3C14.9333 24.3 14.025 24.7083 13.275 25.525C12.525 26.3417 12.15 27.25 12.15 28.25C12.15 29.2833 12.525 30.1667 13.275 30.9C14.025 31.6333 14.9333 32 16 32ZM3 39V17.3V39Z" fill="#000000"/>
</svg>
