<svg width="951" height="343" viewBox="0 0 951 343" fill="none" xmlns="http://www.w3.org/2000/svg">
<rect y="8.52539" width="950.479" height="326.612" rx="19.8169" fill="#2E2E2E"/>
<g clip-path="url(#clip0_347_147)">
<path d="M517.221 291.133C478.04 304.761 438.872 318.395 399.689 332.014C380.996 338.494 363.668 330.126 357.147 311.408C336.762 252.861 316.395 194.307 296.047 135.747C289.562 117.1 297.814 99.4052 316.4 92.9194C394.844 65.5407 473.317 38.2771 551.799 11.0103C573.328 3.52208 589.548 17.4442 594.447 31.8303C614.452 90.6354 635.103 149.226 655.502 207.904C661.991 226.56 653.73 243.63 635.094 250.123C595.808 263.809 556.51 277.457 517.217 291.124L517.221 291.133ZM466.954 220.235C467.748 218.254 468.263 217.029 468.736 215.776C479.314 187.647 489.782 159.473 500.52 131.414C506.304 116.294 522.059 110.919 535.994 119.024C563.678 135.12 591.317 151.295 618.979 167.42C620.722 168.435 622.486 169.422 624.88 170.776C624.45 169.21 624.306 168.496 624.069 167.815C608.845 124.044 593.648 80.2641 578.38 36.5191C575.04 26.9469 566.929 23.2713 557.041 26.7108C478.804 53.9026 400.574 81.1131 322.34 108.345C311.986 111.947 308.12 119.935 311.694 130.21C330.431 184.11 349.187 238.004 367.934 291.9C368.311 292.983 368.812 294.033 369.482 295.63C370.394 293.838 371.031 292.664 371.614 291.457C383.297 267.286 394.942 243.096 406.672 218.94C411.541 208.909 420.878 203.464 431.497 204.708C434.719 205.083 437.971 206.233 440.939 207.617C449.519 211.59 457.972 215.858 466.951 220.257L466.954 220.235ZM511.687 275.555C516.217 273.979 520.755 272.401 525.285 270.825C560.159 258.695 595.031 246.587 629.893 234.419C639.666 231.009 643.298 223.458 640.024 213.717C638.298 208.574 636.671 203.385 634.597 198.384C633.775 196.41 632.165 194.334 630.353 193.27C607.673 179.847 584.886 166.598 562.121 153.321C550.743 146.681 539.368 140.019 527.956 133.432C522.559 130.319 518.145 131.896 515.756 137.644C515.143 139.123 514.601 140.63 514.038 142.134C502.818 171.992 491.611 201.856 480.369 231.712C477.184 240.185 473.492 241.615 465.362 237.674C454.832 232.57 444.323 227.437 433.768 222.383C427.901 219.57 424.028 220.99 421.135 226.882C420.591 227.992 420.066 229.095 419.526 230.214C406.51 257.161 393.494 284.108 380.478 311.055C378.541 315.066 378.803 315.551 382.993 317.054C387.098 318.524 390.944 317.594 394.858 316.233C433.783 302.652 472.728 289.127 511.675 275.58L511.687 275.555Z" fill="#117DCC" fill-opacity="0.25"/>
<path d="M396.172 182.867C379.548 188.628 361.289 179.715 355.61 163.089C350.026 146.734 358.921 128.366 375.236 122.586C391.578 116.797 410.223 125.827 415.968 142.315C421.74 158.909 412.879 177.077 396.172 182.867Z" fill="#117DCC" fill-opacity="0.25"/>
<path d="M474.908 165.702H477.798V155.744L481.748 159.806L483.771 157.726L476.257 150.195L468.839 157.825L470.862 159.906L474.908 155.744V165.702ZM463.734 171.746C462.963 171.746 462.289 171.449 461.711 170.854C461.133 170.26 460.844 169.566 460.844 168.774V135.085C460.844 134.292 461.133 133.599 461.711 133.004C462.289 132.41 462.963 132.112 463.734 132.112H481.122L491.67 142.962V168.774C491.67 169.566 491.381 170.26 490.803 170.854C490.225 171.449 489.551 171.746 488.78 171.746H463.734ZM479.677 144.3V135.085H463.734V168.774H488.78V144.3H479.677Z" fill="#117DCC"/>
</g>
<rect x="11.4295" y="18.4334" width="929.194" height="306.795" rx="19.4499" stroke="white" stroke-width="0.73396"/>
<path d="M426.318 231.897C424.166 231.897 422.675 231.354 421.847 230.269C421.019 229.165 420.605 227.582 420.605 225.522V209.266H422.648V225.577C422.648 227.049 422.905 228.19 423.42 228.999C423.954 229.809 424.92 230.214 426.318 230.214C427.662 230.214 428.609 229.809 429.161 228.999C429.713 228.171 429.989 227.03 429.989 225.577V209.266H432.004V225.522C432.004 227.546 431.571 229.119 430.707 230.241C429.86 231.345 428.398 231.897 426.318 231.897ZM442.577 209.266H447.932C449.827 209.266 451.179 209.781 451.989 210.811C452.817 211.842 453.231 213.304 453.231 215.2C453.231 216.929 452.798 218.337 451.933 219.422C451.087 220.508 449.762 221.051 447.959 221.051H444.675V231.621H442.577V209.266ZM447.352 219.477C448.732 219.477 449.707 219.165 450.278 218.539C450.866 217.895 451.161 216.782 451.161 215.2C451.161 214.04 451.05 213.157 450.83 212.55C450.609 211.924 450.232 211.483 449.698 211.225C449.164 210.968 448.392 210.839 447.38 210.839H444.675V219.477H447.352ZM462.819 209.266H464.916V230.048H471.264V231.621H462.819V209.266ZM485.448 231.897C483.35 231.897 481.86 231.299 480.977 230.103C480.112 228.907 479.68 227.214 479.68 225.025V215.752C479.68 213.58 480.121 211.924 481.005 210.784C481.888 209.625 483.369 209.045 485.448 209.045C487.49 209.045 488.953 209.625 489.836 210.784C490.719 211.943 491.161 213.599 491.161 215.752V225.052C491.161 227.242 490.729 228.935 489.864 230.131C488.999 231.308 487.527 231.897 485.448 231.897ZM485.448 230.214C486.81 230.214 487.748 229.818 488.263 229.027C488.778 228.217 489.036 227.04 489.036 225.494V215.365C489.036 213.82 488.778 212.66 488.263 211.888C487.766 211.115 486.828 210.728 485.448 210.728C484.05 210.728 483.093 211.115 482.578 211.888C482.062 212.642 481.805 213.801 481.805 215.365V225.494C481.805 227.058 482.062 228.236 482.578 229.027C483.093 229.818 484.05 230.214 485.448 230.214ZM505.054 209.266H507.262L512.009 231.621H509.939L508.835 225.632H503.509L502.377 231.621H500.335L505.054 209.266ZM508.559 224.114L506.186 212.053L503.812 224.114H508.559ZM521.602 209.266H526.459C528.667 209.266 530.231 209.836 531.151 210.977C532.071 212.099 532.531 213.718 532.531 215.834V224.721C532.531 226.948 532.08 228.659 531.179 229.855C530.295 231.032 528.787 231.621 526.652 231.621H521.602V209.266ZM526.514 230.048C527.637 230.048 528.474 229.818 529.026 229.358C529.596 228.88 529.964 228.254 530.13 227.481C530.295 226.69 530.378 225.66 530.378 224.39V216.055C530.378 214.841 530.277 213.875 530.075 213.157C529.872 212.421 529.486 211.86 528.915 211.474C528.345 211.087 527.517 210.894 526.432 210.894H523.699V230.048H526.514Z" fill="white"/>
<defs>
<clipPath id="clip0_347_147">
<rect width="315.996" height="253.245" fill="white" transform="translate(284.914 103.811) rotate(-19.179)"/>
</clipPath>
</defs>
</svg>
