<svg width="398" height="320" viewBox="0 0 398 320" fill="none" xmlns="http://www.w3.org/2000/svg">
<rect y="8.39648" width="398" height="304.14" rx="19.8169" fill="#2E2E2E"/>
<g clip-path="url(#clip0_347_147)">
<path d="M230.129 271.611C198.626 284.325 167.134 297.045 135.629 309.75C120.599 315.796 106.667 307.989 101.423 290.526C85.0329 235.905 68.6575 181.277 52.297 126.644C47.0821 109.248 53.7172 92.7394 68.6615 86.6885C131.733 61.1456 194.829 35.7102 257.932 10.2718C275.242 3.28571 288.283 16.2742 292.222 29.6957C308.307 84.5576 324.911 139.219 341.313 193.963C346.53 211.368 339.889 227.294 324.904 233.351C293.317 246.119 261.719 258.852 230.127 271.602L230.129 271.611ZM189.713 205.467C190.352 203.618 190.765 202.475 191.145 201.307C199.651 175.064 208.067 148.78 216.701 122.602C221.351 108.496 234.019 103.481 245.223 111.042C267.483 126.059 289.705 141.15 311.947 156.193C313.349 157.14 314.767 158.061 316.691 159.325C316.346 157.863 316.23 157.198 316.04 156.562C303.798 115.726 291.58 74.8818 279.304 34.0701C276.618 25.1398 270.097 21.7107 262.146 24.9194C199.241 50.2879 136.34 75.6738 73.4376 101.08C65.1124 104.44 62.0039 111.892 64.8776 121.479C79.9431 171.764 95.0236 222.044 110.097 272.326C110.399 273.337 110.802 274.316 111.341 275.806C112.075 274.134 112.587 273.039 113.056 271.913C122.449 249.363 131.812 226.795 141.243 204.259C145.158 194.9 152.665 189.82 161.204 190.981C163.795 191.331 166.41 192.404 168.796 193.695C175.695 197.402 182.491 201.384 189.711 205.487L189.713 205.467ZM225.68 257.077C229.322 255.607 232.971 254.135 236.613 252.665C264.654 241.348 292.692 230.051 320.722 218.7C328.58 215.519 331.5 208.474 328.868 199.386C327.48 194.587 326.172 189.747 324.505 185.081C323.844 183.24 322.549 181.303 321.092 180.31C302.856 167.787 284.535 155.427 266.231 143.04C257.083 136.845 247.937 130.629 238.761 124.484C234.421 121.58 230.872 123.051 228.952 128.414C228.458 129.794 228.023 131.2 227.57 132.602C218.549 160.459 209.538 188.32 200.499 216.174C197.938 224.079 194.97 225.414 188.433 221.737C179.966 216.975 171.517 212.186 163.03 207.471C158.312 204.846 155.198 206.172 152.873 211.668C152.435 212.704 152.013 213.733 151.579 214.777C141.113 239.917 130.648 265.057 120.183 290.197C118.625 293.939 118.836 294.391 122.205 295.793C125.506 297.165 128.597 296.298 131.745 295.028C163.042 282.357 194.355 269.739 225.67 257.101L225.68 257.077Z" fill="#117DCC" fill-opacity="0.25"/>
<path d="M132.8 170.604C119.434 175.979 104.753 167.664 100.187 152.153C95.6974 136.894 102.85 119.758 115.967 114.366C129.107 108.965 144.098 117.389 148.718 132.772C153.358 148.253 146.234 165.202 132.8 170.604Z" fill="#117DCC" fill-opacity="0.25"/>
<path d="M196.109 154.59L198.433 154.59L198.433 145.3L201.609 149.09L203.235 147.149L197.194 140.123L191.23 147.241L192.856 149.182L196.109 145.3L196.109 154.59ZM187.124 160.229C186.505 160.229 185.963 159.952 185.498 159.397C185.033 158.843 184.801 158.195 184.801 157.456L184.801 126.026C184.801 125.287 185.033 124.64 185.498 124.085C185.963 123.53 186.505 123.253 187.124 123.253L201.105 123.253L209.586 133.375L209.586 157.456C209.586 158.195 209.354 158.843 208.889 159.397C208.425 159.952 207.882 160.229 207.263 160.229L187.124 160.229ZM199.943 134.623L199.943 126.026L187.124 126.026L187.124 157.456L207.263 157.456L207.263 134.623L199.943 134.623Z" fill="#117DCC"/>
</g>
<rect x="10.367" y="22.367" width="379.266" height="277.266" rx="19.4499" stroke="white" stroke-width="0.73396"/>
<path d="M147.202 218.579C145.693 218.579 144.515 218.312 143.669 217.778C142.841 217.226 142.271 216.472 141.958 215.515C141.645 214.54 141.489 213.436 141.489 212.203V195.947H143.531V212.259C143.531 213.123 143.623 213.914 143.807 214.632C144.009 215.331 144.377 215.883 144.911 216.288C145.444 216.693 146.208 216.895 147.202 216.895C148.158 216.895 148.904 216.693 149.437 216.288C149.971 215.865 150.339 215.304 150.541 214.604C150.762 213.905 150.872 213.123 150.872 212.259V195.947H152.887V212.203C152.887 213.436 152.721 214.54 152.39 215.515C152.059 216.472 151.48 217.226 150.652 217.778C149.824 218.312 148.674 218.579 147.202 218.579ZM163.461 218.303V195.947H168.815C170.158 195.947 171.216 196.196 171.989 196.693C172.762 197.189 173.304 197.879 173.617 198.762C173.948 199.646 174.114 200.685 174.114 201.881C174.114 202.93 173.939 203.905 173.59 204.807C173.258 205.69 172.697 206.398 171.906 206.932C171.133 207.465 170.112 207.732 168.842 207.732H165.558V218.303H163.461ZM165.558 206.159H168.235C169.137 206.159 169.864 206.03 170.416 205.773C170.986 205.497 171.4 205.046 171.658 204.42C171.915 203.795 172.044 202.948 172.044 201.881C172.044 200.74 171.934 199.857 171.713 199.232C171.492 198.588 171.106 198.146 170.554 197.907C170.02 197.649 169.256 197.521 168.263 197.521H165.558V206.159ZM183.702 218.303V195.947H185.799V216.73H192.147V218.303H183.702ZM206.358 218.579C204.868 218.579 203.699 218.294 202.853 217.723C202.025 217.134 201.436 216.325 201.087 215.294C200.756 214.246 200.59 213.05 200.59 211.707V202.433C200.59 201.072 200.765 199.894 201.114 198.9C201.482 197.889 202.08 197.107 202.908 196.555C203.755 196.003 204.905 195.727 206.358 195.727C207.793 195.727 208.925 196.003 209.753 196.555C210.599 197.107 211.197 197.889 211.547 198.9C211.896 199.894 212.071 201.072 212.071 202.433V211.734C212.071 213.077 211.896 214.264 211.547 215.294C211.216 216.306 210.636 217.107 209.808 217.696C208.98 218.284 207.83 218.579 206.358 218.579ZM206.358 216.895C207.333 216.895 208.079 216.702 208.594 216.316C209.109 215.911 209.459 215.359 209.643 214.66C209.845 213.942 209.946 213.114 209.946 212.176V202.047C209.946 201.108 209.845 200.29 209.643 199.59C209.459 198.891 209.109 198.358 208.594 197.99C208.079 197.603 207.333 197.41 206.358 197.41C205.365 197.41 204.601 197.603 204.067 197.99C203.552 198.358 203.193 198.891 202.991 199.59C202.807 200.29 202.715 201.108 202.715 202.047V212.176C202.715 213.114 202.807 213.942 202.991 214.66C203.193 215.359 203.552 215.911 204.067 216.316C204.601 216.702 205.365 216.895 206.358 216.895ZM221.245 218.303L225.964 195.947H228.172L232.919 218.303H230.849L229.746 212.314H224.419L223.287 218.303H221.245ZM224.722 210.796H229.47L227.096 198.735L224.722 210.796ZM242.512 218.303V195.947H247.369C248.933 195.947 250.148 196.223 251.012 196.775C251.896 197.309 252.521 198.073 252.889 199.066C253.257 200.06 253.441 201.21 253.441 202.516V211.403C253.441 212.783 253.257 213.997 252.889 215.046C252.521 216.076 251.914 216.877 251.068 217.447C250.221 218.018 249.053 218.303 247.563 218.303H242.512ZM244.609 216.73H247.425C248.602 216.73 249.467 216.49 250.019 216.012C250.571 215.515 250.92 214.844 251.068 213.997C251.215 213.132 251.288 212.157 251.288 211.072V202.737C251.288 201.614 251.187 200.676 250.985 199.922C250.801 199.149 250.424 198.569 249.853 198.183C249.301 197.778 248.464 197.576 247.342 197.576H244.609V216.73Z" fill="white"/>
<defs>
<clipPath id="clip0_347_147">
<rect width="258.778" height="232.961" fill="white" transform="matrix(0.927325 -0.374258 0.287143 0.957888 43.3477 96.8496)"/>
</clipPath>
</defs>
</svg>
