<svg width="1000" height="94" viewBox="0 0 1000 94" fill="none" xmlns="http://www.w3.org/2000/svg">
<path d="M81.91 92L80.9429 91.7458L80.6132 93H81.91V92ZM101.364 17.991V16.991H100.593L100.397 17.7368L101.364 17.991ZM125.681 17.991L126.648 17.7368L126.452 16.991H125.681V17.991ZM145.135 92V93H146.432L146.102 91.7458L145.135 92ZM130.756 92L129.785 92.2396L129.973 93H130.756V92ZM126.738 75.718L127.709 75.4785L127.522 74.718H126.738V75.718ZM100.307 75.718V74.718H99.5233L99.3356 75.4785L100.307 75.718ZM96.2889 92V93H97.0721L97.2598 92.2396L96.2889 92ZM103.584 62.8193L102.614 62.5775L102.304 63.8193H103.584V62.8193ZM123.461 62.8193V63.8193H124.741L124.431 62.5775L123.461 62.8193ZM114.474 26.7664L115.444 26.5245L115.255 25.7664H114.474V26.7664ZM112.571 26.7664V25.7664H111.79L111.601 26.5245L112.571 26.7664ZM82.8772 92.2542L102.331 18.2453L100.397 17.7368L80.9429 91.7458L82.8772 92.2542ZM101.364 18.991H125.681V16.991H101.364V18.991ZM124.714 18.2453L144.168 92.2542L146.102 91.7458L126.648 17.7368L124.714 18.2453ZM145.135 91H130.756V93H145.135V91ZM131.727 91.7604L127.709 75.4785L125.767 75.9576L129.785 92.2396L131.727 91.7604ZM126.738 74.718H100.307V76.718H126.738V74.718ZM99.3356 75.4785L95.318 91.7604L97.2598 92.2396L101.277 75.9576L99.3356 75.4785ZM96.2889 91H81.91V93H96.2889V91ZM103.584 63.8193H123.461V61.8193H103.584V63.8193ZM124.431 62.5775L115.444 26.5245L113.504 27.0082L122.49 63.0612L124.431 62.5775ZM114.474 25.7664H112.571V27.7664H114.474V25.7664ZM111.601 26.5245L102.614 62.5775L104.554 63.0612L113.541 27.0082L111.601 26.5245ZM189.321 85.8678L188.629 86.589L188.634 86.5938L189.321 85.8678ZM189.321 24.2289L190.009 24.9549L190.014 24.9501L189.321 24.2289ZM232.141 24.0175L231.429 24.7196L231.434 24.7246L231.439 24.7296L232.141 24.0175ZM239.647 45.0572V46.0572H240.647V45.0572H239.647ZM225.903 45.0572H224.903V46.0572H225.903V45.0572ZM222.202 33.2157L221.44 33.8634L221.445 33.8688L221.45 33.8742L222.202 33.2157ZM199.471 76.4581L198.731 77.1308L198.739 77.1392L199.471 76.4581ZM222.202 76.7753L221.442 76.126L221.44 76.1276L222.202 76.7753ZM225.903 64.0881V63.088H224.903V64.0881H225.903ZM239.647 64.0881H240.647V63.088H239.647V64.0881ZM232.141 86.0793L231.434 85.3722L232.141 86.0793ZM211.101 92.4802C202.129 92.4802 195.138 90.0007 190.009 85.1419L188.634 86.5938C194.218 91.8848 201.747 94.4802 211.101 94.4802V92.4802ZM190.014 85.1466C184.905 80.2392 182.286 73.2005 182.286 63.8766H180.286C180.286 73.5836 183.024 81.2057 188.629 86.589L190.014 85.1466ZM182.286 63.8766V46.1144H180.286V63.8766H182.286ZM182.286 46.1144C182.286 36.7898 184.905 29.7901 190.009 24.9549L188.634 23.503C183.024 28.8175 180.286 36.4082 180.286 46.1144H182.286ZM190.014 24.9501C195.143 20.0233 202.133 17.5109 211.101 17.5109V15.5109C201.743 15.5109 194.213 18.1438 188.629 23.5077L190.014 24.9501ZM211.101 17.5109C220.008 17.5109 226.733 19.9573 231.429 24.7196L232.853 23.3154C227.68 18.0688 220.379 15.5109 211.101 15.5109V17.5109ZM231.439 24.7296C236.21 29.4335 238.647 35.9544 238.647 44.4228H240.647C240.647 35.552 238.081 28.4693 232.843 23.3054L231.439 24.7296ZM238.647 44.4228V45.0572H240.647V44.4228H238.647ZM239.647 44.0572H225.903V46.0572H239.647V44.0572ZM226.903 45.0572V43.9999H224.903V45.0572H226.903ZM226.903 43.9999C226.903 39.4303 225.608 35.5887 222.955 32.5572L221.45 33.8742C223.731 36.4816 224.903 39.8294 224.903 43.9999H226.903ZM222.964 32.5681C220.317 29.4536 216.29 27.9867 211.101 27.9867V29.9867C215.921 29.9867 219.295 31.3391 221.44 33.8634L222.964 32.5681ZM211.101 27.9867C205.947 27.9867 201.784 29.5788 198.739 32.8518L200.203 34.214C202.797 31.4254 206.387 29.9867 211.101 29.9867V27.9867ZM198.739 32.8518C195.706 36.1124 194.242 40.5029 194.242 45.903H196.242C196.242 40.8714 197.598 37.0151 200.203 34.214L198.739 32.8518ZM194.242 45.903V64.0881H196.242V45.903H194.242ZM194.242 64.0881C194.242 69.4229 195.708 73.8058 198.731 77.1308L200.211 75.7854C197.595 72.9078 196.242 69.044 196.242 64.0881H194.242ZM198.739 77.1392C201.784 80.4122 205.947 82.0044 211.101 82.0044V80.0044C206.387 80.0044 202.797 78.5657 200.203 75.777L198.739 77.1392ZM211.101 82.0044C216.29 82.0044 220.317 80.5374 222.964 77.4229L221.44 76.1276C219.295 78.6519 215.921 80.0044 211.101 80.0044V82.0044ZM222.963 77.4246C225.605 74.3298 226.903 70.4954 226.903 65.9911H224.903C224.903 70.086 223.734 73.441 221.442 76.126L222.963 77.4246ZM226.903 65.9911V64.0881H224.903V65.9911H226.903ZM225.903 65.0881H239.647V63.088H225.903V65.0881ZM238.647 64.0881V65.5682H240.647V64.0881H238.647ZM238.647 65.5682C238.647 74.0361 236.21 80.5958 231.434 85.3722L232.848 86.7864C238.08 81.5539 240.647 74.4396 240.647 65.5682H238.647ZM231.434 85.3722C226.739 90.0667 220.012 92.4802 211.101 92.4802V94.4802C220.375 94.4802 227.675 91.9598 232.848 86.7864L231.434 85.3722ZM286.966 85.8678L286.273 86.589L286.278 86.5938L286.966 85.8678ZM286.966 24.2289L287.654 24.9549L287.659 24.9501L286.966 24.2289ZM329.786 24.0175L329.073 24.7196L329.078 24.7246L329.083 24.7296L329.786 24.0175ZM337.292 45.0572V46.0572H338.292V45.0572H337.292ZM323.548 45.0572H322.548V46.0572H323.548V45.0572ZM319.847 33.2157L319.085 33.8634L319.09 33.8688L319.095 33.8742L319.847 33.2157ZM297.116 76.4581L296.376 77.1308L296.384 77.1392L297.116 76.4581ZM319.847 76.7753L319.087 76.126L319.085 76.1276L319.847 76.7753ZM323.548 64.0881V63.088H322.548V64.0881H323.548ZM337.292 64.0881H338.292V63.088H337.292V64.0881ZM329.786 86.0793L329.078 85.3722L329.786 86.0793ZM308.746 92.4802C299.774 92.4802 292.783 90.0007 287.654 85.1419L286.278 86.5938C291.863 91.8848 299.392 94.4802 308.746 94.4802V92.4802ZM287.659 85.1466C282.55 80.2392 279.931 73.2005 279.931 63.8766H277.931C277.931 73.5836 280.669 81.2057 286.273 86.589L287.659 85.1466ZM279.931 63.8766V46.1144H277.931V63.8766H279.931ZM279.931 46.1144C279.931 36.7898 282.55 29.7901 287.654 24.9549L286.278 23.503C280.669 28.8175 277.931 36.4082 277.931 46.1144H279.931ZM287.659 24.9501C292.788 20.0233 299.777 17.5109 308.746 17.5109V15.5109C299.388 15.5109 291.858 18.1438 286.273 23.5077L287.659 24.9501ZM308.746 17.5109C317.653 17.5109 324.378 19.9573 329.073 24.7196L330.498 23.3154C325.325 18.0688 318.024 15.5109 308.746 15.5109V17.5109ZM329.083 24.7296C333.855 29.4335 336.292 35.9544 336.292 44.4228H338.292C338.292 35.552 335.725 28.4693 330.488 23.3054L329.083 24.7296ZM336.292 44.4228V45.0572H338.292V44.4228H336.292ZM337.292 44.0572H323.548V46.0572H337.292V44.0572ZM324.548 45.0572V43.9999H322.548V45.0572H324.548ZM324.548 43.9999C324.548 39.4303 323.252 35.5887 320.6 32.5572L319.095 33.8742C321.376 36.4816 322.548 39.8294 322.548 43.9999H324.548ZM320.609 32.5681C317.962 29.4536 313.934 27.9867 308.746 27.9867V29.9867C313.566 29.9867 316.94 31.3391 319.085 33.8634L320.609 32.5681ZM308.746 27.9867C303.592 27.9867 299.428 29.5788 296.384 32.8518L297.848 34.214C300.442 31.4254 304.032 29.9867 308.746 29.9867V27.9867ZM296.384 32.8518C293.351 36.1124 291.887 40.5029 291.887 45.903H293.887C293.887 40.8714 295.242 37.0151 297.848 34.214L296.384 32.8518ZM291.887 45.903V64.0881H293.887V45.903H291.887ZM291.887 64.0881C291.887 69.4229 293.353 73.8058 296.376 77.1308L297.856 75.7854C295.24 72.9078 293.887 69.044 293.887 64.0881H291.887ZM296.384 77.1392C299.428 80.4122 303.592 82.0044 308.746 82.0044V80.0044C304.032 80.0044 300.442 78.5657 297.848 75.777L296.384 77.1392ZM308.746 82.0044C313.934 82.0044 317.962 80.5374 320.609 77.4229L319.085 76.1276C316.94 78.6519 313.566 80.0044 308.746 80.0044V82.0044ZM320.608 77.4246C323.25 74.3298 324.548 70.4954 324.548 65.9911H322.548C322.548 70.086 321.379 73.441 319.087 76.126L320.608 77.4246ZM324.548 65.9911V64.0881H322.548V65.9911H324.548ZM323.548 65.0881H337.292V63.088H323.548V65.0881ZM336.292 64.0881V65.5682H338.292V64.0881H336.292ZM336.292 65.5682C336.292 74.0361 333.855 80.5958 329.078 85.3722L330.493 86.7864C335.725 81.5539 338.292 74.4396 338.292 65.5682H336.292ZM329.078 85.3722C324.384 90.0667 317.657 92.4802 308.746 92.4802V94.4802C318.02 94.4802 325.319 91.9598 330.493 86.7864L329.078 85.3722ZM378.267 92H377.267V93H378.267V92ZM378.267 17.991V16.991H377.267V17.991H378.267ZM425.844 17.991H426.844V16.991H425.844V17.991ZM425.844 30.6783V31.6783H426.844V30.6783H425.844ZM392.223 30.6783V29.6783H391.223V30.6783H392.223ZM392.223 48.3347H391.223V49.3347H392.223V48.3347ZM422.884 48.3347H423.884V47.3347H422.884V48.3347ZM422.884 61.022V62.022H423.884V61.022H422.884ZM392.223 61.022V60.022H391.223V61.022H392.223ZM392.223 79.3128H391.223V80.3128H392.223V79.3128ZM426.479 79.3128H427.479V78.3128H426.479V79.3128ZM426.479 92V93H427.479V92H426.479ZM379.267 92V17.991H377.267V92H379.267ZM378.267 18.991H425.844V16.991H378.267V18.991ZM424.844 17.991V30.6783H426.844V17.991H424.844ZM425.844 29.6783H392.223V31.6783H425.844V29.6783ZM391.223 30.6783V48.3347H393.223V30.6783H391.223ZM392.223 49.3347H422.884V47.3347H392.223V49.3347ZM421.884 48.3347V61.022H423.884V48.3347H421.884ZM422.884 60.022H392.223V62.022H422.884V60.022ZM391.223 61.022V79.3128H393.223V61.022H391.223ZM392.223 80.3128H426.479V78.3128H392.223V80.3128ZM425.479 79.3128V92H427.479V79.3128H425.479ZM426.479 91H378.267V93H426.479V91ZM466.413 92H465.413V93H466.413V92ZM466.413 17.991V16.991H465.413V17.991H466.413ZM480.369 17.991H481.369V16.991H480.369V17.991ZM480.369 79.3128H479.369V80.3128H480.369V79.3128ZM514.202 79.3128H515.202V78.3128H514.202V79.3128ZM514.202 92V93H515.202V92H514.202ZM467.413 92V17.991H465.413V92H467.413ZM466.413 18.991H480.369V16.991H466.413V18.991ZM479.369 17.991V79.3128H481.369V17.991H479.369ZM480.369 80.3128H514.202V78.3128H480.369V80.3128ZM513.202 79.3128V92H515.202V79.3128H513.202ZM514.202 91H466.413V93H514.202V91ZM553.32 92H552.32V93H553.32V92ZM553.32 17.991V16.991H552.32V17.991H553.32ZM600.897 17.991H601.897V16.991H600.897V17.991ZM600.897 30.6783V31.6783H601.897V30.6783H600.897ZM567.276 30.6783V29.6783H566.276V30.6783H567.276ZM567.276 48.3347H566.276V49.3347H567.276V48.3347ZM597.937 48.3347H598.937V47.3347H597.937V48.3347ZM597.937 61.022V62.022H598.937V61.022H597.937ZM567.276 61.022V60.022H566.276V61.022H567.276ZM567.276 79.3128H566.276V80.3128H567.276V79.3128ZM601.531 79.3128H602.531V78.3128H601.531V79.3128ZM601.531 92V93H602.531V92H601.531ZM554.32 92V17.991H552.32V92H554.32ZM553.32 18.991H600.897V16.991H553.32V18.991ZM599.897 17.991V30.6783H601.897V17.991H599.897ZM600.897 29.6783H567.276V31.6783H600.897V29.6783ZM566.276 30.6783V48.3347H568.276V30.6783H566.276ZM567.276 49.3347H597.937V47.3347H567.276V49.3347ZM596.937 48.3347V61.022H598.937V48.3347H596.937ZM597.937 60.022H567.276V62.022H597.937V60.022ZM566.276 61.022V79.3128H568.276V61.022H566.276ZM567.276 80.3128H601.531V78.3128H567.276V80.3128ZM600.531 79.3128V92H602.531V79.3128H600.531ZM601.531 91H553.32V93H601.531V91ZM641.466 92H640.466V93H641.466V92ZM641.466 17.991V16.991H640.466V17.991H641.466ZM685.765 20.4228L685.34 21.328L685.765 20.4228ZM693.801 27.295L694.642 26.7543L693.801 27.295ZM693.483 49.8149L694.276 50.4246V50.4246L693.483 49.8149ZM685.66 55.8413L685.281 54.9158L684.66 55.17V55.8413H685.66ZM685.66 57.7444H684.66V58.6957L685.61 58.7432L685.66 57.7444ZM692.215 60.7048L691.451 61.3507L691.458 61.3581L691.464 61.3654L692.215 60.7048ZM694.541 92V93H695.541V92H694.541ZM680.585 92H679.585V93H680.585V92ZM679.21 65.674L678.429 66.2986L678.442 66.314L678.455 66.3289L679.21 65.674ZM655.422 64.0881V63.088H654.422V64.0881H655.422ZM655.422 92V93H656.422V92H655.422ZM655.422 51.4008H654.422V52.4008H655.422V51.4008ZM679.845 48.7576L680.538 49.4785L680.538 49.4779L679.845 48.7576ZM679.95 33.4272L679.243 34.1343L679.25 34.1412L679.257 34.148L679.95 33.4272ZM655.422 30.6783V29.6783H654.422V30.6783H655.422ZM642.466 92V17.991H640.466V92H642.466ZM641.466 18.991H673.607V16.991H641.466V18.991ZM673.607 18.991C678.143 18.991 682.046 19.7814 685.34 21.328L686.19 19.5175C682.578 17.8218 678.374 16.991 673.607 16.991V18.991ZM685.34 21.328C688.639 22.8762 691.167 25.0469 692.959 27.8358L694.642 26.7543C692.628 23.6224 689.799 21.2116 686.19 19.5175L685.34 21.328ZM692.959 27.8358C694.745 30.6129 695.655 33.9082 695.655 37.762H697.655C697.655 33.5805 696.663 29.8979 694.642 26.7543L692.959 27.8358ZM695.655 37.762V39.0307H697.655V37.762H695.655ZM695.655 39.0307C695.655 43.3132 694.637 46.6749 692.691 49.2052L694.276 50.4246C696.559 47.4571 697.655 43.6293 697.655 39.0307H695.655ZM692.691 49.2052C690.68 51.8192 688.213 53.7163 685.281 54.9158L686.038 56.7669C689.309 55.4289 692.058 53.3084 694.276 50.4246L692.691 49.2052ZM684.66 55.8413V57.7444H686.66V55.8413H684.66ZM685.61 58.7432C688.206 58.873 690.111 59.7667 691.451 61.3507L692.978 60.0588C691.217 57.9777 688.752 56.8978 685.71 56.7457L685.61 58.7432ZM691.464 61.3654C692.815 62.9011 693.541 65.0057 693.541 67.7885H695.541C695.541 64.6506 694.715 62.0327 692.965 60.0442L691.464 61.3654ZM693.541 67.7885V92H695.541V67.7885H693.541ZM694.541 91H680.585V93H694.541V91ZM681.585 92V69.7973H679.585V92H681.585ZM681.585 69.7973C681.585 67.9177 681.071 66.2943 679.966 65.019L678.455 66.3289C679.182 67.1682 679.585 68.2937 679.585 69.7973H681.585ZM679.991 65.0493C678.875 63.6539 677.065 63.088 674.875 63.088V65.0881C676.774 65.0881 677.854 65.5794 678.429 66.2986L679.991 65.0493ZM674.875 63.088H655.422V65.0881H674.875V63.088ZM654.422 64.0881V92H656.422V64.0881H654.422ZM655.422 91H641.466V93H655.422V91ZM655.422 52.4008H672.127V50.4008H655.422V52.4008ZM672.127 52.4008C675.617 52.4008 678.468 51.469 680.538 49.4785L679.151 48.0368C677.556 49.5705 675.262 50.4008 672.127 50.4008V52.4008ZM680.538 49.4779C682.662 47.4332 683.699 44.7643 683.699 41.5682H681.699C681.699 44.2928 680.834 46.4168 679.151 48.0373L680.538 49.4779ZM683.699 41.5682V40.5109H681.699V41.5682H683.699ZM683.699 40.5109C683.699 37.3272 682.705 34.6882 680.643 32.7064L679.257 34.148C680.861 35.6904 681.699 37.7739 681.699 40.5109H683.699ZM680.657 32.7201C678.585 30.6477 675.691 29.6783 672.127 29.6783V31.6783C675.329 31.6783 677.65 32.5414 679.243 34.1343L680.657 32.7201ZM672.127 29.6783H655.422V31.6783H672.127V29.6783ZM654.422 30.6783V51.4008H656.422V30.6783H654.422ZM732.797 92L731.829 91.7458L731.5 93H732.797V92ZM752.25 17.991V16.991H751.479L751.283 17.7368L752.25 17.991ZM776.568 17.991L777.535 17.7368L777.339 16.991H776.568V17.991ZM796.021 92V93H797.318L796.988 91.7458L796.021 92ZM781.642 92L780.672 92.2396L780.859 93H781.642V92ZM777.625 75.718L778.596 75.4785L778.408 74.718H777.625V75.718ZM751.193 75.718V74.718H750.41L750.222 75.4785L751.193 75.718ZM747.175 92V93H747.959L748.146 92.2396L747.175 92ZM754.471 62.8193L753.5 62.5775L753.191 63.8193H754.471V62.8193ZM774.347 62.8193V63.8193H775.627L775.318 62.5775L774.347 62.8193ZM765.36 26.7664L766.331 26.5245L766.142 25.7664H765.36V26.7664ZM763.457 26.7664V25.7664H762.676L762.487 26.5245L763.457 26.7664ZM733.764 92.2542L753.217 18.2453L751.283 17.7368L731.829 91.7458L733.764 92.2542ZM752.25 18.991H776.568V16.991H752.25V18.991ZM775.6 18.2453L795.054 92.2542L796.988 91.7458L777.535 17.7368L775.6 18.2453ZM796.021 91H781.642V93H796.021V91ZM782.613 91.7604L778.596 75.4785L776.654 75.9576L780.672 92.2396L782.613 91.7604ZM777.625 74.718H751.193V76.718H777.625V74.718ZM750.222 75.4785L746.205 91.7604L748.146 92.2396L752.164 75.9576L750.222 75.4785ZM747.175 91H732.797V93H747.175V91ZM754.471 63.8193H774.347V61.8193H754.471V63.8193ZM775.318 62.5775L766.331 26.5245L764.39 27.0082L773.377 63.0612L775.318 62.5775ZM765.36 25.7664H763.457V27.7664H765.36V25.7664ZM762.487 26.5245L753.5 62.5775L755.441 63.0612L764.428 27.0082L762.487 26.5245ZM844.797 92H843.797V93H844.797V92ZM844.797 30.6783H845.797V29.6783H844.797V30.6783ZM823.229 30.6783H822.229V31.6783H823.229V30.6783ZM823.229 17.991V16.991H822.229V17.991H823.229ZM880.321 17.991H881.321V16.991H880.321V17.991ZM880.321 30.6783V31.6783H881.321V30.6783H880.321ZM858.753 30.6783V29.6783H857.753V30.6783H858.753ZM858.753 92V93H859.753V92H858.753ZM845.797 92V30.6783H843.797V92H845.797ZM844.797 29.6783H823.229V31.6783H844.797V29.6783ZM824.229 30.6783V17.991H822.229V30.6783H824.229ZM823.229 18.991H880.321V16.991H823.229V18.991ZM879.321 17.991V30.6783H881.321V17.991H879.321ZM880.321 29.6783H858.753V31.6783H880.321V29.6783ZM857.753 30.6783V92H859.753V30.6783H857.753ZM858.753 91H844.797V93H858.753V91ZM919.429 92H918.429V93H919.429V92ZM919.429 17.991V16.991H918.429V17.991H919.429ZM967.006 17.991H968.006V16.991H967.006V17.991ZM967.006 30.6783V31.6783H968.006V30.6783H967.006ZM933.385 30.6783V29.6783H932.385V30.6783H933.385ZM933.385 48.3347H932.385V49.3347H933.385V48.3347ZM964.046 48.3347H965.046V47.3347H964.046V48.3347ZM964.046 61.022V62.022H965.046V61.022H964.046ZM933.385 61.022V60.022H932.385V61.022H933.385ZM933.385 79.3128H932.385V80.3128H933.385V79.3128ZM967.64 79.3128H968.64V78.3128H967.64V79.3128ZM967.64 92V93H968.64V92H967.64ZM920.429 92V17.991H918.429V92H920.429ZM919.429 18.991H967.006V16.991H919.429V18.991ZM966.006 17.991V30.6783H968.006V17.991H966.006ZM967.006 29.6783H933.385V31.6783H967.006V29.6783ZM932.385 30.6783V48.3347H934.385V30.6783H932.385ZM933.385 49.3347H964.046V47.3347H933.385V49.3347ZM963.046 48.3347V61.022H965.046V48.3347H963.046ZM964.046 60.022H933.385V62.022H964.046V60.022ZM932.385 61.022V79.3128H934.385V61.022H932.385ZM933.385 80.3128H967.64V78.3128H933.385V80.3128ZM966.64 79.3128V92H968.64V79.3128H966.64ZM967.64 91H919.429V93H967.64V91Z" fill="url(#paint0_linear_303_68)"/>
<path d="M58.91 92L57.9429 91.7458L57.6132 93H58.91V92ZM78.3638 17.991V16.991H77.5927L77.3967 17.7368L78.3638 17.991ZM102.681 17.991L103.648 17.7368L103.452 16.991H102.681V17.991ZM122.135 92V93H123.432L123.102 91.7458L122.135 92ZM107.756 92L106.785 92.2396L106.973 93H107.756V92ZM103.738 75.718L104.709 75.4785L104.522 74.718H103.738V75.718ZM77.3065 75.718V74.718H76.5233L76.3356 75.4785L77.3065 75.718ZM73.2889 92V93H74.0721L74.2598 92.2396L73.2889 92ZM80.5841 62.8193L79.6138 62.5775L79.3042 63.8193H80.5841V62.8193ZM100.461 62.8193V63.8193H101.741L101.431 62.5775L100.461 62.8193ZM91.474 26.7664L92.4443 26.5245L92.2553 25.7664H91.474V26.7664ZM89.5709 26.7664V25.7664H88.7895L88.6006 26.5245L89.5709 26.7664ZM59.8772 92.2542L79.3309 18.2453L77.3967 17.7368L57.9429 91.7458L59.8772 92.2542ZM78.3638 18.991H102.681V16.991H78.3638V18.991ZM101.714 18.2453L121.168 92.2542L123.102 91.7458L103.648 17.7368L101.714 18.2453ZM122.135 91H107.756V93H122.135V91ZM108.727 91.7604L104.709 75.4785L102.767 75.9576L106.785 92.2396L108.727 91.7604ZM103.738 74.718H77.3065V76.718H103.738V74.718ZM76.3356 75.4785L72.318 91.7604L74.2598 92.2396L78.2774 75.9576L76.3356 75.4785ZM73.2889 91H58.91V93H73.2889V91ZM80.5841 63.8193H100.461V61.8193H80.5841V63.8193ZM101.431 62.5775L92.4443 26.5245L90.5037 27.0082L99.4905 63.0612L101.431 62.5775ZM91.474 25.7664H89.5709V27.7664H91.474V25.7664ZM88.6006 26.5245L79.6138 62.5775L81.5544 63.0612L90.5412 27.0082L88.6006 26.5245ZM166.321 85.8678L165.629 86.589L165.634 86.5938L166.321 85.8678ZM166.321 24.2289L167.009 24.9549L167.014 24.9501L166.321 24.2289ZM209.141 24.0175L208.429 24.7196L208.434 24.7246L208.439 24.7296L209.141 24.0175ZM216.647 45.0572V46.0572H217.647V45.0572H216.647ZM202.903 45.0572H201.903V46.0572H202.903V45.0572ZM199.202 33.2157L198.44 33.8634L198.445 33.8688L198.45 33.8742L199.202 33.2157ZM176.471 76.4581L175.731 77.1308L175.739 77.1392L176.471 76.4581ZM199.202 76.7753L198.442 76.126L198.44 76.1276L199.202 76.7753ZM202.903 64.0881V63.088H201.903V64.0881H202.903ZM216.647 64.0881H217.647V63.088H216.647V64.0881ZM209.141 86.0793L208.434 85.3722L209.141 86.0793ZM188.101 92.4802C179.129 92.4802 172.138 90.0007 167.009 85.1419L165.634 86.5938C171.218 91.8848 178.747 94.4802 188.101 94.4802V92.4802ZM167.014 85.1466C161.905 80.2392 159.286 73.2005 159.286 63.8766H157.286C157.286 73.5836 160.024 81.2057 165.629 86.589L167.014 85.1466ZM159.286 63.8766V46.1144H157.286V63.8766H159.286ZM159.286 46.1144C159.286 36.7898 161.905 29.7901 167.009 24.9549L165.634 23.503C160.024 28.8175 157.286 36.4082 157.286 46.1144H159.286ZM167.014 24.9501C172.143 20.0233 179.133 17.5109 188.101 17.5109V15.5109C178.743 15.5109 171.213 18.1438 165.629 23.5077L167.014 24.9501ZM188.101 17.5109C197.008 17.5109 203.733 19.9573 208.429 24.7196L209.853 23.3154C204.68 18.0688 197.379 15.5109 188.101 15.5109V17.5109ZM208.439 24.7296C213.21 29.4335 215.647 35.9544 215.647 44.4228H217.647C217.647 35.552 215.081 28.4693 209.843 23.3054L208.439 24.7296ZM215.647 44.4228V45.0572H217.647V44.4228H215.647ZM216.647 44.0572H202.903V46.0572H216.647V44.0572ZM203.903 45.0572V43.9999H201.903V45.0572H203.903ZM203.903 43.9999C203.903 39.4303 202.608 35.5887 199.955 32.5572L198.45 33.8742C200.731 36.4816 201.903 39.8294 201.903 43.9999H203.903ZM199.964 32.5681C197.317 29.4536 193.29 27.9867 188.101 27.9867V29.9867C192.921 29.9867 196.295 31.3391 198.44 33.8634L199.964 32.5681ZM188.101 27.9867C182.947 27.9867 178.784 29.5788 175.739 32.8518L177.203 34.214C179.797 31.4254 183.387 29.9867 188.101 29.9867V27.9867ZM175.739 32.8518C172.706 36.1124 171.242 40.5029 171.242 45.903H173.242C173.242 40.8714 174.598 37.0151 177.203 34.214L175.739 32.8518ZM171.242 45.903V64.0881H173.242V45.903H171.242ZM171.242 64.0881C171.242 69.4229 172.708 73.8058 175.731 77.1308L177.211 75.7854C174.595 72.9078 173.242 69.044 173.242 64.0881H171.242ZM175.739 77.1392C178.784 80.4122 182.947 82.0044 188.101 82.0044V80.0044C183.387 80.0044 179.797 78.5657 177.203 75.777L175.739 77.1392ZM188.101 82.0044C193.29 82.0044 197.317 80.5374 199.964 77.4229L198.44 76.1276C196.295 78.6519 192.921 80.0044 188.101 80.0044V82.0044ZM199.963 77.4246C202.605 74.3298 203.903 70.4954 203.903 65.9911H201.903C201.903 70.086 200.734 73.441 198.442 76.126L199.963 77.4246ZM203.903 65.9911V64.0881H201.903V65.9911H203.903ZM202.903 65.0881H216.647V63.088H202.903V65.0881ZM215.647 64.0881V65.5682H217.647V64.0881H215.647ZM215.647 65.5682C215.647 74.0361 213.21 80.5958 208.434 85.3722L209.848 86.7864C215.08 81.5539 217.647 74.4396 217.647 65.5682H215.647ZM208.434 85.3722C203.739 90.0667 197.012 92.4802 188.101 92.4802V94.4802C197.375 94.4802 204.675 91.9598 209.848 86.7864L208.434 85.3722ZM263.966 85.8678L263.273 86.589L263.278 86.5938L263.966 85.8678ZM263.966 24.2289L264.654 24.9549L264.659 24.9501L263.966 24.2289ZM306.786 24.0175L306.073 24.7196L306.078 24.7246L306.083 24.7296L306.786 24.0175ZM314.292 45.0572V46.0572H315.292V45.0572H314.292ZM300.548 45.0572H299.548V46.0572H300.548V45.0572ZM296.847 33.2157L296.085 33.8634L296.09 33.8688L296.095 33.8742L296.847 33.2157ZM274.116 76.4581L273.376 77.1308L273.384 77.1392L274.116 76.4581ZM296.847 76.7753L296.087 76.126L296.085 76.1276L296.847 76.7753ZM300.548 64.0881V63.088H299.548V64.0881H300.548ZM314.292 64.0881H315.292V63.088H314.292V64.0881ZM306.786 86.0793L306.078 85.3722L306.786 86.0793ZM285.746 92.4802C276.774 92.4802 269.783 90.0007 264.654 85.1419L263.278 86.5938C268.863 91.8848 276.392 94.4802 285.746 94.4802V92.4802ZM264.659 85.1466C259.55 80.2392 256.931 73.2005 256.931 63.8766H254.931C254.931 73.5836 257.669 81.2057 263.273 86.589L264.659 85.1466ZM256.931 63.8766V46.1144H254.931V63.8766H256.931ZM256.931 46.1144C256.931 36.7898 259.55 29.7901 264.654 24.9549L263.278 23.503C257.669 28.8175 254.931 36.4082 254.931 46.1144H256.931ZM264.659 24.9501C269.788 20.0233 276.777 17.5109 285.746 17.5109V15.5109C276.388 15.5109 268.858 18.1438 263.273 23.5077L264.659 24.9501ZM285.746 17.5109C294.653 17.5109 301.378 19.9573 306.073 24.7196L307.498 23.3154C302.325 18.0688 295.024 15.5109 285.746 15.5109V17.5109ZM306.083 24.7296C310.855 29.4335 313.292 35.9544 313.292 44.4228H315.292C315.292 35.552 312.725 28.4693 307.488 23.3054L306.083 24.7296ZM313.292 44.4228V45.0572H315.292V44.4228H313.292ZM314.292 44.0572H300.548V46.0572H314.292V44.0572ZM301.548 45.0572V43.9999H299.548V45.0572H301.548ZM301.548 43.9999C301.548 39.4303 300.252 35.5887 297.6 32.5572L296.095 33.8742C298.376 36.4816 299.548 39.8294 299.548 43.9999H301.548ZM297.609 32.5681C294.962 29.4536 290.934 27.9867 285.746 27.9867V29.9867C290.566 29.9867 293.94 31.3391 296.085 33.8634L297.609 32.5681ZM285.746 27.9867C280.592 27.9867 276.428 29.5788 273.384 32.8518L274.848 34.214C277.442 31.4254 281.032 29.9867 285.746 29.9867V27.9867ZM273.384 32.8518C270.351 36.1124 268.887 40.5029 268.887 45.903H270.887C270.887 40.8714 272.242 37.0151 274.848 34.214L273.384 32.8518ZM268.887 45.903V64.0881H270.887V45.903H268.887ZM268.887 64.0881C268.887 69.4229 270.353 73.8058 273.376 77.1308L274.856 75.7854C272.24 72.9078 270.887 69.044 270.887 64.0881H268.887ZM273.384 77.1392C276.428 80.4122 280.592 82.0044 285.746 82.0044V80.0044C281.032 80.0044 277.442 78.5657 274.848 75.777L273.384 77.1392ZM285.746 82.0044C290.934 82.0044 294.962 80.5374 297.609 77.4229L296.085 76.1276C293.94 78.6519 290.566 80.0044 285.746 80.0044V82.0044ZM297.608 77.4246C300.25 74.3298 301.548 70.4954 301.548 65.9911H299.548C299.548 70.086 298.379 73.441 296.087 76.126L297.608 77.4246ZM301.548 65.9911V64.0881H299.548V65.9911H301.548ZM300.548 65.0881H314.292V63.088H300.548V65.0881ZM313.292 64.0881V65.5682H315.292V64.0881H313.292ZM313.292 65.5682C313.292 74.0361 310.855 80.5958 306.078 85.3722L307.493 86.7864C312.725 81.5539 315.292 74.4396 315.292 65.5682H313.292ZM306.078 85.3722C301.384 90.0667 294.657 92.4802 285.746 92.4802V94.4802C295.02 94.4802 302.319 91.9598 307.493 86.7864L306.078 85.3722ZM355.267 92H354.267V93H355.267V92ZM355.267 17.991V16.991H354.267V17.991H355.267ZM402.844 17.991H403.844V16.991H402.844V17.991ZM402.844 30.6783V31.6783H403.844V30.6783H402.844ZM369.223 30.6783V29.6783H368.223V30.6783H369.223ZM369.223 48.3347H368.223V49.3347H369.223V48.3347ZM399.884 48.3347H400.884V47.3347H399.884V48.3347ZM399.884 61.022V62.022H400.884V61.022H399.884ZM369.223 61.022V60.022H368.223V61.022H369.223ZM369.223 79.3128H368.223V80.3128H369.223V79.3128ZM403.479 79.3128H404.479V78.3128H403.479V79.3128ZM403.479 92V93H404.479V92H403.479ZM356.267 92V17.991H354.267V92H356.267ZM355.267 18.991H402.844V16.991H355.267V18.991ZM401.844 17.991V30.6783H403.844V17.991H401.844ZM402.844 29.6783H369.223V31.6783H402.844V29.6783ZM368.223 30.6783V48.3347H370.223V30.6783H368.223ZM369.223 49.3347H399.884V47.3347H369.223V49.3347ZM398.884 48.3347V61.022H400.884V48.3347H398.884ZM399.884 60.022H369.223V62.022H399.884V60.022ZM368.223 61.022V79.3128H370.223V61.022H368.223ZM369.223 80.3128H403.479V78.3128H369.223V80.3128ZM402.479 79.3128V92H404.479V79.3128H402.479ZM403.479 91H355.267V93H403.479V91ZM443.413 92H442.413V93H443.413V92ZM443.413 17.991V16.991H442.413V17.991H443.413ZM457.369 17.991H458.369V16.991H457.369V17.991ZM457.369 79.3128H456.369V80.3128H457.369V79.3128ZM491.202 79.3128H492.202V78.3128H491.202V79.3128ZM491.202 92V93H492.202V92H491.202ZM444.413 92V17.991H442.413V92H444.413ZM443.413 18.991H457.369V16.991H443.413V18.991ZM456.369 17.991V79.3128H458.369V17.991H456.369ZM457.369 80.3128H491.202V78.3128H457.369V80.3128ZM490.202 79.3128V92H492.202V79.3128H490.202ZM491.202 91H443.413V93H491.202V91ZM530.32 92H529.32V93H530.32V92ZM530.32 17.991V16.991H529.32V17.991H530.32ZM577.897 17.991H578.897V16.991H577.897V17.991ZM577.897 30.6783V31.6783H578.897V30.6783H577.897ZM544.276 30.6783V29.6783H543.276V30.6783H544.276ZM544.276 48.3347H543.276V49.3347H544.276V48.3347ZM574.937 48.3347H575.937V47.3347H574.937V48.3347ZM574.937 61.022V62.022H575.937V61.022H574.937ZM544.276 61.022V60.022H543.276V61.022H544.276ZM544.276 79.3128H543.276V80.3128H544.276V79.3128ZM578.531 79.3128H579.531V78.3128H578.531V79.3128ZM578.531 92V93H579.531V92H578.531ZM531.32 92V17.991H529.32V92H531.32ZM530.32 18.991H577.897V16.991H530.32V18.991ZM576.897 17.991V30.6783H578.897V17.991H576.897ZM577.897 29.6783H544.276V31.6783H577.897V29.6783ZM543.276 30.6783V48.3347H545.276V30.6783H543.276ZM544.276 49.3347H574.937V47.3347H544.276V49.3347ZM573.937 48.3347V61.022H575.937V48.3347H573.937ZM574.937 60.022H544.276V62.022H574.937V60.022ZM543.276 61.022V79.3128H545.276V61.022H543.276ZM544.276 80.3128H578.531V78.3128H544.276V80.3128ZM577.531 79.3128V92H579.531V79.3128H577.531ZM578.531 91H530.32V93H578.531V91ZM618.466 92H617.466V93H618.466V92ZM618.466 17.991V16.991H617.466V17.991H618.466ZM662.765 20.4228L662.34 21.328L662.765 20.4228ZM670.801 27.295L671.642 26.7543L670.801 27.295ZM670.483 49.8149L671.276 50.4246V50.4246L670.483 49.8149ZM662.66 55.8413L662.281 54.9158L661.66 55.17V55.8413H662.66ZM662.66 57.7444H661.66V58.6957L662.61 58.7432L662.66 57.7444ZM669.215 60.7048L668.451 61.3507L668.458 61.3581L668.464 61.3654L669.215 60.7048ZM671.541 92V93H672.541V92H671.541ZM657.585 92H656.585V93H657.585V92ZM656.21 65.674L655.429 66.2986L655.442 66.314L655.455 66.3289L656.21 65.674ZM632.422 64.0881V63.088H631.422V64.0881H632.422ZM632.422 92V93H633.422V92H632.422ZM632.422 51.4008H631.422V52.4008H632.422V51.4008ZM656.845 48.7576L657.538 49.4785L657.538 49.4779L656.845 48.7576ZM656.95 33.4272L656.243 34.1343L656.25 34.1412L656.257 34.148L656.95 33.4272ZM632.422 30.6783V29.6783H631.422V30.6783H632.422ZM619.466 92V17.991H617.466V92H619.466ZM618.466 18.991H650.607V16.991H618.466V18.991ZM650.607 18.991C655.143 18.991 659.046 19.7814 662.34 21.328L663.19 19.5175C659.578 17.8218 655.374 16.991 650.607 16.991V18.991ZM662.34 21.328C665.639 22.8762 668.167 25.0469 669.959 27.8358L671.642 26.7543C669.628 23.6224 666.799 21.2116 663.19 19.5175L662.34 21.328ZM669.959 27.8358C671.745 30.6129 672.655 33.9082 672.655 37.762H674.655C674.655 33.5805 673.663 29.8979 671.642 26.7543L669.959 27.8358ZM672.655 37.762V39.0307H674.655V37.762H672.655ZM672.655 39.0307C672.655 43.3132 671.637 46.6749 669.691 49.2052L671.276 50.4246C673.559 47.4571 674.655 43.6293 674.655 39.0307H672.655ZM669.691 49.2052C667.68 51.8192 665.213 53.7163 662.281 54.9158L663.038 56.7669C666.309 55.4289 669.058 53.3084 671.276 50.4246L669.691 49.2052ZM661.66 55.8413V57.7444H663.66V55.8413H661.66ZM662.61 58.7432C665.206 58.873 667.111 59.7667 668.451 61.3507L669.978 60.0588C668.217 57.9777 665.752 56.8978 662.71 56.7457L662.61 58.7432ZM668.464 61.3654C669.815 62.9011 670.541 65.0057 670.541 67.7885H672.541C672.541 64.6506 671.715 62.0327 669.965 60.0442L668.464 61.3654ZM670.541 67.7885V92H672.541V67.7885H670.541ZM671.541 91H657.585V93H671.541V91ZM658.585 92V69.7973H656.585V92H658.585ZM658.585 69.7973C658.585 67.9177 658.071 66.2943 656.966 65.019L655.455 66.3289C656.182 67.1682 656.585 68.2937 656.585 69.7973H658.585ZM656.991 65.0493C655.875 63.6539 654.065 63.088 651.875 63.088V65.0881C653.774 65.0881 654.854 65.5794 655.429 66.2986L656.991 65.0493ZM651.875 63.088H632.422V65.0881H651.875V63.088ZM631.422 64.0881V92H633.422V64.0881H631.422ZM632.422 91H618.466V93H632.422V91ZM632.422 52.4008H649.127V50.4008H632.422V52.4008ZM649.127 52.4008C652.617 52.4008 655.468 51.469 657.538 49.4785L656.151 48.0368C654.556 49.5705 652.262 50.4008 649.127 50.4008V52.4008ZM657.538 49.4779C659.662 47.4332 660.699 44.7643 660.699 41.5682H658.699C658.699 44.2928 657.834 46.4168 656.151 48.0373L657.538 49.4779ZM660.699 41.5682V40.5109H658.699V41.5682H660.699ZM660.699 40.5109C660.699 37.3272 659.705 34.6882 657.643 32.7064L656.257 34.148C657.861 35.6904 658.699 37.7739 658.699 40.5109H660.699ZM657.657 32.7201C655.585 30.6477 652.691 29.6783 649.127 29.6783V31.6783C652.329 31.6783 654.65 32.5414 656.243 34.1343L657.657 32.7201ZM649.127 29.6783H632.422V31.6783H649.127V29.6783ZM631.422 30.6783V51.4008H633.422V30.6783H631.422ZM709.797 92L708.829 91.7458L708.5 93H709.797V92ZM729.25 17.991V16.991H728.479L728.283 17.7368L729.25 17.991ZM753.568 17.991L754.535 17.7368L754.339 16.991H753.568V17.991ZM773.021 92V93H774.318L773.988 91.7458L773.021 92ZM758.642 92L757.672 92.2396L757.859 93H758.642V92ZM754.625 75.718L755.596 75.4785L755.408 74.718H754.625V75.718ZM728.193 75.718V74.718H727.41L727.222 75.4785L728.193 75.718ZM724.175 92V93H724.959L725.146 92.2396L724.175 92ZM731.471 62.8193L730.5 62.5775L730.191 63.8193H731.471V62.8193ZM751.347 62.8193V63.8193H752.627L752.318 62.5775L751.347 62.8193ZM742.36 26.7664L743.331 26.5245L743.142 25.7664H742.36V26.7664ZM740.457 26.7664V25.7664H739.676L739.487 26.5245L740.457 26.7664ZM710.764 92.2542L730.217 18.2453L728.283 17.7368L708.829 91.7458L710.764 92.2542ZM729.25 18.991H753.568V16.991H729.25V18.991ZM752.6 18.2453L772.054 92.2542L773.988 91.7458L754.535 17.7368L752.6 18.2453ZM773.021 91H758.642V93H773.021V91ZM759.613 91.7604L755.596 75.4785L753.654 75.9576L757.672 92.2396L759.613 91.7604ZM754.625 74.718H728.193V76.718H754.625V74.718ZM727.222 75.4785L723.205 91.7604L725.146 92.2396L729.164 75.9576L727.222 75.4785ZM724.175 91H709.797V93H724.175V91ZM731.471 63.8193H751.347V61.8193H731.471V63.8193ZM752.318 62.5775L743.331 26.5245L741.39 27.0082L750.377 63.0612L752.318 62.5775ZM742.36 25.7664H740.457V27.7664H742.36V25.7664ZM739.487 26.5245L730.5 62.5775L732.441 63.0612L741.428 27.0082L739.487 26.5245ZM821.797 92H820.797V93H821.797V92ZM821.797 30.6783H822.797V29.6783H821.797V30.6783ZM800.229 30.6783H799.229V31.6783H800.229V30.6783ZM800.229 17.991V16.991H799.229V17.991H800.229ZM857.321 17.991H858.321V16.991H857.321V17.991ZM857.321 30.6783V31.6783H858.321V30.6783H857.321ZM835.753 30.6783V29.6783H834.753V30.6783H835.753ZM835.753 92V93H836.753V92H835.753ZM822.797 92V30.6783H820.797V92H822.797ZM821.797 29.6783H800.229V31.6783H821.797V29.6783ZM801.229 30.6783V17.991H799.229V30.6783H801.229ZM800.229 18.991H857.321V16.991H800.229V18.991ZM856.321 17.991V30.6783H858.321V17.991H856.321ZM857.321 29.6783H835.753V31.6783H857.321V29.6783ZM834.753 30.6783V92H836.753V30.6783H834.753ZM835.753 91H821.797V93H835.753V91ZM896.429 92H895.429V93H896.429V92ZM896.429 17.991V16.991H895.429V17.991H896.429ZM944.006 17.991H945.006V16.991H944.006V17.991ZM944.006 30.6783V31.6783H945.006V30.6783H944.006ZM910.385 30.6783V29.6783H909.385V30.6783H910.385ZM910.385 48.3347H909.385V49.3347H910.385V48.3347ZM941.046 48.3347H942.046V47.3347H941.046V48.3347ZM941.046 61.022V62.022H942.046V61.022H941.046ZM910.385 61.022V60.022H909.385V61.022H910.385ZM910.385 79.3128H909.385V80.3128H910.385V79.3128ZM944.64 79.3128H945.64V78.3128H944.64V79.3128ZM944.64 92V93H945.64V92H944.64ZM897.429 92V17.991H895.429V92H897.429ZM896.429 18.991H944.006V16.991H896.429V18.991ZM943.006 17.991V30.6783H945.006V17.991H943.006ZM944.006 29.6783H910.385V31.6783H944.006V29.6783ZM909.385 30.6783V48.3347H911.385V30.6783H909.385ZM910.385 49.3347H941.046V47.3347H910.385V49.3347ZM940.046 48.3347V61.022H942.046V48.3347H940.046ZM941.046 60.022H910.385V62.022H941.046V60.022ZM909.385 61.022V79.3128H911.385V61.022H909.385ZM910.385 80.3128H944.64V78.3128H910.385V80.3128ZM943.64 79.3128V92H945.64V79.3128H943.64ZM944.64 91H896.429V93H944.64V91Z" fill="url(#paint1_linear_303_68)" fill-opacity="0.66"/>
<path d="M40.91 92L39.9429 91.7458L39.6132 93H40.91V92ZM60.3638 17.991V16.991H59.5927L59.3967 17.7368L60.3638 17.991ZM84.681 17.991L85.6482 17.7368L85.4521 16.991H84.681V17.991ZM104.135 92V93H105.432L105.102 91.7458L104.135 92ZM89.7559 92L88.785 92.2396L88.9727 93H89.7559V92ZM85.7383 75.718L86.7092 75.4785L86.5215 74.718H85.7383V75.718ZM59.3065 75.718V74.718H58.5233L58.3356 75.4785L59.3065 75.718ZM55.2889 92V93H56.0721L56.2598 92.2396L55.2889 92ZM62.5841 62.8193L61.6138 62.5775L61.3042 63.8193H62.5841V62.8193ZM82.4608 62.8193V63.8193H83.7406L83.4311 62.5775L82.4608 62.8193ZM73.474 26.7664L74.4443 26.5245L74.2553 25.7664H73.474V26.7664ZM71.5709 26.7664V25.7664H70.7895L70.6006 26.5245L71.5709 26.7664ZM41.8772 92.2542L61.3309 18.2453L59.3967 17.7368L39.9429 91.7458L41.8772 92.2542ZM60.3638 18.991H84.681V16.991H60.3638V18.991ZM83.7139 18.2453L103.168 92.2542L105.102 91.7458L85.6482 17.7368L83.7139 18.2453ZM104.135 91H89.7559V93H104.135V91ZM90.7268 91.7604L86.7092 75.4785L84.7674 75.9576L88.785 92.2396L90.7268 91.7604ZM85.7383 74.718H59.3065V76.718H85.7383V74.718ZM58.3356 75.4785L54.318 91.7604L56.2598 92.2396L60.2774 75.9576L58.3356 75.4785ZM55.2889 91H40.91V93H55.2889V91ZM62.5841 63.8193H82.4608V61.8193H62.5841V63.8193ZM83.4311 62.5775L74.4443 26.5245L72.5037 27.0082L81.4905 63.0612L83.4311 62.5775ZM73.474 25.7664H71.5709V27.7664H73.474V25.7664ZM70.6006 26.5245L61.6138 62.5775L63.5544 63.0612L72.5412 27.0082L70.6006 26.5245ZM148.321 85.8678L147.629 86.589L147.634 86.5938L148.321 85.8678ZM148.321 24.2289L149.009 24.9549L149.014 24.9501L148.321 24.2289ZM191.141 24.0175L190.429 24.7196L190.434 24.7246L190.439 24.7296L191.141 24.0175ZM198.647 45.0572V46.0572H199.647V45.0572H198.647ZM184.903 45.0572H183.903V46.0572H184.903V45.0572ZM181.202 33.2157L180.44 33.8634L180.445 33.8688L180.45 33.8742L181.202 33.2157ZM158.471 76.4581L157.731 77.1308L157.739 77.1392L158.471 76.4581ZM181.202 76.7753L180.442 76.126L180.44 76.1276L181.202 76.7753ZM184.903 64.0881V63.088H183.903V64.0881H184.903ZM198.647 64.0881H199.647V63.088H198.647V64.0881ZM191.141 86.0793L190.434 85.3722L191.141 86.0793ZM170.101 92.4802C161.129 92.4802 154.138 90.0007 149.009 85.1419L147.634 86.5938C153.218 91.8848 160.747 94.4802 170.101 94.4802V92.4802ZM149.014 85.1466C143.905 80.2392 141.286 73.2005 141.286 63.8766H139.286C139.286 73.5836 142.024 81.2057 147.629 86.589L149.014 85.1466ZM141.286 63.8766V46.1144H139.286V63.8766H141.286ZM141.286 46.1144C141.286 36.7898 143.905 29.7901 149.009 24.9549L147.634 23.503C142.024 28.8175 139.286 36.4082 139.286 46.1144H141.286ZM149.014 24.9501C154.143 20.0233 161.133 17.5109 170.101 17.5109V15.5109C160.743 15.5109 153.213 18.1438 147.629 23.5077L149.014 24.9501ZM170.101 17.5109C179.008 17.5109 185.733 19.9573 190.429 24.7196L191.853 23.3154C186.68 18.0688 179.379 15.5109 170.101 15.5109V17.5109ZM190.439 24.7296C195.21 29.4335 197.647 35.9544 197.647 44.4228H199.647C199.647 35.552 197.081 28.4693 191.843 23.3054L190.439 24.7296ZM197.647 44.4228V45.0572H199.647V44.4228H197.647ZM198.647 44.0572H184.903V46.0572H198.647V44.0572ZM185.903 45.0572V43.9999H183.903V45.0572H185.903ZM185.903 43.9999C185.903 39.4303 184.608 35.5887 181.955 32.5572L180.45 33.8742C182.731 36.4816 183.903 39.8294 183.903 43.9999H185.903ZM181.964 32.5681C179.317 29.4536 175.29 27.9867 170.101 27.9867V29.9867C174.921 29.9867 178.295 31.3391 180.44 33.8634L181.964 32.5681ZM170.101 27.9867C164.947 27.9867 160.784 29.5788 157.739 32.8518L159.203 34.214C161.797 31.4254 165.387 29.9867 170.101 29.9867V27.9867ZM157.739 32.8518C154.706 36.1124 153.242 40.5029 153.242 45.903H155.242C155.242 40.8714 156.598 37.0151 159.203 34.214L157.739 32.8518ZM153.242 45.903V64.0881H155.242V45.903H153.242ZM153.242 64.0881C153.242 69.4229 154.708 73.8058 157.731 77.1308L159.211 75.7854C156.595 72.9078 155.242 69.044 155.242 64.0881H153.242ZM157.739 77.1392C160.784 80.4122 164.947 82.0044 170.101 82.0044V80.0044C165.387 80.0044 161.797 78.5657 159.203 75.777L157.739 77.1392ZM170.101 82.0044C175.29 82.0044 179.317 80.5374 181.964 77.4229L180.44 76.1276C178.295 78.6519 174.921 80.0044 170.101 80.0044V82.0044ZM181.963 77.4246C184.605 74.3298 185.903 70.4954 185.903 65.9911H183.903C183.903 70.086 182.734 73.441 180.442 76.126L181.963 77.4246ZM185.903 65.9911V64.0881H183.903V65.9911H185.903ZM184.903 65.0881H198.647V63.088H184.903V65.0881ZM197.647 64.0881V65.5682H199.647V64.0881H197.647ZM197.647 65.5682C197.647 74.0361 195.21 80.5958 190.434 85.3722L191.848 86.7864C197.08 81.5539 199.647 74.4396 199.647 65.5682H197.647ZM190.434 85.3722C185.739 90.0667 179.012 92.4802 170.101 92.4802V94.4802C179.375 94.4802 186.675 91.9598 191.848 86.7864L190.434 85.3722ZM245.966 85.8678L245.273 86.589L245.278 86.5938L245.966 85.8678ZM245.966 24.2289L246.654 24.9549L246.659 24.9501L245.966 24.2289ZM288.786 24.0175L288.073 24.7196L288.078 24.7246L288.083 24.7296L288.786 24.0175ZM296.292 45.0572V46.0572H297.292V45.0572H296.292ZM282.548 45.0572H281.548V46.0572H282.548V45.0572ZM278.847 33.2157L278.085 33.8634L278.09 33.8688L278.095 33.8742L278.847 33.2157ZM256.116 76.4581L255.376 77.1308L255.384 77.1392L256.116 76.4581ZM278.847 76.7753L278.087 76.126L278.085 76.1276L278.847 76.7753ZM282.548 64.0881V63.088H281.548V64.0881H282.548ZM296.292 64.0881H297.292V63.088H296.292V64.0881ZM288.786 86.0793L288.078 85.3722L288.786 86.0793ZM267.746 92.4802C258.774 92.4802 251.783 90.0007 246.654 85.1419L245.278 86.5938C250.863 91.8848 258.392 94.4802 267.746 94.4802V92.4802ZM246.659 85.1466C241.55 80.2392 238.931 73.2005 238.931 63.8766H236.931C236.931 73.5836 239.669 81.2057 245.273 86.589L246.659 85.1466ZM238.931 63.8766V46.1144H236.931V63.8766H238.931ZM238.931 46.1144C238.931 36.7898 241.55 29.7901 246.654 24.9549L245.278 23.503C239.669 28.8175 236.931 36.4082 236.931 46.1144H238.931ZM246.659 24.9501C251.788 20.0233 258.777 17.5109 267.746 17.5109V15.5109C258.388 15.5109 250.858 18.1438 245.273 23.5077L246.659 24.9501ZM267.746 17.5109C276.653 17.5109 283.378 19.9573 288.073 24.7196L289.498 23.3154C284.325 18.0688 277.024 15.5109 267.746 15.5109V17.5109ZM288.083 24.7296C292.855 29.4335 295.292 35.9544 295.292 44.4228H297.292C297.292 35.552 294.725 28.4693 289.488 23.3054L288.083 24.7296ZM295.292 44.4228V45.0572H297.292V44.4228H295.292ZM296.292 44.0572H282.548V46.0572H296.292V44.0572ZM283.548 45.0572V43.9999H281.548V45.0572H283.548ZM283.548 43.9999C283.548 39.4303 282.252 35.5887 279.6 32.5572L278.095 33.8742C280.376 36.4816 281.548 39.8294 281.548 43.9999H283.548ZM279.609 32.5681C276.962 29.4536 272.934 27.9867 267.746 27.9867V29.9867C272.566 29.9867 275.94 31.3391 278.085 33.8634L279.609 32.5681ZM267.746 27.9867C262.592 27.9867 258.428 29.5788 255.384 32.8518L256.848 34.214C259.442 31.4254 263.032 29.9867 267.746 29.9867V27.9867ZM255.384 32.8518C252.351 36.1124 250.887 40.5029 250.887 45.903H252.887C252.887 40.8714 254.242 37.0151 256.848 34.214L255.384 32.8518ZM250.887 45.903V64.0881H252.887V45.903H250.887ZM250.887 64.0881C250.887 69.4229 252.353 73.8058 255.376 77.1308L256.856 75.7854C254.24 72.9078 252.887 69.044 252.887 64.0881H250.887ZM255.384 77.1392C258.428 80.4122 262.592 82.0044 267.746 82.0044V80.0044C263.032 80.0044 259.442 78.5657 256.848 75.777L255.384 77.1392ZM267.746 82.0044C272.934 82.0044 276.962 80.5374 279.609 77.4229L278.085 76.1276C275.94 78.6519 272.566 80.0044 267.746 80.0044V82.0044ZM279.608 77.4246C282.25 74.3298 283.548 70.4954 283.548 65.9911H281.548C281.548 70.086 280.379 73.441 278.087 76.126L279.608 77.4246ZM283.548 65.9911V64.0881H281.548V65.9911H283.548ZM282.548 65.0881H296.292V63.088H282.548V65.0881ZM295.292 64.0881V65.5682H297.292V64.0881H295.292ZM295.292 65.5682C295.292 74.0361 292.855 80.5958 288.078 85.3722L289.493 86.7864C294.725 81.5539 297.292 74.4396 297.292 65.5682H295.292ZM288.078 85.3722C283.384 90.0667 276.657 92.4802 267.746 92.4802V94.4802C277.02 94.4802 284.319 91.9598 289.493 86.7864L288.078 85.3722ZM337.267 92H336.267V93H337.267V92ZM337.267 17.991V16.991H336.267V17.991H337.267ZM384.844 17.991H385.844V16.991H384.844V17.991ZM384.844 30.6783V31.6783H385.844V30.6783H384.844ZM351.223 30.6783V29.6783H350.223V30.6783H351.223ZM351.223 48.3347H350.223V49.3347H351.223V48.3347ZM381.884 48.3347H382.884V47.3347H381.884V48.3347ZM381.884 61.022V62.022H382.884V61.022H381.884ZM351.223 61.022V60.022H350.223V61.022H351.223ZM351.223 79.3128H350.223V80.3128H351.223V79.3128ZM385.479 79.3128H386.479V78.3128H385.479V79.3128ZM385.479 92V93H386.479V92H385.479ZM338.267 92V17.991H336.267V92H338.267ZM337.267 18.991H384.844V16.991H337.267V18.991ZM383.844 17.991V30.6783H385.844V17.991H383.844ZM384.844 29.6783H351.223V31.6783H384.844V29.6783ZM350.223 30.6783V48.3347H352.223V30.6783H350.223ZM351.223 49.3347H381.884V47.3347H351.223V49.3347ZM380.884 48.3347V61.022H382.884V48.3347H380.884ZM381.884 60.022H351.223V62.022H381.884V60.022ZM350.223 61.022V79.3128H352.223V61.022H350.223ZM351.223 80.3128H385.479V78.3128H351.223V80.3128ZM384.479 79.3128V92H386.479V79.3128H384.479ZM385.479 91H337.267V93H385.479V91ZM425.413 92H424.413V93H425.413V92ZM425.413 17.991V16.991H424.413V17.991H425.413ZM439.369 17.991H440.369V16.991H439.369V17.991ZM439.369 79.3128H438.369V80.3128H439.369V79.3128ZM473.202 79.3128H474.202V78.3128H473.202V79.3128ZM473.202 92V93H474.202V92H473.202ZM426.413 92V17.991H424.413V92H426.413ZM425.413 18.991H439.369V16.991H425.413V18.991ZM438.369 17.991V79.3128H440.369V17.991H438.369ZM439.369 80.3128H473.202V78.3128H439.369V80.3128ZM472.202 79.3128V92H474.202V79.3128H472.202ZM473.202 91H425.413V93H473.202V91ZM512.32 92H511.32V93H512.32V92ZM512.32 17.991V16.991H511.32V17.991H512.32ZM559.897 17.991H560.897V16.991H559.897V17.991ZM559.897 30.6783V31.6783H560.897V30.6783H559.897ZM526.276 30.6783V29.6783H525.276V30.6783H526.276ZM526.276 48.3347H525.276V49.3347H526.276V48.3347ZM556.937 48.3347H557.937V47.3347H556.937V48.3347ZM556.937 61.022V62.022H557.937V61.022H556.937ZM526.276 61.022V60.022H525.276V61.022H526.276ZM526.276 79.3128H525.276V80.3128H526.276V79.3128ZM560.531 79.3128H561.531V78.3128H560.531V79.3128ZM560.531 92V93H561.531V92H560.531ZM513.32 92V17.991H511.32V92H513.32ZM512.32 18.991H559.897V16.991H512.32V18.991ZM558.897 17.991V30.6783H560.897V17.991H558.897ZM559.897 29.6783H526.276V31.6783H559.897V29.6783ZM525.276 30.6783V48.3347H527.276V30.6783H525.276ZM526.276 49.3347H556.937V47.3347H526.276V49.3347ZM555.937 48.3347V61.022H557.937V48.3347H555.937ZM556.937 60.022H526.276V62.022H556.937V60.022ZM525.276 61.022V79.3128H527.276V61.022H525.276ZM526.276 80.3128H560.531V78.3128H526.276V80.3128ZM559.531 79.3128V92H561.531V79.3128H559.531ZM560.531 91H512.32V93H560.531V91ZM600.466 92H599.466V93H600.466V92ZM600.466 17.991V16.991H599.466V17.991H600.466ZM644.765 20.4228L644.34 21.328L644.765 20.4228ZM652.801 27.295L653.642 26.7543L652.801 27.295ZM652.483 49.8149L653.276 50.4246V50.4246L652.483 49.8149ZM644.66 55.8413L644.281 54.9158L643.66 55.17V55.8413H644.66ZM644.66 57.7444H643.66V58.6957L644.61 58.7432L644.66 57.7444ZM651.215 60.7048L650.451 61.3507L650.458 61.3581L650.464 61.3654L651.215 60.7048ZM653.541 92V93H654.541V92H653.541ZM639.585 92H638.585V93H639.585V92ZM638.21 65.674L637.429 66.2986L637.442 66.314L637.455 66.3289L638.21 65.674ZM614.422 64.0881V63.088H613.422V64.0881H614.422ZM614.422 92V93H615.422V92H614.422ZM614.422 51.4008H613.422V52.4008H614.422V51.4008ZM638.845 48.7576L639.538 49.4785L639.538 49.4779L638.845 48.7576ZM638.95 33.4272L638.243 34.1343L638.25 34.1412L638.257 34.148L638.95 33.4272ZM614.422 30.6783V29.6783H613.422V30.6783H614.422ZM601.466 92V17.991H599.466V92H601.466ZM600.466 18.991H632.607V16.991H600.466V18.991ZM632.607 18.991C637.143 18.991 641.046 19.7814 644.34 21.328L645.19 19.5175C641.578 17.8218 637.374 16.991 632.607 16.991V18.991ZM644.34 21.328C647.639 22.8762 650.167 25.0469 651.959 27.8358L653.642 26.7543C651.628 23.6224 648.799 21.2116 645.19 19.5175L644.34 21.328ZM651.959 27.8358C653.745 30.6129 654.655 33.9082 654.655 37.762H656.655C656.655 33.5805 655.663 29.8979 653.642 26.7543L651.959 27.8358ZM654.655 37.762V39.0307H656.655V37.762H654.655ZM654.655 39.0307C654.655 43.3132 653.637 46.6749 651.691 49.2052L653.276 50.4246C655.559 47.4571 656.655 43.6293 656.655 39.0307H654.655ZM651.691 49.2052C649.68 51.8192 647.213 53.7163 644.281 54.9158L645.038 56.7669C648.309 55.4289 651.058 53.3084 653.276 50.4246L651.691 49.2052ZM643.66 55.8413V57.7444H645.66V55.8413H643.66ZM644.61 58.7432C647.206 58.873 649.111 59.7667 650.451 61.3507L651.978 60.0588C650.217 57.9777 647.752 56.8978 644.71 56.7457L644.61 58.7432ZM650.464 61.3654C651.815 62.9011 652.541 65.0057 652.541 67.7885H654.541C654.541 64.6506 653.715 62.0327 651.965 60.0442L650.464 61.3654ZM652.541 67.7885V92H654.541V67.7885H652.541ZM653.541 91H639.585V93H653.541V91ZM640.585 92V69.7973H638.585V92H640.585ZM640.585 69.7973C640.585 67.9177 640.071 66.2943 638.966 65.019L637.455 66.3289C638.182 67.1682 638.585 68.2937 638.585 69.7973H640.585ZM638.991 65.0493C637.875 63.6539 636.065 63.088 633.875 63.088V65.0881C635.774 65.0881 636.854 65.5794 637.429 66.2986L638.991 65.0493ZM633.875 63.088H614.422V65.0881H633.875V63.088ZM613.422 64.0881V92H615.422V64.0881H613.422ZM614.422 91H600.466V93H614.422V91ZM614.422 52.4008H631.127V50.4008H614.422V52.4008ZM631.127 52.4008C634.617 52.4008 637.468 51.469 639.538 49.4785L638.151 48.0368C636.556 49.5705 634.262 50.4008 631.127 50.4008V52.4008ZM639.538 49.4779C641.662 47.4332 642.699 44.7643 642.699 41.5682H640.699C640.699 44.2928 639.834 46.4168 638.151 48.0373L639.538 49.4779ZM642.699 41.5682V40.5109H640.699V41.5682H642.699ZM642.699 40.5109C642.699 37.3272 641.705 34.6882 639.643 32.7064L638.257 34.148C639.861 35.6904 640.699 37.7739 640.699 40.5109H642.699ZM639.657 32.7201C637.585 30.6477 634.691 29.6783 631.127 29.6783V31.6783C634.329 31.6783 636.65 32.5414 638.243 34.1343L639.657 32.7201ZM631.127 29.6783H614.422V31.6783H631.127V29.6783ZM613.422 30.6783V51.4008H615.422V30.6783H613.422ZM691.797 92L690.829 91.7458L690.5 93H691.797V92ZM711.25 17.991V16.991H710.479L710.283 17.7368L711.25 17.991ZM735.568 17.991L736.535 17.7368L736.339 16.991H735.568V17.991ZM755.021 92V93H756.318L755.988 91.7458L755.021 92ZM740.642 92L739.672 92.2396L739.859 93H740.642V92ZM736.625 75.718L737.596 75.4785L737.408 74.718H736.625V75.718ZM710.193 75.718V74.718H709.41L709.222 75.4785L710.193 75.718ZM706.175 92V93H706.959L707.146 92.2396L706.175 92ZM713.471 62.8193L712.5 62.5775L712.191 63.8193H713.471V62.8193ZM733.347 62.8193V63.8193H734.627L734.318 62.5775L733.347 62.8193ZM724.36 26.7664L725.331 26.5245L725.142 25.7664H724.36V26.7664ZM722.457 26.7664V25.7664H721.676L721.487 26.5245L722.457 26.7664ZM692.764 92.2542L712.217 18.2453L710.283 17.7368L690.829 91.7458L692.764 92.2542ZM711.25 18.991H735.568V16.991H711.25V18.991ZM734.6 18.2453L754.054 92.2542L755.988 91.7458L736.535 17.7368L734.6 18.2453ZM755.021 91H740.642V93H755.021V91ZM741.613 91.7604L737.596 75.4785L735.654 75.9576L739.672 92.2396L741.613 91.7604ZM736.625 74.718H710.193V76.718H736.625V74.718ZM709.222 75.4785L705.205 91.7604L707.146 92.2396L711.164 75.9576L709.222 75.4785ZM706.175 91H691.797V93H706.175V91ZM713.471 63.8193H733.347V61.8193H713.471V63.8193ZM734.318 62.5775L725.331 26.5245L723.39 27.0082L732.377 63.0612L734.318 62.5775ZM724.36 25.7664H722.457V27.7664H724.36V25.7664ZM721.487 26.5245L712.5 62.5775L714.441 63.0612L723.428 27.0082L721.487 26.5245ZM803.797 92H802.797V93H803.797V92ZM803.797 30.6783H804.797V29.6783H803.797V30.6783ZM782.229 30.6783H781.229V31.6783H782.229V30.6783ZM782.229 17.991V16.991H781.229V17.991H782.229ZM839.321 17.991H840.321V16.991H839.321V17.991ZM839.321 30.6783V31.6783H840.321V30.6783H839.321ZM817.753 30.6783V29.6783H816.753V30.6783H817.753ZM817.753 92V93H818.753V92H817.753ZM804.797 92V30.6783H802.797V92H804.797ZM803.797 29.6783H782.229V31.6783H803.797V29.6783ZM783.229 30.6783V17.991H781.229V30.6783H783.229ZM782.229 18.991H839.321V16.991H782.229V18.991ZM838.321 17.991V30.6783H840.321V17.991H838.321ZM839.321 29.6783H817.753V31.6783H839.321V29.6783ZM816.753 30.6783V92H818.753V30.6783H816.753ZM817.753 91H803.797V93H817.753V91ZM878.429 92H877.429V93H878.429V92ZM878.429 17.991V16.991H877.429V17.991H878.429ZM926.006 17.991H927.006V16.991H926.006V17.991ZM926.006 30.6783V31.6783H927.006V30.6783H926.006ZM892.385 30.6783V29.6783H891.385V30.6783H892.385ZM892.385 48.3347H891.385V49.3347H892.385V48.3347ZM923.046 48.3347H924.046V47.3347H923.046V48.3347ZM923.046 61.022V62.022H924.046V61.022H923.046ZM892.385 61.022V60.022H891.385V61.022H892.385ZM892.385 79.3128H891.385V80.3128H892.385V79.3128ZM926.64 79.3128H927.64V78.3128H926.64V79.3128ZM926.64 92V93H927.64V92H926.64ZM879.429 92V17.991H877.429V92H879.429ZM878.429 18.991H926.006V16.991H878.429V18.991ZM925.006 17.991V30.6783H927.006V17.991H925.006ZM926.006 29.6783H892.385V31.6783H926.006V29.6783ZM891.385 30.6783V48.3347H893.385V30.6783H891.385ZM892.385 49.3347H923.046V47.3347H892.385V49.3347ZM922.046 48.3347V61.022H924.046V48.3347H922.046ZM923.046 60.022H892.385V62.022H923.046V60.022ZM891.385 61.022V79.3128H893.385V61.022H891.385ZM892.385 80.3128H926.64V78.3128H892.385V80.3128ZM925.64 79.3128V92H927.64V79.3128H925.64ZM926.64 91H878.429V93H926.64V91Z" fill="url(#paint2_linear_303_68)" fill-opacity="0.3"/>
<path d="M19.91 92L18.9429 91.7458L18.6132 93H19.91V92ZM39.3638 17.991V16.991H38.5927L38.3967 17.7368L39.3638 17.991ZM63.681 17.991L64.6482 17.7368L64.4521 16.991H63.681V17.991ZM83.1348 92V93H84.4316L84.102 91.7458L83.1348 92ZM68.7559 92L67.785 92.2396L67.9727 93H68.7559V92ZM64.7383 75.718L65.7092 75.4785L65.5215 74.718H64.7383V75.718ZM38.3065 75.718V74.718H37.5233L37.3356 75.4785L38.3065 75.718ZM34.2889 92V93H35.0721L35.2598 92.2396L34.2889 92ZM41.5841 62.8193L40.6138 62.5775L40.3042 63.8193H41.5841V62.8193ZM61.4608 62.8193V63.8193H62.7406L62.4311 62.5775L61.4608 62.8193ZM52.474 26.7664L53.4443 26.5245L53.2553 25.7664H52.474V26.7664ZM50.5709 26.7664V25.7664H49.7895L49.6006 26.5245L50.5709 26.7664ZM20.8772 92.2542L40.3309 18.2453L38.3967 17.7368L18.9429 91.7458L20.8772 92.2542ZM39.3638 18.991H63.681V16.991H39.3638V18.991ZM62.7139 18.2453L82.1677 92.2542L84.102 91.7458L64.6482 17.7368L62.7139 18.2453ZM83.1348 91H68.7559V93H83.1348V91ZM69.7268 91.7604L65.7092 75.4785L63.7674 75.9576L67.785 92.2396L69.7268 91.7604ZM64.7383 74.718H38.3065V76.718H64.7383V74.718ZM37.3356 75.4785L33.318 91.7604L35.2598 92.2396L39.2774 75.9576L37.3356 75.4785ZM34.2889 91H19.91V93H34.2889V91ZM41.5841 63.8193H61.4608V61.8193H41.5841V63.8193ZM62.4311 62.5775L53.4443 26.5245L51.5037 27.0082L60.4905 63.0612L62.4311 62.5775ZM52.474 25.7664H50.5709V27.7664H52.474V25.7664ZM49.6006 26.5245L40.6138 62.5775L42.5544 63.0612L51.5412 27.0082L49.6006 26.5245ZM127.321 85.8678L126.629 86.589L126.634 86.5938L127.321 85.8678ZM127.321 24.2289L128.009 24.9549L128.014 24.9501L127.321 24.2289ZM170.141 24.0175L169.429 24.7196L169.434 24.7246L169.439 24.7296L170.141 24.0175ZM177.647 45.0572V46.0572H178.647V45.0572H177.647ZM163.903 45.0572H162.903V46.0572H163.903V45.0572ZM160.202 33.2157L159.44 33.8634L159.445 33.8688L159.45 33.8742L160.202 33.2157ZM137.471 76.4581L136.731 77.1308L136.739 77.1392L137.471 76.4581ZM160.202 76.7753L159.442 76.126L159.44 76.1276L160.202 76.7753ZM163.903 64.0881V63.088H162.903V64.0881H163.903ZM177.647 64.0881H178.647V63.088H177.647V64.0881ZM170.141 86.0793L169.434 85.3722L170.141 86.0793ZM149.101 92.4802C140.129 92.4802 133.138 90.0007 128.009 85.1419L126.634 86.5938C132.218 91.8848 139.747 94.4802 149.101 94.4802V92.4802ZM128.014 85.1466C122.905 80.2392 120.286 73.2005 120.286 63.8766H118.286C118.286 73.5836 121.024 81.2057 126.629 86.589L128.014 85.1466ZM120.286 63.8766V46.1144H118.286V63.8766H120.286ZM120.286 46.1144C120.286 36.7898 122.905 29.7901 128.009 24.9549L126.634 23.503C121.024 28.8175 118.286 36.4082 118.286 46.1144H120.286ZM128.014 24.9501C133.143 20.0233 140.133 17.5109 149.101 17.5109V15.5109C139.743 15.5109 132.213 18.1438 126.629 23.5077L128.014 24.9501ZM149.101 17.5109C158.008 17.5109 164.733 19.9573 169.429 24.7196L170.853 23.3154C165.68 18.0688 158.379 15.5109 149.101 15.5109V17.5109ZM169.439 24.7296C174.21 29.4335 176.647 35.9544 176.647 44.4228H178.647C178.647 35.552 176.081 28.4693 170.843 23.3054L169.439 24.7296ZM176.647 44.4228V45.0572H178.647V44.4228H176.647ZM177.647 44.0572H163.903V46.0572H177.647V44.0572ZM164.903 45.0572V43.9999H162.903V45.0572H164.903ZM164.903 43.9999C164.903 39.4303 163.608 35.5887 160.955 32.5572L159.45 33.8742C161.731 36.4816 162.903 39.8294 162.903 43.9999H164.903ZM160.964 32.5681C158.317 29.4536 154.29 27.9867 149.101 27.9867V29.9867C153.921 29.9867 157.295 31.3391 159.44 33.8634L160.964 32.5681ZM149.101 27.9867C143.947 27.9867 139.784 29.5788 136.739 32.8518L138.203 34.214C140.797 31.4254 144.387 29.9867 149.101 29.9867V27.9867ZM136.739 32.8518C133.706 36.1124 132.242 40.5029 132.242 45.903H134.242C134.242 40.8714 135.598 37.0151 138.203 34.214L136.739 32.8518ZM132.242 45.903V64.0881H134.242V45.903H132.242ZM132.242 64.0881C132.242 69.4229 133.708 73.8058 136.731 77.1308L138.211 75.7854C135.595 72.9078 134.242 69.044 134.242 64.0881H132.242ZM136.739 77.1392C139.784 80.4122 143.947 82.0044 149.101 82.0044V80.0044C144.387 80.0044 140.797 78.5657 138.203 75.777L136.739 77.1392ZM149.101 82.0044C154.29 82.0044 158.317 80.5374 160.964 77.4229L159.44 76.1276C157.295 78.6519 153.921 80.0044 149.101 80.0044V82.0044ZM160.963 77.4246C163.605 74.3298 164.903 70.4954 164.903 65.9911H162.903C162.903 70.086 161.734 73.441 159.442 76.126L160.963 77.4246ZM164.903 65.9911V64.0881H162.903V65.9911H164.903ZM163.903 65.0881H177.647V63.088H163.903V65.0881ZM176.647 64.0881V65.5682H178.647V64.0881H176.647ZM176.647 65.5682C176.647 74.0361 174.21 80.5958 169.434 85.3722L170.848 86.7864C176.08 81.5539 178.647 74.4396 178.647 65.5682H176.647ZM169.434 85.3722C164.739 90.0667 158.012 92.4802 149.101 92.4802V94.4802C158.375 94.4802 165.675 91.9598 170.848 86.7864L169.434 85.3722ZM224.966 85.8678L224.273 86.589L224.278 86.5938L224.966 85.8678ZM224.966 24.2289L225.654 24.9549L225.659 24.9501L224.966 24.2289ZM267.786 24.0175L267.073 24.7196L267.078 24.7246L267.083 24.7296L267.786 24.0175ZM275.292 45.0572V46.0572H276.292V45.0572H275.292ZM261.548 45.0572H260.548V46.0572H261.548V45.0572ZM257.847 33.2157L257.085 33.8634L257.09 33.8688L257.095 33.8742L257.847 33.2157ZM235.116 76.4581L234.376 77.1308L234.384 77.1392L235.116 76.4581ZM257.847 76.7753L257.087 76.126L257.085 76.1276L257.847 76.7753ZM261.548 64.0881V63.088H260.548V64.0881H261.548ZM275.292 64.0881H276.292V63.088H275.292V64.0881ZM267.786 86.0793L267.078 85.3722L267.786 86.0793ZM246.746 92.4802C237.774 92.4802 230.783 90.0007 225.654 85.1419L224.278 86.5938C229.863 91.8848 237.392 94.4802 246.746 94.4802V92.4802ZM225.659 85.1466C220.55 80.2392 217.931 73.2005 217.931 63.8766H215.931C215.931 73.5836 218.669 81.2057 224.273 86.589L225.659 85.1466ZM217.931 63.8766V46.1144H215.931V63.8766H217.931ZM217.931 46.1144C217.931 36.7898 220.55 29.7901 225.654 24.9549L224.278 23.503C218.669 28.8175 215.931 36.4082 215.931 46.1144H217.931ZM225.659 24.9501C230.788 20.0233 237.777 17.5109 246.746 17.5109V15.5109C237.388 15.5109 229.858 18.1438 224.273 23.5077L225.659 24.9501ZM246.746 17.5109C255.653 17.5109 262.378 19.9573 267.073 24.7196L268.498 23.3154C263.325 18.0688 256.024 15.5109 246.746 15.5109V17.5109ZM267.083 24.7296C271.855 29.4335 274.292 35.9544 274.292 44.4228H276.292C276.292 35.552 273.725 28.4693 268.488 23.3054L267.083 24.7296ZM274.292 44.4228V45.0572H276.292V44.4228H274.292ZM275.292 44.0572H261.548V46.0572H275.292V44.0572ZM262.548 45.0572V43.9999H260.548V45.0572H262.548ZM262.548 43.9999C262.548 39.4303 261.252 35.5887 258.6 32.5572L257.095 33.8742C259.376 36.4816 260.548 39.8294 260.548 43.9999H262.548ZM258.609 32.5681C255.962 29.4536 251.934 27.9867 246.746 27.9867V29.9867C251.566 29.9867 254.94 31.3391 257.085 33.8634L258.609 32.5681ZM246.746 27.9867C241.592 27.9867 237.428 29.5788 234.384 32.8518L235.848 34.214C238.442 31.4254 242.032 29.9867 246.746 29.9867V27.9867ZM234.384 32.8518C231.351 36.1124 229.887 40.5029 229.887 45.903H231.887C231.887 40.8714 233.242 37.0151 235.848 34.214L234.384 32.8518ZM229.887 45.903V64.0881H231.887V45.903H229.887ZM229.887 64.0881C229.887 69.4229 231.353 73.8058 234.376 77.1308L235.856 75.7854C233.24 72.9078 231.887 69.044 231.887 64.0881H229.887ZM234.384 77.1392C237.428 80.4122 241.592 82.0044 246.746 82.0044V80.0044C242.032 80.0044 238.442 78.5657 235.848 75.777L234.384 77.1392ZM246.746 82.0044C251.934 82.0044 255.962 80.5374 258.609 77.4229L257.085 76.1276C254.94 78.6519 251.566 80.0044 246.746 80.0044V82.0044ZM258.608 77.4246C261.25 74.3298 262.548 70.4954 262.548 65.9911H260.548C260.548 70.086 259.379 73.441 257.087 76.126L258.608 77.4246ZM262.548 65.9911V64.0881H260.548V65.9911H262.548ZM261.548 65.0881H275.292V63.088H261.548V65.0881ZM274.292 64.0881V65.5682H276.292V64.0881H274.292ZM274.292 65.5682C274.292 74.0361 271.855 80.5958 267.078 85.3722L268.493 86.7864C273.725 81.5539 276.292 74.4396 276.292 65.5682H274.292ZM267.078 85.3722C262.384 90.0667 255.657 92.4802 246.746 92.4802V94.4802C256.02 94.4802 263.319 91.9598 268.493 86.7864L267.078 85.3722ZM316.267 92H315.267V93H316.267V92ZM316.267 17.991V16.991H315.267V17.991H316.267ZM363.844 17.991H364.844V16.991H363.844V17.991ZM363.844 30.6783V31.6783H364.844V30.6783H363.844ZM330.223 30.6783V29.6783H329.223V30.6783H330.223ZM330.223 48.3347H329.223V49.3347H330.223V48.3347ZM360.884 48.3347H361.884V47.3347H360.884V48.3347ZM360.884 61.022V62.022H361.884V61.022H360.884ZM330.223 61.022V60.022H329.223V61.022H330.223ZM330.223 79.3128H329.223V80.3128H330.223V79.3128ZM364.479 79.3128H365.479V78.3128H364.479V79.3128ZM364.479 92V93H365.479V92H364.479ZM317.267 92V17.991H315.267V92H317.267ZM316.267 18.991H363.844V16.991H316.267V18.991ZM362.844 17.991V30.6783H364.844V17.991H362.844ZM363.844 29.6783H330.223V31.6783H363.844V29.6783ZM329.223 30.6783V48.3347H331.223V30.6783H329.223ZM330.223 49.3347H360.884V47.3347H330.223V49.3347ZM359.884 48.3347V61.022H361.884V48.3347H359.884ZM360.884 60.022H330.223V62.022H360.884V60.022ZM329.223 61.022V79.3128H331.223V61.022H329.223ZM330.223 80.3128H364.479V78.3128H330.223V80.3128ZM363.479 79.3128V92H365.479V79.3128H363.479ZM364.479 91H316.267V93H364.479V91ZM404.413 92H403.413V93H404.413V92ZM404.413 17.991V16.991H403.413V17.991H404.413ZM418.369 17.991H419.369V16.991H418.369V17.991ZM418.369 79.3128H417.369V80.3128H418.369V79.3128ZM452.202 79.3128H453.202V78.3128H452.202V79.3128ZM452.202 92V93H453.202V92H452.202ZM405.413 92V17.991H403.413V92H405.413ZM404.413 18.991H418.369V16.991H404.413V18.991ZM417.369 17.991V79.3128H419.369V17.991H417.369ZM418.369 80.3128H452.202V78.3128H418.369V80.3128ZM451.202 79.3128V92H453.202V79.3128H451.202ZM452.202 91H404.413V93H452.202V91ZM491.32 92H490.32V93H491.32V92ZM491.32 17.991V16.991H490.32V17.991H491.32ZM538.897 17.991H539.897V16.991H538.897V17.991ZM538.897 30.6783V31.6783H539.897V30.6783H538.897ZM505.276 30.6783V29.6783H504.276V30.6783H505.276ZM505.276 48.3347H504.276V49.3347H505.276V48.3347ZM535.937 48.3347H536.937V47.3347H535.937V48.3347ZM535.937 61.022V62.022H536.937V61.022H535.937ZM505.276 61.022V60.022H504.276V61.022H505.276ZM505.276 79.3128H504.276V80.3128H505.276V79.3128ZM539.531 79.3128H540.531V78.3128H539.531V79.3128ZM539.531 92V93H540.531V92H539.531ZM492.32 92V17.991H490.32V92H492.32ZM491.32 18.991H538.897V16.991H491.32V18.991ZM537.897 17.991V30.6783H539.897V17.991H537.897ZM538.897 29.6783H505.276V31.6783H538.897V29.6783ZM504.276 30.6783V48.3347H506.276V30.6783H504.276ZM505.276 49.3347H535.937V47.3347H505.276V49.3347ZM534.937 48.3347V61.022H536.937V48.3347H534.937ZM535.937 60.022H505.276V62.022H535.937V60.022ZM504.276 61.022V79.3128H506.276V61.022H504.276ZM505.276 80.3128H539.531V78.3128H505.276V80.3128ZM538.531 79.3128V92H540.531V79.3128H538.531ZM539.531 91H491.32V93H539.531V91ZM579.466 92H578.466V93H579.466V92ZM579.466 17.991V16.991H578.466V17.991H579.466ZM623.765 20.4228L623.34 21.328L623.765 20.4228ZM631.801 27.295L632.642 26.7543L631.801 27.295ZM631.483 49.8149L632.276 50.4246V50.4246L631.483 49.8149ZM623.66 55.8413L623.281 54.9158L622.66 55.17V55.8413H623.66ZM623.66 57.7444H622.66V58.6957L623.61 58.7432L623.66 57.7444ZM630.215 60.7048L629.451 61.3507L629.458 61.3581L629.464 61.3654L630.215 60.7048ZM632.541 92V93H633.541V92H632.541ZM618.585 92H617.585V93H618.585V92ZM617.21 65.674L616.429 66.2986L616.442 66.314L616.455 66.3289L617.21 65.674ZM593.422 64.0881V63.088H592.422V64.0881H593.422ZM593.422 92V93H594.422V92H593.422ZM593.422 51.4008H592.422V52.4008H593.422V51.4008ZM617.845 48.7576L618.538 49.4785L618.538 49.4779L617.845 48.7576ZM617.95 33.4272L617.243 34.1343L617.25 34.1412L617.257 34.148L617.95 33.4272ZM593.422 30.6783V29.6783H592.422V30.6783H593.422ZM580.466 92V17.991H578.466V92H580.466ZM579.466 18.991H611.607V16.991H579.466V18.991ZM611.607 18.991C616.143 18.991 620.046 19.7814 623.34 21.328L624.19 19.5175C620.578 17.8218 616.374 16.991 611.607 16.991V18.991ZM623.34 21.328C626.639 22.8762 629.167 25.0469 630.959 27.8358L632.642 26.7543C630.628 23.6224 627.799 21.2116 624.19 19.5175L623.34 21.328ZM630.959 27.8358C632.745 30.6129 633.655 33.9082 633.655 37.762H635.655C635.655 33.5805 634.663 29.8979 632.642 26.7543L630.959 27.8358ZM633.655 37.762V39.0307H635.655V37.762H633.655ZM633.655 39.0307C633.655 43.3132 632.637 46.6749 630.691 49.2052L632.276 50.4246C634.559 47.4571 635.655 43.6293 635.655 39.0307H633.655ZM630.691 49.2052C628.68 51.8192 626.213 53.7163 623.281 54.9158L624.038 56.7669C627.309 55.4289 630.058 53.3084 632.276 50.4246L630.691 49.2052ZM622.66 55.8413V57.7444H624.66V55.8413H622.66ZM623.61 58.7432C626.206 58.873 628.111 59.7667 629.451 61.3507L630.978 60.0588C629.217 57.9777 626.752 56.8978 623.71 56.7457L623.61 58.7432ZM629.464 61.3654C630.815 62.9011 631.541 65.0057 631.541 67.7885H633.541C633.541 64.6506 632.715 62.0327 630.965 60.0442L629.464 61.3654ZM631.541 67.7885V92H633.541V67.7885H631.541ZM632.541 91H618.585V93H632.541V91ZM619.585 92V69.7973H617.585V92H619.585ZM619.585 69.7973C619.585 67.9177 619.071 66.2943 617.966 65.019L616.455 66.3289C617.182 67.1682 617.585 68.2937 617.585 69.7973H619.585ZM617.991 65.0493C616.875 63.6539 615.065 63.088 612.875 63.088V65.0881C614.774 65.0881 615.854 65.5794 616.429 66.2986L617.991 65.0493ZM612.875 63.088H593.422V65.0881H612.875V63.088ZM592.422 64.0881V92H594.422V64.0881H592.422ZM593.422 91H579.466V93H593.422V91ZM593.422 52.4008H610.127V50.4008H593.422V52.4008ZM610.127 52.4008C613.617 52.4008 616.468 51.469 618.538 49.4785L617.151 48.0368C615.556 49.5705 613.262 50.4008 610.127 50.4008V52.4008ZM618.538 49.4779C620.662 47.4332 621.699 44.7643 621.699 41.5682H619.699C619.699 44.2928 618.834 46.4168 617.151 48.0373L618.538 49.4779ZM621.699 41.5682V40.5109H619.699V41.5682H621.699ZM621.699 40.5109C621.699 37.3272 620.705 34.6882 618.643 32.7064L617.257 34.148C618.861 35.6904 619.699 37.7739 619.699 40.5109H621.699ZM618.657 32.7201C616.585 30.6477 613.691 29.6783 610.127 29.6783V31.6783C613.329 31.6783 615.65 32.5414 617.243 34.1343L618.657 32.7201ZM610.127 29.6783H593.422V31.6783H610.127V29.6783ZM592.422 30.6783V51.4008H594.422V30.6783H592.422ZM670.797 92L669.829 91.7458L669.5 93H670.797V92ZM690.25 17.991V16.991H689.479L689.283 17.7368L690.25 17.991ZM714.568 17.991L715.535 17.7368L715.339 16.991H714.568V17.991ZM734.021 92V93H735.318L734.988 91.7458L734.021 92ZM719.642 92L718.672 92.2396L718.859 93H719.642V92ZM715.625 75.718L716.596 75.4785L716.408 74.718H715.625V75.718ZM689.193 75.718V74.718H688.41L688.222 75.4785L689.193 75.718ZM685.175 92V93H685.959L686.146 92.2396L685.175 92ZM692.471 62.8193L691.5 62.5775L691.191 63.8193H692.471V62.8193ZM712.347 62.8193V63.8193H713.627L713.318 62.5775L712.347 62.8193ZM703.36 26.7664L704.331 26.5245L704.142 25.7664H703.36V26.7664ZM701.457 26.7664V25.7664H700.676L700.487 26.5245L701.457 26.7664ZM671.764 92.2542L691.217 18.2453L689.283 17.7368L669.829 91.7458L671.764 92.2542ZM690.25 18.991H714.568V16.991H690.25V18.991ZM713.6 18.2453L733.054 92.2542L734.988 91.7458L715.535 17.7368L713.6 18.2453ZM734.021 91H719.642V93H734.021V91ZM720.613 91.7604L716.596 75.4785L714.654 75.9576L718.672 92.2396L720.613 91.7604ZM715.625 74.718H689.193V76.718H715.625V74.718ZM688.222 75.4785L684.205 91.7604L686.146 92.2396L690.164 75.9576L688.222 75.4785ZM685.175 91H670.797V93H685.175V91ZM692.471 63.8193H712.347V61.8193H692.471V63.8193ZM713.318 62.5775L704.331 26.5245L702.39 27.0082L711.377 63.0612L713.318 62.5775ZM703.36 25.7664H701.457V27.7664H703.36V25.7664ZM700.487 26.5245L691.5 62.5775L693.441 63.0612L702.428 27.0082L700.487 26.5245ZM782.797 92H781.797V93H782.797V92ZM782.797 30.6783H783.797V29.6783H782.797V30.6783ZM761.229 30.6783H760.229V31.6783H761.229V30.6783ZM761.229 17.991V16.991H760.229V17.991H761.229ZM818.321 17.991H819.321V16.991H818.321V17.991ZM818.321 30.6783V31.6783H819.321V30.6783H818.321ZM796.753 30.6783V29.6783H795.753V30.6783H796.753ZM796.753 92V93H797.753V92H796.753ZM783.797 92V30.6783H781.797V92H783.797ZM782.797 29.6783H761.229V31.6783H782.797V29.6783ZM762.229 30.6783V17.991H760.229V30.6783H762.229ZM761.229 18.991H818.321V16.991H761.229V18.991ZM817.321 17.991V30.6783H819.321V17.991H817.321ZM818.321 29.6783H796.753V31.6783H818.321V29.6783ZM795.753 30.6783V92H797.753V30.6783H795.753ZM796.753 91H782.797V93H796.753V91ZM857.429 92H856.429V93H857.429V92ZM857.429 17.991V16.991H856.429V17.991H857.429ZM905.006 17.991H906.006V16.991H905.006V17.991ZM905.006 30.6783V31.6783H906.006V30.6783H905.006ZM871.385 30.6783V29.6783H870.385V30.6783H871.385ZM871.385 48.3347H870.385V49.3347H871.385V48.3347ZM902.046 48.3347H903.046V47.3347H902.046V48.3347ZM902.046 61.022V62.022H903.046V61.022H902.046ZM871.385 61.022V60.022H870.385V61.022H871.385ZM871.385 79.3128H870.385V80.3128H871.385V79.3128ZM905.64 79.3128H906.64V78.3128H905.64V79.3128ZM905.64 92V93H906.64V92H905.64ZM858.429 92V17.991H856.429V92H858.429ZM857.429 18.991H905.006V16.991H857.429V18.991ZM904.006 17.991V30.6783H906.006V17.991H904.006ZM905.006 29.6783H871.385V31.6783H905.006V29.6783ZM870.385 30.6783V48.3347H872.385V30.6783H870.385ZM871.385 49.3347H902.046V47.3347H871.385V49.3347ZM901.046 48.3347V61.022H903.046V48.3347H901.046ZM902.046 60.022H871.385V62.022H902.046V60.022ZM870.385 61.022V79.3128H872.385V61.022H870.385ZM871.385 80.3128H905.64V78.3128H871.385V80.3128ZM904.64 79.3128V92H906.64V79.3128H904.64ZM905.64 91H857.429V93H905.64V91Z" fill="url(#paint3_linear_303_68)" fill-opacity="0.1"/>
<path d="M92.91 92L112.364 17.991H136.681L156.135 92H141.756L137.738 75.718H111.307L107.289 92H92.91ZM114.584 62.8193H134.461L125.474 26.7664H123.571L114.584 62.8193ZM222.101 93.4802C212.938 93.4802 205.678 90.9427 200.321 85.8678C194.964 80.7224 192.286 73.392 192.286 63.8766V46.1144C192.286 36.599 194.964 29.3038 200.321 24.2289C205.678 19.0835 212.938 16.5109 222.101 16.5109C231.194 16.5109 238.207 19.0131 243.141 24.0175C248.145 28.9514 250.647 35.7532 250.647 44.4228V45.0572H236.903V43.9999C236.903 39.6298 235.669 36.0351 233.202 33.2157C230.806 30.3963 227.105 28.9867 222.101 28.9867C217.167 28.9867 213.29 30.5021 210.471 33.5329C207.652 36.5638 206.242 40.6871 206.242 45.903V64.088C206.242 69.2334 207.652 73.3568 210.471 76.4581C213.29 79.489 217.167 81.0044 222.101 81.0044C227.105 81.0044 230.806 79.5947 233.202 76.7753C235.669 73.8854 236.903 70.2907 236.903 65.9911V64.088H250.647V65.5682C250.647 74.2378 248.145 81.0749 243.141 86.0793C238.207 91.0132 231.194 93.4802 222.101 93.4802ZM319.746 93.4802C310.583 93.4802 303.323 90.9427 297.966 85.8678C292.609 80.7224 289.931 73.392 289.931 63.8766V46.1144C289.931 36.599 292.609 29.3038 297.966 24.2289C303.323 19.0835 310.583 16.5109 319.746 16.5109C328.838 16.5109 335.852 19.0131 340.786 24.0175C345.79 28.9514 348.292 35.7532 348.292 44.4228V45.0572H334.548V43.9999C334.548 39.6298 333.314 36.0351 330.847 33.2157C328.451 30.3963 324.75 28.9867 319.746 28.9867C314.812 28.9867 310.935 30.5021 308.116 33.5329C305.296 36.5638 303.887 40.6871 303.887 45.903V64.088C303.887 69.2334 305.296 73.3568 308.116 76.4581C310.935 79.489 314.812 81.0044 319.746 81.0044C324.75 81.0044 328.451 79.5947 330.847 76.7753C333.314 73.8854 334.548 70.2907 334.548 65.9911V64.088H348.292V65.5682C348.292 74.2378 345.79 81.0749 340.786 86.0793C335.852 91.0132 328.838 93.4802 319.746 93.4802ZM389.267 92V17.991H436.844V30.6783H403.223V48.3347H433.884V61.022H403.223V79.3127H437.479V92H389.267ZM477.413 92V17.991H491.369V79.3127H525.202V92H477.413ZM564.32 92V17.991H611.897V30.6783H578.276V48.3347H608.937V61.022H578.276V79.3127H612.531V92H564.32ZM652.466 92V17.991H684.607C689.259 17.991 693.312 18.8016 696.765 20.4228C700.219 22.0439 702.897 24.3347 704.801 27.295C706.704 30.2554 707.655 33.7444 707.655 37.762V39.0307C707.655 43.4713 706.598 47.066 704.483 49.8149C702.369 52.5638 699.761 54.5726 696.66 55.8413V57.7444C699.479 57.8854 701.664 58.8722 703.215 60.7048C704.765 62.4669 705.541 64.8281 705.541 67.7885V92H691.585V69.7973C691.585 68.1057 691.127 66.7312 690.21 65.674C689.364 64.6167 687.919 64.088 685.875 64.088H666.422V92H652.466ZM666.422 51.4008H683.127C686.439 51.4008 689.012 50.5197 690.845 48.7576C692.748 46.925 693.699 44.5285 693.699 41.5682V40.5109C693.699 37.5505 692.783 35.1893 690.95 33.4272C689.118 31.5946 686.51 30.6783 683.127 30.6783H666.422V51.4008ZM743.797 92L763.25 17.991H787.568L807.021 92H792.642L788.625 75.718H762.193L758.175 92H743.797ZM765.471 62.8193H785.347L776.36 26.7664H774.457L765.471 62.8193ZM855.797 92V30.6783H834.229V17.991H891.321V30.6783H869.753V92H855.797ZM930.429 92V17.991H978.006V30.6783H944.385V48.3347H975.046V61.022H944.385V79.3127H978.64V92H930.429Z" fill="white"/>
<path d="M92.91 92L91.9429 91.7458L91.6132 93H92.91V92ZM112.364 17.991V16.991H111.593L111.397 17.7368L112.364 17.991ZM136.681 17.991L137.648 17.7368L137.452 16.991H136.681V17.991ZM156.135 92V93H157.432L157.102 91.7458L156.135 92ZM141.756 92L140.785 92.2396L140.973 93H141.756V92ZM137.738 75.718L138.709 75.4785L138.522 74.718H137.738V75.718ZM111.307 75.718V74.718H110.523L110.336 75.4785L111.307 75.718ZM107.289 92V93H108.072L108.26 92.2396L107.289 92ZM114.584 62.8193L113.614 62.5775L113.304 63.8193H114.584V62.8193ZM134.461 62.8193V63.8193H135.741L135.431 62.5775L134.461 62.8193ZM125.474 26.7664L126.444 26.5245L126.255 25.7664H125.474V26.7664ZM123.571 26.7664V25.7664H122.79L122.601 26.5245L123.571 26.7664ZM93.8772 92.2542L113.331 18.2453L111.397 17.7368L91.9429 91.7458L93.8772 92.2542ZM112.364 18.991H136.681V16.991H112.364V18.991ZM135.714 18.2453L155.168 92.2542L157.102 91.7458L137.648 17.7368L135.714 18.2453ZM156.135 91H141.756V93H156.135V91ZM142.727 91.7604L138.709 75.4785L136.767 75.9576L140.785 92.2396L142.727 91.7604ZM137.738 74.718H111.307V76.718H137.738V74.718ZM110.336 75.4785L106.318 91.7604L108.26 92.2396L112.277 75.9576L110.336 75.4785ZM107.289 91H92.91V93H107.289V91ZM114.584 63.8193H134.461V61.8193H114.584V63.8193ZM135.431 62.5775L126.444 26.5245L124.504 27.0082L133.49 63.0612L135.431 62.5775ZM125.474 25.7664H123.571V27.7664H125.474V25.7664ZM122.601 26.5245L113.614 62.5775L115.554 63.0612L124.541 27.0082L122.601 26.5245ZM200.321 85.8678L199.629 86.589L199.634 86.5938L200.321 85.8678ZM200.321 24.2289L201.009 24.9549L201.014 24.9501L200.321 24.2289ZM243.141 24.0175L242.429 24.7196L242.434 24.7246L242.439 24.7296L243.141 24.0175ZM250.647 45.0572V46.0572H251.647V45.0572H250.647ZM236.903 45.0572H235.903V46.0572H236.903V45.0572ZM233.202 33.2157L232.44 33.8634L232.445 33.8688L232.45 33.8742L233.202 33.2157ZM210.471 76.4581L209.731 77.1308L209.739 77.1392L210.471 76.4581ZM233.202 76.7753L232.442 76.126L232.44 76.1276L233.202 76.7753ZM236.903 64.0881V63.088H235.903V64.0881H236.903ZM250.647 64.0881H251.647V63.088H250.647V64.0881ZM243.141 86.0793L242.434 85.3722L243.141 86.0793ZM222.101 92.4802C213.129 92.4802 206.138 90.0007 201.009 85.1419L199.634 86.5938C205.218 91.8848 212.747 94.4802 222.101 94.4802V92.4802ZM201.014 85.1466C195.905 80.2392 193.286 73.2005 193.286 63.8766H191.286C191.286 73.5836 194.024 81.2057 199.629 86.589L201.014 85.1466ZM193.286 63.8766V46.1144H191.286V63.8766H193.286ZM193.286 46.1144C193.286 36.7898 195.905 29.7901 201.009 24.9549L199.634 23.503C194.024 28.8175 191.286 36.4082 191.286 46.1144H193.286ZM201.014 24.9501C206.143 20.0233 213.133 17.5109 222.101 17.5109V15.5109C212.743 15.5109 205.213 18.1438 199.629 23.5077L201.014 24.9501ZM222.101 17.5109C231.008 17.5109 237.733 19.9573 242.429 24.7196L243.853 23.3154C238.68 18.0688 231.379 15.5109 222.101 15.5109V17.5109ZM242.439 24.7296C247.21 29.4335 249.647 35.9544 249.647 44.4228H251.647C251.647 35.552 249.081 28.4693 243.843 23.3054L242.439 24.7296ZM249.647 44.4228V45.0572H251.647V44.4228H249.647ZM250.647 44.0572H236.903V46.0572H250.647V44.0572ZM237.903 45.0572V43.9999H235.903V45.0572H237.903ZM237.903 43.9999C237.903 39.4303 236.608 35.5887 233.955 32.5572L232.45 33.8742C234.731 36.4816 235.903 39.8294 235.903 43.9999H237.903ZM233.964 32.5681C231.317 29.4536 227.29 27.9867 222.101 27.9867V29.9867C226.921 29.9867 230.295 31.3391 232.44 33.8634L233.964 32.5681ZM222.101 27.9867C216.947 27.9867 212.784 29.5788 209.739 32.8518L211.203 34.214C213.797 31.4254 217.387 29.9867 222.101 29.9867V27.9867ZM209.739 32.8518C206.706 36.1124 205.242 40.5029 205.242 45.903H207.242C207.242 40.8714 208.598 37.0151 211.203 34.214L209.739 32.8518ZM205.242 45.903V64.0881H207.242V45.903H205.242ZM205.242 64.0881C205.242 69.4229 206.708 73.8058 209.731 77.1308L211.211 75.7854C208.595 72.9078 207.242 69.044 207.242 64.0881H205.242ZM209.739 77.1392C212.784 80.4122 216.947 82.0044 222.101 82.0044V80.0044C217.387 80.0044 213.797 78.5657 211.203 75.777L209.739 77.1392ZM222.101 82.0044C227.29 82.0044 231.317 80.5374 233.964 77.4229L232.44 76.1276C230.295 78.6519 226.921 80.0044 222.101 80.0044V82.0044ZM233.963 77.4246C236.605 74.3298 237.903 70.4954 237.903 65.9911H235.903C235.903 70.086 234.734 73.441 232.442 76.126L233.963 77.4246ZM237.903 65.9911V64.0881H235.903V65.9911H237.903ZM236.903 65.0881H250.647V63.088H236.903V65.0881ZM249.647 64.0881V65.5682H251.647V64.0881H249.647ZM249.647 65.5682C249.647 74.0361 247.21 80.5958 242.434 85.3722L243.848 86.7864C249.08 81.5539 251.647 74.4396 251.647 65.5682H249.647ZM242.434 85.3722C237.739 90.0667 231.012 92.4802 222.101 92.4802V94.4802C231.375 94.4802 238.675 91.9598 243.848 86.7864L242.434 85.3722ZM297.966 85.8678L297.273 86.589L297.278 86.5938L297.966 85.8678ZM297.966 24.2289L298.654 24.9549L298.659 24.9501L297.966 24.2289ZM340.786 24.0175L340.073 24.7196L340.078 24.7246L340.083 24.7296L340.786 24.0175ZM348.292 45.0572V46.0572H349.292V45.0572H348.292ZM334.548 45.0572H333.548V46.0572H334.548V45.0572ZM330.847 33.2157L330.085 33.8634L330.09 33.8688L330.095 33.8742L330.847 33.2157ZM308.116 76.4581L307.376 77.1308L307.384 77.1392L308.116 76.4581ZM330.847 76.7753L330.087 76.126L330.085 76.1276L330.847 76.7753ZM334.548 64.0881V63.088H333.548V64.0881H334.548ZM348.292 64.0881H349.292V63.088H348.292V64.0881ZM340.786 86.0793L340.078 85.3722L340.786 86.0793ZM319.746 92.4802C310.774 92.4802 303.783 90.0007 298.654 85.1419L297.278 86.5938C302.863 91.8848 310.392 94.4802 319.746 94.4802V92.4802ZM298.659 85.1466C293.55 80.2392 290.931 73.2005 290.931 63.8766H288.931C288.931 73.5836 291.669 81.2057 297.273 86.589L298.659 85.1466ZM290.931 63.8766V46.1144H288.931V63.8766H290.931ZM290.931 46.1144C290.931 36.7898 293.55 29.7901 298.654 24.9549L297.278 23.503C291.669 28.8175 288.931 36.4082 288.931 46.1144H290.931ZM298.659 24.9501C303.788 20.0233 310.777 17.5109 319.746 17.5109V15.5109C310.388 15.5109 302.858 18.1438 297.273 23.5077L298.659 24.9501ZM319.746 17.5109C328.653 17.5109 335.378 19.9573 340.073 24.7196L341.498 23.3154C336.325 18.0688 329.024 15.5109 319.746 15.5109V17.5109ZM340.083 24.7296C344.855 29.4335 347.292 35.9544 347.292 44.4228H349.292C349.292 35.552 346.725 28.4693 341.488 23.3054L340.083 24.7296ZM347.292 44.4228V45.0572H349.292V44.4228H347.292ZM348.292 44.0572H334.548V46.0572H348.292V44.0572ZM335.548 45.0572V43.9999H333.548V45.0572H335.548ZM335.548 43.9999C335.548 39.4303 334.252 35.5887 331.6 32.5572L330.095 33.8742C332.376 36.4816 333.548 39.8294 333.548 43.9999H335.548ZM331.609 32.5681C328.962 29.4536 324.934 27.9867 319.746 27.9867V29.9867C324.566 29.9867 327.94 31.3391 330.085 33.8634L331.609 32.5681ZM319.746 27.9867C314.592 27.9867 310.428 29.5788 307.384 32.8518L308.848 34.214C311.442 31.4254 315.032 29.9867 319.746 29.9867V27.9867ZM307.384 32.8518C304.351 36.1124 302.887 40.5029 302.887 45.903H304.887C304.887 40.8714 306.242 37.0151 308.848 34.214L307.384 32.8518ZM302.887 45.903V64.0881H304.887V45.903H302.887ZM302.887 64.0881C302.887 69.4229 304.353 73.8058 307.376 77.1308L308.856 75.7854C306.24 72.9078 304.887 69.044 304.887 64.0881H302.887ZM307.384 77.1392C310.428 80.4122 314.592 82.0044 319.746 82.0044V80.0044C315.032 80.0044 311.442 78.5657 308.848 75.777L307.384 77.1392ZM319.746 82.0044C324.934 82.0044 328.962 80.5374 331.609 77.4229L330.085 76.1276C327.94 78.6519 324.566 80.0044 319.746 80.0044V82.0044ZM331.608 77.4246C334.25 74.3298 335.548 70.4954 335.548 65.9911H333.548C333.548 70.086 332.379 73.441 330.087 76.126L331.608 77.4246ZM335.548 65.9911V64.0881H333.548V65.9911H335.548ZM334.548 65.0881H348.292V63.088H334.548V65.0881ZM347.292 64.0881V65.5682H349.292V64.0881H347.292ZM347.292 65.5682C347.292 74.0361 344.855 80.5958 340.078 85.3722L341.493 86.7864C346.725 81.5539 349.292 74.4396 349.292 65.5682H347.292ZM340.078 85.3722C335.384 90.0667 328.657 92.4802 319.746 92.4802V94.4802C329.02 94.4802 336.319 91.9598 341.493 86.7864L340.078 85.3722ZM389.267 92H388.267V93H389.267V92ZM389.267 17.991V16.991H388.267V17.991H389.267ZM436.844 17.991H437.844V16.991H436.844V17.991ZM436.844 30.6783V31.6783H437.844V30.6783H436.844ZM403.223 30.6783V29.6783H402.223V30.6783H403.223ZM403.223 48.3347H402.223V49.3347H403.223V48.3347ZM433.884 48.3347H434.884V47.3347H433.884V48.3347ZM433.884 61.022V62.022H434.884V61.022H433.884ZM403.223 61.022V60.022H402.223V61.022H403.223ZM403.223 79.3128H402.223V80.3128H403.223V79.3128ZM437.479 79.3128H438.479V78.3128H437.479V79.3128ZM437.479 92V93H438.479V92H437.479ZM390.267 92V17.991H388.267V92H390.267ZM389.267 18.991H436.844V16.991H389.267V18.991ZM435.844 17.991V30.6783H437.844V17.991H435.844ZM436.844 29.6783H403.223V31.6783H436.844V29.6783ZM402.223 30.6783V48.3347H404.223V30.6783H402.223ZM403.223 49.3347H433.884V47.3347H403.223V49.3347ZM432.884 48.3347V61.022H434.884V48.3347H432.884ZM433.884 60.022H403.223V62.022H433.884V60.022ZM402.223 61.022V79.3128H404.223V61.022H402.223ZM403.223 80.3128H437.479V78.3128H403.223V80.3128ZM436.479 79.3128V92H438.479V79.3128H436.479ZM437.479 91H389.267V93H437.479V91ZM477.413 92H476.413V93H477.413V92ZM477.413 17.991V16.991H476.413V17.991H477.413ZM491.369 17.991H492.369V16.991H491.369V17.991ZM491.369 79.3128H490.369V80.3128H491.369V79.3128ZM525.202 79.3128H526.202V78.3128H525.202V79.3128ZM525.202 92V93H526.202V92H525.202ZM478.413 92V17.991H476.413V92H478.413ZM477.413 18.991H491.369V16.991H477.413V18.991ZM490.369 17.991V79.3128H492.369V17.991H490.369ZM491.369 80.3128H525.202V78.3128H491.369V80.3128ZM524.202 79.3128V92H526.202V79.3128H524.202ZM525.202 91H477.413V93H525.202V91ZM564.32 92H563.32V93H564.32V92ZM564.32 17.991V16.991H563.32V17.991H564.32ZM611.897 17.991H612.897V16.991H611.897V17.991ZM611.897 30.6783V31.6783H612.897V30.6783H611.897ZM578.276 30.6783V29.6783H577.276V30.6783H578.276ZM578.276 48.3347H577.276V49.3347H578.276V48.3347ZM608.937 48.3347H609.937V47.3347H608.937V48.3347ZM608.937 61.022V62.022H609.937V61.022H608.937ZM578.276 61.022V60.022H577.276V61.022H578.276ZM578.276 79.3128H577.276V80.3128H578.276V79.3128ZM612.531 79.3128H613.531V78.3128H612.531V79.3128ZM612.531 92V93H613.531V92H612.531ZM565.32 92V17.991H563.32V92H565.32ZM564.32 18.991H611.897V16.991H564.32V18.991ZM610.897 17.991V30.6783H612.897V17.991H610.897ZM611.897 29.6783H578.276V31.6783H611.897V29.6783ZM577.276 30.6783V48.3347H579.276V30.6783H577.276ZM578.276 49.3347H608.937V47.3347H578.276V49.3347ZM607.937 48.3347V61.022H609.937V48.3347H607.937ZM608.937 60.022H578.276V62.022H608.937V60.022ZM577.276 61.022V79.3128H579.276V61.022H577.276ZM578.276 80.3128H612.531V78.3128H578.276V80.3128ZM611.531 79.3128V92H613.531V79.3128H611.531ZM612.531 91H564.32V93H612.531V91ZM652.466 92H651.466V93H652.466V92ZM652.466 17.991V16.991H651.466V17.991H652.466ZM696.765 20.4228L696.34 21.328L696.765 20.4228ZM704.801 27.295L705.642 26.7543L704.801 27.295ZM704.483 49.8149L705.276 50.4246V50.4246L704.483 49.8149ZM696.66 55.8413L696.281 54.9158L695.66 55.17V55.8413H696.66ZM696.66 57.7444H695.66V58.6957L696.61 58.7432L696.66 57.7444ZM703.215 60.7048L702.451 61.3507L702.458 61.3581L702.464 61.3654L703.215 60.7048ZM705.541 92V93H706.541V92H705.541ZM691.585 92H690.585V93H691.585V92ZM690.21 65.674L689.429 66.2986L689.442 66.314L689.455 66.3289L690.21 65.674ZM666.422 64.0881V63.088H665.422V64.0881H666.422ZM666.422 92V93H667.422V92H666.422ZM666.422 51.4008H665.422V52.4008H666.422V51.4008ZM690.845 48.7576L691.538 49.4785L691.538 49.4779L690.845 48.7576ZM690.95 33.4272L690.243 34.1343L690.25 34.1412L690.257 34.148L690.95 33.4272ZM666.422 30.6783V29.6783H665.422V30.6783H666.422ZM653.466 92V17.991H651.466V92H653.466ZM652.466 18.991H684.607V16.991H652.466V18.991ZM684.607 18.991C689.143 18.991 693.046 19.7814 696.34 21.328L697.19 19.5175C693.578 17.8218 689.374 16.991 684.607 16.991V18.991ZM696.34 21.328C699.639 22.8762 702.167 25.0469 703.959 27.8358L705.642 26.7543C703.628 23.6224 700.799 21.2116 697.19 19.5175L696.34 21.328ZM703.959 27.8358C705.745 30.6129 706.655 33.9082 706.655 37.762H708.655C708.655 33.5805 707.663 29.8979 705.642 26.7543L703.959 27.8358ZM706.655 37.762V39.0307H708.655V37.762H706.655ZM706.655 39.0307C706.655 43.3132 705.637 46.6749 703.691 49.2052L705.276 50.4246C707.559 47.4571 708.655 43.6293 708.655 39.0307H706.655ZM703.691 49.2052C701.68 51.8192 699.213 53.7163 696.281 54.9158L697.038 56.7669C700.309 55.4289 703.058 53.3084 705.276 50.4246L703.691 49.2052ZM695.66 55.8413V57.7444H697.66V55.8413H695.66ZM696.61 58.7432C699.206 58.873 701.111 59.7667 702.451 61.3507L703.978 60.0588C702.217 57.9777 699.752 56.8978 696.71 56.7457L696.61 58.7432ZM702.464 61.3654C703.815 62.9011 704.541 65.0057 704.541 67.7885H706.541C706.541 64.6506 705.715 62.0327 703.965 60.0442L702.464 61.3654ZM704.541 67.7885V92H706.541V67.7885H704.541ZM705.541 91H691.585V93H705.541V91ZM692.585 92V69.7973H690.585V92H692.585ZM692.585 69.7973C692.585 67.9177 692.071 66.2943 690.966 65.019L689.455 66.3289C690.182 67.1682 690.585 68.2937 690.585 69.7973H692.585ZM690.991 65.0493C689.875 63.6539 688.065 63.088 685.875 63.088V65.0881C687.774 65.0881 688.854 65.5794 689.429 66.2986L690.991 65.0493ZM685.875 63.088H666.422V65.0881H685.875V63.088ZM665.422 64.0881V92H667.422V64.0881H665.422ZM666.422 91H652.466V93H666.422V91ZM666.422 52.4008H683.127V50.4008H666.422V52.4008ZM683.127 52.4008C686.617 52.4008 689.468 51.469 691.538 49.4785L690.151 48.0368C688.556 49.5705 686.262 50.4008 683.127 50.4008V52.4008ZM691.538 49.4779C693.662 47.4332 694.699 44.7643 694.699 41.5682H692.699C692.699 44.2928 691.834 46.4168 690.151 48.0373L691.538 49.4779ZM694.699 41.5682V40.5109H692.699V41.5682H694.699ZM694.699 40.5109C694.699 37.3272 693.705 34.6882 691.643 32.7064L690.257 34.148C691.861 35.6904 692.699 37.7739 692.699 40.5109H694.699ZM691.657 32.7201C689.585 30.6477 686.691 29.6783 683.127 29.6783V31.6783C686.329 31.6783 688.65 32.5414 690.243 34.1343L691.657 32.7201ZM683.127 29.6783H666.422V31.6783H683.127V29.6783ZM665.422 30.6783V51.4008H667.422V30.6783H665.422ZM743.797 92L742.829 91.7458L742.5 93H743.797V92ZM763.25 17.991V16.991H762.479L762.283 17.7368L763.25 17.991ZM787.568 17.991L788.535 17.7368L788.339 16.991H787.568V17.991ZM807.021 92V93H808.318L807.988 91.7458L807.021 92ZM792.642 92L791.672 92.2396L791.859 93H792.642V92ZM788.625 75.718L789.596 75.4785L789.408 74.718H788.625V75.718ZM762.193 75.718V74.718H761.41L761.222 75.4785L762.193 75.718ZM758.175 92V93H758.959L759.146 92.2396L758.175 92ZM765.471 62.8193L764.5 62.5775L764.191 63.8193H765.471V62.8193ZM785.347 62.8193V63.8193H786.627L786.318 62.5775L785.347 62.8193ZM776.36 26.7664L777.331 26.5245L777.142 25.7664H776.36V26.7664ZM774.457 26.7664V25.7664H773.676L773.487 26.5245L774.457 26.7664ZM744.764 92.2542L764.217 18.2453L762.283 17.7368L742.829 91.7458L744.764 92.2542ZM763.25 18.991H787.568V16.991H763.25V18.991ZM786.6 18.2453L806.054 92.2542L807.988 91.7458L788.535 17.7368L786.6 18.2453ZM807.021 91H792.642V93H807.021V91ZM793.613 91.7604L789.596 75.4785L787.654 75.9576L791.672 92.2396L793.613 91.7604ZM788.625 74.718H762.193V76.718H788.625V74.718ZM761.222 75.4785L757.205 91.7604L759.146 92.2396L763.164 75.9576L761.222 75.4785ZM758.175 91H743.797V93H758.175V91ZM765.471 63.8193H785.347V61.8193H765.471V63.8193ZM786.318 62.5775L777.331 26.5245L775.39 27.0082L784.377 63.0612L786.318 62.5775ZM776.36 25.7664H774.457V27.7664H776.36V25.7664ZM773.487 26.5245L764.5 62.5775L766.441 63.0612L775.428 27.0082L773.487 26.5245ZM855.797 92H854.797V93H855.797V92ZM855.797 30.6783H856.797V29.6783H855.797V30.6783ZM834.229 30.6783H833.229V31.6783H834.229V30.6783ZM834.229 17.991V16.991H833.229V17.991H834.229ZM891.321 17.991H892.321V16.991H891.321V17.991ZM891.321 30.6783V31.6783H892.321V30.6783H891.321ZM869.753 30.6783V29.6783H868.753V30.6783H869.753ZM869.753 92V93H870.753V92H869.753ZM856.797 92V30.6783H854.797V92H856.797ZM855.797 29.6783H834.229V31.6783H855.797V29.6783ZM835.229 30.6783V17.991H833.229V30.6783H835.229ZM834.229 18.991H891.321V16.991H834.229V18.991ZM890.321 17.991V30.6783H892.321V17.991H890.321ZM891.321 29.6783H869.753V31.6783H891.321V29.6783ZM868.753 30.6783V92H870.753V30.6783H868.753ZM869.753 91H855.797V93H869.753V91ZM930.429 92H929.429V93H930.429V92ZM930.429 17.991V16.991H929.429V17.991H930.429ZM978.006 17.991H979.006V16.991H978.006V17.991ZM978.006 30.6783V31.6783H979.006V30.6783H978.006ZM944.385 30.6783V29.6783H943.385V30.6783H944.385ZM944.385 48.3347H943.385V49.3347H944.385V48.3347ZM975.046 48.3347H976.046V47.3347H975.046V48.3347ZM975.046 61.022V62.022H976.046V61.022H975.046ZM944.385 61.022V60.022H943.385V61.022H944.385ZM944.385 79.3128H943.385V80.3128H944.385V79.3128ZM978.64 79.3128H979.64V78.3128H978.64V79.3128ZM978.64 92V93H979.64V92H978.64ZM931.429 92V17.991H929.429V92H931.429ZM930.429 18.991H978.006V16.991H930.429V18.991ZM977.006 17.991V30.6783H979.006V17.991H977.006ZM978.006 29.6783H944.385V31.6783H978.006V29.6783ZM943.385 30.6783V48.3347H945.385V30.6783H943.385ZM944.385 49.3347H975.046V47.3347H944.385V49.3347ZM974.046 48.3347V61.022H976.046V48.3347H974.046ZM975.046 60.022H944.385V62.022H975.046V60.022ZM943.385 61.022V79.3128H945.385V61.022H943.385ZM944.385 80.3128H978.64V78.3128H944.385V80.3128ZM977.64 79.3128V92H979.64V79.3128H977.64ZM978.64 91H930.429V93H978.64V91Z" fill="url(#paint4_linear_303_68)"/>
<defs>
<linearGradient id="paint0_linear_303_68" x1="525.5" y1="0" x2="525.5" y2="92" gradientUnits="userSpaceOnUse">
<stop stop-color="#2378DE"/>
<stop offset="1" stop-color="#2EAAF3"/>
</linearGradient>
<linearGradient id="paint1_linear_303_68" x1="502.5" y1="0" x2="502.5" y2="92" gradientUnits="userSpaceOnUse">
<stop stop-color="#2378DE"/>
<stop offset="1" stop-color="#2EAAF3"/>
</linearGradient>
<linearGradient id="paint2_linear_303_68" x1="484.5" y1="0" x2="484.5" y2="92" gradientUnits="userSpaceOnUse">
<stop stop-color="#2378DE"/>
<stop offset="1" stop-color="#2EAAF3"/>
</linearGradient>
<linearGradient id="paint3_linear_303_68" x1="463.5" y1="0" x2="463.5" y2="92" gradientUnits="userSpaceOnUse">
<stop stop-color="#2378DE"/>
<stop offset="1" stop-color="#2EAAF3"/>
</linearGradient>
<linearGradient id="paint4_linear_303_68" x1="536.5" y1="0" x2="536.5" y2="92" gradientUnits="userSpaceOnUse">
<stop stop-color="#54C4FC"/>
<stop offset="1" stop-color="#027DBA"/>
</linearGradient>
</defs>
</svg>
