<svg width="130" height="130" viewBox="0 0 130 130" fill="none" xmlns="http://www.w3.org/2000/svg">
<path d="M67.0968 79.3798C70.7032 78.4425 73.3871 75.1883 73.3871 71.2904C73.3871 66.665 69.6255 62.9033 65 62.9033C62.6873 62.9033 60.8064 61.0225 60.8064 58.7098C60.8064 56.3971 62.6873 54.5162 65 54.5162C67.3127 54.5162 69.1935 56.3971 69.1935 58.7098H73.3871C73.3871 54.8119 70.7032 51.5577 67.0968 50.6204V46.1292H62.9032V50.6204C59.2968 51.5577 56.6129 54.8119 56.6129 58.7098C56.6129 63.3353 60.3745 67.0969 65 67.0969C67.3127 67.0969 69.1935 68.9777 69.1935 71.2904C69.1935 73.6032 67.3127 75.484 65 75.484C62.6873 75.484 60.8064 73.6032 60.8064 71.2904H56.6129C56.6129 75.1883 59.2968 78.4425 62.9032 79.3798V83.8711H67.0968V79.3798Z" fill="#E1F5FF"/>
<path d="M65 37.7419C49.9703 37.7419 37.7419 49.9703 37.7419 65H41.9355C41.9355 52.2831 52.2831 41.9355 65 41.9355V37.7419Z" fill="#E1F5FF"/>
<path d="M88.0645 65C88.0645 77.7169 77.7169 88.0645 65 88.0645V92.2581C80.0297 92.2581 92.2581 80.0297 92.2581 65H88.0645Z" fill="#E1F5FF"/>
<path d="M43.1936 15.0212C36.6202 17.8917 30.7513 21.9783 25.7505 27.1658L28.7678 30.0782C33.3869 25.2891 38.805 21.515 44.8731 18.8625L43.1936 15.0212Z" fill="#E1F5FF"/>
<path d="M51.9181 12.0649C50.442 12.4277 48.9743 12.8554 47.5526 13.3356L48.8988 17.309C50.2072 16.8666 51.5617 16.4724 52.9204 16.1348L51.9181 12.0649Z" fill="#E1F5FF"/>
<path d="M60.643 10.6558C59.2109 10.769 57.7432 10.9451 56.2817 11.1779L56.9443 15.319C58.2946 15.1009 59.6491 14.9395 60.9701 14.8388L60.643 10.6558Z" fill="#E1F5FF"/>
<path d="M65 4.19355C81.2437 4.19355 96.5124 10.5195 107.996 22.0035C108.783 22.7898 110.175 22.7898 110.961 22.0035L115.323 17.6423V33.5484H99.4165L103.549 29.4156C104.369 28.5958 104.369 27.2706 103.549 26.4508C93.2519 16.1535 79.5621 10.4839 65 10.4839V14.6774C77.74 14.6774 89.7587 19.3805 99.0705 27.9647L92.8724 34.1627C92.2727 34.7624 92.0924 35.664 92.4174 36.4482C92.7424 37.2324 93.5077 37.7419 94.3548 37.7419H117.419C118.577 37.7419 119.516 36.8047 119.516 35.6452V12.5806C119.516 11.7335 119.005 10.9661 118.222 10.6432C117.434 10.314 116.537 10.4965 115.937 11.0982L109.456 17.5794C97.3679 6.22742 81.6631 0 65 0C29.1598 0 0 29.1577 0 65H4.19355C4.19355 31.4726 31.4705 4.19355 65 4.19355Z" fill="#E1F5FF"/>
<path d="M104.252 102.834L101.235 99.9219C96.6154 104.711 91.1973 108.485 85.1292 111.138L86.8088 114.979C93.3822 112.108 99.2489 108.022 104.252 102.834Z" fill="#E1F5FF"/>
<path d="M78.0817 117.935C79.5579 117.572 81.0256 117.145 82.4472 116.665L81.1011 112.691C79.7927 113.134 78.4382 113.528 77.0795 113.865L78.0817 117.935Z" fill="#E1F5FF"/>
<path d="M69.3573 119.344C70.7894 119.231 72.2572 119.055 73.7186 118.822L73.056 114.681C71.7057 114.899 70.3512 115.06 69.0302 115.161L69.3573 119.344Z" fill="#E1F5FF"/>
<path d="M125.806 65C125.806 98.5274 98.5295 125.806 65 125.806C48.7563 125.806 33.4876 119.48 22.0035 107.996C21.2173 107.21 19.825 107.21 19.0387 107.996L14.6774 112.358V96.4516H30.5835L26.4508 100.584C25.631 101.404 25.631 102.729 26.4508 103.549C36.7481 113.846 50.4379 119.516 65 119.516V115.323C52.26 115.323 40.2413 110.62 30.9295 102.035L37.1276 95.8373C37.7273 95.2376 37.9076 94.336 37.5826 93.5518C37.2576 92.7676 36.4923 92.2581 35.6452 92.2581H12.5806C11.4232 92.2581 10.4839 93.1953 10.4839 94.3548V117.419C10.4839 118.266 10.9955 119.034 11.7776 119.357C12.5618 119.684 13.4634 119.501 14.0631 118.902L20.5442 112.421C32.6321 123.773 48.3369 130 65 130C100.84 130 130 100.842 130 65H125.806Z" fill="#E1F5FF"/>
<path d="M100.645 64.9999C100.645 45.3447 84.6552 29.3547 65 29.3547C45.3448 29.3547 29.3548 45.3447 29.3548 64.9999C29.3548 84.6551 45.3448 100.645 65 100.645C84.6552 100.645 100.645 84.6551 100.645 64.9999ZM65 96.4515C47.6576 96.4515 33.5484 82.3423 33.5484 64.9999C33.5484 47.6575 47.6576 33.5483 65 33.5483C82.3424 33.5483 96.4516 47.6575 96.4516 64.9999C96.4516 82.3423 82.3424 96.4515 65 96.4515Z" fill="#E1F5FF"/>
</svg>
