<svg width="142" height="144" viewBox="0 0 142 144" fill="none" xmlns="http://www.w3.org/2000/svg">
<path d="M141.264 21.4889L115.992 0.471358C115.576 0.125351 115.04 -0.0413854 114.501 0.00875217C113.962 0.0585982 113.465 0.320654 113.119 0.737496L105.865 9.48183C105.712 9.42995 105.556 9.38243 105.399 9.339C105.385 9.33521 105.372 9.33171 105.358 9.32821L98.218 7.51393C98.1761 7.50344 98.1341 7.49411 98.0916 7.48624C92.1174 6.36456 87.2633 9.58794 86.0125 15.5033C85.84 16.3198 85.6535 17.2164 85.4545 18.1731C83.9482 25.4139 81.6846 36.2967 79.4081 41.3684C73.9908 47.8986 70.6864 51.7233 69.5341 52.7951C68.521 52.9106 67.6557 52.9963 66.8792 53.0735C64.3848 53.3204 62.8796 53.4694 61.1408 54.1634C57.2496 55.7165 51.3626 60.2452 46.1687 64.2411C44.4872 65.5344 42.8996 66.7558 41.6109 67.6912C37.8401 70.4284 36.8783 75.6168 39.4207 79.503C40.9827 81.8909 42.9998 82.8057 45.1011 82.9581L14.5105 119.659C14.1638 120.075 13.9966 120.612 14.0458 121.151C14.095 121.691 14.3567 122.188 14.773 122.535L40.0163 143.529C40.384 143.834 40.8458 144 41.3201 144C41.3825 144 41.4454 143.997 41.5083 143.991C42.0474 143.941 42.5441 143.679 42.8897 143.263L50.6245 133.937C52.0161 135.195 53.794 135.883 55.6736 135.883H55.6788C57.5911 135.882 59.3981 135.169 60.7993 133.868C60.9619 134.073 61.1346 134.271 61.3179 134.461C62.773 135.965 64.6826 136.793 66.6959 136.793H66.7014C70.7019 136.79 73.9835 133.66 74.2329 129.721C75.2967 130.278 76.484 130.573 77.715 130.573H77.7197C79.7301 130.572 81.6242 129.783 83.0528 128.353C84.4817 126.922 85.2677 125.026 85.2663 123.014L85.2637 119.368C86.3236 119.919 87.5048 120.212 88.7294 120.212H88.7353C90.746 120.211 92.6398 119.422 94.0687 117.991C95.4975 116.56 96.2839 114.664 96.2822 112.664L96.4436 78.716L100.278 74.0934L100.982 74.6974C102.39 75.905 104.121 76.4962 105.844 76.4962C107.952 76.4962 110.048 75.6115 111.524 73.8893C111.546 73.8631 111.568 73.8363 111.59 73.8092C112.917 72.092 113.474 70.1127 113.296 68.2293C115.276 68.1311 117.214 67.2528 118.603 65.6321C118.625 65.6059 118.647 65.579 118.669 65.5516C119.997 63.8318 120.555 61.8499 120.374 59.9645C120.442 59.961 120.51 59.9619 120.578 59.9566C122.573 59.8036 124.386 58.8868 125.682 57.3749C125.705 57.3486 125.726 57.3218 125.748 57.2947C127.063 55.5926 127.617 53.6029 127.444 51.7151C129.427 51.6195 131.369 50.7415 132.761 49.1179C135.445 45.9875 135.083 41.2562 131.954 38.5709L130.663 37.4638L141.532 24.3622C142.248 23.4944 142.13 22.2089 141.264 21.4889ZM89.448 19.0045C89.6461 18.0524 89.8314 17.1602 90.0033 16.3478C90.2696 15.0879 91.4278 11.3384 95.7263 11.3384C96.2041 11.3384 96.721 11.3847 97.2795 11.4862L104.331 13.2777C105.484 13.6004 106.448 14.3574 107.045 15.4103C107.646 16.4684 107.801 17.6907 107.481 18.852C106.816 21.2636 104.315 22.6843 101.906 22.0203L97.7478 20.8709C96.9721 20.6567 96.1426 20.9184 95.6304 21.5399C95.2164 22.0425 94.3242 23.1417 93.1049 24.6426C90.6618 27.6512 88.4034 30.4224 86.3295 32.9579C87.5322 28.2132 88.6056 23.0531 89.448 19.0045ZM41.0538 139.085L18.9515 120.703L48.1264 85.7005L48.1226 128.333C48.1229 128.993 48.208 129.639 48.3723 130.261L41.0538 139.085ZM108.393 71.2702C107.808 71.9319 106.999 72.333 106.107 72.4015C105.199 72.47 104.32 72.1864 103.636 71.5993L97.9165 66.6914C96.2446 65.2569 96.5418 63.2412 97.5828 61.861C98.8045 60.477 100.924 60.3239 102.333 61.5266L108.059 66.4398L108.061 66.4419C109.731 67.8766 109.434 69.8912 108.393 71.2702ZM115.472 63.0127C114.247 64.3996 112.124 64.5509 110.715 63.3418L102.699 56.4639C101.027 55.0292 101.324 53.0132 102.366 51.6329C103.59 50.2474 105.71 50.0962 107.119 51.3012C107.12 51.3021 107.121 51.3032 107.122 51.3041L115.138 58.182C115.138 58.182 115.138 58.1823 115.138 58.1823C115.138 58.1826 115.139 58.1826 115.139 58.1829C116.81 59.6179 116.513 61.633 115.472 63.0127ZM122.551 54.7557C121.966 55.4174 121.156 55.8185 120.264 55.887C119.357 55.9573 118.478 55.6719 117.794 55.0846L109.778 48.2067C108.106 46.7719 108.403 44.7562 109.444 43.376C110.667 41.9911 112.789 41.8392 114.197 43.0431C114.198 43.0437 114.198 43.044 114.199 43.0446C114.2 43.0454 114.201 43.046 114.202 43.0469L122.217 49.9248C122.221 49.9277 122.224 49.9303 122.228 49.9335C122.232 49.9367 122.235 49.9405 122.239 49.9437C123.833 51.2721 123.603 53.3589 122.551 54.7557ZM129.663 46.46C129.076 47.1447 128.252 47.5598 127.343 47.6295C126.433 47.6995 125.557 47.4144 124.873 46.827L116.857 39.9488C115.185 38.5141 115.482 36.4987 116.523 35.1184C117.108 34.4565 117.918 34.0554 118.81 33.9869C119.717 33.9178 120.596 34.2023 121.28 34.7893L129.296 41.6672C130.694 42.867 130.862 45.0617 129.663 46.46ZM127.565 34.8057L123.936 31.6922C122.425 30.3953 120.493 29.766 118.498 29.9184C116.503 30.0712 114.69 30.9882 113.394 32.4999C113.372 32.5262 113.35 32.553 113.328 32.5801C112 34.2985 111.443 36.2786 111.622 38.1626C109.642 38.2608 107.703 39.1373 106.315 40.7572C106.292 40.7834 106.27 40.8102 106.249 40.8376C104.922 42.5557 104.364 44.5356 104.543 46.4189C102.563 46.5172 100.625 47.3937 99.236 49.0141C99.2136 49.0404 99.1918 49.0672 99.1705 49.0946C97.2961 51.5204 96.9538 54.4675 98.0581 56.9291C96.7006 57.3183 95.4384 58.0928 94.4533 59.2419C94.4309 59.2681 94.409 59.2949 94.3877 59.3223C91.7716 62.7081 92.1387 67.11 95.2607 69.7886L97.1799 71.4352L92.8365 76.6714C92.535 77.0352 92.3689 77.4922 92.3665 77.9648L92.2019 112.655C92.2028 113.577 91.8406 114.447 91.1822 115.107C90.5234 115.766 89.6534 116.13 88.7292 116.13C87.8093 116.13 86.9399 115.768 86.2814 115.11C85.6366 114.466 85.275 113.62 85.2587 112.721L85.2526 103.737C85.2517 102.611 84.3389 101.698 83.2116 101.698C82.0855 101.699 81.1729 102.613 81.1735 103.74L81.1863 123.017C81.1872 123.938 80.8247 124.808 80.1663 125.468C79.5075 126.128 78.6375 126.491 77.7141 126.492C76.794 126.492 75.924 126.129 75.2655 125.471C74.626 124.832 74.2647 123.994 74.2431 123.103L74.2315 105.494C74.2306 104.367 73.3177 103.455 72.1904 103.455C71.064 103.456 70.1518 104.37 70.1524 105.497L70.1684 129.236C70.1698 131.151 68.6131 132.71 66.6956 132.711C65.1622 132.713 63.805 131.552 63.3417 130.127C63.1433 129.517 63.2255 128.948 63.2249 128.323L63.21 106.255C63.2091 105.129 62.2963 104.216 61.169 104.216C60.0429 104.217 59.13 105.131 59.1309 106.258L59.1458 128.326C59.1475 129.243 58.7725 130.13 58.1257 130.777C57.4672 131.437 56.5969 131.801 55.6733 131.801C54.7532 131.801 53.8837 131.439 53.225 130.781C52.5656 130.122 52.2023 129.252 52.2017 128.331L52.2061 80.114C52.2101 79.9405 52.1918 79.7648 52.1498 79.5896C52.1256 79.4887 52.0939 79.3902 52.0551 79.2952C51.9004 78.9148 51.6411 78.6037 51.32 78.3834C51.214 78.3105 51.1 78.2475 50.9794 78.195C50.5354 78.0015 50.0197 77.9648 49.5235 78.13C44.8777 79.675 43.7087 78.6037 42.8343 77.2675C41.4853 75.2057 42.0005 72.4499 44.0068 70.9936C45.3412 70.0247 46.951 68.7864 48.6552 67.4752C53.3922 63.8312 59.2871 59.2958 62.6523 57.9529C63.8554 57.4728 65.0005 57.3591 67.2812 57.1335C68.2066 57.042 69.2552 56.9379 70.537 56.786C71.5716 56.6633 72.0436 56.6073 81.9532 44.6962C87.0856 38.5266 97.4998 25.7028 97.9436 25.1577L100.821 25.9532C105.402 27.2162 110.151 24.5161 111.414 19.9355C112.023 17.7233 111.732 15.4004 110.593 13.3943C110.238 12.7688 109.815 12.1983 109.333 11.6911L114.955 4.91407L137.09 23.323L127.565 34.8057ZM16.5026 81.2499C17.629 81.2499 18.5421 80.3364 18.5421 79.2095C18.5421 72.3561 24.1151 66.7806 30.9653 66.7806C32.0917 66.7806 33.0049 65.867 33.0049 64.7401C33.0049 63.6132 32.0917 62.6996 30.9653 62.6996C24.1151 62.6996 18.5421 57.1242 18.5421 50.2705C18.5421 49.1435 17.629 48.23 16.5026 48.23C15.3762 48.23 14.463 49.1435 14.463 50.2705C14.463 57.1239 8.88981 62.6996 2.03955 62.6996C0.913136 62.6996 0 63.6132 0 64.7401C0 65.867 0.913136 66.7806 2.03955 66.7806C8.88981 66.7806 14.463 72.3561 14.463 79.2095C14.463 80.3364 15.3762 81.2499 16.5026 81.2499ZM9.98156 64.7401C12.723 63.2278 14.9913 60.9585 16.5029 58.2158C18.0145 60.9585 20.2827 63.2281 23.0242 64.7401C20.2827 66.2521 18.0145 68.5217 16.5029 71.2644C14.9913 68.5217 12.723 66.2521 9.98156 64.7401ZM2.03984 18.5503C8.89011 18.5503 14.4633 24.1258 14.4633 30.9792C14.4633 32.1061 15.3765 33.0197 16.5029 33.0197C17.6293 33.0197 18.5424 32.1061 18.5424 30.9792C18.5424 24.1258 24.1153 18.5503 30.9656 18.5503C32.092 18.5503 33.0052 17.6368 33.0052 16.5098C33.0052 15.3829 32.092 14.4694 30.9656 14.4694C24.1153 14.4694 18.5424 8.89388 18.5424 2.04049C18.5424 0.91356 17.6293 7.33004e-06 16.5029 7.33004e-06C15.3765 7.33004e-06 14.4633 0.91356 14.4633 2.04049C14.4633 8.89388 8.89011 14.4694 2.03984 14.4694C0.913427 14.4694 0.000291204 15.3829 0.000291204 16.5098C0.000291204 17.6368 0.913427 18.5503 2.03984 18.5503ZM16.5026 9.98554C18.0142 12.7282 20.2824 14.9975 23.0239 16.5098C20.2824 18.0221 18.0142 20.2914 16.5026 23.0341C14.991 20.2914 12.7227 18.0221 9.98127 16.5098C12.723 14.9978 14.9913 12.7285 16.5026 9.98554ZM27.6525 41.0443C27.6525 42.1712 28.5656 43.0848 29.6921 43.0848C36.5423 43.0848 42.1155 48.6602 42.1155 55.5136C42.1155 56.6406 43.0287 57.5541 44.1551 57.5541C45.2815 57.5541 46.1946 56.6406 46.1946 55.5136C46.1946 48.6602 51.7676 43.0848 58.6178 43.0848C59.7442 43.0848 60.6574 42.1712 60.6574 41.0443C60.6574 39.9174 59.7442 39.0038 58.6178 39.0038C51.7676 39.0038 46.1946 33.4283 46.1946 26.5749C46.1946 25.448 45.2815 24.5345 44.1551 24.5345C43.0287 24.5345 42.1155 25.448 42.1155 26.5749C42.1155 33.4283 36.5423 39.0038 29.6921 39.0038C28.5656 39.0038 27.6525 39.9174 27.6525 41.0443ZM44.1551 34.52C45.6667 37.2627 47.935 39.532 50.6764 41.0443C47.935 42.5566 45.6667 44.8259 44.1551 47.5686C42.6435 44.8259 40.3752 42.5566 37.6338 41.0443C40.3752 39.532 42.6435 37.2627 44.1551 34.52Z" fill="#E1F5FF"/>
</svg>
