<svg width="14" height="14" viewBox="0 0 14 14" fill="none" xmlns="http://www.w3.org/2000/svg">
<path d="M6.99992 13.6673C3.31792 13.6673 0.333252 10.6827 0.333252 7.00065C0.333252 3.31865 3.31792 0.333984 6.99992 0.333984C10.6819 0.333984 13.6666 3.31865 13.6666 7.00065C13.6666 10.6827 10.6819 13.6673 6.99992 13.6673ZM6.99992 12.334C8.41441 12.334 9.77096 11.7721 10.7712 10.7719C11.7713 9.77169 12.3333 8.41514 12.3333 7.00065C12.3333 5.58616 11.7713 4.22961 10.7712 3.22941C9.77096 2.22922 8.41441 1.66732 6.99992 1.66732C5.58543 1.66732 4.22888 2.22922 3.22868 3.22941C2.22849 4.22961 1.66659 5.58616 1.66659 7.00065C1.66659 8.41514 2.22849 9.77169 3.22868 10.7719C4.22888 11.7721 5.58543 12.334 6.99992 12.334ZM7.66659 7.00065H10.3333V8.33398H6.33325V3.66732H7.66659V7.00065Z" fill="white"/>
</svg>
