<svg width="22" height="20" viewBox="0 0 22 20" fill="none" xmlns="http://www.w3.org/2000/svg">
<path d="M20.179 10.7944L20.192 10.8084L11 20.0004L1.80797 10.8084L1.82097 10.7944C0.753534 9.54994 0.19581 7.94807 0.259558 6.30977C0.323306 4.67148 1.00381 3.11779 2.16472 1.96005C3.32563 0.802302 4.88117 0.126033 6.51963 0.0667538C8.15809 0.00747451 9.75843 0.569564 11 1.64039C12.2415 0.569564 13.8418 0.00747451 15.4803 0.0667538C17.1188 0.126033 18.6743 0.802302 19.8352 1.96005C20.9961 3.11779 21.6766 4.67148 21.7404 6.30977C21.8041 7.94807 21.2464 9.54994 20.179 10.7944Z" fill="#FF0071"/>
</svg>
