<svg width="18" height="18" viewBox="0 0 18 18" fill="none" xmlns="http://www.w3.org/2000/svg">
<path d="M16.6492 9.66199L16.66 9.67366L9 17.3337L1.34 9.67366L1.35084 9.66199C0.461309 8.62495 -0.00346081 7.29006 0.0496622 5.92481C0.102785 4.55957 0.669876 3.26483 1.6373 2.30004C2.60472 1.33525 3.901 0.771694 5.26639 0.722295C6.63177 0.672895 7.96539 1.1413 9 2.03366C10.0346 1.1413 11.3682 0.672895 12.7336 0.722295C14.099 0.771694 15.3953 1.33525 16.3627 2.30004C17.3301 3.26483 17.8972 4.55957 17.9503 5.92481C18.0035 7.29006 17.5387 8.62495 16.6492 9.66199Z" fill="white"/>
</svg>
