<svg width="16" height="16" viewBox="0 0 16 16" fill="none" xmlns="http://www.w3.org/2000/svg">
<path d="M12.7133 10.3568L11.535 9.1785L12.7133 8.00017C13.0229 7.69063 13.2684 7.32316 13.4359 6.91873C13.6034 6.5143 13.6897 6.08083 13.6897 5.64308C13.6897 5.20533 13.6034 4.77187 13.4359 4.36744C13.2684 3.96301 13.0229 3.59554 12.7133 3.286C12.4038 2.97646 12.0363 2.73093 11.6319 2.56341C11.2275 2.39589 10.794 2.30966 10.3562 2.30966C9.91849 2.30966 9.48503 2.39589 9.0806 2.56341C8.67617 2.73093 8.30869 2.97646 7.99916 3.286L6.82082 4.46433L5.64249 3.286L6.82082 2.10767C7.76108 1.1826 9.02879 0.666546 10.3478 0.671917C11.6668 0.677287 12.9303 1.20365 13.863 2.13634C14.7957 3.06904 15.322 4.3325 15.3274 5.65152C15.3328 6.97053 14.8167 8.23824 13.8917 9.1785L12.7133 10.3568ZM10.3558 12.7143L9.17749 13.8927C8.71459 14.3632 8.16312 14.7374 7.55488 14.9937C6.94664 15.25 6.29367 15.3833 5.63364 15.386C4.97361 15.3887 4.31958 15.2607 3.70927 15.0093C3.09897 14.758 2.54446 14.3883 2.07775 13.9216C1.61103 13.4549 1.24134 12.9004 0.989997 12.2901C0.738655 11.6797 0.610635 11.0257 0.613323 10.3657C0.61601 9.70565 0.749352 9.05269 1.00566 8.44445C1.26196 7.83621 1.63616 7.28473 2.10666 6.82183L3.28499 5.6435L4.46332 6.82183L3.28499 8.00017C2.97545 8.3097 2.72992 8.67718 2.5624 9.08161C2.39488 9.48604 2.30865 9.9195 2.30865 10.3573C2.30865 10.795 2.39488 11.2285 2.5624 11.6329C2.72992 12.0373 2.97545 12.4048 3.28499 12.7143C3.59453 13.0239 3.962 13.2694 4.36643 13.4369C4.77086 13.6044 5.20432 13.6907 5.64207 13.6907C6.07982 13.6907 6.51329 13.6044 6.91772 13.4369C7.32215 13.2694 7.68962 13.0239 7.99916 12.7143L9.17749 11.536L10.3558 12.7143ZM10.3558 4.46433L11.535 5.6435L5.64249 11.5352L4.46332 10.3568L10.3558 4.46517V4.46433Z" fill="white"/>
</svg>
