<svg width="20" height="18" viewBox="0 0 20 18" fill="none" xmlns="http://www.w3.org/2000/svg">
<path d="M1.66732 7.50009H4.16732V17.5001H1.66732C1.4463 17.5001 1.23434 17.4123 1.07806 17.256C0.921782 17.0997 0.833984 16.8878 0.833984 16.6668V8.33343C0.833984 8.11241 0.921782 7.90045 1.07806 7.74417C1.23434 7.58789 1.4463 7.50009 1.66732 7.50009ZM6.07815 6.42259L11.4115 1.08926C11.4824 1.01817 11.5765 0.975065 11.6767 0.967869C11.7768 0.960673 11.8762 0.989871 11.9565 1.05009L12.6673 1.58343C12.8647 1.73163 13.0139 1.93497 13.0959 2.16781C13.1779 2.40064 13.1891 2.65255 13.1282 2.89176L12.1673 6.66676H17.5007C17.9427 6.66676 18.3666 6.84235 18.6792 7.15492C18.9917 7.46748 19.1673 7.8914 19.1673 8.33343V10.0868C19.1675 10.3046 19.1251 10.5203 19.0423 10.7218L16.4632 16.9843C16.4002 17.1369 16.2934 17.2675 16.1561 17.3593C16.0189 17.4512 15.8575 17.5002 15.6923 17.5001H6.66732C6.4463 17.5001 6.23434 17.4123 6.07806 17.256C5.92178 17.0997 5.83398 16.8878 5.83398 16.6668V7.01176C5.83403 6.79076 5.92186 6.57884 6.07815 6.42259Z" fill="white"/>
</svg>
