<svg width="140" height="140" viewBox="0 0 140 140" fill="none" xmlns="http://www.w3.org/2000/svg">
<path fill-rule="evenodd" clip-rule="evenodd" d="M30.1879 1.14611C22.3948 2.30789 16.2321 5.42553 10.605 11.0529C4.81762 16.8403 1.64128 23.3017 0.589834 31.4263C0.178389 34.6059 0.178389 106.02 0.589834 109.199C1.64128 117.324 4.81762 123.785 10.605 129.573C16.3925 135.36 22.8538 138.536 30.9784 139.588C34.158 139.999 105.572 139.999 108.751 139.588C116.876 138.536 123.337 135.36 129.125 129.573C134.912 123.785 138.089 117.324 139.14 109.199C139.551 106.02 139.551 34.6059 139.14 31.4263C138.089 23.3017 134.912 16.8403 129.125 11.0529C123.337 5.26547 116.876 2.08912 108.751 1.03768C105.269 0.587102 33.2704 0.686295 30.1879 1.14611ZM111.643 13.437C114.7 14.5018 115.386 14.8456 117.9 16.5762C121.938 19.3546 125.11 23.6672 126.709 28.5505L127.614 31.3151V70.3128C127.614 107.638 127.592 109.38 127.106 110.941C125.265 116.851 122.136 121.21 117.471 124.365C115.479 125.713 113.727 126.526 110.889 127.422L108.863 128.062H69.8649H30.8673L28.1026 127.157C20.4857 124.663 15.1606 119.084 12.6237 110.941C12.1375 109.38 12.1158 107.638 12.1158 70.3128C12.1158 32.9881 12.1375 31.2453 12.6237 29.6845C14.557 23.4783 17.9203 18.9734 22.9693 15.8264C25.0883 14.5059 28.7225 13.0873 30.9809 12.6992C31.6657 12.5815 49.5304 12.503 70.6802 12.5245L109.134 12.5636L111.643 13.437ZM105.737 24.2262C103.8 24.6458 102.693 25.2478 101.392 26.5892C99.6165 28.4184 99.0784 29.8375 99.0844 32.6739C99.089 34.7887 99.1868 35.3037 99.8084 36.4786C101.307 39.3119 103.842 40.9691 106.991 41.1749C109.289 41.3249 110.514 40.9914 112.457 39.6859C117.865 36.0522 117.243 27.761 111.353 24.9581C109.34 24.0001 107.742 23.7919 105.737 24.2262ZM65.4176 35.8168C52.2861 37.6368 41.0971 46.7903 37.0101 59.0564C35.6138 63.247 35.2306 65.6711 35.2306 70.3128C35.2306 74.9577 35.6125 77.3712 37.0156 81.5909C40.2862 91.4267 48.7698 99.8899 58.6621 103.186C62.7978 104.563 65.2382 104.947 69.8649 104.947C74.4917 104.947 76.9321 104.563 81.0677 103.186C90.9601 99.8899 99.4437 91.4267 102.714 81.5909C104.117 77.3712 104.499 74.9577 104.499 70.3128C104.499 64.2218 103.314 59.2497 100.68 54.29C95.6675 44.8523 87.0024 38.3654 76.5231 36.2052C73.9076 35.666 67.9968 35.4592 65.4176 35.8168ZM76.8573 48.2629C79.7559 49.2255 80.5394 49.6024 82.7736 51.1085C87.3324 54.1824 90.4209 58.4385 92.183 64.0742C92.732 65.8304 92.8162 66.6619 92.8162 70.3128C92.8162 74.7987 92.4936 76.4424 90.9109 80.0214C88.895 84.5797 84.121 89.3477 79.548 91.3702C75.9961 92.9409 74.3433 93.2641 69.8649 93.2641C65.3866 93.2641 63.7337 92.9409 60.1818 91.3702C55.6089 89.3477 50.8349 84.5797 48.819 80.0214C47.2362 76.4424 46.9136 74.7987 46.9136 70.3128C46.9136 66.6619 46.9979 65.8304 47.5469 64.0742C48.4717 61.1167 49.2848 59.41 50.8447 57.1536C53.9172 52.7092 58.2186 49.6206 63.4905 48.0735C66.1581 47.2908 66.5728 47.2487 70.6802 47.3444C73.9123 47.4197 74.6477 47.5292 76.8573 48.2629Z" fill="black"/>
</svg>
