<svg width="28" height="28" viewBox="0 0 28 28" fill="none" xmlns="http://www.w3.org/2000/svg">
<g clip-path="url(#clip0)">
<path d="M13.1783 0H14.8194C14.8977 0.0204029 14.9773 0.0357779 15.0575 0.046031C17.362 0.214811 19.5079 0.896508 21.4449 2.14957C24.9191 4.39633 27.0563 7.55639 27.7899 11.6437C27.8805 12.1551 27.9309 12.6666 27.9996 13.178V14.8183C27.9786 14.8968 27.963 14.9767 27.9528 15.0573C27.8832 16.0571 27.7018 17.046 27.4121 18.0054C25.1551 25.5998 17.0369 29.7945 9.50314 27.2547C6.50778 26.2426 3.94395 24.2451 2.23012 21.5882C0.516287 18.9312 -0.246316 15.7718 0.0667852 12.6256C0.334934 9.84333 1.35273 7.34669 3.1304 5.18762C5.35012 2.48421 8.18285 0.8081 11.6403 0.210427C12.1496 0.122019 12.6654 0.0730651 13.1783 0ZM5.91784 13.0984C5.92953 12.9954 5.94341 12.9157 5.94633 12.8353C6.00393 11.3704 6.20732 9.9148 6.5535 8.49016C6.61999 8.21763 6.80777 7.89614 6.72228 7.68645C6.63168 7.4614 6.28389 7.34012 6.04789 7.17499L6.02597 7.15892L4.66915 6.11701C2.98135 8.13872 2.02858 10.4527 1.81962 13.0984H5.91784ZM4.66842 21.883C4.69902 21.8716 4.7286 21.8577 4.75683 21.8413C5.38519 21.3759 6.00844 20.9032 6.6441 20.4487C6.77927 20.3523 6.7537 20.2639 6.72155 20.1492C6.26972 18.5166 6.01173 16.8364 5.95291 15.1435C5.9456 14.9403 5.87984 14.8841 5.67745 14.8855C4.46676 14.8943 3.25535 14.8899 2.04466 14.8907C1.96902 14.8947 1.89366 14.9027 1.81889 14.9148C2.0337 17.5561 2.98281 19.8671 4.66842 21.883ZM21.2381 7.68133C21.2418 7.6996 21.2498 7.74271 21.2615 7.78508C21.7199 9.44415 21.983 11.1511 22.0455 12.8711C22.0521 13.0604 22.1186 13.1174 22.3049 13.1159C23.5251 13.1086 24.7452 13.1159 25.9654 13.1115C26.0268 13.1115 26.0882 13.0998 26.1773 13.0903C25.9654 10.4522 25.0185 8.13166 23.3366 6.1287L21.2381 7.68133ZM22.0776 14.9053C22.0338 15.454 21.9987 15.9786 21.9498 16.5025C21.8298 17.7433 21.6042 18.9716 21.2754 20.174C21.2564 20.2471 21.2673 20.3713 21.3127 20.4049C21.979 20.893 22.6534 21.3693 23.3307 21.8523C24.7343 20.5313 26.3366 16.5938 26.1393 14.9053H22.0776ZM8.39547 8.48432C7.99912 9.9906 7.77291 11.5366 7.72108 13.0933H13.0972V9.62048C11.4768 9.51176 9.88675 9.12753 8.39547 8.48432ZM8.39547 19.4616C9.17216 19.2205 9.924 18.9458 10.6978 18.7602C11.4715 18.5746 12.2862 18.4723 13.0892 18.332V14.9053H7.74812C7.6524 15.5979 8.05353 18.4124 8.39328 19.4616H8.39547ZM14.9026 13.0969H20.2788C20.2274 11.5395 20.0002 9.99288 19.6015 8.48651C18.1114 9.12986 16.5222 9.51339 14.9026 9.62048V13.0969ZM20.2795 14.9155H14.9048V18.3876C16.523 18.4893 18.1117 18.8685 19.6015 19.5084C19.9965 18.0072 20.2231 16.4668 20.2773 14.9155H20.2795ZM14.9034 20.1762V26.0499C16.505 25.7328 18.2571 23.4926 19.0206 21.2152C17.7216 20.626 16.3278 20.2739 14.9048 20.1755L14.9034 20.1762ZM19.0425 6.75779C18.9417 6.51887 18.8533 6.2909 18.7503 6.06878C18.1592 4.79599 17.4504 3.60649 16.3457 2.70122C15.9269 2.34276 15.4353 2.0795 14.9048 1.92965V7.80481C15.8196 7.85596 18.0883 7.28313 19.0425 6.75779ZM8.93616 6.76656C10.2472 7.36646 11.6559 7.72463 13.0943 7.82381V1.89312C10.819 2.79474 9.84289 4.73023 8.93616 6.76656ZM8.92958 21.2386C9.16777 21.7398 9.37674 22.2235 9.62151 22.6882C10.1826 23.7535 10.8636 24.726 11.8485 25.4522C12.2188 25.7399 12.6432 25.9501 13.0965 26.0703V20.174C11.6552 20.278 10.2441 20.6385 8.92958 21.2386ZM19.0345 2.87073L20.6916 5.88904L22.0718 4.84129C21.1659 4.03316 20.1416 3.3686 19.0345 2.87073ZM22.0733 23.1616L20.6923 22.1175C20.121 23.1551 19.5722 24.1531 19.033 25.1337C20.1412 24.6354 21.1665 23.9703 22.0733 23.1616ZM7.30607 5.88758L8.96392 2.86853C7.8572 3.36729 6.83338 4.03259 5.92807 4.84129C6.41468 5.21246 6.87645 5.56244 7.30607 5.88758ZM8.96173 25.13L7.30607 22.1131L5.92587 23.1616C6.83253 23.9671 7.85582 24.6307 8.961 25.13H8.96173Z" fill="white"/>
</g>
<defs>
<clipPath id="clip0">
<rect width="28" height="28" fill="white"/>
</clipPath>
</defs>
</svg>
