<svg width="643" height="372" viewBox="0 0 643 372" fill="none" xmlns="http://www.w3.org/2000/svg">
<path d="M249.453 308.296C237.948 314.938 225.951 319.515 213.464 322.026C201.116 324.456 188.979 324.82 177.053 323.119C165.126 321.418 154.252 317.733 144.43 312.063L142.326 310.848L169.686 295.052L171.581 296.146C178.596 300.196 186.945 302.342 196.626 302.585C206.308 302.666 215.779 300.034 225.039 294.688C234.3 289.342 238.93 283.834 238.93 278.163C238.93 272.331 234.931 267.107 226.933 262.49L224.829 261.275C216.971 256.738 208.202 254.592 198.52 254.835C188.979 254.997 180.49 257.224 173.054 261.518C168.985 263.867 166.179 266.135 164.635 268.322C163.092 270.509 162.32 272.574 162.32 274.518C162.32 276.462 162.601 278.244 163.162 279.864L130.54 298.697L48.0365 251.068L148.64 192.99L173.054 207.084L99.3904 249.61L135.38 270.387L139.169 268.2C138.748 266.337 138.888 264.231 139.59 261.882C140.291 259.533 141.975 256.941 144.641 254.106C147.307 251.271 151.235 248.355 156.427 245.358C165.126 240.336 174.878 236.812 185.682 234.787C196.486 232.762 207.57 232.6 218.936 234.301C230.301 235.84 241.175 239.607 251.558 245.601L254.084 247.059C264.467 253.053 271.202 259.533 274.288 266.499C277.516 273.384 277.095 280.431 273.026 287.641C268.816 294.769 260.959 301.654 249.453 308.296ZM380.071 232.89C362.673 242.935 343.941 248.24 323.876 248.807C303.672 249.293 283.818 243.907 264.314 232.647L227.272 211.263C208.33 200.328 199.21 188.987 199.911 177.242C200.473 165.416 209.453 154.481 226.851 144.437C244.39 134.311 263.332 129.127 283.677 128.884C304.022 128.479 323.666 133.744 342.608 144.68L379.65 166.064C399.153 177.323 408.484 188.785 407.642 200.449C406.8 211.951 397.61 222.765 380.071 232.89ZM356.078 219.039C366.601 212.964 371.442 206.848 370.6 200.692C369.899 194.455 364.216 188.258 353.552 182.102L314.405 159.503C303.601 153.266 292.657 150.188 281.573 150.269C270.488 150.188 260.245 152.861 250.844 158.288C241.163 163.877 236.463 169.912 236.743 176.392C237.164 182.791 242.566 188.987 252.949 194.982L292.096 217.581C303.181 223.98 314.055 227.342 324.718 227.666C335.382 227.828 345.835 224.952 356.078 219.039ZM468.559 144.14L436.568 125.672L404.998 143.897L381.005 130.046L412.575 111.821L380.584 93.3523L405.419 79.015L437.41 97.4834L468.98 79.258L492.973 93.1093L461.403 111.335L493.394 129.803L468.559 144.14Z" fill="#5A5A5A" fill-opacity="0.33"/>
<path d="M213.464 322.026L214.972 324.58L214.986 324.577L215.001 324.574L213.464 322.026ZM177.053 323.119L175.932 325.739L177.053 323.119ZM142.326 310.848L139.02 308.939L135.715 310.848L139.02 312.756L142.326 310.848ZM169.686 295.052L172.992 293.144L169.686 291.236L166.381 293.144L169.686 295.052ZM196.626 302.585L196.423 305.281L196.491 305.283L196.558 305.284L196.626 302.585ZM238.93 278.163H234.256H238.93ZM198.52 254.835L198.658 257.532L198.691 257.532L198.723 257.531L198.52 254.835ZM164.635 268.322L160.306 267.304L160.306 267.304L164.635 268.322ZM162.32 274.518H166.994L166.994 274.518L162.32 274.518ZM163.162 279.864L166.467 281.773L168.236 280.751L167.746 279.335L163.162 279.864ZM130.54 298.697L127.234 300.605L130.54 302.514L133.845 300.605L130.54 298.697ZM48.0365 251.068L44.7312 249.16L41.4259 251.068L44.7312 252.976L48.0365 251.068ZM148.64 192.99L151.945 191.082L148.64 189.174L145.334 191.082L148.64 192.99ZM173.054 207.084L176.359 208.993L179.664 207.084L176.359 205.176L173.054 207.084ZM99.3904 249.61L96.0851 247.702L92.7798 249.61L96.0851 251.518L99.3904 249.61ZM135.38 270.387L132.075 272.295L135.38 274.204L138.686 272.295L135.38 270.387ZM139.169 268.2L142.474 270.108L144.102 269.169L143.804 267.851L139.169 268.2ZM139.59 261.882L144.196 262.341L144.196 262.341L139.59 261.882ZM144.641 254.106L140.533 252.818L140.533 252.818L144.641 254.106ZM185.682 234.787L184.238 232.22L185.682 234.787ZM218.936 234.301L217.763 236.913L217.815 236.921L217.868 236.928L218.936 234.301ZM274.288 266.499L269.76 267.168L269.768 267.186L269.776 267.204L274.288 266.499ZM273.026 287.641L277.45 288.511L277.46 288.494L277.47 288.477L273.026 287.641ZM246.148 306.388C235.028 312.807 223.613 317.127 211.926 319.477L215.001 324.574C228.29 321.902 240.867 317.069 252.759 310.204L246.148 306.388ZM211.955 319.472C200.4 321.746 189.176 322.069 178.174 320.5L175.932 325.739C188.782 327.572 201.832 327.166 214.972 324.58L211.955 319.472ZM178.174 320.5C167.178 318.931 157.036 315.523 147.736 310.154L141.125 313.971C151.469 319.942 163.074 323.905 175.932 325.739L178.174 320.5ZM147.736 310.154L145.631 308.939L139.02 312.756L141.125 313.971L147.736 310.154ZM145.631 312.756L172.992 296.96L166.381 293.144L139.02 308.939L145.631 312.756ZM166.381 296.96L168.275 298.054L174.886 294.238L172.992 293.144L166.381 296.96ZM168.275 298.054C176.096 302.569 185.543 305.008 196.423 305.281L196.829 299.889C188.347 299.677 181.096 297.823 174.886 294.238L168.275 298.054ZM196.558 305.284C207.899 305.379 218.516 302.27 228.345 296.596L221.734 292.78C213.041 297.798 204.717 299.954 196.694 299.887L196.558 305.284ZM228.345 296.596C238.18 290.918 243.604 284.763 243.604 278.163H234.256C234.256 282.904 230.42 287.765 221.734 292.78L228.345 296.596ZM243.604 278.163C243.604 271.527 238.998 265.638 230.239 260.581L223.628 264.398C230.864 268.575 234.256 273.135 234.256 278.163H243.604ZM230.239 260.581L228.134 259.366L221.523 263.183L223.628 264.398L230.239 260.581ZM228.134 259.366C219.5 254.382 209.505 251.858 198.317 252.139L198.723 257.531C206.898 257.326 214.443 259.095 221.523 263.183L228.134 259.366ZM198.383 252.138C187.524 252.322 177.935 254.884 169.749 259.609L176.359 263.426C183.046 259.565 190.434 257.672 198.658 257.532L198.383 252.138ZM169.749 259.609C165.405 262.117 162.16 264.677 160.306 267.304L168.964 269.34C170.198 267.592 172.564 265.616 176.359 263.426L169.749 259.609ZM160.306 267.304C158.582 269.746 157.646 272.159 157.646 274.518L166.994 274.518C166.994 272.99 167.601 271.271 168.964 269.34L160.306 267.304ZM157.646 274.518C157.646 276.61 157.947 278.572 158.578 280.394L167.746 279.335C167.254 277.917 166.994 276.315 166.994 274.518L157.646 274.518ZM159.857 277.956L127.234 296.789L133.845 300.605L166.467 281.773L159.857 277.956ZM133.845 296.789L51.3418 249.16L44.7312 252.976L127.234 300.605L133.845 296.789ZM51.3418 252.976L151.945 194.898L145.334 191.082L44.7312 249.16L51.3418 252.976ZM145.334 194.898L169.749 208.993L176.359 205.176L151.945 191.082L145.334 194.898ZM169.749 205.176L96.0851 247.702L102.696 251.518L176.359 208.993L169.749 205.176ZM96.0851 251.518L132.075 272.295L138.686 268.479L102.696 247.702L96.0851 251.518ZM138.686 272.295L142.474 270.108L135.863 266.292L132.075 268.479L138.686 272.295ZM143.804 267.851C143.457 266.317 143.554 264.491 144.196 262.341L134.983 261.424C134.222 263.971 134.038 266.357 134.534 268.549L143.804 267.851ZM144.196 262.341C144.786 260.364 146.246 258.055 148.749 255.393L140.533 252.818C137.704 255.827 135.796 258.702 134.983 261.424L144.196 262.341ZM148.749 255.393C151.145 252.845 154.765 250.133 159.732 247.266L153.122 243.45C147.706 246.576 143.468 249.697 140.533 252.818L148.749 255.393ZM159.732 247.266C167.954 242.519 177.081 239.236 187.125 237.354L184.238 232.22C172.675 234.388 162.299 238.152 153.122 243.45L159.732 247.266ZM187.125 237.354C197.053 235.493 207.229 235.337 217.763 236.913L220.109 231.689C207.912 229.863 195.919 230.031 184.238 232.22L187.125 237.354ZM217.868 236.928C228.193 238.326 238.328 241.779 248.253 247.509L254.863 243.693C244.022 237.434 232.409 233.354 220.003 231.674L217.868 236.928ZM248.253 247.509L250.778 248.967L257.389 245.151L254.863 243.693L248.253 247.509ZM250.778 248.967C260.675 254.681 266.915 260.749 269.76 267.168L278.817 265.83C275.488 258.317 268.258 251.425 257.389 245.151L250.778 248.967ZM269.776 267.204C272.751 273.55 272.387 280.061 268.581 286.805L277.47 288.477C281.802 280.802 282.28 273.218 278.801 265.794L269.776 267.204ZM268.601 286.77C264.673 293.423 257.27 299.967 246.148 306.388L252.759 310.204C264.648 303.341 272.96 296.115 277.45 288.511L268.601 286.77ZM323.876 248.807L324.071 251.503L324.088 251.503L324.105 251.503L323.876 248.807ZM199.911 177.242L204.583 177.335L204.584 177.326L204.584 177.316L199.911 177.242ZM283.677 128.884L283.774 131.582L283.806 131.582L283.838 131.581L283.677 128.884ZM407.642 200.449L412.313 200.563L412.313 200.562L407.642 200.449ZM370.6 200.692L365.936 200.867L365.938 200.886L365.94 200.905L370.6 200.692ZM281.573 150.269L281.513 152.967L281.573 152.967L281.632 152.967L281.573 150.269ZM236.743 176.392L232.07 176.459L232.071 176.477L232.072 176.494L236.743 176.392ZM324.718 227.666L324.473 230.361L324.534 230.362L324.595 230.363L324.718 227.666ZM376.766 230.982C359.995 240.664 342.306 245.585 323.648 246.112L324.105 251.503C345.576 250.896 365.35 245.205 383.376 234.799L376.766 230.982ZM323.682 246.111C305.206 246.555 286.548 241.666 267.62 230.739L261.009 234.556C281.087 246.147 302.137 252.031 324.071 251.503L323.682 246.111ZM267.62 230.739L230.577 209.355L223.967 213.171L261.009 234.556L267.62 230.739ZM230.577 209.355C212.248 198.773 203.939 188.117 204.583 177.335L195.24 177.149C194.481 189.858 204.412 201.882 223.967 213.171L230.577 209.355ZM204.584 177.316C205.106 166.314 213.423 156.005 230.156 146.345L223.546 142.528C205.482 152.957 195.839 164.518 195.239 177.168L204.584 177.316ZM230.156 146.345C247.04 136.598 264.888 131.808 283.774 131.582L283.581 126.186C261.776 126.447 241.74 132.025 223.546 142.528L230.156 146.345ZM283.838 131.581C302.514 131.209 320.973 136.006 339.303 146.588L345.913 142.771C326.359 131.483 305.531 125.749 283.516 126.187L283.838 131.581ZM339.303 146.588L376.345 167.972L382.955 164.156L345.913 142.771L339.303 146.588ZM376.345 167.972C395.273 178.899 403.742 189.671 402.972 200.337L412.313 200.562C413.227 187.899 403.034 175.747 382.955 164.156L376.345 167.972ZM402.972 200.335C402.191 211.008 393.687 221.213 376.766 230.982L383.376 234.799C401.533 224.317 411.41 212.895 412.313 200.563L402.972 200.335ZM359.383 220.947C370.479 214.542 376.247 207.696 375.26 200.48L365.94 200.905C366.637 206.001 362.724 211.386 352.773 217.131L359.383 220.947ZM375.265 200.517C374.465 193.409 368.009 186.632 356.858 180.194L350.247 184.01C360.423 189.885 365.332 195.501 365.936 200.867L375.265 200.517ZM356.858 180.194L317.711 157.595L311.1 161.411L350.247 184.01L356.858 180.194ZM317.711 157.595C306.361 151.043 294.275 147.477 281.513 147.57L281.632 152.967C291.04 152.898 300.842 155.489 311.1 161.411L317.711 157.595ZM281.632 147.57C269.04 147.478 257.64 150.548 247.539 156.38L254.15 160.196C262.85 155.173 271.936 152.897 281.513 152.967L281.632 147.57ZM247.539 156.38C237.166 162.368 231.751 169.083 232.07 176.459L241.416 176.324C241.174 170.741 245.16 165.386 254.15 160.196L247.539 156.38ZM232.072 176.494C232.551 183.769 238.704 190.574 249.644 196.89L256.254 193.073C246.428 187.401 241.777 181.813 241.414 176.289L232.072 176.494ZM249.644 196.89L288.791 219.489L295.401 215.673L256.254 193.073L249.644 196.89ZM288.791 219.489C300.317 226.143 312.218 229.988 324.473 230.361L324.964 224.971C315.892 224.695 306.044 221.817 295.401 215.673L288.791 219.489ZM324.595 230.363C336.949 230.551 348.57 227.19 359.383 220.947L352.773 217.131C343.101 222.715 333.815 225.105 324.841 224.968L324.595 230.363ZM468.559 144.14L465.254 146.049L468.559 147.957L471.865 146.049L468.559 144.14ZM436.568 125.672L439.874 123.764L436.568 121.856L433.263 123.764L436.568 125.672ZM404.998 143.897L401.693 145.806L404.998 147.714L408.304 145.806L404.998 143.897ZM381.005 130.046L377.7 128.138L374.394 130.046L377.7 131.954L381.005 130.046ZM412.575 111.821L415.88 113.729L419.186 111.821L415.88 109.913L412.575 111.821ZM380.584 93.3523L377.279 91.4442L373.973 93.3523L377.279 95.2605L380.584 93.3523ZM405.419 79.015L408.725 77.1069L405.419 75.1987L402.114 77.1069L405.419 79.015ZM437.41 97.4834L434.105 99.3916L437.41 101.3L440.715 99.3916L437.41 97.4834ZM468.98 79.258L472.286 77.3499L468.98 75.4417L465.675 77.3499L468.98 79.258ZM492.973 93.1093L496.279 95.0175L499.584 93.1093L496.279 91.2011L492.973 93.1093ZM461.403 111.335L458.098 109.427L454.793 111.335L458.098 113.243L461.403 111.335ZM493.394 129.803L496.7 131.711L500.005 129.803L496.7 127.895L493.394 129.803ZM471.865 142.232L439.874 123.764L433.263 127.58L465.254 146.049L471.865 142.232ZM433.263 123.764L401.693 141.989L408.304 145.806L439.874 127.58L433.263 123.764ZM408.304 141.989L384.31 128.138L377.7 131.954L401.693 145.806L408.304 141.989ZM384.31 131.954L415.88 113.729L409.27 109.913L377.7 128.138L384.31 131.954ZM415.88 109.913L383.889 91.4442L377.279 95.2605L409.27 113.729L415.88 109.913ZM383.889 95.2605L408.725 80.9232L402.114 77.1069L377.279 91.4442L383.889 95.2605ZM402.114 80.9232L434.105 99.3916L440.715 95.5752L408.725 77.1069L402.114 80.9232ZM440.715 99.3916L472.286 81.1662L465.675 77.3499L434.105 95.5752L440.715 99.3916ZM465.675 81.1662L489.668 95.0175L496.279 91.2011L472.286 77.3499L465.675 81.1662ZM489.668 91.2011L458.098 109.427L464.709 113.243L496.279 95.0175L489.668 91.2011ZM458.098 113.243L490.089 131.711L496.7 127.895L464.709 109.427L458.098 113.243ZM490.089 127.895L465.254 142.232L471.865 146.049L496.7 131.711L490.089 127.895Z" fill="url(#paint0_linear_349_13321)"/>
<circle cx="196.242" cy="276.242" r="7.24167" fill="white"/>
<rect x="195.336" y="282.578" width="1.81042" height="57.0282" fill="url(#paint1_linear_349_13321)"/>
<circle cx="138.242" cy="158.242" r="7.24167" fill="white"/>
<rect x="137.336" y="164.578" width="1.81042" height="57.0282" fill="url(#paint2_linear_349_13321)"/>
<circle cx="350.732" cy="7.24167" r="7.24167" fill="white"/>
<rect x="349.852" y="13.9943" width="1.27219" height="157.751" fill="url(#paint3_linear_349_13321)"/>
<circle cx="282.242" cy="129.386" r="5.3864" fill="white"/>
<rect x="281.588" y="134.409" width="0.94626" height="117.336" fill="url(#paint4_linear_349_13321)"/>
<circle cx="483.039" cy="54.3128" r="7.24167" fill="white"/>
<rect x="482.158" y="61.065" width="1.27219" height="157.751" fill="url(#paint5_linear_349_13321)"/>
<defs>
<linearGradient id="paint0_linear_349_13321" x1="84.8483" y1="308.892" x2="318.313" y2="-90.486" gradientUnits="userSpaceOnUse">
<stop stop-color="#54C4FC"/>
<stop offset="1" stop-color="#2479DF"/>
</linearGradient>
<linearGradient id="paint1_linear_349_13321" x1="196.241" y1="282.578" x2="196.241" y2="339.606" gradientUnits="userSpaceOnUse">
<stop stop-color="white"/>
<stop offset="1" stop-color="#D9D9D9" stop-opacity="0"/>
</linearGradient>
<linearGradient id="paint2_linear_349_13321" x1="138.241" y1="164.578" x2="138.241" y2="221.606" gradientUnits="userSpaceOnUse">
<stop stop-color="white"/>
<stop offset="1" stop-color="#D9D9D9" stop-opacity="0"/>
</linearGradient>
<linearGradient id="paint3_linear_349_13321" x1="350.488" y1="13.9943" x2="350.488" y2="171.745" gradientUnits="userSpaceOnUse">
<stop stop-color="white"/>
<stop offset="1" stop-color="#D9D9D9" stop-opacity="0"/>
</linearGradient>
<linearGradient id="paint4_linear_349_13321" x1="282.061" y1="134.409" x2="282.061" y2="251.745" gradientUnits="userSpaceOnUse">
<stop stop-color="white"/>
<stop offset="1" stop-color="#D9D9D9" stop-opacity="0"/>
</linearGradient>
<linearGradient id="paint5_linear_349_13321" x1="482.794" y1="61.065" x2="482.794" y2="218.816" gradientUnits="userSpaceOnUse">
<stop stop-color="white"/>
<stop offset="1" stop-color="#D9D9D9" stop-opacity="0"/>
</linearGradient>
</defs>
</svg>
