<svg width="58" height="66" viewBox="0 0 58 66" fill="none" xmlns="http://www.w3.org/2000/svg">
<path d="M20.9032 62.2708L1.1891 41.7195L6.49144 37.0319L6.49208 37.0314C8.04169 35.6567 10.318 35.3826 12.1397 36.3559L12.1407 36.3564L18.7682 39.8764L19.5028 40.2665V39.4348V13.1723C19.5028 9.65348 22.3589 6.79734 25.8778 6.79734C26.3068 6.79734 26.7436 6.84787 27.1934 6.92723L27.7407 7.02382L27.7791 6.46938C28.0087 3.1526 30.7644 0.527344 34.1278 0.527344C36.3202 0.527344 38.2312 1.62204 39.3797 3.30651L39.6085 3.6422L39.984 3.48685C40.7159 3.18396 41.5304 3.02984 42.3778 3.02984C45.8966 3.02984 48.7528 5.88599 48.7528 9.40484V10.1748V10.7773L49.3449 10.6663C49.7625 10.588 50.1984 10.5373 50.6278 10.5373C54.1466 10.5373 57.0028 13.3935 57.0028 16.9123V54.9998C57.0028 60.8012 52.3041 65.4998 46.5028 65.4998H28.4903C25.656 65.4998 22.8712 64.3176 20.9032 62.2708ZM8.05696 41.6449L7.66582 41.99L8.0272 42.3662L24.1422 59.1412L24.1447 59.1438C25.2787 60.3076 26.8358 60.9998 28.4628 60.9998H46.5028C49.8039 60.9998 52.5028 58.301 52.5028 54.9998V16.9123C52.5028 15.8662 51.6739 15.0373 50.6278 15.0373C49.5816 15.0373 48.7528 15.8662 48.7528 16.9123V32.4998H44.2528V9.40484C44.2528 8.3587 43.4239 7.52984 42.3778 7.52984C41.3316 7.52984 40.5028 8.3587 40.5028 9.40484V32.4998H36.0028V6.90234C36.0028 5.8562 35.1739 5.02734 34.1278 5.02734C33.0816 5.02734 32.2528 5.8562 32.2528 6.90234V32.4998H27.7528V13.1723C27.7528 12.1262 26.9239 11.2973 25.8778 11.2973C24.8252 11.2973 24.0028 12.1602 24.0028 13.1723V47.7347L10.0241 40.3404L9.71859 40.1788L9.45946 40.4074L8.05696 41.6449Z" stroke="#DFDFDF"/>
</svg>
