<svg width="10" height="10" viewBox="0 0 10 10" fill="none" xmlns="http://www.w3.org/2000/svg">
<path d="M3.66641 3.05857L2.99974 3.72524L4.33309 5.05859L2.99974 6.39194L3.66641 7.05862L4.99976 5.72527L6.33311 7.05862L6.99979 6.39194L5.66644 5.05859L6.99979 3.72524L6.33311 3.05857L4.99976 4.39192L3.66641 3.05857ZM1.66638 1.72522C-0.173639 3.56524 -0.173639 6.55195 1.66638 8.39197C3.50641 10.232 6.49311 10.232 8.33314 8.39197C10.1732 6.55195 10.1732 3.56524 8.33314 1.72522C6.49311 -0.114807 3.50641 -0.114807 1.66638 1.72522ZM7.66646 7.72529C6.19644 9.19531 3.80308 9.19531 2.33306 7.7253C0.863041 6.25528 0.863041 3.86191 2.33306 2.39189C3.80308 0.921873 6.19644 0.921874 7.66646 2.39189C9.13648 3.86191 9.13648 6.25528 7.66646 7.72529Z" fill="white"/>
</svg>
