<svg width="62" height="62" viewBox="0 0 62 62" fill="none" xmlns="http://www.w3.org/2000/svg">
<path d="M46.4999 20.6667H43.9166V15.5C43.9166 8.37 38.1299 2.58333 30.9999 2.58333C23.8699 2.58333 18.0833 8.37 18.0833 15.5V20.6667H15.4999C12.6583 20.6667 10.3333 22.9917 10.3333 25.8333V51.6667C10.3333 54.5083 12.6583 56.8333 15.4999 56.8333H46.4999C49.3416 56.8333 51.6666 54.5083 51.6666 51.6667V25.8333C51.6666 22.9917 49.3416 20.6667 46.4999 20.6667ZM30.9999 43.9167C28.1582 43.9167 25.8333 41.5917 25.8333 38.75C25.8333 35.9083 28.1582 33.5833 30.9999 33.5833C33.8416 33.5833 36.1666 35.9083 36.1666 38.75C36.1666 41.5917 33.8416 43.9167 30.9999 43.9167ZM39.0082 20.6667H22.9916V15.5C22.9916 11.0825 26.5824 7.49166 30.9999 7.49166C35.4174 7.49166 39.0082 11.0825 39.0082 15.5V20.6667Z" fill="white"/>
</svg>