<svg width="35" height="28" viewBox="0 0 35 28" fill="none" xmlns="http://www.w3.org/2000/svg">
<path d="M32.6552 0.466293H35.3997V-2.27819H32.6552V0.466293ZM32.6552 6.23141V8.97589H35.3997V6.23141H32.6552ZM25.4488 12.8443H22.7043V15.5888H25.4488V12.8443ZM32.4856 14.8791L30.6241 16.8957L30.643 16.9132L30.6623 16.9303L32.4856 14.8791ZM32.4856 25.5615L30.621 23.5477L30.602 23.5653L30.5834 23.5832L32.4856 25.5615ZM21.2097 25.5615L19.2691 27.5021L19.2881 27.5212L19.3075 27.5398L21.2097 25.5615ZM14.0033 0.466293H16.7478V-2.27819H14.0033V0.466293ZM14.0033 6.23141V8.97589H16.7478V6.23141H14.0033ZM6.79693 12.8443H4.05245V15.5888H6.79693V12.8443ZM13.8338 14.8791L11.9722 16.8957L11.9912 16.9132L12.0104 16.9303L13.8338 14.8791ZM13.8338 25.5615L11.9691 23.5477L11.9502 23.5653L11.9315 23.5832L13.8338 25.5615ZM2.55788 25.5615L0.617234 27.5021L0.636258 27.5212L0.655652 27.5398L2.55788 25.5615ZM29.9107 0.466293V6.23141H35.3997V0.466293H29.9107ZM32.6552 3.48692H29.3487V8.97589H32.6552V3.48692ZM29.3487 3.48692C27.6257 3.48692 25.8293 3.91954 24.4831 5.26575C23.1369 6.61196 22.7043 8.40831 22.7043 10.1313H28.1933C28.1933 9.70187 28.2479 9.43781 28.2962 9.293C28.3194 9.22334 28.34 9.18447 28.3506 9.16685C28.356 9.15779 28.3598 9.15264 28.3616 9.15032C28.3634 9.14805 28.3643 9.14719 28.3644 9.14704C28.3646 9.14688 28.3654 9.14602 28.3677 9.14425C28.37 9.14245 28.3752 9.13865 28.3842 9.13321C28.4018 9.12264 28.4407 9.10202 28.5104 9.0788C28.6552 9.03053 28.9192 8.97589 29.3487 8.97589V3.48692ZM22.7043 10.1313V12.8443H28.1933V10.1313H22.7043ZM25.4488 15.5888H26.8901V10.0998H25.4488V15.5888ZM26.8901 15.5888C28.5579 15.5888 29.7285 16.069 30.6241 16.8957L34.3471 12.8624C32.3036 10.9761 29.7439 10.0998 26.8901 10.0998V15.5888ZM30.6623 16.9303C31.5864 17.7518 32.0302 18.7217 32.0302 20.0507H37.5192C37.5192 17.1972 36.4369 14.7194 34.3089 12.8278L30.6623 16.9303ZM32.0302 20.0507C32.0302 21.6213 31.5338 22.7025 30.621 23.5477L34.3502 27.5753C36.4895 25.5945 37.5192 23.0018 37.5192 20.0507H32.0302ZM30.5834 23.5832C29.6827 24.4492 28.5258 24.9365 26.8901 24.9365V30.4255C29.7759 30.4255 32.3494 29.4999 34.3878 27.5398L30.5834 23.5832ZM26.8901 24.9365C25.1771 24.9365 23.9993 24.4364 23.1119 23.5832L19.3075 27.5398C21.3592 29.5126 23.9683 30.4255 26.8901 30.4255V24.9365ZM23.1504 23.6209C22.2825 22.753 21.7499 21.5472 21.7499 19.7116H16.2609C16.2609 22.7368 17.1978 25.4309 19.2691 27.5021L23.1504 23.6209ZM21.7499 19.7116V9.96177H16.2609V19.7116H21.7499ZM21.7499 9.96177C21.7499 7.21966 22.4336 5.66717 23.3199 4.78081C24.2063 3.89445 25.7588 3.21078 28.5009 3.21078V-2.27819C24.9127 -2.27819 21.7174 -1.37928 19.4386 0.899519C17.1598 3.17832 16.2609 6.37357 16.2609 9.96177H21.7499ZM28.5009 3.21078H32.6552V-2.27819H28.5009V3.21078ZM11.2588 0.466293V6.23141H16.7478V0.466293H11.2588ZM14.0033 3.48692H10.6969V8.97589H14.0033V3.48692ZM10.6969 3.48692C8.97384 3.48692 7.17748 3.91954 5.83127 5.26575C4.48506 6.61196 4.05245 8.40831 4.05245 10.1313H9.54142C9.54142 9.70187 9.59606 9.43781 9.64433 9.293C9.66755 9.22334 9.68816 9.18447 9.69874 9.16685C9.70417 9.15779 9.70797 9.15264 9.70977 9.15032C9.71154 9.14805 9.71241 9.14719 9.71256 9.14704C9.71272 9.14688 9.71357 9.14602 9.71585 9.14425C9.71816 9.14245 9.72331 9.13865 9.73237 9.13321C9.75 9.12264 9.78887 9.10202 9.85853 9.0788C10.0033 9.03053 10.2674 8.97589 10.6969 8.97589V3.48692ZM4.05245 10.1313V12.8443H9.54142V10.1313H4.05245ZM6.79693 15.5888H8.23821V10.0998H6.79693V15.5888ZM8.23821 15.5888C9.90603 15.5888 11.0767 16.069 11.9722 16.8957L15.6953 12.8624C13.6518 10.9761 11.0921 10.0998 8.23821 10.0998V15.5888ZM12.0104 16.9303C12.9346 17.7518 13.3784 18.7217 13.3784 20.0507H18.8673C18.8673 17.1972 17.7851 14.7194 15.6571 12.8278L12.0104 16.9303ZM13.3784 20.0507C13.3784 21.6213 12.882 22.7025 11.9691 23.5477L15.6984 27.5753C17.8377 25.5945 18.8673 23.0018 18.8673 20.0507H13.3784ZM11.9315 23.5832C11.0309 24.4492 9.87399 24.9365 8.23821 24.9365V30.4255C11.1241 30.4255 13.6976 29.4999 15.736 27.5398L11.9315 23.5832ZM8.23821 24.9365C6.52525 24.9365 5.34748 24.4364 4.46011 23.5832L0.655652 27.5398C2.70735 29.5126 5.31648 30.4255 8.23821 30.4255V24.9365ZM4.49852 23.6209C3.6307 22.753 3.09806 21.5472 3.09806 19.7116H-2.39092C-2.39092 22.7368 -1.45402 25.4309 0.617234 27.5021L4.49852 23.6209ZM3.09806 19.7116V9.96177H-2.39092V19.7116H3.09806ZM3.09806 9.96177C3.09806 7.21966 3.78172 5.66717 4.66809 4.78081C5.55445 3.89445 7.10694 3.21078 9.84905 3.21078V-2.27819C6.26084 -2.27819 3.0656 -1.37928 0.786797 0.899519C-1.492 3.17832 -2.39092 6.37357 -2.39092 9.96177H3.09806ZM9.84905 3.21078H14.0033V-2.27819H9.84905V3.21078Z" fill="url(#paint0_linear_67_915)"/>
<defs>
<linearGradient id="paint0_linear_67_915" x1="38.3149" y1="-22" x2="38.3149" y2="46.6121" gradientUnits="userSpaceOnUse">
<stop stop-color="#54C4FC"/>
<stop offset="1" stop-color="#2479DF"/>
</linearGradient>
</defs>
</svg>
