<svg width="65" height="65" viewBox="0 0 65 65" fill="none" xmlns="http://www.w3.org/2000/svg">
<path d="M50.375 26.5H50.875V26V22.75V22.25H50.375H47.125H46.625V22.75V26V26.5H47.125H50.375ZM50.375 20H50.875V19.5V6.5V6H50.375H47.125H46.625V6.5V19.5V20H47.125H50.375ZM12.5 13.5V25.5H0.5V13.5H12.5ZM32 52.5V64.5H20V52.5H32ZM12.5 52.5V64.5H0.5V52.5H12.5ZM12.5 33V45H0.5V33H12.5ZM32 33V45H20V33H32ZM51.5 52.5V64.5H39.5V52.5H51.5ZM33 16.25C33 7.55614 40.0561 0.5 48.75 0.5C57.4439 0.5 64.5 7.55614 64.5 16.25C64.5 24.9439 57.4439 32 48.75 32C40.0561 32 33 24.9439 33 16.25ZM51.5 39.345V45H39.5V37.5716C42.3399 38.823 45.4756 39.5 48.75 39.5C49.6791 39.5 50.59 39.4549 51.5 39.345ZM27.4284 25.5H20V13.5H25.655C25.5451 14.41 25.5 15.3209 25.5 16.25C25.5 19.5244 26.177 22.6601 27.4284 25.5Z" stroke="#DFDFDF"/>
</svg>
