<?xml version="1.0" encoding="utf-8"?>
<!-- Generator: Adobe Illustrator 23.0.5, SVG Export Plug-In . SVG Version: 6.00 Build 0)  -->
<svg version="1.1" id="Layer_1" xmlns="http://www.w3.org/2000/svg" xmlns:xlink="http://www.w3.org/1999/xlink" x="0px" y="0px"
	 viewBox="0 0 48 48" style="enable-background:new 0 0 48 48;" xml:space="preserve">
<path d="M13.6,22.5l10-18l10,18H13.6z M14.1,42c-2.2,0-4.1-0.8-5.7-2.3c-1.6-1.6-2.3-3.5-2.3-5.7c0-2.2,0.8-4.1,2.3-5.7
	c1.6-1.6,3.4-2.3,5.7-2.3s4.1,0.8,5.7,2.4c1.6,1.6,2.4,3.5,2.4,5.6s-0.8,4.1-2.4,5.7C18.1,41.2,16.3,42,14.1,42z M14.1,39
	c1.4,0,2.6-0.5,3.6-1.5s1.5-2.2,1.5-3.5s-0.5-2.6-1.5-3.5c-1-1-2.2-1.5-3.6-1.5s-2.6,0.5-3.6,1.5c-1,1-1.4,2.2-1.4,3.5
	s0.5,2.6,1.4,3.5S12.7,39,14.1,39z M18.7,19h9.8l-4.9-8.8L18.7,19z M26,42V26h16v16H26z M29,39h10V29H29V39z"/>
</svg>
