<svg width="80" height="84" viewBox="0 0 80 84" fill="none" xmlns="http://www.w3.org/2000/svg">
<path d="M38.1383 83.8929C30.5253 83.8929 23.4223 81.2964 17.7763 76.3228C10.3819 69.8499 6.12006 59.8296 6.15648 48.8219C6.15648 26.8431 22.6938 6.6197 42.9829 3.76721L43.0193 4.0232L42.9829 3.76721C52.3808 2.45068 61.3051 5.0106 68.1531 11.0081C75.5475 17.4811 79.8093 27.538 79.7729 38.5091C79.7365 60.4879 63.1992 80.7113 42.9101 83.5638C41.3073 83.7832 39.7046 83.8929 38.1383 83.8929ZM47.7911 3.95006C46.2248 3.95006 44.6585 4.05977 43.0558 4.2792C23.0216 7.09512 6.66644 27.0991 6.63002 48.8219C6.59359 59.6833 10.7826 69.5573 18.0677 75.9206C24.8065 81.8084 33.5851 84.3318 42.8372 83.0152C62.8714 80.1993 79.2265 60.1953 79.263 38.4725C79.2994 27.6111 75.1104 17.7371 67.8253 11.3739C62.2521 6.50999 55.2584 3.95006 47.7911 3.95006Z" fill="#DFDFDF"/>
<path d="M23.2396 80.1623C23.2032 80.1623 23.2032 80.1623 23.2396 80.1623L17.1201 76.7978C6.37451 70.9465 0 59.2074 0 45.457C0 44.7987 0.0364257 44.1039 0.0364257 43.409C0.0364257 43.2628 0.0364257 43.153 0.0728515 43.0433L0.109277 42.6045C0.145703 42.2022 0.145703 41.7999 0.182129 41.3977C0.182129 41.2148 0.218554 41.0685 0.25498 40.8857L0.327832 40.3371C0.364257 40.008 0.400683 39.6789 0.437109 39.3863C0.473535 39.2034 0.50996 39.0206 0.50996 38.8377L0.582812 38.2892C0.619238 37.9966 0.655663 37.7041 0.728515 37.4115C0.764941 37.2286 0.801366 37.0458 0.837792 36.8629L0.947069 36.2778C0.983495 36.0218 1.05635 35.7293 1.1292 35.4733C1.16562 35.2538 1.23848 35.071 1.2749 34.8881L1.45703 34.2664C1.52988 34.0105 1.60273 33.7179 1.67558 33.4619C1.74844 33.2425 1.78486 33.0596 1.85771 32.8768L2.00342 32.3648C2.07627 32.1088 2.14912 31.8162 2.2584 31.5602C2.33125 31.3408 2.4041 31.158 2.47695 30.9385L2.65908 30.39C2.73193 30.2071 2.80478 29.9877 2.87763 29.8049L2.91406 29.6951C2.91406 29.5489 2.95049 29.4392 2.98691 29.3294L3.05976 29.11C3.20547 28.7077 3.38759 28.3055 3.5333 27.9032C3.60615 27.7569 3.679 27.5741 3.75185 27.4278L3.8247 27.2815C3.97041 26.9158 4.15253 26.5501 4.29824 26.1844C4.40752 25.965 4.51679 25.7455 4.58964 25.5261C4.77177 25.1604 4.9539 24.7947 5.0996 24.4656L5.17246 24.3559C5.24531 24.173 5.35458 24.0267 5.42744 23.8439L5.57314 23.5879C5.79169 23.149 6.04667 22.7468 6.26523 22.3079C6.55663 21.7594 6.88447 21.284 7.17587 20.772C7.24872 20.6257 7.358 20.516 7.43085 20.3697C7.68583 19.9309 7.94081 19.5652 8.23222 19.1629L8.56005 18.6875C8.59648 18.6143 8.6329 18.5778 8.66933 18.5046C8.70575 18.468 8.74218 18.3949 8.7786 18.3583C9.14286 17.8098 9.54354 17.2978 9.94423 16.8224C10.0899 16.6395 10.2356 16.4567 10.3813 16.2372C10.782 15.7253 11.1827 15.2498 11.6198 14.7379L11.7291 14.6282C11.7655 14.5916 11.8019 14.5184 11.8748 14.4819L12.239 14.1162C12.5669 13.7505 12.8947 13.3848 13.2225 13.0556L13.514 12.7631C13.9146 12.3608 14.3153 11.9585 14.7524 11.5562L15.0074 11.3368C15.226 11.154 15.4445 10.9345 15.6631 10.7517C15.7359 10.6786 15.8088 10.6054 15.8816 10.5323L16.0273 10.386C16.173 10.2397 16.2823 10.1666 16.428 10.0569C16.8287 9.72772 17.193 9.39859 17.5936 9.06945L17.7758 8.92317C18.2129 8.55747 18.6864 8.22834 19.1599 7.86263L19.7428 7.46036C19.852 7.35065 19.9977 7.27751 20.107 7.20436C20.1799 7.13122 20.2891 7.09465 20.362 7.02151L20.5441 6.9118C20.7627 6.76552 20.9812 6.61924 21.1998 6.47296C21.4912 6.29011 21.819 6.07068 22.1104 5.88783L22.1469 5.85126C22.329 5.74155 22.5475 5.59527 22.7297 5.48556C23.0575 5.3027 23.3853 5.11985 23.7132 4.937L23.8953 4.82729C24.041 4.75415 24.1867 4.68101 24.3324 4.5713C24.6967 4.38845 25.0609 4.20559 25.4252 4.02274L25.6437 3.91303C25.753 3.83989 25.8623 3.80332 26.008 3.73018L26.1173 3.69361C26.5908 3.47419 27.0643 3.25476 27.5743 3.03534L27.975 2.88906C28.3757 2.70621 28.8128 2.55993 29.2134 2.41365C29.3591 2.30393 29.5049 2.26736 29.687 2.19422C30.1605 2.01137 30.6341 1.86509 31.1076 1.71881L31.3261 1.64567C31.8361 1.49939 32.3825 1.3531 32.9653 1.17025L33.4388 1.06054C33.8759 0.95083 34.2766 0.877689 34.7137 0.767978L34.823 0.731408C34.9687 0.694837 35.078 0.658267 35.2237 0.658267C35.8794 0.548556 36.4257 0.438845 36.9357 0.365704C37.4457 0.292563 37.9556 0.219422 38.4656 0.182852C38.5749 0.182852 38.6841 0.146282 38.7934 0.146282H38.9391C39.3034 0.109711 39.6312 0.109711 39.9955 0.0731408C40.1776 0.0731408 40.3597 0.0731408 40.5419 0.0365704C40.8697 0.0365704 41.2339 0 41.5618 0H41.7075C41.8168 0 41.926 0 42.0353 0C42.4724 0 42.8731 0 43.2738 0.0365704H43.4923C43.9659 0.0731408 44.4758 0.109711 44.9494 0.146282C45.0222 0.146282 45.1315 0.182852 45.2043 0.182852L45.3501 0.219422C45.6779 0.255993 46.0421 0.292563 46.37 0.365704C46.5521 0.402274 46.6978 0.402274 46.8799 0.438845C47.2078 0.475415 47.4992 0.548556 47.827 0.621696L47.9363 0.658267C48.0456 0.694837 48.1913 0.694837 48.3005 0.731408C48.6648 0.804548 49.0291 0.877689 49.3569 0.9874L49.4662 1.02397C49.5026 1.02397 49.5754 1.06054 49.6119 1.06054V1.3531L49.6847 1.09711C50.1582 1.20682 50.5954 1.3531 51.0689 1.49939L51.4332 1.6091C51.761 1.71881 52.1252 1.82852 52.4531 1.93823C52.5988 1.9748 52.7445 2.04794 52.8902 2.12108C53.1816 2.23079 53.5094 2.37707 53.8008 2.48679L53.9101 2.52336C54.0194 2.55993 54.1287 2.5965 54.2379 2.66964C54.6386 2.85249 55.0029 2.99877 55.3671 3.18162L55.4764 3.25476C55.8771 3.43762 56.2413 3.65704 56.6056 3.83989L62.7251 7.16779L62.4702 7.64321H62.4337C62.0695 7.46036 61.7416 7.27751 61.3774 7.09465L61.2317 7.02151C60.8674 6.83866 60.5032 6.65581 60.1025 6.50953C59.9932 6.47296 59.8839 6.43639 59.8111 6.36325L59.7018 6.32668C59.4104 6.21696 59.119 6.07068 58.7911 5.96097C58.6454 5.88783 58.4997 5.85126 58.354 5.77812C58.0262 5.66841 57.6984 5.5587 57.3705 5.44899L57.0427 5.33928C56.6056 5.19299 56.1321 5.08328 55.695 4.937L55.4036 4.86386C55.0393 4.79072 54.7115 4.68101 54.3472 4.60787C54.2379 4.5713 54.0922 4.5713 53.983 4.53473L53.8737 4.49816C53.5458 4.42502 53.2544 4.38845 52.9266 4.3153C52.7809 4.27873 52.5988 4.27873 52.4531 4.24216C52.1252 4.20559 51.7974 4.13245 51.4332 4.09588H50.996C50.5225 4.05931 50.049 4.02274 49.5754 3.98617H49.3569C48.9562 3.9496 48.5191 3.9496 48.1184 3.9496C48.0091 3.9496 47.8999 3.9496 47.7906 3.9496H47.6449C47.317 3.9496 46.9892 3.9496 46.625 3.98617C46.4428 3.98617 46.2607 3.98617 46.115 4.02274C45.7872 4.02274 45.4229 4.05931 45.0586 4.09588H44.9129C44.8037 4.09588 44.6944 4.09588 44.5851 4.13245C44.0752 4.16902 43.5652 4.24216 43.0917 4.3153C42.5817 4.38845 42.0717 4.46159 41.4161 4.60787C41.2704 4.64444 41.1611 4.64444 41.0154 4.68101H40.9425C40.5054 4.75415 40.1047 4.86386 39.7041 4.97357L39.5584 5.01014C39.4491 5.04671 39.3398 5.04671 39.2305 5.08328C38.6477 5.22956 38.1013 5.37585 37.5914 5.52213L37.3728 5.59527C36.8993 5.74155 36.4257 5.88783 35.9886 6.07068C35.8429 6.14382 35.6608 6.18039 35.5151 6.25353C35.1144 6.39982 34.7137 6.58267 34.2766 6.72895L33.8759 6.83866C33.366 7.05808 32.856 7.27751 32.3461 7.5335C32.2368 7.57007 32.1275 7.64321 32.0182 7.71635L31.7997 7.82606C31.4354 8.00891 31.0712 8.19177 30.7433 8.37462C30.5976 8.44776 30.4519 8.5209 30.3062 8.63061L30.1241 8.74032C29.7963 8.92317 29.4684 9.10602 29.177 9.28888C28.9585 9.39859 28.7763 9.54487 28.5578 9.65458C28.23 9.874 27.9385 10.0569 27.6107 10.2397C27.3922 10.386 27.1736 10.5323 26.9551 10.6786C26.6272 10.898 26.2994 11.1174 25.9716 11.3734L25.6073 11.6294C25.1338 11.9585 24.6967 12.3242 24.2595 12.6534L24.0774 12.7996C23.6767 13.1288 23.3125 13.4213 22.9118 13.7505C22.7661 13.8602 22.6568 13.9699 22.5111 14.0796C22.1469 14.4087 21.7826 14.7379 21.4548 15.067L21.2362 15.2498C20.8355 15.6521 20.4348 16.0544 20.0342 16.4567L19.7428 16.7492C19.4149 17.0784 19.0871 17.4441 18.7593 17.8098L18.5407 18.0658C18.4679 18.1389 18.4314 18.212 18.3586 18.2852L18.2129 18.4315C17.8122 18.9069 17.3751 19.4189 16.9744 19.9309C16.8287 20.1137 16.683 20.2966 16.5373 20.4794C16.1366 20.9914 15.7723 21.5034 15.4081 22.0154L15.2624 22.1982C15.1895 22.2714 15.1531 22.3811 15.0803 22.4542L14.8617 22.7833C14.6067 23.149 14.3517 23.5513 14.0968 23.9536L13.8418 24.3559C13.5504 24.8313 13.2225 25.3433 12.9676 25.8187C12.6762 26.3672 12.3848 26.8427 12.1298 27.3546C12.0569 27.5009 11.9476 27.6838 11.8748 27.8301L11.8019 27.9763C11.6198 28.342 11.4377 28.6712 11.292 29.0369C11.1827 29.2563 11.0734 29.4757 11.0006 29.6951C10.8184 30.0609 10.6727 30.4266 10.527 30.7557L10.4906 30.8654C10.4178 31.0483 10.3449 31.2311 10.2721 31.414C10.0899 31.8162 9.94423 32.2185 9.79853 32.6208L9.72567 32.8402C9.68925 32.9499 9.65282 33.0231 9.6164 33.1328C9.54354 33.3888 9.43427 33.6082 9.36142 33.8642L9.07001 34.4493C8.99716 34.6687 8.92431 34.8516 8.85146 35.071C8.7786 35.327 8.70575 35.583 8.6329 35.839L8.4872 36.3875C8.41435 36.5704 8.37792 36.7532 8.30507 36.9727C8.23222 37.2286 8.15937 37.4846 8.12294 37.7406L7.97724 38.3258C7.94081 38.5086 7.86796 38.6915 7.83154 38.9109C7.75868 39.1669 7.72226 39.4229 7.64941 39.7154L7.54013 40.3006C7.5037 40.4834 7.46728 40.6663 7.43085 40.8491C7.39443 41.1417 7.32157 41.3977 7.28515 41.6902L7.17587 42.2754C7.13945 42.4582 7.10302 42.6411 7.10302 42.7873C7.06659 43.1165 7.03017 43.409 6.99374 43.7382L6.92089 44.2867C6.88447 44.433 6.88447 44.6159 6.88447 44.7621C6.84804 45.1278 6.81161 45.5301 6.81161 45.8958L6.77519 46.4078C6.77519 46.5175 6.73876 46.6638 6.73876 46.7735C6.70234 47.4318 6.70234 48.1266 6.70234 48.7849C6.66591 62.3525 12.9676 73.8722 23.531 79.6503L23.2396 80.1623ZM41.8896 0.621696C41.8168 0.621696 41.7439 0.621696 41.6711 0.621696H41.5253C41.1975 0.621696 40.8697 0.621696 40.5054 0.658267C40.3233 0.658267 40.1412 0.658267 39.9955 0.694837C39.6676 0.694837 39.3034 0.731408 38.9391 0.767978H38.7934C38.6841 0.767978 38.5749 0.767978 38.4656 0.804548C37.9556 0.841119 37.4457 0.914259 36.9721 0.9874C36.4622 1.06054 35.9522 1.13368 35.2965 1.27996C35.1508 1.31653 35.0416 1.31653 34.8959 1.3531L34.7866 1.38967C34.3495 1.46282 33.9488 1.57253 33.5481 1.68224L33.111 1.79195C32.5282 1.93823 31.9818 2.08451 31.4718 2.23079L31.2533 2.30393C30.7798 2.45022 30.3062 2.5965 29.8691 2.77935C29.7234 2.85249 29.5413 2.88906 29.3956 2.9622C28.9949 3.10848 28.5942 3.29133 28.1571 3.43762L27.7564 3.5839C27.2829 3.80332 26.8093 3.98617 26.3358 4.20559H26.2265C26.1173 4.24216 26.008 4.3153 25.8987 4.38845L25.6802 4.46159C25.3159 4.64444 24.9516 4.82729 24.6238 5.01014C24.4781 5.08328 24.3324 5.15642 24.1867 5.26613L24.0046 5.37585C23.6767 5.5587 23.3489 5.74155 23.0575 5.9244C22.8754 6.03411 22.6568 6.14382 22.4747 6.29011H22.4018C22.1104 6.47296 21.7826 6.65581 21.4912 6.87523C21.2726 7.02151 21.0541 7.16779 20.8355 7.31408L20.6534 7.42379C20.5805 7.46036 20.5077 7.5335 20.3984 7.57007C20.2891 7.64321 20.1434 7.75292 20.0342 7.82606L19.4878 8.22834C19.0142 8.55747 18.5771 8.92317 18.14 9.25231L17.9579 9.39859C17.5572 9.72772 17.193 10.0203 16.7923 10.3494C16.683 10.4591 16.5373 10.5688 16.428 10.6786L16.2459 10.8248C16.173 10.898 16.1002 10.9711 16.0273 11.0077C15.8088 11.1905 15.5902 11.41 15.4081 11.5928L15.1531 11.8122C14.7524 12.2145 14.3517 12.6168 13.9511 13.0191L13.6597 13.3116C13.3318 13.6408 13.004 14.0065 12.6762 14.3722L12.3483 14.7379C12.3119 14.7744 12.2755 14.8476 12.239 14.8841C12.2026 14.9207 12.1662 14.9939 12.1298 15.0304C11.6927 15.5058 11.292 16.0178 10.8913 16.5298C10.7456 16.7127 10.5999 16.8955 10.4542 17.1149C10.0899 17.6269 9.68925 18.1389 9.32499 18.6509C9.28857 18.6875 9.25214 18.7606 9.21571 18.7972C9.17929 18.8337 9.14286 18.9069 9.10644 18.9435L8.74218 19.492C8.4872 19.8943 8.23222 20.26 7.97724 20.6623C7.86796 20.8085 7.79511 20.9548 7.72226 21.0645C7.43085 21.54 7.10302 22.0519 6.81161 22.5639C6.55663 23.0028 6.33808 23.405 6.0831 23.8439L5.9374 24.0999C5.86454 24.2462 5.75527 24.429 5.68242 24.5753L5.60956 24.685C5.42744 25.0507 5.24531 25.3798 5.0996 25.7455C4.99033 25.965 4.88105 26.1844 4.8082 26.4038C4.62607 26.7695 4.48037 27.1352 4.33466 27.4644L4.26181 27.6106C4.18896 27.7569 4.11611 27.9398 4.04326 28.0861C3.86113 28.4883 3.71543 28.8906 3.56972 29.2929L3.49687 29.5123C3.46045 29.622 3.42402 29.6951 3.38759 29.8049L3.35117 29.9146C3.27832 30.0974 3.20547 30.3168 3.13261 30.4997L2.95049 31.0483C2.87763 31.2677 2.80478 31.4505 2.73193 31.6699C2.65908 31.9259 2.58623 32.1819 2.47695 32.4745L2.33125 32.9865C2.2584 33.1693 2.22197 33.3888 2.14912 33.5716C2.07627 33.8276 2.00342 34.0836 1.93056 34.3762L1.82129 34.9613C1.78486 35.1441 1.71201 35.3636 1.67558 35.5464C1.60273 35.8024 1.56631 36.0584 1.49346 36.351L1.38418 36.9727C1.34775 37.1555 1.31133 37.3384 1.2749 37.5212C1.23848 37.8138 1.16562 38.1063 1.1292 38.3989L1.01992 38.984C0.983495 39.1669 0.947069 39.3497 0.947069 39.5326C0.910644 39.8617 0.874218 40.1543 0.837792 40.4834L0.764941 41.032C0.728515 41.1782 0.728515 41.3611 0.728515 41.5074C0.692089 41.9097 0.655663 42.3119 0.655663 42.7142L0.619238 43.153C0.619238 43.2628 0.582812 43.409 0.582812 43.5188C0.546386 44.2136 0.546386 44.8719 0.546386 45.5301C0.50996 59.0977 6.81161 70.6174 17.3751 76.3955L18.4679 76.9807C10.6363 70.5808 6.11952 60.4508 6.15595 48.858C6.15595 48.1998 6.19238 47.5049 6.19238 46.8101C6.19238 46.6638 6.19238 46.5541 6.2288 46.4444L6.26523 45.9324C6.30165 45.5301 6.30165 45.1644 6.33808 44.7987C6.33808 44.6159 6.37451 44.4696 6.41093 44.2867L6.48378 43.7382C6.52021 43.409 6.55663 43.0799 6.59306 42.7508C6.62949 42.5679 6.66591 42.3851 6.66591 42.2022L6.77519 41.6171C6.81161 41.3245 6.84804 41.032 6.92089 40.776C6.95732 40.5931 6.99374 40.4103 7.03017 40.1908L7.13945 39.6057C7.17587 39.3497 7.24872 39.0572 7.32158 38.8012C7.358 38.6183 7.43085 38.3989 7.46728 38.216L7.61298 37.6309C7.68583 37.3749 7.75868 37.1189 7.83154 36.8264C7.86796 36.6435 7.94081 36.4241 8.01366 36.2412L8.15937 35.6927C8.23222 35.4367 8.30507 35.1807 8.41435 34.9247C8.4872 34.7053 8.56005 34.4859 8.6329 34.303L8.81503 33.791C8.88788 33.535 8.99716 33.279 9.07001 33.0231C9.10644 32.9133 9.14286 32.8036 9.17929 32.7305L9.25214 32.5111C9.39784 32.1088 9.57997 31.7065 9.72567 31.3042C9.79853 31.1214 9.87138 30.9385 9.94423 30.7557L9.98065 30.646C10.1264 30.2803 10.3085 29.9146 10.4542 29.5489C10.5635 29.3294 10.6727 29.11 10.7456 28.8906C10.9277 28.5249 11.1099 28.1958 11.2556 27.8301L11.3284 27.6838C11.4013 27.5375 11.5105 27.3546 11.5834 27.2084C11.8384 26.6964 12.1298 26.1844 12.4212 25.6724C12.749 25.1238 13.0404 24.6484 13.3318 24.1364L13.5868 23.6976C13.8418 23.2953 14.0968 22.8931 14.3517 22.5274L14.5703 22.1982C14.6431 22.0885 14.716 22.0154 14.7524 21.9057L14.8981 21.7228C15.2624 21.2108 15.6631 20.6623 16.0638 20.1503C16.2095 19.9674 16.3552 19.7846 16.5009 19.5652C16.9015 19.0532 17.3387 18.5412 17.7393 18.0658L17.885 17.8829C17.9579 17.8098 18.0307 17.7366 18.0672 17.6635L18.3221 17.4075C18.65 17.0418 18.9778 16.6761 19.3056 16.347L19.5971 16.0544C19.9977 15.6521 20.3984 15.2498 20.8355 14.8476L21.0541 14.6647C21.4183 14.3356 21.7826 14.0065 22.1469 13.6773C22.2926 13.5676 22.4018 13.4579 22.5475 13.3482C22.9482 13.0191 23.3125 12.6899 23.7132 12.3608L23.8953 12.2145C24.3324 11.8488 24.8059 11.5197 25.2795 11.154L25.6802 10.8614C26.008 10.642 26.3358 10.386 26.6636 10.1666C26.8822 10.0203 27.1008 9.874 27.3193 9.72772C27.6107 9.54487 27.9385 9.32545 28.23 9.14259C28.4485 8.99631 28.6671 8.8866 28.8856 8.74032C29.2134 8.55747 29.5413 8.37462 29.8691 8.19177L30.0512 8.08205C30.1969 8.00891 30.3426 7.8992 30.4883 7.82606C30.8526 7.64321 31.2169 7.46036 31.5811 7.27751L31.7997 7.16779C31.909 7.09465 32.0182 7.05808 32.1275 6.98494C32.6375 6.72895 33.1474 6.50953 33.6574 6.29011L34.0581 6.14382C34.4588 5.96097 34.8959 5.81469 35.2965 5.66841C35.4422 5.59527 35.6244 5.5587 35.7701 5.48556C36.2436 5.3027 36.7172 5.15642 37.1907 5.01014L37.4092 4.937C37.9192 4.79072 38.4656 4.64444 39.0484 4.46159C39.1577 4.42502 39.267 4.42502 39.3762 4.38845L39.5219 4.35187C39.959 4.24216 40.3597 4.16902 40.7968 4.05931H40.8697C41.0154 4.02274 41.1247 3.98617 41.2704 3.98617C41.926 3.87646 42.4724 3.76675 42.9824 3.69361C43.4923 3.62047 44.0023 3.54733 44.5123 3.51076C44.6215 3.51076 44.7308 3.47419 44.8401 3.47419H44.9858C45.3501 3.43762 45.6779 3.43762 46.0421 3.40105C46.2243 3.40105 46.4064 3.40105 46.5885 3.36447C46.9164 3.36447 47.2806 3.3279 47.6084 3.3279H47.7542C47.8634 3.3279 47.9727 3.3279 48.082 3.3279C48.5191 3.3279 48.9198 3.3279 49.3205 3.36447H49.539C50.0126 3.40105 50.5225 3.43762 50.996 3.47419C51.0689 3.47419 51.1782 3.51076 51.251 3.51076L51.3967 3.54733C51.7246 3.5839 52.0888 3.62047 52.4166 3.69361C52.5988 3.73018 52.7445 3.73018 52.9266 3.76675C53.2544 3.80332 53.5458 3.87646 53.8737 3.9496L53.983 3.98617C54.0922 4.02274 54.2379 4.02274 54.3472 4.05931C54.7115 4.13245 55.0757 4.20559 55.4036 4.3153L55.7314 4.38845C56.2049 4.49816 56.642 4.64444 57.1156 4.79072L57.407 4.90043L56.2413 4.27873C55.8771 4.09588 55.5128 3.91303 55.1486 3.73018L55.0029 3.65704C54.6386 3.47419 54.2744 3.29133 53.8737 3.14505C53.7644 3.10848 53.6551 3.07191 53.5823 2.99877L53.473 2.9622C53.1816 2.85249 52.8902 2.70621 52.5624 2.5965C52.4166 2.52336 52.2709 2.48679 52.1252 2.41365C51.7974 2.30393 51.4696 2.19422 51.1417 2.08451L50.8139 1.9748C50.3768 1.82852 49.9033 1.71881 49.4662 1.57253L49.2476 1.53596C48.8834 1.46282 48.5555 1.3531 48.1913 1.27996C48.082 1.24339 47.9363 1.24339 47.827 1.20682H47.7177C47.3899 1.13368 47.0985 1.09711 46.7707 1.02397C46.625 0.9874 46.4428 0.9874 46.2971 0.95083C45.9693 0.91426 45.6415 0.841119 45.2772 0.804548L44.8765 0.767978C44.403 0.731408 43.9295 0.694837 43.4559 0.658267H43.2374C42.8367 0.621696 42.3996 0.621696 41.9989 0.621696C41.9625 0.621696 41.926 0.621696 41.8896 0.621696Z" fill="#DFDFDF"/>
<path d="M63.7064 41.0329C65.8984 36.9879 64.8819 32.1829 61.4361 30.3007C57.9902 28.4186 53.4198 30.1719 51.2278 34.2169C49.0358 38.2619 50.0522 43.0668 53.4981 44.949C56.9439 46.8312 61.5144 45.0779 63.7064 41.0329Z" fill="#DFDFDF"/>
<path d="M65.9291 14.2995C79.1517 26.0752 79.6981 48.6391 67.204 64.8032C67.1312 64.8763 67.0947 64.9495 67.0219 65.0592C66.949 65.1689 66.8762 65.242 66.8398 65.3152C65.9655 66.3757 65.8563 66.522 65.747 66.6317C65.6377 66.7414 65.6013 66.8146 65.5284 66.8877C65.4556 66.9608 65.4192 67.034 65.3463 67.0706C64.9821 67.5094 64.9092 67.5825 64.8363 67.6557C64.2171 68.3139 64.1443 68.4237 64.035 68.4968C63.8529 68.7162 63.78 68.7894 63.7071 68.8259C63.5979 68.9356 63.4886 69.0454 63.3793 69.1551C63.0879 69.4476 62.7601 69.7402 62.4687 70.0328C62.2501 70.2522 61.9951 70.4716 61.7402 70.691C61.3759 71.0202 60.9752 71.3493 60.5745 71.6784C55.1835 76.14 48.9911 78.8828 42.7988 79.7239C39.5933 80.1628 36.3514 80.1262 33.2552 79.5776C32.7817 79.5045 32.3082 79.3948 31.8346 79.2851C30.0498 78.8462 28.3013 78.2611 26.5893 77.4566C26.2615 77.3103 25.9337 77.164 25.6058 76.9811C24.2945 76.3229 23.0196 75.5183 21.7811 74.6041C21.5626 74.4212 21.344 74.2749 21.1255 74.0921C20.6883 73.7629 20.2512 73.3972 19.8506 73.0315C19.3042 72.5561 18.7942 72.0441 18.2842 71.5321C18.1385 71.3859 17.9928 71.203 17.8471 71.0567C17.0822 70.2156 16.3901 69.3745 15.7344 68.4602C15.6252 68.3139 15.5159 68.1311 15.4066 67.9848C14.8238 67.1071 14.241 66.2294 13.731 65.3152C13.6582 65.1689 13.5489 64.986 13.476 64.8398C13.0389 63.9986 12.6383 63.1575 12.274 62.2798C12.2011 62.1336 12.1647 61.9873 12.0919 61.841C11.764 61.073 11.5091 60.2685 11.2541 59.4639C11.2176 59.3176 11.1812 59.2079 11.1448 59.0982C10.9262 58.3668 10.7077 57.6354 10.562 56.8674C10.5256 56.7577 10.5256 56.648 10.4891 56.5017C10.3434 55.8069 10.1977 55.112 10.0885 54.3806C10.0885 54.2709 10.052 54.1612 10.052 54.0515C9.94275 53.3932 9.8699 52.6984 9.79705 52.0036C9.79705 51.8939 9.79705 51.8207 9.76062 51.711C9.68777 51.0893 9.65134 50.431 9.65134 49.8093C9.65134 49.6996 9.65134 49.6265 9.65134 49.5533C9.61492 48.8585 9.61492 48.2002 9.65134 47.5054C9.65134 47.4323 9.65134 47.3226 9.65134 47.2494C9.68777 46.5911 9.68777 45.9694 9.76062 45.3112C9.76062 45.238 9.76062 45.1649 9.76062 45.0552C9.79705 44.3969 9.8699 43.7752 9.97917 43.117C10.0885 42.2393 10.1977 41.6176 10.3434 40.9593C10.4891 40.0816 10.6348 39.4599 10.817 38.8017C11.0355 37.9605 11.2176 37.3023 11.3998 36.644C11.6548 35.8029 11.8733 35.108 12.0919 34.4498C12.3833 33.6087 12.6747 32.9138 12.9297 32.2556C13.2939 31.4144 13.5853 30.7196 13.9132 30.0613C14.3138 29.2202 14.6781 28.5254 15.0788 27.8671C16.2444 25.8192 17.4465 23.9541 18.8671 22.1987C25.4601 13.8241 34.2387 8.85051 43.0173 7.60712C51.286 6.43686 59.5182 8.55795 65.9291 14.2995ZM66.6576 64.9129C69.7538 60.9267 72.1215 56.5749 73.6878 51.8938C75.1813 47.3591 75.9098 42.7513 75.8005 38.1434C75.6912 33.5355 74.817 29.1836 73.105 25.1975C71.3566 21.065 68.8432 17.5177 65.6377 14.6652C59.5182 9.21621 51.4681 6.83914 43.0173 8.04596C38.6098 8.66766 34.3116 10.2036 30.2683 12.6173C26.0794 15.104 22.3275 18.4319 19.1949 22.4547C17.8836 24.1369 16.6815 25.9289 15.6252 27.7574C25.278 28.7448 29.2484 37.2291 33.4374 46.1157C36.5335 52.6984 39.7026 59.4639 45.385 63.3769C46.2592 63.9621 47.1699 64.4741 48.1534 64.9129C48.3719 65.0226 48.6269 65.0958 48.8819 65.2055C49.574 65.4615 50.3025 65.6809 51.0674 65.9003C51.3224 65.9734 51.6138 66.0466 51.8688 66.0832C53.3258 66.1563 54.8921 66.1563 56.4949 66.0832C59.1539 65.8637 61.9587 65.5346 64.8728 65.1323C65.4556 65.0958 66.0748 64.986 66.6576 64.9129ZM11.8369 36.6806C11.6548 37.3388 11.4726 37.9971 11.2905 38.6554C14.2046 38.9114 16.9729 39.6062 19.7048 40.7399C25.9337 43.3364 30.0133 48.6025 33.9473 53.6858C37.0435 57.672 40.0304 61.5119 43.8915 63.8524C44.0008 63.9255 44.1465 63.9986 44.2558 64.0718C44.4379 64.1815 44.5836 64.2546 44.7658 64.3643C44.8386 64.4009 44.9115 64.4375 44.9479 64.4741C45.0207 64.5106 45.0572 64.5106 45.0936 64.5472C46.6963 65.3517 48.4448 65.8637 50.4118 66.0466C50.3389 66.01 50.2296 66.01 50.1568 65.9734C42.8716 64.1084 38.6462 58.3668 34.2023 52.2961C30.2683 46.9203 26.2251 41.3982 19.8506 38.6554C17.3008 37.5217 14.6417 36.9 11.8369 36.6806ZM10.1977 45.3843C10.1613 46.0426 10.1249 46.6643 10.0885 47.3226C13.5489 48.054 16.463 49.1145 18.7578 49.9922C24.9866 52.2961 29.7219 55.6606 34.2387 58.9519C40.4675 63.4501 45.8221 67.29 53.5808 67.2168C53.8722 67.2168 54.1636 67.2168 54.4914 67.1803C53.9451 67.1803 53.3987 67.1803 52.8887 67.1437C51.8688 67.1071 50.8853 66.9974 49.9382 66.8146C43.8187 65.6809 39.229 61.841 34.3844 57.8548C29.9041 54.1612 25.278 50.3213 18.9399 47.9077C16.4265 46.9569 13.5489 45.9694 10.1977 45.3843ZM10.0885 49.1511C10.0885 49.2974 10.0885 49.4802 10.0885 49.6265C13.4032 50.5042 16.2444 51.455 18.5392 52.2596C24.5495 54.3806 29.2484 57.3063 33.8016 60.1588C40.504 64.3278 46.2956 67.9482 54.2729 67.4728C54.6736 67.4363 55.0742 67.4363 55.4749 67.3997C54.7828 67.3997 54.1636 67.4363 53.5444 67.4363C52.0509 67.4363 50.6303 67.3265 49.2826 67.0706C43.6366 66.01 39.1198 62.7553 34.093 59.1348C29.5398 55.88 24.8409 52.479 18.6485 50.2116C16.3901 49.3705 13.476 48.31 10.052 47.5785C10.0885 48.1271 10.0885 48.6391 10.0885 49.1511ZM10.1249 49.9191C10.1613 50.5773 10.1977 51.199 10.2342 51.8207C12.3468 52.4424 14.241 53.1372 16.0258 53.7589C16.8272 54.0515 17.5922 54.3075 18.3207 54.5635C24.0031 56.5017 28.8113 59.0616 33.0367 61.329C40.3582 65.242 46.6963 68.6431 54.965 67.7288C55.4749 67.6923 55.9485 67.6191 56.4584 67.546C55.6571 67.5825 54.965 67.6557 54.2729 67.6922C52.2695 67.802 50.4118 67.6922 48.6633 67.3265C43.3087 66.3026 38.7555 63.4867 33.6923 60.3416C29.1755 57.5257 24.4766 54.6001 18.4664 52.479C16.208 51.7476 13.4032 50.7967 10.1249 49.9191ZM12.2376 35.4006C12.1283 35.7663 11.9826 36.132 11.9097 36.4977C14.7509 36.7171 17.41 37.3388 19.9598 38.4725C26.3708 41.2519 30.414 46.8106 34.348 52.1498C37.4806 56.4286 40.504 60.561 44.5472 63.2307C40.1397 60.1953 37.0435 55.4412 33.9837 50.7967C30.2683 45.0552 26.3708 39.1308 20.0691 36.3149C17.7014 35.2543 15.2245 34.6692 12.529 34.4863C12.4197 34.8155 12.3468 35.108 12.2376 35.4006ZM10.562 54.1978C11.9826 54.6732 13.2939 55.1852 14.5688 55.624C15.8073 56.0994 17.0093 56.5017 18.1385 56.904C23.311 58.6228 27.8278 60.6707 31.8346 62.4993C39.8483 66.1563 46.7692 69.3379 55.3292 68.1311C55.4385 68.1311 55.5478 68.0945 55.6571 68.0945C56.2399 68.0214 56.8227 67.9117 57.4055 67.802C57.3691 67.802 57.3326 67.802 57.2598 67.7654C57.0412 67.802 56.7863 67.8385 56.5677 67.8751C56.0213 67.9482 55.4749 68.0214 54.965 68.058C52.4152 68.3139 50.0111 68.2042 47.7527 67.7654C42.6166 66.8146 38.027 64.3278 32.9274 61.6216C28.4835 59.2445 23.8938 56.7943 18.2478 54.856C17.5193 54.6001 16.7544 54.3441 15.953 54.0515C14.2046 53.4298 12.3468 52.7715 10.307 52.1498C10.3434 52.8081 10.4527 53.5029 10.562 54.1978ZM10.5984 54.5269C10.7077 55.2583 10.8534 55.9532 11.0355 56.6846C11.7276 56.9406 12.3833 57.1966 13.0025 57.4525C14.7509 58.1108 16.3537 58.7691 17.8836 59.2445C22.2911 60.6342 26.1158 62.1336 29.8312 63.5964C38.8284 67.1071 46.0407 69.923 54.6371 68.7162C55.1835 68.6431 55.7663 68.5334 56.3492 68.4237C57.0048 68.2774 57.6605 68.1311 58.3526 67.9848C58.3161 67.9848 58.2433 67.9848 58.2069 67.9482C57.3691 68.1311 56.5313 68.2774 55.6935 68.3871C55.5842 68.3871 55.4749 68.4237 55.3657 68.4237C52.1966 68.8625 49.2826 68.7162 46.4413 68.2042C41.4874 67.29 36.825 65.1323 31.6889 62.7918C27.5 60.8902 23.1653 58.8788 17.9928 57.1966C16.8636 56.8308 15.698 56.392 14.4231 55.9166C13.2211 55.4412 11.9462 54.9658 10.5984 54.5269ZM13.4032 32.3287C13.1118 32.987 12.8568 33.6452 12.6018 34.3401C15.2973 34.5229 17.8107 35.108 20.142 36.1686C26.48 38.9845 30.3776 44.9455 34.1294 50.687C36.4243 54.1978 38.7555 57.7817 41.6696 60.6342C38.5005 57.4525 36.1329 53.3201 33.7652 49.2974C30.1955 43.1901 26.5165 36.9 20.2877 34.0109C18.175 33.0235 15.8801 32.475 13.4032 32.3287ZM11.1084 57.0137C11.2905 57.7817 11.5091 58.5131 11.7276 59.2811C13.8403 60.1588 15.8073 60.9633 17.6286 61.5119C20.834 62.4993 23.7845 63.4867 26.6257 64.4375C36.6428 67.802 44.8022 70.5447 53.7993 69.2648C54.8557 69.1185 55.912 68.8991 57.0048 68.6431C57.7333 68.4602 58.4618 68.2774 59.2268 68.058C59.1539 68.058 59.1175 68.058 59.0447 68.0214C58.134 68.2408 57.2234 68.4602 56.3492 68.6431C55.7663 68.7528 55.1835 68.8625 54.6371 68.9356C51.1038 69.4476 47.8255 69.2648 44.5836 68.6431C39.8119 67.7288 35.0765 65.9003 29.7219 63.8158C26.0065 62.353 22.1818 60.8536 17.7743 59.4639C16.2808 58.9885 14.6417 58.3668 12.8932 57.672C12.3104 57.4891 11.7276 57.2331 11.1084 57.0137ZM14.3867 30.0979C14.0589 30.7562 13.731 31.451 13.476 32.1458C15.953 32.2921 18.2478 32.8773 20.3969 33.8647C26.6622 36.7537 30.3412 43.0804 33.9473 49.1876C35.8415 52.4424 37.772 55.7703 40.1397 58.5862C37.5899 55.368 35.5865 51.5281 33.6195 47.7614C30.0862 40.9959 26.735 34.5961 20.5791 31.6704C18.6485 30.7927 16.6451 30.2808 14.3867 30.0979ZM11.2541 38.8748C11.1084 39.5331 10.9627 40.1913 10.817 40.813C13.731 41.1422 16.5358 41.8736 19.4863 43.0438C25.7151 45.5672 29.9405 50.431 34.0202 55.1486C35.0765 56.3554 36.0964 57.5623 37.1528 58.6959C38.1727 59.6468 39.229 60.5245 40.2854 61.3656C37.9541 59.2079 35.9143 56.5383 33.8016 53.8321C29.8676 48.7854 25.8244 43.5192 19.632 40.9593C16.9001 39.8256 14.1317 39.1308 11.2541 38.8748ZM11.8733 59.6468C12.1283 60.4513 12.4561 61.2559 12.784 62.0604C14.4231 62.7553 15.9894 63.3769 17.41 63.7792C18.7214 64.1449 19.9963 64.5472 21.2347 64.9129C33.4738 68.5699 42.8352 71.3859 52.6337 69.9962C54.3093 69.7768 55.9849 69.4111 57.6969 68.8991C58.4983 68.6797 59.2996 68.4237 60.101 68.1311C60.0282 68.1311 59.9917 68.1311 59.9189 68.0945C58.9718 68.3871 57.9883 68.6431 57.0412 68.8625C55.9485 69.1185 54.8557 69.3379 53.7993 69.4842C49.7197 70.0693 45.8221 69.8133 41.8517 69.0819C37.0071 68.1677 32.0532 66.522 26.5165 64.6569C23.6753 63.7061 20.7248 62.7187 17.5193 61.7313C15.8073 61.2559 13.8767 60.4879 11.8733 59.6468ZM15.5523 27.9037C15.1881 28.5619 14.8238 29.2568 14.4595 29.9516C16.6815 30.1345 18.7214 30.6465 20.6155 31.5607C26.8079 34.4863 30.159 40.8862 33.6923 47.6883C35.1858 50.5407 36.6792 53.3932 38.4277 56.0263C36.4971 52.991 34.8944 49.5899 33.3281 46.2254C29.1755 37.3388 25.2051 28.8545 15.5523 27.9037ZM10.4163 43.1901C10.3434 43.8484 10.2706 44.4701 10.1977 45.1283C13.5853 45.7135 16.4994 46.7009 18.9763 47.6517C25.3508 50.0653 29.9769 53.9052 34.4937 57.6354C36.6792 59.4639 38.8284 61.2193 41.0868 62.7187C39.6662 61.6216 38.3548 60.305 37.0435 58.9154C36.1693 58.1108 35.2951 57.3063 34.4209 56.4651C30.0498 52.3327 25.4965 48.054 19.0856 45.5306C16.9001 44.6895 13.986 43.7021 10.4163 43.1901ZM12.9661 62.4993C13.3668 63.3769 13.7675 64.2546 14.241 65.0592C15.2609 65.4615 16.2444 65.8272 17.1915 66.0832C30.159 69.7768 40.7225 72.3733 51.1767 70.9104C53.5808 70.5813 55.9849 70.0328 58.389 69.2282C59.2632 68.9356 60.1374 68.6065 61.0116 68.314C60.9388 68.314 60.9024 68.2774 60.8295 68.2774C59.8096 68.6065 58.7897 68.9356 57.7698 69.2282C56.0577 69.7402 54.3457 70.1059 52.6702 70.3253C47.862 71.0202 43.163 70.691 38.1727 69.7402C32.9638 68.7528 27.4635 67.1071 21.1983 65.242C19.9598 64.8763 18.6849 64.4741 17.3736 64.1084C15.953 63.7061 14.496 63.121 12.9661 62.4993ZM14.496 65.5346C15.0424 66.4489 15.5887 67.3265 16.208 68.2042C16.463 68.2774 16.6815 68.3505 16.9365 68.4237C28.702 71.6419 39.0469 73.4704 49.1369 72.0441C52.4516 71.5687 55.7299 70.7642 59.0447 69.5208C59.9917 69.1551 60.9024 68.7894 61.8494 68.3871C61.7766 68.3871 61.7037 68.3871 61.6673 68.3505C60.611 68.7528 59.5182 69.1551 58.4618 69.5208C56.0213 70.3253 53.6172 70.9104 51.1767 71.2396C45.3486 72.0441 39.5205 71.6419 33.2552 70.435C28.2285 69.4842 22.8739 68.058 17.0822 66.4123C16.2444 66.1563 15.3702 65.8637 14.496 65.5346ZM10.7805 41.0324C10.6713 41.6907 10.562 42.3124 10.4527 42.9707C14.0589 43.4827 16.9729 44.4701 19.2313 45.3843C25.6787 47.9077 30.1955 52.1864 34.603 56.3554C34.858 56.5749 35.0765 56.8308 35.3315 57.0503C34.8215 56.5017 34.348 55.9166 33.838 55.368C29.7584 50.687 25.5694 45.8232 19.377 43.2998C16.463 42.093 13.6582 41.3616 10.7805 41.0324ZM16.5722 68.6431C17.2643 69.5573 17.9928 70.3985 18.7942 71.2396C29.3941 73.8361 38.4641 74.5675 46.7692 73.3972C51.286 72.7755 55.5478 71.5687 59.7367 69.8133C60.7202 69.4111 61.7037 68.9356 62.6872 68.4968C62.6144 68.4968 62.5415 68.4968 62.5051 68.4602C61.4123 68.9356 60.2831 69.4111 59.1175 69.8133C55.8028 71.0567 52.488 71.8978 49.1369 72.3733C42.4709 73.3241 35.6958 72.8487 28.447 71.459C24.6952 70.7642 20.8705 69.8133 16.8272 68.7162C16.7544 68.7162 16.6451 68.6797 16.5722 68.6431ZM63.3793 68.6431C63.4157 68.5699 63.3793 68.5699 63.3065 68.5334C62.1408 69.0819 60.9752 69.5939 59.8096 70.1059C55.5842 71.8613 51.286 73.0681 46.7692 73.7264C39.994 74.6772 32.7453 74.3846 24.5495 72.8487C22.8375 72.5195 21.089 72.1538 19.2677 71.715C19.5956 72.0441 19.9234 72.3367 20.2512 72.6658C20.9069 73.251 21.5626 73.7995 22.2547 74.3115C29.9405 75.7377 37.0799 75.9937 43.928 75.0063C49.6104 74.2018 55.0378 72.5927 60.3924 70.1059C61.4123 69.6305 62.3958 69.1185 63.3793 68.6431ZM62.1408 69.8133C62.2865 69.6671 62.4323 69.5208 62.578 69.3745C61.8859 69.7036 61.1938 70.0693 60.4653 70.3985C55.0742 72.8852 49.6104 74.5309 43.8915 75.3355C37.2621 76.2863 30.3412 76.0669 22.9467 74.7503C24.2216 75.628 25.6058 76.396 27.0264 77.0543C31.8346 77.4565 36.5335 77.3468 41.1596 76.6886C47.9348 75.7377 54.5643 73.6167 61.0845 70.3253C61.4123 70.179 61.7766 69.9962 62.1408 69.8133ZM60.1739 71.5321C60.5017 71.2761 60.8295 70.9836 61.1209 70.7276C54.5643 74.0189 47.9348 76.14 41.1232 77.0908C36.8614 77.676 32.4903 77.8588 28.0828 77.5297C29.9041 78.2611 31.7982 78.8096 33.7652 79.1388C35.3679 79.0291 36.9342 78.8828 38.5005 78.6634C46.4413 77.5663 53.6536 74.9332 60.1739 71.5321ZM55.6206 74.7138C56.7134 74.0555 57.7698 73.3607 58.7897 72.5927C58.4983 72.739 58.2433 72.8487 57.9519 72.995C51.541 76.0669 45.0207 78.0782 38.6098 79.0291C37.5535 79.1754 36.4971 79.2851 35.4043 79.3948C37.8449 79.6508 40.3218 79.6142 42.8716 79.2851C47.2791 78.6268 51.5774 77.0908 55.6206 74.7138ZM47.6434 65.8637C44.5836 64.8032 41.9246 63.0478 39.4112 60.9633C41.8517 63.2672 44.4744 65.0592 47.6434 65.8637ZM65.1642 65.754C65.3099 65.7175 65.4192 65.6809 65.5649 65.6443C62.5051 65.9734 59.5182 66.1929 56.7134 66.3026C55.7663 66.3757 54.8557 66.4489 53.9451 66.4854C54.8557 66.5951 55.8028 66.7048 56.7498 66.778C57.9155 66.7414 59.0811 66.7048 60.2831 66.5951C60.8659 66.522 61.4488 66.4489 62.0316 66.3757C62.5415 66.3026 63.0879 66.1929 63.5979 66.0832C64.1443 66.01 64.6542 65.9003 65.1642 65.754ZM52.233 66.8511C51.5774 66.778 50.9581 66.7048 50.3753 66.5951C50.1932 66.5586 49.9746 66.522 49.7925 66.4854C49.574 66.4489 49.3554 66.4489 49.1369 66.4123C50.3753 66.7048 51.6502 66.8877 52.998 66.9243C53.0708 66.9243 53.1073 66.9243 53.1437 66.9243C52.8159 66.9243 52.5244 66.8877 52.233 66.8511ZM49.9018 66.266C50.3753 66.3026 50.8853 66.3391 51.3588 66.3391C51.286 66.3026 51.2131 66.3026 51.1403 66.266C51.031 66.266 50.9217 66.266 50.8124 66.266C50.1203 66.2294 49.4647 66.1563 48.8454 66.01C49.2097 66.1197 49.574 66.1929 49.9018 66.266ZM66.2934 65.3883C66.3662 65.3152 66.4391 65.242 66.4755 65.1323C65.9291 65.2055 65.4192 65.2786 64.8728 65.3517C63.5979 65.5346 62.323 65.7174 61.0481 65.8637C62.7601 65.754 64.5085 65.5712 66.2934 65.3883ZM51.5774 66.5586C51.7959 66.5951 52.0509 66.6317 52.2695 66.6317C52.3059 66.6317 52.3423 66.6317 52.4152 66.6317C52.3059 66.5951 52.1966 66.5586 52.0873 66.5586C51.9052 66.5586 51.7231 66.5586 51.5774 66.5586ZM63.4157 68.1311C63.3429 68.1311 63.3065 68.1311 63.27 68.1311C63.1243 68.2042 62.9422 68.2774 62.7965 68.3505C62.8694 68.3505 62.9058 68.3505 62.9786 68.3871C63.0879 68.2774 63.2336 68.2042 63.4157 68.1311ZM63.6707 67.9848C63.8164 67.9117 63.9986 67.8385 64.1443 67.7654H64.035C63.8529 67.8385 63.7071 67.9117 63.525 67.9848C63.5979 67.9848 63.6343 67.9848 63.6707 67.9848ZM62.578 68.0945C62.5415 68.0945 62.4687 68.0945 62.4322 68.0945C62.2865 68.1677 62.1044 68.2042 61.9587 68.2774C62.0316 68.2774 62.068 68.2774 62.1408 68.2774C62.2501 68.2042 62.3958 68.1311 62.578 68.0945ZM63.2336 67.7288C63.0879 67.802 62.9058 67.8751 62.7601 67.9117C62.7965 67.9117 62.8329 67.9117 62.9058 67.9117C63.0515 67.8385 63.1972 67.7654 63.3793 67.6922L63.2336 67.7288ZM61.558 67.9848C61.4123 68.0214 61.2302 68.0945 61.0845 68.1311C61.1573 68.1311 61.1938 68.1311 61.2666 68.1677C61.4123 68.0945 61.558 68.058 61.7037 67.9848C61.6673 68.0214 61.5945 67.9848 61.558 67.9848ZM62.3958 67.6922C62.2501 67.7654 62.068 67.802 61.9223 67.8751H62.0316C62.1773 67.802 62.323 67.7654 62.4687 67.6922H62.3958ZM60.7202 67.9117C60.5745 67.9482 60.4288 68.0214 60.2831 68.058C60.3196 68.058 60.3924 68.058 60.4288 68.0945C60.5745 68.058 60.7202 67.9848 60.8659 67.9482C60.7931 67.9117 60.7567 67.9117 60.7202 67.9117ZM64.035 67.3997C63.8893 67.4728 63.7436 67.5094 63.5979 67.5825H63.6707C63.8164 67.5094 63.9257 67.4728 64.0714 67.3997H64.035ZM61.558 67.6557C61.4123 67.6923 61.2666 67.7654 61.0845 67.802H61.1938C61.3395 67.7654 61.4852 67.6923 61.6309 67.6557H61.558ZM59.846 67.8385C59.7003 67.8751 59.5546 67.9117 59.4089 67.9482C59.4453 67.9482 59.5182 67.9482 59.5546 67.9848C59.7003 67.9482 59.8096 67.9117 59.9553 67.8751L59.846 67.8385ZM62.7965 67.546H62.8694C63.0151 67.4728 63.1243 67.4363 63.27 67.3997H63.2336C63.0515 67.4363 62.9422 67.5094 62.7965 67.546ZM64.4721 67.2168C64.5814 67.1803 64.6906 67.1071 64.7999 67.0706C64.6906 67.1071 64.5449 67.1803 64.4721 67.2168ZM60.2831 67.7288H60.356C60.5017 67.6923 60.611 67.6557 60.7567 67.6191H60.7202C60.5745 67.6557 60.4288 67.6923 60.2831 67.7288ZM61.9951 67.5094H62.0316C62.1408 67.4728 62.2501 67.4363 62.3958 67.3631C62.2501 67.4363 62.1044 67.4728 61.9951 67.5094ZM58.9718 67.7288C58.8261 67.7654 58.7168 67.802 58.5711 67.802L58.6804 67.8385C58.7897 67.802 58.9354 67.7654 59.0447 67.7288H58.9718ZM59.4453 67.6191H59.4818C59.591 67.5825 59.7367 67.546 59.846 67.5094C59.7003 67.546 59.591 67.5825 59.4453 67.6191ZM57.7333 67.6922H57.8062C57.9155 67.6557 58.0247 67.6557 58.134 67.6191H58.0612C57.9883 67.6191 57.8426 67.6557 57.7333 67.6922ZM56.8591 67.5094H56.8955C57.0048 67.5094 57.0777 67.4728 57.1869 67.4728H57.1505C57.0777 67.5094 56.9684 67.5094 56.8591 67.5094ZM58.6075 67.5094C58.6804 67.5094 58.7168 67.5094 58.7533 67.4728C58.7168 67.5094 58.6804 67.5094 58.6075 67.5094ZM61.1938 67.4728L61.2666 67.4363L61.1938 67.4728Z" fill="#DFDFDF"/>
</svg>
