<svg width="293" height="235" viewBox="0 0 293 235" fill="none" xmlns="http://www.w3.org/2000/svg">
<rect y="6.02713" width="292.82" height="223.508" rx="13.5611" fill="#2E2E2E"/>
<g clip-path="url(#clip0_4172_1013)">
<path d="M172.53 199.231C145.718 208.557 118.914 217.887 92.0999 227.206C79.3081 231.641 67.4501 225.915 62.9876 213.106C49.0376 173.04 35.1004 132.971 21.176 92.8969C16.7376 80.1365 22.3847 68.0276 35.1039 63.5893C88.7844 44.8534 142.485 26.1963 196.192 7.5371C210.925 2.41273 222.024 11.9399 225.377 21.7847C239.067 62.0262 253.199 102.121 267.158 142.276C271.599 155.043 265.946 166.724 253.193 171.167C226.309 180.532 199.416 189.872 172.527 199.225L172.53 199.231ZM138.131 150.714C138.675 149.358 139.027 148.52 139.35 147.663C146.589 128.414 153.753 109.133 161.101 89.9322C165.059 79.585 175.84 75.9066 185.376 81.4529C204.321 92.468 223.235 103.537 242.165 114.571C243.358 115.266 244.565 115.942 246.203 116.868C245.909 115.797 245.81 115.308 245.648 114.842C235.23 84.8888 224.83 54.929 214.382 24.9933C212.097 18.4429 206.546 15.9276 199.779 18.2812C146.24 36.8892 92.7055 55.5099 39.1689 74.1456C32.0832 76.6102 29.4376 82.0766 31.8834 89.1082C44.7057 125.993 57.5408 162.873 70.3695 199.756C70.6272 200.497 70.97 201.215 71.4289 202.309C72.0532 201.082 72.4888 200.279 72.8878 199.453C80.8826 182.912 88.8516 166.359 96.8786 149.828C100.21 142.963 106.6 139.237 113.867 140.089C116.072 140.345 118.298 141.132 120.329 142.079C126.2 144.798 131.985 147.719 138.129 150.729L138.131 150.714ZM168.743 188.571C171.842 187.493 174.948 186.412 178.048 185.334C201.914 177.033 225.777 168.747 249.634 160.42C256.322 158.087 258.807 152.92 256.567 146.253C255.385 142.734 254.272 139.184 252.853 135.761C252.29 134.41 251.188 132.99 249.948 132.261C234.428 123.076 218.835 114.009 203.256 104.923C195.47 100.379 187.685 95.8202 179.876 91.3127C176.183 89.1825 173.162 90.2617 171.528 94.1951C171.108 95.2075 170.737 96.2385 170.351 97.2675C162.673 117.7 155.004 138.137 147.311 158.568C145.132 164.366 142.605 165.345 137.042 162.648C129.836 159.155 122.644 155.643 115.421 152.184C111.406 150.259 108.756 151.231 106.776 155.263C106.404 156.022 106.045 156.777 105.675 157.543C96.7679 175.983 87.8609 194.424 78.9539 212.864C77.628 215.609 77.8076 215.94 80.6749 216.969C83.4841 217.975 86.1155 217.339 88.7941 216.407C115.431 207.114 142.082 197.858 168.735 188.588L168.743 188.571Z" fill="#FF0071" fill-opacity="0.2"/>
<path d="M89.6894 125.143C78.3135 129.086 65.8184 122.987 61.9324 111.609C58.111 100.417 64.1983 87.8468 75.3626 83.8919C86.5461 79.9304 99.305 86.1097 103.237 97.3927C107.186 108.748 101.123 121.181 89.6894 125.143Z" fill="#FF0071" fill-opacity="0.2"/>
<path d="M143.578 113.394H145.555V106.579L148.258 109.359L149.643 107.935L144.501 102.782L139.425 108.003L140.809 109.427L143.578 106.579V113.394ZM135.931 117.53C135.403 117.53 134.942 117.326 134.546 116.92C134.151 116.513 133.953 116.038 133.953 115.496V92.4418C133.953 91.8993 134.151 91.4247 134.546 91.0178C134.942 90.611 135.403 90.4076 135.931 90.4076H147.83L155.048 97.8323V115.496C155.048 116.038 154.85 116.513 154.455 116.92C154.059 117.326 153.598 117.53 153.071 117.53H135.931ZM146.841 98.7477V92.4418H135.931V115.496H153.071V98.7477H146.841Z" fill="#FF0071"/>
<path d="M109.833 159.109C108.36 159.109 107.34 158.737 106.773 157.995C106.207 157.239 105.923 156.156 105.923 154.746V143.622H107.321V154.784C107.321 155.791 107.497 156.572 107.85 157.126C108.215 157.68 108.876 157.957 109.833 157.957C110.752 157.957 111.4 157.68 111.778 157.126C112.156 156.559 112.345 155.779 112.345 154.784V143.622H113.723V154.746C113.723 156.131 113.428 157.208 112.836 157.976C112.257 158.731 111.256 159.109 109.833 159.109ZM120.959 143.622H124.623C125.92 143.622 126.845 143.974 127.4 144.679C127.966 145.385 128.249 146.386 128.249 147.682C128.249 148.866 127.954 149.829 127.362 150.572C126.783 151.315 125.876 151.686 124.642 151.686H122.395V158.92H120.959V143.622ZM124.227 150.61C125.171 150.61 125.838 150.396 126.229 149.968C126.631 149.527 126.833 148.765 126.833 147.682C126.833 146.889 126.757 146.285 126.606 145.869C126.455 145.441 126.197 145.139 125.832 144.963C125.467 144.786 124.938 144.698 124.245 144.698H122.395V150.61H124.227ZM134.811 143.622H136.246V157.843H140.59V158.92H134.811V143.622ZM150.296 159.109C148.861 159.109 147.841 158.7 147.237 157.881C146.645 157.063 146.349 155.904 146.349 154.406V148.06C146.349 146.574 146.651 145.441 147.256 144.661C147.86 143.867 148.874 143.471 150.296 143.471C151.694 143.471 152.695 143.867 153.299 144.661C153.904 145.454 154.206 146.587 154.206 148.06V154.425C154.206 155.923 153.91 157.082 153.318 157.9C152.727 158.706 151.719 159.109 150.296 159.109ZM150.296 157.957C151.228 157.957 151.87 157.686 152.223 157.145C152.575 156.591 152.752 155.785 152.752 154.727V147.796C152.752 146.738 152.575 145.945 152.223 145.416C151.883 144.887 151.241 144.623 150.296 144.623C149.34 144.623 148.685 144.887 148.332 145.416C147.98 145.932 147.803 146.726 147.803 147.796V154.727C147.803 155.797 147.98 156.603 148.332 157.145C148.685 157.686 149.34 157.957 150.296 157.957ZM163.713 143.622H165.224L168.473 158.92H167.056L166.301 154.822H162.656L161.881 158.92H160.484L163.713 143.622ZM166.112 153.783L164.488 145.529L162.863 153.783H166.112ZM175.037 143.622H178.361C179.872 143.622 180.942 144.012 181.572 144.793C182.202 145.561 182.516 146.669 182.516 148.117V154.198C182.516 155.722 182.208 156.893 181.591 157.711C180.987 158.517 179.954 158.92 178.493 158.92H175.037V143.622ZM178.399 157.843C179.167 157.843 179.74 157.686 180.118 157.371C180.508 157.044 180.76 156.616 180.873 156.087C180.987 155.546 181.043 154.841 181.043 153.972V148.268C181.043 147.437 180.974 146.776 180.835 146.285C180.697 145.781 180.432 145.397 180.042 145.133C179.652 144.868 179.085 144.736 178.342 144.736H176.473V157.843H178.399Z" fill="white"/>
</g>
<rect x="3.25894" y="12.8077" width="286.291" height="209.947" rx="13.31" stroke="white" stroke-width="0.502265"/>
<defs>
<clipPath id="clip0_4172_1013">
<rect width="216.243" height="173.301" fill="white" transform="translate(13.5625 71.0401) rotate(-19.179)"/>
</clipPath>
</defs>
</svg>
