<svg width="60" height="65" viewBox="0 0 60 65" fill="none" xmlns="http://www.w3.org/2000/svg">
<g clip-path="url(#clip0_1735_304)">
<path d="M51.2483 56.5476C50.017 57.6594 48.675 58.6324 47.2449 59.45L47.2252 59.4611L47.0368 59.567L42.5518 62.096C42.2827 62.2474 42.0064 62.3952 41.7014 62.5503L41.6117 62.5931C41.3363 62.7315 41.0475 62.8718 40.7533 63.0018C40.6743 63.0371 40.5945 63.0715 40.5156 63.105L40.4384 63.1384C40.2043 63.2397 39.972 63.3354 39.7486 63.4236C39.6356 63.4682 39.5226 63.5166 39.4086 63.5546C39.1745 63.6476 38.927 63.7302 38.6516 63.8222L38.387 63.9151C38.0434 64.0257 37.6963 64.1279 37.3572 64.2189L37.3123 64.2319L37.1957 64.2607L37.1177 64.2784C36.828 64.3527 36.5651 64.4159 36.3104 64.4716L36.0485 64.5255L35.9498 64.545C35.7103 64.5933 35.469 64.6379 35.2322 64.6779C35.1075 64.6993 34.9828 64.7197 34.8581 64.7383C34.6258 64.7736 34.3728 64.808 34.0858 64.8414L33.9423 64.8591L33.7718 64.8786C33.3843 64.9185 33.0273 64.9473 32.6757 64.9715L32.5107 64.9771C32.1886 64.9929 31.8711 65.0021 31.567 65.0059C31.4773 65.0059 31.3939 65.0059 31.3069 65.0059H31.2001C30.931 65.0059 30.6754 64.9994 30.4305 64.9901L30.0286 64.9724C29.7829 64.9585 29.5236 64.9408 29.2348 64.9157L29.0957 64.9046L28.8751 64.8851C28.4535 64.8433 28.0758 64.7977 27.7224 64.7457C27.3358 64.69 26.9295 64.6194 26.4424 64.5237C26.341 64.5042 26.2406 64.4828 26.1401 64.4614L26.0719 64.4466C25.7535 64.3797 25.4315 64.3053 25.1148 64.2264L24.7713 64.14C24.3228 64.022 23.9182 63.9058 23.5307 63.7832L23.3639 63.7275C23.0113 63.6132 22.6534 63.4905 22.3009 63.3558C22.1789 63.3112 22.0578 63.2629 21.9367 63.2183C21.6219 63.0975 21.3088 62.9712 21.0056 62.8467L20.7132 62.7231C20.306 62.5457 19.9489 62.3821 19.6197 62.2214L19.548 62.1852C19.4583 62.1415 19.3686 62.0923 19.2861 62.0505L19.1336 61.9715C18.8716 61.8386 18.5954 61.6928 18.32 61.546C18.2141 61.4874 18.1092 61.4271 18.0042 61.3667L17.8437 61.2738C17.6257 61.1493 17.3692 61.0006 17.1171 60.8473C16.9664 60.7544 16.8166 60.6615 16.6686 60.5686L16.6282 60.5426C16.3717 60.3809 16.1465 60.2341 15.9393 60.0948C15.7761 59.9851 15.6143 59.8743 15.454 59.7622L15.3186 59.6692C15.2549 59.6256 15.1912 59.5828 15.1293 59.5382C15.0324 59.4686 14.9374 59.397 14.8423 59.3264L14.418 59.0115C14.0484 58.7327 13.7103 58.4642 13.381 58.1939L13.2501 58.0833C12.9604 57.8427 12.6643 57.5881 12.3701 57.3252C12.2867 57.2518 12.2051 57.1775 12.1091 57.0901L11.9512 56.948C11.8956 56.8978 11.84 56.8486 11.7853 56.7975C11.6157 56.6395 11.4489 56.4769 11.3018 56.3329L11.1107 56.1471C10.8111 55.8517 10.5097 55.5442 10.1904 55.205L9.96793 54.9653C9.71408 54.6922 9.46472 54.4144 9.22611 54.1403L8.96508 53.843C8.9301 53.8021 8.8969 53.7603 8.86282 53.7167L8.78747 53.6238C8.46455 53.2391 8.1488 52.848 7.85189 52.4615C7.73767 52.3147 7.62495 52.1667 7.51372 52.0174C7.22219 51.629 6.93156 51.2239 6.649 50.8142C6.62478 50.778 6.59967 50.7436 6.57366 50.7083C6.54764 50.673 6.50817 50.62 6.47498 50.5717L6.2283 50.1955C6.03186 49.8972 5.83721 49.5925 5.63359 49.2664L5.60488 49.2199C5.55017 49.1326 5.49635 49.0453 5.44342 48.957C5.18508 48.5315 4.96532 48.1543 4.75272 47.7734C4.57332 47.4584 4.39931 47.1295 4.22439 46.7923L4.12033 46.5841C4.05575 46.4578 3.99296 46.3296 3.92837 46.1986L3.88263 46.1057C3.73373 45.8047 3.60455 45.5343 3.48615 45.2797C3.40721 45.1116 3.33097 44.9425 3.25562 44.7734C3.1408 44.5169 3.0215 44.241 2.89054 43.9288L2.83582 43.7978C2.78559 43.6771 2.73446 43.5554 2.68512 43.4327C2.54698 43.088 2.41602 42.7452 2.32183 42.486L2.25814 42.316C2.22854 42.237 2.19804 42.1571 2.16844 42.0781L2.13167 41.9787C2.07695 41.8245 2.02582 41.6675 1.97559 41.5142L1.83476 41.0896C1.78184 40.9326 1.72622 40.7709 1.67509 40.6055C1.6123 40.4039 1.55489 40.2033 1.49569 39.9821L1.38087 39.5854C1.33692 39.4358 1.29117 39.276 1.24812 39.1209C1.19161 38.9128 1.14137 38.7028 1.09293 38.5003L0.990671 38.0794C0.952996 37.9298 0.913533 37.77 0.877652 37.6148C0.831905 37.4077 0.787952 37.1968 0.749381 36.9887L0.65968 36.5241C0.628285 36.3764 0.598683 36.2315 0.569979 36.0837C0.529614 35.8598 0.495525 35.6341 0.461439 35.4046L0.393265 34.9698C0.369943 34.8267 0.346622 34.6827 0.326888 34.5377C0.295492 34.3027 0.269476 34.0639 0.245257 33.8326L0.193234 33.368C0.177985 33.2389 0.162733 33.1098 0.151072 32.9806C0.122368 32.6675 0.103531 32.3488 0.0846943 32.0422L0.0622691 31.7069C0.055093 31.6065 0.0479196 31.5071 0.0425375 31.4058C0.0183183 30.867 0.00485836 30.3337 0.00396136 29.8264C-0.0148758 19.1513 4.79668 10.0603 12.876 5.50785L17.0767 3.14149C17.2292 3.04858 17.3835 2.96311 17.5378 2.87671L17.5701 2.85626C20.9213 0.989754 24.6861 0.0197983 28.6742 0.0197983C29.8827 0.0212326 31.0896 0.10939 32.2864 0.283653C47.5355 2.50414 59.9726 18.1739 60.004 35.2169C60.0156 43.7328 56.8259 51.5166 51.2483 56.5476ZM17.8795 3.45924L17.7665 3.52242L17.5046 3.67385L17.3799 3.74632C17.2947 3.79649 17.2104 3.84759 17.1252 3.89962L16.8758 4.05384L16.7045 4.16069C16.549 4.26103 16.3941 4.36323 16.2398 4.46729L16.2129 4.48587C15.3589 5.06606 14.544 5.70581 13.7739 6.40069C8.52195 11.139 5.44432 18.3951 5.26223 26.4093C5.26223 26.439 5.26223 26.4678 5.26223 26.5022C5.25804 26.7437 5.25565 26.9859 5.25505 27.2287C5.25505 27.6319 5.26671 28.0398 5.28106 28.4458C5.28106 28.5601 5.28824 28.6734 5.29362 28.7877C5.29362 28.8806 5.30439 28.9689 5.31156 29.0618L5.33758 29.452C5.35552 29.7381 5.37256 30.0345 5.39947 30.3235C5.40934 30.4349 5.4219 30.5446 5.43535 30.6551L5.48737 31.1197C5.50262 31.2628 5.51698 31.3984 5.53223 31.5313C5.54747 31.6483 5.56004 31.7645 5.57618 31.8806C5.59233 31.9967 5.61385 32.1296 5.63359 32.2522L5.70624 32.7168C5.72149 32.8199 5.73764 32.9239 5.75379 33.0299C5.77532 33.1534 5.79505 33.277 5.81658 33.4015C5.81658 33.4136 5.81658 33.4256 5.82375 33.4368C5.83452 33.4953 5.84618 33.5529 5.85694 33.6115C5.86771 33.67 5.88116 33.7322 5.89372 33.7973L5.98342 34.2618C6.00017 34.346 6.01721 34.4315 6.03455 34.5182C6.0812 34.7394 6.13053 34.9605 6.18166 35.1797C6.19243 35.2225 6.20229 35.2643 6.21306 35.308L6.32339 35.7595L6.36734 35.9453C6.43282 36.2017 6.501 36.4563 6.57186 36.7109C6.57993 36.7406 6.5889 36.7694 6.59787 36.7991L6.71987 37.2228C6.73422 37.2748 6.75036 37.3287 6.76561 37.3816C6.85531 37.679 6.94502 37.9735 7.04279 38.268L7.04727 38.2801L7.18452 38.6926L7.21681 38.7855C9.74458 46.1503 14.5391 52.5618 20.576 56.7222L20.7284 56.8272C20.8905 56.9375 21.0535 57.0465 21.2173 57.1542L21.3277 57.2249C21.4443 57.301 21.5618 57.3744 21.6793 57.4488L21.9188 57.5983C22.0749 57.695 22.2318 57.7897 22.3897 57.8826C22.5153 57.956 22.6373 58.0257 22.7485 58.0898L22.8732 58.1614L22.9441 58.2022L23.1073 58.2951C23.2742 58.3868 23.4413 58.4769 23.6087 58.5655C23.7343 58.6315 23.8653 58.6984 24.0079 58.7708L24.1694 58.8544L24.2411 58.8907C24.6914 59.1155 25.1471 59.3286 25.6082 59.5299L25.8387 59.6228C26.1419 59.751 26.4478 59.8746 26.7492 59.9944C26.8676 60.0399 26.9851 60.0873 27.1035 60.1291C27.4623 60.2592 27.8076 60.3791 28.144 60.4878L28.2893 60.5361C28.4822 60.5974 28.675 60.655 28.8688 60.7117L29.146 60.7897L29.2725 60.8241L29.5164 60.8901L29.7165 60.9402L29.8519 60.9737C30.1578 61.0499 30.4718 61.1223 30.7857 61.1892L30.8503 61.2022C30.949 61.2236 31.0476 61.245 31.1463 61.2635C31.393 61.3128 31.6181 61.3565 31.8289 61.3908C32.0173 61.4224 32.2057 61.4531 32.3949 61.4837C32.508 61.5005 32.6219 61.5153 32.7358 61.5302C32.9807 61.5618 33.2381 61.5915 33.5189 61.6231C33.5978 61.6315 33.6759 61.637 33.7539 61.6435L33.8687 61.6528C34.1477 61.677 34.4007 61.6946 34.6419 61.7076C34.7738 61.7141 34.9039 61.7206 35.033 61.7253C35.2734 61.7337 35.5264 61.7392 35.7829 61.7411H35.9247C35.9973 61.7411 36.0709 61.7411 36.1426 61.7411C36.4458 61.7411 36.7553 61.729 37.0639 61.7132H37.1347L37.4514 61.6956H37.5079L37.8254 61.6705C37.977 61.6575 38.1313 61.6435 38.2856 61.6277L38.5924 61.5906C38.866 61.559 39.1117 61.5265 39.3441 61.4912C39.4661 61.4726 39.5872 61.4521 39.7091 61.4317C39.9361 61.3936 40.1702 61.3499 40.4043 61.3026L40.4833 61.2868C40.573 61.2691 40.6627 61.2505 40.7524 61.231C40.9937 61.1781 41.2493 61.1177 41.5346 61.0452L41.7633 60.9876C42.0889 60.9003 42.4262 60.8018 42.7644 60.6931L43.0218 60.6058C43.2909 60.5128 43.534 60.4292 43.7582 60.3447C43.8686 60.3038 43.978 60.2611 44.0874 60.2183C44.3054 60.1329 44.5306 60.039 44.7584 59.9396L44.8364 59.9062C44.9127 59.8736 44.988 59.8411 45.0634 59.8068C45.3504 59.6776 45.6294 59.5448 45.8967 59.41L45.9999 59.3599C46.269 59.2224 46.5381 59.0811 46.791 58.9362L46.9238 58.86C48.3103 58.065 49.6117 57.1201 50.806 56.0412C56.2365 51.1422 59.3429 43.5507 59.3276 35.2132C59.2998 18.488 47.1247 3.12663 32.1868 0.952591C27.0676 0.206543 22.1305 1.09195 17.876 3.45924H17.8795ZM38.4354 62.2883L38.3565 62.2976H38.3313L38.1519 62.3153C37.9779 62.332 37.8093 62.3459 37.6433 62.358H37.5967L37.2567 62.3803H37.1356C36.9622 62.3883 36.7882 62.3952 36.6136 62.4007C35.3853 62.4357 34.1562 62.3792 32.9358 62.2316C32.7717 62.2121 32.6138 62.1926 32.4613 62.1712H32.4308L32.3232 62.1564H32.2981L32.2541 62.1499L32.1644 62.1369C31.9922 62.1109 31.8146 62.0811 31.6262 62.044C30.789 61.9003 29.9605 61.716 29.1406 61.4912C28.9827 61.4484 28.8275 61.4057 28.6777 61.362L28.6356 61.3499C28.4562 61.297 28.2768 61.244 28.1045 61.1892L27.9987 61.1539C27.8767 61.1149 27.7547 61.0731 27.6327 61.0322L27.3843 60.9486L27.0658 60.8352C27.0021 60.812 26.9384 60.7906 26.8748 60.7665L26.7456 60.7182L26.5204 60.6336H26.5115C26.35 60.5714 26.1858 60.5063 26.0208 60.4404L25.8055 60.3475C25.7302 60.3159 25.6548 60.2862 25.5795 60.2546L25.2861 60.1319C24.8942 59.961 24.5031 59.7789 24.12 59.5931C24.0303 59.5503 23.946 59.5002 23.8599 59.4602L23.7029 59.3794C23.415 59.2326 23.1558 59.1007 22.8956 58.9539C22.7835 58.8925 22.6723 58.8284 22.5539 58.7597L22.4202 58.6826C22.1879 58.5497 21.9385 58.4038 21.6927 58.2571C21.5349 58.1641 21.3788 58.0619 21.203 57.9495C20.9339 57.7786 20.7141 57.6364 20.515 57.5026C20.3517 57.393 20.1893 57.2815 20.0279 57.1682C19.7588 56.9777 19.5112 56.803 19.2807 56.633L18.9927 56.4184C18.6214 56.1397 18.2832 55.8712 17.9567 55.6027L17.8221 55.4893C17.5396 55.2543 17.2525 55.0071 16.944 54.7331L16.6524 54.4692C16.3717 54.2137 16.0981 53.9573 15.8398 53.7064L15.6864 53.5587C15.3877 53.2651 15.0863 52.9576 14.7651 52.6166L14.5427 52.3779C14.2906 52.1056 14.0404 51.8278 13.8009 51.5519L13.6215 51.3484C13.5712 51.289 13.521 51.2286 13.4716 51.1682L13.3631 51.0353C13.0492 50.6637 12.7352 50.2707 12.4257 49.8721C12.3127 49.7253 12.2003 49.5776 12.0885 49.429C11.7898 49.0295 11.4991 48.6244 11.2246 48.2258L11.1197 48.0762C11.0722 48.0084 11.0237 47.9397 10.9753 47.8681L10.803 47.6052C10.6057 47.306 10.4093 46.9994 10.22 46.6938L10.0182 46.3649C9.76162 45.9422 9.54186 45.5659 9.32658 45.1803C9.13282 44.8328 8.93279 44.4556 8.69867 43.9911C8.63498 43.8666 8.57309 43.7402 8.51119 43.6148L8.46096 43.5145C8.31385 43.2162 8.18379 42.9459 8.06448 42.6885C7.98674 42.5194 7.9096 42.35 7.83305 42.1803C7.71644 41.9183 7.59714 41.6424 7.46977 41.3377L7.43748 41.2587C7.37768 41.1199 7.31967 40.9806 7.26346 40.8406C7.12621 40.4978 6.99435 40.154 6.90465 39.8939L6.84186 39.7266C6.81136 39.6467 6.78086 39.5659 6.75216 39.4851C6.68758 39.3048 6.62658 39.1199 6.56738 38.9425L6.42116 38.5021C6.36645 38.3432 6.31083 38.1788 6.2597 38.0116C6.19781 37.8137 6.1413 37.6186 6.0803 37.4021L6.07223 37.3761C6.05429 37.3157 6.03724 37.2544 6.0202 37.1903L5.94754 36.9394C5.90628 36.8 5.86592 36.6607 5.82824 36.5204C5.77891 36.3346 5.73854 36.1488 5.6919 35.9732C5.65183 35.8127 5.61236 35.652 5.57349 35.491L5.56721 35.464C5.53043 35.3182 5.49186 35.1639 5.45778 35.0088C5.42369 34.8536 5.3914 34.6957 5.3609 34.5396C5.31246 34.3104 5.26642 34.0806 5.22276 33.8502C5.19854 33.7285 5.17342 33.605 5.15189 33.4786C5.12678 33.3402 5.10436 33.1999 5.08283 33.0614C5.02811 32.7344 4.97608 32.4111 4.93034 32.0766C4.92316 32.0283 4.91509 31.9837 4.90881 31.9317C4.89087 31.8007 4.87472 31.6697 4.86037 31.535C4.81283 31.155 4.77067 30.775 4.73479 30.3922V30.3718L4.72402 30.2315C4.63432 29.2318 4.58947 28.2256 4.58768 27.2138C4.5805 22.7654 5.39499 18.5929 7.0096 14.8125C8.43315 11.4762 10.4102 8.60632 12.8958 6.26505C5.22186 10.7497 0.663267 19.5164 0.681207 29.7957C0.681207 30.3012 0.694661 30.8233 0.71888 31.3473C0.71888 31.4402 0.730543 31.5331 0.737719 31.626L0.761037 31.9707C0.778977 32.2717 0.797817 32.583 0.825624 32.8877C0.835491 33.0011 0.848944 33.1135 0.862399 33.2259L0.914427 33.6904C0.941337 33.9487 0.966453 34.181 0.997848 34.4133C1.01669 34.5508 1.03911 34.692 1.06154 34.8285L1.13061 35.2699C1.1638 35.4938 1.19699 35.714 1.23556 35.9295C1.25888 36.0596 1.28489 36.1887 1.3118 36.3179L1.41227 36.8196C1.45173 37.0193 1.4912 37.2256 1.53695 37.4281C1.57014 37.5777 1.60692 37.7254 1.64549 37.8796L1.75941 38.3442C1.80336 38.53 1.84911 38.7223 1.89934 38.909C1.93971 39.0586 1.98366 39.2082 2.02762 39.3597L2.14423 39.7619C2.20074 39.9617 2.25994 40.1689 2.32363 40.3686C2.37296 40.5256 2.42589 40.6808 2.47881 40.8332L2.6322 41.2977C2.67615 41.4352 2.7219 41.5764 2.77034 41.7121L2.80801 41.8115C2.83492 41.8877 2.86363 41.9639 2.89233 42.0391L2.95782 42.2128C3.06097 42.4916 3.18476 42.8195 3.31662 43.1419C3.36685 43.2658 3.41798 43.3897 3.47 43.5135L3.51845 43.6306C3.64761 43.94 3.76512 44.2113 3.87725 44.4593C3.9514 44.626 4.02675 44.7913 4.10329 44.9555C4.22439 45.2147 4.35177 45.4804 4.49349 45.7675L4.53924 45.8604C4.60114 45.9858 4.66303 46.1112 4.72761 46.2376L4.82987 46.4429C4.99761 46.7662 5.17073 47.0886 5.36 47.4268C5.54927 47.765 5.77173 48.1468 6.02558 48.5659C6.08658 48.6671 6.14847 48.7684 6.22292 48.8873C6.40232 49.1809 6.59787 49.4829 6.79611 49.7839L7.0392 50.1555C7.05983 50.1862 7.08226 50.2168 7.10468 50.2484L7.11993 50.2689C7.15043 50.3097 7.18003 50.3506 7.20963 50.3924C7.4886 50.7975 7.77385 51.1951 8.0582 51.5742C8.16764 51.721 8.27887 51.8659 8.3901 52.0099C8.68611 52.3937 8.99468 52.7774 9.30863 53.1509L9.38578 53.2438L9.39744 53.2586C9.42435 53.2939 9.45215 53.3292 9.48086 53.3627L9.7374 53.6544C9.9769 53.9331 10.2218 54.2016 10.4658 54.4646L10.6846 54.7006C11.004 55.0378 11.2991 55.3398 11.5816 55.6222L11.7835 55.8173C11.9342 55.9622 12.0885 56.1127 12.2445 56.2577C12.2984 56.3079 12.3531 56.3571 12.4087 56.4063L12.5675 56.5503C12.65 56.6256 12.7325 56.7009 12.8168 56.7752C13.103 57.0307 13.3936 57.2806 13.6816 57.5184L13.8098 57.6271C14.1211 57.8836 14.453 58.1446 14.8234 58.4252L15.245 58.7392C15.3347 58.8071 15.4244 58.8758 15.5213 58.9427C15.5778 58.9836 15.6361 59.0235 15.6953 59.0635L15.838 59.1564C15.9958 59.2666 16.1543 59.3753 16.3134 59.4825C16.5197 59.6209 16.7403 59.7612 16.9888 59.922L17.0301 59.948C17.1754 60.0409 17.3198 60.1338 17.4669 60.2211C17.7037 60.3661 17.9486 60.5063 18.1792 60.6392L18.3227 60.721C18.4294 60.7832 18.5371 60.8445 18.6447 60.9068C18.9066 61.0508 19.1703 61.1855 19.4412 61.323L19.6305 61.4215C19.7023 61.4586 19.7731 61.4958 19.8467 61.532L19.9193 61.5692C20.245 61.7272 20.593 61.8879 20.9823 62.0579L21.2702 62.1778C21.5734 62.3069 21.8802 62.4305 22.1807 62.5494H22.1897L22.535 62.6795C22.8875 62.8086 23.2374 62.9294 23.5756 63.0381L23.7388 63.0929C24.1147 63.2118 24.5102 63.3252 24.9462 63.4404L25.2835 63.5249C25.5875 63.6011 25.9015 63.6736 26.2163 63.7395L26.2872 63.7544C26.3832 63.7748 26.4801 63.7962 26.5778 63.8148C27.0559 63.9077 27.4524 63.9774 27.8256 64.0322C28.1664 64.0814 28.5342 64.1251 28.9504 64.1678C29.0249 64.1753 29.1002 64.1808 29.1747 64.1873L29.3003 64.1976C29.5801 64.2217 29.8331 64.2394 30.0735 64.2524L30.4655 64.2691C30.705 64.2784 30.957 64.284 31.2145 64.2849H31.5733C31.8765 64.2849 32.185 64.2728 32.4936 64.257L32.656 64.2515C32.9986 64.2319 33.3556 64.2031 33.7162 64.166L34.023 64.1288C34.2921 64.0963 34.5424 64.0638 34.7738 64.0285C34.8958 64.0099 35.0187 63.9895 35.1398 63.9699C35.3658 63.9318 35.5991 63.8882 35.835 63.8408L35.9318 63.8213L36.1848 63.7693C36.4243 63.7163 36.68 63.6559 36.967 63.5834L37.1957 63.5268C37.5213 63.4394 37.8586 63.341 38.1959 63.2323L38.4542 63.144C38.7233 63.0511 38.9619 62.9703 39.1907 62.8838C39.301 62.843 39.4104 62.8002 39.5199 62.7566C39.737 62.6711 39.9621 62.5782 40.1908 62.4778L40.2689 62.4444C40.3451 62.4119 40.4205 62.3794 40.4958 62.345C40.7847 62.214 41.0645 62.0811 41.33 61.9473L41.4323 61.8981C41.6171 61.8052 41.801 61.7067 41.9813 61.6082C40.8166 61.9285 39.63 62.1559 38.4318 62.2883H38.4354Z" fill="white"/>
<path d="M29.1675 4.23102C30.2119 4.23212 31.255 4.30849 32.2891 4.45957C45.4752 6.37904 56.2213 19.9231 56.2473 34.6545C56.2608 42.036 53.5034 48.7644 48.6811 53.1143C44.2597 57.1029 38.4937 58.83 32.4317 57.9845L32.2981 57.965L32.168 57.9465C19.043 55.9564 8.36591 42.4523 8.33989 27.7719C8.32644 20.3914 11.0838 13.6649 15.9053 9.31585C19.5902 5.99162 24.1775 4.23473 29.1693 4.23473L29.1675 4.23102ZM32.2039 5.09227C26.2711 4.22823 20.6262 5.89778 16.3071 9.79339C11.6212 14.0207 8.94089 20.5707 8.95165 27.7673C8.97767 42.1921 19.4888 55.4537 32.3824 57.3305C33.3877 57.4778 34.4017 57.5523 35.417 57.5535C40.2608 57.5535 44.7046 55.8505 48.2747 52.6294C52.9625 48.4011 55.6427 41.8521 55.6302 34.6517C55.606 20.2297 45.0966 6.969 32.2039 5.09227Z" fill="white"/>
<path d="M44.5215 47.5548C41.2286 50.5278 36.9355 51.8164 32.4218 51.1967L32.2881 51.1772L32.1581 51.1586C22.3762 49.6545 14.4251 39.5879 14.4063 28.6462C14.3964 23.1368 16.455 18.1152 20.0574 14.869C22.8094 12.3865 26.2342 11.0737 29.9631 11.0737C30.7434 11.075 31.5226 11.1321 32.2953 11.2447C42.1346 12.6773 50.1547 22.7838 50.1745 33.7738C50.1807 39.2841 48.1221 44.3076 44.5215 47.5548ZM49.6434 33.7757C49.6246 23.0467 41.8072 13.1818 32.2182 11.7863C27.8076 11.1443 23.6069 12.3846 20.4019 15.2806C16.917 18.4236 14.9248 23.2948 14.9301 28.6453C14.9499 39.3752 22.7682 49.241 32.3581 50.6365C33.1055 50.7457 33.8593 50.801 34.6141 50.8019C38.2129 50.8019 41.521 49.5365 44.1717 47.1423C47.6601 43.9992 49.6533 39.1271 49.6434 33.7757Z" fill="white"/>
<path d="M40.2703 41.8754C38.1301 43.806 35.3431 44.6514 32.4116 44.2612L32.278 44.2417L32.1488 44.2222C25.7881 43.2169 20.6268 36.6642 20.6133 29.5428C20.607 25.9464 21.9516 22.6677 24.3027 20.5466C26.0967 18.9244 28.3392 18.0678 30.7746 18.0678C31.2848 18.068 31.7943 18.1053 32.2995 18.1793C38.7194 19.1139 43.9534 25.7048 43.966 32.8763C43.966 36.4746 42.6214 39.7543 40.2703 41.8754ZM33.7966 43.9017C36.1288 43.9017 38.2637 43.0822 39.9806 41.5335C42.2365 39.4988 43.5264 36.3446 43.5202 32.8782C43.5076 25.925 38.4431 19.5329 32.2295 18.628C29.3762 18.2127 26.66 19.0155 24.5835 20.8894C22.3284 22.9231 21.0385 26.0774 21.0448 29.5428C21.0591 36.4969 26.1254 42.8899 32.339 43.7902C32.8217 43.8625 33.3088 43.8998 33.7966 43.9017Z" fill="white"/>
<path d="M28.0978 25.6157C29.0409 24.7621 30.254 24.2972 31.5064 24.3094C31.7741 24.3099 32.0415 24.3297 32.3065 24.3689C35.6766 24.8585 38.4232 28.3175 38.4295 32.0802C38.4295 33.9709 37.7254 35.6943 36.4884 36.8101C35.377 37.8135 33.9346 38.2595 32.4142 38.0746L32.2841 38.056L32.1504 38.0365C28.8423 37.4791 26.1674 34.0582 26.1602 30.3466C26.153 28.455 26.8608 26.7306 28.0978 25.6157ZM33.0806 37.7439C34.2463 37.7554 35.3754 37.3229 36.2534 36.5286C37.4123 35.4834 38.0752 33.8612 38.0725 32.0784C38.0653 28.4949 35.4568 25.2032 32.2563 24.734C30.7915 24.5203 29.3975 24.9328 28.3319 25.8944C27.1729 26.9387 26.51 28.5609 26.5136 30.3438C26.5199 33.9281 29.1293 37.2189 32.3298 37.689C32.5786 37.7252 32.8295 37.7435 33.0806 37.7439Z" fill="white"/>
</g>
<defs>
<clipPath id="clip0_1735_304">
<rect width="60" height="65" fill="white" transform="matrix(1 0 0 -1 0 65)"/>
</clipPath>
</defs>
</svg>
