<svg width="130" height="130" viewBox="0 0 130 130" fill="none" xmlns="http://www.w3.org/2000/svg">
<path d="M69.2055 21.0612C69.032 21.1016 68.8681 21.176 68.7233 21.2799C68.5785 21.3839 68.4557 21.5153 68.3618 21.6668C67.669 22.7814 66.4215 23.5315 65.0029 23.5315C63.5673 23.5315 62.3363 22.7863 61.6254 21.6589C61.4342 21.3548 61.1301 21.1392 60.7799 21.0593C60.4297 20.9794 60.0622 21.042 59.7581 21.2331L32.717 38.2158C32.4135 38.406 32.1977 38.7088 32.1169 39.0577C32.0361 39.4067 32.0969 39.7735 32.2859 40.0778C32.6716 40.697 32.8942 41.4221 32.8942 42.2069C32.8942 42.9747 32.6716 43.7009 32.2859 44.3201C32.0969 44.6244 32.0361 44.9912 32.1169 45.3401C32.1977 45.6891 32.4135 45.9918 32.717 46.1821L59.5703 63.0431C59.7282 63.1422 59.9049 63.2075 60.0892 63.2351C60.2735 63.2627 60.4616 63.252 60.6416 63.2036C60.8216 63.1552 60.9896 63.0701 61.1353 62.9538C61.2809 62.8374 61.4009 62.6923 61.4878 62.5274C62.1531 61.2674 63.4603 60.4194 65.0029 60.4194C66.5286 60.4194 67.8368 61.2674 68.502 62.5274C68.5889 62.6923 68.709 62.8374 68.8546 62.9538C69.0002 63.0701 69.1683 63.1552 69.3483 63.2036C69.5283 63.252 69.7163 63.2627 69.9006 63.2351C70.085 63.2075 70.2616 63.1422 70.4195 63.0431L96.8391 46.4678C96.9953 46.3699 97.1299 46.2412 97.2347 46.0895C97.3394 45.9378 97.4121 45.7663 97.4482 45.5856C97.4844 45.4048 97.4833 45.2186 97.4449 45.0383C97.4066 44.858 97.3318 44.6874 97.2253 44.537C96.7515 43.8676 96.4715 43.0775 96.4715 42.2069C96.4715 41.3257 96.7418 40.5423 97.2173 39.8847C97.3261 39.7346 97.4029 39.5638 97.443 39.3828C97.4832 39.2018 97.4857 39.0146 97.4505 38.8326C97.4153 38.6506 97.3431 38.4778 97.2384 38.3248C97.1337 38.1719 96.9987 38.042 96.8418 37.9434L70.2318 21.2331C70.0805 21.1382 69.9119 21.0741 69.7358 21.0446C69.5597 21.0151 69.3795 21.0208 69.2055 21.0612ZM60.3426 24.0657C61.5598 25.3169 63.1245 26.2398 65.0029 26.2398C66.8711 26.2398 68.4324 25.3192 69.6472 24.0657L94.5672 39.7128C94.224 40.5203 93.7631 41.2829 93.7631 42.2069C93.7631 43.1395 94.2189 43.8946 94.5619 44.6983L69.8826 60.1814C68.6545 58.7599 67.0066 57.7111 65.0029 57.7111C62.9908 57.7111 61.3366 58.7595 60.1072 60.1814L34.973 44.4021C35.2351 43.6838 35.6025 43.0061 35.6025 42.2069C35.6025 41.4 35.2333 40.7196 34.9704 39.9984L60.3426 24.0657Z" fill="white"/>
<path d="M34.1549 43.8889C33.8513 43.6984 33.4846 43.6359 33.1351 43.7152C32.7856 43.7946 32.4818 44.0092 32.2903 44.3121C31.5793 45.4395 30.3483 46.1873 28.9128 46.1873C28.5536 46.1873 28.2092 46.33 27.9553 46.584C27.7013 46.8379 27.5586 47.1823 27.5586 47.5415V78.8487C27.5586 79.2079 27.7013 79.5523 27.9553 79.8062C28.2092 80.0602 28.5536 80.2029 28.9128 80.2029C31.136 80.2029 32.8933 81.9628 32.8933 84.1861C32.8933 84.8643 32.7233 85.4981 32.4278 86.0586C32.2687 86.3604 32.2294 86.7111 32.3177 87.0406C32.4059 87.3701 32.6153 87.6542 32.9039 87.836L59.7572 104.697C60.0613 104.888 60.4288 104.951 60.779 104.871C61.1292 104.791 61.4333 104.575 61.6245 104.271C62.3355 103.144 63.5664 102.399 65.002 102.399C66.4206 102.399 67.6681 103.149 68.3609 104.263C68.455 104.415 68.578 104.546 68.723 104.65C68.868 104.754 69.032 104.828 69.2058 104.869C69.3795 104.909 69.5595 104.915 69.7354 104.885C69.9114 104.856 70.0797 104.792 70.2309 104.697L97.2588 87.7434C97.41 87.6488 97.5411 87.5251 97.6445 87.3796C97.7478 87.2342 97.8214 87.0697 97.8609 86.8957C97.9005 86.7216 97.9053 86.5415 97.875 86.3657C97.8448 86.1898 97.78 86.0216 97.6846 85.8709C97.3041 85.2701 97.0948 84.5849 97.0948 83.8052C97.0948 81.603 98.8731 79.8247 101.075 79.8247C101.434 79.8247 101.779 79.682 102.033 79.428C102.287 79.1741 102.429 78.8297 102.429 78.4705V47.4991C102.429 47.3065 102.388 47.1161 102.308 46.9407C102.228 46.7653 102.112 46.6089 101.967 46.482C101.822 46.3551 101.652 46.2605 101.468 46.2047C101.283 46.1489 101.089 46.133 100.898 46.1582C100.754 46.1775 100.614 46.1873 100.454 46.1873C99.1108 46.1873 97.9477 45.5328 97.2138 44.5237C97.0121 44.2461 96.7127 44.0555 96.3759 43.9902C96.0391 43.9249 95.6902 43.9898 95.3994 44.1719L68.9798 60.7473C68.6878 60.9307 68.4768 61.2187 68.3898 61.5524C68.3028 61.8861 68.3464 62.2405 68.5117 62.5431C68.8128 63.0951 68.9825 63.7216 68.9825 64.3998C68.9825 66.6189 67.2083 68.3804 65.002 68.3804C62.7787 68.3804 61.0188 66.6231 61.0188 64.3998C61.0188 63.7216 61.1914 63.0878 61.4869 62.5273C61.6465 62.2249 61.6859 61.8734 61.5971 61.5433C61.5083 61.2131 61.2979 60.9288 61.0082 60.7473L34.1549 43.8889ZM33.573 46.7189L58.7733 62.5431C58.5889 63.1543 58.3105 63.7271 58.3105 64.3998C58.3105 68.0808 61.321 71.0887 65.002 71.0887C68.6727 71.0887 71.6908 68.0849 71.6908 64.3998C71.6908 63.7296 71.4052 63.1538 71.2174 62.5405L96.021 46.9807C97.0358 47.9192 98.2751 48.5461 99.7211 48.7158V77.3914C96.7103 78.0405 94.3864 80.6097 94.3864 83.8052C94.3864 84.5883 94.7489 85.2531 95.0027 85.9581L69.6463 101.864C68.4315 100.611 66.8702 99.6903 65.002 99.6903C63.1236 99.6903 61.5589 100.613 60.3417 101.864L35.1388 86.0428C35.3232 85.4317 35.6016 84.8588 35.6016 84.1861C35.6016 80.9849 33.2812 78.4172 30.2669 77.7696V48.5386C31.5714 48.252 32.674 47.644 33.573 46.7189Z" fill="white"/>
<path d="M34.1549 43.8889C33.8513 43.6984 33.4846 43.6359 33.1351 43.7152C32.7856 43.7946 32.4818 44.0092 32.2903 44.3121C31.5793 45.4395 30.3483 46.1873 28.9128 46.1873C28.5536 46.1873 28.2092 46.33 27.9553 46.584C27.7013 46.8379 27.5586 47.1823 27.5586 47.5415V78.8487C27.5586 79.2079 27.7013 79.5523 27.9553 79.8062C28.2092 80.0602 28.5536 80.2029 28.9128 80.2029C31.136 80.2029 32.8933 81.9628 32.8933 84.1861C32.8933 84.8643 32.7233 85.4981 32.4278 86.0586C32.2687 86.3604 32.2294 86.7111 32.3177 87.0406C32.4059 87.3701 32.6153 87.6542 32.9039 87.836L59.7572 104.697C60.0613 104.888 60.4288 104.951 60.779 104.871C61.1292 104.791 61.4333 104.575 61.6245 104.271C62.3355 103.144 63.5664 102.399 65.002 102.399C66.4206 102.399 67.6681 103.149 68.3609 104.263C68.455 104.415 68.578 104.546 68.723 104.65C68.868 104.754 69.032 104.828 69.2058 104.869C69.3795 104.909 69.5595 104.915 69.7354 104.885C69.9114 104.856 70.0797 104.792 70.2309 104.697L97.2588 87.7434C97.41 87.6488 97.5411 87.5251 97.6445 87.3796C97.7478 87.2342 97.8214 87.0697 97.8609 86.8957C97.9005 86.7216 97.9053 86.5415 97.875 86.3657C97.8448 86.1898 97.78 86.0216 97.6846 85.8709C97.3041 85.2701 97.0948 84.5849 97.0948 83.8052C97.0948 81.603 98.8731 79.8247 101.075 79.8247C101.434 79.8247 101.779 79.682 102.033 79.428C102.287 79.1741 102.429 78.8297 102.429 78.4705V47.4991C102.429 47.3065 102.388 47.1161 102.308 46.9407C102.228 46.7653 102.112 46.6089 101.967 46.482C101.822 46.3551 101.652 46.2605 101.468 46.2047C101.283 46.1489 101.089 46.133 100.898 46.1582C100.754 46.1775 100.614 46.1873 100.454 46.1873C99.1108 46.1873 97.9477 45.5328 97.2138 44.5237C97.0121 44.2461 96.7127 44.0555 96.3759 43.9902C96.0391 43.9249 95.6902 43.9898 95.3994 44.1719L68.9798 60.7473C68.6878 60.9307 68.4768 61.2187 68.3898 61.5524C68.3028 61.8861 68.3464 62.2405 68.5117 62.5431C68.8128 63.0951 68.9825 63.7216 68.9825 64.3998C68.9825 66.6189 67.2083 68.3804 65.002 68.3804C62.7787 68.3804 61.0188 66.6231 61.0188 64.3998C61.0188 63.7216 61.1914 63.0878 61.4869 62.5273C61.6465 62.2249 61.6859 61.8734 61.5971 61.5433C61.5083 61.2131 61.2979 60.9288 61.0082 60.7473L34.1549 43.8889ZM33.573 46.7189L58.7733 62.5431C58.5889 63.1543 58.3105 63.7271 58.3105 64.3998C58.3105 68.0808 61.321 71.0887 65.002 71.0887C68.6727 71.0887 71.6908 68.0849 71.6908 64.3998C71.6908 63.7296 71.4052 63.1538 71.2174 62.5405L96.021 46.9807C97.0358 47.9192 98.2751 48.5461 99.7211 48.7158V77.3914C96.7103 78.0405 94.3864 80.6097 94.3864 83.8052C94.3864 84.5883 94.7489 85.2531 95.0027 85.9581L69.6463 101.864C68.4315 100.611 66.8702 99.6903 65.002 99.6903C63.1236 99.6903 61.5589 100.613 60.3417 101.864L35.1388 86.0428C35.3232 85.4317 35.6016 84.8588 35.6016 84.1861C35.6016 80.9849 33.2812 78.4172 30.2669 77.7696V48.5386C31.5714 48.252 32.674 47.644 33.573 46.7189Z" fill="white"/>
<path d="M69.2055 21.0612C69.032 21.1016 68.8681 21.176 68.7233 21.2799C68.5785 21.3839 68.4557 21.5153 68.3618 21.6668C67.669 22.7814 66.4215 23.5315 65.0029 23.5315C63.5673 23.5315 62.3363 22.7863 61.6254 21.6589C61.4342 21.3548 61.1301 21.1392 60.7799 21.0593C60.4297 20.9794 60.0622 21.042 59.7581 21.2331L32.717 38.2158C32.4135 38.406 32.1977 38.7088 32.1169 39.0577C32.0361 39.4067 32.0969 39.7735 32.2859 40.0778C32.6716 40.697 32.8942 41.4221 32.8942 42.2069C32.8942 42.9747 32.6716 43.7009 32.2859 44.3201C32.0969 44.6244 32.0361 44.9912 32.1169 45.3401C32.1977 45.6891 32.4135 45.9918 32.717 46.1821L59.5703 63.0431C59.7282 63.1422 59.9049 63.2075 60.0892 63.2351C60.2735 63.2627 60.4616 63.252 60.6416 63.2036C60.8216 63.1552 60.9896 63.0701 61.1353 62.9538C61.2809 62.8374 61.4009 62.6923 61.4878 62.5274C62.1531 61.2674 63.4603 60.4194 65.0029 60.4194C66.5286 60.4194 67.8368 61.2674 68.502 62.5274C68.5889 62.6923 68.709 62.8374 68.8546 62.9538C69.0002 63.0701 69.1683 63.1552 69.3483 63.2036C69.5283 63.252 69.7163 63.2627 69.9006 63.2351C70.085 63.2075 70.2616 63.1422 70.4195 63.0431L96.8391 46.4678C96.9953 46.3699 97.1299 46.2412 97.2347 46.0895C97.3394 45.9378 97.4121 45.7663 97.4482 45.5856C97.4844 45.4048 97.4833 45.2186 97.4449 45.0383C97.4066 44.858 97.3318 44.6874 97.2253 44.537C96.7515 43.8676 96.4715 43.0775 96.4715 42.2069C96.4715 41.3257 96.7418 40.5423 97.2173 39.8847C97.3261 39.7346 97.4029 39.5638 97.443 39.3828C97.4832 39.2018 97.4857 39.0146 97.4505 38.8326C97.4153 38.6506 97.3431 38.4778 97.2384 38.3248C97.1337 38.1719 96.9987 38.042 96.8418 37.9434L70.2318 21.2331C70.0805 21.1382 69.9119 21.0741 69.7358 21.0446C69.5597 21.0151 69.3795 21.0208 69.2055 21.0612ZM60.3426 24.0657C61.5598 25.3169 63.1245 26.2398 65.0029 26.2398C66.8711 26.2398 68.4324 25.3192 69.6472 24.0657L94.5672 39.7128C94.224 40.5203 93.7631 41.2829 93.7631 42.2069C93.7631 43.1395 94.2189 43.8946 94.5619 44.6983L69.8826 60.1814C68.6545 58.7599 67.0066 57.7111 65.0029 57.7111C62.9908 57.7111 61.3366 58.7595 60.1072 60.1814L34.973 44.4021C35.2351 43.6838 35.6025 43.0061 35.6025 42.2069C35.6025 41.4 35.2333 40.7196 34.9704 39.9984L60.3426 24.0657Z" fill="white"/>
<path d="M86.5455 49.8318C86.3949 49.7371 86.2272 49.673 86.0519 49.6432C85.8765 49.6134 85.6971 49.6184 85.5237 49.6579C85.3503 49.6975 85.1864 49.7708 85.0413 49.8737C84.8962 49.9766 84.7729 50.107 84.6782 50.2576C84.4868 50.5613 84.4239 50.9287 84.5032 51.2788C84.5826 51.629 84.7977 51.9333 85.1014 52.1249L85.0855 52.1143C85.1103 52.4486 85.2581 52.7618 85.5004 52.9934C85.7428 53.2249 86.0623 53.3584 86.3974 53.368C86.7565 53.368 87.101 53.2253 87.3549 52.9713C87.6089 52.7174 87.7516 52.3729 87.7516 52.0138V51.3367C87.7512 51.1077 87.6928 50.8826 87.5818 50.6823C87.4708 50.482 87.3108 50.3131 87.1168 50.1915L86.5455 49.8318Z" fill="white"/>
<path d="M86.3971 57.1055C86.038 57.1055 85.6936 57.2481 85.4396 57.5021C85.1856 57.7561 85.043 58.1005 85.043 58.4596V59.7477C85.043 60.1068 85.1856 60.4513 85.4396 60.7052C85.6936 60.9592 86.038 61.1019 86.3971 61.1019C86.7563 61.1019 87.1007 60.9592 87.3547 60.7052C87.6086 60.4513 87.7513 60.1068 87.7513 59.7477V58.4596C87.7513 58.1005 87.6086 57.7561 87.3547 57.5021C87.1007 57.2481 86.7563 57.1055 86.3971 57.1055ZM86.3971 64.8364C86.038 64.8364 85.6936 64.9791 85.4396 65.233C85.1856 65.487 85.043 65.8314 85.043 66.1906V67.4786C85.043 67.8378 85.1856 68.1822 85.4396 68.4362C85.6936 68.6901 86.038 68.8328 86.3971 68.8328C86.7563 68.8328 87.1007 68.6901 87.3547 68.4362C87.6086 68.1822 87.7513 67.8378 87.7513 67.4786V66.1906C87.7513 65.8314 87.6086 65.487 87.3547 65.233C87.1007 64.9791 86.7563 64.8364 86.3971 64.8364Z" fill="white"/>
<path d="M86.3974 72.5698C86.0623 72.5794 85.7428 72.7129 85.5004 72.9444C85.2581 73.176 85.1103 73.4892 85.0855 73.8235L85.1014 73.8129C84.7977 74.0045 84.5826 74.3088 84.5032 74.659C84.4239 75.0091 84.4868 75.3764 84.6782 75.6802C84.7729 75.8308 84.8962 75.9612 85.0413 76.0641C85.1864 76.167 85.3503 76.2403 85.5237 76.2799C85.6971 76.3194 85.8765 76.3244 86.0519 76.2946C86.2272 76.2648 86.3949 76.2007 86.5455 76.106L87.1168 75.7463C87.3108 75.6247 87.4708 75.4558 87.5818 75.2555C87.6928 75.0552 87.7512 74.8301 87.7516 74.6011V73.924C87.7516 73.5649 87.6089 73.2204 87.3549 72.9665C87.101 72.7125 86.7565 72.5698 86.3974 72.5698Z" fill="white"/>
<path d="M80.1688 77.3783C79.8188 77.2989 79.4516 77.3617 79.1479 77.5528L77.9577 78.2987C77.8069 78.3931 77.6762 78.5163 77.573 78.6613C77.4699 78.8063 77.3963 78.9701 77.3565 79.1436C77.3167 79.317 77.3115 79.4965 77.3411 79.6719C77.3708 79.8474 77.4347 80.0153 77.5292 80.166C77.6236 80.3168 77.7468 80.4475 77.8918 80.5506C78.0368 80.6538 78.2007 80.7273 78.3741 80.7671C78.5475 80.8069 78.727 80.8122 78.9025 80.7825C79.0779 80.7529 79.2458 80.689 79.3965 80.5944L80.5867 79.8459C80.7375 79.7515 80.8682 79.6283 80.9713 79.4833C81.0745 79.3384 81.148 79.1745 81.1878 79.0011C81.2276 78.8277 81.2329 78.6481 81.2032 78.4727C81.1736 78.2973 81.1097 78.1294 81.0151 77.9787C80.9205 77.8279 80.797 77.6972 80.6517 77.5942C80.5065 77.4912 80.3424 77.4178 80.1688 77.3783ZM72.0014 82.0385L70.8112 82.7844C70.6605 82.8788 70.5298 83.002 70.4266 83.147C70.3234 83.292 70.2499 83.4558 70.2101 83.6292C70.1703 83.8027 70.1651 83.9822 70.1947 84.1576C70.2243 84.3331 70.2882 84.5009 70.3828 84.6517C70.4772 84.8025 70.6004 84.9332 70.7454 85.0363C70.8903 85.1395 71.0542 85.213 71.2276 85.2528C71.401 85.2926 71.5806 85.2979 71.756 85.2682C71.9315 85.2386 72.0993 85.1747 72.2501 85.0801L73.4402 84.3316C73.591 84.2372 73.7217 84.114 73.8249 83.969C73.928 83.8241 74.0016 83.6602 74.0414 83.4868C74.0812 83.3134 74.0864 83.1338 74.0568 82.9584C74.0272 82.783 73.9633 82.6151 73.8687 82.4644C73.7741 82.3138 73.6507 82.1833 73.5056 82.0804C73.3606 81.9775 73.1967 81.9042 73.0233 81.8647C72.8499 81.8251 72.6704 81.8201 72.4951 81.85C72.3197 81.8798 72.152 81.9439 72.0014 82.0385Z" fill="white"/>
<path d="M64.1273 86.3499C63.9537 86.3894 63.7896 86.4627 63.6444 86.5658C63.4991 86.6688 63.3757 86.7994 63.281 86.9502C63.1863 87.1008 63.1223 87.2685 63.0924 87.4439C63.0626 87.6192 63.0676 87.7987 63.1071 87.9721C63.1467 88.1455 63.22 88.3094 63.3229 88.4544C63.4258 88.5995 63.5562 88.7229 63.7068 88.8175L64.2781 89.1772C64.4943 89.3135 64.7446 89.3857 65.0001 89.3857C65.2557 89.3857 65.506 89.3135 65.7222 89.1772L66.2935 88.8175C66.4441 88.7229 66.5745 88.5995 66.6774 88.4544C66.7803 88.3094 66.8536 88.1455 66.8932 87.9721C66.9327 87.7987 66.9377 87.6192 66.9079 87.4439C66.878 87.2685 66.814 87.1008 66.7193 86.9502C66.5409 86.6977 66.2815 86.5138 65.9842 86.4291C65.6868 86.3445 65.3694 86.3641 65.0848 86.4847L65.1483 86.5244C65.0994 86.5129 65.05 86.504 65.0001 86.498C64.9503 86.504 64.9009 86.5129 64.852 86.5244L64.9155 86.4847C64.6724 86.3615 64.3977 86.3145 64.1273 86.3499Z" fill="white"/>
<path d="M49.8308 77.3783C49.4811 77.4587 49.1776 77.6747 48.987 77.9787C48.8924 78.1292 48.8283 78.297 48.7985 78.4723C48.7687 78.6476 48.7737 78.8271 48.8132 79.0005C48.8527 79.1739 48.926 79.3378 49.0289 79.4829C49.1318 79.6279 49.2623 79.7513 49.4129 79.8459L50.6031 80.5944C50.7538 80.689 50.9216 80.7529 51.0971 80.7825C51.2725 80.8122 51.4521 80.8069 51.6255 80.7671C51.7989 80.7273 51.9628 80.6538 52.1077 80.5506C52.2527 80.4475 52.3759 80.3168 52.4703 80.166C52.565 80.0154 52.6291 79.8477 52.6589 79.6723C52.6887 79.497 52.6837 79.3175 52.6442 79.1441C52.6046 78.9707 52.5313 78.8068 52.4284 78.6618C52.3255 78.5167 52.1951 78.3933 52.0445 78.2987L50.8517 77.5528C50.5479 77.3617 50.1807 77.2989 49.8308 77.3783ZM58.0007 82.0385C57.8502 81.9439 57.6824 81.8798 57.5071 81.85C57.3318 81.8201 57.1523 81.8251 56.9789 81.8647C56.8055 81.9042 56.6416 81.9775 56.4965 82.0804C56.3515 82.1833 56.2281 82.3138 56.1335 82.4644C56.0388 82.6149 55.9747 82.7827 55.9449 82.958C55.9151 83.1333 55.9201 83.3128 55.9596 83.4862C55.9992 83.6596 56.0725 83.8235 56.1754 83.9686C56.2783 84.1136 56.4087 84.237 56.5593 84.3316L57.7495 85.0801C57.9002 85.1747 58.0681 85.2386 58.2435 85.2682C58.4189 85.2979 58.5985 85.2926 58.7719 85.2528C58.9453 85.213 59.1092 85.1395 59.2542 85.0363C59.3991 84.9332 59.5223 84.8025 59.6168 84.6517C59.8071 84.3478 59.8692 83.9809 59.7893 83.6313C59.7095 83.2818 59.4943 82.9781 59.1909 82.787L58.0007 82.0385Z" fill="white"/>
<path d="M43.6022 72.5698C43.2431 72.5698 42.8986 72.7125 42.6447 72.9665C42.3907 73.2204 42.248 73.5648 42.248 73.924V74.6011C42.2484 74.8301 42.3068 75.0552 42.4178 75.2555C42.5288 75.4558 42.6888 75.6246 42.8828 75.7463L43.4541 76.106C43.6047 76.2007 43.7724 76.2647 43.9477 76.2946C44.1231 76.3244 44.3025 76.3194 44.4759 76.2799C44.6493 76.2403 44.8132 76.167 44.9583 76.0641C45.1034 75.9612 45.2267 75.8308 45.3214 75.6802C45.499 75.3888 45.5601 75.0412 45.4924 74.7068C45.4247 74.3723 45.2333 74.0758 44.9564 73.8764V73.924C44.9524 73.9036 44.948 73.8833 44.9431 73.8632C44.9286 73.846 44.9136 73.8293 44.8982 73.8129L44.9405 73.842C44.9197 73.5 44.7701 73.1785 44.5218 72.9424C44.2734 72.7064 43.9449 72.5732 43.6022 72.5698Z" fill="white"/>
<path d="M43.6022 57.1055C43.2431 57.1055 42.8986 57.2481 42.6447 57.5021C42.3907 57.7561 42.248 58.1005 42.248 58.4596V59.7477C42.248 60.1068 42.3907 60.4513 42.6447 60.7052C42.8986 60.9592 43.2431 61.1019 43.6022 61.1019C43.9614 61.1019 44.3058 60.9592 44.5598 60.7052C44.8137 60.4513 44.9564 60.1068 44.9564 59.7477V58.4596C44.9564 58.1005 44.8137 57.7561 44.5598 57.5021C44.3058 57.2481 43.9614 57.1055 43.6022 57.1055ZM43.6022 64.8364C43.2431 64.8364 42.8986 64.9791 42.6447 65.233C42.3907 65.487 42.248 65.8314 42.248 66.1906V67.4786C42.248 67.8378 42.3907 68.1822 42.6447 68.4362C42.8986 68.6901 43.2431 68.8328 43.6022 68.8328C43.9614 68.8328 44.3058 68.6901 44.5598 68.4362C44.8137 68.1822 44.9564 67.8378 44.9564 67.4786V66.1906C44.9564 65.8314 44.8137 65.487 44.5598 65.233C44.3058 64.9791 43.9614 64.8364 43.6022 64.8364Z" fill="white"/>
<path d="M44.4777 49.6575C44.304 49.6179 44.1241 49.6129 43.9485 49.6428C43.7729 49.6728 43.6048 49.7371 43.4541 49.8321L42.8828 50.1918C42.6888 50.3135 42.5288 50.4823 42.4178 50.6826C42.3068 50.8829 42.2484 51.108 42.248 51.337V52.0141C42.248 52.3733 42.3907 52.7177 42.6447 52.9717C42.8986 53.2256 43.2431 53.3683 43.6022 53.3683C43.9373 53.3587 44.2569 53.2252 44.4992 52.9937C44.7415 52.7621 44.8893 52.4489 44.9141 52.1146L44.8982 52.1252C44.9054 52.1173 44.9124 52.1094 44.9194 52.1014C44.9327 52.0727 44.9451 52.0436 44.9564 52.0141V52.0617C45.2333 51.8623 45.4247 51.5658 45.4924 51.2313C45.5601 50.8969 45.499 50.5492 45.3214 50.2579C45.1308 49.9539 44.8273 49.738 44.4777 49.6575Z" fill="white"/>
<path d="M58.7749 40.6861C58.6014 40.646 58.4217 40.6406 58.246 40.6701C58.0704 40.6996 57.9023 40.7634 57.7514 40.858L56.5612 41.6065C56.4104 41.7009 56.2797 41.8241 56.1765 41.9691C56.0734 42.1141 55.9998 42.2779 55.96 42.4513C55.9202 42.6247 55.915 42.8043 55.9446 42.9797C55.9743 43.1552 56.0382 43.323 56.1327 43.4738C56.2274 43.6243 56.3507 43.7548 56.4958 43.8577C56.6409 43.9606 56.8048 44.0339 56.9782 44.0734C57.1516 44.113 57.331 44.118 57.5064 44.0881C57.6817 44.0583 57.8494 43.9942 58 43.8996L59.1902 43.1537C59.341 43.0593 59.4717 42.9361 59.5748 42.7911C59.678 42.6462 59.7516 42.4823 59.7914 42.3089C59.8311 42.1355 59.8364 41.9559 59.8067 41.7805C59.7771 41.605 59.7132 41.4372 59.6187 41.2865C59.4281 40.9825 59.1246 40.7665 58.7749 40.6861ZM51.6259 45.1718C51.2762 45.0916 50.9091 45.1534 50.605 45.3437L49.4148 46.0922C49.264 46.1866 49.1333 46.3098 49.0301 46.4548C48.927 46.5997 48.8534 46.7636 48.8136 46.937C48.7738 47.1104 48.7686 47.29 48.7982 47.4654C48.8278 47.6409 48.8918 47.8087 48.9863 47.9595C49.0809 48.11 49.2043 48.2405 49.3494 48.3434C49.4944 48.4463 49.6583 48.5196 49.8317 48.5591C50.0051 48.5987 50.1846 48.6037 50.3599 48.5738C50.5353 48.544 50.703 48.4799 50.8536 48.3853L52.0438 47.6394C52.1946 47.545 52.3253 47.4218 52.4284 47.2768C52.5316 47.1318 52.6051 46.968 52.6449 46.7946C52.6847 46.6212 52.6899 46.4416 52.6603 46.2662C52.6307 46.0907 52.5668 45.9229 52.4722 45.7721C52.3776 45.6213 52.2541 45.4907 52.1088 45.3877C51.9636 45.2846 51.7995 45.2113 51.6259 45.1718Z" fill="white"/>
<path d="M64.2781 36.7608L63.7068 37.1205C63.5562 37.2151 63.4258 37.3385 63.3229 37.4836C63.22 37.6286 63.1467 37.7925 63.1071 37.9659C63.0676 38.1393 63.0626 38.3188 63.0924 38.4941C63.1223 38.6695 63.1863 38.8372 63.281 38.9878C63.4736 39.2475 63.7528 39.4298 64.0681 39.5016C64.3835 39.5734 64.7141 39.53 65.0001 39.3792C65.2862 39.53 65.6168 39.5734 65.9322 39.5016C66.2475 39.4298 66.5267 39.2475 66.7193 38.9878C66.814 38.8372 66.878 38.6695 66.9079 38.4941C66.9377 38.3188 66.9327 38.1393 66.8932 37.9659C66.8536 37.7925 66.7803 37.6286 66.6774 37.4836C66.5745 37.3385 66.4441 37.2151 66.2935 37.1205L65.7222 36.7608C65.506 36.6245 65.2557 36.5522 65.0001 36.5522C64.7446 36.5522 64.4943 36.6245 64.2781 36.7608Z" fill="white"/>
<path d="M71.2261 40.6861C70.8764 40.7665 70.5729 40.9825 70.3823 41.2865C70.192 41.5903 70.1299 41.9573 70.2098 42.3068C70.2896 42.6563 70.5048 42.96 70.8082 43.1511L71.9984 43.8996C72.1489 43.9942 72.3167 44.0583 72.492 44.0881C72.6673 44.118 72.8468 44.113 73.0202 44.0734C73.1936 44.0339 73.3575 43.9606 73.5026 43.8577C73.6476 43.7548 73.771 43.6243 73.8656 43.4738C73.9603 43.3232 74.0244 43.1555 74.0542 42.9801C74.084 42.8048 74.079 42.6253 74.0395 42.4519C73.9999 42.2785 73.9266 42.1146 73.8237 41.9696C73.7208 41.8245 73.5904 41.7011 73.4398 41.6065L72.2496 40.858C72.0987 40.7634 71.9306 40.6996 71.755 40.6701C71.5793 40.6406 71.3996 40.646 71.2261 40.6861ZM78.3725 45.1718C78.0228 45.2522 77.7194 45.4681 77.5288 45.7721C77.4341 45.9227 77.37 46.0904 77.3402 46.2658C77.3104 46.4411 77.3154 46.6206 77.3549 46.794C77.3945 46.9674 77.4678 47.1313 77.5707 47.2763C77.6736 47.4214 77.804 47.5448 77.9546 47.6394L79.1474 48.3853C79.4513 48.5756 79.8182 48.6377 80.1678 48.5578C80.5173 48.478 80.8209 48.2628 81.0121 47.9595C81.1067 47.8089 81.1708 47.6412 81.2006 47.4658C81.2304 47.2905 81.2254 47.111 81.1859 46.9376C81.1464 46.7642 81.0731 46.6003 80.9702 46.4553C80.8673 46.3102 80.7368 46.1868 80.5862 46.0922L79.396 45.3437C79.2451 45.2491 79.077 45.1853 78.9014 45.1558C78.7257 45.1263 78.546 45.1317 78.3725 45.1718Z" fill="white"/>
<path d="M65.0026 68.3804C64.6435 68.3804 64.299 68.523 64.0451 68.777C63.7911 69.031 63.6484 69.3754 63.6484 69.7345V101.044C63.6484 101.404 63.7911 101.748 64.0451 102.002C64.299 102.256 64.6435 102.399 65.0026 102.399C65.3618 102.399 65.7062 102.256 65.9602 102.002C66.2141 101.748 66.3568 101.404 66.3568 101.044V69.7345C66.3568 69.3754 66.2141 69.031 65.9602 68.777C65.7062 68.523 65.3618 68.3804 65.0026 68.3804Z" fill="white"/>
<path d="M65.0004 12.8647C61.3219 12.8647 58.3115 15.8751 58.3115 19.5536C58.3115 23.2321 61.3219 26.2451 65.0004 26.2451C68.6789 26.2451 71.6893 23.2321 71.6893 19.5536C71.6893 15.8751 68.6789 12.8647 65.0004 12.8647ZM65.0004 15.5731C67.2152 15.5731 68.9809 17.3388 68.9809 19.5536C68.9809 21.7684 67.2152 23.5368 65.0004 23.5368C62.7856 23.5368 61.0199 21.7684 61.0199 19.5536C61.0199 17.3388 62.7856 15.5731 65.0004 15.5731Z" fill="white"/>
<path d="M28.9154 35.5151C25.2369 35.5151 22.2266 38.5255 22.2266 42.204C22.2266 45.8825 25.2369 48.8929 28.9154 48.8929C32.594 48.8929 35.6069 45.8825 35.6069 42.204C35.6069 38.5255 32.594 35.5151 28.9154 35.5151ZM28.9154 38.2235C31.1303 38.2235 32.8986 39.9892 32.8986 42.204C32.8986 44.4188 31.1303 46.1845 28.9154 46.1845C26.7006 46.1845 24.9349 44.4188 24.9349 42.204C24.9349 39.9892 26.7006 38.2235 28.9154 38.2235Z" fill="white"/>
<path d="M65.0004 57.7109C61.3219 57.7109 58.3115 60.7213 58.3115 64.3998C58.3115 68.0783 61.3219 71.0887 65.0004 71.0887C68.6789 71.0887 71.6893 68.0783 71.6893 64.3998C71.6893 60.7213 68.6789 57.7109 65.0004 57.7109ZM65.0004 60.4193C67.2152 60.4193 68.9809 62.185 68.9809 64.3998C68.9809 66.6146 67.2152 68.3803 65.0004 68.3803C62.7856 68.3803 61.0199 66.6146 61.0199 64.3998C61.0199 62.185 62.7856 60.4193 65.0004 60.4193Z" fill="white"/>
<path d="M100.454 35.5151C96.775 35.5151 93.7646 38.5255 93.7646 42.204C93.7646 45.8825 96.775 48.8929 100.454 48.8929C104.132 48.8929 107.142 45.8825 107.142 42.204C107.142 38.5255 104.132 35.5151 100.454 35.5151ZM100.454 38.2235C102.668 38.2235 104.434 39.9892 104.434 42.204C104.434 44.4188 102.668 46.1845 100.454 46.1845C98.2387 46.1845 96.473 44.4188 96.473 42.204C96.473 39.9892 98.2387 38.2235 100.454 38.2235Z" fill="white"/>
<path d="M28.9154 77.4971C25.2369 77.4971 22.2266 80.5074 22.2266 84.1859C22.2266 87.8645 25.2369 90.8748 28.9154 90.8748C32.594 90.8748 35.6069 87.8645 35.6069 84.1859C35.6069 80.5074 32.594 77.4971 28.9154 77.4971ZM28.9154 80.2054C31.1303 80.2054 32.8986 81.9711 32.8986 84.1859C32.8986 86.4008 31.1303 88.1665 28.9154 88.1665C26.7006 88.1665 24.9349 86.4008 24.9349 84.1859C24.9349 81.9711 26.7006 80.2054 28.9154 80.2054Z" fill="white"/>
<path d="M65.0004 99.6929C61.3219 99.6929 58.3115 102.706 58.3115 106.384C58.3115 110.063 61.3219 113.073 65.0004 113.073C68.6789 113.073 71.6893 110.063 71.6893 106.384C71.6893 102.706 68.6789 99.6929 65.0004 99.6929ZM65.0004 102.401C67.2152 102.401 68.9809 104.17 68.9809 106.384C68.9809 108.599 67.2152 110.365 65.0004 110.365C62.7856 110.365 61.0199 108.599 61.0199 106.384C61.0199 104.17 62.7856 102.401 65.0004 102.401Z" fill="white"/>
<path d="M101.084 77.1216C97.4056 77.1216 94.3926 80.1346 94.3926 83.8131C94.3926 87.4916 97.4056 90.502 101.084 90.502C104.763 90.502 107.773 87.4916 107.773 83.8131C107.773 80.1346 104.763 77.1216 101.084 77.1216ZM101.084 79.8299C103.299 79.8299 105.065 81.5983 105.065 83.8131C105.065 86.0279 103.299 87.7936 101.084 87.7936C98.8693 87.7936 97.1009 86.0279 97.1009 83.8131C97.1009 81.5983 98.8693 79.8299 101.084 79.8299Z" fill="white"/>
<path d="M109.049 19.0376L106.166 21.9205C105.912 22.1745 105.77 22.5189 105.77 22.878C105.77 23.2371 105.912 23.5815 106.166 23.8354C106.42 24.0893 106.764 24.232 107.123 24.232C107.483 24.232 107.827 24.0893 108.081 23.8354L110.964 20.9525C111.218 20.6986 111.36 20.3542 111.36 19.9951C111.36 19.636 111.218 19.2916 110.964 19.0376C110.71 18.7837 110.365 18.6411 110.006 18.6411C109.647 18.6411 109.303 18.7837 109.049 19.0376Z" fill="white"/>
<path d="M22.8775 105.768C22.5184 105.768 22.174 105.911 21.9201 106.165L19.0371 109.048C18.7833 109.302 18.6406 109.646 18.6406 110.005C18.6406 110.364 18.7833 110.709 19.0371 110.963C19.2911 111.216 19.6355 111.359 19.9946 111.359C20.3537 111.359 20.6981 111.216 20.952 110.963L23.8349 108.08C24.0888 107.826 24.2315 107.481 24.2315 107.122C24.2315 106.763 24.0888 106.419 23.8349 106.165C23.581 105.911 23.2366 105.768 22.8775 105.768Z" fill="white"/>
<path d="M124.57 63.646C124.211 63.646 123.866 63.7887 123.612 64.0426C123.358 64.2966 123.216 64.641 123.216 65.0002C123.216 65.3593 123.358 65.7038 123.612 65.9577C123.866 66.2117 124.211 66.3543 124.57 66.3543H128.646C129.005 66.3543 129.349 66.2117 129.603 65.9577C129.857 65.7038 130 65.3593 130 65.0002C130 64.641 129.857 64.2966 129.603 64.0426C129.349 63.7887 129.005 63.646 128.646 63.646H124.57Z" fill="white"/>
<path d="M1.35417 63.646C0.995023 63.646 0.650584 63.7887 0.396628 64.0426C0.142671 64.2966 0 64.641 0 65.0002C0 65.3593 0.142671 65.7038 0.396628 65.9577C0.650584 66.2117 0.995023 66.3543 1.35417 66.3543H5.42991C5.78906 66.3543 6.1335 66.2117 6.38745 65.9577C6.64141 65.7038 6.78408 65.3593 6.78408 65.0002C6.78408 64.641 6.64141 64.2966 6.38745 64.0426C6.1335 63.7887 5.78906 63.646 5.42991 63.646H1.35417Z" fill="white"/>
<path d="M65.0007 0C64.6415 0 64.2971 0.142671 64.0431 0.396628C63.7892 0.650584 63.6465 0.995023 63.6465 1.35417V5.42991C63.6465 5.78906 63.7892 6.1335 64.0431 6.38745C64.2971 6.64141 64.6415 6.78408 65.0007 6.78408C65.3598 6.78408 65.7042 6.64141 65.9582 6.38745C66.2122 6.1335 66.3548 5.78906 66.3548 5.42991V1.35417C66.3548 0.995023 66.2122 0.650584 65.9582 0.396628C65.7042 0.142671 65.3598 0 65.0007 0Z" fill="white"/>
<path d="M65.0007 123.216C64.6415 123.216 64.2971 123.359 64.0431 123.613C63.7892 123.867 63.6465 124.211 63.6465 124.57V128.646C63.6465 129.005 63.7892 129.35 64.0431 129.604C64.2971 129.858 64.6415 130 65.0007 130C65.3598 130 65.7042 129.858 65.9582 129.604C66.2122 129.35 66.3548 129.005 66.3548 128.646V124.57C66.3548 124.211 66.2122 123.867 65.9582 123.613C65.7042 123.359 65.3598 123.216 65.0007 123.216Z" fill="white"/>
<path d="M106.166 106.165C105.912 106.419 105.77 106.763 105.77 107.123C105.77 107.482 105.912 107.826 106.166 108.08L109.049 110.963C109.303 111.217 109.647 111.359 110.006 111.359C110.365 111.359 110.71 111.217 110.964 110.963C111.218 110.709 111.36 110.365 111.36 110.005C111.36 109.646 111.218 109.302 110.964 109.048L108.081 106.165C107.827 105.911 107.483 105.769 107.123 105.769C106.764 105.769 106.42 105.911 106.166 106.165Z" fill="white"/>
<path d="M19.9946 18.6411C19.6355 18.6412 19.2911 18.7839 19.0371 19.0378C18.7833 19.2918 18.6406 19.6362 18.6406 19.9953C18.6406 20.3544 18.7833 20.6988 19.0371 20.9527L21.9201 23.8356C22.174 24.0895 22.5184 24.2322 22.8775 24.2322C23.2366 24.2322 23.581 24.0895 23.8349 23.8356C24.0888 23.5817 24.2315 23.2373 24.2315 22.8782C24.2315 22.5191 24.0888 22.1747 23.8349 21.9207L20.952 19.0378C20.6981 18.7839 20.3537 18.6412 19.9946 18.6411Z" fill="white"/>
</svg>
