<svg width="100" height="108" viewBox="0 0 100 108" fill="none" xmlns="http://www.w3.org/2000/svg">
<path d="M59.8656 8.98468C59.6184 6.52237 58.4654 4.23965 56.6302 2.57947C54.795 0.919279 52.4086 0 49.9339 0C47.4592 0 45.0727 0.919279 43.2376 2.57947C41.4024 4.23965 40.2494 6.52237 40.0022 8.98468C31.5545 10.6954 23.6939 14.5648 17.1859 20.2159C10.6779 25.867 5.74431 33.1073 2.8657 41.2315C-0.0129147 49.3557 -0.738442 58.087 0.759776 66.5749C2.25799 75.0629 5.92888 83.0181 11.4149 89.6659C10.4633 91.2191 9.95897 93.0048 9.95761 94.8264C9.96037 96.7708 10.531 98.6722 11.5994 100.297C12.6679 101.921 14.1875 103.199 15.9718 103.971C17.7561 104.744 19.7273 104.979 21.6432 104.647C23.5591 104.315 25.3364 103.431 26.7566 102.103C33.0869 105.417 40.0551 107.334 47.19 107.723C54.3248 108.112 61.4601 106.964 68.1131 104.357C74.7662 101.751 80.7819 97.7459 85.7536 92.6136C90.7252 87.4813 94.5368 81.3412 96.9306 74.6087C99.3244 67.8761 100.245 60.708 99.629 53.5891C99.0134 46.4702 96.8763 39.5664 93.3623 33.3448C89.8482 27.1231 85.0391 21.7285 79.2602 17.5259C73.4813 13.3233 66.8673 10.4105 59.8656 8.98468ZM49.884 3.99388C51.0685 3.99388 52.2264 4.34513 53.2113 5.00321C54.1961 5.66128 54.9638 6.59663 55.417 7.69097C55.8703 8.7853 55.9889 9.98948 55.7579 11.1512C55.5268 12.313 54.9564 13.3801 54.1188 14.2177C53.2812 15.0552 52.2141 15.6256 51.0524 15.8567C49.8906 16.0878 48.6864 15.9692 47.5921 15.5159C46.4978 15.0626 45.5624 14.295 44.9043 13.3101C44.2463 12.3252 43.895 11.1673 43.895 9.98284C43.895 8.39447 44.526 6.87116 45.6491 5.74801C46.7723 4.62486 48.2956 3.99388 49.884 3.99388ZM19.9392 100.815C18.7547 100.815 17.5968 100.464 16.6119 99.806C15.627 99.1479 14.8594 98.2126 14.4061 97.1182C13.9528 96.0239 13.8342 94.8197 14.0653 93.658C14.2964 92.4962 14.8668 91.4291 15.7044 90.5915C16.5419 89.754 17.6091 89.1836 18.7708 88.9525C19.9326 88.7214 21.1367 88.84 22.2311 89.2933C23.3254 89.7466 24.2608 90.5142 24.9188 91.4991C25.5769 92.484 25.9282 93.6419 25.9282 94.8264C25.9282 96.4147 25.2972 97.938 24.174 99.0612C23.0509 100.184 21.5276 100.815 19.9392 100.815ZM49.884 103.81C42.6544 103.803 35.5281 102.093 29.0823 98.819C29.6359 97.5608 29.9215 96.201 29.9208 94.8264C29.9208 92.1791 28.8692 89.6402 26.9973 87.7683C25.1253 85.8964 22.5865 84.8448 19.9392 84.8448C17.8613 84.8434 15.8357 85.4965 14.1499 86.7113C9.22341 80.601 5.94556 73.3298 4.62931 65.592C3.31306 57.8542 4.00237 49.9082 6.63141 42.5126C9.26045 35.1171 13.7414 28.5189 19.6465 23.3482C25.5516 18.1775 32.6836 14.6069 40.3615 12.9773C40.9984 15.004 42.2654 16.7746 43.978 18.0316C45.6906 19.2886 47.7596 19.9664 49.884 19.9664C52.0084 19.9664 54.0774 19.2886 55.79 18.0316C57.5026 16.7746 58.7695 15.004 59.4064 12.9773C70.5085 15.3308 80.3456 21.7124 87.0199 30.8911C93.6943 40.0697 96.7329 51.3949 95.5497 62.6818C94.3664 73.9687 89.045 84.4175 80.6122 92.0123C72.1794 99.6072 61.2327 103.81 49.884 103.81Z" fill="white"/>
<path d="M49.8839 46.915C47.9098 46.915 45.9799 47.5004 44.3385 48.5972C42.697 49.694 41.4176 51.2529 40.6622 53.0768C39.9067 54.9007 39.709 56.9077 40.0941 58.8439C40.4793 60.7802 41.4299 62.5587 42.8259 63.9547C44.2218 65.3506 46.0004 66.3013 47.9366 66.6864C49.8729 67.0716 51.8798 66.8739 53.7037 66.1184C55.5276 65.3629 57.0865 64.0836 58.1833 62.4421C59.2801 60.8006 59.8655 58.8708 59.8655 56.8966C59.8655 54.2493 58.8139 51.7105 56.942 49.8386C55.0701 47.9667 52.5312 46.915 49.8839 46.915ZM49.8839 62.8856C48.6994 62.8856 47.5415 62.5343 46.5567 61.8763C45.5718 61.2182 44.8042 60.2828 44.3509 59.1885C43.8976 58.0942 43.779 56.89 44.0101 55.7282C44.2411 54.5665 44.8115 53.4994 45.6491 52.6618C46.4867 51.8242 47.5538 51.2538 48.7156 51.0228C49.8773 50.7917 51.0815 50.9103 52.1758 51.3636C53.2701 51.8168 54.2055 52.5845 54.8636 53.5693C55.5216 54.5542 55.8729 55.7121 55.8729 56.8966C55.8729 58.485 55.2419 60.0083 54.1188 61.1315C52.9956 62.2546 51.4723 62.8856 49.8839 62.8856Z" fill="white"/>
<path d="M78.2718 62.506C78.6435 60.6593 78.8307 58.7801 78.8308 56.8964C78.8308 50.3399 76.6049 43.9776 72.5176 38.8511C68.4303 33.7245 62.7237 30.1374 56.332 28.677C49.9402 27.2165 43.242 27.9693 37.3338 30.8119C31.4256 33.6546 26.6575 38.4188 23.81 44.3247C20.9625 50.2305 20.2043 56.9281 21.6595 63.3211C23.1147 69.714 26.6972 75.4236 31.8204 79.5151C36.9436 83.6066 43.304 85.8376 49.8605 85.843C56.4169 85.8483 62.781 83.6277 67.9109 79.5446C70.1638 80.7744 72.8038 81.0891 75.2826 80.4233C77.7614 79.7575 79.8885 78.1625 81.222 75.9694C82.5556 73.7764 82.9931 71.154 82.4437 68.6468C81.8943 66.1396 80.4002 63.9404 78.2718 62.506ZM24.9302 56.8964C24.9276 53.4426 25.642 50.0259 27.0282 46.8625C28.4143 43.6992 30.4421 40.858 32.983 38.5188C35.524 36.1796 38.5229 34.3933 41.7899 33.273C45.0569 32.1528 48.5209 31.7229 51.9627 32.0105C55.4044 32.2982 58.749 33.2972 61.7847 34.9443C64.8204 36.5914 67.4811 38.8507 69.5985 41.5793C71.7159 44.3079 73.2438 47.4462 74.0856 50.7958C74.9274 54.1454 75.0647 57.6333 74.4888 61.0387C72.5238 60.7123 70.506 60.9812 68.6951 61.8109C66.8842 62.6406 65.363 63.9932 64.3271 65.6946C63.2912 67.396 62.7881 69.3684 62.8825 71.3581C62.9768 73.3478 63.6643 75.2638 64.8565 76.8595C61.1491 79.6401 56.7407 81.3333 52.1252 81.7495C47.5096 82.1657 42.8694 81.2884 38.7244 79.2159C34.5794 77.1434 31.0934 73.9576 28.657 70.0154C26.2207 66.0733 24.9302 61.5306 24.9302 56.8964ZM72.8418 76.8595C71.6573 76.8595 70.4994 76.5083 69.5145 75.8502C68.5296 75.1921 67.762 74.2568 67.3087 73.1625C66.8554 72.0681 66.7368 70.8639 66.9679 69.7022C67.199 68.5405 67.7694 67.4733 68.607 66.6358C69.4445 65.7982 70.5117 65.2278 71.6734 64.9967C72.8352 64.7656 74.0393 64.8842 75.1337 65.3375C76.228 65.7908 77.1634 66.5584 77.8214 67.5433C78.4795 68.5282 78.8308 69.6861 78.8308 70.8706C78.8308 72.459 78.1998 73.9823 77.0766 75.1054C75.9535 76.2286 74.4302 76.8595 72.8418 76.8595Z" fill="white"/>
</svg>
