<svg width="20" height="20" viewBox="0 0 20 20" fill="none" xmlns="http://www.w3.org/2000/svg">
<path d="M12.4997 1.667C13.0849 1.66693 13.6599 1.82094 14.1667 2.11355C14.6735 2.40616 15.0944 2.82705 15.387 3.33391C15.6795 3.84076 15.8335 4.41572 15.8334 5.00095C15.8333 5.58619 15.6791 6.16108 15.3863 6.66783L19.1663 6.667V8.33366H17.4997V16.667C17.4997 16.888 17.4119 17.1 17.2556 17.2563C17.0993 17.4125 16.8874 17.5003 16.6663 17.5003H3.33301C3.11199 17.5003 2.90003 17.4125 2.74375 17.2563C2.58747 17.1 2.49967 16.888 2.49967 16.667V8.33366H0.833008V6.667L4.61301 6.66783C4.19956 5.9519 4.06691 5.10788 4.24083 4.29964C4.41474 3.49141 4.8828 2.77664 5.55412 2.29412C6.22544 1.81161 7.05212 1.59579 7.87363 1.68856C8.69514 1.78134 9.45287 2.17609 9.99967 2.79616C10.3118 2.44065 10.6964 2.15598 11.1276 1.96123C11.5587 1.76648 12.0266 1.66616 12.4997 1.667V1.667ZM10.833 8.33366H9.16634V16.667H10.833V8.33366ZM7.49967 3.33366C7.06719 3.33173 6.65089 3.49799 6.33871 3.79731C6.02654 4.09664 5.84295 4.50559 5.82672 4.93778C5.8105 5.36997 5.9629 5.79154 6.25175 6.11343C6.5406 6.43532 6.94326 6.63233 7.37467 6.66283L7.49967 6.667H9.16634V5.00033C9.16636 4.60205 9.02375 4.21693 8.76433 3.91471C8.50492 3.6125 8.14586 3.41317 7.75217 3.35283L7.62384 3.33783L7.49967 3.33366ZM12.4997 3.33366C12.0792 3.33353 11.6742 3.49234 11.3659 3.77824C11.0576 4.06415 10.8687 4.45603 10.8372 4.87533L10.833 5.00033V6.667H12.4997C12.9202 6.66713 13.3251 6.50833 13.6335 6.22242C13.9418 5.93651 14.1306 5.54463 14.1622 5.12533L14.1663 5.00033C14.1663 4.5583 13.9907 4.13438 13.6782 3.82182C13.3656 3.50926 12.9417 3.33366 12.4997 3.33366V3.33366Z" fill="#12E466"/>
</svg>
