<svg width="105" height="56" viewBox="0 0 105 56" fill="none" xmlns="http://www.w3.org/2000/svg">
<circle cx="28" cy="28" r="28" fill="#1D1D20"/>
<circle cx="28" cy="28" r="27.5" stroke="white" stroke-opacity="0.2"/>
<g clip-path="url(#clip0)">
<path d="M35.8657 30.0068C38.0762 30.0068 39.8681 28.2148 39.8681 26.0044C39.8681 23.7939 38.0762 22.002 35.8657 22.002C33.6552 22.002 31.8633 23.7939 31.8633 26.0044C31.8633 28.2148 33.6552 30.0068 35.8657 30.0068Z" fill="white"/>
<path d="M40.4316 14.9632C36.9762 11.6738 32.3567 9.88992 27.5872 10.0031C22.8178 10.1163 18.2881 12.1174 14.9926 15.567C14.2513 16.3399 13.5831 17.1799 12.9969 18.0762L12.9499 18.1449C12.7443 18.4453 12.5594 18.7594 12.3967 19.085L12.3641 19.1645C12.187 19.4791 12.0026 19.7936 11.8652 20.1154L11.8254 20.1949C11.6772 20.5095 11.5326 20.824 11.3988 21.1458C11.3917 21.1749 11.3808 21.2029 11.3662 21.229C11.2397 21.5472 11.1204 21.8617 11.0047 22.1799C11.0062 22.1956 11.0045 22.2114 10.9995 22.2263C10.9945 22.2413 10.9864 22.255 10.9758 22.2666C10.8709 22.5812 10.7769 22.8994 10.6865 23.2103V23.3079C10.5556 23.609 10.4563 23.9228 10.39 24.2443V24.3492C10.3214 24.6674 10.2707 24.9819 10.2237 25.2929C10.2165 25.3299 10.2165 25.3679 10.2237 25.4049C10.1767 25.7195 10.1406 26.034 10.1116 26.3522V26.4679C10.0498 26.7827 10.0123 27.1018 9.99957 27.4224C10.0032 27.4633 10.0032 27.5044 9.99957 27.5453V28.5649C9.99233 28.6104 9.99233 28.6568 9.99957 28.7023C9.99957 29.0277 10.0321 29.3459 10.061 29.6604V29.8051C10.0972 30.1485 10.1442 30.492 10.1984 30.8463C10.202 30.9005 10.202 30.9549 10.1984 31.009C10.2599 31.3706 10.3322 31.7322 10.419 32.1154L10.466 32.2926C10.56 32.683 10.6684 33.0627 10.7878 33.4531L10.8528 33.652C10.9902 34.0678 11.1457 34.4872 11.312 34.8994L11.4132 35.1199C11.6049 35.5791 11.829 36.0346 12.0604 36.4721C12.103 36.5585 12.1513 36.6418 12.2051 36.7216C12.4724 37.2226 12.7719 37.7056 13.1017 38.1678L13.2897 38.4281C13.6675 38.9344 14.0756 39.4174 14.5118 39.8744L14.7504 40.1455C15.0216 40.4384 15.3036 40.6987 15.5964 41.006C15.8154 41.2291 16.0472 41.4391 16.2906 41.6351L16.6522 41.9316C17.3025 42.4638 17.9914 42.9472 18.713 43.3778L19.2409 43.6851C20.1508 44.1884 21.1014 44.6141 22.0827 44.9578C22.3394 45.0482 22.5925 45.1241 22.8528 45.2073C25.3168 45.9451 27.9101 46.1474 30.4587 45.8007C33.0073 45.454 35.4522 44.5663 37.6296 43.197L38.2731 42.7596L38.6347 42.4884C38.801 42.3691 38.9673 42.2425 39.13 42.1088L39.3072 41.9714L39.4157 41.881L39.488 41.8268L39.629 41.7038L39.7013 41.6496L39.7772 41.5845L39.8098 41.5339L39.8893 41.4616L39.9978 41.3603L40.0809 41.288L40.1496 41.223L40.2436 41.1362C40.2725 41.1073 40.3087 41.0783 40.3376 41.0458C40.3882 40.9952 40.4497 40.9446 40.4967 40.8903L40.5365 40.8578L40.6088 40.7855L40.6594 40.7349V40.7023L40.7028 40.6589L40.757 40.5975L40.8402 40.5143L40.9342 40.4131C42.5745 38.7085 43.8628 36.6974 44.7255 34.4947C45.5882 32.292 46.0083 29.9409 45.962 27.5757C45.9157 25.2106 45.4037 22.8777 44.4554 20.7105C43.5071 18.5433 42.141 16.5842 40.4352 14.9452L40.4316 14.9632ZM13.1632 18.1919C18.3768 19.3453 20.5317 23.8575 22.795 28.5866C23.6158 30.391 24.5405 32.1463 25.5645 33.8436C24.6172 32.4155 23.8037 30.8644 23.0011 29.3459C21.0885 25.7086 19.259 22.2667 15.9038 20.3649C14.872 19.7746 13.749 19.3603 12.5811 19.1392C12.7727 18.8427 12.9571 18.5029 13.1632 18.1919ZM38.7576 41.7147L39.0252 41.6424H39.112L38.8516 41.7219L38.7576 41.7147ZM38.3201 41.6171L38.5732 41.5556H38.6636L38.4141 41.6207L38.3201 41.6171ZM37.861 41.505L38.1104 41.4543H38.2008L37.955 41.5122L37.861 41.505ZM37.4163 41.3929L37.6549 41.3603H37.7308L37.503 41.4037L37.4163 41.3929ZM36.9607 41.2772H37.2536L37.033 41.3061L36.9607 41.2772ZM35.5832 40.8831L39.4627 41.3314L39.2385 41.3929H39.2132L39.4446 41.3386L35.5832 40.8831ZM34.9432 41.0892H34.8709L35.1312 41.0241H35.1927L34.9432 41.0892ZM34.4298 40.9843L34.6901 40.9337H34.7408L34.4949 40.9952L34.4298 40.9843ZM33.9923 40.8903L34.2418 40.8469H34.2852L34.0466 40.8903H33.9923ZM33.5404 40.7891L33.7754 40.7566H33.8079L33.591 40.7891H33.5404ZM32.6329 40.5758L35.1638 40.8397L34.9468 40.8903H34.9143L35.1276 40.8397L32.6329 40.5758ZM31.9532 40.5758L32.1593 40.536L31.9712 40.5758H31.9532ZM32.9655 40.0768L33.1427 40.1491H33.0704L32.7088 40.0588L32.9655 40.0768ZM32.3183 39.8418L32.4883 39.8744L32.6112 39.925C32.34 39.8852 32.058 39.8418 31.8085 39.7876L31.2518 39.5887C31.608 39.6907 31.9703 39.7704 32.3364 39.8274L32.3183 39.8418ZM31.7182 39.8744C31.8302 39.9105 31.9351 39.9467 32.0436 39.9756C32.3726 40.0768 32.7052 40.16 33.0487 40.2359L33.5259 40.3299H33.4355C32.7271 40.2039 32.0305 40.0189 31.353 39.7767L31.7145 39.8707L31.7182 39.8744ZM39.2602 41.6207H39.1915L39.4627 41.5447H39.5277L39.2602 41.6207ZM39.6832 41.2844L39.8784 41.2338L39.6832 41.2844ZM40.0701 40.6083L39.2276 40.6734H37.4199C36.7763 40.6336 36.14 40.5794 35.5181 40.5143C34.9975 40.4095 34.4877 40.2901 33.996 40.1528C34.4877 40.1961 34.9866 40.2359 35.4928 40.2576C37.0041 40.4022 38.6166 40.5035 40.2762 40.5577L40.0701 40.6083ZM12.5305 19.2079C13.6994 19.4296 14.8234 19.8438 15.8568 20.4336C19.1831 22.3209 20.9981 25.752 22.9215 29.382C23.9346 31.4359 25.1199 33.4001 26.4648 35.2537C25.2252 33.6234 24.1039 31.9064 23.1095 30.116C21.1752 26.7897 19.165 23.3802 15.7664 21.4965C14.5958 20.8486 13.3287 20.3932 12.0134 20.1479C12.2195 19.8298 12.3641 19.5116 12.5305 19.2079ZM11.9773 20.2311C13.2891 20.4661 14.5526 20.9182 15.7157 21.5688C19.0927 23.4489 21.0993 26.8548 23.0264 30.1521C24.2259 32.3776 25.665 34.4653 27.318 36.3781C25.7801 34.6818 24.4106 32.8401 23.2289 30.8789C21.1825 27.737 19.0818 24.4938 15.6362 22.6318C14.3575 21.9382 12.9775 21.4502 11.547 21.1856C11.6916 20.8638 11.8327 20.5529 11.9881 20.2311H11.9773ZM11.359 21.7026C11.4096 21.5508 11.4711 21.4062 11.5326 21.2688C12.9594 21.5341 14.3356 22.0222 15.6109 22.715C19.0312 24.5661 21.1535 27.802 23.1602 30.9331C24.8233 33.464 26.4865 36.06 28.8872 37.8967C26.6709 36.266 25.0439 34.0136 23.3446 31.6309C21.2114 28.6553 19.0059 25.5966 15.535 23.7599C14.1637 23.0346 12.6933 22.5144 11.171 22.216C11.2505 22.0461 11.3048 21.8689 11.3699 21.7026H11.359ZM11.1385 22.31C12.6517 22.5993 14.1138 23.111 15.4771 23.8286C18.9264 25.6544 21.1318 28.7023 23.2361 31.649C25.6549 35.0042 27.9363 38.1751 31.9134 39.6032L32.0508 39.6574C31.0329 39.4464 30.0561 39.0715 29.1584 38.5474L29.068 38.5005L28.9631 38.4318L28.6919 38.2618L28.4931 38.1353C26.4105 36.6891 24.7908 34.5631 23.1059 32.3504C20.9728 29.5303 18.7673 26.627 15.3903 24.8807C13.9516 24.1225 12.4167 23.563 10.8275 23.2175C10.9288 22.9066 11.0228 22.592 11.124 22.2739L11.1385 22.31ZM10.8239 23.3549C12.4036 23.6911 13.9302 24.2409 15.3614 24.9891C18.7167 26.7174 20.9041 29.6171 23.0445 32.4263C24.118 33.916 25.2935 35.3294 26.5624 36.6565C25.9935 36.1576 25.4283 35.6357 24.8667 35.091C24.3135 34.4546 23.7314 33.7785 23.1674 33.1024C20.9511 30.4812 18.6588 27.708 15.2855 26.0485C13.7952 25.2791 12.2169 24.6939 10.5853 24.3058C10.6721 23.9804 10.7552 23.6695 10.8348 23.3549H10.8239ZM30.5648 39.426C28.8734 38.7535 27.3495 37.7194 26.0996 36.3962C27.4236 37.6345 28.9341 38.6569 30.5756 39.426H30.5648ZM10.5853 24.3854C12.2025 24.769 13.7673 25.3469 15.2457 26.1064C18.572 27.7695 20.8824 30.5426 23.0987 33.1531C23.3699 33.4748 23.6555 33.7894 23.905 34.1039L23.5109 33.7135C21.1282 31.3236 18.666 28.8686 15.1951 27.1513C13.6688 26.3875 12.0685 25.7818 10.419 25.3435C10.4696 25.0362 10.5238 24.7144 10.5853 24.3854ZM10.4009 25.4917C12.0352 25.9303 13.6199 26.536 15.13 27.2995C18.5973 29.006 21.0595 31.4682 23.4458 33.8328C23.923 34.31 24.4003 34.7873 24.8667 35.2428C25.5483 36.0063 26.2726 36.7306 27.036 37.4122C25.8067 36.4685 24.6353 35.4562 23.4494 34.3462C21.0125 32.1769 18.4961 29.9135 15.0433 28.2504C13.5142 27.49 11.9237 26.8599 10.2888 26.3667C10.3201 26.0847 10.3575 25.793 10.4009 25.4917ZM10.2852 26.533C11.9009 27.0281 13.473 27.6557 14.9854 28.4095C18.4202 30.069 20.9366 32.2889 23.3626 34.4655C25.9911 36.8156 28.4967 39.0428 31.8049 40.0515C32.3288 40.2081 32.8627 40.3289 33.403 40.4131C33.6886 40.4673 33.9562 40.5035 34.2707 40.5396L33.8296 40.4926C29.6175 39.9828 26.6998 37.6761 23.3265 34.9934C20.8571 33.0374 18.337 31.0163 14.9239 29.4507C13.3997 28.6989 11.8299 28.0432 10.2237 27.4875C10.2418 27.1838 10.2563 26.8548 10.2852 26.533ZM10.2346 28.4203V27.6249C11.8223 28.1705 13.375 28.8128 14.8842 29.5484C18.2539 31.1284 20.7992 33.1458 23.265 35.091C26.0056 37.2603 28.4425 39.1982 31.5085 40.1311C32.257 40.3581 33.024 40.519 33.8007 40.6119C34.1333 40.6517 34.4624 40.6915 34.7986 40.7168H34.8384C34.6197 40.7223 34.401 40.7114 34.184 40.6842C29.8742 40.3588 26.7287 38.1534 23.0987 35.5863C20.5047 33.6554 17.7294 31.9808 14.8119 30.586C13.5898 30.0328 12.0424 29.3459 10.2418 28.6806C10.2418 28.5866 10.2346 28.5071 10.2346 28.4203V28.4203ZM10.2346 28.7819C12.0026 29.4399 13.5609 30.116 14.7468 30.6656C17.655 32.0685 20.4236 33.744 23.0155 35.6695C25.7561 37.6074 28.2255 39.3393 31.1288 40.2251C32.1205 40.5195 33.1413 40.705 34.1731 40.7782C34.5347 40.8072 34.9215 40.818 35.2795 40.8361H34.5166C30.0659 40.7349 26.6311 38.6017 22.6721 36.1178C20.1238 34.452 17.4595 32.9706 14.6998 31.6851L13.4633 31.1284C12.5051 30.6909 11.4639 30.2028 10.3286 29.7508C10.2888 29.4399 10.2671 29.1181 10.2563 28.818L10.2346 28.7819ZM10.3141 29.8882C11.4205 30.3402 12.4401 30.8102 13.3837 31.2441L14.613 31.7972C17.3657 33.0851 20.0238 34.5664 22.5672 36.2299C25.3367 37.9473 27.8206 39.502 30.601 40.3444C31.8764 40.7348 33.1979 40.9549 34.5311 40.9988H34.8926C30.1707 41.0458 26.3744 38.9524 21.9779 36.53C19.8085 35.3332 17.3572 33.9738 14.5515 32.7553C13.9514 32.495 13.3042 32.2022 12.6281 31.8804C11.952 31.5586 11.2216 31.2151 10.4587 30.8825C10.3973 30.6005 10.3539 30.2498 10.3069 29.9135L10.3141 29.8882ZM10.4913 31.1103C11.2144 31.4321 11.9158 31.7647 12.5702 32.0612C13.2246 32.3576 13.8827 32.683 14.5154 32.9542C17.2849 34.1726 19.6567 35.4851 21.9309 36.718C24.7004 38.2474 27.2349 39.6502 29.9212 40.4637C31.5361 40.9651 33.2199 41.2092 34.9107 41.1868C35.3662 41.1868 35.8146 41.1868 36.2737 41.1434H36.3569C35.9954 41.176 35.6338 41.2049 35.2722 41.223C30.2105 41.4941 26.1068 39.4875 20.9221 36.9494C18.9047 35.9949 16.8257 34.9572 14.4322 33.9557C13.6332 33.6122 12.7691 33.1784 11.811 32.7228L10.7263 32.2094C10.6283 31.8438 10.5499 31.4733 10.4913 31.0994V31.1103ZM10.7661 32.3938L11.7314 32.8566C12.6678 33.3085 13.5392 33.7424 14.3708 34.0859C16.7643 35.0982 18.8721 36.1214 20.8607 37.1193C23.7531 38.5366 26.3201 39.7948 28.9016 40.5722C30.9635 41.2273 33.126 41.5077 35.2867 41.4001C35.7748 41.3676 36.2629 41.335 36.7582 41.2916H36.8414L35.6483 41.429C30.0622 41.9569 25.2716 39.849 19.1939 37.1844C17.6501 36.5083 16.0556 35.8033 14.3201 35.0838C13.3548 34.6969 12.2701 34.1509 11.1095 33.5688C11.0047 33.182 10.889 32.7951 10.7841 32.401L10.7661 32.3938ZM11.1927 33.793C12.3027 34.3462 13.3223 34.8777 14.2659 35.2392C15.9941 35.9623 17.5886 36.6529 19.1252 37.3362C21.8286 38.601 24.6055 39.7021 27.441 40.6336C30.0898 41.5124 32.8878 41.8517 35.67 41.6315C36.1906 41.5773 36.7112 41.523 37.2319 41.4435L37.3331 41.476C36.8992 41.5484 36.469 41.6207 36.0315 41.6821C29.6609 42.5462 24.0532 40.2757 16.287 37.1157L14.2189 36.2733C13.5175 35.984 12.5955 35.5249 11.688 35.0657C11.5097 34.6366 11.3446 34.2172 11.1927 33.8075V33.793ZM11.8073 35.3043C12.6317 35.7309 13.4271 36.1178 14.1611 36.4107L16.2292 37.2495C19.6278 38.627 22.6142 39.849 25.4307 40.6951C29.0571 41.8051 32.416 42.3149 36.0315 41.8051C36.5883 41.7327 37.1415 41.6424 37.6947 41.5375L37.7959 41.57C37.3223 41.6713 36.8595 41.7653 36.3822 41.8484C29.3717 43.0886 22.7191 40.7855 14.0779 37.4158C13.5693 37.2085 13.0378 36.9675 12.4834 36.6927C12.2159 36.2082 11.999 35.7562 11.7893 35.2826L11.8073 35.3043ZM12.6317 36.9277C13.1198 37.1591 13.5826 37.376 14.0345 37.5459C17.1764 38.7825 20.0616 39.8744 22.7878 40.7059C27.5856 42.1521 31.9315 42.8174 36.422 42.022C37.0077 41.9135 37.5898 41.7978 38.1683 41.6604H38.2768C37.7814 41.7942 37.2825 41.9099 36.7727 42.022C29.5669 43.5839 22.4551 41.7436 13.9731 38.5041L13.5826 38.3414C13.2405 37.8763 12.9231 37.3935 12.6317 36.8952V36.9277ZM13.7417 38.627L13.8971 38.6885C16.0665 39.5273 18.1599 40.2648 20.1809 40.8578C26.0634 42.6439 31.3891 43.3634 36.8125 42.1955C37.4271 42.0618 38.0381 41.9063 38.6202 41.7581H38.7287C38.1755 41.9171 37.6657 42.0618 37.1342 42.1992C30.6986 43.8623 23.8327 43.1862 14.9637 40.0298C14.5274 39.574 14.1205 39.0909 13.7453 38.5836L13.7417 38.627ZM15.7483 40.8903L15.1951 40.3371C16.1677 40.6806 17.1113 40.9879 18.0478 41.2772C25.4416 43.5224 31.4615 43.8623 37.1379 42.3872C37.7814 42.2245 38.4178 42.0437 39.0396 41.8304H39.1228L39.0758 41.8665C38.5226 42.0545 37.9911 42.2281 37.4633 42.3799C31.0782 44.2636 24.4473 44.0937 16.8185 41.787C16.4517 41.4998 16.1005 41.1933 15.7664 40.8686L15.7483 40.8903ZM34.9107 44.4083C31.4492 45.8543 27.621 46.1768 23.9664 45.3302C24.5196 45.3302 25.1234 45.3736 25.6947 45.3736C29.2531 45.3452 32.7872 44.7846 36.1797 43.7104L36.6281 43.5622C36.0749 43.8623 35.5217 44.1371 34.9324 44.3866L34.9107 44.4083ZM23.0951 45.0807C22.0265 44.7736 20.9891 44.3669 19.9966 43.8659C25.9558 45.0907 32.133 44.7164 37.9007 42.7813C37.7344 42.897 37.5392 43.009 37.3801 43.1211C32.7998 44.7587 27.929 45.426 23.077 45.0807H23.0951ZM38.4431 42.4125L37.8899 42.6149C31.9442 44.6022 25.5692 44.931 19.4506 43.5658C18.6772 43.139 17.9364 42.6556 17.2343 42.1196C24.7221 44.3106 31.2518 44.4553 37.5464 42.586C37.9297 42.4739 38.3129 42.3546 38.6564 42.2245C38.5769 42.2823 38.4937 42.3365 38.4105 42.4016L38.4431 42.4125ZM40.6594 40.489C39.7013 40.4637 38.754 40.4203 37.8393 40.3697H40.7715L40.6594 40.489ZM40.898 40.254C38.9926 40.254 37.1234 40.254 35.3879 40.1419C34.513 40.0515 33.6778 39.9431 32.8787 39.8093L32.4449 39.6646C32.0363 39.5056 31.6422 39.3393 31.2698 39.1549L30.883 38.9596C30.3551 38.6806 29.8508 38.359 29.3753 37.9979C26.2948 35.6478 24.563 32.0395 22.889 28.5288C20.6184 23.7924 18.4563 19.273 13.2246 18.1052C13.7905 17.2471 14.4318 16.4413 15.1409 15.6972C18.38 12.26 22.852 10.2504 27.5729 10.1103C32.2938 9.97033 36.8769 11.7114 40.3141 14.9506C43.7513 18.1898 45.761 22.6617 45.901 27.3826C46.041 32.1035 44.2999 36.6866 41.0607 40.1238C41.0196 40.1638 40.9821 40.2074 40.9486 40.254H40.898Z" fill="white"/>
</g>
<circle cx="77" cy="28" r="28" fill="#1D1D20"/>
<circle cx="77" cy="28" r="27.5" stroke="white" stroke-opacity="0.2"/>
<g clip-path="url(#clip1)">
<path d="M84.8657 30.0068C87.0762 30.0068 88.8681 28.2148 88.8681 26.0044C88.8681 23.7939 87.0762 22.002 84.8657 22.002C82.6552 22.002 80.8633 23.7939 80.8633 26.0044C80.8633 28.2148 82.6552 30.0068 84.8657 30.0068Z" fill="white"/>
<path d="M89.4316 14.9632C85.9762 11.6738 81.3567 9.88992 76.5872 10.0031C71.8178 10.1163 67.2881 12.1174 63.9926 15.567C63.2513 16.3399 62.5831 17.1799 61.9969 18.0762L61.9499 18.1449C61.7443 18.4453 61.5594 18.7594 61.3967 19.085L61.3641 19.1645C61.187 19.4791 61.0026 19.7936 60.8652 20.1154L60.8254 20.1949C60.6772 20.5095 60.5326 20.824 60.3988 21.1458C60.3917 21.1749 60.3808 21.2029 60.3662 21.229C60.2397 21.5472 60.1204 21.8617 60.0047 22.1799C60.0062 22.1956 60.0045 22.2114 59.9995 22.2263C59.9945 22.2413 59.9864 22.255 59.9758 22.2666C59.8709 22.5812 59.7769 22.8994 59.6865 23.2103V23.3079C59.5556 23.609 59.4563 23.9228 59.39 24.2443V24.3492C59.3214 24.6674 59.2707 24.9819 59.2237 25.2929C59.2165 25.3299 59.2165 25.3679 59.2237 25.4049C59.1767 25.7195 59.1406 26.034 59.1116 26.3522V26.4679C59.0498 26.7827 59.0123 27.1018 58.9996 27.4224C59.0032 27.4633 59.0032 27.5044 58.9996 27.5453V28.5649C58.9923 28.6104 58.9923 28.6568 58.9996 28.7023C58.9996 29.0277 59.0321 29.3459 59.061 29.6604V29.8051C59.0972 30.1485 59.1442 30.492 59.1984 30.8463C59.202 30.9005 59.202 30.9549 59.1984 31.009C59.2599 31.3706 59.3322 31.7322 59.419 32.1154L59.466 32.2926C59.56 32.683 59.6684 33.0627 59.7878 33.4531L59.8528 33.652C59.9902 34.0678 60.1457 34.4872 60.312 34.8994L60.4132 35.1199C60.6049 35.5791 60.829 36.0346 61.0604 36.4721C61.103 36.5585 61.1513 36.6418 61.2051 36.7216C61.4724 37.2226 61.7719 37.7056 62.1017 38.1678L62.2897 38.4281C62.6675 38.9344 63.0756 39.4174 63.5118 39.8744L63.7504 40.1455C64.0216 40.4384 64.3036 40.6987 64.5964 41.006C64.8154 41.2291 65.0472 41.4391 65.2906 41.6351L65.6522 41.9316C66.3025 42.4638 66.9914 42.9472 67.713 43.3778L68.2409 43.6851C69.1508 44.1884 70.1014 44.6141 71.0827 44.9578C71.3394 45.0482 71.5925 45.1241 71.8528 45.2073C74.3168 45.9451 76.9101 46.1474 79.4587 45.8007C82.0073 45.454 84.4522 44.5663 86.6296 43.197L87.2731 42.7596L87.6347 42.4884C87.801 42.3691 87.9673 42.2425 88.13 42.1088L88.3072 41.9714L88.4157 41.881L88.488 41.8267L88.629 41.7038L88.7013 41.6496L88.7772 41.5845L88.8098 41.5339L88.8893 41.4616L88.9978 41.3603L89.0809 41.288L89.1496 41.223L89.2436 41.1362C89.2725 41.1073 89.3087 41.0783 89.3376 41.0458C89.3882 40.9952 89.4497 40.9446 89.4967 40.8903L89.5365 40.8578L89.6088 40.7855L89.6594 40.7349V40.7023L89.7028 40.6589L89.757 40.5975L89.8402 40.5143L89.9342 40.4131C91.5745 38.7085 92.8628 36.6974 93.7255 34.4947C94.5882 32.292 95.0084 29.9409 94.962 27.5757C94.9157 25.2106 94.4037 22.8777 93.4554 20.7105C92.5071 18.5433 91.141 16.5842 89.4352 14.9452L89.4316 14.9632ZM62.1632 18.1919C67.3768 19.3453 69.5317 23.8575 71.795 28.5866C72.6158 30.391 73.5405 32.1463 74.5645 33.8436C73.6172 32.4155 72.8037 30.8644 72.0011 29.3459C70.0885 25.7086 68.259 22.2667 64.9038 20.3649C63.872 19.7746 62.749 19.3603 61.5811 19.1392C61.7727 18.8427 61.9571 18.5029 62.1632 18.1919ZM87.7576 41.7147L88.0252 41.6424H88.1119L87.8516 41.7219L87.7576 41.7147ZM87.3201 41.6171L87.5732 41.5556H87.6636L87.4142 41.6207L87.3201 41.6171ZM86.861 41.505L87.1104 41.4543H87.2008L86.955 41.5122L86.861 41.505ZM86.4163 41.3929L86.6549 41.3603H86.7308L86.503 41.4037L86.4163 41.3929ZM85.9607 41.2772H86.2536L86.033 41.3061L85.9607 41.2772ZM84.5832 40.8831L88.4627 41.3314L88.2385 41.3929H88.2132L88.4446 41.3386L84.5832 40.8831ZM83.9432 41.0892H83.8709L84.1312 41.0241H84.1927L83.9432 41.0892ZM83.4298 40.9843L83.6901 40.9337H83.7408L83.4949 40.9952L83.4298 40.9843ZM82.9923 40.8903L83.2418 40.8469H83.2852L83.0466 40.8903H82.9923ZM82.5404 40.7891L82.7754 40.7566H82.8079L82.591 40.7891H82.5404ZM81.6329 40.5758L84.1638 40.8397L83.9468 40.8903H83.9143L84.1276 40.8397L81.6329 40.5758ZM80.9532 40.5758L81.1593 40.536L80.9712 40.5758H80.9532ZM81.9655 40.0768L82.1427 40.1491H82.0704L81.7088 40.0588L81.9655 40.0768ZM81.3183 39.8418L81.4883 39.8744L81.6112 39.925C81.34 39.8852 81.058 39.8418 80.8085 39.7876L80.2518 39.5887C80.608 39.6907 80.9703 39.7704 81.3364 39.8274L81.3183 39.8418ZM80.7182 39.8744C80.8302 39.9105 80.9351 39.9467 81.0436 39.9756C81.3726 40.0768 81.7052 40.16 82.0487 40.2359L82.5259 40.3299H82.4355C81.7271 40.2039 81.0305 40.0189 80.353 39.7767L80.7145 39.8707L80.7182 39.8744ZM88.2602 41.6207H88.1915L88.4627 41.5447H88.5277L88.2602 41.6207ZM88.6832 41.2844L88.8784 41.2338L88.6832 41.2844ZM89.0701 40.6083L88.2276 40.6734H86.4199C85.7763 40.6336 85.14 40.5794 84.5181 40.5143C83.9975 40.4095 83.4877 40.2901 82.996 40.1528C83.4877 40.1961 83.9866 40.2359 84.4928 40.2576C86.0041 40.4022 87.6166 40.5035 89.2762 40.5577L89.0701 40.6083ZM61.5305 19.2079C62.6994 19.4296 63.8234 19.8438 64.8568 20.4336C68.1831 22.3209 69.9981 25.752 71.9215 29.382C72.9346 31.4359 74.1199 33.4001 75.4648 35.2537C74.2252 33.6234 73.1039 31.9064 72.1095 30.116C70.1752 26.7897 68.165 23.3802 64.7664 21.4965C63.5958 20.8486 62.3287 20.3932 61.0134 20.1479C61.2195 19.8298 61.3641 19.5116 61.5305 19.2079ZM60.9773 20.2311C62.2891 20.4661 63.5526 20.9182 64.7157 21.5688C68.0927 23.4489 70.0993 26.8548 72.0264 30.1521C73.2259 32.3776 74.665 34.4653 76.318 36.3781C74.7801 34.6818 73.4106 32.8401 72.2289 30.8789C70.1825 27.737 68.0818 24.4938 64.6362 22.6318C63.3575 21.9382 61.9775 21.4502 60.547 21.1856C60.6916 20.8638 60.8327 20.5529 60.9881 20.2311H60.9773ZM60.359 21.7026C60.4096 21.5508 60.4711 21.4062 60.5326 21.2688C61.9594 21.5341 63.3356 22.0222 64.6109 22.715C68.0312 24.5661 70.1535 27.802 72.1602 30.9331C73.8233 33.464 75.4865 36.06 77.8872 37.8967C75.6709 36.266 74.0439 34.0136 72.3446 31.6309C70.2114 28.6553 68.0059 25.5966 64.535 23.7599C63.1637 23.0346 61.6933 22.5144 60.171 22.216C60.2505 22.0461 60.3048 21.8689 60.3699 21.7026H60.359ZM60.1385 22.31C61.6517 22.5993 63.1138 23.111 64.4771 23.8286C67.9264 25.6544 70.1318 28.7023 72.2361 31.649C74.6549 35.0042 76.9363 38.1751 80.9134 39.6032L81.0508 39.6574C80.0329 39.4464 79.0561 39.0715 78.1584 38.5474L78.068 38.5005L77.9631 38.4318L77.6919 38.2618L77.4931 38.1353C75.4105 36.6891 73.7908 34.5631 72.1059 32.3504C69.9728 29.5303 67.7673 26.627 64.3903 24.8807C62.9516 24.1225 61.4167 23.563 59.8275 23.2175C59.9288 22.9066 60.0228 22.592 60.124 22.2739L60.1385 22.31ZM59.8239 23.3549C61.4036 23.6911 62.9302 24.2409 64.3614 24.9891C67.7167 26.7174 69.9041 29.6171 72.0445 32.4263C73.118 33.916 74.2935 35.3294 75.5624 36.6565C74.9935 36.1576 74.4283 35.6357 73.8667 35.091C73.3135 34.4546 72.7314 33.7785 72.1674 33.1024C69.9511 30.4812 67.6588 27.708 64.2855 26.0485C62.7952 25.2791 61.2169 24.6939 59.5853 24.3058C59.6721 23.9804 59.7552 23.6695 59.8348 23.3549H59.8239ZM79.5648 39.426C77.8734 38.7535 76.3495 37.7194 75.0996 36.3962C76.4236 37.6345 77.9341 38.6569 79.5756 39.426H79.5648ZM59.5853 24.3854C61.2025 24.769 62.7673 25.3469 64.2457 26.1064C67.572 27.7695 69.8824 30.5426 72.0987 33.1531C72.3699 33.4748 72.6555 33.7894 72.905 34.1039L72.5109 33.7135C70.1282 31.3236 67.666 28.8686 64.1951 27.1513C62.6688 26.3875 61.0685 25.7818 59.419 25.3435C59.4696 25.0362 59.5238 24.7144 59.5853 24.3854ZM59.4009 25.4917C61.0352 25.9303 62.6199 26.536 64.13 27.2995C67.5973 29.006 70.0595 31.4682 72.4458 33.8328C72.923 34.31 73.4003 34.7873 73.8667 35.2428C74.5483 36.0063 75.2726 36.7306 76.036 37.4122C74.8067 36.4685 73.6353 35.4562 72.4494 34.3462C70.0125 32.1769 67.4961 29.9135 64.0433 28.2504C62.5142 27.49 60.9237 26.8599 59.2888 26.3667C59.3201 26.0847 59.3575 25.793 59.4009 25.4917ZM59.2852 26.533C60.9009 27.0281 62.473 27.6557 63.9854 28.4095C67.4202 30.069 69.9366 32.2889 72.3626 34.4655C74.9911 36.8156 77.4967 39.0428 80.8049 40.0515C81.3288 40.2081 81.8627 40.3289 82.403 40.4131C82.6886 40.4673 82.9562 40.5035 83.2707 40.5396L82.8296 40.4926C78.6175 39.9828 75.6998 37.6761 72.3265 34.9934C69.8571 33.0374 67.337 31.0163 63.9239 29.4507C62.3997 28.6989 60.8299 28.0432 59.2237 27.4875C59.2418 27.1838 59.2563 26.8548 59.2852 26.533ZM59.2346 28.4203V27.6249C60.8223 28.1705 62.375 28.8128 63.8842 29.5484C67.2539 31.1284 69.7992 33.1458 72.265 35.091C75.0056 37.2603 77.4425 39.1982 80.5085 40.1311C81.257 40.3581 82.024 40.519 82.8007 40.6119C83.1333 40.6517 83.4624 40.6915 83.7986 40.7168H83.8384C83.6197 40.7223 83.401 40.7114 83.184 40.6842C78.8742 40.3588 75.7287 38.1534 72.0987 35.5863C69.5047 33.6554 66.7294 31.9808 63.8119 30.586C62.5898 30.0328 61.0424 29.3459 59.2418 28.6806C59.2418 28.5866 59.2346 28.5071 59.2346 28.4203ZM59.2346 28.7819C61.0026 29.4399 62.5609 30.116 63.7468 30.6656C66.655 32.0685 69.4236 33.744 72.0155 35.6695C74.7561 37.6074 77.2255 39.3393 80.1288 40.2251C81.1205 40.5195 82.1413 40.705 83.1731 40.7782C83.5347 40.8072 83.9215 40.818 84.2795 40.8361H83.5166C79.0659 40.7349 75.6311 38.6017 71.6721 36.1178C69.1238 34.452 66.4595 32.9706 63.6998 31.6851L62.4633 31.1284C61.5051 30.6909 60.4639 30.2028 59.3286 29.7508C59.2888 29.4399 59.2671 29.1181 59.2563 28.818L59.2346 28.7819ZM59.3141 29.8882C60.4205 30.3402 61.4401 30.8102 62.3837 31.2441L63.613 31.7972C66.3657 33.0851 69.0238 34.5664 71.5672 36.2299C74.3367 37.9473 76.8206 39.502 79.601 40.3444C80.8764 40.7348 82.1979 40.9549 83.5311 40.9988H83.8926C79.1707 41.0458 75.3744 38.9524 70.9779 36.53C68.8085 35.3332 66.3572 33.9738 63.5515 32.7553C62.9514 32.495 62.3042 32.2022 61.6281 31.8804C60.952 31.5586 60.2216 31.2151 59.4587 30.8825C59.3973 30.6005 59.3539 30.2498 59.3069 29.9135L59.3141 29.8882ZM59.4913 31.1103C60.2144 31.4321 60.9158 31.7647 61.5702 32.0612C62.2246 32.3576 62.8827 32.683 63.5154 32.9542C66.2849 34.1726 68.6567 35.4851 70.9309 36.718C73.7004 38.2474 76.2349 39.6502 78.9212 40.4637C80.5361 40.9651 82.2199 41.2092 83.9107 41.1868C84.3662 41.1868 84.8146 41.1868 85.2737 41.1434H85.3569C84.9953 41.176 84.6338 41.2049 84.2722 41.223C79.2105 41.4941 75.1068 39.4875 69.9221 36.9494C67.9047 35.9949 65.8257 34.9572 63.4322 33.9557C62.6332 33.6122 61.7691 33.1784 60.811 32.7228L59.7263 32.2094C59.6283 31.8438 59.5499 31.4733 59.4913 31.0994V31.1103ZM59.7661 32.3938L60.7314 32.8566C61.6678 33.3085 62.5392 33.7424 63.3708 34.0859C65.7643 35.0982 67.8721 36.1214 69.8607 37.1193C72.7531 38.5366 75.3201 39.7948 77.9016 40.5722C79.9635 41.2273 82.126 41.5077 84.2867 41.4001C84.7748 41.3676 85.2629 41.335 85.7582 41.2916H85.8414L84.6483 41.429C79.0622 41.9569 74.2716 39.849 68.1939 37.1844C66.6501 36.5083 65.0556 35.8033 63.3201 35.0838C62.3548 34.6969 61.2701 34.1509 60.1095 33.5688C60.0047 33.182 59.889 32.7951 59.7841 32.401L59.7661 32.3938ZM60.1927 33.793C61.3027 34.3462 62.3223 34.8777 63.2659 35.2392C64.9941 35.9623 66.5886 36.6529 68.1252 37.3362C70.8286 38.601 73.6055 39.7021 76.441 40.6336C79.0898 41.5124 81.8878 41.8517 84.67 41.6315C85.1906 41.5773 85.7112 41.523 86.2319 41.4435L86.3331 41.476C85.8992 41.5484 85.469 41.6207 85.0315 41.6821C78.6609 42.5462 73.0532 40.2757 65.287 37.1157L63.2189 36.2733C62.5175 35.984 61.5955 35.5249 60.688 35.0657C60.5097 34.6366 60.3446 34.2172 60.1927 33.8075V33.793ZM60.8073 35.3043C61.6317 35.7309 62.4271 36.1178 63.1611 36.4107L65.2292 37.2495C68.6278 38.627 71.6142 39.849 74.4307 40.6951C78.0571 41.8051 81.416 42.3148 85.0315 41.8051C85.5883 41.7327 86.1415 41.6424 86.6947 41.5375L86.7959 41.57C86.3223 41.6713 85.8595 41.7653 85.3822 41.8484C78.3717 43.0886 71.7191 40.7855 63.0779 37.4158C62.5693 37.2085 62.0378 36.9675 61.4834 36.6927C61.2159 36.2082 60.999 35.7562 60.7893 35.2826L60.8073 35.3043ZM61.6317 36.9277C62.1198 37.1591 62.5826 37.376 63.0345 37.5459C66.1764 38.7825 69.0616 39.8744 71.7878 40.7059C76.5856 42.1521 80.9315 42.8174 85.422 42.022C86.0077 41.9135 86.5898 41.7978 87.1683 41.6604H87.2768C86.7814 41.7942 86.2825 41.9099 85.7727 42.022C78.5669 43.5839 71.4551 41.7436 62.9731 38.5041L62.5826 38.3414C62.2405 37.8763 61.9231 37.3935 61.6317 36.8952V36.9277ZM62.7417 38.627L62.8971 38.6885C65.0665 39.5273 67.1599 40.2648 69.1809 40.8578C75.0634 42.6439 80.3891 43.3634 85.8125 42.1955C86.4271 42.0618 87.0381 41.9063 87.6202 41.7581H87.7287C87.1755 41.9171 86.6657 42.0618 86.1342 42.1992C79.6986 43.8623 72.8327 43.1862 63.9637 40.0298C63.5274 39.574 63.1205 39.0909 62.7453 38.5836L62.7417 38.627ZM64.7483 40.8903L64.1951 40.3371C65.1677 40.6806 66.1113 40.9879 67.0478 41.2772C74.4416 43.5224 80.4615 43.8623 86.1379 42.3872C86.7814 42.2245 87.4178 42.0437 88.0396 41.8304H88.1228L88.0758 41.8665C87.5226 42.0545 86.9911 42.2281 86.4633 42.3799C80.0782 44.2636 73.4473 44.0937 65.8185 41.787C65.4517 41.4998 65.1005 41.1933 64.7664 40.8686L64.7483 40.8903ZM83.9107 44.4083C80.4492 45.8543 76.621 46.1768 72.9664 45.3302C73.5196 45.3302 74.1234 45.3736 74.6947 45.3736C78.2531 45.3452 81.7872 44.7846 85.1797 43.7104L85.6281 43.5622C85.0749 43.8623 84.5217 44.1371 83.9324 44.3866L83.9107 44.4083ZM72.0951 45.0807C71.0265 44.7736 69.9891 44.3669 68.9966 43.8659C74.9558 45.0907 81.133 44.7164 86.9007 42.7813C86.7344 42.897 86.5392 43.009 86.3801 43.1211C81.7998 44.7587 76.929 45.426 72.077 45.0807H72.0951ZM87.4431 42.4125L86.8899 42.6149C80.9442 44.6022 74.5692 44.931 68.4506 43.5658C67.6772 43.139 66.9364 42.6556 66.2343 42.1196C73.7221 44.3106 80.2518 44.4553 86.5464 42.586C86.9297 42.4739 87.3129 42.3546 87.6564 42.2245C87.5769 42.2823 87.4937 42.3365 87.4105 42.4016L87.4431 42.4125ZM89.6594 40.489C88.7013 40.4637 87.754 40.4203 86.8393 40.3697H89.7715L89.6594 40.489ZM89.898 40.254C87.9926 40.254 86.1234 40.254 84.3879 40.1419C83.513 40.0515 82.6778 39.9431 81.8787 39.8093L81.4449 39.6646C81.0363 39.5056 80.6422 39.3393 80.2698 39.1549L79.883 38.9596C79.3551 38.6806 78.8508 38.359 78.3753 37.9979C75.2948 35.6478 73.563 32.0395 71.889 28.5288C69.6184 23.7924 67.4563 19.273 62.2246 18.1052C62.7905 17.2471 63.4318 16.4413 64.1409 15.6972C67.38 12.26 71.852 10.2504 76.5729 10.1103C81.2938 9.97033 85.8769 11.7114 89.3141 14.9506C92.7513 18.1898 94.761 22.6617 94.901 27.3826C95.041 32.1035 93.2999 36.6866 90.0607 40.1238C90.0196 40.1638 89.9821 40.2074 89.9486 40.254H89.898Z" fill="white"/>
</g>
<defs>
<clipPath id="clip0">
<rect width="35.9783" height="36" fill="white" transform="translate(10 10)"/>
</clipPath>
<clipPath id="clip1">
<rect width="35.9783" height="36" fill="white" transform="translate(59 10)"/>
</clipPath>
</defs>
</svg>
