<svg width="58" height="58" viewBox="0 0 58 58" fill="none" xmlns="http://www.w3.org/2000/svg">
<path d="M29.9352 27.1289H28.0643V28.9999C26.517 28.9999 25.2578 30.259 25.2578 31.8063C25.2578 33.3536 26.517 34.6128 28.0643 34.6128H29.9352C30.4507 34.6128 30.8707 35.0328 30.8707 35.5483C30.8707 36.0637 30.4507 36.4837 29.9352 36.4837H27.1288V35.5483H25.2578V38.3547H28.0643V40.2257H29.9352V38.3547C31.4825 38.3547 32.7417 37.0956 32.7417 35.5483C32.7417 34.001 31.4825 32.7418 29.9352 32.7418H28.0643C27.5488 32.7418 27.1288 32.3218 27.1288 31.8063C27.1288 31.2909 27.5488 30.8708 28.0643 30.8708H30.8707V31.8063H32.7417V28.9999H29.9352V27.1289Z" fill="url(#paint0_linear_349_14059)"/>
<path d="M41.1605 33.9637C41.1605 30.5389 39.6824 27.2816 37.1061 25.027L33.8253 22.157L36.7543 13.369L31.4305 12.0378L28.8981 15.414L26.4799 12.9958L21.2066 14.3139L24.1543 22.1738L20.8932 25.027C18.316 27.2825 16.8379 30.5398 16.8379 33.9637C16.8379 40.5121 22.1645 45.8387 28.7129 45.8387H29.2854C35.8338 45.8387 41.1605 40.5121 41.1605 33.9637ZM25.9055 15.0679L29.1002 18.2626L32.1808 14.1548L34.3399 14.6946L32.0666 21.5162H25.9055L23.695 15.6207L25.9055 15.0679ZM29.2854 43.9678H28.7129C23.1964 43.9678 18.7089 39.4803 18.7089 33.9637C18.7089 31.0787 19.954 28.3349 22.1252 26.4349L25.6081 23.3871H32.3894L35.8731 26.4349C38.0444 28.3349 39.2895 31.0787 39.2895 33.9637C39.2895 39.4803 34.802 43.9678 29.2854 43.9678Z" fill="url(#paint1_linear_349_14059)"/>
<path d="M9.38296 27.2132C10.238 17.7368 17.7359 10.2379 27.2133 9.3829L28.0646 9.30619V1.80267L27.0636 1.87377C13.6506 2.82142 2.82148 13.6506 1.8729 27.0635L1.80273 28.0645H9.30625L9.38296 27.2132ZM18.982 9.90396C18.43 10.193 17.894 10.5074 17.372 10.8413L15.3064 7.74954C16.0314 7.27993 16.777 6.84025 17.5497 6.44548L18.982 9.90396ZM19.2486 5.65967C20.0559 5.31916 20.8782 5.01045 21.7248 4.75412L22.4592 8.44835C21.852 8.64106 21.258 8.86183 20.6761 9.10506L19.2486 5.65967ZM15.8415 11.919C15.3532 12.2951 14.8836 12.6908 14.4299 13.1071L11.8031 10.4802C12.4317 9.89554 13.0875 9.34174 13.7723 8.82254L15.8415 11.919ZM13.1071 14.4298C12.6918 14.8826 12.2951 15.3532 11.9191 15.8405L8.82261 13.7713C9.3418 13.0865 9.89561 12.4307 10.4793 11.8021L13.1071 14.4298ZM10.8414 17.371C10.5065 17.893 10.1931 18.429 9.90402 18.9819L6.44554 17.5487C6.84125 16.776 7.27999 16.0304 7.75054 15.3054L10.8414 17.371ZM9.10512 20.6761C8.8619 21.2589 8.64019 21.852 8.44841 22.4591L4.75419 21.7247C5.00957 20.8781 5.31922 20.0558 5.65973 19.2485L9.10512 20.6761ZM26.1936 7.61296C25.5416 7.69809 24.9017 7.81596 24.2693 7.95722L23.5396 4.28825C24.4106 4.09461 25.2927 3.9309 26.1936 3.8308V7.61296ZM3.83086 26.1935C3.93096 25.2927 4.09467 24.4105 4.28832 23.5396L7.95822 24.2693C7.81602 24.9007 7.69815 25.5415 7.61302 26.1935H3.83086Z" fill="url(#paint2_linear_349_14059)"/>
<path d="M48.6172 30.7868C47.7621 40.2633 40.2642 47.7621 30.7868 48.6172L29.9355 48.6939V56.1974L30.9365 56.1263C44.3495 55.1786 55.1786 44.3495 56.1263 30.9365L56.1974 29.9355H48.6939L48.6172 30.7868ZM54.1693 31.8065C52.8717 43.4982 43.4982 52.8717 31.8065 54.1693V50.3871C41.4963 49.1279 49.1279 41.4963 50.3871 31.8065H54.1693Z" fill="url(#paint3_linear_349_14059)"/>
<path d="M9.3829 30.7867L9.30619 29.9354H1.80268L1.87377 30.9364C2.43974 38.9432 6.52874 46.0276 12.5851 50.6414L8.96755 54.258H5.44077C5.05348 53.1719 4.02445 52.387 2.80645 52.387C1.25916 52.387 0 53.6462 0 55.1935C0 56.7408 1.25916 57.9999 2.80645 57.9999C4.02445 57.9999 5.05348 57.2151 5.44077 56.129H9.74213L14.1352 51.7359C17.908 54.2178 22.3225 55.7913 27.0635 56.1262L28.0645 56.1973V48.6937L27.2132 48.617C17.7358 47.762 10.2379 40.2641 9.3829 30.7867ZM2.80645 56.129C2.291 56.129 1.87097 55.7089 1.87097 55.1935C1.87097 54.678 2.291 54.258 2.80645 54.258C3.3219 54.258 3.74194 54.678 3.74194 55.1935C3.74194 55.7089 3.3219 56.129 2.80645 56.129ZM26.1935 54.1691C14.5019 52.8716 5.12832 43.4981 3.83081 31.8064H7.61297C8.87213 41.4961 16.5038 49.1278 26.1935 50.387V54.1691Z" fill="url(#paint4_linear_349_14059)"/>
<path d="M52.5593 3.74194C52.9466 4.82803 53.9756 5.6129 55.1936 5.6129C56.7409 5.6129 58.0001 4.35374 58.0001 2.80645C58.0001 1.25916 56.7409 0 55.1936 0C53.9756 0 52.9466 0.784871 52.5593 1.87097H48.2579L43.8649 6.264C40.0921 3.78216 35.6775 2.20868 30.9365 1.87377L29.9355 1.80268V9.30619L30.7868 9.3829C40.2633 10.2379 47.7621 17.7358 48.6172 27.2132L48.6939 28.0645H56.1974L56.1263 27.0635C55.5603 19.0567 51.4713 11.9723 45.415 7.35852L49.0325 3.74194H52.5593ZM55.1936 1.87097C55.7091 1.87097 56.1291 2.291 56.1291 2.80645C56.1291 3.3219 55.7091 3.74194 55.1936 3.74194C54.6782 3.74194 54.2581 3.3219 54.2581 2.80645C54.2581 2.291 54.6782 1.87097 55.1936 1.87097ZM54.1693 26.1935H50.3871C49.1279 16.5038 41.4963 8.87213 31.8065 7.61297V3.83081C43.4982 5.12832 52.8717 14.5019 54.1693 26.1935Z" fill="url(#paint5_linear_349_14059)"/>
<defs>
<linearGradient id="paint0_linear_349_14059" x1="28.9997" y1="27.1289" x2="28.9997" y2="40.2257" gradientUnits="userSpaceOnUse">
<stop stop-color="#54C4FC"/>
<stop offset="1" stop-color="#2479DF"/>
</linearGradient>
<linearGradient id="paint1_linear_349_14059" x1="28.9992" y1="12.0378" x2="28.9992" y2="45.8387" gradientUnits="userSpaceOnUse">
<stop stop-color="#54C4FC"/>
<stop offset="1" stop-color="#2479DF"/>
</linearGradient>
<linearGradient id="paint2_linear_349_14059" x1="14.9337" y1="1.80267" x2="14.9337" y2="28.0645" gradientUnits="userSpaceOnUse">
<stop stop-color="#54C4FC"/>
<stop offset="1" stop-color="#2479DF"/>
</linearGradient>
<linearGradient id="paint3_linear_349_14059" x1="43.0665" y1="29.9355" x2="43.0665" y2="56.1974" gradientUnits="userSpaceOnUse">
<stop stop-color="#54C4FC"/>
<stop offset="1" stop-color="#2479DF"/>
</linearGradient>
<linearGradient id="paint4_linear_349_14059" x1="14.0323" y1="29.9354" x2="14.0323" y2="57.9999" gradientUnits="userSpaceOnUse">
<stop stop-color="#54C4FC"/>
<stop offset="1" stop-color="#2479DF"/>
</linearGradient>
<linearGradient id="paint5_linear_349_14059" x1="43.9678" y1="0" x2="43.9678" y2="28.0645" gradientUnits="userSpaceOnUse">
<stop stop-color="#54C4FC"/>
<stop offset="1" stop-color="#2479DF"/>
</linearGradient>
</defs>
</svg>
