<svg width="26" height="25" viewBox="0 0 26 25" fill="none" xmlns="http://www.w3.org/2000/svg">
<path d="M0.538306 12.909L24.6706 24.047C25.0549 24.2215 25.5134 24.1175 25.7807 23.7871C26.0499 23.4566 26.0592 22.987 25.803 22.6473L17.8672 12.0662L25.803 1.48508C26.0592 1.14537 26.0499 0.673866 25.7826 0.345295C25.6025 0.120678 25.3334 1.71088e-05 25.0605 1.70849e-05C24.9287 1.70734e-05 24.7969 0.0278605 24.6725 0.0854071L0.540162 11.2234C0.209735 11.3756 -2.94312e-05 11.7042 -2.94629e-05 12.0662C-2.94945e-05 12.4282 0.209735 12.7567 0.538306 12.909Z" fill="#2479DF"/>
</svg>
