<svg width="59" height="70" viewBox="0 0 59 70" fill="none" xmlns="http://www.w3.org/2000/svg">
<path d="M39.896 63.1504L26.9876 56.1997L28.8529 52.4691C29.2304 51.7142 29.3563 50.8583 29.212 50.0266C29.0678 49.195 28.6611 48.4314 28.0515 47.8477C27.4418 47.264 26.6613 46.8908 25.8242 46.7828C24.9871 46.6748 24.1374 46.8377 23.3996 47.2476L14.7394 52.0588H0V54.3725H13.8823V67.098H0V69.4117H38.3174C39.0588 69.4117 39.779 69.1642 40.3639 68.7085C40.9487 68.2528 41.3647 67.615 41.546 66.896C41.7273 66.1771 41.6634 65.4182 41.3645 64.7397C41.0656 64.0612 40.5488 63.5019 39.896 63.1504ZM38.3174 67.098H16.1961V53.8963L24.5232 49.2701C24.829 49.1002 25.1812 49.0327 25.5282 49.0775C25.8751 49.1222 26.1986 49.2769 26.4513 49.5188C26.704 49.7608 26.8726 50.0773 26.9323 50.4219C26.9921 50.7666 26.94 51.1214 26.7835 51.4343L24.4163 56.1688C24.2817 56.4378 24.2573 56.7486 24.348 57.0354C24.4388 57.3221 24.6377 57.5622 24.9025 57.7048L38.7989 65.1874C38.9981 65.2947 39.1558 65.4653 39.2471 65.6724C39.3383 65.8794 39.3578 66.1109 39.3025 66.3303C39.2472 66.5497 39.1203 66.7443 38.9418 66.8834C38.7634 67.0224 38.5436 67.098 38.3174 67.098Z" fill="url(#paint0_linear_349_14048)"/>
<path d="M43.2823 15.0392L43.8196 14.5019C44.968 13.3598 45.8785 12.0012 46.4983 10.5048C47.1181 9.00845 47.435 7.404 47.4306 5.78434C47.4306 5.47752 47.3087 5.18327 47.0917 4.96631C46.8748 4.74936 46.5805 4.62748 46.2737 4.62747H43.5181L42.3821 2.35541C42.0303 1.64592 41.4868 1.04919 40.8132 0.632877C40.1396 0.216563 39.3628 -0.00267496 38.5709 2.46335e-05C37.9096 0.0016163 37.2578 0.15634 36.6663 0.452066C36.0749 0.747793 35.56 1.17648 35.1621 1.70453L34.0543 3.18154C33.8448 3.46063 33.5364 3.64896 33.1925 3.70786C32.8485 3.76676 32.4951 3.69178 32.2047 3.49829L30.7193 2.50807C30.5727 2.41042 30.4058 2.3475 30.2312 2.32411C30.0566 2.30071 29.879 2.31746 29.7119 2.37306L28.1698 2.88696C27.3775 3.15034 26.6882 3.65668 26.2 4.33407C25.7118 5.01146 25.4494 5.82546 25.4502 6.66045C25.4414 9.71188 26.5138 12.6678 28.4772 15.0036L19.6078 23.873C17.4187 26.0501 15.6833 28.6398 14.5018 31.4922C13.3203 34.3445 12.7163 37.4029 12.7247 40.4902C12.72 43.4088 13.2702 46.3016 14.346 49.0147L16.4968 48.1618C15.5289 45.7201 15.034 43.1167 15.0384 40.4902C15.0308 37.7068 15.5754 34.9496 16.6405 32.3781C17.7057 29.8066 19.2703 27.4719 21.2438 25.5092L30.5569 16.1961H33.069L32.9286 16.3365C32.3898 16.8724 31.9627 17.5098 31.6719 18.2118C31.3811 18.9139 31.2324 19.6667 31.2345 20.4266V23.1373H33.5482V20.4266C33.547 19.9706 33.6362 19.519 33.8107 19.0977C33.9851 18.6765 34.2414 18.294 34.5647 17.9725L35.862 16.6753L37.1591 17.9723C37.4824 18.2939 37.7387 18.6764 37.9132 19.0976C38.0877 19.5189 38.1769 19.9706 38.1757 20.4266V23.1373H40.4894V20.4266C40.4914 19.6666 40.3427 18.9139 40.0519 18.2118C39.7611 17.5097 39.334 16.8722 38.7952 16.3363L38.655 16.1961H41.167L50.4801 25.5092C52.4536 27.4719 54.0182 29.8066 55.0834 32.3781C56.1485 34.9496 56.6931 37.7068 56.6855 40.4902C56.6911 44.8644 55.3172 49.129 52.7593 52.6773C50.2014 56.2257 46.5898 58.8771 42.4381 60.2544L43.1682 62.4498C47.7812 60.9196 51.7942 57.9738 54.6364 54.0313C57.4787 50.0888 59.0053 45.3504 58.9992 40.4902C59.0076 37.4029 58.4036 34.3445 57.2221 31.4922C56.0406 28.6398 54.3051 26.0501 52.1161 23.873L43.2823 15.0392ZM41.1671 13.8824H30.573C28.76 11.9151 27.7567 9.33574 27.7639 6.66045C27.7636 6.31119 27.8733 5.9707 28.0775 5.68736C28.2818 5.40401 28.5701 5.19222 28.9015 5.08206L29.9067 4.74695L30.9213 5.42339C31.7038 5.94481 32.6562 6.14689 33.5831 5.98814C34.5099 5.82939 35.3408 5.32185 35.9052 4.56972L37.013 3.09271C37.1949 2.8514 37.4302 2.65549 37.7005 2.52034C37.9708 2.38519 38.2687 2.31448 38.5709 2.31375C38.9328 2.31252 39.2878 2.41273 39.5957 2.603C39.9035 2.79327 40.1519 3.066 40.3127 3.39026L41.7684 6.30176C41.8645 6.49391 42.0122 6.65551 42.1949 6.76845C42.3777 6.88139 42.5883 6.9412 42.8031 6.9412H45.0512C44.796 9.18449 43.7846 11.274 42.1835 12.8659L41.1671 13.8824Z" fill="url(#paint1_linear_349_14048)"/>
<path d="M50.9026 40.4903C50.901 38.301 50.4214 36.1385 49.4974 34.1539C48.5733 32.1692 47.2271 30.4102 45.5528 28.9997C43.8785 27.5892 41.9164 26.5613 39.8037 25.9877C37.6909 25.4142 35.4784 25.3088 33.3207 25.6789C31.1629 26.0491 29.112 26.8858 27.3112 28.1308C25.5104 29.3757 24.0031 30.9988 22.8946 32.8866C21.7861 34.7745 21.1031 36.8816 20.8934 39.0608C20.6837 41.2399 20.9522 43.4386 21.6803 45.5032L23.8618 44.7322C22.9028 42.0137 22.8963 39.0501 23.8433 36.3274C24.7902 33.6048 26.6343 31.2848 29.0732 29.7481C31.512 28.2114 34.4007 27.5491 37.2654 27.8701C40.1301 28.191 42.8007 29.476 44.839 31.5143C46.8774 33.5526 48.1624 36.2232 48.4834 39.0879C48.8044 41.9526 48.1422 44.8413 46.6056 47.2802C45.0689 49.719 42.7489 51.5632 40.0263 52.5102C37.3037 53.4572 34.34 53.4507 31.6216 52.4919L30.8504 54.6734C33.1191 55.4732 35.5465 55.7174 37.929 55.3857C40.3116 55.0539 42.5799 54.1559 44.5439 52.7668C46.5078 51.3776 48.1101 49.538 49.2165 47.402C50.3229 45.2659 50.9011 42.8958 50.9026 40.4903Z" fill="url(#paint2_linear_349_14048)"/>
<path d="M32.9876 36.6235L31.7973 34.6394L29.4836 36.0276C29.3123 36.1304 29.1705 36.2758 29.0721 36.4496C28.9736 36.6235 28.9219 36.8199 28.9219 37.0197V43.9608C28.9219 44.1606 28.9736 44.357 29.072 44.5308C29.1705 44.7047 29.3122 44.8501 29.4835 44.9529L35.2678 48.4235C35.4476 48.5313 35.6534 48.5883 35.863 48.5883C36.0727 48.5883 36.2785 48.5313 36.4583 48.4235L42.2426 44.9529C42.4139 44.8501 42.5556 44.7047 42.6541 44.5308C42.7525 44.357 42.8042 44.1606 42.8042 43.9608L42.8041 37.0195C42.8041 36.8197 42.7524 36.6234 42.654 36.4495C42.5555 36.2757 42.4138 36.1302 42.2425 36.0275L36.4582 32.557C36.2784 32.4492 36.0727 32.3922 35.863 32.3922C35.6534 32.3922 35.4477 32.4492 35.2679 32.557L33.3398 33.7139L34.5301 35.698L35.863 34.8981L40.4904 37.6745L40.4905 43.3059L35.863 46.0824L31.2356 43.3059V37.6746L32.9876 36.6235Z" fill="url(#paint3_linear_349_14048)"/>
<defs>
<linearGradient id="paint0_linear_349_14048" x1="20.8235" y1="46.7503" x2="20.8235" y2="69.4117" gradientUnits="userSpaceOnUse">
<stop stop-color="#54C4FC"/>
<stop offset="1" stop-color="#2479DF"/>
</linearGradient>
<linearGradient id="paint1_linear_349_14048" x1="35.8619" y1="0" x2="35.8619" y2="62.4498" gradientUnits="userSpaceOnUse">
<stop stop-color="#54C4FC"/>
<stop offset="1" stop-color="#2479DF"/>
</linearGradient>
<linearGradient id="paint2_linear_349_14048" x1="35.8634" y1="25.4624" x2="35.8634" y2="55.5295" gradientUnits="userSpaceOnUse">
<stop stop-color="#54C4FC"/>
<stop offset="1" stop-color="#2479DF"/>
</linearGradient>
<linearGradient id="paint3_linear_349_14048" x1="35.863" y1="32.3922" x2="35.863" y2="48.5883" gradientUnits="userSpaceOnUse">
<stop stop-color="#54C4FC"/>
<stop offset="1" stop-color="#2479DF"/>
</linearGradient>
</defs>
</svg>
