<svg width="96" height="96" viewBox="0 0 96 96" fill="none" xmlns="http://www.w3.org/2000/svg">
<path d="M81.7624 21.5157C90.8813 14.9478 86.2645 0.249474 74.8392 0.223704C63.4494 0.210157 58.7905 14.9919 67.9168 21.5158C65.7579 22.2345 63.7331 23.2855 61.9063 24.6239C52.997 20.2279 42.0598 20.2298 33.1539 24.6257C31.3275 23.2869 29.3023 22.2362 27.1427 21.5179C30.087 19.3742 32.0115 15.9127 32.0115 12.0026C32.0115 5.50801 26.7236 0.223653 20.2227 0.223653C8.85267 0.203875 4.16093 14.9967 13.308 21.5208C6.57425 23.7073 -3.3616 32.125 1.1248 39.9717C2.6117 42.4544 5.22997 43.9374 8.13029 43.9374H16.7224C12.3119 57.4304 18.0428 73.0204 30.0044 80.5567C24.8482 86.071 27.4539 95.0652 35.4347 95.2905C35.4345 95.2904 59.6293 95.2904 59.6293 95.2904C62.523 95.2904 65.1379 93.8083 66.6263 91.3257C68.865 87.8015 67.6019 83.5498 65.0584 80.5563C74.2064 74.6454 79.8138 64.4551 79.8138 53.4948C79.7335 51.8056 80.2149 48.963 77.8393 49.0377C75.5623 49.3697 76.5436 51.8497 76.4157 53.4948C76.4157 63.4658 71.2217 72.7175 62.79 77.9629C60.4676 75.6562 57.5484 73.8687 54.4733 72.8483C63.5863 66.3125 58.892 51.5435 47.5316 51.5701C31.9135 52.1602 31.9195 74.5401 47.532 75.1279C54.2492 75.0432 60.6834 78.9806 63.8221 84.8536C65.5736 87.8722 63.1352 92.0125 59.6292 91.8951C59.6293 91.8952 35.4345 91.8952 35.4345 91.8952C31.9366 92.0056 29.4866 87.8824 31.2351 84.8617C32.5242 82.4895 34.2863 80.4512 36.4731 78.8049C37.2231 78.2404 37.3725 77.1761 36.8083 76.4276C35.3037 74.606 33.4443 76.9211 32.2731 77.9634C20.6136 70.9379 15.4534 55.4694 20.6842 42.8705C21.0993 41.7634 20.2937 40.5715 19.106 40.5422C19.106 40.5421 8.13027 40.5421 8.13027 40.5421C4.63179 40.6602 2.1757 36.5414 3.93256 33.522C8.98622 23.518 23.2124 20.6537 31.7326 27.8008C33.6591 29.3422 35.2971 31.268 36.5063 33.5245C38.2723 36.5402 35.8177 40.6561 32.325 40.5421C32.3251 40.5421 27.6013 40.5421 27.6013 40.5421C25.3746 40.5806 25.3616 43.8974 27.6014 43.9374C27.6013 43.9374 32.3251 43.9374 32.3251 43.9374C38.3138 44.1387 42.5185 37.0747 39.4961 31.9139C38.5312 30.1152 37.336 28.4905 35.9603 27.0646C43.2396 23.9301 51.8133 23.9285 59.0976 27.0624C57.7219 28.4868 56.526 30.1095 55.5592 31.9057C52.5439 37.0848 56.7433 44.1388 62.7389 43.9439C62.7387 43.944 86.9401 43.944 86.9401 43.944C89.8371 43.944 92.4537 42.4611 93.9387 39.9768C98.4338 32.1235 88.4922 23.7062 81.7624 21.5157ZM39.1412 63.3489C39.1412 58.7261 42.906 54.9653 47.5319 54.9653C58.5989 55.3162 58.6291 71.3358 47.5671 71.7291C42.9331 71.7563 39.1389 67.982 39.1412 63.3489ZM11.8337 12.0025C12.186 0.922292 28.2621 0.926416 28.6134 12.0027C28.2604 23.0813 12.1844 23.0802 11.8337 12.0025ZM66.4487 12.0025C66.8017 0.923123 82.8788 0.92572 83.2301 12.0027C82.8771 23.082 66.8001 23.0794 66.4487 12.0025ZM91.0218 38.2344C90.1557 39.6834 88.6292 40.5488 86.9401 40.5488H62.7387C61.0496 40.5488 59.5231 39.6834 58.657 38.2344C56.392 34.3419 60.4749 30.3642 63.151 27.958C66.3901 25.2981 70.5007 23.7844 74.8394 23.7815C81.6538 23.7815 87.8959 27.5108 91.1264 33.5138C91.9328 35.0116 91.8946 36.7764 91.0218 38.2344Z" fill="#E1F5FF"/>
</svg>
