<svg width="68" height="58" viewBox="0 0 68 58" fill="none" xmlns="http://www.w3.org/2000/svg">
<path d="M60.9167 57.4869H7.08333C3.179 57.4869 0 54.3079 0 50.4035V44.7369C0 43.9549 0.634667 43.3202 1.41667 43.3202H2.83333C5.9585 43.3202 8.5 40.7787 8.5 37.6535C8.5 34.5284 5.9585 31.9869 2.83333 31.9869H1.41667C0.634667 31.9869 0 31.3522 0 30.5702V24.9035C0 20.9992 3.179 17.8202 7.08333 17.8202H60.9167C64.821 17.8202 68 20.9992 68 24.9035V30.5702C68 31.3522 67.3653 31.9869 66.5833 31.9869H65.1667C62.0415 31.9869 59.5 34.5284 59.5 37.6535C59.5 39.1665 60.0893 40.5889 61.1603 41.6599C62.2285 42.7309 63.6508 43.3202 65.1638 43.3202H66.5805C67.3625 43.3202 67.9972 43.9549 67.9972 44.7369V50.4035C68 54.3079 64.821 57.4869 60.9167 57.4869ZM2.83333 46.1535V50.4035C2.83333 52.7467 4.74017 54.6535 7.08333 54.6535H60.9167C63.2598 54.6535 65.1667 52.7467 65.1667 50.4035V46.1535C62.8972 46.1535 60.7608 45.2695 59.1572 43.6659C57.5507 42.0594 56.6667 39.923 56.6667 37.6535C56.6667 32.9672 60.4803 29.1535 65.1667 29.1535V24.9035C65.1667 22.5604 63.2598 20.6535 60.9167 20.6535H7.08333C4.74017 20.6535 2.83333 22.5604 2.83333 24.9035V29.1535C7.51967 29.1535 11.3333 32.9672 11.3333 37.6535C11.3333 42.3399 7.51967 46.1535 2.83333 46.1535Z" fill="url(#paint0_linear_349_14053)"/>
<path d="M24.0827 23.487C23.3007 23.487 22.666 22.8523 22.666 22.0703V19.237C22.666 18.455 23.3007 17.8203 24.0827 17.8203C24.8647 17.8203 25.4993 18.455 25.4993 19.237V22.0703C25.4993 22.8523 24.8647 23.487 24.0827 23.487Z" fill="url(#paint1_linear_349_14053)"/>
<path d="M24.0827 47.4597C23.3007 47.4597 22.666 46.8251 22.666 46.0431V41.2519C22.666 40.4699 23.3007 39.8352 24.0827 39.8352C24.8647 39.8352 25.4993 40.4671 25.4993 41.2519V46.0459C25.4993 46.8279 24.8647 47.4597 24.0827 47.4597ZM24.0827 35.4747C23.3007 35.4747 22.666 34.8401 22.666 34.0581V29.2641C22.666 28.4821 23.3007 27.8474 24.0827 27.8474C24.8647 27.8474 25.4993 28.4821 25.4993 29.2641V34.0581C25.4993 34.8401 24.8647 35.4747 24.0827 35.4747Z" fill="url(#paint2_linear_349_14053)"/>
<path d="M24.0827 57.487C23.3007 57.487 22.666 56.8523 22.666 56.0703V53.237C22.666 52.455 23.3007 51.8203 24.0827 51.8203C24.8647 51.8203 25.4993 52.455 25.4993 53.237V56.0703C25.4993 56.8523 24.8647 57.487 24.0827 57.487Z" fill="url(#paint3_linear_349_14053)"/>
<path d="M7.08265 20.6534C6.50748 20.6534 5.96631 20.3021 5.75665 19.7326C5.48181 18.9987 5.85298 18.1827 6.58681 17.9107L51.6368 1.08923C53.827 0.267567 56.3996 1.49723 57.1476 3.7044L62.2561 18.7806C62.5055 19.5229 62.1088 20.3247 61.3693 20.5769C60.6355 20.8291 59.8251 20.4296 59.573 19.6901L54.4645 4.6139C54.2151 3.87723 53.3595 3.4749 52.6256 3.74123L7.57565 20.5627C7.41415 20.6251 7.24698 20.6534 7.08265 20.6534Z" fill="url(#paint4_linear_349_14053)"/>
<defs>
<linearGradient id="paint0_linear_349_14053" x1="34" y1="17.8202" x2="34" y2="57.4869" gradientUnits="userSpaceOnUse">
<stop stop-color="#54C4FC"/>
<stop offset="1" stop-color="#2479DF"/>
</linearGradient>
<linearGradient id="paint1_linear_349_14053" x1="24.0827" y1="17.8203" x2="24.0827" y2="23.487" gradientUnits="userSpaceOnUse">
<stop stop-color="#54C4FC"/>
<stop offset="1" stop-color="#2479DF"/>
</linearGradient>
<linearGradient id="paint2_linear_349_14053" x1="24.0827" y1="27.8474" x2="24.0827" y2="47.4597" gradientUnits="userSpaceOnUse">
<stop stop-color="#54C4FC"/>
<stop offset="1" stop-color="#2479DF"/>
</linearGradient>
<linearGradient id="paint3_linear_349_14053" x1="24.0827" y1="51.8203" x2="24.0827" y2="57.487" gradientUnits="userSpaceOnUse">
<stop stop-color="#54C4FC"/>
<stop offset="1" stop-color="#2479DF"/>
</linearGradient>
<linearGradient id="paint4_linear_349_14053" x1="33.9983" y1="0.833008" x2="33.9983" y2="20.6534" gradientUnits="userSpaceOnUse">
<stop stop-color="#54C4FC"/>
<stop offset="1" stop-color="#2479DF"/>
</linearGradient>
</defs>
</svg>
