<svg width="21" height="21" viewBox="0 0 21 21" fill="none" xmlns="http://www.w3.org/2000/svg">
<path d="M8.14214 6.72794L6.72792 8.14215L9.55635 10.9706L6.72792 13.799L8.14214 15.2132L10.9706 12.3848L13.799 15.2132L15.2132 13.799L12.3848 10.9706L15.2132 8.14215L13.799 6.72794L10.9706 9.55637L8.14214 6.72794ZM3.8995 3.89951C-0.00373149 7.80274 -0.00373149 14.1384 3.8995 18.0416C7.80273 21.9449 14.1384 21.9449 18.0416 18.0416C21.9449 14.1384 21.9449 7.80274 18.0416 3.89951C14.1384 -0.00371599 7.80273 -0.00371633 3.8995 3.89951ZM16.6274 16.6274C13.5091 19.7458 8.43205 19.7458 5.31371 16.6274C2.19537 13.5091 2.19537 8.43207 5.31371 5.31373C8.43205 2.19539 13.5091 2.19539 16.6274 5.31373C19.7458 8.43207 19.7458 13.5091 16.6274 16.6274Z" fill="black"/>
</svg>
