<svg width="21" height="16" viewBox="0 0 21 16" fill="none" xmlns="http://www.w3.org/2000/svg">
<path fill-rule="evenodd" clip-rule="evenodd" d="M6.85434 0.148665C5.62939 0.420827 4.69665 0.720673 3.54287 1.21318C3.35209 1.29461 3.32186 1.32778 3.05584 1.74824C1.78032 3.76415 0.955296 5.8379 0.581898 7.96659C0.387728 9.07346 0.35101 9.55377 0.355875 10.9223C0.358385 11.6231 0.375103 12.2915 0.393095 12.4076L0.425759 12.6188L0.92769 12.96C2.18229 13.8129 3.48792 14.471 4.85356 14.9388C5.13453 15.035 5.3858 15.1055 5.41194 15.0955C5.50642 15.0592 6.46824 13.5231 6.46824 13.4085C6.46824 13.3945 6.36835 13.3437 6.24623 13.2955C5.94383 13.1763 4.95569 12.6854 4.89032 12.622C4.82352 12.5571 4.84047 12.5313 5.04665 12.3832L5.21441 12.2627L5.60001 12.4273C7.63681 13.2968 9.96766 13.5785 12.1246 13.2159C13.1182 13.049 14.0198 12.7753 15.0804 12.3188C15.216 12.2603 15.2196 12.2613 15.3892 12.3955C15.4837 12.4702 15.5609 12.5515 15.5609 12.5762C15.5609 12.6303 14.7557 13.0526 14.3254 13.2242C14.1555 13.2919 14.0007 13.3613 13.9814 13.3785C13.905 13.4462 14.9061 15.1061 15.0257 15.1101C15.0499 15.1109 15.2758 15.0406 15.5277 14.9539C16.9497 14.4642 18.2362 13.8183 19.4991 12.9601L20.0011 12.6191L20.0267 12.4078C20.0408 12.2916 20.0647 11.7969 20.0798 11.3084C20.1853 7.90346 19.3046 4.79728 17.3686 1.74658L17.0831 1.2967L16.5537 1.07666C15.577 0.67075 14.304 0.285229 13.363 0.110402L13.0184 0.0463867L12.9494 0.136889C12.9114 0.186619 12.7888 0.424766 12.6769 0.66604L12.4735 1.10473L12.2797 1.08098C12.1732 1.06793 11.9209 1.03643 11.7192 1.01102C11.2407 0.950751 9.22994 0.950442 8.72693 1.01056C8.51457 1.03596 8.25395 1.0667 8.14777 1.07886L7.95472 1.10102L7.70376 0.586967C7.41117 -0.0123777 7.46175 0.0137227 6.85434 0.148665ZM7.6436 6.51593C8.14596 6.76419 8.51364 7.2464 8.6538 7.84072C8.73056 8.16613 8.70666 8.70161 8.60144 9.01489C8.15515 10.3435 6.69905 10.7464 5.75418 9.80265C5.13596 9.18516 4.98538 8.18319 5.38769 7.36385C5.60681 6.91763 5.96739 6.59412 6.42407 6.43396C6.63866 6.35871 6.73623 6.34663 7.02079 6.3601C7.31565 6.37408 7.39858 6.39485 7.6436 6.51593ZM14.2143 6.51941C14.875 6.84589 15.2723 7.52118 15.2708 8.31462C15.2696 8.89346 15.0884 9.37412 14.7238 9.76478C13.7189 10.8417 12.0964 10.2787 11.7731 8.74088C11.6033 7.93331 11.956 7.0352 12.6071 6.6174C12.9245 6.41377 13.1912 6.34385 13.5845 6.36122C13.8825 6.37439 13.9606 6.394 14.2143 6.51941Z" fill="black"/>
</svg>
