<svg width="18" height="18" viewBox="0 0 18 18" fill="none" xmlns="http://www.w3.org/2000/svg">
<path d="M8.16666 11.5H9.83332V13.1667H8.16666V11.5ZM8.16666 4.83333H9.83332V9.83333H8.16666V4.83333ZM8.99166 0.666668C4.39166 0.666668 0.666656 4.4 0.666656 9C0.666656 13.6 4.39166 17.3333 8.99166 17.3333C13.6 17.3333 17.3333 13.6 17.3333 9C17.3333 4.4 13.6 0.666668 8.99166 0.666668ZM8.99999 15.6667C5.31666 15.6667 2.33332 12.6833 2.33332 9C2.33332 5.31667 5.31666 2.33333 8.99999 2.33333C12.6833 2.33333 15.6667 5.31667 15.6667 9C15.6667 12.6833 12.6833 15.6667 8.99999 15.6667Z" fill="white"/>
</svg>
