<svg width="20" height="17" viewBox="0 0 20 17" fill="none" xmlns="http://www.w3.org/2000/svg">
<path fill-rule="evenodd" clip-rule="evenodd" d="M17.8402 0.233891C16.5697 0.714861 0.911602 6.90532 0.680976 7.01784C-0.0853751 7.39163 -0.174968 7.88535 0.463005 8.21931C0.5246 8.25154 1.58444 8.60032 2.8182 8.99439L5.06145 9.71085L10.1552 6.43176C12.9567 4.62824 15.3053 3.13239 15.3742 3.10769C15.5472 3.04561 15.6961 3.05141 15.7656 3.12294C15.8142 3.173 15.8162 3.19812 15.7776 3.27169C15.752 3.32036 13.8916 5.059 11.6434 7.13532C9.39519 9.21163 7.54969 10.9267 7.54226 10.9466C7.53487 10.9664 7.45883 12.0031 7.37327 13.2502L7.21775 15.5176L7.38675 15.4942C7.4797 15.4813 7.62689 15.4319 7.71383 15.3845C7.80081 15.3371 8.38611 14.7914 9.01457 14.172C9.64298 13.5525 10.1789 13.0372 10.2055 13.0266C10.2321 13.0161 11.2329 13.7457 12.4295 14.6478C13.626 15.5499 14.6988 16.3326 14.8134 16.3871C15.114 16.5301 15.4526 16.5442 15.6725 16.4232C15.8689 16.315 16.0609 16.0463 16.1417 15.7665C16.1729 15.6582 16.857 12.4055 17.6619 8.53824C19.0019 2.09946 19.1253 1.47608 19.1257 1.1419C19.1262 0.826153 19.1134 0.751049 19.0312 0.584861C18.9733 0.467691 18.8744 0.348063 18.7778 0.278146C18.5569 0.118258 18.1912 0.101009 17.8402 0.233891Z" fill="black"/>
</svg>
