<svg width="82" height="83" viewBox="0 0 82 83" fill="none" xmlns="http://www.w3.org/2000/svg">
<path d="M55.4408 51.9084C55.1871 51.2043 54.4107 50.8393 53.7068 51.093C53.0027 51.3468 52.6377 52.1231 52.8914 52.8271C52.8977 52.8443 52.9043 52.8614 52.9112 52.8785C54.147 56.1034 54.2364 58.5694 53.1551 59.6534C51.8435 60.9622 48.5767 60.553 44.4143 58.5612C38.8417 55.6677 33.7763 51.8877 29.4162 47.3693C18.8028 36.7545 14.4236 26.3389 17.1321 23.6303C17.9964 22.9478 19.1199 22.6856 20.197 22.9149C20.9433 22.9698 21.5928 22.4092 21.6477 21.6629C21.7007 20.9416 21.1779 20.3058 20.4599 20.2185C18.576 19.8852 16.6432 20.4345 15.2162 21.709C10.2516 26.6722 17.8408 39.6189 27.5003 49.2798C32.0768 54.0157 37.3947 57.974 43.2449 60.9988C44.3044 61.5061 45.3961 61.9429 46.5131 62.3064L36.8861 65.9566C24.0309 61.0693 14.7767 49.6727 12.6323 36.0879C12.5163 35.3486 11.8229 34.8432 11.0836 34.9592C10.3443 35.0752 9.83887 35.7686 9.95489 36.5079C10.1676 37.8629 10.4522 39.2178 10.8004 40.543C13.9205 52.3648 22.1385 62.1858 33.225 67.3414L17.3801 73.3371C17.3074 73.2158 17.216 73.1071 17.1091 73.0146C13.0821 69.7815 10.5555 65.04 10.1175 59.8945L9.48879 52.281C9.43933 51.5434 8.80114 50.9855 8.06337 51.0349C8.04931 51.036 8.03525 51.037 8.02136 51.0385C7.27546 51.0978 6.71874 51.7507 6.77802 52.4966C6.77819 52.4997 6.77852 52.5029 6.77886 52.5059L7.4184 60.1167C7.89467 65.6167 10.4603 70.7249 14.5875 74.3913L3.28442 78.6702L5.31686 70.3291C5.49419 69.6017 5.04841 68.8683 4.32096 68.6909C3.59352 68.5136 2.86014 68.9594 2.68281 69.6868L0.0392827 80.5265C-0.138895 81.2533 0.305871 81.987 1.03281 82.165C1.2994 82.2304 1.57937 82.2131 1.83596 82.1159L51.9695 63.1464C52.0493 63.1075 52.1247 63.0602 52.1945 63.0055C53.2795 62.8389 54.2853 62.3372 55.0711 61.5706C56.4137 60.2279 57.5694 57.4597 55.4408 51.9084Z" fill="#65DB6A"/>
<path d="M68.2257 48.4124C60.901 45.6703 52.9841 44.9015 45.2686 46.1835L40.4273 46.9965C39.6924 47.1377 39.2112 47.8479 39.3525 48.5828C39.489 49.2928 40.1589 49.7706 40.8745 49.6685L45.7144 48.8623C52.9604 47.6575 60.3959 48.3801 67.2745 50.957C67.4271 51.0111 67.5882 51.0382 67.7501 51.037C68.4984 51.0382 69.1061 50.4327 69.1073 49.6842C69.1083 49.1177 68.7567 48.6104 68.2257 48.4124Z" fill="#65DB6A"/>
<path d="M73.0445 27.4213C72.7227 26.7455 71.9141 26.4586 71.2383 26.7804L42.7841 40.33C42.1085 40.6517 41.8214 41.4601 42.1431 42.1359L42.1432 42.1362C42.4649 42.8118 43.2733 43.0989 43.9491 42.7773L43.9494 42.7771L72.4036 29.2275C73.0794 28.9057 73.3663 28.0971 73.0445 27.4213Z" fill="#65DB6A"/>
<path d="M32.9078 10.1011C32.7588 9.36772 32.0435 8.89399 31.3101 9.04304C30.5768 9.19208 30.103 9.90733 30.2521 10.6407C30.2553 10.657 30.259 10.6731 30.2629 10.6891C31.978 18.3513 31.2712 26.3571 28.24 33.6002L26.2699 38.3277C25.9851 39.0165 26.3102 39.8059 26.9975 40.0945C27.1621 40.1638 27.3391 40.1992 27.5178 40.1989C28.0647 40.1989 28.5579 39.8703 28.7684 39.3656L30.7399 34.6435C33.9875 26.8848 34.7451 18.3089 32.9078 10.1011Z" fill="#65DB6A"/>
<path d="M74.5268 49.6836C72.2818 49.6836 70.4619 51.5035 70.4619 53.7485C70.4619 55.9935 72.2818 57.8134 74.5268 57.8134C76.7718 57.8134 78.5917 55.9935 78.5917 53.7485C78.5917 51.5035 76.7718 49.6836 74.5268 49.6836ZM74.5268 55.1034C73.7785 55.1034 73.1718 54.4968 73.1718 53.7485C73.1718 53.0002 73.7785 52.3935 74.5268 52.3935C75.2751 52.3935 75.8818 53.0002 75.8818 53.7485C75.8818 54.4968 75.2751 55.1034 74.5268 55.1034Z" fill="#65DB6A"/>
<path d="M42.01 11.7441C39.765 11.7441 37.9451 13.564 37.9451 15.809C37.9451 18.054 39.765 19.8739 42.01 19.8739C44.255 19.8739 46.0748 18.054 46.0748 15.809C46.0748 13.564 44.255 11.7441 42.01 11.7441ZM42.01 17.164C41.2617 17.164 40.655 16.5573 40.655 15.809C40.655 15.0607 41.2617 14.4541 42.01 14.4541C42.7582 14.4541 43.3649 15.0607 43.3649 15.809C43.3649 16.5573 42.7582 17.164 42.01 17.164Z" fill="#65DB6A"/>
<path d="M29.8151 6.32414C31.3118 6.32414 32.5251 5.11087 32.5251 3.61422C32.5251 2.11757 31.3118 0.904297 29.8151 0.904297C28.3185 0.904297 27.1052 2.11757 27.1052 3.61422C27.1052 5.11087 28.3185 6.32414 29.8151 6.32414Z" fill="#65DB6A"/>
<path d="M67.7539 7.67969C67.0056 7.67969 66.3989 8.28637 66.3989 9.03465V10.3896C66.3989 11.1379 67.0056 11.7446 67.7539 11.7446C68.5022 11.7446 69.1088 11.1379 69.1088 10.3896V9.03465C69.1088 8.28637 68.5022 7.67969 67.7539 7.67969Z" fill="#65DB6A"/>
<path d="M67.7539 0.904297C67.0056 0.904297 66.3989 1.51098 66.3989 2.25926V3.61422C66.3989 4.3625 67.0056 4.96918 67.7539 4.96918C68.5022 4.96918 69.1088 4.3625 69.1088 3.61422V2.25926C69.1088 1.51098 68.5022 0.904297 67.7539 0.904297Z" fill="#65DB6A"/>
<path d="M71.8147 4.96875H70.4597C69.7114 4.96875 69.1047 5.57543 69.1047 6.32371C69.1047 7.07199 69.7114 7.67867 70.4597 7.67867H71.8147C72.5629 7.67867 73.1696 7.07199 73.1696 6.32371C73.1696 5.57543 72.5629 4.96875 71.8147 4.96875Z" fill="#65DB6A"/>
<path d="M65.0405 4.96875H63.6855C62.9373 4.96875 62.3306 5.57543 62.3306 6.32371C62.3306 7.07199 62.9373 7.67867 63.6855 7.67867H65.0405C65.7888 7.67867 66.3955 7.07199 66.3955 6.32371C66.3955 5.57543 65.7888 4.96875 65.0405 4.96875Z" fill="#65DB6A"/>
<path d="M58.2691 15.7812H51.4658C50.7175 15.7812 50.1108 16.3879 50.1108 17.1362V23.9395C50.1108 24.6878 50.7175 25.2944 51.4658 25.2944H58.2691C59.0173 25.2944 59.624 24.6878 59.624 23.9395V17.1362C59.624 16.3879 59.0173 15.7812 58.2691 15.7812ZM56.9141 22.5845H52.8208V18.4912H56.9141V22.5845Z" fill="#65DB6A"/>
<path d="M48.3983 27.0947C47.9009 26.5637 47.073 26.5203 46.5229 26.9964L32.9733 39.1911C32.4174 39.6917 32.3725 40.5482 32.873 41.1043C33.3737 41.6602 34.2302 41.705 34.7862 41.2045L48.3358 29.0099C48.8821 28.4982 48.91 27.6409 48.3983 27.0947Z" fill="#65DB6A"/>
<path d="M73.1736 32.0684C72.4253 32.0684 71.8186 32.675 71.8186 33.4233V34.7783C71.8186 35.5266 72.4253 36.1332 73.1736 36.1332C73.9218 36.1332 74.5285 35.5266 74.5285 34.7783V33.4233C74.5285 32.675 73.9218 32.0684 73.1736 32.0684Z" fill="#65DB6A"/>
<path d="M78.9227 31.8345L77.9647 30.8765C77.4264 30.3566 76.5687 30.3715 76.0488 30.9097C75.5417 31.4348 75.5417 32.2672 76.0488 32.7925L77.0067 33.7504C77.545 34.2704 78.4027 34.2555 78.9227 33.7172C79.4299 33.192 79.4299 32.3595 78.9227 31.8345Z" fill="#65DB6A"/>
<path d="M79.9487 26.6484H78.5937C77.8455 26.6484 77.2388 27.2551 77.2388 28.0034C77.2388 28.7517 77.8455 29.3584 78.5937 29.3584H79.9487C80.697 29.3584 81.3037 28.7517 81.3037 28.0034C81.3037 27.2551 80.697 26.6484 79.9487 26.6484Z" fill="#65DB6A"/>
<path d="M78.8856 22.2553C78.3606 21.7482 77.5281 21.7482 77.0029 22.2553L76.0449 23.2133C75.5158 23.7426 75.516 24.6004 76.0453 25.1295C76.2993 25.3834 76.6438 25.5262 77.0029 25.5262C77.3623 25.5262 77.7068 25.3832 77.9608 25.1292L78.9188 24.1712C79.4388 23.633 79.4239 22.7751 78.8856 22.2553Z" fill="#65DB6A"/>
<path d="M73.1736 19.873C72.4253 19.873 71.8186 20.4797 71.8186 21.228V22.583C71.8186 23.3312 72.4253 23.9379 73.1736 23.9379C73.9218 23.9379 74.5285 23.3312 74.5285 22.583V21.228C74.5285 20.4797 73.9218 19.873 73.1736 19.873Z" fill="#65DB6A"/>
<path d="M70.2962 23.2133L69.3382 22.2554C68.8 21.7356 67.9423 21.7503 67.4223 22.2886C66.9152 22.8136 66.9152 23.6461 67.4223 24.1713L68.3803 25.1292C68.9185 25.6492 69.7762 25.6343 70.2962 25.0961C70.8034 24.5708 70.8034 23.7384 70.2962 23.2133Z" fill="#65DB6A"/>
<path d="M16.1949 6.76259C16.0353 6.27243 15.6114 5.9154 15.1014 5.84122L11.1246 5.26265L9.35094 1.6598C8.95563 0.988591 8.09099 0.764853 7.41978 1.16016C7.21349 1.2816 7.04157 1.45351 6.92014 1.6598L5.13836 5.26265L1.16155 5.84122C0.420893 5.94809 -0.0928065 6.63522 0.0140661 7.37588C0.056578 7.67075 0.195123 7.94327 0.408191 8.15143L3.28477 10.9562L2.60729 14.9168C2.47722 15.6537 2.96907 16.3566 3.706 16.4866C4.00273 16.539 4.30828 16.491 4.5747 16.3503L8.13147 14.475L11.6882 16.3449C12.3507 16.6931 13.1699 16.4385 13.5181 15.7761C13.6568 15.5124 13.7046 15.2104 13.6543 14.9168L12.9768 10.9562L15.8548 8.15143C16.2231 7.79084 16.3549 7.25258 16.1949 6.76259ZM10.5704 9.51316C10.2513 9.82396 10.1055 10.2718 10.1802 10.7109L10.5162 12.6689L8.76153 11.7434C8.36707 11.5363 7.89588 11.5363 7.50141 11.7434L5.73996 12.6675L6.076 10.7096C6.15204 10.2721 6.00876 9.82497 5.69254 9.51316L4.26848 8.12704L6.23453 7.84114C6.6759 7.77712 7.0575 7.49986 7.25481 7.09998L8.13147 5.32091L9.00949 7.09998C9.20663 7.49952 9.58755 7.77661 10.0284 7.84114L11.9931 8.12704L10.5704 9.51316Z" fill="#65DB6A"/>
<path d="M76.7229 68.8227H76.7175L76.1593 67.9853C73.0291 63.3045 68.1071 60.1217 62.5541 59.1876C61.8133 59.0819 61.127 59.5968 61.0213 60.3376C60.9192 61.0534 61.397 61.7232 62.107 61.8596C66.1122 62.5394 69.7623 64.5742 72.4467 67.6236C70.1898 68.0296 68.216 69.385 67.0268 71.3457C65.5675 73.9592 66.5033 77.2607 69.1169 78.72C71.7304 80.1793 75.032 79.2436 76.4912 76.63C77.0486 75.554 77.3496 74.3635 77.3706 73.1518C78.8123 75.2457 78.9276 77.9802 77.6674 80.1881C77.2856 80.8317 77.4978 81.663 78.1414 82.0448C78.785 82.4265 79.6163 82.2143 79.9981 81.5707C80.0102 81.55 80.0219 81.5292 80.0331 81.5079C82.514 77.0765 81.0527 71.4769 76.7229 68.8227ZM74.1282 75.3076C73.405 76.618 71.7565 77.0939 70.4462 76.3707C69.136 75.6475 68.6599 73.999 69.3831 72.6888C69.3872 72.6815 69.3912 72.674 69.3953 72.6667C70.1949 71.3575 71.5436 70.4798 73.0645 70.2793C73.3001 70.2729 73.5334 70.3271 73.742 70.4365C74.8856 71.0747 74.9466 73.8415 74.1282 75.3076Z" fill="#65DB6A"/>
</svg>
