<svg width="893" height="996" viewBox="0 0 893 996" fill="none" xmlns="http://www.w3.org/2000/svg">
<path d="M677.932 624.579C674.83 615.969 665.336 611.506 656.729 614.609C648.12 617.711 643.656 627.205 646.759 635.812C646.835 636.024 646.916 636.233 647.001 636.442C662.112 675.875 663.205 706.03 649.983 719.285C633.945 735.29 593.998 730.286 543.1 705.93C474.958 670.548 413.018 624.326 359.703 569.074C229.921 439.276 176.372 311.914 209.492 278.794C220.061 270.447 233.798 267.241 246.97 270.045C256.096 270.716 264.038 263.861 264.709 254.736C265.357 245.915 258.964 238.141 250.185 237.074C227.148 232.998 203.513 239.715 186.064 255.299C125.357 315.99 218.158 474.302 336.275 592.436C392.237 650.347 457.265 698.75 528.801 735.737C541.756 741.94 555.106 747.281 568.765 751.726L451.045 796.361C293.851 736.599 180.69 597.241 154.468 431.125C153.05 422.084 144.571 415.904 135.53 417.323C126.49 418.742 120.31 427.221 121.729 436.261C124.33 452.829 127.81 469.398 132.068 485.602C170.221 630.16 270.711 750.251 406.277 813.295L212.524 886.61C211.636 885.127 210.518 883.798 209.211 882.667C159.969 843.132 129.073 785.153 123.717 722.234L116.029 629.135C115.425 620.116 107.621 613.294 98.5992 613.898C98.4273 613.911 98.2554 613.923 98.0856 613.942C88.9646 614.667 82.157 622.651 82.8819 631.772C82.884 631.809 82.8881 631.848 82.8922 631.886L90.7126 724.951C96.5364 792.205 127.909 854.668 178.377 899.501L40.162 951.824L65.0148 849.828C67.1832 840.933 61.7322 831.965 52.8369 829.797C43.9417 827.628 34.974 833.079 32.8056 841.975L0.480351 974.523C-1.69841 983.41 3.74021 992.382 12.6292 994.558C15.8891 995.358 19.3126 995.147 22.4502 993.958L635.486 761.998C636.461 761.522 637.383 760.944 638.236 760.275C651.504 758.237 663.804 752.103 673.411 742.729C689.829 726.31 703.962 692.46 677.932 624.579Z" fill="#111111"/>
<path d="M834.267 581.847C744.699 548.316 647.891 538.916 553.546 554.592L494.347 564.533C485.36 566.26 479.476 574.944 481.204 583.93C482.873 592.612 491.064 598.455 499.814 597.206L558.997 587.348C647.602 572.616 738.523 581.451 822.636 612.963C824.502 613.623 826.471 613.955 828.451 613.94C837.601 613.955 845.032 606.551 845.047 597.398C845.059 590.471 840.76 584.268 834.267 581.847Z" fill="#111111"/>
<path d="M893.191 325.152C889.256 316.888 879.368 313.38 871.105 317.315L523.165 483C514.904 486.933 511.394 496.818 515.327 505.082L515.329 505.086C519.262 513.348 529.147 516.858 537.41 512.925L537.414 512.923L885.354 347.238C893.617 343.303 897.126 333.415 893.191 325.152Z" fill="#111111"/>
<path d="M402.399 113.355C400.576 104.387 391.83 98.5947 382.862 100.417C373.894 102.24 368.102 110.986 369.924 119.954C369.964 120.152 370.009 120.349 370.057 120.546C391.028 214.239 382.386 312.134 345.32 400.703L321.229 458.511C317.748 466.934 321.722 476.587 330.127 480.116C332.14 480.963 334.304 481.396 336.489 481.392C343.176 481.392 349.207 477.374 351.782 471.202L375.889 413.461C415.602 318.588 424.865 213.721 402.399 113.355Z" fill="#111111"/>
<path d="M911.318 597.371C883.866 597.371 861.613 619.625 861.613 647.077C861.613 674.529 883.866 696.782 911.318 696.782C938.77 696.782 961.024 674.529 961.024 647.077C961.024 619.625 938.77 597.371 911.318 597.371ZM911.318 663.645C902.168 663.645 894.75 656.227 894.75 647.077C894.75 637.927 902.168 630.508 911.318 630.508C920.468 630.508 927.887 637.927 927.887 647.077C927.887 656.227 920.468 663.645 911.318 663.645Z" fill="#111111"/>
<path d="M513.7 133.455C486.248 133.455 463.995 155.709 463.995 183.161C463.995 210.613 486.248 232.866 513.7 232.866C541.152 232.866 563.406 210.613 563.406 183.161C563.406 155.709 541.152 133.455 513.7 133.455ZM513.7 199.729C504.551 199.729 497.132 192.311 497.132 183.161C497.132 174.011 504.551 166.592 513.7 166.592C522.85 166.592 530.269 174.011 530.269 183.161C530.269 192.311 522.85 199.729 513.7 199.729Z" fill="#111111"/>
<path d="M364.582 67.1784C382.883 67.1784 397.719 52.3425 397.719 34.0414C397.719 15.7403 382.883 0.904297 364.582 0.904297C346.281 0.904297 331.445 15.7403 331.445 34.0414C331.445 52.3425 346.281 67.1784 364.582 67.1784Z" fill="#111111"/>
<path d="M828.497 83.748C819.347 83.748 811.928 91.1666 811.928 100.317V116.885C811.928 126.035 819.347 133.454 828.497 133.454C837.647 133.454 845.065 126.035 845.065 116.885V100.317C845.065 91.1666 837.647 83.748 828.497 83.748Z" fill="#111111"/>
<path d="M828.497 0.904297C819.347 0.904297 811.928 8.32286 811.928 17.4728V34.0414C811.928 43.1913 819.347 50.6099 828.497 50.6099C837.647 50.6099 845.065 43.1913 845.065 34.0414V17.4728C845.065 8.32286 837.647 0.904297 828.497 0.904297Z" fill="#111111"/>
<path d="M878.153 50.6113H861.584C852.434 50.6113 845.016 58.0299 845.016 67.1799C845.016 76.3298 852.434 83.7484 861.584 83.7484H878.153C887.303 83.7484 894.721 76.3298 894.721 67.1799C894.721 58.0299 887.303 50.6113 878.153 50.6113Z" fill="#111111"/>
<path d="M795.318 50.6113H778.749C769.599 50.6113 762.181 58.0299 762.181 67.1799C762.181 76.3298 769.599 83.7484 778.749 83.7484H795.318C804.468 83.7484 811.886 76.3298 811.886 67.1799C811.886 58.0299 804.468 50.6113 795.318 50.6113Z" fill="#111111"/>
<path d="M712.516 182.812H629.326C620.176 182.812 612.757 190.231 612.757 199.381V282.572C612.757 291.722 620.176 299.14 629.326 299.14H712.516C721.666 299.14 729.085 291.722 729.085 282.572V199.381C729.085 190.231 721.666 182.812 712.516 182.812ZM695.948 266.003H645.894V215.95H695.948V266.003Z" fill="#111111"/>
<path d="M591.82 321.165C585.738 314.672 575.614 314.142 568.887 319.964L403.202 469.081C396.405 475.203 395.856 485.676 401.976 492.476C408.098 499.273 418.571 499.822 425.371 493.702L591.056 344.585C597.735 338.328 598.077 327.844 591.82 321.165Z" fill="#111111"/>
<path d="M894.77 381.982C885.62 381.982 878.201 389.401 878.201 398.551V415.119C878.201 424.269 885.62 431.688 894.77 431.688C903.92 431.688 911.338 424.269 911.338 415.119V398.551C911.338 389.401 903.92 381.982 894.77 381.982Z" fill="#111111"/>
<path d="M894.77 232.863C885.62 232.863 878.201 240.282 878.201 249.432V266C878.201 275.15 885.62 282.569 894.77 282.569C903.92 282.569 911.338 275.15 911.338 266V249.432C911.338 240.282 903.92 232.863 894.77 232.863Z" fill="#111111"/>
<path d="M859.585 273.707L847.871 261.993C841.29 255.637 830.802 255.817 824.444 262.399C818.243 268.819 818.243 278.999 824.444 285.421L836.157 297.135C842.739 303.493 853.227 303.311 859.585 296.729C865.788 290.307 865.788 280.127 859.585 273.707Z" fill="#111111"/>
<path d="M198.031 72.5475C196.08 66.5538 190.897 62.188 184.661 61.2809L136.032 54.2061L114.344 10.1504C109.51 1.94272 98.937 -0.793157 90.7294 4.04071C88.2068 5.52567 86.1047 7.6278 84.6198 10.1504L62.8321 54.2061L14.2035 61.2809C5.1467 62.5877 -1.13484 70.99 0.172001 80.0468C0.691839 83.6525 2.38597 86.9849 4.99137 89.5302L40.1664 123.827L31.8821 172.257C30.2915 181.268 36.3059 189.863 45.3171 191.454C48.9456 192.094 52.6818 191.507 55.9396 189.786L99.432 166.856L142.924 189.72C151.024 193.978 161.042 190.865 165.3 182.765C166.996 179.541 167.58 175.848 166.965 172.257L158.681 123.827L193.873 89.5302C198.377 85.1209 199.989 78.5391 198.031 72.5475ZM129.255 106.182C125.353 109.982 123.57 115.458 124.484 120.828L128.593 144.77L107.136 133.453C102.313 130.92 96.5512 130.92 91.7276 133.453L70.1886 144.753L74.2976 120.812C75.2275 115.462 73.4753 109.994 69.6087 106.182L52.1951 89.232L76.2361 85.736C81.6333 84.9531 86.2994 81.5628 88.7122 76.673L99.432 54.9185L110.168 76.673C112.579 81.5587 117.237 84.9469 122.628 85.736L146.652 89.232L129.255 106.182Z" fill="#111111"/>
<path d="M938.171 831.405H938.105L931.279 821.166C893.004 763.928 832.816 725.008 764.914 713.586C755.855 712.294 747.463 718.59 746.171 727.649C744.922 736.401 750.765 744.592 759.447 746.259C808.423 754.573 853.057 779.454 885.881 816.742C858.284 821.706 834.148 838.281 819.607 862.256C801.763 894.214 813.205 934.586 845.164 952.43C877.123 970.274 917.494 958.832 935.338 926.873C942.154 913.715 945.834 899.158 946.091 884.341C963.72 909.946 965.131 943.383 949.72 970.382C945.052 978.252 947.647 988.417 955.517 993.085C963.387 997.753 973.552 995.158 978.22 987.288C978.369 987.035 978.512 986.781 978.648 986.52C1008.99 932.332 991.116 863.861 938.171 831.405ZM906.443 910.702C897.599 926.726 877.442 932.546 861.42 923.702C845.398 914.859 839.576 894.701 848.42 878.679C848.469 878.59 848.519 878.499 848.569 878.41C858.346 862.401 874.838 851.668 893.436 849.216C896.317 849.137 899.169 849.8 901.721 851.138C915.705 858.942 916.45 892.775 906.443 910.702Z" fill="#111111"/>
</svg>
