<svg width="39" height="43" viewBox="0 0 39 43" fill="none" xmlns="http://www.w3.org/2000/svg">
<path fill-rule="evenodd" clip-rule="evenodd" d="M19.4861 8.77875C19.4996 8.77916 19.5132 8.77937 19.5268 8.77937C19.5382 8.77937 19.5495 8.77922 19.5609 8.77893C24.8404 8.81209 29.1244 13.1165 29.1244 18.4037V23.283C29.1244 27.5195 30.981 31.5202 34.2203 34.259C34.2783 34.308 34.3745 34.4166 34.3745 34.5916C34.3745 34.8293 34.1748 35.029 33.9371 35.029H5.0618C4.82371 35.029 4.62408 34.8293 4.62408 34.5916C4.62408 34.4166 4.72053 34.308 4.78173 34.2554C8.01751 31.5202 9.87413 27.5195 9.87413 23.283V18.4037C9.87413 13.1004 14.1842 8.78596 19.4861 8.77875ZM20.8393 6.22649V2.21681C20.8393 1.4923 20.2513 0.904297 19.5268 0.904297C18.8023 0.904297 18.2143 1.4923 18.2143 2.21681V6.22063C12.0609 6.86495 7.2491 12.0828 7.2491 18.4037V23.283C7.2491 26.7463 5.73183 30.0151 3.07028 32.2639C2.38935 32.8468 1.99905 33.6953 1.99905 34.5916C1.99905 36.2803 3.37277 37.654 5.0618 37.654H13.0688C13.6783 40.6463 16.3298 42.9044 19.4996 42.9044C22.6694 42.9044 25.3209 40.6463 25.9304 37.654H33.9371C35.6258 37.654 36.9995 36.2803 36.9995 34.5916C36.9995 33.6953 36.6092 32.8468 35.911 32.2517C33.2667 30.0151 31.7494 26.7463 31.7494 23.283V18.4037C31.7494 12.1016 26.9661 6.89594 20.8393 6.22649ZM37.4366 19.7166C36.7121 19.7166 36.1241 19.1286 36.1241 18.4041C36.1241 13.3781 34.1678 8.65482 30.6151 5.10053C30.1024 4.58783 30.1024 3.75661 30.6151 3.24391C31.1278 2.73121 31.959 2.73121 32.472 3.24391C36.5198 7.29328 38.7491 12.6782 38.7491 18.4041C38.7491 19.1286 38.1611 19.7166 37.4366 19.7166ZM1.56251 19.7169C0.838003 19.7169 0.25 19.1289 0.25 18.4044C0.25 12.6785 2.4796 7.29356 6.52897 3.24579C7.04167 2.73309 7.87321 2.73309 8.38591 3.24579C8.89861 3.75849 8.89861 4.59003 8.38591 5.10273C4.83161 8.6551 2.87502 13.3783 2.87502 18.4044C2.87502 19.1289 2.28702 19.7169 1.56251 19.7169ZM19.4996 40.2793C21.2113 40.2793 22.671 39.1823 23.2125 37.654H15.7867C16.328 39.1823 17.7876 40.2793 19.4996 40.2793Z" fill="white"/>
</svg>
