<?xml version="1.0" standalone="no"?>
<!DOCTYPE svg PUBLIC "-//W3C//DTD SVG 20010904//EN"
 "http://www.w3.org/TR/2001/REC-SVG-20010904/DTD/svg10.dtd">
<svg version="1.0" xmlns="http://www.w3.org/2000/svg"
 width="1000.000000pt" height="750.000000pt" viewBox="0 0 1000.000000 750.000000"
 preserveAspectRatio="xMidYMid meet">

<g transform="translate(0.000000,750.000000) scale(0.100000,-0.100000)"
fill="#000000" stroke="none">
<path d="M2688 5588 c-78 -21 -138 -115 -124 -197 3 -20 142 -263 344 -600
187 -311 700 -1169 1141 -1906 441 -737 815 -1354 831 -1371 62 -65 173 -66
237 -4 15 15 543 889 1173 1941 l1145 1914 0 55 c-1 70 -28 116 -87 150 l-43
25 -545 0 c-501 0 -548 -1 -577 -18 -48 -26 -65 -47 -163 -211 -49 -83 -94
-157 -99 -164 -6 -10 -23 -4 -72 28 -142 92 -339 170 -524 206 -64 13 -138 18
-255 18 -187 0 -325 -22 -478 -75 -143 -51 -335 -155 -409 -222 l-22 -20 -20
34 c-141 237 -231 376 -252 391 -14 11 -43 23 -65 28 -53 13 -1089 11 -1136
-2z m1109 -531 l105 -177 -50 -78 c-92 -141 -156 -285 -197 -446 l-23 -89
-252 424 c-140 233 -271 452 -292 487 l-38 62 321 -2 320 -3 106 -178z m3019
-39 c-73 -123 -305 -510 -515 -860 -210 -351 -384 -638 -386 -638 -2 0 -50 76
-105 170 -56 93 -115 181 -131 194 -63 53 -155 48 -232 -14 -149 -119 -234
-156 -346 -148 -159 12 -272 129 -273 284 0 53 5 77 32 130 60 122 181 179
323 153 77 -14 132 -42 231 -118 43 -33 97 -66 119 -72 53 -14 115 3 155 42
16 16 173 270 348 564 l319 535 297 0 297 0 -133 -222z m-1646 82 c171 -18
324 -68 458 -149 118 -72 118 -47 6 -233 -53 -90 -101 -168 -105 -174 -6 -7
-34 2 -85 27 -112 55 -198 74 -329 73 -207 0 -375 -81 -504 -242 -208 -259
-173 -648 77 -872 65 -58 209 -133 290 -149 145 -30 329 -4 470 65 41 20 75
34 76 32 6 -6 183 -303 195 -325 11 -22 7 -26 -59 -69 -318 -205 -723 -230
-1063 -66 -128 62 -209 120 -310 219 -162 160 -271 372 -307 595 -18 108 -8
350 18 443 133 486 541 810 1052 833 14 1 68 -3 120 -8z m-330 -2525 c110 -17
315 -20 425 -4 42 6 79 8 82 5 5 -5 -339 -585 -347 -585 -5 0 -372 610 -378
628 -2 5 25 1 60 -9 35 -11 106 -26 158 -35z"/>
</g>
</svg>
