<svg width="28" height="28" viewBox="0 0 28 28" fill="none" xmlns="http://www.w3.org/2000/svg">
<path d="M13.1803 0H14.8213C14.8996 0.0204029 14.9792 0.0357779 15.0595 0.046031C17.364 0.214811 19.5099 0.896508 21.4468 2.14957C24.9211 4.39633 27.0582 7.55639 27.7918 11.6437C27.8824 12.1551 27.9328 12.6666 28.0015 13.178V14.8183C27.9806 14.8968 27.965 14.9767 27.9548 15.0573C27.8851 16.0571 27.7037 17.046 27.4141 18.0054C25.1571 25.5998 17.0388 29.7945 9.50509 27.2547C6.50974 26.2426 3.9459 24.2451 2.23207 21.5882C0.51824 18.9312 -0.244362 15.7718 0.0687384 12.6256C0.336887 9.84333 1.35468 7.34669 3.13236 5.18762C5.35207 2.48421 8.18481 0.8081 11.6422 0.210427C12.1515 0.122019 12.6673 0.0730651 13.1803 0ZM5.91979 13.0984C5.93148 12.9954 5.94536 12.9157 5.94829 12.8353C6.00588 11.3704 6.20927 9.9148 6.55546 8.49016C6.62194 8.21763 6.80972 7.89614 6.72424 7.68645C6.63364 7.4614 6.28585 7.34012 6.04985 7.17499L6.02793 7.15892L4.67111 6.11701C2.9833 8.13872 2.03054 10.4527 1.82157 13.0984H5.91979ZM4.67038 21.883C4.70098 21.8716 4.73055 21.8577 4.75879 21.8413C5.38715 21.3759 6.01039 20.9032 6.64606 20.4487C6.78123 20.3523 6.75565 20.2639 6.72351 20.1492C6.27167 18.5166 6.01368 16.8364 5.95486 15.1435C5.94756 14.9403 5.8818 14.8841 5.67941 14.8855C4.46872 14.8943 3.2573 14.8899 2.04661 14.8907C1.97098 14.8947 1.89561 14.9027 1.82084 14.9148C2.03565 17.5561 2.98477 19.8671 4.67038 21.883ZM21.2401 7.68133C21.2437 7.6996 21.2518 7.74271 21.2635 7.78508C21.7218 9.44415 21.9849 11.1511 22.0474 12.8711C22.054 13.0604 22.1205 13.1174 22.3068 13.1159C23.527 13.1086 24.7472 13.1159 25.9674 13.1115C26.0288 13.1115 26.0901 13.0998 26.1793 13.0903C25.9674 10.4522 25.0205 8.13166 23.3385 6.1287L21.2401 7.68133ZM22.0796 14.9053C22.0358 15.454 22.0007 15.9786 21.9517 16.5025C21.8318 17.7433 21.6062 18.9716 21.2773 20.174C21.2583 20.2471 21.2693 20.3713 21.3146 20.4049C21.981 20.893 22.6553 21.3693 23.3327 21.8523C24.7362 20.5313 26.3386 16.5938 26.1413 14.9053H22.0796ZM8.39743 8.48432C8.00107 9.9906 7.77486 11.5366 7.72304 13.0933H13.0992V9.62048C11.4787 9.51176 9.8887 9.12753 8.39743 8.48432ZM8.39743 19.4616C9.17411 19.2205 9.92595 18.9458 10.6997 18.7602C11.4735 18.5746 12.2881 18.4723 13.0911 18.332V14.9053H7.75007C7.65436 15.5979 8.05548 18.4124 8.39524 19.4616H8.39743ZM14.9046 13.0969H20.2807C20.2294 11.5395 20.0022 9.99288 19.6034 8.48651C18.1133 9.12986 16.5241 9.51339 14.9046 9.62048V13.0969ZM20.2815 14.9155H14.9068V18.3876C16.525 18.4893 18.1136 18.8685 19.6034 19.5084C19.9984 18.0072 20.2251 16.4668 20.2793 14.9155H20.2815ZM14.9053 20.1762V26.0499C16.5069 25.7328 18.259 23.4926 19.0226 21.2152C17.7236 20.626 16.3297 20.2739 14.9068 20.1755L14.9053 20.1762ZM19.0445 6.75779C18.9436 6.51887 18.8552 6.2909 18.7522 6.06878C18.1611 4.79599 17.4524 3.60649 16.3476 2.70122C15.9289 2.34276 15.4373 2.0795 14.9068 1.92965V7.80481C15.8216 7.85596 18.0902 7.28313 19.0445 6.75779ZM8.93811 6.76656C10.2492 7.36646 11.6578 7.72463 13.0962 7.82381V1.89312C10.821 2.79474 9.84485 4.73023 8.93811 6.76656ZM8.93153 21.2386C9.16972 21.7398 9.37869 22.2235 9.62346 22.6882C10.1846 23.7535 10.8656 24.726 11.8505 25.4522C12.2208 25.7399 12.6452 25.9501 13.0984 26.0703V20.174C11.6572 20.278 10.2461 20.6385 8.93153 21.2386ZM19.0364 2.87073L20.6936 5.88904L22.0737 4.84129C21.1679 4.03316 20.1436 3.3686 19.0364 2.87073ZM22.0752 23.1616L20.6943 22.1175C20.1229 23.1551 19.5742 24.1531 19.035 25.1337C20.1431 24.6354 21.1684 23.9703 22.0752 23.1616ZM7.30803 5.88758L8.96587 2.86853C7.85915 3.36729 6.83533 4.03259 5.93002 4.84129C6.41663 5.21246 6.8784 5.56244 7.30803 5.88758ZM8.96368 25.13L7.30803 22.1131L5.92783 23.1616C6.83448 23.9671 7.85777 24.6307 8.96295 25.13H8.96368Z" fill="#0F0F0F"/>
</svg>
