<svg width="28" height="22" viewBox="0 0 28 22" fill="none" xmlns="http://www.w3.org/2000/svg">
<path d="M27.9995 19.2306C27.9725 19.3259 27.9426 19.4212 27.9192 19.5172C27.5101 21.2096 25.8007 22.2216 24.1571 21.6971C22.8481 21.279 21.5573 20.8018 20.2614 20.3431C20.1715 20.3055 20.096 20.2397 20.0459 20.1555C19.8099 19.7625 19.5769 19.3665 19.3643 18.9602C19.3405 18.9067 19.3281 18.8487 19.3281 18.79C19.3281 18.7313 19.3405 18.6732 19.3643 18.6197C22.1991 13.5798 25.0398 8.54259 27.8863 3.50809C27.9202 3.45596 27.9581 3.40657 27.9995 3.36035V19.2306Z" fill="#0F0F0F"/>
<path d="M9.18039 13.0936C9.18039 15.8579 9.18039 18.6228 9.18551 21.387C9.18551 21.6086 9.12561 21.7128 8.91888 21.7904C8.10656 22.0947 7.31178 22.0726 6.5338 21.6899C4.90698 20.8862 3.27943 20.0832 1.6643 19.2522C0.578049 18.6974 0.0111822 17.7704 0.00826025 16.5382C-0.00196673 12.0597 -0.00269722 7.5812 0.00606875 3.10271C0.00606875 0.79057 2.34951 -0.640294 4.38906 0.41531C5.49065 0.985588 6.58859 1.56325 7.68287 2.1483C7.80713 2.2186 7.91112 2.32044 7.98457 2.44378C8.34982 3.05838 8.70849 3.67889 9.05329 4.30679C9.13097 4.4493 9.17333 4.60874 9.17674 4.77143C9.18307 7.54599 9.18429 10.3201 9.18039 13.0936Z" fill="#0F0F0F"/>
<path d="M18.3068 17.1305L16.764 14.4424C15.5032 12.245 14.2416 10.0481 12.9793 7.85167C12.9319 7.78773 12.9062 7.70997 12.9062 7.63006C12.9063 7.55014 12.9319 7.47238 12.9793 7.40845C14.1778 5.44153 15.371 3.47166 16.5587 1.49884C17.3462 0.207587 18.7166 -0.280694 20.155 0.156617C22.2734 0.799287 24.3984 1.40502 26.5213 2.02627C26.5987 2.04917 26.6761 2.07576 26.7828 2.10974L18.3068 17.1305Z" fill="#0F0F0F"/>
<path d="M17.0824 19.2425L14.6973 18.4099C13.4766 17.9844 12.2567 17.5575 11.0316 17.1379C10.8855 17.0869 10.8125 17.0278 10.8125 16.8535C10.8183 13.7859 10.82 10.7183 10.8176 7.65075C10.8176 7.60052 10.8256 7.55028 10.8359 7.43652C10.925 7.58426 10.982 7.66995 11.0353 7.76155L17.1715 18.4616C17.395 18.8458 17.395 18.8458 17.0824 19.2425Z" fill="#0F0F0F"/>
</svg>
