<svg width="28" height="23" viewBox="0 0 28 23" fill="none" xmlns="http://www.w3.org/2000/svg">
<path d="M27.9998 1.7846C27.837 2.50905 27.669 3.23277 27.512 3.95865C26.3164 9.47719 25.1225 14.9955 23.9303 20.5136C23.8426 20.9168 23.7681 21.3237 23.6608 21.7226C23.3081 23.0361 22.3362 23.3688 21.2204 22.5637C19.3086 21.1864 17.3986 19.8069 15.4902 18.4252C14.9316 18.0219 14.9323 18.0212 14.4409 18.4842C13.512 19.3594 12.5837 20.2346 11.6558 21.1098C11.5111 21.2566 11.3372 21.3723 11.1451 21.4499C10.953 21.5275 10.7468 21.5651 10.5393 21.5606C10.5656 21.1732 10.5889 20.793 10.6167 20.4135C10.7379 18.7291 10.8562 17.0447 10.9898 15.3618C11.0097 15.2168 11.0802 15.0831 11.1892 14.9837C15.0472 11.5564 18.9087 8.13345 22.7736 4.71478C22.8079 4.68454 22.8532 4.66149 22.8743 4.62477C22.9474 4.49299 23.0153 4.35616 23.0854 4.22078C22.9189 4.18837 22.7451 4.1106 22.5881 4.1358C22.4077 4.16461 22.2317 4.26759 22.0718 4.36624C17.2781 7.32019 12.4868 10.2777 7.69794 13.2389C7.60171 13.3076 7.48979 13.3518 7.3721 13.3676C7.2544 13.3834 7.13457 13.3704 7.02321 13.3296C5.03917 12.7074 3.0471 12.1054 1.06233 11.4875C0.794044 11.4047 0.540524 11.281 0.310918 11.121C-0.0666118 10.8531 -0.108965 10.4686 0.231323 10.1568C0.500662 9.90398 0.814424 9.70168 1.15726 9.55977C3.02519 8.82957 4.9048 8.12889 6.78004 7.42028C13.2012 4.99635 19.6224 2.57386 26.0436 0.152805C26.2287 0.0794284 26.4229 0.0309843 26.6212 0.00878089C27.3273 -0.0581905 27.7669 0.258664 27.9458 0.934139C27.9597 0.985267 27.9816 1.03424 27.9998 1.08464V1.7846Z" fill="#0F0F0F"/>
</svg>
