<svg width="30" height="25" viewBox="0 0 30 25" fill="none" xmlns="http://www.w3.org/2000/svg">
<path d="M0 21.2938C3.36251 21.5909 6.33294 20.795 9.03413 18.805C6.22186 18.5556 4.34824 17.1626 3.29631 14.582C4.22907 14.6846 5.09784 14.7114 6.03207 14.4555C4.56084 14.102 3.39267 13.395 2.49669 12.2868C1.60071 11.1787 1.1586 9.91728 1.16081 8.45564C2.01707 8.87779 2.87995 9.15538 3.83552 9.17851C1.13653 6.93761 0.514933 4.27745 2.01118 1.08237C5.37369 4.97213 9.5807 7.10098 14.6925 7.43928C14.6697 6.83713 14.6189 6.26462 14.6337 5.69355C14.7072 3.20327 16.6463 0.838037 19.1055 0.225043C21.3815 -0.343132 23.3767 0.164563 25.0912 1.74813C25.1417 1.80362 25.2075 1.84363 25.2805 1.86337C25.3536 1.88311 25.4309 1.88175 25.5032 1.85945C26.7933 1.57631 28.0309 1.0981 29.1717 0.441904C28.6891 1.87752 27.824 2.91195 26.636 3.72446C27.7887 3.62542 28.8745 3.29073 30 2.84617C29.2129 3.98324 28.336 4.93454 27.2723 5.70873C27.0031 5.90391 26.9332 6.1092 26.9398 6.4316C26.9987 9.21104 26.3727 11.8481 25.1464 14.3456C23.6751 17.3433 21.536 19.7671 18.6443 21.5295C16.5845 22.7822 14.3438 23.5275 11.9457 23.839C9.85683 24.1188 7.73444 24.0415 5.67236 23.6106C3.70857 23.196 1.83402 22.4461 0.133883 21.395C0.109607 21.3784 0.0882742 21.3596 0 21.2938Z" fill="#0F0F0F"/>
</svg>
