<svg width="41" height="40" viewBox="0 0 41 40" fill="none" xmlns="http://www.w3.org/2000/svg">
<path d="M40.1781 3.3282C40.0928 1.7651 38.8497 0.522116 37.2866 0.436806C34.1326 0.264495 27.9608 0.432118 22.0592 3.4846C19.0507 5.04077 15.8688 7.67915 13.3296 10.7233C13.2983 10.7608 13.2679 10.7985 13.2368 10.8361L7.47418 11.2812C6.52563 11.3545 5.68075 11.8517 5.15614 12.6452L1.22466 18.5917C0.826776 19.1934 0.763524 19.9466 1.05535 20.6062C1.34724 21.2659 1.94703 21.7257 2.65986 21.8361L7.51492 22.5881C7.49778 22.6825 7.48056 22.7768 7.46481 22.8711C7.30318 23.838 7.62351 24.832 8.32182 25.5303L15.0845 32.293C15.6635 32.872 16.4458 33.1912 17.2474 33.1912C17.4125 33.1912 17.5785 33.1776 17.7437 33.15C17.8381 33.1342 17.9324 33.117 18.0268 33.0999L18.7787 37.955C18.8892 38.6678 19.3489 39.2677 20.0085 39.5595C20.283 39.681 20.5734 39.7409 20.8625 39.7409C21.2686 39.7408 21.6717 39.6226 22.0231 39.3903L27.9696 35.4587C28.7631 34.934 29.2602 34.0892 29.3334 33.1407L29.7786 27.3781C29.8161 27.3471 29.854 27.3166 29.8915 27.2854C32.9356 24.7461 35.5741 21.5643 37.1302 18.5557C40.1828 12.6539 40.3501 6.48197 40.1781 3.3282ZM26.698 33.5353L21.0099 37.2961L20.277 32.5645C22.681 31.8577 25.0592 30.7256 27.3248 29.209L27.0348 32.963C27.0167 33.1972 26.8939 33.4058 26.698 33.5353ZM16.7149 30.6627L9.95209 23.8999C9.77955 23.7273 9.69977 23.4848 9.73889 23.2513C9.93994 22.049 10.2524 20.9046 10.6391 19.8264L20.7862 29.9735C19.4913 30.4374 18.3315 30.714 17.3635 30.8759C17.1296 30.9148 16.8874 30.8352 16.7149 30.6627ZM7.6518 13.5801L11.4057 13.2901C9.88907 15.5557 8.75698 17.9339 8.05014 20.3379L3.31859 19.6051L7.07945 13.9168C7.20903 13.7209 7.41769 13.5981 7.6518 13.5801ZM28.4148 25.5147C26.5523 27.0682 24.7444 28.1918 23.078 29.0048L11.6096 17.5364C12.6746 15.361 13.9745 13.5496 15.1001 12.2002C17.45 9.38304 20.3726 6.95279 23.1185 5.53249C28.5349 2.73087 34.2415 2.58 37.1611 2.73894C37.5475 2.76 37.8549 3.06735 37.8759 3.45385C38.0351 6.37345 37.8839 12.08 35.0823 17.4964C33.6621 20.2423 31.2318 23.1648 28.4148 25.5147Z" fill="#FFB800"/>
<path d="M27.8285 18.5499C29.3043 18.5497 30.7807 17.9879 31.9042 16.8644C32.993 15.7757 33.5924 14.3282 33.5924 12.7886C33.5924 11.2491 32.9929 9.80157 31.9042 8.71291C29.6568 6.46541 26 6.46557 23.7527 8.71291C22.664 9.80157 22.0645 11.2491 22.0645 12.7886C22.0645 14.3282 22.6641 15.7757 23.7527 16.8644C24.8765 17.9882 26.3522 18.5501 27.8285 18.5499ZM25.3829 10.3432C26.0571 9.66891 26.9427 9.33182 27.8283 9.33182C28.714 9.33182 29.5996 9.66891 30.2738 10.3432C30.927 10.9964 31.2867 11.8648 31.2867 12.7886C31.2867 13.7123 30.927 14.5808 30.2738 15.234C28.9254 16.5825 26.7313 16.5824 25.3829 15.234C24.7297 14.5808 24.3699 13.7124 24.3699 12.7886C24.3699 11.8649 24.7297 10.9964 25.3829 10.3432Z" fill="#FFB800"/>
<path d="M2.04928 32.8196C2.34433 32.8196 2.63938 32.707 2.86441 32.4819L6.62827 28.718C7.07849 28.2678 7.07849 27.5379 6.62827 27.0877C6.17813 26.6374 5.44815 26.6374 4.99793 27.0877L1.23415 30.8515C0.783929 31.3017 0.783929 32.0316 1.23415 32.4819C1.45918 32.707 1.75423 32.8196 2.04928 32.8196Z" fill="#FFB800"/>
<path d="M10.0783 30.5408C9.62816 30.0906 8.89818 30.0906 8.44796 30.5408L1.21169 37.7771C0.761468 38.2274 0.761468 38.9573 1.21169 39.4075C1.4368 39.6326 1.73177 39.7451 2.02682 39.7451C2.32187 39.7451 2.61692 39.6326 2.84195 39.4074L10.0782 32.1711C10.5285 31.7209 10.5285 30.991 10.0783 30.5408Z" fill="#FFB800"/>
<path d="M11.8969 33.9861L8.13308 37.75C7.68285 38.2002 7.68285 38.9301 8.13308 39.3803C8.35819 39.6054 8.65323 39.718 8.94821 39.718C9.24318 39.718 9.53831 39.6055 9.76334 39.3803L13.5272 35.6164C13.9774 35.1662 13.9774 34.4363 13.5272 33.9861C13.0771 33.5359 12.3471 33.5359 11.8969 33.9861Z" fill="#FFB800"/>
</svg>
